<?xml version="1.0" encoding="UTF-8" standalone="no"?>
<!DOCTYPE svg PUBLIC "-//W3C//DTD SVG 1.1//EN"
 "http://www.w3.org/Graphics/SVG/1.1/DTD/svg11.dtd">
<!-- Generated by graphviz version 2.36.0 (20140111.2315)
 -->
<!-- Title: src/analysis/utils/A2GeoAcceptance.h Pages: 1 -->
<svg width="2497pt" height="264pt"
 viewBox="0.00 0.00 2497.00 264.00" xmlns="http://www.w3.org/2000/svg" xmlns:xlink="http://www.w3.org/1999/xlink">
<g id="graph0" class="graph" transform="scale(1 1) rotate(0) translate(4 260)">
<title>src/analysis/utils/A2GeoAcceptance.h</title>
<polygon fill="white" stroke="none" points="-4,4 -4,-260 2493,-260 2493,4 -4,4"/>
<!-- Node20 -->
<g id="node1" class="node"><title>Node20</title>
<polygon fill="#bfbfbf" stroke="black" points="1468,-225 1468,-255 1578,-255 1578,-225 1468,-225"/>
<text text-anchor="start" x="1476" y="-243" font-family="Helvetica,sans-Serif" font-size="10.00">src/analysis/utils</text>
<text text-anchor="middle" x="1523" y="-232" font-family="Helvetica,sans-Serif" font-size="10.00">/A2GeoAcceptance.h</text>
</g>
<!-- Node21 -->
<g id="node2" class="node"><title>Node21</title>
<g id="a_node2"><a xlink:href="_pluto_reader_8h.html" target="_top" xlink:title="src/analysis/input\l/pluto/PlutoReader.h">
<polygon fill="white" stroke="black" points="311,-152 311,-182 417,-182 417,-152 311,-152"/>
<text text-anchor="start" x="319" y="-170" font-family="Helvetica,sans-Serif" font-size="10.00">src/analysis/input</text>
<text text-anchor="middle" x="364" y="-159" font-family="Helvetica,sans-Serif" font-size="10.00">/pluto/PlutoReader.h</text>
</a>
</g>
</g>
<!-- Node20&#45;&gt;Node21 -->
<g id="edge1" class="edge"><title>Node20&#45;&gt;Node21</title>
<path fill="none" stroke="midnightblue" d="M1457.8,-236.004C1307.31,-228.951 924.036,-210.211 604,-188 539.765,-183.542 465.962,-177.21 417.348,-172.872"/>
<polygon fill="midnightblue" stroke="midnightblue" points="1457.65,-239.5 1467.81,-236.471 1457.98,-232.508 1457.65,-239.5"/>
</g>
<!-- Node27 -->
<g id="node8" class="node"><title>Node27</title>
<g id="a_node8"><a xlink:href="_m_c_photon_pair_check_8h.html" target="_top" xlink:title="src/analysis/physics\l/check/MCPhotonPairCheck.h">
<polygon fill="white" stroke="black" points="851.5,-152 851.5,-182 1000.5,-182 1000.5,-152 851.5,-152"/>
<text text-anchor="start" x="859.5" y="-170" font-family="Helvetica,sans-Serif" font-size="10.00">src/analysis/physics</text>
<text text-anchor="middle" x="926" y="-159" font-family="Helvetica,sans-Serif" font-size="10.00">/check/MCPhotonPairCheck.h</text>
</a>
</g>
</g>
<!-- Node20&#45;&gt;Node27 -->
<g id="edge7" class="edge"><title>Node20&#45;&gt;Node27</title>
<path fill="none" stroke="midnightblue" d="M1457.51,-234.641C1361.24,-227.718 1176.04,-212.437 1020,-188 1009.37,-186.335 998.126,-184.239 987.257,-182.036"/>
<polygon fill="midnightblue" stroke="midnightblue" points="1457.45,-238.145 1467.67,-235.364 1457.94,-231.163 1457.45,-238.145"/>
</g>
<!-- Node29 -->
<g id="node10" class="node"><title>Node29</title>
<g id="a_node10"><a xlink:href="_etap_omega_g_8h.html" target="_top" xlink:title="src/analysis/physics\l/etaprime/EtapOmegaG.h">
<polygon fill="white" stroke="black" points="1029,-152 1029,-182 1157,-182 1157,-152 1029,-152"/>
<text text-anchor="start" x="1037" y="-170" font-family="Helvetica,sans-Serif" font-size="10.00">src/analysis/physics</text>
<text text-anchor="middle" x="1093" y="-159" font-family="Helvetica,sans-Serif" font-size="10.00">/etaprime/EtapOmegaG.h</text>
</a>
</g>
</g>
<!-- Node20&#45;&gt;Node29 -->
<g id="edge9" class="edge"><title>Node20&#45;&gt;Node29</title>
<path fill="none" stroke="midnightblue" d="M1457.63,-232.156C1385.71,-224.048 1266.93,-208.95 1166,-188 1157.89,-186.318 1149.36,-184.252 1141.09,-182.094"/>
<polygon fill="midnightblue" stroke="midnightblue" points="1457.56,-235.67 1467.89,-233.301 1458.34,-228.714 1457.56,-235.67"/>
</g>
<!-- Node32 -->
<g id="node13" class="node"><title>Node32</title>
<g id="a_node13"><a xlink:href="_etap_omega_g__simple_8cc.html" target="_top" xlink:title="src/analysis/physics\l/etaprime/EtapOmegaG\l_simple.cc">
<polygon fill="white" stroke="black" points="1175.5,-146.5 1175.5,-187.5 1294.5,-187.5 1294.5,-146.5 1175.5,-146.5"/>
<text text-anchor="start" x="1183.5" y="-175.5" font-family="Helvetica,sans-Serif" font-size="10.00">src/analysis/physics</text>
<text text-anchor="start" x="1183.5" y="-164.5" font-family="Helvetica,sans-Serif" font-size="10.00">/etaprime/EtapOmegaG</text>
<text text-anchor="middle" x="1235" y="-153.5" font-family="Helvetica,sans-Serif" font-size="10.00">_simple.cc</text>
</a>
</g>
</g>
<!-- Node20&#45;&gt;Node32 -->
<g id="edge12" class="edge"><title>Node20&#45;&gt;Node32</title>
<path fill="none" stroke="midnightblue" d="M1457.66,-224.9C1413.76,-215.171 1354.71,-201.587 1303,-188 1300.26,-187.281 1297.47,-186.529 1294.65,-185.757"/>
<polygon fill="midnightblue" stroke="midnightblue" points="1457.11,-228.363 1467.63,-227.101 1458.62,-221.527 1457.11,-228.363"/>
</g>
<!-- Node33 -->
<g id="node14" class="node"><title>Node33</title>
<g id="a_node14"><a xlink:href="etaprime-3pi0_8h.html" target="_top" xlink:title="src/analysis/physics\l/etaprime/etaprime&#45;3pi0.h">
<polygon fill="white" stroke="black" points="1312.5,-152 1312.5,-182 1439.5,-182 1439.5,-152 1312.5,-152"/>
<text text-anchor="start" x="1320.5" y="-170" font-family="Helvetica,sans-Serif" font-size="10.00">src/analysis/physics</text>
<text text-anchor="middle" x="1376" y="-159" font-family="Helvetica,sans-Serif" font-size="10.00">/etaprime/etaprime&#45;3pi0.h</text>
</a>
</g>
</g>
<!-- Node20&#45;&gt;Node33 -->
<g id="edge13" class="edge"><title>Node20&#45;&gt;Node33</title>
<path fill="none" stroke="midnightblue" d="M1484.81,-220.557C1459.97,-208.557 1428.06,-193.145 1405.23,-182.12"/>
<polygon fill="midnightblue" stroke="midnightblue" points="1483.43,-223.775 1493.96,-224.973 1486.48,-217.472 1483.43,-223.775"/>
</g>
<!-- Node35 -->
<g id="node16" class="node"><title>Node35</title>
<g id="a_node16"><a xlink:href="_geo_acceptance_8h.html" target="_top" xlink:title="src/analysis/physics\l/omega/GeoAcceptance.h">
<polygon fill="white" stroke="black" points="1458,-152 1458,-182 1588,-182 1588,-152 1458,-152"/>
<text text-anchor="start" x="1466" y="-170" font-family="Helvetica,sans-Serif" font-size="10.00">src/analysis/physics</text>
<text text-anchor="middle" x="1523" y="-159" font-family="Helvetica,sans-Serif" font-size="10.00">/omega/GeoAcceptance.h</text>
</a>
</g>
</g>
<!-- Node20&#45;&gt;Node35 -->
<g id="edge15" class="edge"><title>Node20&#45;&gt;Node35</title>
<path fill="none" stroke="midnightblue" d="M1523,-214.898C1523,-204.131 1523,-191.801 1523,-182.486"/>
<polygon fill="midnightblue" stroke="midnightblue" points="1519.5,-214.973 1523,-224.973 1526.5,-214.973 1519.5,-214.973"/>
</g>
<!-- Node37 -->
<g id="node18" class="node"><title>Node37</title>
<g id="a_node18"><a xlink:href="mctrue__acceptance_8h.html" target="_top" xlink:title="src/analysis/physics\l/omega/mctrue_acceptance.h">
<polygon fill="white" stroke="black" points="1606,-152 1606,-182 1752,-182 1752,-152 1606,-152"/>
<text text-anchor="start" x="1614" y="-170" font-family="Helvetica,sans-Serif" font-size="10.00">src/analysis/physics</text>
<text text-anchor="middle" x="1679" y="-159" font-family="Helvetica,sans-Serif" font-size="10.00">/omega/mctrue_acceptance.h</text>
</a>
</g>
</g>
<!-- Node20&#45;&gt;Node37 -->
<g id="edge17" class="edge"><title>Node20&#45;&gt;Node37</title>
<path fill="none" stroke="midnightblue" d="M1563.18,-220.715C1589.59,-208.692 1623.64,-193.194 1647.98,-182.12"/>
<polygon fill="midnightblue" stroke="midnightblue" points="1561.47,-217.645 1553.82,-224.973 1564.37,-224.016 1561.47,-217.645"/>
</g>
<!-- Node39 -->
<g id="node20" class="node"><title>Node39</title>
<g id="a_node20"><a xlink:href="_omega___ep_em__mc_8h.html" target="_top" xlink:title="src/analysis/physics\l/omega/Omega_EpEm_mc.h">
<polygon fill="white" stroke="black" points="1772.5,-152 1772.5,-182 1915.5,-182 1915.5,-152 1772.5,-152"/>
<text text-anchor="start" x="1780.5" y="-170" font-family="Helvetica,sans-Serif" font-size="10.00">src/analysis/physics</text>
<text text-anchor="middle" x="1844" y="-159" font-family="Helvetica,sans-Serif" font-size="10.00">/omega/Omega_EpEm_mc.h</text>
</a>
</g>
</g>
<!-- Node20&#45;&gt;Node39 -->
<g id="edge19" class="edge"><title>Node20&#45;&gt;Node39</title>
<path fill="none" stroke="midnightblue" d="M1588.31,-225.47C1636.19,-215.439 1702.72,-201.263 1761,-188 1769.24,-186.125 1777.92,-184.094 1786.45,-182.068"/>
<polygon fill="midnightblue" stroke="midnightblue" points="1587.46,-222.072 1578.39,-227.545 1588.9,-228.924 1587.46,-222.072"/>
</g>
<!-- Node41 -->
<g id="node22" class="node"><title>Node41</title>
<g id="a_node22"><a xlink:href="_omega___eta_g_8h.html" target="_top" xlink:title="src/analysis/physics\l/omega/Omega_EtaG.h">
<polygon fill="white" stroke="black" points="1942.5,-152 1942.5,-182 2061.5,-182 2061.5,-152 1942.5,-152"/>
<text text-anchor="start" x="1950.5" y="-170" font-family="Helvetica,sans-Serif" font-size="10.00">src/analysis/physics</text>
<text text-anchor="middle" x="2002" y="-159" font-family="Helvetica,sans-Serif" font-size="10.00">/omega/Omega_EtaG.h</text>
</a>
</g>
</g>
<!-- Node20&#45;&gt;Node41 -->
<g id="edge21" class="edge"><title>Node20&#45;&gt;Node41</title>
<path fill="none" stroke="midnightblue" d="M1588.53,-233.194C1668.25,-225.55 1806.74,-210.4 1924,-188 1932.79,-186.321 1942.06,-184.232 1951.02,-182.042"/>
<polygon fill="midnightblue" stroke="midnightblue" points="1587.77,-229.75 1578.15,-234.179 1588.44,-236.719 1587.77,-229.75"/>
</g>
<!-- Node43 -->
<g id="node24" class="node"><title>Node43</title>
<g id="a_node24"><a xlink:href="pi0eta_8h.html" target="_top" xlink:title="src/analysis/physics\l/omega/pi0eta.h">
<polygon fill="white" stroke="black" points="2083,-74 2083,-104 2189,-104 2189,-74 2083,-74"/>
<text text-anchor="start" x="2091" y="-92" font-family="Helvetica,sans-Serif" font-size="10.00">src/analysis/physics</text>
<text text-anchor="middle" x="2136" y="-81" font-family="Helvetica,sans-Serif" font-size="10.00">/omega/pi0eta.h</text>
</a>
</g>
</g>
<!-- Node20&#45;&gt;Node43 -->
<g id="edge25" class="edge"><title>Node20&#45;&gt;Node43</title>
<path fill="none" stroke="midnightblue" d="M1588.67,-239.779C1715.83,-240.183 1990.22,-235.34 2070,-188 2102.46,-168.74 2122.35,-126.539 2130.98,-104.325"/>
<polygon fill="midnightblue" stroke="midnightblue" points="1588.31,-236.278 1578.3,-239.733 1588.28,-243.277 1588.31,-236.278"/>
</g>
<!-- Node45 -->
<g id="node26" class="node"><title>Node45</title>
<g id="a_node26"><a xlink:href="single_pi0_8h.html" target="_top" xlink:title="src/analysis/physics\l/production/singlePi0.h">
<polygon fill="white" stroke="black" points="2192,-152 2192,-182 2308,-182 2308,-152 2192,-152"/>
<text text-anchor="start" x="2200" y="-170" font-family="Helvetica,sans-Serif" font-size="10.00">src/analysis/physics</text>
<text text-anchor="middle" x="2250" y="-159" font-family="Helvetica,sans-Serif" font-size="10.00">/production/singlePi0.h</text>
</a>
</g>
</g>
<!-- Node20&#45;&gt;Node45 -->
<g id="edge26" class="edge"><title>Node20&#45;&gt;Node45</title>
<path fill="none" stroke="midnightblue" d="M1588.14,-235.149C1699.04,-228.225 1931.53,-212.108 2127,-188 2148.26,-185.378 2171.47,-181.793 2191.94,-178.382"/>
<polygon fill="midnightblue" stroke="midnightblue" points="1587.88,-231.659 1578.11,-235.771 1588.31,-238.646 1587.88,-231.659"/>
</g>
<!-- Node48 -->
<g id="node29" class="node"><title>Node48</title>
<g id="a_node29"><a xlink:href="_a2_geo_acceptance_8cc.html" target="_top" xlink:title="src/analysis/utils\l/A2GeoAcceptance.cc">
<polygon fill="white" stroke="black" points="2326.5,-152 2326.5,-182 2441.5,-182 2441.5,-152 2326.5,-152"/>
<text text-anchor="start" x="2334.5" y="-170" font-family="Helvetica,sans-Serif" font-size="10.00">src/analysis/utils</text>
<text text-anchor="middle" x="2384" y="-159" font-family="Helvetica,sans-Serif" font-size="10.00">/A2GeoAcceptance.cc</text>
</a>
</g>
</g>
<!-- Node20&#45;&gt;Node48 -->
<g id="edge29" class="edge"><title>Node20&#45;&gt;Node48</title>
<path fill="none" stroke="midnightblue" d="M1588.58,-239.671C1725.08,-239.999 2049.22,-235.207 2316,-188 2324.36,-186.521 2333.15,-184.386 2341.54,-182.056"/>
<polygon fill="midnightblue" stroke="midnightblue" points="1588.31,-236.17 1578.3,-239.636 1588.29,-243.17 1588.31,-236.17"/>
</g>
<!-- Node49 -->
<g id="node30" class="node"><title>Node49</title>
<g id="a_node30"><a xlink:href="_m_c_fake_reconstructed_8h.html" target="_top" xlink:title="src/analysis/utils\l/MCFakeReconstructed.h">
<polygon fill="white" stroke="black" points="613.5,-152 613.5,-182 742.5,-182 742.5,-152 613.5,-152"/>
<text text-anchor="start" x="621.5" y="-170" font-family="Helvetica,sans-Serif" font-size="10.00">src/analysis/utils</text>
<text text-anchor="middle" x="678" y="-159" font-family="Helvetica,sans-Serif" font-size="10.00">/MCFakeReconstructed.h</text>
</a>
</g>
</g>
<!-- Node20&#45;&gt;Node49 -->
<g id="edge30" class="edge"><title>Node20&#45;&gt;Node49</title>
<path fill="none" stroke="midnightblue" d="M1457.51,-235.114C1336.02,-227.679 1067.57,-210.189 842,-188 809.173,-184.771 772.744,-180.407 742.574,-176.579"/>
<polygon fill="midnightblue" stroke="midnightblue" points="1457.56,-238.624 1467.75,-235.739 1457.99,-231.637 1457.56,-238.624"/>
</g>
<!-- Node22 -->
<g id="node3" class="node"><title>Node22</title>
<g id="a_node3"><a xlink:href="_ant_8cc.html" target="_top" xlink:title="Main Ant executable. ">
<polygon fill="white" stroke="black" points="0,-79.5 0,-98.5 72,-98.5 72,-79.5 0,-79.5"/>
<text text-anchor="middle" x="36" y="-86.5" font-family="Helvetica,sans-Serif" font-size="10.00">progs/Ant.cc</text>
</a>
</g>
</g>
<!-- Node21&#45;&gt;Node22 -->
<g id="edge2" class="edge"><title>Node21&#45;&gt;Node22</title>
<path fill="none" stroke="midnightblue" d="M300.841,-157.627C242.813,-148.97 154.868,-133.401 81,-110 71.3828,-106.953 61.0706,-102.466 52.7474,-98.5135"/>
<polygon fill="midnightblue" stroke="midnightblue" points="300.558,-161.123 310.96,-159.112 301.574,-154.197 300.558,-161.123"/>
</g>
<!-- Node23 -->
<g id="node4" class="node"><title>Node23</title>
<g id="a_node4"><a xlink:href="_pluto_reader_8cc.html" target="_top" xlink:title="src/analysis/input\l/pluto/PlutoReader.cc">
<polygon fill="white" stroke="black" points="90.5,-74 90.5,-104 201.5,-104 201.5,-74 90.5,-74"/>
<text text-anchor="start" x="98.5" y="-92" font-family="Helvetica,sans-Serif" font-size="10.00">src/analysis/input</text>
<text text-anchor="middle" x="146" y="-81" font-family="Helvetica,sans-Serif" font-size="10.00">/pluto/PlutoReader.cc</text>
</a>
</g>
</g>
<!-- Node21&#45;&gt;Node23 -->
<g id="edge3" class="edge"><title>Node21&#45;&gt;Node23</title>
<path fill="none" stroke="midnightblue" d="M314.245,-148.654C275.526,-135.156 222.481,-116.663 186.373,-104.075"/>
<polygon fill="midnightblue" stroke="midnightblue" points="313.167,-151.985 323.761,-151.972 315.471,-145.375 313.167,-151.985"/>
</g>
<!-- Node24 -->
<g id="node5" class="node"><title>Node24</title>
<g id="a_node5"><a xlink:href="_test_fitter_8cc.html" target="_top" xlink:title="test/analysis/TestFitter.cc">
<polygon fill="white" stroke="black" points="536.5,-79.5 536.5,-98.5 667.5,-98.5 667.5,-79.5 536.5,-79.5"/>
<text text-anchor="middle" x="602" y="-86.5" font-family="Helvetica,sans-Serif" font-size="10.00">test/analysis/TestFitter.cc</text>
</a>
</g>
</g>
<!-- Node21&#45;&gt;Node24 -->
<g id="edge4" class="edge"><title>Node21&#45;&gt;Node24</title>
<path fill="none" stroke="midnightblue" d="M417.75,-148.836C466.824,-133.166 537.327,-110.652 575.317,-98.5206"/>
<polygon fill="midnightblue" stroke="midnightblue" points="416.392,-145.596 407.93,-151.972 418.521,-152.264 416.392,-145.596"/>
</g>
<!-- Node25 -->
<g id="node6" class="node"><title>Node25</title>
<g id="a_node6"><a xlink:href="_test_physics_manager_8cc.html" target="_top" xlink:title="test/analysis/TestPhysics\lManager.cc">
<polygon fill="white" stroke="black" points="220,-74 220,-104 350,-104 350,-74 220,-74"/>
<text text-anchor="start" x="228" y="-92" font-family="Helvetica,sans-Serif" font-size="10.00">test/analysis/TestPhysics</text>
<text text-anchor="middle" x="285" y="-81" font-family="Helvetica,sans-Serif" font-size="10.00">Manager.cc</text>
</a>
</g>
</g>
<!-- Node21&#45;&gt;Node25 -->
<g id="edge5" class="edge"><title>Node21&#45;&gt;Node25</title>
<path fill="none" stroke="midnightblue" d="M341.686,-144.533C328.275,-131.632 311.581,-115.572 299.793,-104.231"/>
<polygon fill="midnightblue" stroke="midnightblue" points="339.508,-147.294 349.141,-151.705 344.361,-142.25 339.508,-147.294"/>
</g>
<!-- Node26 -->
<g id="node7" class="node"><title>Node26</title>
<g id="a_node7"><a xlink:href="_test_tree_fitter_8cc.html" target="_top" xlink:title="test/analysis/TestTreeFitter.cc">
<polygon fill="white" stroke="black" points="368,-79.5 368,-98.5 518,-98.5 518,-79.5 368,-79.5"/>
<text text-anchor="middle" x="443" y="-86.5" font-family="Helvetica,sans-Serif" font-size="10.00">test/analysis/TestTreeFitter.cc</text>
</a>
</g>
</g>
<!-- Node21&#45;&gt;Node26 -->
<g id="edge6" class="edge"><title>Node21&#45;&gt;Node26</title>
<path fill="none" stroke="midnightblue" d="M386.214,-144.629C402.076,-129.37 422.57,-109.654 434.098,-98.5635"/>
<polygon fill="midnightblue" stroke="midnightblue" points="383.639,-142.25 378.859,-151.705 388.492,-147.294 383.639,-142.25"/>
</g>
<!-- Node28 -->
<g id="node9" class="node"><title>Node28</title>
<g id="a_node9"><a xlink:href="_m_c_photon_pair_check_8cc.html" target="_top" xlink:title="src/analysis/physics\l/check/MCPhotonPairCheck.cc">
<polygon fill="white" stroke="black" points="838.5,-74 838.5,-104 993.5,-104 993.5,-74 838.5,-74"/>
<text text-anchor="start" x="846.5" y="-92" font-family="Helvetica,sans-Serif" font-size="10.00">src/analysis/physics</text>
<text text-anchor="middle" x="916" y="-81" font-family="Helvetica,sans-Serif" font-size="10.00">/check/MCPhotonPairCheck.cc</text>
</a>
</g>
</g>
<!-- Node27&#45;&gt;Node28 -->
<g id="edge8" class="edge"><title>Node27&#45;&gt;Node28</title>
<path fill="none" stroke="midnightblue" d="M922.788,-141.59C921.165,-129.257 919.253,-114.724 917.872,-104.231"/>
<polygon fill="midnightblue" stroke="midnightblue" points="919.344,-142.247 924.119,-151.705 926.285,-141.334 919.344,-142.247"/>
</g>
<!-- Node30 -->
<g id="node11" class="node"><title>Node30</title>
<g id="a_node11"><a xlink:href="_etap_omega_g_8cc.html" target="_top" xlink:title="src/analysis/physics\l/etaprime/EtapOmegaG.cc">
<polygon fill="white" stroke="black" points="1148.5,-74 1148.5,-104 1281.5,-104 1281.5,-74 1148.5,-74"/>
<text text-anchor="start" x="1156.5" y="-92" font-family="Helvetica,sans-Serif" font-size="10.00">src/analysis/physics</text>
<text text-anchor="middle" x="1215" y="-81" font-family="Helvetica,sans-Serif" font-size="10.00">/etaprime/EtapOmegaG.cc</text>
</a>
</g>
</g>
<!-- Node29&#45;&gt;Node30 -->
<g id="edge10" class="edge"><title>Node29&#45;&gt;Node30</title>
<path fill="none" stroke="midnightblue" d="M1124.36,-146.467C1145.65,-133.199 1173.32,-115.963 1192.46,-104.041"/>
<polygon fill="midnightblue" stroke="midnightblue" points="1122.3,-143.625 1115.66,-151.883 1126,-149.566 1122.3,-143.625"/>
</g>
<!-- Node31 -->
<g id="node12" class="node"><title>Node31</title>
<g id="a_node12"><a xlink:href="_etap_omega_g__plot_8cc.html" target="_top" xlink:title="src/analysis/physics\l/etaprime/EtapOmegaG\l_plot.cc">
<polygon fill="white" stroke="black" points="1011.5,-68.5 1011.5,-109.5 1130.5,-109.5 1130.5,-68.5 1011.5,-68.5"/>
<text text-anchor="start" x="1019.5" y="-97.5" font-family="Helvetica,sans-Serif" font-size="10.00">src/analysis/physics</text>
<text text-anchor="start" x="1019.5" y="-86.5" font-family="Helvetica,sans-Serif" font-size="10.00">/etaprime/EtapOmegaG</text>
<text text-anchor="middle" x="1071" y="-75.5" font-family="Helvetica,sans-Serif" font-size="10.00">_plot.cc</text>
</a>
</g>
</g>
<!-- Node29&#45;&gt;Node31 -->
<g id="edge11" class="edge"><title>Node29&#45;&gt;Node31</title>
<path fill="none" stroke="midnightblue" d="M1086.05,-141.982C1083.04,-131.576 1079.55,-119.545 1076.7,-109.68"/>
<polygon fill="midnightblue" stroke="midnightblue" points="1082.72,-143.073 1088.86,-151.705 1089.44,-141.126 1082.72,-143.073"/>
</g>
<!-- Node34 -->
<g id="node15" class="node"><title>Node34</title>
<g id="a_node15"><a xlink:href="etaprime-3pi0_8cc.html" target="_top" xlink:title="src/analysis/physics\l/etaprime/etaprime&#45;3pi0.cc">
<polygon fill="white" stroke="black" points="1300,-74 1300,-104 1432,-104 1432,-74 1300,-74"/>
<text text-anchor="start" x="1308" y="-92" font-family="Helvetica,sans-Serif" font-size="10.00">src/analysis/physics</text>
<text text-anchor="middle" x="1366" y="-81" font-family="Helvetica,sans-Serif" font-size="10.00">/etaprime/etaprime&#45;3pi0.cc</text>
</a>
</g>
</g>
<!-- Node33&#45;&gt;Node34 -->
<g id="edge14" class="edge"><title>Node33&#45;&gt;Node34</title>
<path fill="none" stroke="midnightblue" d="M1372.79,-141.59C1371.17,-129.257 1369.25,-114.724 1367.87,-104.231"/>
<polygon fill="midnightblue" stroke="midnightblue" points="1369.34,-142.247 1374.12,-151.705 1376.28,-141.334 1369.34,-142.247"/>
</g>
<!-- Node36 -->
<g id="node17" class="node"><title>Node36</title>
<g id="a_node17"><a xlink:href="_geo_acceptance_8cc.html" target="_top" xlink:title="src/analysis/physics\l/omega/GeoAcceptance.cc">
<polygon fill="white" stroke="black" points="1450.5,-74 1450.5,-104 1585.5,-104 1585.5,-74 1450.5,-74"/>
<text text-anchor="start" x="1458.5" y="-92" font-family="Helvetica,sans-Serif" font-size="10.00">src/analysis/physics</text>
<text text-anchor="middle" x="1518" y="-81" font-family="Helvetica,sans-Serif" font-size="10.00">/omega/GeoAcceptance.cc</text>
</a>
</g>
</g>
<!-- Node35&#45;&gt;Node36 -->
<g id="edge16" class="edge"><title>Node35&#45;&gt;Node36</title>
<path fill="none" stroke="midnightblue" d="M1521.39,-141.59C1520.58,-129.257 1519.63,-114.724 1518.94,-104.231"/>
<polygon fill="midnightblue" stroke="midnightblue" points="1517.91,-141.956 1522.06,-151.705 1524.9,-141.497 1517.91,-141.956"/>
</g>
<!-- Node38 -->
<g id="node19" class="node"><title>Node38</title>
<g id="a_node19"><a xlink:href="mctrue__acceptance_8cc.html" target="_top" xlink:title="src/analysis/physics\l/omega/mctrue_acceptance.cc">
<polygon fill="white" stroke="black" points="1603.5,-74 1603.5,-104 1754.5,-104 1754.5,-74 1603.5,-74"/>
<text text-anchor="start" x="1611.5" y="-92" font-family="Helvetica,sans-Serif" font-size="10.00">src/analysis/physics</text>
<text text-anchor="middle" x="1679" y="-81" font-family="Helvetica,sans-Serif" font-size="10.00">/omega/mctrue_acceptance.cc</text>
</a>
</g>
</g>
<!-- Node37&#45;&gt;Node38 -->
<g id="edge18" class="edge"><title>Node37&#45;&gt;Node38</title>
<path fill="none" stroke="midnightblue" d="M1679,-141.59C1679,-129.257 1679,-114.724 1679,-104.231"/>
<polygon fill="midnightblue" stroke="midnightblue" points="1675.5,-141.705 1679,-151.705 1682.5,-141.705 1675.5,-141.705"/>
</g>
<!-- Node40 -->
<g id="node21" class="node"><title>Node40</title>
<g id="a_node21"><a xlink:href="_omega___ep_em__mc_8cc.html" target="_top" xlink:title="src/analysis/physics\l/omega/Omega_EpEm_mc.cc">
<polygon fill="white" stroke="black" points="1773,-74 1773,-104 1921,-104 1921,-74 1773,-74"/>
<text text-anchor="start" x="1781" y="-92" font-family="Helvetica,sans-Serif" font-size="10.00">src/analysis/physics</text>
<text text-anchor="middle" x="1847" y="-81" font-family="Helvetica,sans-Serif" font-size="10.00">/omega/Omega_EpEm_mc.cc</text>
</a>
</g>
</g>
<!-- Node39&#45;&gt;Node40 -->
<g id="edge20" class="edge"><title>Node39&#45;&gt;Node40</title>
<path fill="none" stroke="midnightblue" d="M1844.96,-141.59C1845.45,-129.257 1846.02,-114.724 1846.44,-104.231"/>
<polygon fill="midnightblue" stroke="midnightblue" points="1841.46,-141.575 1844.56,-151.705 1848.46,-141.851 1841.46,-141.575"/>
</g>
<!-- Node42 -->
<g id="node23" class="node"><title>Node42</title>
<g id="a_node23"><a xlink:href="_omega___eta_g_8cc.html" target="_top" xlink:title="src/analysis/physics\l/omega/Omega_EtaG.cc">
<polygon fill="white" stroke="black" points="1939.5,-74 1939.5,-104 2064.5,-104 2064.5,-74 1939.5,-74"/>
<text text-anchor="start" x="1947.5" y="-92" font-family="Helvetica,sans-Serif" font-size="10.00">src/analysis/physics</text>
<text text-anchor="middle" x="2002" y="-81" font-family="Helvetica,sans-Serif" font-size="10.00">/omega/Omega_EtaG.cc</text>
</a>
</g>
</g>
<!-- Node41&#45;&gt;Node42 -->
<g id="edge22" class="edge"><title>Node41&#45;&gt;Node42</title>
<path fill="none" stroke="midnightblue" d="M2002,-141.59C2002,-129.257 2002,-114.724 2002,-104.231"/>
<polygon fill="midnightblue" stroke="midnightblue" points="1998.5,-141.705 2002,-151.705 2005.5,-141.705 1998.5,-141.705"/>
</g>
<!-- Node41&#45;&gt;Node43 -->
<g id="edge23" class="edge"><title>Node41&#45;&gt;Node43</title>
<path fill="none" stroke="midnightblue" d="M2035.81,-146.821C2059.29,-133.508 2090.03,-116.07 2111.24,-104.041"/>
<polygon fill="midnightblue" stroke="midnightblue" points="2033.86,-143.905 2026.89,-151.883 2037.32,-149.994 2033.86,-143.905"/>
</g>
<!-- Node44 -->
<g id="node25" class="node"><title>Node44</title>
<g id="a_node25"><a xlink:href="pi0eta_8cc.html" target="_top" xlink:title="src/analysis/physics\l/omega/pi0eta.cc">
<polygon fill="white" stroke="black" points="2083,-1 2083,-31 2189,-31 2189,-1 2083,-1"/>
<text text-anchor="start" x="2091" y="-19" font-family="Helvetica,sans-Serif" font-size="10.00">src/analysis/physics</text>
<text text-anchor="middle" x="2136" y="-8" font-family="Helvetica,sans-Serif" font-size="10.00">/omega/pi0eta.cc</text>
</a>
</g>
</g>
<!-- Node43&#45;&gt;Node44 -->
<g id="edge24" class="edge"><title>Node43&#45;&gt;Node44</title>
<path fill="none" stroke="midnightblue" d="M2136,-63.8976C2136,-53.1314 2136,-40.8005 2136,-31.4856"/>
<polygon fill="midnightblue" stroke="midnightblue" points="2132.5,-63.9727 2136,-73.9727 2139.5,-63.9727 2132.5,-63.9727"/>
</g>
<!-- Node46 -->
<g id="node27" class="node"><title>Node46</title>
<g id="a_node27"><a xlink:href="single_pi0_8cc.html" target="_top" xlink:title="src/analysis/physics\l/production/singlePi0.cc">
<polygon fill="white" stroke="black" points="2368.5,-74 2368.5,-104 2489.5,-104 2489.5,-74 2368.5,-74"/>
<text text-anchor="start" x="2376.5" y="-92" font-family="Helvetica,sans-Serif" font-size="10.00">src/analysis/physics</text>
<text text-anchor="middle" x="2429" y="-81" font-family="Helvetica,sans-Serif" font-size="10.00">/production/singlePi0.cc</text>
</a>
</g>
</g>
<!-- Node45&#45;&gt;Node46 -->
<g id="edge27" class="edge"><title>Node45&#45;&gt;Node46</title>
<path fill="none" stroke="midnightblue" d="M2292.69,-147.873C2324.34,-134.437 2366.85,-116.389 2395.93,-104.041"/>
<polygon fill="midnightblue" stroke="midnightblue" points="2291.09,-144.753 2283.25,-151.883 2293.82,-151.197 2291.09,-144.753"/>
</g>
<!-- Node47 -->
<g id="node28" class="node"><title>Node47</title>
<g id="a_node28"><a xlink:href="single_pi0_plots_8cc.html" target="_top" xlink:title="src/analysis/physics\l/production/singlePi0Plots.cc">
<polygon fill="white" stroke="black" points="2207.5,-74 2207.5,-104 2350.5,-104 2350.5,-74 2207.5,-74"/>
<text text-anchor="start" x="2215.5" y="-92" font-family="Helvetica,sans-Serif" font-size="10.00">src/analysis/physics</text>
<text text-anchor="middle" x="2279" y="-81" font-family="Helvetica,sans-Serif" font-size="10.00">/production/singlePi0Plots.cc</text>
</a>
</g>
</g>
<!-- Node45&#45;&gt;Node47 -->
<g id="edge28" class="edge"><title>Node45&#45;&gt;Node47</title>
<path fill="none" stroke="midnightblue" d="M2259.03,-142.334C2263.8,-129.845 2269.49,-114.936 2273.57,-104.231"/>
<polygon fill="midnightblue" stroke="midnightblue" points="2255.75,-141.114 2255.45,-151.705 2262.29,-143.61 2255.75,-141.114"/>
</g>
<!-- Node49&#45;&gt;Node24 -->
<g id="edge32" class="edge"><title>Node49&#45;&gt;Node24</title>
<path fill="none" stroke="midnightblue" d="M656.629,-144.629C641.37,-129.37 621.654,-109.654 610.564,-98.5635"/>
<polygon fill="midnightblue" stroke="midnightblue" points="654.159,-147.109 663.705,-151.705 659.109,-142.159 654.159,-147.109"/>
</g>
<!-- Node49&#45;&gt;Node26 -->
<g id="edge33" class="edge"><title>Node49&#45;&gt;Node26</title>
<path fill="none" stroke="midnightblue" d="M624.928,-148.836C576.472,-133.166 506.858,-110.652 469.347,-98.5206"/>
<polygon fill="midnightblue" stroke="midnightblue" points="624.032,-152.225 634.624,-151.972 626.186,-145.564 624.032,-152.225"/>
</g>
<!-- Node50 -->
<g id="node31" class="node"><title>Node50</title>
<g id="a_node31"><a xlink:href="_m_c_fake_reconstructed_8cc.html" target="_top" xlink:title="src/analysis/utils\l/MCFakeReconstructed.cc">
<polygon fill="white" stroke="black" points="686,-74 686,-104 820,-104 820,-74 686,-74"/>
<text text-anchor="start" x="694" y="-92" font-family="Helvetica,sans-Serif" font-size="10.00">src/analysis/utils</text>
<text text-anchor="middle" x="753" y="-81" font-family="Helvetica,sans-Serif" font-size="10.00">/MCFakeReconstructed.cc</text>
</a>
</g>
</g>
<!-- Node49&#45;&gt;Node50 -->
<g id="edge31" class="edge"><title>Node49&#45;&gt;Node50</title>
<path fill="none" stroke="midnightblue" d="M699.184,-144.533C711.916,-131.632 727.765,-115.572 738.956,-104.231"/>
<polygon fill="midnightblue" stroke="midnightblue" points="696.64,-142.129 692.107,-151.705 701.622,-147.046 696.64,-142.129"/>
</g>
</g>
</svg>
