<?xml version="1.0" encoding="UTF-8" standalone="no"?>
<!DOCTYPE svg PUBLIC "-//W3C//DTD SVG 1.1//EN"
 "http://www.w3.org/Graphics/SVG/1.1/DTD/svg11.dtd">
<!-- Generated by graphviz version 2.36.0 (20140111.2315)
 -->
<!-- Title: src/calibration/converters/CATCH_TDC.h Pages: 1 -->
<svg width="1580pt" height="186pt"
 viewBox="0.00 0.00 1580.00 186.00" xmlns="http://www.w3.org/2000/svg" xmlns:xlink="http://www.w3.org/1999/xlink">
<g id="graph0" class="graph" transform="scale(1 1) rotate(0) translate(4 182)">
<title>src/calibration/converters/CATCH_TDC.h</title>
<polygon fill="white" stroke="none" points="-4,4 -4,-182 1576,-182 1576,4 -4,4"/>
<!-- Node52 -->
<g id="node1" class="node"><title>Node52</title>
<polygon fill="#bfbfbf" stroke="black" points="736,-147 736,-177 862,-177 862,-147 736,-147"/>
<text text-anchor="start" x="744" y="-165" font-family="Helvetica,sans-Serif" font-size="10.00">src/calibration/converters</text>
<text text-anchor="middle" x="799" y="-154" font-family="Helvetica,sans-Serif" font-size="10.00">/CATCH_TDC.h</text>
</g>
<!-- Node53 -->
<g id="node2" class="node"><title>Node53</title>
<g id="a_node2"><a xlink:href="analysis_2physics_2calibration_2_c_b___source_calib_8h.html" target="_top" xlink:title="src/analysis/physics\l/calibration/CB_SourceCalib.h">
<polygon fill="white" stroke="black" points="2,-74 2,-104 150,-104 150,-74 2,-74"/>
<text text-anchor="start" x="10" y="-92" font-family="Helvetica,sans-Serif" font-size="10.00">src/analysis/physics</text>
<text text-anchor="middle" x="76" y="-81" font-family="Helvetica,sans-Serif" font-size="10.00">/calibration/CB_SourceCalib.h</text>
</a>
</g>
</g>
<!-- Node52&#45;&gt;Node53 -->
<g id="edge1" class="edge"><title>Node52&#45;&gt;Node53</title>
<path fill="none" stroke="midnightblue" d="M725.816,-158.901C606.461,-154.643 362.755,-142.461 159,-110 149.193,-108.438 138.834,-106.323 128.884,-104.052"/>
<polygon fill="midnightblue" stroke="midnightblue" points="725.815,-162.403 735.931,-159.253 726.059,-155.407 725.815,-162.403"/>
</g>
<!-- Node55 -->
<g id="node4" class="node"><title>Node55</title>
<g id="a_node4"><a xlink:href="analysis_2physics_2calibration_2_c_b___time_walk_8cc.html" target="_top" xlink:title="src/analysis/physics\l/calibration/CB_TimeWalk.cc">
<polygon fill="white" stroke="black" points="168,-74 168,-104 312,-104 312,-74 168,-74"/>
<text text-anchor="start" x="176" y="-92" font-family="Helvetica,sans-Serif" font-size="10.00">src/analysis/physics</text>
<text text-anchor="middle" x="240" y="-81" font-family="Helvetica,sans-Serif" font-size="10.00">/calibration/CB_TimeWalk.cc</text>
</a>
</g>
</g>
<!-- Node52&#45;&gt;Node55 -->
<g id="edge3" class="edge"><title>Node52&#45;&gt;Node55</title>
<path fill="none" stroke="midnightblue" d="M725.765,-156.203C631.772,-149.353 463.892,-134.777 322,-110 312.617,-108.362 302.713,-106.266 293.156,-104.051"/>
<polygon fill="midnightblue" stroke="midnightblue" points="725.515,-159.694 735.74,-156.921 726.018,-152.712 725.515,-159.694"/>
</g>
<!-- Node56 -->
<g id="node5" class="node"><title>Node56</title>
<g id="a_node5"><a xlink:href="_setup__2007___base_8cc.html" target="_top" xlink:title="src/expconfig/setups\l/Setup_2007_Base.cc">
<polygon fill="white" stroke="black" points="330.5,-74 330.5,-104 443.5,-104 443.5,-74 330.5,-74"/>
<text text-anchor="start" x="338.5" y="-92" font-family="Helvetica,sans-Serif" font-size="10.00">src/expconfig/setups</text>
<text text-anchor="middle" x="387" y="-81" font-family="Helvetica,sans-Serif" font-size="10.00">/Setup_2007_Base.cc</text>
</a>
</g>
</g>
<!-- Node52&#45;&gt;Node56 -->
<g id="edge4" class="edge"><title>Node52&#45;&gt;Node56</title>
<path fill="none" stroke="midnightblue" d="M725.88,-153.404C655.453,-145.342 546.182,-130.866 453,-110 445.523,-108.326 437.659,-106.238 430.069,-104.049"/>
<polygon fill="midnightblue" stroke="midnightblue" points="725.652,-156.901 735.982,-154.547 726.439,-149.945 725.652,-156.901"/>
</g>
<!-- Node57 -->
<g id="node6" class="node"><title>Node57</title>
<g id="a_node6"><a xlink:href="_setup__2010__03___base_8cc.html" target="_top" xlink:title="src/expconfig/setups\l/Setup_2010_03_Base.cc">
<polygon fill="white" stroke="black" points="462,-74 462,-104 590,-104 590,-74 462,-74"/>
<text text-anchor="start" x="470" y="-92" font-family="Helvetica,sans-Serif" font-size="10.00">src/expconfig/setups</text>
<text text-anchor="middle" x="526" y="-81" font-family="Helvetica,sans-Serif" font-size="10.00">/Setup_2010_03_Base.cc</text>
</a>
</g>
</g>
<!-- Node52&#45;&gt;Node57 -->
<g id="edge5" class="edge"><title>Node52&#45;&gt;Node57</title>
<path fill="none" stroke="midnightblue" d="M732.726,-144.414C693.745,-134.58 643.521,-121.774 599,-110 591.886,-108.119 584.391,-106.103 577.022,-104.103"/>
<polygon fill="midnightblue" stroke="midnightblue" points="732.343,-147.926 742.895,-146.976 734.054,-141.139 732.343,-147.926"/>
</g>
<!-- Node58 -->
<g id="node7" class="node"><title>Node58</title>
<g id="a_node7"><a xlink:href="_setup__2014___e_p_t_8cc.html" target="_top" xlink:title="src/expconfig/setups\l/Setup_2014_EPT.cc">
<polygon fill="white" stroke="black" points="608,-74 608,-104 718,-104 718,-74 608,-74"/>
<text text-anchor="start" x="616" y="-92" font-family="Helvetica,sans-Serif" font-size="10.00">src/expconfig/setups</text>
<text text-anchor="middle" x="663" y="-81" font-family="Helvetica,sans-Serif" font-size="10.00">/Setup_2014_EPT.cc</text>
</a>
</g>
</g>
<!-- Node52&#45;&gt;Node58 -->
<g id="edge6" class="edge"><title>Node52&#45;&gt;Node58</title>
<path fill="none" stroke="midnightblue" d="M763.094,-142.255C740.277,-130.343 711.205,-115.166 690.279,-104.241"/>
<polygon fill="midnightblue" stroke="midnightblue" points="761.646,-145.447 772.131,-146.973 764.886,-139.242 761.646,-145.447"/>
</g>
<!-- Node59 -->
<g id="node8" class="node"><title>Node59</title>
<g id="a_node8"><a xlink:href="_setup__2015__01___pion_8cc.html" target="_top" xlink:title="src/expconfig/setups\l/Setup_2015_01_Pion.cc">
<polygon fill="white" stroke="black" points="736.5,-74 736.5,-104 861.5,-104 861.5,-74 736.5,-74"/>
<text text-anchor="start" x="744.5" y="-92" font-family="Helvetica,sans-Serif" font-size="10.00">src/expconfig/setups</text>
<text text-anchor="middle" x="799" y="-81" font-family="Helvetica,sans-Serif" font-size="10.00">/Setup_2015_01_Pion.cc</text>
</a>
</g>
</g>
<!-- Node52&#45;&gt;Node59 -->
<g id="edge7" class="edge"><title>Node52&#45;&gt;Node59</title>
<path fill="none" stroke="midnightblue" d="M799,-136.898C799,-126.131 799,-113.801 799,-104.486"/>
<polygon fill="midnightblue" stroke="midnightblue" points="795.5,-136.973 799,-146.973 802.5,-136.973 795.5,-136.973"/>
</g>
<!-- Node60 -->
<g id="node9" class="node"><title>Node60</title>
<g id="a_node9"><a xlink:href="_setup__2017__03_8cc.html" target="_top" xlink:title="src/expconfig/setups\l/Setup_2017_03.cc">
<polygon fill="white" stroke="black" points="879.5,-74 879.5,-104 986.5,-104 986.5,-74 879.5,-74"/>
<text text-anchor="start" x="887.5" y="-92" font-family="Helvetica,sans-Serif" font-size="10.00">src/expconfig/setups</text>
<text text-anchor="middle" x="933" y="-81" font-family="Helvetica,sans-Serif" font-size="10.00">/Setup_2017_03.cc</text>
</a>
</g>
</g>
<!-- Node52&#45;&gt;Node60 -->
<g id="edge8" class="edge"><title>Node52&#45;&gt;Node60</title>
<path fill="none" stroke="midnightblue" d="M834.378,-142.255C856.859,-130.343 885.503,-115.166 906.122,-104.241"/>
<polygon fill="midnightblue" stroke="midnightblue" points="832.672,-139.198 825.474,-146.973 835.949,-145.383 832.672,-139.198"/>
</g>
<!-- Node61 -->
<g id="node10" class="node"><title>Node61</title>
<g id="a_node10"><a xlink:href="_setup__2017__05_8cc.html" target="_top" xlink:title="src/expconfig/setups\l/Setup_2017_05.cc">
<polygon fill="white" stroke="black" points="1004.5,-74 1004.5,-104 1111.5,-104 1111.5,-74 1004.5,-74"/>
<text text-anchor="start" x="1012.5" y="-92" font-family="Helvetica,sans-Serif" font-size="10.00">src/expconfig/setups</text>
<text text-anchor="middle" x="1058" y="-81" font-family="Helvetica,sans-Serif" font-size="10.00">/Setup_2017_05.cc</text>
</a>
</g>
</g>
<!-- Node52&#45;&gt;Node61 -->
<g id="edge9" class="edge"><title>Node52&#45;&gt;Node61</title>
<path fill="none" stroke="midnightblue" d="M866.168,-144.457C904.12,-134.876 952.36,-122.306 995,-110 1001.39,-108.154 1008.13,-106.118 1014.71,-104.073"/>
<polygon fill="midnightblue" stroke="midnightblue" points="865.095,-141.117 856.251,-146.951 866.803,-147.906 865.095,-141.117"/>
</g>
<!-- Node62 -->
<g id="node11" class="node"><title>Node62</title>
<g id="a_node11"><a xlink:href="_setup__2017_plus___new_tagger___base_8cc.html" target="_top" xlink:title="src/expconfig/setups\l/Setup_2017Plus_NewTagger\l_Base.cc">
<polygon fill="white" stroke="black" points="1130,-68.5 1130,-109.5 1276,-109.5 1276,-68.5 1130,-68.5"/>
<text text-anchor="start" x="1138" y="-97.5" font-family="Helvetica,sans-Serif" font-size="10.00">src/expconfig/setups</text>
<text text-anchor="start" x="1138" y="-86.5" font-family="Helvetica,sans-Serif" font-size="10.00">/Setup_2017Plus_NewTagger</text>
<text text-anchor="middle" x="1203" y="-75.5" font-family="Helvetica,sans-Serif" font-size="10.00">_Base.cc</text>
</a>
</g>
</g>
<!-- Node52&#45;&gt;Node62 -->
<g id="edge10" class="edge"><title>Node52&#45;&gt;Node62</title>
<path fill="none" stroke="midnightblue" d="M872.185,-151.051C937.438,-141.781 1035.43,-126.88 1120,-110 1123.2,-109.362 1126.46,-108.685 1129.75,-107.982"/>
<polygon fill="midnightblue" stroke="midnightblue" points="871.412,-147.625 862,-152.489 872.391,-154.556 871.412,-147.625"/>
</g>
<!-- Node63 -->
<g id="node12" class="node"><title>Node63</title>
<g id="a_node12"><a xlink:href="_setup___c_b_source_calib_8cc.html" target="_top" xlink:title="src/expconfig/setups\l/Setup_CBSourceCalib.cc">
<polygon fill="white" stroke="black" points="1294.5,-74 1294.5,-104 1425.5,-104 1425.5,-74 1294.5,-74"/>
<text text-anchor="start" x="1302.5" y="-92" font-family="Helvetica,sans-Serif" font-size="10.00">src/expconfig/setups</text>
<text text-anchor="middle" x="1360" y="-81" font-family="Helvetica,sans-Serif" font-size="10.00">/Setup_CBSourceCalib.cc</text>
</a>
</g>
</g>
<!-- Node52&#45;&gt;Node63 -->
<g id="edge11" class="edge"><title>Node52&#45;&gt;Node63</title>
<path fill="none" stroke="midnightblue" d="M872.506,-156.869C968.134,-150.679 1140.11,-136.752 1285,-110 1293.75,-108.385 1302.97,-106.274 1311.84,-104.029"/>
<polygon fill="midnightblue" stroke="midnightblue" points="872.12,-153.387 862.362,-157.515 872.565,-160.372 872.12,-153.387"/>
</g>
<!-- Node64 -->
<g id="node13" class="node"><title>Node64</title>
<g id="a_node13"><a xlink:href="expconfig__helpers_8cc.html" target="_top" xlink:title="test/expconfig_helpers.cc">
<polygon fill="white" stroke="black" points="1444,-79.5 1444,-98.5 1572,-98.5 1572,-79.5 1444,-79.5"/>
<text text-anchor="middle" x="1508" y="-86.5" font-family="Helvetica,sans-Serif" font-size="10.00">test/expconfig_helpers.cc</text>
</a>
</g>
</g>
<!-- Node52&#45;&gt;Node64 -->
<g id="edge12" class="edge"><title>Node52&#45;&gt;Node64</title>
<path fill="none" stroke="midnightblue" d="M872.187,-159.483C990.926,-156.048 1232.56,-145.004 1434,-110 1449.87,-107.243 1467.26,-102.624 1481.2,-98.5195"/>
<polygon fill="midnightblue" stroke="midnightblue" points="872.02,-155.986 862.122,-159.764 872.216,-162.984 872.02,-155.986"/>
</g>
<!-- Node54 -->
<g id="node3" class="node"><title>Node54</title>
<g id="a_node3"><a xlink:href="analysis_2physics_2calibration_2_c_b___source_calib_8cc.html" target="_top" xlink:title="src/analysis/physics\l/calibration/CB_SourceCalib.cc">
<polygon fill="white" stroke="black" points="-0.5,-1 -0.5,-31 152.5,-31 152.5,-1 -0.5,-1"/>
<text text-anchor="start" x="7.5" y="-19" font-family="Helvetica,sans-Serif" font-size="10.00">src/analysis/physics</text>
<text text-anchor="middle" x="76" y="-8" font-family="Helvetica,sans-Serif" font-size="10.00">/calibration/CB_SourceCalib.cc</text>
</a>
</g>
</g>
<!-- Node53&#45;&gt;Node54 -->
<g id="edge2" class="edge"><title>Node53&#45;&gt;Node54</title>
<path fill="none" stroke="midnightblue" d="M76,-63.8976C76,-53.1314 76,-40.8005 76,-31.4856"/>
<polygon fill="midnightblue" stroke="midnightblue" points="72.5001,-63.9727 76,-73.9727 79.5001,-63.9727 72.5001,-63.9727"/>
</g>
</g>
</svg>
