<?xml version="1.0" encoding="UTF-8" standalone="no"?>
<!DOCTYPE svg PUBLIC "-//W3C//DTD SVG 1.1//EN"
 "http://www.w3.org/Graphics/SVG/1.1/DTD/svg11.dtd">
<!-- Generated by graphviz version 2.36.0 (20140111.2315)
 -->
<!-- Title: src/expconfig/detectors/CB.h Pages: 1 -->
<svg width="4087pt" height="184pt"
 viewBox="0.00 0.00 4087.00 184.00" xmlns="http://www.w3.org/2000/svg" xmlns:xlink="http://www.w3.org/1999/xlink">
<g id="graph0" class="graph" transform="scale(1 1) rotate(0) translate(4 180)">
<title>src/expconfig/detectors/CB.h</title>
<polygon fill="white" stroke="none" points="-4,4 -4,-180 4083,-180 4083,4 -4,4"/>
<!-- Node56 -->
<g id="node1" class="node"><title>Node56</title>
<polygon fill="#bfbfbf" stroke="black" points="1887,-156.5 1887,-175.5 2031,-175.5 2031,-156.5 1887,-156.5"/>
<text text-anchor="middle" x="1959" y="-163.5" font-family="Helvetica,sans-Serif" font-size="10.00">src/expconfig/detectors/CB.h</text>
</g>
<!-- Node57 -->
<g id="node2" class="node"><title>Node57</title>
<g id="a_node2"><a xlink:href="analysis_2physics_2calibration_2_c_b___energy_8cc.html" target="_top" xlink:title="src/analysis/physics\l/calibration/CB_Energy.cc">
<polygon fill="white" stroke="black" points="-0.5,-84 -0.5,-114 130.5,-114 130.5,-84 -0.5,-84"/>
<text text-anchor="start" x="7.5" y="-102" font-family="Helvetica,sans-Serif" font-size="10.00">src/analysis/physics</text>
<text text-anchor="middle" x="65" y="-91" font-family="Helvetica,sans-Serif" font-size="10.00">/calibration/CB_Energy.cc</text>
</a>
</g>
</g>
<!-- Node56&#45;&gt;Node57 -->
<g id="edge1" class="edge"><title>Node56&#45;&gt;Node57</title>
<path fill="none" stroke="midnightblue" d="M1876.92,-164.109C1545.18,-160.351 312.922,-144.839 140,-120 130.396,-118.62 120.262,-116.435 110.655,-114.006"/>
<polygon fill="midnightblue" stroke="midnightblue" points="1876.9,-167.609 1886.94,-164.222 1876.98,-160.609 1876.9,-167.609"/>
</g>
<!-- Node58 -->
<g id="node3" class="node"><title>Node58</title>
<g id="a_node3"><a xlink:href="analysis_2physics_2calibration_2_c_b___source_calib_8h.html" target="_top" xlink:title="src/analysis/physics\l/calibration/CB_SourceCalib.h">
<polygon fill="white" stroke="black" points="149,-84 149,-114 297,-114 297,-84 149,-84"/>
<text text-anchor="start" x="157" y="-102" font-family="Helvetica,sans-Serif" font-size="10.00">src/analysis/physics</text>
<text text-anchor="middle" x="223" y="-91" font-family="Helvetica,sans-Serif" font-size="10.00">/calibration/CB_SourceCalib.h</text>
</a>
</g>
</g>
<!-- Node56&#45;&gt;Node58 -->
<g id="edge2" class="edge"><title>Node56&#45;&gt;Node58</title>
<path fill="none" stroke="midnightblue" d="M1876.58,-164.887C1587.25,-164.157 618.83,-158.802 311,-120 299.963,-118.609 288.28,-116.451 277.157,-114.059"/>
<polygon fill="midnightblue" stroke="midnightblue" points="1876.58,-168.387 1886.58,-164.911 1876.59,-161.387 1876.58,-168.387"/>
</g>
<!-- Node59 -->
<g id="node4" class="node"><title>Node59</title>
<g id="a_node4"><a xlink:href="analysis_2physics_2calibration_2_c_b___source_calib_8cc.html" target="_top" xlink:title="src/analysis/physics\l/calibration/CB_SourceCalib.cc">
<polygon fill="white" stroke="black" points="197.5,-6 197.5,-36 350.5,-36 350.5,-6 197.5,-6"/>
<text text-anchor="start" x="205.5" y="-24" font-family="Helvetica,sans-Serif" font-size="10.00">src/analysis/physics</text>
<text text-anchor="middle" x="274" y="-13" font-family="Helvetica,sans-Serif" font-size="10.00">/calibration/CB_SourceCalib.cc</text>
</a>
</g>
</g>
<!-- Node56&#45;&gt;Node59 -->
<g id="edge4" class="edge"><title>Node56&#45;&gt;Node59</title>
<path fill="none" stroke="midnightblue" d="M1876.69,-164.733C1557.01,-163.435 412.122,-156.265 344,-120 326.467,-110.666 296.4,-61.2046 282.063,-36.3215"/>
<polygon fill="midnightblue" stroke="midnightblue" points="1876.8,-168.233 1886.81,-164.773 1876.82,-161.233 1876.8,-168.233"/>
</g>
<!-- Node60 -->
<g id="node5" class="node"><title>Node60</title>
<g id="a_node5"><a xlink:href="analysis_2physics_2calibration_2_c_b___time_walk_8cc.html" target="_top" xlink:title="src/analysis/physics\l/calibration/CB_TimeWalk.cc">
<polygon fill="white" stroke="black" points="353,-84 353,-114 497,-114 497,-84 353,-84"/>
<text text-anchor="start" x="361" y="-102" font-family="Helvetica,sans-Serif" font-size="10.00">src/analysis/physics</text>
<text text-anchor="middle" x="425" y="-91" font-family="Helvetica,sans-Serif" font-size="10.00">/calibration/CB_TimeWalk.cc</text>
</a>
</g>
</g>
<!-- Node56&#45;&gt;Node60 -->
<g id="edge5" class="edge"><title>Node56&#45;&gt;Node60</title>
<path fill="none" stroke="midnightblue" d="M1876.63,-164.734C1610.21,-163.513 773.706,-156.775 506,-120 495.811,-118.6 485.044,-116.439 474.802,-114.045"/>
<polygon fill="midnightblue" stroke="midnightblue" points="1876.98,-168.235 1887,-164.78 1877.01,-161.235 1876.98,-168.235"/>
</g>
<!-- Node61 -->
<g id="node6" class="node"><title>Node61</title>
<g id="a_node6"><a xlink:href="_extract_shower_depth_8cc.html" target="_top" xlink:title="src/analysis/physics\l/common/ExtractShowerDepth.cc">
<polygon fill="white" stroke="black" points="515,-84 515,-114 679,-114 679,-84 515,-84"/>
<text text-anchor="start" x="523" y="-102" font-family="Helvetica,sans-Serif" font-size="10.00">src/analysis/physics</text>
<text text-anchor="middle" x="597" y="-91" font-family="Helvetica,sans-Serif" font-size="10.00">/common/ExtractShowerDepth.cc</text>
</a>
</g>
</g>
<!-- Node56&#45;&gt;Node61 -->
<g id="edge6" class="edge"><title>Node56&#45;&gt;Node61</title>
<path fill="none" stroke="midnightblue" d="M1876.73,-164.032C1633.31,-160.861 919.201,-149.255 688,-120 676.767,-118.579 664.873,-116.439 653.519,-114.081"/>
<polygon fill="midnightblue" stroke="midnightblue" points="1876.88,-167.534 1886.93,-164.164 1876.97,-160.535 1876.88,-167.534"/>
</g>
<!-- Node62 -->
<g id="node7" class="node"><title>Node62</title>
<g id="a_node7"><a xlink:href="_meson_dalitz_decays_8cc.html" target="_top" xlink:title="Physics class to investigate Dalitz decays for different mesons. ">
<polygon fill="white" stroke="black" points="697,-84 697,-114 859,-114 859,-84 697,-84"/>
<text text-anchor="start" x="705" y="-102" font-family="Helvetica,sans-Serif" font-size="10.00">src/analysis/physics</text>
<text text-anchor="middle" x="778" y="-91" font-family="Helvetica,sans-Serif" font-size="10.00">/common/MesonDalitzDecays.cc</text>
</a>
</g>
</g>
<!-- Node56&#45;&gt;Node62 -->
<g id="edge7" class="edge"><title>Node56&#45;&gt;Node62</title>
<path fill="none" stroke="midnightblue" d="M1876.84,-163.5C1657.71,-159.199 1062.87,-145.465 868,-120 856.89,-118.548 845.127,-116.395 833.898,-114.032"/>
<polygon fill="midnightblue" stroke="midnightblue" points="1876.92,-167.003 1886.98,-163.698 1877.05,-160.004 1876.92,-167.003"/>
</g>
<!-- Node63 -->
<g id="node8" class="node"><title>Node63</title>
<g id="a_node8"><a xlink:href="_fitter_8cc.html" target="_top" xlink:title="src/analysis/utils\l/fitter/Fitter.cc">
<polygon fill="white" stroke="black" points="877,-84 877,-114 967,-114 967,-84 877,-84"/>
<text text-anchor="start" x="885" y="-102" font-family="Helvetica,sans-Serif" font-size="10.00">src/analysis/utils</text>
<text text-anchor="middle" x="922" y="-91" font-family="Helvetica,sans-Serif" font-size="10.00">/fitter/Fitter.cc</text>
</a>
</g>
</g>
<!-- Node56&#45;&gt;Node63 -->
<g id="edge8" class="edge"><title>Node56&#45;&gt;Node63</title>
<path fill="none" stroke="midnightblue" d="M1876.58,-164.489C1672.4,-162.698 1147.23,-154.751 976,-120 969.044,-118.588 961.792,-116.421 954.945,-114.026"/>
<polygon fill="midnightblue" stroke="midnightblue" points="1876.62,-167.989 1886.65,-164.574 1876.68,-160.989 1876.62,-167.989"/>
</g>
<!-- Node64 -->
<g id="node9" class="node"><title>Node64</title>
<g id="a_node9"><a xlink:href="_m_c_fake_reconstructed_8cc.html" target="_top" xlink:title="src/analysis/utils\l/MCFakeReconstructed.cc">
<polygon fill="white" stroke="black" points="985,-84 985,-114 1119,-114 1119,-84 985,-84"/>
<text text-anchor="start" x="993" y="-102" font-family="Helvetica,sans-Serif" font-size="10.00">src/analysis/utils</text>
<text text-anchor="middle" x="1052" y="-91" font-family="Helvetica,sans-Serif" font-size="10.00">/MCFakeReconstructed.cc</text>
</a>
</g>
</g>
<!-- Node56&#45;&gt;Node64 -->
<g id="edge9" class="edge"><title>Node56&#45;&gt;Node64</title>
<path fill="none" stroke="midnightblue" d="M1876.68,-162.632C1696.38,-157.103 1271.33,-142.115 1129,-120 1119.58,-118.537 1109.65,-116.409 1100.16,-114.082"/>
<polygon fill="midnightblue" stroke="midnightblue" points="1876.8,-166.137 1886.9,-162.943 1877.01,-159.14 1876.8,-166.137"/>
</g>
<!-- Node65 -->
<g id="node10" class="node"><title>Node65</title>
<g id="a_node10"><a xlink:href="_fitter_sergey_8cc.html" target="_top" xlink:title="src/analysis/utils\l/uncertainties/FitterSergey.cc">
<polygon fill="white" stroke="black" points="1137.5,-84 1137.5,-114 1282.5,-114 1282.5,-84 1137.5,-84"/>
<text text-anchor="start" x="1145.5" y="-102" font-family="Helvetica,sans-Serif" font-size="10.00">src/analysis/utils</text>
<text text-anchor="middle" x="1210" y="-91" font-family="Helvetica,sans-Serif" font-size="10.00">/uncertainties/FitterSergey.cc</text>
</a>
</g>
</g>
<!-- Node56&#45;&gt;Node65 -->
<g id="edge10" class="edge"><title>Node56&#45;&gt;Node65</title>
<path fill="none" stroke="midnightblue" d="M1876.62,-163.984C1750.17,-161.405 1500.9,-152.278 1292,-120 1282.15,-118.478 1271.75,-116.354 1261.78,-114.055"/>
<polygon fill="midnightblue" stroke="midnightblue" points="1876.93,-167.491 1886.99,-164.187 1877.06,-160.492 1876.93,-167.491"/>
</g>
<!-- Node66 -->
<g id="node11" class="node"><title>Node66</title>
<g id="a_node11"><a xlink:href="_optimized_8cc.html" target="_top" xlink:title="src/analysis/utils\l/uncertainties/Optimized.cc">
<polygon fill="white" stroke="black" points="1301,-84 1301,-114 1437,-114 1437,-84 1301,-84"/>
<text text-anchor="start" x="1309" y="-102" font-family="Helvetica,sans-Serif" font-size="10.00">src/analysis/utils</text>
<text text-anchor="middle" x="1369" y="-91" font-family="Helvetica,sans-Serif" font-size="10.00">/uncertainties/Optimized.cc</text>
</a>
</g>
</g>
<!-- Node56&#45;&gt;Node66 -->
<g id="edge11" class="edge"><title>Node56&#45;&gt;Node66</title>
<path fill="none" stroke="midnightblue" d="M1876.68,-161.906C1775.08,-157.138 1597.3,-145.697 1447,-120 1437.77,-118.422 1428.02,-116.299 1418.67,-114.026"/>
<polygon fill="midnightblue" stroke="midnightblue" points="1876.72,-165.412 1886.87,-162.374 1877.04,-158.419 1876.72,-165.412"/>
</g>
<!-- Node67 -->
<g id="node12" class="node"><title>Node67</title>
<g id="a_node12"><a xlink:href="calibration_2modules_2_c_b___energy_8cc.html" target="_top" xlink:title="src/calibration/modules\l/CB_Energy.cc">
<polygon fill="white" stroke="black" points="1455.5,-84 1455.5,-114 1572.5,-114 1572.5,-84 1455.5,-84"/>
<text text-anchor="start" x="1463.5" y="-102" font-family="Helvetica,sans-Serif" font-size="10.00">src/calibration/modules</text>
<text text-anchor="middle" x="1514" y="-91" font-family="Helvetica,sans-Serif" font-size="10.00">/CB_Energy.cc</text>
</a>
</g>
</g>
<!-- Node56&#45;&gt;Node67 -->
<g id="edge12" class="edge"><title>Node56&#45;&gt;Node67</title>
<path fill="none" stroke="midnightblue" d="M1876.76,-159.169C1799.96,-152.786 1682.42,-140.609 1582,-120 1574.16,-118.392 1565.92,-116.311 1557.99,-114.101"/>
<polygon fill="midnightblue" stroke="midnightblue" points="1876.6,-162.668 1886.85,-159.994 1877.17,-155.691 1876.6,-162.668"/>
</g>
<!-- Node68 -->
<g id="node13" class="node"><title>Node68</title>
<g id="a_node13"><a xlink:href="calibration_2modules_2_c_b___source_calib_8cc.html" target="_top" xlink:title="src/calibration/modules\l/CB_SourceCalib.cc">
<polygon fill="white" stroke="black" points="1590.5,-84 1590.5,-114 1707.5,-114 1707.5,-84 1590.5,-84"/>
<text text-anchor="start" x="1598.5" y="-102" font-family="Helvetica,sans-Serif" font-size="10.00">src/calibration/modules</text>
<text text-anchor="middle" x="1649" y="-91" font-family="Helvetica,sans-Serif" font-size="10.00">/CB_SourceCalib.cc</text>
</a>
</g>
</g>
<!-- Node56&#45;&gt;Node68 -->
<g id="edge13" class="edge"><title>Node56&#45;&gt;Node68</title>
<path fill="none" stroke="midnightblue" d="M1894.23,-154.805C1845.27,-146.653 1776.56,-134.257 1717,-120 1709.7,-118.253 1702.02,-116.202 1694.55,-114.093"/>
<polygon fill="midnightblue" stroke="midnightblue" points="1893.92,-158.302 1904.36,-156.479 1895.07,-151.396 1893.92,-158.302"/>
</g>
<!-- Node69 -->
<g id="node14" class="node"><title>Node69</title>
<g id="a_node14"><a xlink:href="calibration_2modules_2_c_b___time_walk_8cc.html" target="_top" xlink:title="src/calibration/modules\l/CB_TimeWalk.cc">
<polygon fill="white" stroke="black" points="1725.5,-84 1725.5,-114 1842.5,-114 1842.5,-84 1725.5,-84"/>
<text text-anchor="start" x="1733.5" y="-102" font-family="Helvetica,sans-Serif" font-size="10.00">src/calibration/modules</text>
<text text-anchor="middle" x="1784" y="-91" font-family="Helvetica,sans-Serif" font-size="10.00">/CB_TimeWalk.cc</text>
</a>
</g>
</g>
<!-- Node56&#45;&gt;Node69 -->
<g id="edge14" class="edge"><title>Node56&#45;&gt;Node69</title>
<path fill="none" stroke="midnightblue" d="M1926.28,-152.846C1896.62,-141.829 1852.9,-125.593 1821.77,-114.028"/>
<polygon fill="midnightblue" stroke="midnightblue" points="1925.17,-156.168 1935.76,-156.369 1927.61,-149.606 1925.17,-156.168"/>
</g>
<!-- Node70 -->
<g id="node15" class="node"><title>Node70</title>
<g id="a_node15"><a xlink:href="_c_b_8cc.html" target="_top" xlink:title="src/expconfig/detectors\l/CB.cc">
<polygon fill="white" stroke="black" points="1466.5,-6 1466.5,-36 1585.5,-36 1585.5,-6 1466.5,-6"/>
<text text-anchor="start" x="1474.5" y="-24" font-family="Helvetica,sans-Serif" font-size="10.00">src/expconfig/detectors</text>
<text text-anchor="middle" x="1526" y="-13" font-family="Helvetica,sans-Serif" font-size="10.00">/CB.cc</text>
</a>
</g>
</g>
<!-- Node56&#45;&gt;Node70 -->
<g id="edge15" class="edge"><title>Node56&#45;&gt;Node70</title>
<path fill="none" stroke="midnightblue" d="M1935.28,-151.14C1921.78,-142.808 1904.84,-131.595 1891,-120 1871.24,-103.449 1873.93,-89.7834 1851,-78 1748.81,-25.479 1707.35,-66.0544 1595,-42 1587.19,-40.3289 1578.98,-38.2433 1571.05,-36.055"/>
<polygon fill="midnightblue" stroke="midnightblue" points="1933.63,-154.235 1944,-156.418 1937.26,-148.246 1933.63,-154.235"/>
</g>
<!-- Node71 -->
<g id="node16" class="node"><title>Node71</title>
<g id="a_node16"><a xlink:href="_c_b__elements_8h.html" target="_top" xlink:title="src/expconfig/detectors\l/detail/CB_elements.h">
<polygon fill="white" stroke="black" points="1899.5,-84 1899.5,-114 2018.5,-114 2018.5,-84 1899.5,-84"/>
<text text-anchor="start" x="1907.5" y="-102" font-family="Helvetica,sans-Serif" font-size="10.00">src/expconfig/detectors</text>
<text text-anchor="middle" x="1959" y="-91" font-family="Helvetica,sans-Serif" font-size="10.00">/detail/CB_elements.h</text>
</a>
</g>
</g>
<!-- Node56&#45;&gt;Node71 -->
<g id="edge16" class="edge"><title>Node56&#45;&gt;Node71</title>
<path fill="none" stroke="midnightblue" d="M1959,-145.911C1959,-135.722 1959,-123.401 1959,-114.089"/>
<polygon fill="midnightblue" stroke="midnightblue" points="1955.5,-146.234 1959,-156.234 1962.5,-146.234 1955.5,-146.234"/>
</g>
<!-- Node72 -->
<g id="node17" class="node"><title>Node72</title>
<g id="a_node17"><a xlink:href="_setup__2007___base_8h.html" target="_top" xlink:title="src/expconfig/setups\l/Setup_2007_Base.h">
<polygon fill="white" stroke="black" points="2036.5,-84 2036.5,-114 2143.5,-114 2143.5,-84 2036.5,-84"/>
<text text-anchor="start" x="2044.5" y="-102" font-family="Helvetica,sans-Serif" font-size="10.00">src/expconfig/setups</text>
<text text-anchor="middle" x="2090" y="-91" font-family="Helvetica,sans-Serif" font-size="10.00">/Setup_2007_Base.h</text>
</a>
</g>
</g>
<!-- Node56&#45;&gt;Node72 -->
<g id="edge18" class="edge"><title>Node56&#45;&gt;Node72</title>
<path fill="none" stroke="midnightblue" d="M1985.52,-151.842C2007.57,-140.9 2038.89,-125.36 2061.48,-114.152"/>
<polygon fill="midnightblue" stroke="midnightblue" points="1983.8,-148.788 1976.4,-156.369 1986.91,-155.059 1983.8,-148.788"/>
</g>
<!-- Node76 -->
<g id="node21" class="node"><title>Node76</title>
<g id="a_node21"><a xlink:href="_setup__2010__03___base_8h.html" target="_top" xlink:title="src/expconfig/setups\l/Setup_2010_03_Base.h">
<polygon fill="white" stroke="black" points="2161.5,-84 2161.5,-114 2284.5,-114 2284.5,-84 2161.5,-84"/>
<text text-anchor="start" x="2169.5" y="-102" font-family="Helvetica,sans-Serif" font-size="10.00">src/expconfig/setups</text>
<text text-anchor="middle" x="2223" y="-91" font-family="Helvetica,sans-Serif" font-size="10.00">/Setup_2010_03_Base.h</text>
</a>
</g>
</g>
<!-- Node56&#45;&gt;Node76 -->
<g id="edge22" class="edge"><title>Node56&#45;&gt;Node76</title>
<path fill="none" stroke="midnightblue" d="M2007.75,-154.278C2046.86,-145.521 2103.11,-132.579 2152,-120 2159.19,-118.149 2166.77,-116.111 2174.19,-114.064"/>
<polygon fill="midnightblue" stroke="midnightblue" points="2006.94,-150.873 1997.94,-156.467 2008.46,-157.705 2006.94,-150.873"/>
</g>
<!-- Node79 -->
<g id="node24" class="node"><title>Node79</title>
<g id="a_node24"><a xlink:href="_setup__2012__12___compton_8cc.html" target="_top" xlink:title="src/expconfig/setups\l/Setup_2012_12_Compton.cc">
<polygon fill="white" stroke="black" points="2303,-84 2303,-114 2449,-114 2449,-84 2303,-84"/>
<text text-anchor="start" x="2311" y="-102" font-family="Helvetica,sans-Serif" font-size="10.00">src/expconfig/setups</text>
<text text-anchor="middle" x="2376" y="-91" font-family="Helvetica,sans-Serif" font-size="10.00">/Setup_2012_12_Compton.cc</text>
</a>
</g>
</g>
<!-- Node56&#45;&gt;Node79 -->
<g id="edge25" class="edge"><title>Node56&#45;&gt;Node79</title>
<path fill="none" stroke="midnightblue" d="M2041.21,-156.304C2109.04,-148.559 2207.67,-135.986 2293,-120 2302.18,-118.281 2311.87,-116.196 2321.26,-114.031"/>
<polygon fill="midnightblue" stroke="midnightblue" points="2040.55,-152.856 2031.01,-157.459 2041.34,-159.811 2040.55,-152.856"/>
</g>
<!-- Node80 -->
<g id="node25" class="node"><title>Node80</title>
<g id="a_node25"><a xlink:href="_setup__2014___e_p_t_8h.html" target="_top" xlink:title="src/expconfig/setups\l/Setup_2014_EPT.h">
<polygon fill="white" stroke="black" points="2467.5,-84 2467.5,-114 2574.5,-114 2574.5,-84 2467.5,-84"/>
<text text-anchor="start" x="2475.5" y="-102" font-family="Helvetica,sans-Serif" font-size="10.00">src/expconfig/setups</text>
<text text-anchor="middle" x="2521" y="-91" font-family="Helvetica,sans-Serif" font-size="10.00">/Setup_2014_EPT.h</text>
</a>
</g>
</g>
<!-- Node56&#45;&gt;Node80 -->
<g id="edge26" class="edge"><title>Node56&#45;&gt;Node80</title>
<path fill="none" stroke="midnightblue" d="M2041.18,-163.052C2140.73,-159.442 2313.11,-149.17 2458,-120 2465.65,-118.46 2473.68,-116.327 2481.35,-114.025"/>
<polygon fill="midnightblue" stroke="midnightblue" points="2041.05,-159.554 2031.18,-163.401 2041.3,-166.55 2041.05,-159.554"/>
</g>
<!-- Node85 -->
<g id="node30" class="node"><title>Node85</title>
<g id="a_node30"><a xlink:href="_setup__2015__01___pion_8cc.html" target="_top" xlink:title="src/expconfig/setups\l/Setup_2015_01_Pion.cc">
<polygon fill="white" stroke="black" points="2592.5,-84 2592.5,-114 2717.5,-114 2717.5,-84 2592.5,-84"/>
<text text-anchor="start" x="2600.5" y="-102" font-family="Helvetica,sans-Serif" font-size="10.00">src/expconfig/setups</text>
<text text-anchor="middle" x="2655" y="-91" font-family="Helvetica,sans-Serif" font-size="10.00">/Setup_2015_01_Pion.cc</text>
</a>
</g>
</g>
<!-- Node56&#45;&gt;Node85 -->
<g id="edge31" class="edge"><title>Node56&#45;&gt;Node85</title>
<path fill="none" stroke="midnightblue" d="M2041.36,-164.259C2161.36,-162.008 2390.88,-153.27 2583,-120 2591.69,-118.495 2600.85,-116.378 2609.61,-114.081"/>
<polygon fill="midnightblue" stroke="midnightblue" points="2041.09,-160.763 2031.16,-164.44 2041.22,-167.762 2041.09,-160.763"/>
</g>
<!-- Node86 -->
<g id="node31" class="node"><title>Node86</title>
<g id="a_node31"><a xlink:href="_setup__2017__03_8h.html" target="_top" xlink:title="src/expconfig/setups\l/Setup_2017_03.h">
<polygon fill="white" stroke="black" points="2735.5,-84 2735.5,-114 2842.5,-114 2842.5,-84 2735.5,-84"/>
<text text-anchor="start" x="2743.5" y="-102" font-family="Helvetica,sans-Serif" font-size="10.00">src/expconfig/setups</text>
<text text-anchor="middle" x="2789" y="-91" font-family="Helvetica,sans-Serif" font-size="10.00">/Setup_2017_03.h</text>
</a>
</g>
</g>
<!-- Node56&#45;&gt;Node86 -->
<g id="edge32" class="edge"><title>Node56&#45;&gt;Node86</title>
<path fill="none" stroke="midnightblue" d="M2041.28,-162.758C2211.39,-157.7 2596.66,-143.937 2726,-120 2733.9,-118.538 2742.19,-116.38 2750.06,-114.017"/>
<polygon fill="midnightblue" stroke="midnightblue" points="2041.02,-159.264 2031.13,-163.057 2041.23,-166.261 2041.02,-159.264"/>
</g>
<!-- Node88 -->
<g id="node33" class="node"><title>Node88</title>
<g id="a_node33"><a xlink:href="_setup__2017__05_8h.html" target="_top" xlink:title="src/expconfig/setups\l/Setup_2017_05.h">
<polygon fill="white" stroke="black" points="2860.5,-84 2860.5,-114 2967.5,-114 2967.5,-84 2860.5,-84"/>
<text text-anchor="start" x="2868.5" y="-102" font-family="Helvetica,sans-Serif" font-size="10.00">src/expconfig/setups</text>
<text text-anchor="middle" x="2914" y="-91" font-family="Helvetica,sans-Serif" font-size="10.00">/Setup_2017_05.h</text>
</a>
</g>
</g>
<!-- Node56&#45;&gt;Node88 -->
<g id="edge34" class="edge"><title>Node56&#45;&gt;Node88</title>
<path fill="none" stroke="midnightblue" d="M2041.35,-163.546C2231.59,-159.75 2697.05,-147.839 2851,-120 2858.9,-118.571 2867.2,-116.428 2875.07,-114.068"/>
<polygon fill="midnightblue" stroke="midnightblue" points="2041.07,-160.051 2031.14,-163.747 2041.2,-167.049 2041.07,-160.051"/>
</g>
<!-- Node90 -->
<g id="node35" class="node"><title>Node90</title>
<g id="a_node35"><a xlink:href="_setup__2017_plus___new_tagger___base_8h.html" target="_top" xlink:title="src/expconfig/setups\l/Setup_2017Plus_NewTagger\l_Base.h">
<polygon fill="white" stroke="black" points="2986,-78.5 2986,-119.5 3132,-119.5 3132,-78.5 2986,-78.5"/>
<text text-anchor="start" x="2994" y="-107.5" font-family="Helvetica,sans-Serif" font-size="10.00">src/expconfig/setups</text>
<text text-anchor="start" x="2994" y="-96.5" font-family="Helvetica,sans-Serif" font-size="10.00">/Setup_2017Plus_NewTagger</text>
<text text-anchor="middle" x="3059" y="-85.5" font-family="Helvetica,sans-Serif" font-size="10.00">_Base.h</text>
</a>
</g>
</g>
<!-- Node56&#45;&gt;Node90 -->
<g id="edge36" class="edge"><title>Node56&#45;&gt;Node90</title>
<path fill="none" stroke="midnightblue" d="M2041.4,-163.397C2250.21,-159.006 2796.27,-145.39 2976,-120 2979.23,-119.544 2982.52,-119.018 2985.83,-118.439"/>
<polygon fill="midnightblue" stroke="midnightblue" points="2041.04,-159.904 2031.12,-163.611 2041.19,-166.902 2041.04,-159.904"/>
</g>
<!-- Node94 -->
<g id="node39" class="node"><title>Node94</title>
<g id="a_node39"><a xlink:href="_setup___c_b_source_calib_8cc.html" target="_top" xlink:title="src/expconfig/setups\l/Setup_CBSourceCalib.cc">
<polygon fill="white" stroke="black" points="3150.5,-84 3150.5,-114 3281.5,-114 3281.5,-84 3150.5,-84"/>
<text text-anchor="start" x="3158.5" y="-102" font-family="Helvetica,sans-Serif" font-size="10.00">src/expconfig/setups</text>
<text text-anchor="middle" x="3216" y="-91" font-family="Helvetica,sans-Serif" font-size="10.00">/Setup_CBSourceCalib.cc</text>
</a>
</g>
</g>
<!-- Node56&#45;&gt;Node94 -->
<g id="edge40" class="edge"><title>Node56&#45;&gt;Node94</title>
<path fill="none" stroke="midnightblue" d="M2041.15,-164.249C2272.83,-161.753 2928.4,-151.986 3141,-120 3150.46,-118.577 3160.44,-116.404 3169.93,-114.008"/>
<polygon fill="midnightblue" stroke="midnightblue" points="2041.06,-160.749 2031.1,-164.355 2041.13,-167.749 2041.06,-160.749"/>
</g>
<!-- Node95 -->
<g id="node40" class="node"><title>Node95</title>
<g id="a_node40"><a xlink:href="_candidate_builder_8cc.html" target="_top" xlink:title="src/reconstruct/Candidate\lBuilder.cc">
<polygon fill="white" stroke="black" points="3299.5,-84 3299.5,-114 3428.5,-114 3428.5,-84 3299.5,-84"/>
<text text-anchor="start" x="3307.5" y="-102" font-family="Helvetica,sans-Serif" font-size="10.00">src/reconstruct/Candidate</text>
<text text-anchor="middle" x="3364" y="-91" font-family="Helvetica,sans-Serif" font-size="10.00">Builder.cc</text>
</a>
</g>
</g>
<!-- Node56&#45;&gt;Node95 -->
<g id="edge41" class="edge"><title>Node56&#45;&gt;Node95</title>
<path fill="none" stroke="midnightblue" d="M2041.31,-164.694C2292.59,-163.369 3047.42,-156.385 3290,-120 3299.34,-118.598 3309.2,-116.436 3318.56,-114.042"/>
<polygon fill="midnightblue" stroke="midnightblue" points="2041.13,-161.195 2031.15,-164.746 2041.17,-168.195 2041.13,-161.195"/>
</g>
<!-- Node96 -->
<g id="node41" class="node"><title>Node96</title>
<g id="a_node41"><a xlink:href="_detector_plots_8cc.html" target="_top" xlink:title="src/root&#45;addons/analysis\l_codes/DetectorPlots.cc">
<polygon fill="white" stroke="black" points="3446.5,-84 3446.5,-114 3571.5,-114 3571.5,-84 3446.5,-84"/>
<text text-anchor="start" x="3454.5" y="-102" font-family="Helvetica,sans-Serif" font-size="10.00">src/root&#45;addons/analysis</text>
<text text-anchor="middle" x="3509" y="-91" font-family="Helvetica,sans-Serif" font-size="10.00">_codes/DetectorPlots.cc</text>
</a>
</g>
</g>
<!-- Node56&#45;&gt;Node96 -->
<g id="edge42" class="edge"><title>Node56&#45;&gt;Node96</title>
<path fill="none" stroke="midnightblue" d="M2041.5,-165.094C2311.16,-164.993 3164.8,-161.331 3437,-120 3446.11,-118.617 3455.7,-116.463 3464.81,-114.072"/>
<polygon fill="midnightblue" stroke="midnightblue" points="2041.39,-161.594 2031.39,-165.096 2041.39,-168.594 2041.39,-161.594"/>
</g>
<!-- Node97 -->
<g id="node42" class="node"><title>Node97</title>
<g id="a_node42"><a xlink:href="_test_exp_config_8cc.html" target="_top" xlink:title="test/expconfig/TestExpConfig.cc">
<polygon fill="white" stroke="black" points="3590,-89.5 3590,-108.5 3750,-108.5 3750,-89.5 3590,-89.5"/>
<text text-anchor="middle" x="3670" y="-96.5" font-family="Helvetica,sans-Serif" font-size="10.00">test/expconfig/TestExpConfig.cc</text>
</a>
</g>
</g>
<!-- Node56&#45;&gt;Node97 -->
<g id="edge43" class="edge"><title>Node56&#45;&gt;Node97</title>
<path fill="none" stroke="midnightblue" d="M2041.46,-164.791C2327.74,-163.74 3277.62,-157.446 3580,-120 3599.7,-117.561 3621.43,-112.792 3638.6,-108.523"/>
<polygon fill="midnightblue" stroke="midnightblue" points="2041.14,-161.292 2031.16,-164.828 2041.17,-168.292 2041.14,-161.292"/>
</g>
<!-- Node98 -->
<g id="node43" class="node"><title>Node98</title>
<g id="a_node43"><a xlink:href="expconfig__helpers_8cc.html" target="_top" xlink:title="test/expconfig_helpers.cc">
<polygon fill="white" stroke="black" points="3768,-89.5 3768,-108.5 3896,-108.5 3896,-89.5 3768,-89.5"/>
<text text-anchor="middle" x="3832" y="-96.5" font-family="Helvetica,sans-Serif" font-size="10.00">test/expconfig_helpers.cc</text>
</a>
</g>
</g>
<!-- Node56&#45;&gt;Node98 -->
<g id="edge44" class="edge"><title>Node56&#45;&gt;Node98</title>
<path fill="none" stroke="midnightblue" d="M2041.54,-164.113C2371.77,-160.404 3588.2,-145.151 3759,-120 3775.12,-117.626 3792.75,-112.86 3806.65,-108.575"/>
<polygon fill="midnightblue" stroke="midnightblue" points="2041.06,-160.618 2031.1,-164.23 2041.14,-167.618 2041.06,-160.618"/>
</g>
<!-- Node99 -->
<g id="node44" class="node"><title>Node99</title>
<g id="a_node44"><a xlink:href="_test_clustering_8cc.html" target="_top" xlink:title="test/reconstruct/TestClustering.cc">
<polygon fill="white" stroke="black" points="3914.5,-89.5 3914.5,-108.5 4079.5,-108.5 4079.5,-89.5 3914.5,-89.5"/>
<text text-anchor="middle" x="3997" y="-96.5" font-family="Helvetica,sans-Serif" font-size="10.00">test/reconstruct/TestClustering.cc</text>
</a>
</g>
</g>
<!-- Node56&#45;&gt;Node99 -->
<g id="edge45" class="edge"><title>Node56&#45;&gt;Node99</title>
<path fill="none" stroke="midnightblue" d="M2041.24,-165.189C2362.84,-165.605 3535.7,-164.002 3905,-120 3925.13,-117.602 3947.34,-112.835 3964.9,-108.556"/>
<polygon fill="midnightblue" stroke="midnightblue" points="2041.08,-161.689 2031.07,-165.175 2041.07,-168.689 2041.08,-161.689"/>
</g>
<!-- Node58&#45;&gt;Node59 -->
<g id="edge3" class="edge"><title>Node58&#45;&gt;Node59</title>
<path fill="none" stroke="midnightblue" d="M238.385,-75.0735C246.864,-62.4375 257.125,-47.1476 264.45,-36.2309"/>
<polygon fill="midnightblue" stroke="midnightblue" points="235.259,-73.451 232.593,-83.705 241.071,-77.3516 235.259,-73.451"/>
</g>
<!-- Node71&#45;&gt;Node70 -->
<g id="edge17" class="edge"><title>Node71&#45;&gt;Node70</title>
<path fill="none" stroke="midnightblue" d="M1901.26,-81.5613C1895.79,-80.2551 1890.31,-79.0409 1885,-78 1757.55,-52.9952 1722.22,-68.161 1595,-42 1587.06,-40.367 1578.7,-38.2739 1570.65,-36.0597"/>
<polygon fill="midnightblue" stroke="midnightblue" points="1900.52,-84.9817 1911.06,-83.9945 1902.2,-78.188 1900.52,-84.9817"/>
</g>
<!-- Node73 -->
<g id="node18" class="node"><title>Node73</title>
<g id="a_node18"><a xlink:href="_setup__2007__06_8cc.html" target="_top" xlink:title="src/expconfig/setups\l/Setup_2007_06.cc">
<polygon fill="white" stroke="black" points="1603.5,-6 1603.5,-36 1710.5,-36 1710.5,-6 1603.5,-6"/>
<text text-anchor="start" x="1611.5" y="-24" font-family="Helvetica,sans-Serif" font-size="10.00">src/expconfig/setups</text>
<text text-anchor="middle" x="1657" y="-13" font-family="Helvetica,sans-Serif" font-size="10.00">/Setup_2007_06.cc</text>
</a>
</g>
</g>
<!-- Node72&#45;&gt;Node73 -->
<g id="edge19" class="edge"><title>Node72&#45;&gt;Node73</title>
<path fill="none" stroke="midnightblue" d="M2039.72,-81.1063C2035.45,-79.9539 2031.16,-78.8967 2027,-78 1892.7,-49.0846 1854.3,-70.9154 1720,-42 1712.6,-40.4059 1704.82,-38.3044 1697.36,-36.0631"/>
<polygon fill="midnightblue" stroke="midnightblue" points="2039.06,-84.5571 2049.64,-83.9369 2040.98,-77.826 2039.06,-84.5571"/>
</g>
<!-- Node74 -->
<g id="node19" class="node"><title>Node74</title>
<g id="a_node19"><a xlink:href="_setup__2007__07_8cc.html" target="_top" xlink:title="src/expconfig/setups\l/Setup_2007_07.cc">
<polygon fill="white" stroke="black" points="1728.5,-6 1728.5,-36 1835.5,-36 1835.5,-6 1728.5,-6"/>
<text text-anchor="start" x="1736.5" y="-24" font-family="Helvetica,sans-Serif" font-size="10.00">src/expconfig/setups</text>
<text text-anchor="middle" x="1782" y="-13" font-family="Helvetica,sans-Serif" font-size="10.00">/Setup_2007_07.cc</text>
</a>
</g>
</g>
<!-- Node72&#45;&gt;Node74 -->
<g id="edge20" class="edge"><title>Node72&#45;&gt;Node74</title>
<path fill="none" stroke="midnightblue" d="M2038.53,-81.1445C2034.64,-80.0298 2030.77,-78.9677 2027,-78 1947.13,-57.493 1924.87,-62.507 1845,-42 1838.11,-40.2305 1830.86,-38.1451 1823.83,-36.0005"/>
<polygon fill="midnightblue" stroke="midnightblue" points="2037.59,-84.5146 2048.17,-83.9995 2039.57,-77.8029 2037.59,-84.5146"/>
</g>
<!-- Node75 -->
<g id="node20" class="node"><title>Node75</title>
<g id="a_node20"><a xlink:href="_setup__2007___base_8cc.html" target="_top" xlink:title="src/expconfig/setups\l/Setup_2007_Base.cc">
<polygon fill="white" stroke="black" points="1853.5,-6 1853.5,-36 1966.5,-36 1966.5,-6 1853.5,-6"/>
<text text-anchor="start" x="1861.5" y="-24" font-family="Helvetica,sans-Serif" font-size="10.00">src/expconfig/setups</text>
<text text-anchor="middle" x="1910" y="-13" font-family="Helvetica,sans-Serif" font-size="10.00">/Setup_2007_Base.cc</text>
</a>
</g>
</g>
<!-- Node72&#45;&gt;Node75 -->
<g id="edge21" class="edge"><title>Node72&#45;&gt;Node75</title>
<path fill="none" stroke="midnightblue" d="M2047.07,-79.8729C2015.25,-66.4372 1972.5,-48.3891 1943.26,-36.0413"/>
<polygon fill="midnightblue" stroke="midnightblue" points="2045.99,-83.2177 2056.57,-83.8831 2048.71,-76.7689 2045.99,-83.2177"/>
</g>
<!-- Node77 -->
<g id="node22" class="node"><title>Node77</title>
<g id="a_node22"><a xlink:href="_setup__2010__03___base_8cc.html" target="_top" xlink:title="src/expconfig/setups\l/Setup_2010_03_Base.cc">
<polygon fill="white" stroke="black" points="1985,-6 1985,-36 2113,-36 2113,-6 1985,-6"/>
<text text-anchor="start" x="1993" y="-24" font-family="Helvetica,sans-Serif" font-size="10.00">src/expconfig/setups</text>
<text text-anchor="middle" x="2049" y="-13" font-family="Helvetica,sans-Serif" font-size="10.00">/Setup_2010_03_Base.cc</text>
</a>
</g>
</g>
<!-- Node76&#45;&gt;Node77 -->
<g id="edge23" class="edge"><title>Node76&#45;&gt;Node77</title>
<path fill="none" stroke="midnightblue" d="M2181.5,-79.8729C2150.74,-66.4372 2109.42,-48.3891 2081.15,-36.0413"/>
<polygon fill="midnightblue" stroke="midnightblue" points="2180.11,-83.0878 2190.68,-83.8831 2182.92,-76.673 2180.11,-83.0878"/>
</g>
<!-- Node78 -->
<g id="node23" class="node"><title>Node78</title>
<g id="a_node23"><a xlink:href="_setup__2010__09___compton_8cc.html" target="_top" xlink:title="src/expconfig/setups\l/Setup_2010_09_Compton.cc">
<polygon fill="white" stroke="black" points="2131,-6 2131,-36 2277,-36 2277,-6 2131,-6"/>
<text text-anchor="start" x="2139" y="-24" font-family="Helvetica,sans-Serif" font-size="10.00">src/expconfig/setups</text>
<text text-anchor="middle" x="2204" y="-13" font-family="Helvetica,sans-Serif" font-size="10.00">/Setup_2010_09_Compton.cc</text>
</a>
</g>
</g>
<!-- Node76&#45;&gt;Node78 -->
<g id="edge24" class="edge"><title>Node76&#45;&gt;Node78</title>
<path fill="none" stroke="midnightblue" d="M2216.99,-73.9628C2213.89,-61.5505 2210.21,-46.8296 2207.56,-36.2309"/>
<polygon fill="midnightblue" stroke="midnightblue" points="2213.61,-74.8525 2219.43,-83.705 2220.4,-73.1547 2213.61,-74.8525"/>
</g>
<!-- Node81 -->
<g id="node26" class="node"><title>Node81</title>
<g id="a_node26"><a xlink:href="_setup__2014__07___e_p_t___prod_8cc.html" target="_top" xlink:title="src/expconfig/setups\l/Setup_2014_07_EPT_Prod.cc">
<polygon fill="white" stroke="black" points="2295.5,-6 2295.5,-36 2446.5,-36 2446.5,-6 2295.5,-6"/>
<text text-anchor="start" x="2303.5" y="-24" font-family="Helvetica,sans-Serif" font-size="10.00">src/expconfig/setups</text>
<text text-anchor="middle" x="2371" y="-13" font-family="Helvetica,sans-Serif" font-size="10.00">/Setup_2014_07_EPT_Prod.cc</text>
</a>
</g>
</g>
<!-- Node80&#45;&gt;Node81 -->
<g id="edge27" class="edge"><title>Node80&#45;&gt;Node81</title>
<path fill="none" stroke="midnightblue" d="M2484.19,-79.3494C2457.79,-65.9714 2422.77,-48.2295 2398.71,-36.0413"/>
<polygon fill="midnightblue" stroke="midnightblue" points="2482.64,-82.4855 2493.14,-83.8831 2485.8,-76.2413 2482.64,-82.4855"/>
</g>
<!-- Node82 -->
<g id="node27" class="node"><title>Node82</title>
<g id="a_node27"><a xlink:href="_setup__2014__10___e_p_t___prod_8cc.html" target="_top" xlink:title="src/expconfig/setups\l/Setup_2014_10_EPT_Prod.cc">
<polygon fill="white" stroke="black" points="2464.5,-6 2464.5,-36 2615.5,-36 2615.5,-6 2464.5,-6"/>
<text text-anchor="start" x="2472.5" y="-24" font-family="Helvetica,sans-Serif" font-size="10.00">src/expconfig/setups</text>
<text text-anchor="middle" x="2540" y="-13" font-family="Helvetica,sans-Serif" font-size="10.00">/Setup_2014_10_EPT_Prod.cc</text>
</a>
</g>
</g>
<!-- Node80&#45;&gt;Node82 -->
<g id="edge28" class="edge"><title>Node80&#45;&gt;Node82</title>
<path fill="none" stroke="midnightblue" d="M2527.01,-73.9628C2530.11,-61.5505 2533.79,-46.8296 2536.44,-36.2309"/>
<polygon fill="midnightblue" stroke="midnightblue" points="2523.6,-73.1547 2524.57,-83.705 2530.39,-74.8525 2523.6,-73.1547"/>
</g>
<!-- Node83 -->
<g id="node28" class="node"><title>Node83</title>
<g id="a_node28"><a xlink:href="_setup__2014__12___e_p_t___prod_8cc.html" target="_top" xlink:title="src/expconfig/setups\l/Setup_2014_12_EPT_Prod.cc">
<polygon fill="white" stroke="black" points="2633.5,-6 2633.5,-36 2784.5,-36 2784.5,-6 2633.5,-6"/>
<text text-anchor="start" x="2641.5" y="-24" font-family="Helvetica,sans-Serif" font-size="10.00">src/expconfig/setups</text>
<text text-anchor="middle" x="2709" y="-13" font-family="Helvetica,sans-Serif" font-size="10.00">/Setup_2014_12_EPT_Prod.cc</text>
</a>
</g>
</g>
<!-- Node80&#45;&gt;Node83 -->
<g id="edge29" class="edge"><title>Node80&#45;&gt;Node83</title>
<path fill="none" stroke="midnightblue" d="M2565.41,-80.0464C2598.69,-66.5929 2643.59,-48.4424 2674.27,-36.0413"/>
<polygon fill="midnightblue" stroke="midnightblue" points="2563.88,-76.8903 2555.92,-83.8831 2566.5,-83.38 2563.88,-76.8903"/>
</g>
<!-- Node84 -->
<g id="node29" class="node"><title>Node84</title>
<g id="a_node29"><a xlink:href="_setup__2014___e_p_t_8cc.html" target="_top" xlink:title="src/expconfig/setups\l/Setup_2014_EPT.cc">
<polygon fill="white" stroke="black" points="2803,-6 2803,-36 2913,-36 2913,-6 2803,-6"/>
<text text-anchor="start" x="2811" y="-24" font-family="Helvetica,sans-Serif" font-size="10.00">src/expconfig/setups</text>
<text text-anchor="middle" x="2858" y="-13" font-family="Helvetica,sans-Serif" font-size="10.00">/Setup_2014_EPT.cc</text>
</a>
</g>
</g>
<!-- Node80&#45;&gt;Node84 -->
<g id="edge30" class="edge"><title>Node80&#45;&gt;Node84</title>
<path fill="none" stroke="midnightblue" d="M2572.25,-81.0921C2576.21,-79.9821 2580.16,-78.9359 2584,-78 2675.58,-55.6877 2701.32,-63.9046 2793,-42 2800.23,-40.2714 2807.85,-38.1823 2815.21,-36.0149"/>
<polygon fill="midnightblue" stroke="midnightblue" points="2571.07,-77.7909 2562.45,-83.9556 2573.04,-84.5099 2571.07,-77.7909"/>
</g>
<!-- Node87 -->
<g id="node32" class="node"><title>Node87</title>
<g id="a_node32"><a xlink:href="_setup__2017__03_8cc.html" target="_top" xlink:title="src/expconfig/setups\l/Setup_2017_03.cc">
<polygon fill="white" stroke="black" points="2931.5,-6 2931.5,-36 3038.5,-36 3038.5,-6 2931.5,-6"/>
<text text-anchor="start" x="2939.5" y="-24" font-family="Helvetica,sans-Serif" font-size="10.00">src/expconfig/setups</text>
<text text-anchor="middle" x="2985" y="-13" font-family="Helvetica,sans-Serif" font-size="10.00">/Setup_2017_03.cc</text>
</a>
</g>
</g>
<!-- Node86&#45;&gt;Node87 -->
<g id="edge33" class="edge"><title>Node86&#45;&gt;Node87</title>
<path fill="none" stroke="midnightblue" d="M2834.86,-80.2193C2869.6,-66.7488 2916.67,-48.4956 2948.79,-36.0413"/>
<polygon fill="midnightblue" stroke="midnightblue" points="2833.47,-77.0045 2825.41,-83.8831 2836,-83.531 2833.47,-77.0045"/>
</g>
<!-- Node89 -->
<g id="node34" class="node"><title>Node89</title>
<g id="a_node34"><a xlink:href="_setup__2017__05_8cc.html" target="_top" xlink:title="src/expconfig/setups\l/Setup_2017_05.cc">
<polygon fill="white" stroke="black" points="3056.5,-6 3056.5,-36 3163.5,-36 3163.5,-6 3056.5,-6"/>
<text text-anchor="start" x="3064.5" y="-24" font-family="Helvetica,sans-Serif" font-size="10.00">src/expconfig/setups</text>
<text text-anchor="middle" x="3110" y="-13" font-family="Helvetica,sans-Serif" font-size="10.00">/Setup_2017_05.cc</text>
</a>
</g>
</g>
<!-- Node88&#45;&gt;Node89 -->
<g id="edge35" class="edge"><title>Node88&#45;&gt;Node89</title>
<path fill="none" stroke="midnightblue" d="M2959.86,-80.2193C2994.6,-66.7488 3041.67,-48.4956 3073.79,-36.0413"/>
<polygon fill="midnightblue" stroke="midnightblue" points="2958.47,-77.0045 2950.41,-83.8831 2961,-83.531 2958.47,-77.0045"/>
</g>
<!-- Node91 -->
<g id="node36" class="node"><title>Node91</title>
<g id="a_node36"><a xlink:href="_setup__2017__12_8cc.html" target="_top" xlink:title="src/expconfig/setups\l/Setup_2017_12.cc">
<polygon fill="white" stroke="black" points="3181.5,-6 3181.5,-36 3288.5,-36 3288.5,-6 3181.5,-6"/>
<text text-anchor="start" x="3189.5" y="-24" font-family="Helvetica,sans-Serif" font-size="10.00">src/expconfig/setups</text>
<text text-anchor="middle" x="3235" y="-13" font-family="Helvetica,sans-Serif" font-size="10.00">/Setup_2017_12.cc</text>
</a>
</g>
</g>
<!-- Node90&#45;&gt;Node91 -->
<g id="edge37" class="edge"><title>Node90&#45;&gt;Node91</title>
<path fill="none" stroke="midnightblue" d="M3113.55,-74.4456C3142.63,-61.8855 3177.45,-46.8516 3202.33,-36.1065"/>
<polygon fill="midnightblue" stroke="midnightblue" points="3112.12,-71.2505 3104.32,-78.4281 3114.89,-77.6769 3112.12,-71.2505"/>
</g>
<!-- Node92 -->
<g id="node37" class="node"><title>Node92</title>
<g id="a_node37"><a xlink:href="_setup__2017_plus___new_tagger___base_8cc.html" target="_top" xlink:title="src/expconfig/setups\l/Setup_2017Plus_NewTagger\l_Base.cc">
<polygon fill="white" stroke="black" points="3307,-0.5 3307,-41.5 3453,-41.5 3453,-0.5 3307,-0.5"/>
<text text-anchor="start" x="3315" y="-29.5" font-family="Helvetica,sans-Serif" font-size="10.00">src/expconfig/setups</text>
<text text-anchor="start" x="3315" y="-18.5" font-family="Helvetica,sans-Serif" font-size="10.00">/Setup_2017Plus_NewTagger</text>
<text text-anchor="middle" x="3380" y="-7.5" font-family="Helvetica,sans-Serif" font-size="10.00">_Base.cc</text>
</a>
</g>
</g>
<!-- Node90&#45;&gt;Node92 -->
<g id="edge38" class="edge"><title>Node90&#45;&gt;Node92</title>
<path fill="none" stroke="midnightblue" d="M3142.1,-77.9858C3212.41,-61.3975 3231.13,-57.5841 3297,-42 3300.17,-41.2492 3303.41,-40.4797 3306.69,-39.7003"/>
<polygon fill="midnightblue" stroke="midnightblue" points="3141.24,-74.5935 3132.31,-80.2997 3142.85,-81.4058 3141.24,-74.5935"/>
</g>
<!-- Node93 -->
<g id="node38" class="node"><title>Node93</title>
<g id="a_node38"><a xlink:href="_setup__2018__03_8cc.html" target="_top" xlink:title="src/expconfig/setups\l/Setup_2018_03.cc">
<polygon fill="white" stroke="black" points="3471.5,-6 3471.5,-36 3578.5,-36 3578.5,-6 3471.5,-6"/>
<text text-anchor="start" x="3479.5" y="-24" font-family="Helvetica,sans-Serif" font-size="10.00">src/expconfig/setups</text>
<text text-anchor="middle" x="3525" y="-13" font-family="Helvetica,sans-Serif" font-size="10.00">/Setup_2018_03.cc</text>
</a>
</g>
</g>
<!-- Node90&#45;&gt;Node93 -->
<g id="edge39" class="edge"><title>Node90&#45;&gt;Node93</title>
<path fill="none" stroke="midnightblue" d="M3142.21,-78.1066C3284.76,-53.9999 3325.16,-71.1253 3462,-42 3469.41,-40.4233 3477.18,-38.3302 3484.64,-36.0919"/>
<polygon fill="midnightblue" stroke="midnightblue" points="3141.47,-74.6814 3132.22,-79.8347 3142.67,-81.579 3141.47,-74.6814"/>
</g>
</g>
</svg>
