<?xml version="1.0" encoding="UTF-8" standalone="no"?>
<!DOCTYPE svg PUBLIC "-//W3C//DTD SVG 1.1//EN"
 "http://www.w3.org/Graphics/SVG/1.1/DTD/svg11.dtd">
<!-- Generated by graphviz version 2.36.0 (20140111.2315)
 -->
<!-- Title: src/calibration/modules/CalibType.h Pages: 1 -->
<svg width="2061pt" height="254pt"
 viewBox="0.00 0.00 2061.00 254.00" xmlns="http://www.w3.org/2000/svg" xmlns:xlink="http://www.w3.org/1999/xlink">
<g id="graph0" class="graph" transform="scale(1 1) rotate(0) translate(4 250)">
<title>src/calibration/modules/CalibType.h</title>
<polygon fill="white" stroke="none" points="-4,4 -4,-250 2057,-250 2057,4 -4,4"/>
<!-- Node49 -->
<g id="node1" class="node"><title>Node49</title>
<polygon fill="#bfbfbf" stroke="black" points="1038.5,-215 1038.5,-245 1155.5,-245 1155.5,-215 1038.5,-215"/>
<text text-anchor="start" x="1046.5" y="-233" font-family="Helvetica,sans-Serif" font-size="10.00">src/calibration/modules</text>
<text text-anchor="middle" x="1097" y="-222" font-family="Helvetica,sans-Serif" font-size="10.00">/CalibType.h</text>
</g>
<!-- Node50 -->
<g id="node2" class="node"><title>Node50</title>
<g id="a_node2"><a xlink:href="_calib_type_8cc.html" target="_top" xlink:title="src/calibration/modules\l/CalibType.cc">
<polygon fill="white" stroke="black" points="903.5,-147 903.5,-177 1020.5,-177 1020.5,-147 903.5,-147"/>
<text text-anchor="start" x="911.5" y="-165" font-family="Helvetica,sans-Serif" font-size="10.00">src/calibration/modules</text>
<text text-anchor="middle" x="962" y="-154" font-family="Helvetica,sans-Serif" font-size="10.00">/CalibType.cc</text>
</a>
</g>
</g>
<!-- Node49&#45;&gt;Node50 -->
<g id="edge1" class="edge"><title>Node49&#45;&gt;Node50</title>
<path fill="none" stroke="midnightblue" d="M1058.83,-210.339C1037.27,-199.796 1010.74,-186.83 990.913,-177.135"/>
<polygon fill="midnightblue" stroke="midnightblue" points="1057.52,-213.594 1068.04,-214.841 1060.59,-207.305 1057.52,-213.594"/>
</g>
<!-- Node51 -->
<g id="node3" class="node"><title>Node51</title>
<g id="a_node3"><a xlink:href="_energy_8h.html" target="_top" xlink:title="src/calibration/modules\l/Energy.h">
<polygon fill="white" stroke="black" points="1038.5,-147 1038.5,-177 1155.5,-177 1155.5,-147 1038.5,-147"/>
<text text-anchor="start" x="1046.5" y="-165" font-family="Helvetica,sans-Serif" font-size="10.00">src/calibration/modules</text>
<text text-anchor="middle" x="1097" y="-154" font-family="Helvetica,sans-Serif" font-size="10.00">/Energy.h</text>
</a>
</g>
</g>
<!-- Node49&#45;&gt;Node51 -->
<g id="edge2" class="edge"><title>Node49&#45;&gt;Node51</title>
<path fill="none" stroke="midnightblue" d="M1097,-204.532C1097,-195.361 1097,-185.245 1097,-177.293"/>
<polygon fill="midnightblue" stroke="midnightblue" points="1093.5,-204.679 1097,-214.679 1100.5,-204.679 1093.5,-204.679"/>
</g>
<!-- Node74 -->
<g id="node26" class="node"><title>Node74</title>
<g id="a_node26"><a xlink:href="_energy___g_u_i_8h.html" target="_top" xlink:title="src/calibration/modules\l/Energy_GUI.h">
<polygon fill="white" stroke="black" points="1685.5,-147 1685.5,-177 1802.5,-177 1802.5,-147 1685.5,-147"/>
<text text-anchor="start" x="1693.5" y="-165" font-family="Helvetica,sans-Serif" font-size="10.00">src/calibration/modules</text>
<text text-anchor="middle" x="1744" y="-154" font-family="Helvetica,sans-Serif" font-size="10.00">/Energy_GUI.h</text>
</a>
</g>
</g>
<!-- Node49&#45;&gt;Node74 -->
<g id="edge58" class="edge"><title>Node49&#45;&gt;Node74</title>
<path fill="none" stroke="midnightblue" d="M1165.61,-222.002C1293.27,-208.979 1565.19,-181.24 1685.11,-169.008"/>
<polygon fill="midnightblue" stroke="midnightblue" points="1165.15,-218.53 1155.56,-223.027 1165.86,-225.494 1165.15,-218.53"/>
</g>
<!-- Node52 -->
<g id="node4" class="node"><title>Node52</title>
<g id="a_node4"><a xlink:href="calibration_2modules_2_c_b___energy_8h.html" target="_top" xlink:title="src/calibration/modules\l/CB_Energy.h">
<polygon fill="white" stroke="black" points="700.5,-79 700.5,-109 817.5,-109 817.5,-79 700.5,-79"/>
<text text-anchor="start" x="708.5" y="-97" font-family="Helvetica,sans-Serif" font-size="10.00">src/calibration/modules</text>
<text text-anchor="middle" x="759" y="-86" font-family="Helvetica,sans-Serif" font-size="10.00">/CB_Energy.h</text>
</a>
</g>
</g>
<!-- Node51&#45;&gt;Node52 -->
<g id="edge3" class="edge"><title>Node51&#45;&gt;Node52</title>
<path fill="none" stroke="midnightblue" d="M1028.51,-145.956C937.46,-128.098 912.771,-127.398 826,-110 823.312,-109.461 820.566,-108.898 817.794,-108.319"/>
<polygon fill="midnightblue" stroke="midnightblue" points="1027.94,-149.411 1038.43,-147.917 1029.3,-142.544 1027.94,-149.411"/>
</g>
<!-- Node63 -->
<g id="node15" class="node"><title>Node63</title>
<g id="a_node15"><a xlink:href="calibration_2modules_2_c_b___source_calib_8h.html" target="_top" xlink:title="src/calibration/modules\l/CB_SourceCalib.h">
<polygon fill="white" stroke="black" points="141.5,-79 141.5,-109 258.5,-109 258.5,-79 141.5,-79"/>
<text text-anchor="start" x="149.5" y="-97" font-family="Helvetica,sans-Serif" font-size="10.00">src/calibration/modules</text>
<text text-anchor="middle" x="200" y="-86" font-family="Helvetica,sans-Serif" font-size="10.00">/CB_SourceCalib.h</text>
</a>
</g>
</g>
<!-- Node51&#45;&gt;Node63 -->
<g id="edge14" class="edge"><title>Node51&#45;&gt;Node63</title>
<path fill="none" stroke="midnightblue" d="M1028.49,-146.096C734.198,-105.573 393.087,-97.2507 258.607,-95.4789"/>
<polygon fill="midnightblue" stroke="midnightblue" points="1028.11,-149.577 1038.5,-147.489 1029.08,-142.644 1028.11,-149.577"/>
</g>
<!-- Node65 -->
<g id="node17" class="node"><title>Node65</title>
<g id="a_node17"><a xlink:href="_energy_8cc.html" target="_top" xlink:title="src/calibration/modules\l/Energy.cc">
<polygon fill="white" stroke="black" points="835.5,-79 835.5,-109 952.5,-109 952.5,-79 835.5,-79"/>
<text text-anchor="start" x="843.5" y="-97" font-family="Helvetica,sans-Serif" font-size="10.00">src/calibration/modules</text>
<text text-anchor="middle" x="894" y="-86" font-family="Helvetica,sans-Serif" font-size="10.00">/Energy.cc</text>
</a>
</g>
</g>
<!-- Node51&#45;&gt;Node65 -->
<g id="edge17" class="edge"><title>Node51&#45;&gt;Node65</title>
<path fill="none" stroke="midnightblue" d="M1043.88,-143.731C1010.62,-132.916 968.308,-119.159 937.128,-109.022"/>
<polygon fill="midnightblue" stroke="midnightblue" points="1042.86,-147.078 1053.45,-146.841 1045.02,-140.421 1042.86,-147.078"/>
</g>
<!-- Node66 -->
<g id="node18" class="node"><title>Node66</title>
<g id="a_node18"><a xlink:href="calibration_2modules_2_p_i_d___energy_8h.html" target="_top" xlink:title="src/calibration/modules\l/PID_Energy.h">
<polygon fill="white" stroke="black" points="1240.5,-79 1240.5,-109 1357.5,-109 1357.5,-79 1240.5,-79"/>
<text text-anchor="start" x="1248.5" y="-97" font-family="Helvetica,sans-Serif" font-size="10.00">src/calibration/modules</text>
<text text-anchor="middle" x="1299" y="-86" font-family="Helvetica,sans-Serif" font-size="10.00">/PID_Energy.h</text>
</a>
</g>
</g>
<!-- Node51&#45;&gt;Node66 -->
<g id="edge18" class="edge"><title>Node51&#45;&gt;Node66</title>
<path fill="none" stroke="midnightblue" d="M1149.85,-143.731C1182.95,-132.916 1225.06,-119.159 1256.08,-109.022"/>
<polygon fill="midnightblue" stroke="midnightblue" points="1148.75,-140.409 1140.33,-146.841 1150.93,-147.062 1148.75,-140.409"/>
</g>
<!-- Node68 -->
<g id="node20" class="node"><title>Node68</title>
<g id="a_node20"><a xlink:href="calibration_2modules_2_t_a_p_s___energy_8h.html" target="_top" xlink:title="src/calibration/modules\l/TAPS_Energy.h">
<polygon fill="white" stroke="black" points="1105.5,-79 1105.5,-109 1222.5,-109 1222.5,-79 1105.5,-79"/>
<text text-anchor="start" x="1113.5" y="-97" font-family="Helvetica,sans-Serif" font-size="10.00">src/calibration/modules</text>
<text text-anchor="middle" x="1164" y="-86" font-family="Helvetica,sans-Serif" font-size="10.00">/TAPS_Energy.h</text>
</a>
</g>
</g>
<!-- Node51&#45;&gt;Node68 -->
<g id="edge28" class="edge"><title>Node51&#45;&gt;Node68</title>
<path fill="none" stroke="midnightblue" d="M1118.84,-139.485C1128.89,-129.585 1140.54,-118.109 1149.49,-109.293"/>
<polygon fill="midnightblue" stroke="midnightblue" points="1116.21,-137.168 1111.54,-146.679 1121.12,-142.155 1116.21,-137.168"/>
</g>
<!-- Node70 -->
<g id="node22" class="node"><title>Node70</title>
<g id="a_node22"><a xlink:href="calibration_2modules_2_t_a_p_s___short_energy_8h.html" target="_top" xlink:title="src/calibration/modules\l/TAPS_ShortEnergy.h">
<polygon fill="white" stroke="black" points="970.5,-79 970.5,-109 1087.5,-109 1087.5,-79 970.5,-79"/>
<text text-anchor="start" x="978.5" y="-97" font-family="Helvetica,sans-Serif" font-size="10.00">src/calibration/modules</text>
<text text-anchor="middle" x="1029" y="-86" font-family="Helvetica,sans-Serif" font-size="10.00">/TAPS_ShortEnergy.h</text>
</a>
</g>
</g>
<!-- Node51&#45;&gt;Node70 -->
<g id="edge38" class="edge"><title>Node51&#45;&gt;Node70</title>
<path fill="none" stroke="midnightblue" d="M1074.83,-139.485C1064.63,-129.585 1052.81,-118.109 1043.73,-109.293"/>
<polygon fill="midnightblue" stroke="midnightblue" points="1072.63,-142.226 1082.25,-146.679 1077.51,-137.203 1072.63,-142.226"/>
</g>
<!-- Node72 -->
<g id="node24" class="node"><title>Node72</title>
<g id="a_node24"><a xlink:href="calibration_2modules_2_t_a_p_s_veto___energy_8h.html" target="_top" xlink:title="src/calibration/modules\l/TAPSVeto_Energy.h">
<polygon fill="white" stroke="black" points="1375.5,-79 1375.5,-109 1492.5,-109 1492.5,-79 1375.5,-79"/>
<text text-anchor="start" x="1383.5" y="-97" font-family="Helvetica,sans-Serif" font-size="10.00">src/calibration/modules</text>
<text text-anchor="middle" x="1434" y="-86" font-family="Helvetica,sans-Serif" font-size="10.00">/TAPSVeto_Energy.h</text>
</a>
</g>
</g>
<!-- Node51&#45;&gt;Node72 -->
<g id="edge48" class="edge"><title>Node51&#45;&gt;Node72</title>
<path fill="none" stroke="midnightblue" d="M1165.49,-148.596C1219.92,-138.598 1297.94,-123.954 1366,-110 1369.08,-109.369 1372.23,-108.711 1375.42,-108.038"/>
<polygon fill="midnightblue" stroke="midnightblue" points="1164.81,-145.162 1155.61,-150.408 1166.07,-152.047 1164.81,-145.162"/>
</g>
<!-- Node53 -->
<g id="node5" class="node"><title>Node53</title>
<g id="a_node5"><a xlink:href="calibration_2modules_2_c_b___energy_8cc.html" target="_top" xlink:title="src/calibration/modules\l/CB_Energy.cc">
<polygon fill="white" stroke="black" points="283.5,-6 283.5,-36 400.5,-36 400.5,-6 283.5,-6"/>
<text text-anchor="start" x="291.5" y="-24" font-family="Helvetica,sans-Serif" font-size="10.00">src/calibration/modules</text>
<text text-anchor="middle" x="342" y="-13" font-family="Helvetica,sans-Serif" font-size="10.00">/CB_Energy.cc</text>
</a>
</g>
</g>
<!-- Node52&#45;&gt;Node53 -->
<g id="edge4" class="edge"><title>Node52&#45;&gt;Node53</title>
<path fill="none" stroke="midnightblue" d="M690.162,-85.9637C619.191,-78.0116 505.583,-63.3334 409,-42 401.414,-40.3243 393.433,-38.2365 385.73,-36.0473"/>
<polygon fill="midnightblue" stroke="midnightblue" points="689.992,-89.4662 700.316,-87.0881 690.762,-82.5087 689.992,-89.4662"/>
</g>
<!-- Node54 -->
<g id="node6" class="node"><title>Node54</title>
<g id="a_node6"><a xlink:href="_setup__2007___base_8cc.html" target="_top" xlink:title="src/expconfig/setups\l/Setup_2007_Base.cc">
<polygon fill="white" stroke="black" points="702.5,-6 702.5,-36 815.5,-36 815.5,-6 702.5,-6"/>
<text text-anchor="start" x="710.5" y="-24" font-family="Helvetica,sans-Serif" font-size="10.00">src/expconfig/setups</text>
<text text-anchor="middle" x="759" y="-13" font-family="Helvetica,sans-Serif" font-size="10.00">/Setup_2007_Base.cc</text>
</a>
</g>
</g>
<!-- Node52&#45;&gt;Node54 -->
<g id="edge5" class="edge"><title>Node52&#45;&gt;Node54</title>
<path fill="none" stroke="midnightblue" d="M759,-68.8976C759,-58.1314 759,-45.8005 759,-36.4856"/>
<polygon fill="midnightblue" stroke="midnightblue" points="755.5,-68.9727 759,-78.9727 762.5,-68.9727 755.5,-68.9727"/>
</g>
<!-- Node55 -->
<g id="node7" class="node"><title>Node55</title>
<g id="a_node7"><a xlink:href="_setup__2010__03___base_8cc.html" target="_top" xlink:title="src/expconfig/setups\l/Setup_2010_03_Base.cc">
<polygon fill="white" stroke="black" points="834,-6 834,-36 962,-36 962,-6 834,-6"/>
<text text-anchor="start" x="842" y="-24" font-family="Helvetica,sans-Serif" font-size="10.00">src/expconfig/setups</text>
<text text-anchor="middle" x="898" y="-13" font-family="Helvetica,sans-Serif" font-size="10.00">/Setup_2010_03_Base.cc</text>
</a>
</g>
</g>
<!-- Node52&#45;&gt;Node55 -->
<g id="edge6" class="edge"><title>Node52&#45;&gt;Node55</title>
<path fill="none" stroke="midnightblue" d="M795.388,-74.4135C818.754,-62.4783 848.636,-47.2147 870.119,-36.2412"/>
<polygon fill="midnightblue" stroke="midnightblue" points="793.775,-71.3068 786.462,-78.9727 796.96,-77.5407 793.775,-71.3068"/>
</g>
<!-- Node56 -->
<g id="node8" class="node"><title>Node56</title>
<g id="a_node8"><a xlink:href="_setup__2014___e_p_t_8cc.html" target="_top" xlink:title="src/expconfig/setups\l/Setup_2014_EPT.cc">
<polygon fill="white" stroke="black" points="980,-6 980,-36 1090,-36 1090,-6 980,-6"/>
<text text-anchor="start" x="988" y="-24" font-family="Helvetica,sans-Serif" font-size="10.00">src/expconfig/setups</text>
<text text-anchor="middle" x="1035" y="-13" font-family="Helvetica,sans-Serif" font-size="10.00">/Setup_2014_EPT.cc</text>
</a>
</g>
</g>
<!-- Node52&#45;&gt;Node56 -->
<g id="edge7" class="edge"><title>Node52&#45;&gt;Node56</title>
<path fill="none" stroke="midnightblue" d="M827.771,-76.9802C878.931,-64.964 944.317,-49.3698 971,-42 977.62,-40.1715 984.588,-38.1234 991.393,-36.0542"/>
<polygon fill="midnightblue" stroke="midnightblue" points="826.681,-73.6409 817.745,-79.3323 828.28,-80.4559 826.681,-73.6409"/>
</g>
<!-- Node57 -->
<g id="node9" class="node"><title>Node57</title>
<g id="a_node9"><a xlink:href="_setup__2015__01___pion_8cc.html" target="_top" xlink:title="src/expconfig/setups\l/Setup_2015_01_Pion.cc">
<polygon fill="white" stroke="black" points="1108.5,-6 1108.5,-36 1233.5,-36 1233.5,-6 1108.5,-6"/>
<text text-anchor="start" x="1116.5" y="-24" font-family="Helvetica,sans-Serif" font-size="10.00">src/expconfig/setups</text>
<text text-anchor="middle" x="1171" y="-13" font-family="Helvetica,sans-Serif" font-size="10.00">/Setup_2015_01_Pion.cc</text>
</a>
</g>
</g>
<!-- Node52&#45;&gt;Node57 -->
<g id="edge8" class="edge"><title>Node52&#45;&gt;Node57</title>
<path fill="none" stroke="midnightblue" d="M827.752,-77.7862C948.279,-57.1044 982.243,-65.793 1099,-42 1107.14,-40.3421 1115.7,-38.2631 1123.98,-36.0773"/>
<polygon fill="midnightblue" stroke="midnightblue" points="827.014,-74.3621 817.766,-79.5323 828.22,-81.2574 827.014,-74.3621"/>
</g>
<!-- Node58 -->
<g id="node10" class="node"><title>Node58</title>
<g id="a_node10"><a xlink:href="_setup__2017__03_8cc.html" target="_top" xlink:title="src/expconfig/setups\l/Setup_2017_03.cc">
<polygon fill="white" stroke="black" points="1251.5,-6 1251.5,-36 1358.5,-36 1358.5,-6 1251.5,-6"/>
<text text-anchor="start" x="1259.5" y="-24" font-family="Helvetica,sans-Serif" font-size="10.00">src/expconfig/setups</text>
<text text-anchor="middle" x="1305" y="-13" font-family="Helvetica,sans-Serif" font-size="10.00">/Setup_2017_03.cc</text>
</a>
</g>
</g>
<!-- Node52&#45;&gt;Node58 -->
<g id="edge9" class="edge"><title>Node52&#45;&gt;Node58</title>
<path fill="none" stroke="midnightblue" d="M827.719,-77.8681C1011.22,-50.651 1063.2,-77.6598 1242,-42 1249.65,-40.4737 1257.68,-38.3472 1265.36,-36.0469"/>
<polygon fill="midnightblue" stroke="midnightblue" points="827.103,-74.4214 817.741,-79.3818 828.153,-81.3422 827.103,-74.4214"/>
</g>
<!-- Node59 -->
<g id="node11" class="node"><title>Node59</title>
<g id="a_node11"><a xlink:href="_setup__2017__05_8cc.html" target="_top" xlink:title="src/expconfig/setups\l/Setup_2017_05.cc">
<polygon fill="white" stroke="black" points="1376.5,-6 1376.5,-36 1483.5,-36 1483.5,-6 1376.5,-6"/>
<text text-anchor="start" x="1384.5" y="-24" font-family="Helvetica,sans-Serif" font-size="10.00">src/expconfig/setups</text>
<text text-anchor="middle" x="1430" y="-13" font-family="Helvetica,sans-Serif" font-size="10.00">/Setup_2017_05.cc</text>
</a>
</g>
</g>
<!-- Node52&#45;&gt;Node59 -->
<g id="edge10" class="edge"><title>Node52&#45;&gt;Node59</title>
<path fill="none" stroke="midnightblue" d="M827.752,-77.8927C1066.33,-44.7399 1133.46,-86.1695 1367,-42 1374.78,-40.5286 1382.94,-38.3974 1390.72,-36.069"/>
<polygon fill="midnightblue" stroke="midnightblue" points="827.14,-74.4444 817.731,-79.3148 828.124,-81.375 827.14,-74.4444"/>
</g>
<!-- Node60 -->
<g id="node12" class="node"><title>Node60</title>
<g id="a_node12"><a xlink:href="_setup__2017_plus___new_tagger___base_8cc.html" target="_top" xlink:title="src/expconfig/setups\l/Setup_2017Plus_NewTagger\l_Base.cc">
<polygon fill="white" stroke="black" points="1502,-0.5 1502,-41.5 1648,-41.5 1648,-0.5 1502,-0.5"/>
<text text-anchor="start" x="1510" y="-29.5" font-family="Helvetica,sans-Serif" font-size="10.00">src/expconfig/setups</text>
<text text-anchor="start" x="1510" y="-18.5" font-family="Helvetica,sans-Serif" font-size="10.00">/Setup_2017Plus_NewTagger</text>
<text text-anchor="middle" x="1575" y="-7.5" font-family="Helvetica,sans-Serif" font-size="10.00">_Base.cc</text>
</a>
</g>
</g>
<!-- Node52&#45;&gt;Node60 -->
<g id="edge11" class="edge"><title>Node52&#45;&gt;Node60</title>
<path fill="none" stroke="midnightblue" d="M827.814,-77.8982C1121.45,-38.5327 1201.98,-84.4175 1492,-42 1495.23,-41.5281 1498.51,-40.9896 1501.82,-40.3994"/>
<polygon fill="midnightblue" stroke="midnightblue" points="827.161,-74.4547 817.725,-79.2728 828.106,-81.3906 827.161,-74.4547"/>
</g>
<!-- Node61 -->
<g id="node13" class="node"><title>Node61</title>
<g id="a_node13"><a xlink:href="_setup___c_b_source_calib_8cc.html" target="_top" xlink:title="src/expconfig/setups\l/Setup_CBSourceCalib.cc">
<polygon fill="white" stroke="black" points="134.5,-6 134.5,-36 265.5,-36 265.5,-6 134.5,-6"/>
<text text-anchor="start" x="142.5" y="-24" font-family="Helvetica,sans-Serif" font-size="10.00">src/expconfig/setups</text>
<text text-anchor="middle" x="200" y="-13" font-family="Helvetica,sans-Serif" font-size="10.00">/Setup_CBSourceCalib.cc</text>
</a>
</g>
</g>
<!-- Node52&#45;&gt;Node61 -->
<g id="edge12" class="edge"><title>Node52&#45;&gt;Node61</title>
<path fill="none" stroke="midnightblue" d="M690.339,-89.2322C595.914,-83.2679 420.958,-69.4053 274,-42 265.365,-40.3898 256.265,-38.2805 247.512,-36.0365"/>
<polygon fill="midnightblue" stroke="midnightblue" points="690.137,-92.7263 700.335,-89.8529 690.571,-85.7397 690.137,-92.7263"/>
</g>
<!-- Node62 -->
<g id="node14" class="node"><title>Node62</title>
<g id="a_node14"><a xlink:href="expconfig__helpers_8cc.html" target="_top" xlink:title="test/expconfig_helpers.cc">
<polygon fill="white" stroke="black" points="556,-11.5 556,-30.5 684,-30.5 684,-11.5 556,-11.5"/>
<text text-anchor="middle" x="620" y="-18.5" font-family="Helvetica,sans-Serif" font-size="10.00">test/expconfig_helpers.cc</text>
</a>
</g>
</g>
<!-- Node52&#45;&gt;Node62 -->
<g id="edge13" class="edge"><title>Node52&#45;&gt;Node62</title>
<path fill="none" stroke="midnightblue" d="M722.535,-74.3742C694.853,-60.2344 658.059,-41.4403 636.909,-30.6372"/>
<polygon fill="midnightblue" stroke="midnightblue" points="721.04,-77.5407 731.538,-78.9727 724.225,-71.3068 721.04,-77.5407"/>
</g>
<!-- Node63&#45;&gt;Node61 -->
<g id="edge16" class="edge"><title>Node63&#45;&gt;Node61</title>
<path fill="none" stroke="midnightblue" d="M200,-68.8976C200,-58.1314 200,-45.8005 200,-36.4856"/>
<polygon fill="midnightblue" stroke="midnightblue" points="196.5,-68.9727 200,-78.9727 203.5,-68.9727 196.5,-68.9727"/>
</g>
<!-- Node64 -->
<g id="node16" class="node"><title>Node64</title>
<g id="a_node16"><a xlink:href="calibration_2modules_2_c_b___source_calib_8cc.html" target="_top" xlink:title="src/calibration/modules\l/CB_SourceCalib.cc">
<polygon fill="white" stroke="black" points="-0.5,-6 -0.5,-36 116.5,-36 116.5,-6 -0.5,-6"/>
<text text-anchor="start" x="7.5" y="-24" font-family="Helvetica,sans-Serif" font-size="10.00">src/calibration/modules</text>
<text text-anchor="middle" x="58" y="-13" font-family="Helvetica,sans-Serif" font-size="10.00">/CB_SourceCalib.cc</text>
</a>
</g>
</g>
<!-- Node63&#45;&gt;Node64 -->
<g id="edge15" class="edge"><title>Node63&#45;&gt;Node64</title>
<path fill="none" stroke="midnightblue" d="M162.827,-74.4135C138.957,-62.4783 108.429,-47.2147 86.4824,-36.2412"/>
<polygon fill="midnightblue" stroke="midnightblue" points="161.436,-77.631 171.945,-78.9727 164.566,-71.37 161.436,-77.631"/>
</g>
<!-- Node66&#45;&gt;Node54 -->
<g id="edge20" class="edge"><title>Node66&#45;&gt;Node54</title>
<path fill="none" stroke="midnightblue" d="M1230.4,-78.064C1050.14,-51.3523 999.634,-75.8276 825,-42 817.007,-40.4517 808.604,-38.3148 800.572,-36.0113"/>
<polygon fill="midnightblue" stroke="midnightblue" points="1230.07,-81.5541 1240.48,-79.5911 1231.12,-74.6331 1230.07,-81.5541"/>
</g>
<!-- Node66&#45;&gt;Node55 -->
<g id="edge21" class="edge"><title>Node66&#45;&gt;Node55</title>
<path fill="none" stroke="midnightblue" d="M1230.46,-78.0086C1114.42,-57.8354 1082.15,-64.8204 971,-42 962.762,-40.3086 954.08,-38.2129 945.692,-36.0208"/>
<polygon fill="midnightblue" stroke="midnightblue" points="1230,-81.4801 1240.45,-79.7756 1231.22,-74.5871 1230,-81.4801"/>
</g>
<!-- Node66&#45;&gt;Node56 -->
<g id="edge22" class="edge"><title>Node66&#45;&gt;Node56</title>
<path fill="none" stroke="midnightblue" d="M1231.25,-76.4874C1192.66,-66.8699 1143.49,-54.2552 1100,-42 1093.41,-40.1425 1086.47,-38.1001 1079.67,-36.0518"/>
<polygon fill="midnightblue" stroke="midnightblue" points="1230.78,-79.9771 1241.33,-78.9916 1232.47,-73.1837 1230.78,-79.9771"/>
</g>
<!-- Node66&#45;&gt;Node57 -->
<g id="edge23" class="edge"><title>Node66&#45;&gt;Node57</title>
<path fill="none" stroke="midnightblue" d="M1264.92,-74.0959C1243.49,-62.2085 1216.28,-47.1176 1196.67,-36.2412"/>
<polygon fill="midnightblue" stroke="midnightblue" points="1263.27,-77.1827 1273.71,-78.9727 1266.66,-71.0613 1263.27,-77.1827"/>
</g>
<!-- Node66&#45;&gt;Node58 -->
<g id="edge24" class="edge"><title>Node66&#45;&gt;Node58</title>
<path fill="none" stroke="midnightblue" d="M1301.04,-68.8976C1301.95,-58.1314 1302.99,-45.8005 1303.78,-36.4856"/>
<polygon fill="midnightblue" stroke="midnightblue" points="1297.54,-68.7134 1300.19,-78.9727 1304.52,-69.303 1297.54,-68.7134"/>
</g>
<!-- Node66&#45;&gt;Node59 -->
<g id="edge25" class="edge"><title>Node66&#45;&gt;Node59</title>
<path fill="none" stroke="midnightblue" d="M1333.88,-74.0959C1355.81,-62.2085 1383.66,-47.1176 1403.72,-36.2412"/>
<polygon fill="midnightblue" stroke="midnightblue" points="1332.01,-71.1305 1324.88,-78.9727 1335.34,-77.2848 1332.01,-71.1305"/>
</g>
<!-- Node66&#45;&gt;Node60 -->
<g id="edge26" class="edge"><title>Node66&#45;&gt;Node60</title>
<path fill="none" stroke="midnightblue" d="M1363.24,-76.4746C1404.67,-65.8159 1458.67,-51.9254 1501.77,-40.8388"/>
<polygon fill="midnightblue" stroke="midnightblue" points="1362.34,-73.0916 1353.53,-78.9727 1364.09,-79.8709 1362.34,-73.0916"/>
</g>
<!-- Node66&#45;&gt;Node62 -->
<g id="edge27" class="edge"><title>Node66&#45;&gt;Node62</title>
<path fill="none" stroke="midnightblue" d="M1230.48,-78.0977C991.97,-45.1115 926.077,-81.3168 693,-42 677.192,-39.3334 659.872,-34.6661 646.071,-30.5107"/>
<polygon fill="midnightblue" stroke="midnightblue" points="1230.11,-81.5798 1240.5,-79.5097 1231.08,-74.6483 1230.11,-81.5798"/>
</g>
<!-- Node67 -->
<g id="node19" class="node"><title>Node67</title>
<g id="a_node19"><a xlink:href="calibration_2modules_2_p_i_d___energy_8cc.html" target="_top" xlink:title="src/calibration/modules\l/PID_Energy.cc">
<polygon fill="white" stroke="black" points="1801.5,-6 1801.5,-36 1918.5,-36 1918.5,-6 1801.5,-6"/>
<text text-anchor="start" x="1809.5" y="-24" font-family="Helvetica,sans-Serif" font-size="10.00">src/calibration/modules</text>
<text text-anchor="middle" x="1860" y="-13" font-family="Helvetica,sans-Serif" font-size="10.00">/PID_Energy.cc</text>
</a>
</g>
</g>
<!-- Node66&#45;&gt;Node67 -->
<g id="edge19" class="edge"><title>Node66&#45;&gt;Node67</title>
<path fill="none" stroke="midnightblue" d="M1367.48,-78.0851C1556.21,-50.4387 1608.86,-76.3248 1792,-42 1800.22,-40.4585 1808.88,-38.3248 1817.15,-36.0222"/>
<polygon fill="midnightblue" stroke="midnightblue" points="1366.89,-74.6353 1357.51,-79.5763 1367.92,-81.5583 1366.89,-74.6353"/>
</g>
<!-- Node68&#45;&gt;Node54 -->
<g id="edge30" class="edge"><title>Node68&#45;&gt;Node54</title>
<path fill="none" stroke="midnightblue" d="M1095.44,-78.0155C974.566,-57.4391 940.622,-67.0251 825,-42 817.394,-40.3537 809.395,-38.2541 801.694,-36.0374"/>
<polygon fill="midnightblue" stroke="midnightblue" points="1095.01,-81.4921 1105.46,-79.7549 1096.2,-74.5953 1095.01,-81.4921"/>
</g>
<!-- Node68&#45;&gt;Node55 -->
<g id="edge31" class="edge"><title>Node68&#45;&gt;Node55</title>
<path fill="none" stroke="midnightblue" d="M1100.48,-76.3707C1062.82,-66.4719 1014.16,-53.6154 971,-42 963.894,-40.0878 956.404,-38.0551 949.037,-36.0462"/>
<polygon fill="midnightblue" stroke="midnightblue" points="1099.74,-79.795 1110.3,-78.9505 1101.52,-73.0246 1099.74,-79.795"/>
</g>
<!-- Node68&#45;&gt;Node56 -->
<g id="edge32" class="edge"><title>Node68&#45;&gt;Node56</title>
<path fill="none" stroke="midnightblue" d="M1129.65,-74.0959C1108.05,-62.2085 1080.64,-47.1176 1060.87,-36.2412"/>
<polygon fill="midnightblue" stroke="midnightblue" points="1128.07,-77.2171 1138.51,-78.9727 1131.44,-71.0846 1128.07,-77.2171"/>
</g>
<!-- Node68&#45;&gt;Node57 -->
<g id="edge33" class="edge"><title>Node68&#45;&gt;Node57</title>
<path fill="none" stroke="midnightblue" d="M1166.38,-68.8976C1167.44,-58.1314 1168.65,-45.8005 1169.57,-36.4856"/>
<polygon fill="midnightblue" stroke="midnightblue" points="1162.88,-68.6775 1165.38,-78.9727 1169.85,-69.3644 1162.88,-68.6775"/>
</g>
<!-- Node68&#45;&gt;Node58 -->
<g id="edge34" class="edge"><title>Node68&#45;&gt;Node58</title>
<path fill="none" stroke="midnightblue" d="M1200.91,-74.4135C1224.61,-62.4783 1254.93,-47.2147 1276.72,-36.2412"/>
<polygon fill="midnightblue" stroke="midnightblue" points="1199.21,-71.3491 1191.86,-78.9727 1202.36,-77.6012 1199.21,-71.3491"/>
</g>
<!-- Node68&#45;&gt;Node59 -->
<g id="edge35" class="edge"><title>Node68&#45;&gt;Node59</title>
<path fill="none" stroke="midnightblue" d="M1232.67,-76.8565C1272.13,-67.3039 1322.53,-54.632 1367,-42 1373.51,-40.15 1380.37,-38.0904 1387.07,-36.0161"/>
<polygon fill="midnightblue" stroke="midnightblue" points="1231.78,-73.4694 1222.88,-79.216 1233.42,-80.2744 1231.78,-73.4694"/>
</g>
<!-- Node68&#45;&gt;Node60 -->
<g id="edge36" class="edge"><title>Node68&#45;&gt;Node60</title>
<path fill="none" stroke="midnightblue" d="M1232.53,-78.0047C1348.56,-57.7412 1380.51,-63.0975 1492,-42 1495.2,-41.3937 1498.47,-40.7439 1501.76,-40.0626"/>
<polygon fill="midnightblue" stroke="midnightblue" points="1231.78,-74.5835 1222.55,-79.7756 1233,-81.4761 1231.78,-74.5835"/>
</g>
<!-- Node68&#45;&gt;Node62 -->
<g id="edge37" class="edge"><title>Node68&#45;&gt;Node62</title>
<path fill="none" stroke="midnightblue" d="M1095.47,-78.0714C916.492,-51.4001 866.778,-73.3086 693,-42 677.481,-39.204 660.471,-34.6348 646.778,-30.569"/>
<polygon fill="midnightblue" stroke="midnightblue" points="1095.07,-81.5507 1105.48,-79.5935 1096.12,-74.6302 1095.07,-81.5507"/>
</g>
<!-- Node69 -->
<g id="node21" class="node"><title>Node69</title>
<g id="a_node21"><a xlink:href="calibration_2modules_2_t_a_p_s___energy_8cc.html" target="_top" xlink:title="src/calibration/modules\l/TAPS_Energy.cc">
<polygon fill="white" stroke="black" points="1666.5,-6 1666.5,-36 1783.5,-36 1783.5,-6 1666.5,-6"/>
<text text-anchor="start" x="1674.5" y="-24" font-family="Helvetica,sans-Serif" font-size="10.00">src/calibration/modules</text>
<text text-anchor="middle" x="1725" y="-13" font-family="Helvetica,sans-Serif" font-size="10.00">/TAPS_Energy.cc</text>
</a>
</g>
</g>
<!-- Node68&#45;&gt;Node69 -->
<g id="edge29" class="edge"><title>Node68&#45;&gt;Node69</title>
<path fill="none" stroke="midnightblue" d="M1232.48,-78.0851C1421.21,-50.4387 1473.86,-76.3248 1657,-42 1665.22,-40.4585 1673.88,-38.3248 1682.15,-36.0222"/>
<polygon fill="midnightblue" stroke="midnightblue" points="1231.89,-74.6353 1222.51,-79.5763 1232.92,-81.5583 1231.89,-74.6353"/>
</g>
<!-- Node70&#45;&gt;Node54 -->
<g id="edge40" class="edge"><title>Node70&#45;&gt;Node54</title>
<path fill="none" stroke="midnightblue" d="M960.482,-76.7623C920.785,-67.1324 869.928,-54.4151 825,-42 818.307,-40.1504 811.258,-38.1123 804.36,-36.066"/>
<polygon fill="midnightblue" stroke="midnightblue" points="959.781,-80.1936 970.323,-79.1419 961.426,-73.3896 959.781,-80.1936"/>
</g>
<!-- Node70&#45;&gt;Node55 -->
<g id="edge41" class="edge"><title>Node70&#45;&gt;Node55</title>
<path fill="none" stroke="midnightblue" d="M994.121,-74.0959C972.188,-62.2085 944.344,-47.1176 924.276,-36.2412"/>
<polygon fill="midnightblue" stroke="midnightblue" points="992.659,-77.2848 1003.12,-78.9727 995.995,-71.1305 992.659,-77.2848"/>
</g>
<!-- Node70&#45;&gt;Node56 -->
<g id="edge42" class="edge"><title>Node70&#45;&gt;Node56</title>
<path fill="none" stroke="midnightblue" d="M1031.04,-68.8976C1031.95,-58.1314 1032.99,-45.8005 1033.78,-36.4856"/>
<polygon fill="midnightblue" stroke="midnightblue" points="1027.54,-68.7134 1030.19,-78.9727 1034.52,-69.303 1027.54,-68.7134"/>
</g>
<!-- Node70&#45;&gt;Node57 -->
<g id="edge43" class="edge"><title>Node70&#45;&gt;Node57</title>
<path fill="none" stroke="midnightblue" d="M1066.17,-74.4135C1090.04,-62.4783 1120.57,-47.2147 1142.52,-36.2412"/>
<polygon fill="midnightblue" stroke="midnightblue" points="1064.43,-71.37 1057.05,-78.9727 1067.56,-77.631 1064.43,-71.37"/>
</g>
<!-- Node70&#45;&gt;Node58 -->
<g id="edge44" class="edge"><title>Node70&#45;&gt;Node58</title>
<path fill="none" stroke="midnightblue" d="M1097.29,-77.214C1148.82,-65.197 1215.07,-49.4883 1242,-42 1248.52,-40.1862 1255.39,-38.1462 1262.08,-36.0805"/>
<polygon fill="midnightblue" stroke="midnightblue" points="1096.47,-73.811 1087.53,-79.4883 1098.06,-80.6285 1096.47,-73.811"/>
</g>
<!-- Node70&#45;&gt;Node59 -->
<g id="edge45" class="edge"><title>Node70&#45;&gt;Node59</title>
<path fill="none" stroke="midnightblue" d="M1097.52,-78.0222C1218,-57.521 1251.97,-67.7198 1367,-42 1374.28,-40.3724 1381.92,-38.282 1389.28,-36.0686"/>
<polygon fill="midnightblue" stroke="midnightblue" points="1096.8,-74.5963 1087.54,-79.7567 1097.99,-81.4929 1096.8,-74.5963"/>
</g>
<!-- Node70&#45;&gt;Node60 -->
<g id="edge46" class="edge"><title>Node70&#45;&gt;Node60</title>
<path fill="none" stroke="midnightblue" d="M1097.6,-78.0554C1272.98,-51.6764 1321.3,-70.191 1492,-42 1495.22,-41.4687 1498.49,-40.8809 1501.8,-40.2505"/>
<polygon fill="midnightblue" stroke="midnightblue" points="1096.87,-74.6263 1087.52,-79.6003 1097.93,-81.5456 1096.87,-74.6263"/>
</g>
<!-- Node70&#45;&gt;Node62 -->
<g id="edge47" class="edge"><title>Node70&#45;&gt;Node62</title>
<path fill="none" stroke="midnightblue" d="M960.545,-78.0277C840.92,-57.4838 807.669,-65.3006 693,-42 677.933,-38.9385 661.39,-34.4978 647.868,-30.5781"/>
<polygon fill="midnightblue" stroke="midnightblue" points="960.003,-81.4861 970.457,-79.7604 961.209,-74.5907 960.003,-81.4861"/>
</g>
<!-- Node71 -->
<g id="node23" class="node"><title>Node71</title>
<g id="a_node23"><a xlink:href="calibration_2modules_2_t_a_p_s___short_energy_8cc.html" target="_top" xlink:title="src/calibration/modules\l/TAPS_ShortEnergy.cc">
<polygon fill="white" stroke="black" points="418.5,-6 418.5,-36 537.5,-36 537.5,-6 418.5,-6"/>
<text text-anchor="start" x="426.5" y="-24" font-family="Helvetica,sans-Serif" font-size="10.00">src/calibration/modules</text>
<text text-anchor="middle" x="478" y="-13" font-family="Helvetica,sans-Serif" font-size="10.00">/TAPS_ShortEnergy.cc</text>
</a>
</g>
</g>
<!-- Node70&#45;&gt;Node71 -->
<g id="edge39" class="edge"><title>Node70&#45;&gt;Node71</title>
<path fill="none" stroke="midnightblue" d="M960.488,-78.0778C776.639,-50.9375 725.371,-75.2752 547,-42 538.785,-40.4675 530.144,-38.3673 521.863,-36.1014"/>
<polygon fill="midnightblue" stroke="midnightblue" points="960.076,-81.5551 970.486,-79.5847 961.119,-74.6332 960.076,-81.5551"/>
</g>
<!-- Node72&#45;&gt;Node54 -->
<g id="edge50" class="edge"><title>Node72&#45;&gt;Node54</title>
<path fill="none" stroke="midnightblue" d="M1365.42,-78.0925C1125.62,-45.0619 1058.83,-84.6315 825,-42 816.873,-40.5182 808.332,-38.3823 800.191,-36.0524"/>
<polygon fill="midnightblue" stroke="midnightblue" points="1365.11,-81.5822 1375.5,-79.5083 1366.08,-74.6504 1365.11,-81.5822"/>
</g>
<!-- Node72&#45;&gt;Node55 -->
<g id="edge51" class="edge"><title>Node72&#45;&gt;Node55</title>
<path fill="none" stroke="midnightblue" d="M1365.4,-78.0581C1190,-51.7743 1141.24,-72.8295 971,-42 962.337,-40.4311 953.208,-38.3136 944.45,-36.0419"/>
<polygon fill="midnightblue" stroke="midnightblue" points="1365.07,-81.5484 1375.48,-79.6003 1366.13,-74.6289 1365.07,-81.5484"/>
</g>
<!-- Node72&#45;&gt;Node56 -->
<g id="edge52" class="edge"><title>Node72&#45;&gt;Node56</title>
<path fill="none" stroke="midnightblue" d="M1365.25,-77.9805C1246.72,-57.68 1213.33,-66.9275 1100,-42 1092.5,-40.3514 1084.63,-38.2505 1077.04,-36.0335"/>
<polygon fill="midnightblue" stroke="midnightblue" points="1365,-81.4896 1375.46,-79.7641 1366.21,-74.5942 1365,-81.4896"/>
</g>
<!-- Node72&#45;&gt;Node57 -->
<g id="edge53" class="edge"><title>Node72&#45;&gt;Node57</title>
<path fill="none" stroke="midnightblue" d="M1371.14,-76.3842C1333.86,-66.49 1285.71,-53.6337 1243,-42 1235.99,-40.0906 1228.6,-38.0596 1221.34,-36.0515"/>
<polygon fill="midnightblue" stroke="midnightblue" points="1370.29,-79.7814 1380.86,-78.9627 1372.09,-73.0155 1370.29,-79.7814"/>
</g>
<!-- Node72&#45;&gt;Node58 -->
<g id="edge54" class="edge"><title>Node72&#45;&gt;Node58</title>
<path fill="none" stroke="midnightblue" d="M1399.65,-74.0959C1378.05,-62.2085 1350.64,-47.1176 1330.87,-36.2412"/>
<polygon fill="midnightblue" stroke="midnightblue" points="1398.07,-77.2171 1408.51,-78.9727 1401.44,-71.0846 1398.07,-77.2171"/>
</g>
<!-- Node72&#45;&gt;Node59 -->
<g id="edge55" class="edge"><title>Node72&#45;&gt;Node59</title>
<path fill="none" stroke="midnightblue" d="M1432.64,-68.8976C1432.04,-58.1314 1431.34,-45.8005 1430.82,-36.4856"/>
<polygon fill="midnightblue" stroke="midnightblue" points="1429.15,-69.1854 1433.21,-78.9727 1436.14,-68.7916 1429.15,-69.1854"/>
</g>
<!-- Node72&#45;&gt;Node60 -->
<g id="edge56" class="edge"><title>Node72&#45;&gt;Node60</title>
<path fill="none" stroke="midnightblue" d="M1471.01,-74.3643C1491.1,-64.2492 1515.91,-51.7546 1536.26,-41.5075"/>
<polygon fill="midnightblue" stroke="midnightblue" points="1469.21,-71.3491 1461.86,-78.9727 1472.36,-77.6012 1469.21,-71.3491"/>
</g>
<!-- Node72&#45;&gt;Node62 -->
<g id="edge57" class="edge"><title>Node72&#45;&gt;Node62</title>
<path fill="none" stroke="midnightblue" d="M1364.91,-78.0241C1067.36,-38.7639 985.372,-89.3105 693,-42 677.174,-39.4391 659.853,-34.7769 646.056,-30.5977"/>
<polygon fill="midnightblue" stroke="midnightblue" points="1364.76,-81.5347 1375.13,-79.3969 1365.69,-74.597 1364.76,-81.5347"/>
</g>
<!-- Node73 -->
<g id="node25" class="node"><title>Node73</title>
<g id="a_node25"><a xlink:href="calibration_2modules_2_t_a_p_s_veto___energy_8cc.html" target="_top" xlink:title="src/calibration/modules\l/TAPSVeto_Energy.cc">
<polygon fill="white" stroke="black" points="1936.5,-6 1936.5,-36 2053.5,-36 2053.5,-6 1936.5,-6"/>
<text text-anchor="start" x="1944.5" y="-24" font-family="Helvetica,sans-Serif" font-size="10.00">src/calibration/modules</text>
<text text-anchor="middle" x="1995" y="-13" font-family="Helvetica,sans-Serif" font-size="10.00">/TAPSVeto_Energy.cc</text>
</a>
</g>
</g>
<!-- Node72&#45;&gt;Node73 -->
<g id="edge49" class="edge"><title>Node72&#45;&gt;Node73</title>
<path fill="none" stroke="midnightblue" d="M1502.71,-89.8658C1598.51,-84.5971 1777.33,-71.4948 1927,-42 1935.09,-40.406 1943.6,-38.2764 1951.76,-36.0007"/>
<polygon fill="midnightblue" stroke="midnightblue" points="1502.37,-86.3789 1492.57,-90.411 1502.74,-93.3688 1502.37,-86.3789"/>
</g>
<!-- Node74&#45;&gt;Node67 -->
<g id="edge60" class="edge"><title>Node74&#45;&gt;Node67</title>
<path fill="none" stroke="midnightblue" d="M1751.51,-137.308C1757.91,-119.652 1768.42,-95.6459 1783,-78 1797.22,-60.7987 1817.85,-46.1663 1834.18,-36.1769"/>
<polygon fill="midnightblue" stroke="midnightblue" points="1748.16,-136.279 1748.21,-146.874 1754.78,-138.561 1748.16,-136.279"/>
</g>
<!-- Node74&#45;&gt;Node69 -->
<g id="edge61" class="edge"><title>Node74&#45;&gt;Node69</title>
<path fill="none" stroke="midnightblue" d="M1740.69,-136.756C1736.71,-107.641 1730.16,-59.7792 1726.93,-36.1303"/>
<polygon fill="midnightblue" stroke="midnightblue" points="1737.25,-137.473 1742.07,-146.907 1744.19,-136.525 1737.25,-137.473"/>
</g>
<!-- Node74&#45;&gt;Node70 -->
<g id="edge62" class="edge"><title>Node74&#45;&gt;Node70</title>
<path fill="none" stroke="midnightblue" d="M1675.23,-158.707C1556.64,-154.056 1306.27,-141.176 1097,-110 1093.89,-109.537 1090.71,-109.013 1087.51,-108.446"/>
<polygon fill="midnightblue" stroke="midnightblue" points="1675.13,-162.205 1685.26,-159.093 1675.4,-155.211 1675.13,-162.205"/>
</g>
<!-- Node74&#45;&gt;Node73 -->
<g id="edge63" class="edge"><title>Node74&#45;&gt;Node73</title>
<path fill="none" stroke="midnightblue" d="M1812.82,-149.933C1846.15,-142.353 1885.63,-129.939 1917,-110 1947.67,-90.5089 1973.4,-55.5782 1986.23,-36.1017"/>
<polygon fill="midnightblue" stroke="midnightblue" points="1811.73,-146.59 1802.7,-152.133 1813.21,-153.43 1811.73,-146.59"/>
</g>
<!-- Node75 -->
<g id="node27" class="node"><title>Node75</title>
<g id="a_node27"><a xlink:href="_energy___g_u_i_8cc.html" target="_top" xlink:title="src/calibration/modules\l/Energy_GUI.cc">
<polygon fill="white" stroke="black" points="1791.5,-79 1791.5,-109 1908.5,-109 1908.5,-79 1791.5,-79"/>
<text text-anchor="start" x="1799.5" y="-97" font-family="Helvetica,sans-Serif" font-size="10.00">src/calibration/modules</text>
<text text-anchor="middle" x="1850" y="-86" font-family="Helvetica,sans-Serif" font-size="10.00">/Energy_GUI.cc</text>
</a>
</g>
</g>
<!-- Node74&#45;&gt;Node75 -->
<g id="edge59" class="edge"><title>Node74&#45;&gt;Node75</title>
<path fill="none" stroke="midnightblue" d="M1775.58,-141.339C1792.2,-130.986 1812.22,-118.526 1827.3,-109.135"/>
<polygon fill="midnightblue" stroke="midnightblue" points="1773.38,-138.585 1766.74,-146.841 1777.08,-144.527 1773.38,-138.585"/>
</g>
</g>
</svg>
