<?xml version="1.0" encoding="UTF-8" standalone="no"?>
<!DOCTYPE svg PUBLIC "-//W3C//DTD SVG 1.1//EN"
 "http://www.w3.org/Graphics/SVG/1.1/DTD/svg11.dtd">
<!-- Generated by graphviz version 2.36.0 (20140111.2315)
 -->
<!-- Title: src/base/ClippedInterpolatorWrapper.h Pages: 1 -->
<svg width="2710pt" height="254pt"
 viewBox="0.00 0.00 2710.00 254.00" xmlns="http://www.w3.org/2000/svg" xmlns:xlink="http://www.w3.org/1999/xlink">
<g id="graph0" class="graph" transform="scale(1 1) rotate(0) translate(4 250)">
<title>src/base/ClippedInterpolatorWrapper.h</title>
<polygon fill="white" stroke="none" points="-4,4 -4,-250 2706,-250 2706,4 -4,4"/>
<!-- Node14 -->
<g id="node1" class="node"><title>Node14</title>
<polygon fill="#bfbfbf" stroke="black" points="2049.5,-215 2049.5,-245 2188.5,-245 2188.5,-215 2049.5,-215"/>
<text text-anchor="start" x="2057.5" y="-233" font-family="Helvetica,sans-Serif" font-size="10.00">src/base/ClippedInterpolator</text>
<text text-anchor="middle" x="2119" y="-222" font-family="Helvetica,sans-Serif" font-size="10.00">Wrapper.h</text>
</g>
<!-- Node15 -->
<g id="node2" class="node"><title>Node15</title>
<g id="a_node2"><a xlink:href="_interpolated_8h.html" target="_top" xlink:title="src/analysis/utils\l/uncertainties/Interpolated.h">
<polygon fill="white" stroke="black" points="1344.5,-147 1344.5,-177 1481.5,-177 1481.5,-147 1344.5,-147"/>
<text text-anchor="start" x="1352.5" y="-165" font-family="Helvetica,sans-Serif" font-size="10.00">src/analysis/utils</text>
<text text-anchor="middle" x="1413" y="-154" font-family="Helvetica,sans-Serif" font-size="10.00">/uncertainties/Interpolated.h</text>
</a>
</g>
</g>
<!-- Node14&#45;&gt;Node15 -->
<g id="edge1" class="edge"><title>Node14&#45;&gt;Node15</title>
<path fill="none" stroke="midnightblue" d="M2039.16,-221.537C1899.44,-208.475 1612.96,-181.693 1481.59,-169.412"/>
<polygon fill="midnightblue" stroke="midnightblue" points="2039.09,-225.045 2049.37,-222.491 2039.74,-218.075 2039.09,-225.045"/>
</g>
<!-- Node33 -->
<g id="node20" class="node"><title>Node33</title>
<g id="a_node20"><a xlink:href="_interpolated_8cc.html" target="_top" xlink:title="src/analysis/utils\l/uncertainties/Interpolated.cc">
<polygon fill="white" stroke="black" points="2559.5,-74 2559.5,-104 2702.5,-104 2702.5,-74 2559.5,-74"/>
<text text-anchor="start" x="2567.5" y="-92" font-family="Helvetica,sans-Serif" font-size="10.00">src/analysis/utils</text>
<text text-anchor="middle" x="2631" y="-81" font-family="Helvetica,sans-Serif" font-size="10.00">/uncertainties/Interpolated.cc</text>
</a>
</g>
</g>
<!-- Node14&#45;&gt;Node33 -->
<g id="edge21" class="edge"><title>Node14&#45;&gt;Node33</title>
<path fill="none" stroke="midnightblue" d="M2100.08,-206.568C2087,-188.256 2074.5,-162.757 2090,-146 2124.81,-108.361 2499.39,-118.172 2550,-110 2559.58,-108.453 2569.69,-106.346 2579.41,-104.078"/>
<polygon fill="midnightblue" stroke="midnightblue" points="2097.59,-209.071 2106.43,-214.91 2103.16,-204.832 2097.59,-209.071"/>
</g>
<!-- Node35 -->
<g id="node22" class="node"><title>Node35</title>
<g id="a_node22"><a xlink:href="_clipped_interpolator_wrapper_8cc.html" target="_top" xlink:title="src/base/ClippedInterpolator\lWrapper.cc">
<polygon fill="white" stroke="black" points="2098.5,-147 2098.5,-177 2237.5,-177 2237.5,-147 2098.5,-147"/>
<text text-anchor="start" x="2106.5" y="-165" font-family="Helvetica,sans-Serif" font-size="10.00">src/base/ClippedInterpolator</text>
<text text-anchor="middle" x="2168" y="-154" font-family="Helvetica,sans-Serif" font-size="10.00">Wrapper.cc</text>
</a>
</g>
</g>
<!-- Node14&#45;&gt;Node35 -->
<g id="edge22" class="edge"><title>Node14&#45;&gt;Node35</title>
<path fill="none" stroke="midnightblue" d="M2135.62,-206.608C2142.82,-196.912 2151.04,-185.85 2157.39,-177.293"/>
<polygon fill="midnightblue" stroke="midnightblue" points="2132.78,-204.563 2129.63,-214.679 2138.4,-208.736 2132.78,-204.563"/>
</g>
<!-- Node36 -->
<g id="node23" class="node"><title>Node36</title>
<g id="a_node23"><a xlink:href="_cluster_correction_8cc.html" target="_top" xlink:title="src/calibration/modules\l/ClusterCorrection.cc">
<polygon fill="white" stroke="black" points="2255.5,-147 2255.5,-177 2372.5,-177 2372.5,-147 2255.5,-147"/>
<text text-anchor="start" x="2263.5" y="-165" font-family="Helvetica,sans-Serif" font-size="10.00">src/calibration/modules</text>
<text text-anchor="middle" x="2314" y="-154" font-family="Helvetica,sans-Serif" font-size="10.00">/ClusterCorrection.cc</text>
</a>
</g>
</g>
<!-- Node14&#45;&gt;Node36 -->
<g id="edge23" class="edge"><title>Node14&#45;&gt;Node36</title>
<path fill="none" stroke="midnightblue" d="M2170.43,-211.592C2202.32,-200.798 2242.75,-187.116 2272.57,-177.022"/>
<polygon fill="midnightblue" stroke="midnightblue" points="2169.18,-208.32 2160.83,-214.841 2171.43,-214.951 2169.18,-208.32"/>
</g>
<!-- Node16 -->
<g id="node3" class="node"><title>Node16</title>
<g id="a_node3"><a xlink:href="_p_i_d___t_a_p_s_veto___kinfit_8cc.html" target="_top" xlink:title="src/analysis/physics\l/calibration/PID_TAPSVeto\l_Kinfit.cc">
<polygon fill="white" stroke="black" points="0,-68.5 0,-109.5 136,-109.5 136,-68.5 0,-68.5"/>
<text text-anchor="start" x="8" y="-97.5" font-family="Helvetica,sans-Serif" font-size="10.00">src/analysis/physics</text>
<text text-anchor="start" x="8" y="-86.5" font-family="Helvetica,sans-Serif" font-size="10.00">/calibration/PID_TAPSVeto</text>
<text text-anchor="middle" x="68" y="-75.5" font-family="Helvetica,sans-Serif" font-size="10.00">_Kinfit.cc</text>
</a>
</g>
</g>
<!-- Node15&#45;&gt;Node16 -->
<g id="edge2" class="edge"><title>Node15&#45;&gt;Node16</title>
<path fill="none" stroke="midnightblue" d="M1334.24,-160.037C1094.53,-156.756 376.098,-144.256 145,-110 142.131,-109.575 139.214,-109.085 136.278,-108.543"/>
<polygon fill="midnightblue" stroke="midnightblue" points="1334.23,-163.537 1344.27,-160.172 1334.32,-156.537 1334.23,-163.537"/>
</g>
<!-- Node17 -->
<g id="node4" class="node"><title>Node17</title>
<g id="a_node4"><a xlink:href="_kin_fit_i_m_check_8cc.html" target="_top" xlink:title="src/analysis/physics\l/check/KinFitIMCheck.cc">
<polygon fill="white" stroke="black" points="154,-74 154,-104 282,-104 282,-74 154,-74"/>
<text text-anchor="start" x="162" y="-92" font-family="Helvetica,sans-Serif" font-size="10.00">src/analysis/physics</text>
<text text-anchor="middle" x="218" y="-81" font-family="Helvetica,sans-Serif" font-size="10.00">/check/KinFitIMCheck.cc</text>
</a>
</g>
</g>
<!-- Node15&#45;&gt;Node17 -->
<g id="edge3" class="edge"><title>Node15&#45;&gt;Node17</title>
<path fill="none" stroke="midnightblue" d="M1333.96,-159.687C1113.08,-155.656 492.334,-141.751 291,-110 281.914,-108.567 272.339,-106.422 263.221,-104.062"/>
<polygon fill="midnightblue" stroke="midnightblue" points="1334.11,-163.19 1344.18,-159.872 1334.24,-156.192 1334.11,-163.19"/>
</g>
<!-- Node18 -->
<g id="node5" class="node"><title>Node18</title>
<g id="a_node5"><a xlink:href="_p_i_d_efficiency_check_8cc.html" target="_top" xlink:title="src/analysis/physics\l/check/PIDEfficiencyCheck.cc">
<polygon fill="white" stroke="black" points="300,-74 300,-104 452,-104 452,-74 300,-74"/>
<text text-anchor="start" x="308" y="-92" font-family="Helvetica,sans-Serif" font-size="10.00">src/analysis/physics</text>
<text text-anchor="middle" x="376" y="-81" font-family="Helvetica,sans-Serif" font-size="10.00">/check/PIDEfficiencyCheck.cc</text>
</a>
</g>
</g>
<!-- Node15&#45;&gt;Node18 -->
<g id="edge4" class="edge"><title>Node15&#45;&gt;Node18</title>
<path fill="none" stroke="midnightblue" d="M1334.03,-161.491C1170.34,-161.473 782.445,-156.055 461,-110 450.645,-108.516 439.698,-106.38 429.229,-104.05"/>
<polygon fill="midnightblue" stroke="midnightblue" points="1334.49,-164.991 1344.49,-161.485 1334.48,-157.991 1334.49,-164.991"/>
</g>
<!-- Node19 -->
<g id="node6" class="node"><title>Node19</title>
<g id="a_node6"><a xlink:href="_three_photon_check_8cc.html" target="_top" xlink:title="src/analysis/physics\l/check/ThreePhotonCheck.cc">
<polygon fill="white" stroke="black" points="470,-74 470,-104 616,-104 616,-74 470,-74"/>
<text text-anchor="start" x="478" y="-92" font-family="Helvetica,sans-Serif" font-size="10.00">src/analysis/physics</text>
<text text-anchor="middle" x="543" y="-81" font-family="Helvetica,sans-Serif" font-size="10.00">/check/ThreePhotonCheck.cc</text>
</a>
</g>
</g>
<!-- Node15&#45;&gt;Node19 -->
<g id="edge5" class="edge"><title>Node15&#45;&gt;Node19</title>
<path fill="none" stroke="midnightblue" d="M1333.93,-160.435C1191.41,-158.408 882.302,-149.396 625,-110 615.15,-108.492 604.748,-106.374 594.781,-104.076"/>
<polygon fill="midnightblue" stroke="midnightblue" points="1334.27,-163.94 1344.32,-160.575 1334.37,-156.941 1334.27,-163.94"/>
</g>
<!-- Node20 -->
<g id="node7" class="node"><title>Node20</title>
<g id="a_node7"><a xlink:href="_etap_omega_g_8cc.html" target="_top" xlink:title="src/analysis/physics\l/etaprime/EtapOmegaG.cc">
<polygon fill="white" stroke="black" points="634.5,-74 634.5,-104 767.5,-104 767.5,-74 634.5,-74"/>
<text text-anchor="start" x="642.5" y="-92" font-family="Helvetica,sans-Serif" font-size="10.00">src/analysis/physics</text>
<text text-anchor="middle" x="701" y="-81" font-family="Helvetica,sans-Serif" font-size="10.00">/etaprime/EtapOmegaG.cc</text>
</a>
</g>
</g>
<!-- Node15&#45;&gt;Node20 -->
<g id="edge6" class="edge"><title>Node15&#45;&gt;Node20</title>
<path fill="none" stroke="midnightblue" d="M1333.87,-159.252C1212.87,-155.548 974.941,-144.2 776,-110 766.969,-108.447 757.444,-106.309 748.324,-104.004"/>
<polygon fill="midnightblue" stroke="midnightblue" points="1334.05,-162.758 1344.15,-159.556 1334.26,-155.762 1334.05,-162.758"/>
</g>
<!-- Node21 -->
<g id="node8" class="node"><title>Node21</title>
<g id="a_node8"><a xlink:href="_etap_omega_g__simple_8cc.html" target="_top" xlink:title="src/analysis/physics\l/etaprime/EtapOmegaG\l_simple.cc">
<polygon fill="white" stroke="black" points="785.5,-68.5 785.5,-109.5 904.5,-109.5 904.5,-68.5 785.5,-68.5"/>
<text text-anchor="start" x="793.5" y="-97.5" font-family="Helvetica,sans-Serif" font-size="10.00">src/analysis/physics</text>
<text text-anchor="start" x="793.5" y="-86.5" font-family="Helvetica,sans-Serif" font-size="10.00">/etaprime/EtapOmegaG</text>
<text text-anchor="middle" x="845" y="-75.5" font-family="Helvetica,sans-Serif" font-size="10.00">_simple.cc</text>
</a>
</g>
</g>
<!-- Node15&#45;&gt;Node21 -->
<g id="edge7" class="edge"><title>Node15&#45;&gt;Node21</title>
<path fill="none" stroke="midnightblue" d="M1334.01,-157.33C1235.08,-151.728 1060.75,-138.526 914,-110 910.939,-109.405 907.818,-108.736 904.678,-108.012"/>
<polygon fill="midnightblue" stroke="midnightblue" points="1334.05,-160.837 1344.23,-157.897 1334.43,-153.848 1334.05,-160.837"/>
</g>
<!-- Node22 -->
<g id="node9" class="node"><title>Node22</title>
<g id="a_node9"><a xlink:href="etaprime__dalitz_8cc.html" target="_top" xlink:title="src/analysis/physics\l/etaprime/etaprime_dalitz.cc">
<polygon fill="white" stroke="black" points="923,-74 923,-104 1063,-104 1063,-74 923,-74"/>
<text text-anchor="start" x="931" y="-92" font-family="Helvetica,sans-Serif" font-size="10.00">src/analysis/physics</text>
<text text-anchor="middle" x="993" y="-81" font-family="Helvetica,sans-Serif" font-size="10.00">/etaprime/etaprime_dalitz.cc</text>
</a>
</g>
</g>
<!-- Node15&#45;&gt;Node22 -->
<g id="edge8" class="edge"><title>Node15&#45;&gt;Node22</title>
<path fill="none" stroke="midnightblue" d="M1334.42,-151.505C1265.05,-142.587 1161.36,-127.947 1072,-110 1063.4,-108.273 1054.33,-106.209 1045.53,-104.073"/>
<polygon fill="midnightblue" stroke="midnightblue" points="1334.03,-154.984 1344.4,-152.779 1334.92,-148.04 1334.03,-154.984"/>
</g>
<!-- Node23 -->
<g id="node10" class="node"><title>Node23</title>
<g id="a_node10"><a xlink:href="_omega___eta_g_8cc.html" target="_top" xlink:title="src/analysis/physics\l/omega/Omega_EtaG.cc">
<polygon fill="white" stroke="black" points="1081.5,-74 1081.5,-104 1206.5,-104 1206.5,-74 1081.5,-74"/>
<text text-anchor="start" x="1089.5" y="-92" font-family="Helvetica,sans-Serif" font-size="10.00">src/analysis/physics</text>
<text text-anchor="middle" x="1144" y="-81" font-family="Helvetica,sans-Serif" font-size="10.00">/omega/Omega_EtaG.cc</text>
</a>
</g>
</g>
<!-- Node15&#45;&gt;Node23 -->
<g id="edge9" class="edge"><title>Node15&#45;&gt;Node23</title>
<path fill="none" stroke="midnightblue" d="M1347.72,-144.408C1309.32,-134.571 1259.85,-121.766 1216,-110 1208.98,-108.117 1201.59,-106.101 1194.32,-104.1"/>
<polygon fill="midnightblue" stroke="midnightblue" points="1347.18,-147.882 1357.74,-146.97 1348.92,-141.101 1347.18,-147.882"/>
</g>
<!-- Node24 -->
<g id="node11" class="node"><title>Node24</title>
<g id="a_node11"><a xlink:href="_just_pi0_8cc.html" target="_top" xlink:title="src/analysis/physics\l/pi0/JustPi0.cc">
<polygon fill="white" stroke="black" points="1225,-74 1225,-104 1331,-104 1331,-74 1225,-74"/>
<text text-anchor="start" x="1233" y="-92" font-family="Helvetica,sans-Serif" font-size="10.00">src/analysis/physics</text>
<text text-anchor="middle" x="1278" y="-81" font-family="Helvetica,sans-Serif" font-size="10.00">/pi0/JustPi0.cc</text>
</a>
</g>
</g>
<!-- Node15&#45;&gt;Node24 -->
<g id="edge10" class="edge"><title>Node15&#45;&gt;Node24</title>
<path fill="none" stroke="midnightblue" d="M1377.36,-142.255C1354.71,-130.343 1325.85,-115.166 1305.08,-104.241"/>
<polygon fill="midnightblue" stroke="midnightblue" points="1375.85,-145.416 1386.33,-146.973 1379.11,-139.22 1375.85,-145.416"/>
</g>
<!-- Node25 -->
<g id="node12" class="node"><title>Node25</title>
<g id="a_node12"><a xlink:href="sigma_plus_8cc.html" target="_top" xlink:title="src/analysis/physics\l/production/sigmaPlus.cc">
<polygon fill="white" stroke="black" points="1349.5,-74 1349.5,-104 1476.5,-104 1476.5,-74 1349.5,-74"/>
<text text-anchor="start" x="1357.5" y="-92" font-family="Helvetica,sans-Serif" font-size="10.00">src/analysis/physics</text>
<text text-anchor="middle" x="1413" y="-81" font-family="Helvetica,sans-Serif" font-size="10.00">/production/sigmaPlus.cc</text>
</a>
</g>
</g>
<!-- Node15&#45;&gt;Node25 -->
<g id="edge11" class="edge"><title>Node15&#45;&gt;Node25</title>
<path fill="none" stroke="midnightblue" d="M1413,-136.898C1413,-126.131 1413,-113.801 1413,-104.486"/>
<polygon fill="midnightblue" stroke="midnightblue" points="1409.5,-136.973 1413,-146.973 1416.5,-136.973 1409.5,-136.973"/>
</g>
<!-- Node26 -->
<g id="node13" class="node"><title>Node26</title>
<g id="a_node13"><a xlink:href="single_pi0_8cc.html" target="_top" xlink:title="src/analysis/physics\l/production/singlePi0.cc">
<polygon fill="white" stroke="black" points="1494.5,-74 1494.5,-104 1615.5,-104 1615.5,-74 1494.5,-74"/>
<text text-anchor="start" x="1502.5" y="-92" font-family="Helvetica,sans-Serif" font-size="10.00">src/analysis/physics</text>
<text text-anchor="middle" x="1555" y="-81" font-family="Helvetica,sans-Serif" font-size="10.00">/production/singlePi0.cc</text>
</a>
</g>
</g>
<!-- Node15&#45;&gt;Node26 -->
<g id="edge12" class="edge"><title>Node15&#45;&gt;Node26</title>
<path fill="none" stroke="midnightblue" d="M1450.17,-142.414C1474.04,-130.478 1504.57,-115.215 1526.52,-104.241"/>
<polygon fill="midnightblue" stroke="midnightblue" points="1448.43,-139.37 1441.05,-146.973 1451.56,-145.631 1448.43,-139.37"/>
</g>
<!-- Node27 -->
<g id="node14" class="node"><title>Node27</title>
<g id="a_node14"><a xlink:href="triple_pi0_8cc.html" target="_top" xlink:title="src/analysis/physics\l/production/triplePi0.cc">
<polygon fill="white" stroke="black" points="1634,-74 1634,-104 1750,-104 1750,-74 1634,-74"/>
<text text-anchor="start" x="1642" y="-92" font-family="Helvetica,sans-Serif" font-size="10.00">src/analysis/physics</text>
<text text-anchor="middle" x="1692" y="-81" font-family="Helvetica,sans-Serif" font-size="10.00">/production/triplePi0.cc</text>
</a>
</g>
</g>
<!-- Node15&#45;&gt;Node27 -->
<g id="edge13" class="edge"><title>Node15&#45;&gt;Node27</title>
<path fill="none" stroke="midnightblue" d="M1484.49,-144.637C1525.45,-135.032 1577.76,-122.381 1624,-110 1630.89,-108.154 1638.16,-106.118 1645.26,-104.073"/>
<polygon fill="midnightblue" stroke="midnightblue" points="1483.54,-141.264 1474.6,-146.949 1485.13,-148.081 1483.54,-141.264"/>
</g>
<!-- Node28 -->
<g id="node15" class="node"><title>Node28</title>
<g id="a_node15"><a xlink:href="_proton_vertex_test_8cc.html" target="_top" xlink:title="src/analysis/physics\l/scratch/wolfes/ProtonVertex\lTest.cc">
<polygon fill="white" stroke="black" points="1768.5,-68.5 1768.5,-109.5 1911.5,-109.5 1911.5,-68.5 1768.5,-68.5"/>
<text text-anchor="start" x="1776.5" y="-97.5" font-family="Helvetica,sans-Serif" font-size="10.00">src/analysis/physics</text>
<text text-anchor="start" x="1776.5" y="-86.5" font-family="Helvetica,sans-Serif" font-size="10.00">/scratch/wolfes/ProtonVertex</text>
<text text-anchor="middle" x="1840" y="-75.5" font-family="Helvetica,sans-Serif" font-size="10.00">Test.cc</text>
</a>
</g>
</g>
<!-- Node15&#45;&gt;Node28 -->
<g id="edge14" class="edge"><title>Node15&#45;&gt;Node28</title>
<path fill="none" stroke="midnightblue" d="M1491.81,-151.458C1561.97,-142.464 1667.24,-127.737 1758,-110 1761.31,-109.354 1764.68,-108.662 1768.09,-107.938"/>
<polygon fill="midnightblue" stroke="midnightblue" points="1491.2,-148.008 1481.72,-152.743 1492.08,-154.952 1491.2,-148.008"/>
</g>
<!-- Node29 -->
<g id="node16" class="node"><title>Node29</title>
<g id="a_node16"><a xlink:href="_test_sigma_plus_fitter_8cc.html" target="_top" xlink:title="src/analysis/physics\l/test/TestSigmaPlusFitter.cc">
<polygon fill="white" stroke="black" points="1930,-74 1930,-104 2072,-104 2072,-74 1930,-74"/>
<text text-anchor="start" x="1938" y="-92" font-family="Helvetica,sans-Serif" font-size="10.00">src/analysis/physics</text>
<text text-anchor="middle" x="2001" y="-81" font-family="Helvetica,sans-Serif" font-size="10.00">/test/TestSigmaPlusFitter.cc</text>
</a>
</g>
</g>
<!-- Node15&#45;&gt;Node29 -->
<g id="edge15" class="edge"><title>Node15&#45;&gt;Node29</title>
<path fill="none" stroke="midnightblue" d="M1491.93,-156.539C1592.05,-150.085 1769.77,-135.967 1920,-110 1929.42,-108.372 1939.37,-106.254 1948.94,-104.007"/>
<polygon fill="midnightblue" stroke="midnightblue" points="1491.65,-153.05 1481.89,-157.177 1492.09,-160.036 1491.65,-153.05"/>
</g>
<!-- Node30 -->
<g id="node17" class="node"><title>Node30</title>
<g id="a_node17"><a xlink:href="analysis_2physics_2tunings_2_interpolated_pulls_8h.html" target="_top" xlink:title="src/analysis/physics\l/tunings/InterpolatedPulls.h">
<polygon fill="white" stroke="black" points="2090.5,-74 2090.5,-104 2225.5,-104 2225.5,-74 2090.5,-74"/>
<text text-anchor="start" x="2098.5" y="-92" font-family="Helvetica,sans-Serif" font-size="10.00">src/analysis/physics</text>
<text text-anchor="middle" x="2158" y="-81" font-family="Helvetica,sans-Serif" font-size="10.00">/tunings/InterpolatedPulls.h</text>
</a>
</g>
</g>
<!-- Node15&#45;&gt;Node30 -->
<g id="edge16" class="edge"><title>Node15&#45;&gt;Node30</title>
<path fill="none" stroke="midnightblue" d="M1492.05,-159.507C1617.63,-156.119 1870.1,-145.154 2081,-110 2090.26,-108.456 2100.04,-106.321 2109.4,-104.018"/>
<polygon fill="midnightblue" stroke="midnightblue" points="1491.67,-156.016 1481.76,-159.775 1491.85,-163.013 1491.67,-156.016"/>
</g>
<!-- Node32 -->
<g id="node19" class="node"><title>Node32</title>
<g id="a_node19"><a xlink:href="physics_2tunings_2_trigger_simulation_8cc.html" target="_top" xlink:title="src/analysis/physics\l/tunings/TriggerSimulation.cc">
<polygon fill="white" stroke="black" points="2243.5,-74 2243.5,-104 2386.5,-104 2386.5,-74 2243.5,-74"/>
<text text-anchor="start" x="2251.5" y="-92" font-family="Helvetica,sans-Serif" font-size="10.00">src/analysis/physics</text>
<text text-anchor="middle" x="2315" y="-81" font-family="Helvetica,sans-Serif" font-size="10.00">/tunings/TriggerSimulation.cc</text>
</a>
</g>
</g>
<!-- Node15&#45;&gt;Node32 -->
<g id="edge18" class="edge"><title>Node15&#45;&gt;Node32</title>
<path fill="none" stroke="midnightblue" d="M1491.82,-160.806C1638.69,-159.404 1963.81,-151.404 2234,-110 2243.88,-108.486 2254.32,-106.335 2264.3,-104.001"/>
<polygon fill="midnightblue" stroke="midnightblue" points="1491.53,-157.308 1481.56,-160.896 1491.59,-164.308 1491.53,-157.308"/>
</g>
<!-- Node15&#45;&gt;Node33 -->
<g id="edge19" class="edge"><title>Node15&#45;&gt;Node33</title>
<path fill="none" stroke="midnightblue" d="M1491.87,-159.487C1714.56,-154.894 2345.22,-139.579 2550,-110 2560.04,-108.551 2570.64,-106.398 2580.75,-104.036"/>
<polygon fill="midnightblue" stroke="midnightblue" points="1491.51,-155.994 1481.58,-159.698 1491.65,-162.992 1491.51,-155.994"/>
</g>
<!-- Node34 -->
<g id="node21" class="node"><title>Node34</title>
<g id="a_node21"><a xlink:href="root-addons_2analysis__codes_2_interpolated_pulls_8cc.html" target="_top" xlink:title="src/root&#45;addons/analysis\l_codes/InterpolatedPulls.cc">
<polygon fill="white" stroke="black" points="2404.5,-74 2404.5,-104 2541.5,-104 2541.5,-74 2404.5,-74"/>
<text text-anchor="start" x="2412.5" y="-92" font-family="Helvetica,sans-Serif" font-size="10.00">src/root&#45;addons/analysis</text>
<text text-anchor="middle" x="2473" y="-81" font-family="Helvetica,sans-Serif" font-size="10.00">_codes/InterpolatedPulls.cc</text>
</a>
</g>
</g>
<!-- Node15&#45;&gt;Node34 -->
<g id="edge20" class="edge"><title>Node15&#45;&gt;Node34</title>
<path fill="none" stroke="midnightblue" d="M1491.81,-158.933C1692.91,-153.333 2221.45,-136.486 2395,-110 2404.54,-108.545 2414.6,-106.421 2424.21,-104.095"/>
<polygon fill="midnightblue" stroke="midnightblue" points="1491.52,-155.439 1481.62,-159.215 1491.71,-162.437 1491.52,-155.439"/>
</g>
<!-- Node31 -->
<g id="node18" class="node"><title>Node31</title>
<g id="a_node18"><a xlink:href="analysis_2physics_2tunings_2_interpolated_pulls_8cc.html" target="_top" xlink:title="src/analysis/physics\l/tunings/InterpolatedPulls.cc">
<polygon fill="white" stroke="black" points="2088,-1 2088,-31 2228,-31 2228,-1 2088,-1"/>
<text text-anchor="start" x="2096" y="-19" font-family="Helvetica,sans-Serif" font-size="10.00">src/analysis/physics</text>
<text text-anchor="middle" x="2158" y="-8" font-family="Helvetica,sans-Serif" font-size="10.00">/tunings/InterpolatedPulls.cc</text>
</a>
</g>
</g>
<!-- Node30&#45;&gt;Node31 -->
<g id="edge17" class="edge"><title>Node30&#45;&gt;Node31</title>
<path fill="none" stroke="midnightblue" d="M2158,-63.8976C2158,-53.1314 2158,-40.8005 2158,-31.4856"/>
<polygon fill="midnightblue" stroke="midnightblue" points="2154.5,-63.9727 2158,-73.9727 2161.5,-63.9727 2154.5,-63.9727"/>
</g>
</g>
</svg>
