<?xml version="1.0" encoding="UTF-8" standalone="no"?>
<!DOCTYPE svg PUBLIC "-//W3C//DTD SVG 1.1//EN"
 "http://www.w3.org/Graphics/SVG/1.1/DTD/svg11.dtd">
<!-- Generated by graphviz version 2.36.0 (20140111.2315)
 -->
<!-- Title: src/analysis/utils/ClusterTools.h Pages: 1 -->
<svg width="1042pt" height="186pt"
 viewBox="0.00 0.00 1042.00 186.00" xmlns="http://www.w3.org/2000/svg" xmlns:xlink="http://www.w3.org/1999/xlink">
<g id="graph0" class="graph" transform="scale(1 1) rotate(0) translate(4 182)">
<title>src/analysis/utils/ClusterTools.h</title>
<polygon fill="white" stroke="none" points="-4,4 -4,-182 1038,-182 1038,4 -4,4"/>
<!-- Node17 -->
<g id="node1" class="node"><title>Node17</title>
<polygon fill="#bfbfbf" stroke="black" points="455,-147 455,-177 545,-177 545,-147 455,-147"/>
<text text-anchor="start" x="463" y="-165" font-family="Helvetica,sans-Serif" font-size="10.00">src/analysis/utils</text>
<text text-anchor="middle" x="500" y="-154" font-family="Helvetica,sans-Serif" font-size="10.00">/ClusterTools.h</text>
</g>
<!-- Node18 -->
<g id="node2" class="node"><title>Node18</title>
<g id="a_node2"><a xlink:href="_candidates_analysis_8h.html" target="_top" xlink:title="src/analysis/physics\l/common/CandidatesAnalysis.h">
<polygon fill="white" stroke="black" points="29.5,-79 29.5,-109 184.5,-109 184.5,-79 29.5,-79"/>
<text text-anchor="start" x="37.5" y="-97" font-family="Helvetica,sans-Serif" font-size="10.00">src/analysis/physics</text>
<text text-anchor="middle" x="107" y="-86" font-family="Helvetica,sans-Serif" font-size="10.00">/common/CandidatesAnalysis.h</text>
</a>
</g>
</g>
<!-- Node17&#45;&gt;Node18 -->
<g id="edge1" class="edge"><title>Node17&#45;&gt;Node18</title>
<path fill="none" stroke="midnightblue" d="M444.859,-151.74C377.018,-140.346 261.415,-120.932 184.622,-108.036"/>
<polygon fill="midnightblue" stroke="midnightblue" points="444.476,-155.224 454.918,-153.429 445.636,-148.321 444.476,-155.224"/>
</g>
<!-- Node19 -->
<g id="node3" class="node"><title>Node19</title>
<g id="a_node3"><a xlink:href="_candidates_analysis_8cc.html" target="_top" xlink:title="src/analysis/physics\l/common/CandidatesAnalysis.cc">
<polygon fill="white" stroke="black" points="-0.5,-6 -0.5,-36 160.5,-36 160.5,-6 -0.5,-6"/>
<text text-anchor="start" x="7.5" y="-24" font-family="Helvetica,sans-Serif" font-size="10.00">src/analysis/physics</text>
<text text-anchor="middle" x="80" y="-13" font-family="Helvetica,sans-Serif" font-size="10.00">/common/CandidatesAnalysis.cc</text>
</a>
</g>
</g>
<!-- Node17&#45;&gt;Node19 -->
<g id="edge3" class="edge"><title>Node17&#45;&gt;Node19</title>
<path fill="none" stroke="midnightblue" d="M444.708,-145.126C411.362,-135.376 368.101,-122.413 330,-110 254.532,-85.4123 167.258,-54.0045 118.354,-36.1316"/>
<polygon fill="midnightblue" stroke="midnightblue" points="444.142,-148.607 454.721,-148.045 446.1,-141.886 444.142,-148.607"/>
</g>
<!-- Node20 -->
<g id="node4" class="node"><title>Node20</title>
<g id="a_node4"><a xlink:href="_meson_dalitz_decays_8h.html" target="_top" xlink:title="src/analysis/physics\l/common/MesonDalitzDecays.h">
<polygon fill="white" stroke="black" points="339.5,-79 339.5,-109 496.5,-109 496.5,-79 339.5,-79"/>
<text text-anchor="start" x="347.5" y="-97" font-family="Helvetica,sans-Serif" font-size="10.00">src/analysis/physics</text>
<text text-anchor="middle" x="418" y="-86" font-family="Helvetica,sans-Serif" font-size="10.00">/common/MesonDalitzDecays.h</text>
</a>
</g>
</g>
<!-- Node17&#45;&gt;Node20 -->
<g id="edge4" class="edge"><title>Node17&#45;&gt;Node20</title>
<path fill="none" stroke="midnightblue" d="M474.294,-140.309C461.662,-130.143 446.77,-118.156 435.476,-109.066"/>
<polygon fill="midnightblue" stroke="midnightblue" points="472.223,-143.135 482.207,-146.679 476.612,-137.682 472.223,-143.135"/>
</g>
<!-- Node23 -->
<g id="node7" class="node"><title>Node23</title>
<g id="a_node7"><a xlink:href="etaprime__dalitz_8h.html" target="_top" xlink:title="src/analysis/physics\l/etaprime/etaprime_dalitz.h">
<polygon fill="white" stroke="black" points="515,-79 515,-109 649,-109 649,-79 515,-79"/>
<text text-anchor="start" x="523" y="-97" font-family="Helvetica,sans-Serif" font-size="10.00">src/analysis/physics</text>
<text text-anchor="middle" x="582" y="-86" font-family="Helvetica,sans-Serif" font-size="10.00">/etaprime/etaprime_dalitz.h</text>
</a>
</g>
</g>
<!-- Node17&#45;&gt;Node23 -->
<g id="edge7" class="edge"><title>Node17&#45;&gt;Node23</title>
<path fill="none" stroke="midnightblue" d="M525.706,-140.309C538.338,-130.143 553.23,-118.156 564.524,-109.066"/>
<polygon fill="midnightblue" stroke="midnightblue" points="523.388,-137.682 517.793,-146.679 527.777,-143.135 523.388,-137.682"/>
</g>
<!-- Node27 -->
<g id="node11" class="node"><title>Node27</title>
<g id="a_node11"><a xlink:href="_omega___ep_em_8h.html" target="_top" xlink:title="src/analysis/physics\l/omega/Omega_EpEm.h">
<polygon fill="white" stroke="black" points="667,-79 667,-109 791,-109 791,-79 667,-79"/>
<text text-anchor="start" x="675" y="-97" font-family="Helvetica,sans-Serif" font-size="10.00">src/analysis/physics</text>
<text text-anchor="middle" x="729" y="-86" font-family="Helvetica,sans-Serif" font-size="10.00">/omega/Omega_EpEm.h</text>
</a>
</g>
</g>
<!-- Node17&#45;&gt;Node27 -->
<g id="edge11" class="edge"><title>Node17&#45;&gt;Node27</title>
<path fill="none" stroke="midnightblue" d="M555.162,-145.102C593.315,-134.106 643.616,-119.609 680.288,-109.039"/>
<polygon fill="midnightblue" stroke="midnightblue" points="553.883,-141.828 545.243,-147.961 555.821,-148.554 553.883,-141.828"/>
</g>
<!-- Node29 -->
<g id="node13" class="node"><title>Node29</title>
<g id="a_node13"><a xlink:href="_cluster_tools_8cc.html" target="_top" xlink:title="src/analysis/utils\l/ClusterTools.cc">
<polygon fill="white" stroke="black" points="809,-79 809,-109 899,-109 899,-79 809,-79"/>
<text text-anchor="start" x="817" y="-97" font-family="Helvetica,sans-Serif" font-size="10.00">src/analysis/utils</text>
<text text-anchor="middle" x="854" y="-86" font-family="Helvetica,sans-Serif" font-size="10.00">/ClusterTools.cc</text>
</a>
</g>
</g>
<!-- Node17&#45;&gt;Node29 -->
<g id="edge13" class="edge"><title>Node17&#45;&gt;Node29</title>
<path fill="none" stroke="midnightblue" d="M555.148,-153.238C615.382,-144.378 714.547,-128.672 799,-110 802.189,-109.295 805.47,-108.522 808.766,-107.711"/>
<polygon fill="midnightblue" stroke="midnightblue" points="554.484,-149.798 545.095,-154.706 555.496,-156.724 554.484,-149.798"/>
</g>
<!-- Node18&#45;&gt;Node19 -->
<g id="edge2" class="edge"><title>Node18&#45;&gt;Node19</title>
<path fill="none" stroke="midnightblue" d="M98.0894,-69.5684C93.936,-58.6465 89.1247,-45.9946 85.5086,-36.4856"/>
<polygon fill="midnightblue" stroke="midnightblue" points="94.8397,-70.8698 101.666,-78.9727 101.383,-68.3816 94.8397,-70.8698"/>
</g>
<!-- Node21 -->
<g id="node5" class="node"><title>Node21</title>
<g id="a_node5"><a xlink:href="_meson_dalitz_decays_8cc.html" target="_top" xlink:title="Physics class to investigate Dalitz decays for different mesons. ">
<polygon fill="white" stroke="black" points="179,-6 179,-36 341,-36 341,-6 179,-6"/>
<text text-anchor="start" x="187" y="-24" font-family="Helvetica,sans-Serif" font-size="10.00">src/analysis/physics</text>
<text text-anchor="middle" x="260" y="-13" font-family="Helvetica,sans-Serif" font-size="10.00">/common/MesonDalitzDecays.cc</text>
</a>
</g>
</g>
<!-- Node20&#45;&gt;Node21 -->
<g id="edge5" class="edge"><title>Node20&#45;&gt;Node21</title>
<path fill="none" stroke="midnightblue" d="M377.661,-74.8732C350.858,-62.8285 316.174,-47.2426 291.421,-36.1195"/>
<polygon fill="midnightblue" stroke="midnightblue" points="376.228,-78.0663 386.784,-78.9727 379.098,-71.6813 376.228,-78.0663"/>
</g>
<!-- Node22 -->
<g id="node6" class="node"><title>Node22</title>
<g id="a_node6"><a xlink:href="_meson_dalitz_decays__plot_8cc.html" target="_top" xlink:title="src/analysis/physics\l/common/MesonDalitzDecays\l_plot.cc">
<polygon fill="white" stroke="black" points="359.5,-0.5 359.5,-41.5 508.5,-41.5 508.5,-0.5 359.5,-0.5"/>
<text text-anchor="start" x="367.5" y="-29.5" font-family="Helvetica,sans-Serif" font-size="10.00">src/analysis/physics</text>
<text text-anchor="start" x="367.5" y="-18.5" font-family="Helvetica,sans-Serif" font-size="10.00">/common/MesonDalitzDecays</text>
<text text-anchor="middle" x="434" y="-7.5" font-family="Helvetica,sans-Serif" font-size="10.00">_plot.cc</text>
</a>
</g>
</g>
<!-- Node20&#45;&gt;Node22 -->
<g id="edge6" class="edge"><title>Node20&#45;&gt;Node22</title>
<path fill="none" stroke="midnightblue" d="M423.376,-69.1453C425.39,-60.2054 427.655,-50.1575 429.574,-41.642"/>
<polygon fill="midnightblue" stroke="midnightblue" points="419.945,-68.4479 421.161,-78.9727 426.774,-69.9868 419.945,-68.4479"/>
</g>
<!-- Node24 -->
<g id="node8" class="node"><title>Node24</title>
<g id="a_node8"><a xlink:href="_p_c_a_8cc.html" target="_top" xlink:title="Tool to perform a Principal Component Analysis, based on ROOTs TPrincipal class, to create principal ...">
<polygon fill="white" stroke="black" points="527,-11.5 527,-30.5 605,-30.5 605,-11.5 527,-11.5"/>
<text text-anchor="middle" x="566" y="-18.5" font-family="Helvetica,sans-Serif" font-size="10.00">progs/PCA.cc</text>
</a>
</g>
</g>
<!-- Node23&#45;&gt;Node24 -->
<g id="edge8" class="edge"><title>Node23&#45;&gt;Node24</title>
<path fill="none" stroke="midnightblue" d="M576.597,-69.0259C573.612,-55.7769 570.085,-40.1252 567.946,-30.6372"/>
<polygon fill="midnightblue" stroke="midnightblue" points="573.226,-69.9868 578.839,-78.9727 580.055,-68.4479 573.226,-69.9868"/>
</g>
<!-- Node25 -->
<g id="node9" class="node"><title>Node25</title>
<g id="a_node9"><a xlink:href="_etap_dalitz__plot_8cc.html" target="_top" xlink:title="src/analysis/physics\l/etaprime/EtapDalitz\l_plot.cc">
<polygon fill="white" stroke="black" points="623,-0.5 623,-41.5 729,-41.5 729,-0.5 623,-0.5"/>
<text text-anchor="start" x="631" y="-29.5" font-family="Helvetica,sans-Serif" font-size="10.00">src/analysis/physics</text>
<text text-anchor="start" x="631" y="-18.5" font-family="Helvetica,sans-Serif" font-size="10.00">/etaprime/EtapDalitz</text>
<text text-anchor="middle" x="676" y="-7.5" font-family="Helvetica,sans-Serif" font-size="10.00">_plot.cc</text>
</a>
</g>
</g>
<!-- Node23&#45;&gt;Node25 -->
<g id="edge9" class="edge"><title>Node23&#45;&gt;Node25</title>
<path fill="none" stroke="midnightblue" d="M608.663,-72.8612C621.618,-63.0756 637.128,-51.3608 649.995,-41.642"/>
<polygon fill="midnightblue" stroke="midnightblue" points="606.441,-70.1527 600.571,-78.9727 610.66,-75.7384 606.441,-70.1527"/>
</g>
<!-- Node26 -->
<g id="node10" class="node"><title>Node26</title>
<g id="a_node10"><a xlink:href="etaprime__dalitz_8cc.html" target="_top" xlink:title="src/analysis/physics\l/etaprime/etaprime_dalitz.cc">
<polygon fill="white" stroke="black" points="747,-6 747,-36 887,-36 887,-6 747,-6"/>
<text text-anchor="start" x="755" y="-24" font-family="Helvetica,sans-Serif" font-size="10.00">src/analysis/physics</text>
<text text-anchor="middle" x="817" y="-13" font-family="Helvetica,sans-Serif" font-size="10.00">/etaprime/etaprime_dalitz.cc</text>
</a>
</g>
</g>
<!-- Node23&#45;&gt;Node26 -->
<g id="edge10" class="edge"><title>Node23&#45;&gt;Node26</title>
<path fill="none" stroke="midnightblue" d="M638.119,-76.0449C678.468,-63.8542 732.245,-47.6069 770.266,-36.1195"/>
<polygon fill="midnightblue" stroke="midnightblue" points="636.989,-72.73 628.428,-78.9727 639.013,-79.4309 636.989,-72.73"/>
</g>
<!-- Node28 -->
<g id="node12" class="node"><title>Node28</title>
<g id="a_node12"><a xlink:href="_omega___ep_em_8cc.html" target="_top" xlink:title="src/analysis/physics\l/omega/Omega_EpEm.cc">
<polygon fill="white" stroke="black" points="905.5,-6 905.5,-36 1034.5,-36 1034.5,-6 905.5,-6"/>
<text text-anchor="start" x="913.5" y="-24" font-family="Helvetica,sans-Serif" font-size="10.00">src/analysis/physics</text>
<text text-anchor="middle" x="970" y="-13" font-family="Helvetica,sans-Serif" font-size="10.00">/omega/Omega_EpEm.cc</text>
</a>
</g>
</g>
<!-- Node27&#45;&gt;Node28 -->
<g id="edge12" class="edge"><title>Node27&#45;&gt;Node28</title>
<path fill="none" stroke="midnightblue" d="M786.29,-76.1222C827.698,-63.9229 882.998,-47.6312 922.073,-36.1195"/>
<polygon fill="midnightblue" stroke="midnightblue" points="785.217,-72.7893 776.614,-78.9727 787.195,-79.504 785.217,-72.7893"/>
</g>
</g>
</svg>
