<?xml version="1.0" encoding="UTF-8" standalone="no"?>
<!DOCTYPE svg PUBLIC "-//W3C//DTD SVG 1.1//EN"
 "http://www.w3.org/Graphics/SVG/1.1/DTD/svg11.dtd">
<!-- Generated by graphviz version 2.36.0 (20140111.2315)
 -->
<!-- Title: src/calibration/modules/ClusterCorrection.h Pages: 1 -->
<svg width="793pt" height="118pt"
 viewBox="0.00 0.00 793.00 118.00" xmlns="http://www.w3.org/2000/svg" xmlns:xlink="http://www.w3.org/1999/xlink">
<g id="graph0" class="graph" transform="scale(1 1) rotate(0) translate(4 114)">
<title>src/calibration/modules/ClusterCorrection.h</title>
<polygon fill="white" stroke="none" points="-4,4 -4,-114 789,-114 789,4 -4,4"/>
<!-- Node49 -->
<g id="node1" class="node"><title>Node49</title>
<polygon fill="#bfbfbf" stroke="black" points="319.5,-79 319.5,-109 436.5,-109 436.5,-79 319.5,-79"/>
<text text-anchor="start" x="327.5" y="-97" font-family="Helvetica,sans-Serif" font-size="10.00">src/calibration/modules</text>
<text text-anchor="middle" x="378" y="-86" font-family="Helvetica,sans-Serif" font-size="10.00">/ClusterCorrection.h</text>
</g>
<!-- Node50 -->
<g id="node2" class="node"><title>Node50</title>
<g id="a_node2"><a xlink:href="_cluster_correction_8cc.html" target="_top" xlink:title="src/calibration/modules\l/ClusterCorrection.cc">
<polygon fill="white" stroke="black" points="-0.5,-6 -0.5,-36 116.5,-36 116.5,-6 -0.5,-6"/>
<text text-anchor="start" x="7.5" y="-24" font-family="Helvetica,sans-Serif" font-size="10.00">src/calibration/modules</text>
<text text-anchor="middle" x="58" y="-13" font-family="Helvetica,sans-Serif" font-size="10.00">/ClusterCorrection.cc</text>
</a>
</g>
</g>
<!-- Node49&#45;&gt;Node50 -->
<g id="edge1" class="edge"><title>Node49&#45;&gt;Node50</title>
<path fill="none" stroke="midnightblue" d="M309.436,-80.9291C258.325,-71.5077 186.951,-57.4564 125,-42 117.815,-40.2075 110.251,-38.1337 102.895,-36.0144"/>
<polygon fill="midnightblue" stroke="midnightblue" points="308.912,-84.3913 319.379,-82.7507 310.174,-77.5059 308.912,-84.3913"/>
</g>
<!-- Node51 -->
<g id="node3" class="node"><title>Node51</title>
<g id="a_node3"><a xlink:href="_setup_8cc.html" target="_top" xlink:title="src/expconfig/setups\l/Setup.cc">
<polygon fill="white" stroke="black" points="134.5,-6 134.5,-36 241.5,-36 241.5,-6 134.5,-6"/>
<text text-anchor="start" x="142.5" y="-24" font-family="Helvetica,sans-Serif" font-size="10.00">src/expconfig/setups</text>
<text text-anchor="middle" x="188" y="-13" font-family="Helvetica,sans-Serif" font-size="10.00">/Setup.cc</text>
</a>
</g>
</g>
<!-- Node49&#45;&gt;Node51 -->
<g id="edge2" class="edge"><title>Node49&#45;&gt;Node51</title>
<path fill="none" stroke="midnightblue" d="M330.753,-75.3447C298.354,-63.2376 255.941,-47.3883 225.785,-36.1195"/>
<polygon fill="midnightblue" stroke="midnightblue" points="329.87,-78.7508 340.462,-78.9727 332.32,-72.1936 329.87,-78.7508"/>
</g>
<!-- Node52 -->
<g id="node4" class="node"><title>Node52</title>
<g id="a_node4"><a xlink:href="_setup__2014___e_p_t_8cc.html" target="_top" xlink:title="src/expconfig/setups\l/Setup_2014_EPT.cc">
<polygon fill="white" stroke="black" points="260,-6 260,-36 370,-36 370,-6 260,-6"/>
<text text-anchor="start" x="268" y="-24" font-family="Helvetica,sans-Serif" font-size="10.00">src/expconfig/setups</text>
<text text-anchor="middle" x="315" y="-13" font-family="Helvetica,sans-Serif" font-size="10.00">/Setup_2014_EPT.cc</text>
</a>
</g>
</g>
<!-- Node49&#45;&gt;Node52 -->
<g id="edge3" class="edge"><title>Node49&#45;&gt;Node52</title>
<path fill="none" stroke="midnightblue" d="M358.679,-71.226C348.67,-59.9457 336.721,-46.4798 327.853,-36.4856"/>
<polygon fill="midnightblue" stroke="midnightblue" points="356.298,-73.8158 365.553,-78.9727 361.534,-69.1698 356.298,-73.8158"/>
</g>
<!-- Node53 -->
<g id="node5" class="node"><title>Node53</title>
<g id="a_node5"><a xlink:href="_setup__2017__03_8cc.html" target="_top" xlink:title="src/expconfig/setups\l/Setup_2017_03.cc">
<polygon fill="white" stroke="black" points="388.5,-6 388.5,-36 495.5,-36 495.5,-6 388.5,-6"/>
<text text-anchor="start" x="396.5" y="-24" font-family="Helvetica,sans-Serif" font-size="10.00">src/expconfig/setups</text>
<text text-anchor="middle" x="442" y="-13" font-family="Helvetica,sans-Serif" font-size="10.00">/Setup_2017_03.cc</text>
</a>
</g>
</g>
<!-- Node49&#45;&gt;Node53 -->
<g id="edge4" class="edge"><title>Node49&#45;&gt;Node53</title>
<path fill="none" stroke="midnightblue" d="M397.627,-71.226C407.795,-59.9457 419.934,-46.4798 428.943,-36.4856"/>
<polygon fill="midnightblue" stroke="midnightblue" points="394.74,-69.2015 390.644,-78.9727 399.94,-73.8883 394.74,-69.2015"/>
</g>
<!-- Node54 -->
<g id="node6" class="node"><title>Node54</title>
<g id="a_node6"><a xlink:href="_setup__2017__05_8cc.html" target="_top" xlink:title="src/expconfig/setups\l/Setup_2017_05.cc">
<polygon fill="white" stroke="black" points="513.5,-6 513.5,-36 620.5,-36 620.5,-6 513.5,-6"/>
<text text-anchor="start" x="521.5" y="-24" font-family="Helvetica,sans-Serif" font-size="10.00">src/expconfig/setups</text>
<text text-anchor="middle" x="567" y="-13" font-family="Helvetica,sans-Serif" font-size="10.00">/Setup_2017_05.cc</text>
</a>
</g>
</g>
<!-- Node49&#45;&gt;Node54 -->
<g id="edge5" class="edge"><title>Node49&#45;&gt;Node54</title>
<path fill="none" stroke="midnightblue" d="M424.998,-75.3447C457.227,-63.2376 499.417,-47.3883 529.414,-36.1195"/>
<polygon fill="midnightblue" stroke="midnightblue" points="423.471,-72.1795 415.34,-78.9727 425.932,-78.7324 423.471,-72.1795"/>
</g>
<!-- Node55 -->
<g id="node7" class="node"><title>Node55</title>
<g id="a_node7"><a xlink:href="_setup__2017_plus___new_tagger___base_8cc.html" target="_top" xlink:title="src/expconfig/setups\l/Setup_2017Plus_NewTagger\l_Base.cc">
<polygon fill="white" stroke="black" points="639,-0.5 639,-41.5 785,-41.5 785,-0.5 639,-0.5"/>
<text text-anchor="start" x="647" y="-29.5" font-family="Helvetica,sans-Serif" font-size="10.00">src/expconfig/setups</text>
<text text-anchor="start" x="647" y="-18.5" font-family="Helvetica,sans-Serif" font-size="10.00">/Setup_2017Plus_NewTagger</text>
<text text-anchor="middle" x="712" y="-7.5" font-family="Helvetica,sans-Serif" font-size="10.00">_Base.cc</text>
</a>
</g>
</g>
<!-- Node49&#45;&gt;Node55 -->
<g id="edge6" class="edge"><title>Node49&#45;&gt;Node55</title>
<path fill="none" stroke="midnightblue" d="M446.538,-79.7654C497.074,-69.8388 567.446,-55.665 629,-42 632.183,-41.2933 635.433,-40.5603 638.713,-39.8109"/>
<polygon fill="midnightblue" stroke="midnightblue" points="445.844,-76.3347 436.703,-81.6926 447.19,-83.2041 445.844,-76.3347"/>
</g>
</g>
</svg>
