<?xml version="1.0" encoding="UTF-8" standalone="no"?>
<!DOCTYPE svg PUBLIC "-//W3C//DTD SVG 1.1//EN"
 "http://www.w3.org/Graphics/SVG/1.1/DTD/svg11.dtd">
<!-- Generated by graphviz version 2.36.0 (20140111.2315)
 -->
<!-- Title: src/analysis/plot/CutTree.h Pages: 1 -->
<svg width="1365pt" height="320pt"
 viewBox="0.00 0.00 1365.00 320.00" xmlns="http://www.w3.org/2000/svg" xmlns:xlink="http://www.w3.org/1999/xlink">
<g id="graph0" class="graph" transform="scale(1 1) rotate(0) translate(4 316)">
<title>src/analysis/plot/CutTree.h</title>
<polygon fill="white" stroke="none" points="-4,4 -4,-316 1361,-316 1361,4 -4,4"/>
<!-- Node0 -->
<g id="node1" class="node"><title>Node0</title>
<polygon fill="#bfbfbf" stroke="black" points="399,-292.5 399,-311.5 533,-311.5 533,-292.5 399,-292.5"/>
<text text-anchor="middle" x="466" y="-299.5" font-family="Helvetica,sans-Serif" font-size="10.00">src/analysis/plot/CutTree.h</text>
</g>
<!-- Node1 -->
<g id="node2" class="node"><title>Node1</title>
<g id="a_node2"><a xlink:href="_hist_style_8h.html" target="_top" xlink:title="HistStyle.h">
<polygon fill="white" stroke="black" points="293.5,-168.5 293.5,-187.5 358.5,-187.5 358.5,-168.5 293.5,-168.5"/>
<text text-anchor="middle" x="326" y="-175.5" font-family="Helvetica,sans-Serif" font-size="10.00">HistStyle.h</text>
</a>
</g>
</g>
<!-- Node0&#45;&gt;Node1 -->
<g id="edge1" class="edge"><title>Node0&#45;&gt;Node1</title>
<path fill="none" stroke="midnightblue" d="M455.932,-292.226C432.421,-271.739 373.654,-220.527 343.884,-194.584"/>
<polygon fill="midnightblue" stroke="midnightblue" points="345.816,-191.626 335.977,-187.694 341.217,-196.903 345.816,-191.626"/>
</g>
<!-- Node3 -->
<g id="node4" class="node"><title>Node3</title>
<polygon fill="white" stroke="#bfbfbf" points="253.5,-112.5 253.5,-131.5 294.5,-131.5 294.5,-112.5 253.5,-112.5"/>
<text text-anchor="middle" x="274" y="-119.5" font-family="Helvetica,sans-Serif" font-size="10.00">string</text>
</g>
<!-- Node0&#45;&gt;Node3 -->
<g id="edge59" class="edge"><title>Node0&#45;&gt;Node3</title>
<path fill="none" stroke="midnightblue" d="M398.976,-293.218C369.274,-287.031 335.389,-275.927 310,-256 282.594,-234.489 279.969,-221.666 271,-188 268.712,-179.411 270.704,-176.884 271,-168 271.287,-159.383 271.882,-149.854 272.467,-141.791"/>
<polygon fill="midnightblue" stroke="midnightblue" points="275.972,-141.859 273.254,-131.618 268.993,-141.318 275.972,-141.859"/>
</g>
<!-- Node4 -->
<g id="node5" class="node"><title>Node4</title>
<polygon fill="white" stroke="#bfbfbf" points="312.5,-112.5 312.5,-131.5 371.5,-131.5 371.5,-112.5 312.5,-112.5"/>
<text text-anchor="middle" x="342" y="-119.5" font-family="Helvetica,sans-Serif" font-size="10.00">functional</text>
</g>
<!-- Node0&#45;&gt;Node4 -->
<g id="edge60" class="edge"><title>Node0&#45;&gt;Node4</title>
<path fill="none" stroke="midnightblue" d="M434.279,-292.499C390.586,-278.827 313.897,-247.275 284,-188 273.723,-167.624 295.711,-148.686 315.499,-136.57"/>
<polygon fill="midnightblue" stroke="midnightblue" points="317.388,-139.521 324.312,-131.502 313.898,-133.453 317.388,-139.521"/>
</g>
<!-- Node5 -->
<g id="node6" class="node"><title>Node5</title>
<g id="a_node6"><a xlink:href="_root_draw_8h.html" target="_top" xlink:title="RootDraw.h">
<polygon fill="white" stroke="black" points="376.5,-168.5 376.5,-187.5 445.5,-187.5 445.5,-168.5 376.5,-168.5"/>
<text text-anchor="middle" x="411" y="-175.5" font-family="Helvetica,sans-Serif" font-size="10.00">RootDraw.h</text>
</a>
</g>
</g>
<!-- Node0&#45;&gt;Node5 -->
<g id="edge5" class="edge"><title>Node0&#45;&gt;Node5</title>
<path fill="none" stroke="midnightblue" d="M462.045,-292.226C453.086,-272.354 431.096,-223.576 419.11,-196.989"/>
<polygon fill="midnightblue" stroke="midnightblue" points="422.22,-195.372 414.92,-187.694 415.839,-198.249 422.22,-195.372"/>
</g>
<!-- Node6 -->
<g id="node7" class="node"><title>Node6</title>
<polygon fill="white" stroke="#bfbfbf" points="809.5,-112.5 809.5,-131.5 838.5,-131.5 838.5,-112.5 809.5,-112.5"/>
<text text-anchor="middle" x="824" y="-119.5" font-family="Helvetica,sans-Serif" font-size="10.00">list</text>
</g>
<!-- Node0&#45;&gt;Node6 -->
<g id="edge57" class="edge"><title>Node0&#45;&gt;Node6</title>
<path fill="none" stroke="midnightblue" d="M533.225,-301.971C623.459,-301.717 776.754,-295.296 814,-256 843.25,-225.14 835.684,-170.123 829.068,-141.481"/>
<polygon fill="midnightblue" stroke="midnightblue" points="832.412,-140.427 826.572,-131.587 825.624,-142.14 832.412,-140.427"/>
</g>
<!-- Node7 -->
<g id="node8" class="node"><title>Node7</title>
<polygon fill="white" stroke="#bfbfbf" points="528,-56.5 528,-75.5 572,-75.5 572,-56.5 528,-56.5"/>
<text text-anchor="middle" x="550" y="-63.5" font-family="Helvetica,sans-Serif" font-size="10.00">vector</text>
</g>
<!-- Node0&#45;&gt;Node7 -->
<g id="edge56" class="edge"><title>Node0&#45;&gt;Node7</title>
<path fill="none" stroke="midnightblue" d="M533.302,-299.003C608.593,-292.661 726.942,-269.428 780,-188 784.853,-180.553 785.145,-175.249 780,-168 751.931,-128.456 721.467,-151.346 677,-132 659.499,-124.386 655.961,-120.751 639,-112 617.968,-101.149 594.023,-89.0566 576.271,-80.1419"/>
<polygon fill="midnightblue" stroke="midnightblue" points="577.612,-76.8989 567.104,-75.5442 574.474,-83.156 577.612,-76.8989"/>
</g>
<!-- Node19 -->
<g id="node20" class="node"><title>Node19</title>
<g id="a_node20"><a xlink:href="hstack_8h.html" target="_top" xlink:title="root&#45;addons/analysis\l_codes/hstack.h">
<polygon fill="white" stroke="black" points="458.5,-225 458.5,-255 565.5,-255 565.5,-225 458.5,-225"/>
<text text-anchor="start" x="466.5" y="-243" font-family="Helvetica,sans-Serif" font-size="10.00">root&#45;addons/analysis</text>
<text text-anchor="middle" x="512" y="-232" font-family="Helvetica,sans-Serif" font-size="10.00">_codes/hstack.h</text>
</a>
</g>
</g>
<!-- Node0&#45;&gt;Node19 -->
<g id="edge25" class="edge"><title>Node0&#45;&gt;Node19</title>
<path fill="none" stroke="midnightblue" d="M472.591,-292.403C478.413,-284.809 487.163,-273.396 494.94,-263.252"/>
<polygon fill="midnightblue" stroke="midnightblue" points="497.852,-265.206 501.159,-255.141 492.297,-260.947 497.852,-265.206"/>
</g>
<!-- Node22 -->
<g id="node23" class="node"><title>Node22</title>
<polygon fill="white" stroke="#bfbfbf" points="736.5,-168.5 736.5,-187.5 771.5,-187.5 771.5,-168.5 736.5,-168.5"/>
<text text-anchor="middle" x="754" y="-175.5" font-family="Helvetica,sans-Serif" font-size="10.00">map</text>
</g>
<!-- Node0&#45;&gt;Node22 -->
<g id="edge58" class="edge"><title>Node0&#45;&gt;Node22</title>
<path fill="none" stroke="midnightblue" d="M486.729,-292.431C508.489,-283.42 543.685,-268.799 574,-256 628.291,-233.078 691.61,-205.884 726.823,-190.72"/>
<polygon fill="midnightblue" stroke="midnightblue" points="728.595,-193.768 736.394,-186.597 725.825,-187.339 728.595,-193.768"/>
</g>
<!-- Node23 -->
<g id="node24" class="node"><title>Node23</title>
<g id="a_node24"><a xlink:href="_histogram_factory_8h.html" target="_top" xlink:title="analysis/plot/HistogramFactory.h">
<polygon fill="white" stroke="black" points="-0.5,-168.5 -0.5,-187.5 160.5,-187.5 160.5,-168.5 -0.5,-168.5"/>
<text text-anchor="middle" x="80" y="-175.5" font-family="Helvetica,sans-Serif" font-size="10.00">analysis/plot/HistogramFactory.h</text>
</a>
</g>
</g>
<!-- Node0&#45;&gt;Node23 -->
<g id="edge39" class="edge"><title>Node0&#45;&gt;Node23</title>
<path fill="none" stroke="midnightblue" d="M398.795,-300.47C337.953,-297.741 247.089,-287.957 175,-256 142.685,-241.674 112.219,-213.412 94.8662,-195.401"/>
<polygon fill="midnightblue" stroke="midnightblue" points="97.2527,-192.829 87.8566,-187.934 92.1491,-197.62 97.2527,-192.829"/>
</g>
<!-- Node24 -->
<g id="node25" class="node"><title>Node24</title>
<g id="a_node25"><a xlink:href="_tree_8h.html" target="_top" xlink:title="base/Tree.h">
<polygon fill="white" stroke="black" points="921,-168.5 921,-187.5 989,-187.5 989,-168.5 921,-168.5"/>
<text text-anchor="middle" x="955" y="-175.5" font-family="Helvetica,sans-Serif" font-size="10.00">base/Tree.h</text>
</a>
</g>
</g>
<!-- Node0&#45;&gt;Node24 -->
<g id="edge44" class="edge"><title>Node0&#45;&gt;Node24</title>
<path fill="none" stroke="midnightblue" d="M533.34,-297.373C628.139,-291.55 795.666,-278.435 852,-256 887.052,-242.04 920.711,-212.957 939.541,-194.8"/>
<polygon fill="midnightblue" stroke="midnightblue" points="942.232,-197.061 946.883,-187.542 937.311,-192.083 942.232,-197.061"/>
</g>
<!-- Node2 -->
<g id="node3" class="node"><title>Node2</title>
<polygon fill="white" stroke="#bfbfbf" points="428,-112.5 428,-131.5 484,-131.5 484,-112.5 428,-112.5"/>
<text text-anchor="middle" x="456" y="-119.5" font-family="Helvetica,sans-Serif" font-size="10.00">Rtypes.h</text>
</g>
<!-- Node1&#45;&gt;Node2 -->
<g id="edge2" class="edge"><title>Node1&#45;&gt;Node2</title>
<path fill="none" stroke="midnightblue" d="M346.599,-168.444C367.993,-159.557 401.681,-145.563 426.024,-135.451"/>
<polygon fill="midnightblue" stroke="midnightblue" points="427.605,-138.585 435.497,-131.516 424.92,-132.12 427.605,-138.585"/>
</g>
<!-- Node1&#45;&gt;Node3 -->
<g id="edge3" class="edge"><title>Node1&#45;&gt;Node3</title>
<path fill="none" stroke="midnightblue" d="M317.413,-168.083C309.841,-160.22 298.622,-148.569 289.486,-139.081"/>
<polygon fill="midnightblue" stroke="midnightblue" points="291.885,-136.527 282.427,-131.751 286.842,-141.382 291.885,-136.527"/>
</g>
<!-- Node1&#45;&gt;Node4 -->
<g id="edge4" class="edge"><title>Node1&#45;&gt;Node4</title>
<path fill="none" stroke="midnightblue" d="M328.642,-168.083C330.786,-160.849 333.879,-150.409 336.549,-141.397"/>
<polygon fill="midnightblue" stroke="midnightblue" points="339.922,-142.333 339.407,-131.751 333.21,-140.345 339.922,-142.333"/>
</g>
<!-- Node5&#45;&gt;Node2 -->
<g id="edge24" class="edge"><title>Node5&#45;&gt;Node2</title>
<path fill="none" stroke="midnightblue" d="M418.431,-168.083C424.853,-160.377 434.306,-149.033 442.122,-139.653"/>
<polygon fill="midnightblue" stroke="midnightblue" points="444.994,-141.674 448.707,-131.751 439.617,-137.193 444.994,-141.674"/>
</g>
<!-- Node5&#45;&gt;Node3 -->
<g id="edge6" class="edge"><title>Node5&#45;&gt;Node3</title>
<path fill="none" stroke="midnightblue" d="M389.292,-168.444C366.379,-159.412 330.086,-145.107 304.346,-134.961"/>
<polygon fill="midnightblue" stroke="midnightblue" points="305.297,-131.574 294.71,-131.163 302.73,-138.086 305.297,-131.574"/>
</g>
<!-- Node5&#45;&gt;Node4 -->
<g id="edge10" class="edge"><title>Node5&#45;&gt;Node4</title>
<path fill="none" stroke="midnightblue" d="M399.914,-168.324C389.514,-160.185 373.739,-147.839 361.278,-138.087"/>
<polygon fill="midnightblue" stroke="midnightblue" points="363.32,-135.241 353.288,-131.834 359.006,-140.753 363.32,-135.241"/>
</g>
<!-- Node5&#45;&gt;Node6 -->
<g id="edge7" class="edge"><title>Node5&#45;&gt;Node6</title>
<path fill="none" stroke="midnightblue" d="M445.574,-175.82C512.494,-172.935 664.294,-163.461 799.732,-131.443"/>
<polygon fill="midnightblue" stroke="midnightblue" points="800.553,-134.846 809.454,-129.099 798.912,-128.041 800.553,-134.846"/>
</g>
<!-- Node5&#45;&gt;Node7 -->
<g id="edge8" class="edge"><title>Node5&#45;&gt;Node7</title>
<path fill="none" stroke="midnightblue" d="M409.416,-168.324C407.457,-154.721 405.826,-128.252 419,-112 442.976,-82.4225 487.405,-72.2179 517.816,-68.7366"/>
<polygon fill="midnightblue" stroke="midnightblue" points="518.312,-72.2052 527.932,-67.7649 517.643,-65.2372 518.312,-72.2052"/>
</g>
<!-- Node8 -->
<g id="node9" class="node"><title>Node8</title>
<polygon fill="white" stroke="#bfbfbf" points="578,-112.5 578,-131.5 630,-131.5 630,-112.5 578,-112.5"/>
<text text-anchor="middle" x="604" y="-119.5" font-family="Helvetica,sans-Serif" font-size="10.00">memory</text>
</g>
<!-- Node5&#45;&gt;Node8 -->
<g id="edge9" class="edge"><title>Node5&#45;&gt;Node8</title>
<path fill="none" stroke="midnightblue" d="M441.581,-168.444C475.975,-158.821 531.767,-143.21 568.174,-133.024"/>
<polygon fill="midnightblue" stroke="midnightblue" points="569.207,-136.369 577.894,-130.304 567.321,-129.628 569.207,-136.369"/>
</g>
<!-- Node9 -->
<g id="node10" class="node"><title>Node9</title>
<g id="a_node10"><a xlink:href="_bin_settings_8h.html" target="_top" xlink:title="base/BinSettings.h">
<polygon fill="white" stroke="black" points="59.5,-112.5 59.5,-131.5 158.5,-131.5 158.5,-112.5 59.5,-112.5"/>
<text text-anchor="middle" x="109" y="-119.5" font-family="Helvetica,sans-Serif" font-size="10.00">base/BinSettings.h</text>
</a>
</g>
</g>
<!-- Node5&#45;&gt;Node9 -->
<g id="edge11" class="edge"><title>Node5&#45;&gt;Node9</title>
<path fill="none" stroke="midnightblue" d="M376.432,-169.83C373.245,-169.199 370.064,-168.581 367,-168 299.152,-155.147 221.002,-141.706 168.653,-132.899"/>
<polygon fill="midnightblue" stroke="midnightblue" points="168.979,-129.405 158.538,-131.201 167.82,-136.308 168.979,-129.405"/>
</g>
<!-- Node9&#45;&gt;Node7 -->
<g id="edge20" class="edge"><title>Node9&#45;&gt;Node7</title>
<path fill="none" stroke="midnightblue" d="M158.731,-114.91C249.95,-103.741 441.637,-80.2689 517.804,-70.9424"/>
<polygon fill="midnightblue" stroke="midnightblue" points="518.262,-74.4126 527.762,-69.723 517.411,-67.4644 518.262,-74.4126"/>
</g>
<!-- Node10 -->
<g id="node11" class="node"><title>Node10</title>
<g id="a_node11"><a xlink:href="interval_8h.html" target="_top" xlink:title="base/interval.h">
<polygon fill="white" stroke="black" points="340,-56.5 340,-75.5 420,-75.5 420,-56.5 340,-56.5"/>
<text text-anchor="middle" x="380" y="-63.5" font-family="Helvetica,sans-Serif" font-size="10.00">base/interval.h</text>
</a>
</g>
</g>
<!-- Node9&#45;&gt;Node10 -->
<g id="edge12" class="edge"><title>Node9&#45;&gt;Node10</title>
<path fill="none" stroke="midnightblue" d="M151.941,-112.444C200.353,-102.797 278.961,-87.1333 330.072,-76.9488"/>
<polygon fill="midnightblue" stroke="midnightblue" points="330.787,-80.3751 339.911,-74.9883 329.419,-73.5101 330.787,-80.3751"/>
</g>
<!-- Node13 -->
<g id="node14" class="node"><title>Node13</title>
<polygon fill="white" stroke="#bfbfbf" points="221.5,-0.5 221.5,-19.5 280.5,-19.5 280.5,-0.5 221.5,-0.5"/>
<text text-anchor="middle" x="251" y="-7.5" font-family="Helvetica,sans-Serif" font-size="10.00">stdexcept</text>
</g>
<!-- Node9&#45;&gt;Node13 -->
<g id="edge21" class="edge"><title>Node9&#45;&gt;Node13</title>
<path fill="none" stroke="midnightblue" d="M132.112,-112.462C151.047,-104.762 177.899,-92.1702 198,-76 215.124,-62.2246 230.48,-42.0973 240.2,-27.897"/>
<polygon fill="midnightblue" stroke="midnightblue" points="243.126,-29.8164 245.735,-19.5476 237.292,-25.9484 243.126,-29.8164"/>
</g>
<!-- Node15 -->
<g id="node16" class="node"><title>Node15</title>
<polygon fill="white" stroke="#bfbfbf" points="108.5,-0.5 108.5,-19.5 157.5,-19.5 157.5,-0.5 108.5,-0.5"/>
<text text-anchor="middle" x="133" y="-7.5" font-family="Helvetica,sans-Serif" font-size="10.00">istream</text>
</g>
<!-- Node9&#45;&gt;Node15 -->
<g id="edge22" class="edge"><title>Node9&#45;&gt;Node15</title>
<path fill="none" stroke="midnightblue" d="M110.883,-112.368C114.756,-94.617 123.691,-53.6664 128.942,-29.5974"/>
<polygon fill="midnightblue" stroke="midnightblue" points="132.413,-30.1077 131.126,-19.5914 125.574,-28.6155 132.413,-30.1077"/>
</g>
<!-- Node18 -->
<g id="node19" class="node"><title>Node18</title>
<polygon fill="white" stroke="#bfbfbf" points="137,-56.5 137,-75.5 189,-75.5 189,-56.5 137,-56.5"/>
<text text-anchor="middle" x="163" y="-63.5" font-family="Helvetica,sans-Serif" font-size="10.00">ostream</text>
</g>
<!-- Node9&#45;&gt;Node18 -->
<g id="edge23" class="edge"><title>Node9&#45;&gt;Node18</title>
<path fill="none" stroke="midnightblue" d="M117.917,-112.083C125.78,-104.22 137.431,-92.5688 146.919,-83.0813"/>
<polygon fill="midnightblue" stroke="midnightblue" points="149.653,-85.2971 154.249,-75.7511 144.703,-80.3473 149.653,-85.2971"/>
</g>
<!-- Node11 -->
<g id="node12" class="node"><title>Node11</title>
<g id="a_node12"><a xlink:href="types_8h.html" target="_top" xlink:title="types.h">
<polygon fill="white" stroke="black" points="321.5,-0.5 321.5,-19.5 370.5,-19.5 370.5,-0.5 321.5,-0.5"/>
<text text-anchor="middle" x="346" y="-7.5" font-family="Helvetica,sans-Serif" font-size="10.00">types.h</text>
</a>
</g>
</g>
<!-- Node10&#45;&gt;Node11 -->
<g id="edge13" class="edge"><title>Node10&#45;&gt;Node11</title>
<path fill="none" stroke="midnightblue" d="M374.386,-56.083C369.633,-48.5341 362.682,-37.4948 356.848,-28.2298"/>
<polygon fill="midnightblue" stroke="midnightblue" points="359.8,-26.3486 351.51,-19.7511 353.876,-30.0783 359.8,-26.3486"/>
</g>
<!-- Node12 -->
<g id="node13" class="node"><title>Node12</title>
<polygon fill="white" stroke="#bfbfbf" points="829,-0.5 829,-19.5 885,-19.5 885,-0.5 829,-0.5"/>
<text text-anchor="middle" x="857" y="-7.5" font-family="Helvetica,sans-Serif" font-size="10.00">algorithm</text>
</g>
<!-- Node10&#45;&gt;Node12 -->
<g id="edge14" class="edge"><title>Node10&#45;&gt;Node12</title>
<path fill="none" stroke="midnightblue" d="M420.258,-60.4425C510.907,-50.1803 730.022,-25.3749 818.745,-15.3308"/>
<polygon fill="midnightblue" stroke="midnightblue" points="819.358,-18.7838 828.901,-14.181 818.571,-11.8282 819.358,-18.7838"/>
</g>
<!-- Node10&#45;&gt;Node13 -->
<g id="edge15" class="edge"><title>Node10&#45;&gt;Node13</title>
<path fill="none" stroke="midnightblue" d="M359.56,-56.4435C338.33,-47.5566 304.901,-33.5632 280.745,-23.4514"/>
<polygon fill="midnightblue" stroke="midnightblue" points="281.921,-20.1493 271.345,-19.5164 279.218,-26.6064 281.921,-20.1493"/>
</g>
<!-- Node14 -->
<g id="node15" class="node"><title>Node14</title>
<polygon fill="white" stroke="#bfbfbf" points="643,-0.5 643,-19.5 683,-19.5 683,-0.5 643,-0.5"/>
<text text-anchor="middle" x="663" y="-7.5" font-family="Helvetica,sans-Serif" font-size="10.00">limits</text>
</g>
<!-- Node10&#45;&gt;Node14 -->
<g id="edge16" class="edge"><title>Node10&#45;&gt;Node14</title>
<path fill="none" stroke="midnightblue" d="M420.246,-57.3205C477.518,-46.3923 581.262,-26.5966 632.576,-16.8053"/>
<polygon fill="midnightblue" stroke="midnightblue" points="633.528,-20.1869 642.694,-14.8746 632.216,-13.311 633.528,-20.1869"/>
</g>
<!-- Node10&#45;&gt;Node15 -->
<g id="edge17" class="edge"><title>Node10&#45;&gt;Node15</title>
<path fill="none" stroke="midnightblue" d="M340.862,-56.4435C293.159,-46.0144 213.288,-28.5529 167.694,-18.585"/>
<polygon fill="midnightblue" stroke="midnightblue" points="168.212,-15.1155 157.695,-16.3989 166.717,-21.954 168.212,-15.1155"/>
</g>
<!-- Node16 -->
<g id="node17" class="node"><title>Node16</title>
<polygon fill="white" stroke="#bfbfbf" points="389,-0.5 389,-19.5 441,-19.5 441,-0.5 389,-0.5"/>
<text text-anchor="middle" x="415" y="-7.5" font-family="Helvetica,sans-Serif" font-size="10.00">sstream</text>
</g>
<!-- Node10&#45;&gt;Node16 -->
<g id="edge18" class="edge"><title>Node10&#45;&gt;Node16</title>
<path fill="none" stroke="midnightblue" d="M385.78,-56.083C390.672,-48.5341 397.827,-37.4948 403.833,-28.2298"/>
<polygon fill="midnightblue" stroke="midnightblue" points="406.826,-30.0463 409.328,-19.7511 400.952,-26.239 406.826,-30.0463"/>
</g>
<!-- Node17 -->
<g id="node18" class="node"><title>Node17</title>
<polygon fill="white" stroke="#bfbfbf" points="531,-0.5 531,-19.5 575,-19.5 575,-0.5 531,-0.5"/>
<text text-anchor="middle" x="553" y="-7.5" font-family="Helvetica,sans-Serif" font-size="10.00">cmath</text>
</g>
<!-- Node10&#45;&gt;Node17 -->
<g id="edge19" class="edge"><title>Node10&#45;&gt;Node17</title>
<path fill="none" stroke="midnightblue" d="M407.412,-56.4435C438.276,-46.8097 488.365,-31.1752 520.996,-20.9896"/>
<polygon fill="midnightblue" stroke="midnightblue" points="522.428,-24.2093 530.931,-17.8886 520.342,-17.5273 522.428,-24.2093"/>
</g>
<!-- Node19&#45;&gt;Node1 -->
<g id="edge31" class="edge"><title>Node19&#45;&gt;Node1</title>
<path fill="none" stroke="midnightblue" d="M468.391,-224.933C436.074,-214.508 392.547,-200.467 362.157,-190.663"/>
<polygon fill="midnightblue" stroke="midnightblue" points="362.981,-187.252 352.389,-187.513 360.832,-193.914 362.981,-187.252"/>
</g>
<!-- Node19&#45;&gt;Node2 -->
<g id="edge26" class="edge"><title>Node19&#45;&gt;Node2</title>
<path fill="none" stroke="midnightblue" d="M505.133,-224.776C494.906,-203.591 475.685,-163.776 464.557,-140.724"/>
<polygon fill="midnightblue" stroke="midnightblue" points="467.703,-139.191 460.203,-131.707 461.399,-142.234 467.703,-139.191"/>
</g>
<!-- Node19&#45;&gt;Node3 -->
<g id="edge28" class="edge"><title>Node19&#45;&gt;Node3</title>
<path fill="none" stroke="midnightblue" d="M458.479,-233.948C398.729,-227.16 307.336,-212.965 284,-188 272.68,-175.89 270.984,-156.609 271.636,-142.186"/>
<polygon fill="midnightblue" stroke="midnightblue" points="275.152,-142.154 272.524,-131.891 268.178,-141.553 275.152,-142.154"/>
</g>
<!-- Node19&#45;&gt;Node5 -->
<g id="edge30" class="edge"><title>Node19&#45;&gt;Node5</title>
<path fill="none" stroke="midnightblue" d="M488.32,-224.933C472.041,-215.262 450.523,-202.479 434.322,-192.855"/>
<polygon fill="midnightblue" stroke="midnightblue" points="435.862,-189.698 425.477,-187.6 432.287,-195.717 435.862,-189.698"/>
</g>
<!-- Node19&#45;&gt;Node7 -->
<g id="edge29" class="edge"><title>Node19&#45;&gt;Node7</title>
<path fill="none" stroke="midnightblue" d="M516.199,-224.781C519.136,-214.59 523.046,-200.51 526,-188 534.501,-151.997 542.456,-109.491 546.732,-85.6488"/>
<polygon fill="midnightblue" stroke="midnightblue" points="550.223,-86.0116 548.522,-75.5541 543.33,-84.7895 550.223,-86.0116"/>
</g>
<!-- Node19&#45;&gt;Node8 -->
<g id="edge37" class="edge"><title>Node19&#45;&gt;Node8</title>
<path fill="none" stroke="midnightblue" d="M565.618,-234.077C596.049,-228.219 631.795,-215.503 651,-188 663.264,-170.436 643.819,-150.511 626.344,-137.404"/>
<polygon fill="midnightblue" stroke="midnightblue" points="628.258,-134.47 618.072,-131.557 624.218,-140.187 628.258,-134.47"/>
</g>
<!-- Node19&#45;&gt;Node10 -->
<g id="edge32" class="edge"><title>Node19&#45;&gt;Node10</title>
<path fill="none" stroke="midnightblue" d="M513.965,-224.644C516.638,-199.063 518.417,-145.176 492,-112 476.763,-92.8651 452.136,-81.8242 429.85,-75.4744"/>
<polygon fill="midnightblue" stroke="midnightblue" points="430.707,-72.0809 420.148,-72.9526 428.946,-78.8558 430.707,-72.0809"/>
</g>
<!-- Node20 -->
<g id="node21" class="node"><title>Node20</title>
<polygon fill="white" stroke="#bfbfbf" points="578,-168.5 578,-187.5 642,-187.5 642,-168.5 578,-168.5"/>
<text text-anchor="middle" x="610" y="-175.5" font-family="Helvetica,sans-Serif" font-size="10.00">THStack.h</text>
</g>
<!-- Node19&#45;&gt;Node20 -->
<g id="edge27" class="edge"><title>Node19&#45;&gt;Node20</title>
<path fill="none" stroke="midnightblue" d="M535.225,-224.781C551.028,-215.105 571.832,-202.368 587.483,-192.786"/>
<polygon fill="midnightblue" stroke="midnightblue" points="589.325,-195.762 596.026,-187.556 585.67,-189.792 589.325,-195.762"/>
</g>
<!-- Node21 -->
<g id="node22" class="node"><title>Node21</title>
<g id="a_node22"><a xlink:href="base_2std__ext_2math_8h.html" target="_top" xlink:title="base/std_ext/math.h">
<polygon fill="white" stroke="black" points="686,-112.5 686,-131.5 792,-131.5 792,-112.5 686,-112.5"/>
<text text-anchor="middle" x="739" y="-119.5" font-family="Helvetica,sans-Serif" font-size="10.00">base/std_ext/math.h</text>
</a>
</g>
</g>
<!-- Node19&#45;&gt;Node21 -->
<g id="edge33" class="edge"><title>Node19&#45;&gt;Node21</title>
<path fill="none" stroke="midnightblue" d="M565.62,-227.253C596.59,-219.059 635.52,-206.28 667,-188 689.4,-174.992 710.874,-154.151 724.449,-139.585"/>
<polygon fill="midnightblue" stroke="midnightblue" points="727.349,-141.598 731.476,-131.84 722.165,-136.894 727.349,-141.598"/>
</g>
<!-- Node19&#45;&gt;Node22 -->
<g id="edge38" class="edge"><title>Node19&#45;&gt;Node22</title>
<path fill="none" stroke="midnightblue" d="M565.648,-226.532C608.159,-216.517 669.012,-201.881 722,-188 723.465,-187.616 724.967,-187.216 726.481,-186.808"/>
<polygon fill="midnightblue" stroke="midnightblue" points="727.716,-190.098 736.426,-184.065 725.855,-183.35 727.716,-190.098"/>
</g>
<!-- Node21&#45;&gt;Node7 -->
<g id="edge36" class="edge"><title>Node21&#45;&gt;Node7</title>
<path fill="none" stroke="midnightblue" d="M709.052,-112.444C674.379,-102.537 617.496,-86.2846 581.981,-76.1375"/>
<polygon fill="midnightblue" stroke="midnightblue" points="582.707,-72.7049 572.13,-73.323 580.784,-79.4356 582.707,-72.7049"/>
</g>
<!-- Node21&#45;&gt;Node14 -->
<g id="edge35" class="edge"><title>Node21&#45;&gt;Node14</title>
<path fill="none" stroke="midnightblue" d="M733.036,-112.368C720.494,-94.2153 691.19,-51.8015 674.739,-27.9902"/>
<polygon fill="midnightblue" stroke="midnightblue" points="677.5,-25.8292 668.936,-19.5914 671.741,-29.8083 677.5,-25.8292"/>
</g>
<!-- Node21&#45;&gt;Node17 -->
<g id="edge34" class="edge"><title>Node21&#45;&gt;Node17</title>
<path fill="none" stroke="midnightblue" d="M724.405,-112.368C692.351,-93.4121 615.565,-48.0006 576.575,-24.9424"/>
<polygon fill="midnightblue" stroke="midnightblue" points="577.916,-21.6693 567.527,-19.5914 574.353,-27.6945 577.916,-21.6693"/>
</g>
<!-- Node23&#45;&gt;Node3 -->
<g id="edge42" class="edge"><title>Node23&#45;&gt;Node3</title>
<path fill="none" stroke="midnightblue" d="M110.74,-168.444C147.011,-158.347 206.96,-141.661 243.24,-131.562"/>
<polygon fill="midnightblue" stroke="midnightblue" points="244.551,-134.83 253.247,-128.777 242.674,-128.087 244.551,-134.83"/>
</g>
<!-- Node23&#45;&gt;Node7 -->
<g id="edge43" class="edge"><title>Node23&#45;&gt;Node7</title>
<path fill="none" stroke="midnightblue" d="M106.721,-168.487C132.296,-160.082 171.785,-146.424 205,-132 222.867,-124.241 225.448,-117.941 244,-112 294.604,-95.7939 449.853,-77.7501 517.702,-70.396"/>
<polygon fill="midnightblue" stroke="midnightblue" points="518.242,-73.8582 527.811,-69.3095 517.494,-66.8983 518.242,-73.8582"/>
</g>
<!-- Node23&#45;&gt;Node9 -->
<g id="edge41" class="edge"><title>Node23&#45;&gt;Node9</title>
<path fill="none" stroke="midnightblue" d="M84.7888,-168.083C88.7584,-160.691 94.5251,-149.953 99.4348,-140.811"/>
<polygon fill="midnightblue" stroke="midnightblue" points="102.653,-142.217 104.3,-131.751 96.4855,-138.905 102.653,-142.217"/>
</g>
<!-- Node23&#45;&gt;Node10 -->
<g id="edge40" class="edge"><title>Node23&#45;&gt;Node10</title>
<path fill="none" stroke="midnightblue" d="M96.1924,-168.455C125.909,-152.86 188.193,-120.595 211,-112 249.88,-97.3472 295.484,-85.5014 329.513,-77.6484"/>
<polygon fill="midnightblue" stroke="midnightblue" points="330.705,-80.9671 339.682,-75.3408 329.156,-74.1406 330.705,-80.9671"/>
</g>
<!-- Node24&#45;&gt;Node6 -->
<g id="edge50" class="edge"><title>Node24&#45;&gt;Node6</title>
<path fill="none" stroke="midnightblue" d="M934.243,-168.444C910.781,-158.772 872.65,-143.054 847.948,-132.872"/>
<polygon fill="midnightblue" stroke="midnightblue" points="849.155,-129.584 838.576,-129.008 846.487,-136.055 849.155,-129.584"/>
</g>
<!-- Node24&#45;&gt;Node7 -->
<g id="edge51" class="edge"><title>Node24&#45;&gt;Node7</title>
<path fill="none" stroke="midnightblue" d="M942.206,-168.429C918.162,-152.47 866.866,-119.163 847,-112 755.014,-78.8311 638.45,-70.1096 582.656,-67.817"/>
<polygon fill="midnightblue" stroke="midnightblue" points="582.454,-64.3074 572.333,-67.4389 582.198,-71.3027 582.454,-64.3074"/>
</g>
<!-- Node24&#45;&gt;Node8 -->
<g id="edge49" class="edge"><title>Node24&#45;&gt;Node8</title>
<path fill="none" stroke="midnightblue" d="M920.706,-171.724C854.226,-161.496 708.393,-139.06 640.329,-128.589"/>
<polygon fill="midnightblue" stroke="midnightblue" points="640.513,-125.076 630.098,-127.015 639.449,-131.995 640.513,-125.076"/>
</g>
<!-- Node24&#45;&gt;Node12 -->
<g id="edge52" class="edge"><title>Node24&#45;&gt;Node12</title>
<path fill="none" stroke="midnightblue" d="M959.284,-168.2C964.914,-155.329 973.181,-130.853 965,-112 947.996,-72.8174 907.474,-41.9032 881.188,-25.0609"/>
<polygon fill="midnightblue" stroke="midnightblue" points="882.888,-21.997 872.545,-19.6999 879.198,-27.9455 882.888,-21.997"/>
</g>
<!-- Node25 -->
<g id="node26" class="node"><title>Node25</title>
<polygon fill="white" stroke="#bfbfbf" points="1013,-112.5 1013,-131.5 1109,-131.5 1109,-112.5 1013,-112.5"/>
<text text-anchor="middle" x="1061" y="-119.5" font-family="Helvetica,sans-Serif" font-size="10.00">cereal/access.hpp</text>
</g>
<!-- Node24&#45;&gt;Node25 -->
<g id="edge45" class="edge"><title>Node24&#45;&gt;Node25</title>
<path fill="none" stroke="midnightblue" d="M972.031,-168.324C989.03,-159.664 1015.38,-146.242 1034.99,-136.249"/>
<polygon fill="midnightblue" stroke="midnightblue" points="1036.69,-139.312 1044.01,-131.655 1033.51,-133.075 1036.69,-139.312"/>
</g>
<!-- Node26 -->
<g id="node27" class="node"><title>Node26</title>
<g id="a_node27"><a xlink:href="variadic_8h.html" target="_top" xlink:title="std_ext/variadic.h">
<polygon fill="white" stroke="black" points="1127,-112.5 1127,-131.5 1221,-131.5 1221,-112.5 1127,-112.5"/>
<text text-anchor="middle" x="1174" y="-119.5" font-family="Helvetica,sans-Serif" font-size="10.00">std_ext/variadic.h</text>
</a>
</g>
</g>
<!-- Node24&#45;&gt;Node26 -->
<g id="edge46" class="edge"><title>Node24&#45;&gt;Node26</title>
<path fill="none" stroke="midnightblue" d="M989.219,-168.562C1027.01,-159.245 1087.97,-144.212 1129.46,-133.983"/>
<polygon fill="midnightblue" stroke="midnightblue" points="1130.43,-137.349 1139.3,-131.556 1128.75,-130.552 1130.43,-137.349"/>
</g>
<!-- Node29 -->
<g id="node30" class="node"><title>Node29</title>
<polygon fill="white" stroke="#bfbfbf" points="1239.5,-112.5 1239.5,-131.5 1288.5,-131.5 1288.5,-112.5 1239.5,-112.5"/>
<text text-anchor="middle" x="1264" y="-119.5" font-family="Helvetica,sans-Serif" font-size="10.00">cassert</text>
</g>
<!-- Node24&#45;&gt;Node29 -->
<g id="edge53" class="edge"><title>Node24&#45;&gt;Node29</title>
<path fill="none" stroke="midnightblue" d="M989.066,-172.505C1039.44,-165.623 1136.94,-151.411 1229.39,-131.951"/>
<polygon fill="midnightblue" stroke="midnightblue" points="1230.13,-135.371 1239.18,-129.865 1228.67,-128.525 1230.13,-135.371"/>
</g>
<!-- Node30 -->
<g id="node31" class="node"><title>Node30</title>
<polygon fill="white" stroke="#bfbfbf" points="1306.5,-112.5 1306.5,-131.5 1357.5,-131.5 1357.5,-112.5 1306.5,-112.5"/>
<text text-anchor="middle" x="1332" y="-119.5" font-family="Helvetica,sans-Serif" font-size="10.00">numeric</text>
</g>
<!-- Node24&#45;&gt;Node30 -->
<g id="edge54" class="edge"><title>Node24&#45;&gt;Node30</title>
<path fill="none" stroke="midnightblue" d="M989.199,-173.882C1049.32,-168.103 1178,-154.406 1296.5,-131.868"/>
<polygon fill="midnightblue" stroke="midnightblue" points="1297.31,-135.276 1306.47,-129.946 1295.98,-128.402 1297.31,-135.276"/>
</g>
<!-- Node31 -->
<g id="node32" class="node"><title>Node31</title>
<polygon fill="white" stroke="#bfbfbf" points="895,-112.5 895,-131.5 957,-131.5 957,-112.5 895,-112.5"/>
<text text-anchor="middle" x="926" y="-119.5" font-family="Helvetica,sans-Serif" font-size="10.00">type_traits</text>
</g>
<!-- Node24&#45;&gt;Node31 -->
<g id="edge55" class="edge"><title>Node24&#45;&gt;Node31</title>
<path fill="none" stroke="midnightblue" d="M950.211,-168.083C946.242,-160.691 940.475,-149.953 935.565,-140.811"/>
<polygon fill="midnightblue" stroke="midnightblue" points="938.514,-138.905 930.7,-131.751 932.347,-142.217 938.514,-138.905"/>
</g>
<!-- Node27 -->
<g id="node28" class="node"><title>Node27</title>
<polygon fill="white" stroke="#bfbfbf" points="1118.5,-56.5 1118.5,-75.5 1167.5,-75.5 1167.5,-56.5 1118.5,-56.5"/>
<text text-anchor="middle" x="1143" y="-63.5" font-family="Helvetica,sans-Serif" font-size="10.00">cstddef</text>
</g>
<!-- Node26&#45;&gt;Node27 -->
<g id="edge47" class="edge"><title>Node26&#45;&gt;Node27</title>
<path fill="none" stroke="midnightblue" d="M1168.88,-112.083C1164.59,-104.613 1158.34,-93.7244 1153.06,-84.5199"/>
<polygon fill="midnightblue" stroke="midnightblue" points="1156.04,-82.6811 1148.02,-75.7511 1149.97,-86.1662 1156.04,-82.6811"/>
</g>
<!-- Node28 -->
<g id="node29" class="node"><title>Node28</title>
<polygon fill="white" stroke="#bfbfbf" points="1186,-56.5 1186,-75.5 1224,-75.5 1224,-56.5 1186,-56.5"/>
<text text-anchor="middle" x="1205" y="-63.5" font-family="Helvetica,sans-Serif" font-size="10.00">tuple</text>
</g>
<!-- Node26&#45;&gt;Node28 -->
<g id="edge48" class="edge"><title>Node26&#45;&gt;Node28</title>
<path fill="none" stroke="midnightblue" d="M1179.12,-112.083C1183.41,-104.613 1189.66,-93.7244 1194.94,-84.5199"/>
<polygon fill="midnightblue" stroke="midnightblue" points="1198.03,-86.1662 1199.98,-75.7511 1191.96,-82.6811 1198.03,-86.1662"/>
</g>
</g>
</svg>
