<?xml version="1.0" encoding="UTF-8" standalone="no"?>
<!DOCTYPE svg PUBLIC "-//W3C//DTD SVG 1.1//EN"
 "http://www.w3.org/Graphics/SVG/1.1/DTD/svg11.dtd">
<!-- Generated by graphviz version 2.36.0 (20140111.2315)
 -->
<!-- Title: src/analysis/plot/CutTree.h Pages: 1 -->
<svg width="1657pt" height="106pt"
 viewBox="0.00 0.00 1657.00 106.00" xmlns="http://www.w3.org/2000/svg" xmlns:xlink="http://www.w3.org/1999/xlink">
<g id="graph0" class="graph" transform="scale(1 1) rotate(0) translate(4 102)">
<title>src/analysis/plot/CutTree.h</title>
<polygon fill="white" stroke="none" points="-4,4 -4,-102 1653,-102 1653,4 -4,4"/>
<!-- Node32 -->
<g id="node1" class="node"><title>Node32</title>
<polygon fill="#bfbfbf" stroke="black" points="738,-78.5 738,-97.5 872,-97.5 872,-78.5 738,-78.5"/>
<text text-anchor="middle" x="805" y="-85.5" font-family="Helvetica,sans-Serif" font-size="10.00">src/analysis/plot/CutTree.h</text>
</g>
<!-- Node33 -->
<g id="node2" class="node"><title>Node33</title>
<g id="a_node2"><a xlink:href="_p_i_d_efficiency_check_8cc.html" target="_top" xlink:title="src/analysis/physics\l/check/PIDEfficiencyCheck.cc">
<polygon fill="white" stroke="black" points="0,-6 0,-36 152,-36 152,-6 0,-6"/>
<text text-anchor="start" x="8" y="-24" font-family="Helvetica,sans-Serif" font-size="10.00">src/analysis/physics</text>
<text text-anchor="middle" x="76" y="-13" font-family="Helvetica,sans-Serif" font-size="10.00">/check/PIDEfficiencyCheck.cc</text>
</a>
</g>
</g>
<!-- Node32&#45;&gt;Node33 -->
<g id="edge1" class="edge"><title>Node32&#45;&gt;Node33</title>
<path fill="none" stroke="midnightblue" d="M727.556,-85.6156C606.164,-82.5419 363.966,-72.7639 161,-42 150.808,-40.4551 140.033,-38.3198 129.704,-36.0168"/>
<polygon fill="midnightblue" stroke="midnightblue" points="727.776,-89.1219 737.859,-85.8676 727.947,-82.124 727.776,-89.1219"/>
</g>
<!-- Node34 -->
<g id="node3" class="node"><title>Node34</title>
<g id="a_node3"><a xlink:href="_meson_dalitz_decays__plot_8cc.html" target="_top" xlink:title="src/analysis/physics\l/common/MesonDalitzDecays\l_plot.cc">
<polygon fill="white" stroke="black" points="170.5,-0.5 170.5,-41.5 319.5,-41.5 319.5,-0.5 170.5,-0.5"/>
<text text-anchor="start" x="178.5" y="-29.5" font-family="Helvetica,sans-Serif" font-size="10.00">src/analysis/physics</text>
<text text-anchor="start" x="178.5" y="-18.5" font-family="Helvetica,sans-Serif" font-size="10.00">/common/MesonDalitzDecays</text>
<text text-anchor="middle" x="245" y="-7.5" font-family="Helvetica,sans-Serif" font-size="10.00">_plot.cc</text>
</a>
</g>
</g>
<!-- Node32&#45;&gt;Node34 -->
<g id="edge2" class="edge"><title>Node32&#45;&gt;Node34</title>
<path fill="none" stroke="midnightblue" d="M727.792,-83.1051C633.098,-77.5504 467.92,-65.3358 328,-42 325.222,-41.5367 322.399,-41.032 319.554,-40.4946"/>
<polygon fill="midnightblue" stroke="midnightblue" points="727.672,-86.604 737.857,-83.686 728.076,-79.6156 727.672,-86.604"/>
</g>
<!-- Node35 -->
<g id="node4" class="node"><title>Node35</title>
<g id="a_node4"><a xlink:href="_etap_dalitz__plot_8cc.html" target="_top" xlink:title="src/analysis/physics\l/etaprime/EtapDalitz\l_plot.cc">
<polygon fill="white" stroke="black" points="337,-0.5 337,-41.5 443,-41.5 443,-0.5 337,-0.5"/>
<text text-anchor="start" x="345" y="-29.5" font-family="Helvetica,sans-Serif" font-size="10.00">src/analysis/physics</text>
<text text-anchor="start" x="345" y="-18.5" font-family="Helvetica,sans-Serif" font-size="10.00">/etaprime/EtapDalitz</text>
<text text-anchor="middle" x="390" y="-7.5" font-family="Helvetica,sans-Serif" font-size="10.00">_plot.cc</text>
</a>
</g>
</g>
<!-- Node32&#45;&gt;Node35 -->
<g id="edge3" class="edge"><title>Node32&#45;&gt;Node35</title>
<path fill="none" stroke="midnightblue" d="M727.331,-81.2614C655.328,-74.9623 545.537,-62.8596 452,-42 449.13,-41.3599 446.203,-40.6436 443.261,-39.8731"/>
<polygon fill="midnightblue" stroke="midnightblue" points="727.411,-84.7811 737.673,-82.149 728.009,-77.8067 727.411,-84.7811"/>
</g>
<!-- Node36 -->
<g id="node5" class="node"><title>Node36</title>
<g id="a_node5"><a xlink:href="_etap_omega_g__plot_8cc.html" target="_top" xlink:title="src/analysis/physics\l/etaprime/EtapOmegaG\l_plot.cc">
<polygon fill="white" stroke="black" points="461.5,-0.5 461.5,-41.5 580.5,-41.5 580.5,-0.5 461.5,-0.5"/>
<text text-anchor="start" x="469.5" y="-29.5" font-family="Helvetica,sans-Serif" font-size="10.00">src/analysis/physics</text>
<text text-anchor="start" x="469.5" y="-18.5" font-family="Helvetica,sans-Serif" font-size="10.00">/etaprime/EtapOmegaG</text>
<text text-anchor="middle" x="521" y="-7.5" font-family="Helvetica,sans-Serif" font-size="10.00">_plot.cc</text>
</a>
</g>
</g>
<!-- Node32&#45;&gt;Node36 -->
<g id="edge4" class="edge"><title>Node32&#45;&gt;Node36</title>
<path fill="none" stroke="midnightblue" d="M748.947,-76.6097C705.178,-68.1866 642.945,-55.5289 589,-42 586.255,-41.3115 583.454,-40.5853 580.63,-39.8337"/>
<polygon fill="midnightblue" stroke="midnightblue" points="748.347,-80.0582 758.826,-78.4993 749.662,-73.1829 748.347,-80.0582"/>
</g>
<!-- Node37 -->
<g id="node6" class="node"><title>Node37</title>
<g id="a_node6"><a xlink:href="_omega___eta_g_8cc.html" target="_top" xlink:title="src/analysis/physics\l/omega/Omega_EtaG.cc">
<polygon fill="white" stroke="black" points="598.5,-6 598.5,-36 723.5,-36 723.5,-6 598.5,-6"/>
<text text-anchor="start" x="606.5" y="-24" font-family="Helvetica,sans-Serif" font-size="10.00">src/analysis/physics</text>
<text text-anchor="middle" x="661" y="-13" font-family="Helvetica,sans-Serif" font-size="10.00">/omega/Omega_EtaG.cc</text>
</a>
</g>
</g>
<!-- Node32&#45;&gt;Node37 -->
<g id="edge5" class="edge"><title>Node32&#45;&gt;Node37</title>
<path fill="none" stroke="midnightblue" d="M776.467,-74.1206C752.108,-63.1252 717.141,-47.3413 692.078,-36.0281"/>
<polygon fill="midnightblue" stroke="midnightblue" points="775.323,-77.4443 785.878,-78.3685 778.203,-71.0642 775.323,-77.4443"/>
</g>
<!-- Node38 -->
<g id="node7" class="node"><title>Node38</title>
<g id="a_node7"><a xlink:href="sigma_plus_8cc.html" target="_top" xlink:title="src/analysis/physics\l/production/sigmaPlus.cc">
<polygon fill="white" stroke="black" points="741.5,-6 741.5,-36 868.5,-36 868.5,-6 741.5,-6"/>
<text text-anchor="start" x="749.5" y="-24" font-family="Helvetica,sans-Serif" font-size="10.00">src/analysis/physics</text>
<text text-anchor="middle" x="805" y="-13" font-family="Helvetica,sans-Serif" font-size="10.00">/production/sigmaPlus.cc</text>
</a>
</g>
</g>
<!-- Node32&#45;&gt;Node38 -->
<g id="edge6" class="edge"><title>Node32&#45;&gt;Node38</title>
<path fill="none" stroke="midnightblue" d="M805,-67.9107C805,-57.722 805,-45.401 805,-36.089"/>
<polygon fill="midnightblue" stroke="midnightblue" points="801.5,-68.2338 805,-78.2338 808.5,-68.2338 801.5,-68.2338"/>
</g>
<!-- Node39 -->
<g id="node8" class="node"><title>Node39</title>
<g id="a_node8"><a xlink:href="sigma_plus_plots_8cc.html" target="_top" xlink:title="src/analysis/physics\l/production/sigmaPlusPlots.cc">
<polygon fill="white" stroke="black" points="886.5,-6 886.5,-36 1035.5,-36 1035.5,-6 886.5,-6"/>
<text text-anchor="start" x="894.5" y="-24" font-family="Helvetica,sans-Serif" font-size="10.00">src/analysis/physics</text>
<text text-anchor="middle" x="961" y="-13" font-family="Helvetica,sans-Serif" font-size="10.00">/production/sigmaPlusPlots.cc</text>
</a>
</g>
</g>
<!-- Node32&#45;&gt;Node39 -->
<g id="edge7" class="edge"><title>Node32&#45;&gt;Node39</title>
<path fill="none" stroke="midnightblue" d="M835.209,-74.4127C861.625,-63.4062 899.94,-47.4418 927.333,-36.0281"/>
<polygon fill="midnightblue" stroke="midnightblue" points="833.6,-71.2915 825.716,-78.3685 836.293,-77.7531 833.6,-71.2915"/>
</g>
<!-- Node40 -->
<g id="node9" class="node"><title>Node40</title>
<g id="a_node9"><a xlink:href="single_pi0_plots_8cc.html" target="_top" xlink:title="src/analysis/physics\l/production/singlePi0Plots.cc">
<polygon fill="white" stroke="black" points="1053.5,-6 1053.5,-36 1196.5,-36 1196.5,-6 1053.5,-6"/>
<text text-anchor="start" x="1061.5" y="-24" font-family="Helvetica,sans-Serif" font-size="10.00">src/analysis/physics</text>
<text text-anchor="middle" x="1125" y="-13" font-family="Helvetica,sans-Serif" font-size="10.00">/production/singlePi0Plots.cc</text>
</a>
</g>
</g>
<!-- Node32&#45;&gt;Node40 -->
<g id="edge8" class="edge"><title>Node32&#45;&gt;Node40</title>
<path fill="none" stroke="midnightblue" d="M864.601,-76.7334C913.066,-68.1558 983.141,-55.232 1044,-42 1052.35,-40.1843 1061.16,-38.1433 1069.76,-36.0771"/>
<polygon fill="midnightblue" stroke="midnightblue" points="863.839,-73.3137 854.599,-78.4964 865.054,-80.2075 863.839,-73.3137"/>
</g>
<!-- Node41 -->
<g id="node10" class="node"><title>Node41</title>
<g id="a_node10"><a xlink:href="triple_pi0_8cc.html" target="_top" xlink:title="src/analysis/physics\l/production/triplePi0.cc">
<polygon fill="white" stroke="black" points="1215,-6 1215,-36 1331,-36 1331,-6 1215,-6"/>
<text text-anchor="start" x="1223" y="-24" font-family="Helvetica,sans-Serif" font-size="10.00">src/analysis/physics</text>
<text text-anchor="middle" x="1273" y="-13" font-family="Helvetica,sans-Serif" font-size="10.00">/production/triplePi0.cc</text>
</a>
</g>
</g>
<!-- Node32&#45;&gt;Node41 -->
<g id="edge9" class="edge"><title>Node32&#45;&gt;Node41</title>
<path fill="none" stroke="midnightblue" d="M882.197,-82.3156C963.212,-76.4693 1093.98,-64.3942 1205,-42 1212.96,-40.3941 1221.34,-38.2869 1229.39,-36.0436"/>
<polygon fill="midnightblue" stroke="midnightblue" points="881.808,-78.8343 872.081,-83.0319 882.303,-85.8168 881.808,-78.8343"/>
</g>
<!-- Node42 -->
<g id="node11" class="node"><title>Node42</title>
<g id="a_node11"><a xlink:href="triple_pi0_plots_8cc.html" target="_top" xlink:title="src/analysis/physics\l/production/triplePi0Plots.cc">
<polygon fill="white" stroke="black" points="1349.5,-6 1349.5,-36 1488.5,-36 1488.5,-6 1349.5,-6"/>
<text text-anchor="start" x="1357.5" y="-24" font-family="Helvetica,sans-Serif" font-size="10.00">src/analysis/physics</text>
<text text-anchor="middle" x="1419" y="-13" font-family="Helvetica,sans-Serif" font-size="10.00">/production/triplePi0Plots.cc</text>
</a>
</g>
</g>
<!-- Node32&#45;&gt;Node42 -->
<g id="edge10" class="edge"><title>Node32&#45;&gt;Node42</title>
<path fill="none" stroke="midnightblue" d="M882.149,-84.3938C986.404,-79.9867 1177.79,-68.7655 1339,-42 1348.46,-40.429 1358.45,-38.3104 1368.04,-36.0384"/>
<polygon fill="midnightblue" stroke="midnightblue" points="881.875,-80.9021 872.028,-84.8118 882.164,-87.8961 881.875,-80.9021"/>
</g>
<!-- Node43 -->
<g id="node12" class="node"><title>Node43</title>
<g id="a_node12"><a xlink:href="physics_2tunings_2_trigger_simulation_8cc.html" target="_top" xlink:title="src/analysis/physics\l/tunings/TriggerSimulation.cc">
<polygon fill="white" stroke="black" points="1506.5,-6 1506.5,-36 1649.5,-36 1649.5,-6 1506.5,-6"/>
<text text-anchor="start" x="1514.5" y="-24" font-family="Helvetica,sans-Serif" font-size="10.00">src/analysis/physics</text>
<text text-anchor="middle" x="1578" y="-13" font-family="Helvetica,sans-Serif" font-size="10.00">/tunings/TriggerSimulation.cc</text>
</a>
</g>
</g>
<!-- Node32&#45;&gt;Node43 -->
<g id="edge11" class="edge"><title>Node32&#45;&gt;Node43</title>
<path fill="none" stroke="midnightblue" d="M882.36,-86.4252C1010.78,-84.4767 1275.75,-76.2328 1497,-42 1506.73,-40.494 1517.01,-38.3769 1526.86,-36.0796"/>
<polygon fill="midnightblue" stroke="midnightblue" points="882.18,-82.9274 872.231,-86.5701 882.28,-89.9266 882.18,-82.9274"/>
</g>
</g>
</svg>
