<?xml version="1.0" encoding="UTF-8" standalone="no"?>
<!DOCTYPE svg PUBLIC "-//W3C//DTD SVG 1.1//EN"
 "http://www.w3.org/Graphics/SVG/1.1/DTD/svg11.dtd">
<!-- Generated by graphviz version 2.36.0 (20140111.2315)
 -->
<!-- Title: src/calibration/modules/Energy_GUI.h Pages: 1 -->
<svg width="1236pt" height="186pt"
 viewBox="0.00 0.00 1236.00 186.00" xmlns="http://www.w3.org/2000/svg" xmlns:xlink="http://www.w3.org/1999/xlink">
<g id="graph0" class="graph" transform="scale(1 1) rotate(0) translate(4 182)">
<title>src/calibration/modules/Energy_GUI.h</title>
<polygon fill="white" stroke="none" points="-4,4 -4,-182 1232,-182 1232,4 -4,4"/>
<!-- Node50 -->
<g id="node1" class="node"><title>Node50</title>
<polygon fill="#bfbfbf" stroke="black" points="411.5,-147 411.5,-177 528.5,-177 528.5,-147 411.5,-147"/>
<text text-anchor="start" x="419.5" y="-165" font-family="Helvetica,sans-Serif" font-size="10.00">src/calibration/modules</text>
<text text-anchor="middle" x="470" y="-154" font-family="Helvetica,sans-Serif" font-size="10.00">/Energy_GUI.h</text>
</g>
<!-- Node51 -->
<g id="node2" class="node"><title>Node51</title>
<g id="a_node2"><a xlink:href="_energy___g_u_i_8cc.html" target="_top" xlink:title="src/calibration/modules\l/Energy_GUI.cc">
<polygon fill="white" stroke="black" points="141.5,-79 141.5,-109 258.5,-109 258.5,-79 141.5,-79"/>
<text text-anchor="start" x="149.5" y="-97" font-family="Helvetica,sans-Serif" font-size="10.00">src/calibration/modules</text>
<text text-anchor="middle" x="200" y="-86" font-family="Helvetica,sans-Serif" font-size="10.00">/Energy_GUI.cc</text>
</a>
</g>
</g>
<!-- Node50&#45;&gt;Node51 -->
<g id="edge1" class="edge"><title>Node50&#45;&gt;Node51</title>
<path fill="none" stroke="midnightblue" d="M402.52,-144.505C357.872,-133.591 299.956,-119.434 257.502,-109.056"/>
<polygon fill="midnightblue" stroke="midnightblue" points="401.864,-147.948 412.409,-146.922 403.527,-141.148 401.864,-147.948"/>
</g>
<!-- Node52 -->
<g id="node3" class="node"><title>Node52</title>
<g id="a_node3"><a xlink:href="calibration_2modules_2_p_i_d___energy_8cc.html" target="_top" xlink:title="src/calibration/modules\l/PID_Energy.cc">
<polygon fill="white" stroke="black" points="276.5,-79 276.5,-109 393.5,-109 393.5,-79 276.5,-79"/>
<text text-anchor="start" x="284.5" y="-97" font-family="Helvetica,sans-Serif" font-size="10.00">src/calibration/modules</text>
<text text-anchor="middle" x="335" y="-86" font-family="Helvetica,sans-Serif" font-size="10.00">/PID_Energy.cc</text>
</a>
</g>
</g>
<!-- Node50&#45;&gt;Node52 -->
<g id="edge2" class="edge"><title>Node50&#45;&gt;Node52</title>
<path fill="none" stroke="midnightblue" d="M431.829,-142.339C410.265,-131.796 383.744,-118.83 363.913,-109.135"/>
<polygon fill="midnightblue" stroke="midnightblue" points="430.518,-145.594 441.039,-146.841 433.593,-139.305 430.518,-145.594"/>
</g>
<!-- Node53 -->
<g id="node4" class="node"><title>Node53</title>
<g id="a_node4"><a xlink:href="calibration_2modules_2_t_a_p_s___energy_8cc.html" target="_top" xlink:title="src/calibration/modules\l/TAPS_Energy.cc">
<polygon fill="white" stroke="black" points="411.5,-79 411.5,-109 528.5,-109 528.5,-79 411.5,-79"/>
<text text-anchor="start" x="419.5" y="-97" font-family="Helvetica,sans-Serif" font-size="10.00">src/calibration/modules</text>
<text text-anchor="middle" x="470" y="-86" font-family="Helvetica,sans-Serif" font-size="10.00">/TAPS_Energy.cc</text>
</a>
</g>
</g>
<!-- Node50&#45;&gt;Node53 -->
<g id="edge3" class="edge"><title>Node50&#45;&gt;Node53</title>
<path fill="none" stroke="midnightblue" d="M470,-136.532C470,-127.361 470,-117.245 470,-109.293"/>
<polygon fill="midnightblue" stroke="midnightblue" points="466.5,-136.679 470,-146.679 473.5,-136.679 466.5,-136.679"/>
</g>
<!-- Node54 -->
<g id="node5" class="node"><title>Node54</title>
<g id="a_node5"><a xlink:href="calibration_2modules_2_t_a_p_s___short_energy_8h.html" target="_top" xlink:title="src/calibration/modules\l/TAPS_ShortEnergy.h">
<polygon fill="white" stroke="black" points="546.5,-79 546.5,-109 663.5,-109 663.5,-79 546.5,-79"/>
<text text-anchor="start" x="554.5" y="-97" font-family="Helvetica,sans-Serif" font-size="10.00">src/calibration/modules</text>
<text text-anchor="middle" x="605" y="-86" font-family="Helvetica,sans-Serif" font-size="10.00">/TAPS_ShortEnergy.h</text>
</a>
</g>
</g>
<!-- Node50&#45;&gt;Node54 -->
<g id="edge4" class="edge"><title>Node50&#45;&gt;Node54</title>
<path fill="none" stroke="midnightblue" d="M508.171,-142.339C529.735,-131.796 556.256,-118.83 576.087,-109.135"/>
<polygon fill="midnightblue" stroke="midnightblue" points="506.407,-139.305 498.961,-146.841 509.482,-145.594 506.407,-139.305"/>
</g>
<!-- Node64 -->
<g id="node15" class="node"><title>Node64</title>
<g id="a_node15"><a xlink:href="calibration_2modules_2_t_a_p_s_veto___energy_8cc.html" target="_top" xlink:title="src/calibration/modules\l/TAPSVeto_Energy.cc">
<polygon fill="white" stroke="black" points="681.5,-79 681.5,-109 798.5,-109 798.5,-79 681.5,-79"/>
<text text-anchor="start" x="689.5" y="-97" font-family="Helvetica,sans-Serif" font-size="10.00">src/calibration/modules</text>
<text text-anchor="middle" x="740" y="-86" font-family="Helvetica,sans-Serif" font-size="10.00">/TAPSVeto_Energy.cc</text>
</a>
</g>
</g>
<!-- Node50&#45;&gt;Node64 -->
<g id="edge14" class="edge"><title>Node50&#45;&gt;Node64</title>
<path fill="none" stroke="midnightblue" d="M537.48,-144.505C582.128,-133.591 640.044,-119.434 682.498,-109.056"/>
<polygon fill="midnightblue" stroke="midnightblue" points="536.473,-141.148 527.591,-146.922 538.136,-147.948 536.473,-141.148"/>
</g>
<!-- Node55 -->
<g id="node6" class="node"><title>Node55</title>
<g id="a_node6"><a xlink:href="calibration_2modules_2_t_a_p_s___short_energy_8cc.html" target="_top" xlink:title="src/calibration/modules\l/TAPS_ShortEnergy.cc">
<polygon fill="white" stroke="black" points="-0.5,-6 -0.5,-36 118.5,-36 118.5,-6 -0.5,-6"/>
<text text-anchor="start" x="7.5" y="-24" font-family="Helvetica,sans-Serif" font-size="10.00">src/calibration/modules</text>
<text text-anchor="middle" x="59" y="-13" font-family="Helvetica,sans-Serif" font-size="10.00">/TAPS_ShortEnergy.cc</text>
</a>
</g>
</g>
<!-- Node54&#45;&gt;Node55 -->
<g id="edge5" class="edge"><title>Node54&#45;&gt;Node55</title>
<path fill="none" stroke="midnightblue" d="M536.579,-78.0907C354.416,-51.1264 303.581,-75.3773 127,-42 118.778,-40.4458 110.126,-38.3062 101.852,-36.0018"/>
<polygon fill="midnightblue" stroke="midnightblue" points="536.074,-81.554 546.485,-79.5879 537.121,-74.6326 536.074,-81.554"/>
</g>
<!-- Node56 -->
<g id="node7" class="node"><title>Node56</title>
<g id="a_node7"><a xlink:href="_setup__2007___base_8cc.html" target="_top" xlink:title="src/expconfig/setups\l/Setup_2007_Base.cc">
<polygon fill="white" stroke="black" points="136.5,-6 136.5,-36 249.5,-36 249.5,-6 136.5,-6"/>
<text text-anchor="start" x="144.5" y="-24" font-family="Helvetica,sans-Serif" font-size="10.00">src/expconfig/setups</text>
<text text-anchor="middle" x="193" y="-13" font-family="Helvetica,sans-Serif" font-size="10.00">/Setup_2007_Base.cc</text>
</a>
</g>
</g>
<!-- Node54&#45;&gt;Node56 -->
<g id="edge6" class="edge"><title>Node54&#45;&gt;Node56</title>
<path fill="none" stroke="midnightblue" d="M536.579,-78.0428C412.515,-57.1249 377.718,-67.491 259,-42 251.391,-40.3662 243.391,-38.2727 235.689,-36.0583"/>
<polygon fill="midnightblue" stroke="midnightblue" points="536.011,-81.4965 546.46,-79.7426 537.198,-74.5979 536.011,-81.4965"/>
</g>
<!-- Node57 -->
<g id="node8" class="node"><title>Node57</title>
<g id="a_node8"><a xlink:href="_setup__2010__03___base_8cc.html" target="_top" xlink:title="src/expconfig/setups\l/Setup_2010_03_Base.cc">
<polygon fill="white" stroke="black" points="268,-6 268,-36 396,-36 396,-6 268,-6"/>
<text text-anchor="start" x="276" y="-24" font-family="Helvetica,sans-Serif" font-size="10.00">src/expconfig/setups</text>
<text text-anchor="middle" x="332" y="-13" font-family="Helvetica,sans-Serif" font-size="10.00">/Setup_2010_03_Base.cc</text>
</a>
</g>
</g>
<!-- Node54&#45;&gt;Node57 -->
<g id="edge7" class="edge"><title>Node54&#45;&gt;Node57</title>
<path fill="none" stroke="midnightblue" d="M538.726,-76.4137C499.745,-66.5797 449.521,-53.7742 405,-42 397.886,-40.1186 390.391,-38.1032 383.022,-36.1026"/>
<polygon fill="midnightblue" stroke="midnightblue" points="538.343,-79.9265 548.895,-78.976 540.054,-73.1386 538.343,-79.9265"/>
</g>
<!-- Node58 -->
<g id="node9" class="node"><title>Node58</title>
<g id="a_node9"><a xlink:href="_setup__2014___e_p_t_8cc.html" target="_top" xlink:title="src/expconfig/setups\l/Setup_2014_EPT.cc">
<polygon fill="white" stroke="black" points="414,-6 414,-36 524,-36 524,-6 414,-6"/>
<text text-anchor="start" x="422" y="-24" font-family="Helvetica,sans-Serif" font-size="10.00">src/expconfig/setups</text>
<text text-anchor="middle" x="469" y="-13" font-family="Helvetica,sans-Serif" font-size="10.00">/Setup_2014_EPT.cc</text>
</a>
</g>
</g>
<!-- Node54&#45;&gt;Node58 -->
<g id="edge8" class="edge"><title>Node54&#45;&gt;Node58</title>
<path fill="none" stroke="midnightblue" d="M569.094,-74.2549C546.277,-62.3433 517.205,-47.1661 496.279,-36.2412"/>
<polygon fill="midnightblue" stroke="midnightblue" points="567.646,-77.4474 578.131,-78.9727 570.886,-71.2421 567.646,-77.4474"/>
</g>
<!-- Node59 -->
<g id="node10" class="node"><title>Node59</title>
<g id="a_node10"><a xlink:href="_setup__2015__01___pion_8cc.html" target="_top" xlink:title="src/expconfig/setups\l/Setup_2015_01_Pion.cc">
<polygon fill="white" stroke="black" points="542.5,-6 542.5,-36 667.5,-36 667.5,-6 542.5,-6"/>
<text text-anchor="start" x="550.5" y="-24" font-family="Helvetica,sans-Serif" font-size="10.00">src/expconfig/setups</text>
<text text-anchor="middle" x="605" y="-13" font-family="Helvetica,sans-Serif" font-size="10.00">/Setup_2015_01_Pion.cc</text>
</a>
</g>
</g>
<!-- Node54&#45;&gt;Node59 -->
<g id="edge9" class="edge"><title>Node54&#45;&gt;Node59</title>
<path fill="none" stroke="midnightblue" d="M605,-68.8976C605,-58.1314 605,-45.8005 605,-36.4856"/>
<polygon fill="midnightblue" stroke="midnightblue" points="601.5,-68.9727 605,-78.9727 608.5,-68.9727 601.5,-68.9727"/>
</g>
<!-- Node60 -->
<g id="node11" class="node"><title>Node60</title>
<g id="a_node11"><a xlink:href="_setup__2017__03_8cc.html" target="_top" xlink:title="src/expconfig/setups\l/Setup_2017_03.cc">
<polygon fill="white" stroke="black" points="685.5,-6 685.5,-36 792.5,-36 792.5,-6 685.5,-6"/>
<text text-anchor="start" x="693.5" y="-24" font-family="Helvetica,sans-Serif" font-size="10.00">src/expconfig/setups</text>
<text text-anchor="middle" x="739" y="-13" font-family="Helvetica,sans-Serif" font-size="10.00">/Setup_2017_03.cc</text>
</a>
</g>
</g>
<!-- Node54&#45;&gt;Node60 -->
<g id="edge10" class="edge"><title>Node54&#45;&gt;Node60</title>
<path fill="none" stroke="midnightblue" d="M640.378,-74.2549C662.859,-62.3433 691.503,-47.1661 712.122,-36.2412"/>
<polygon fill="midnightblue" stroke="midnightblue" points="638.672,-71.198 631.474,-78.9727 641.949,-77.3834 638.672,-71.198"/>
</g>
<!-- Node61 -->
<g id="node12" class="node"><title>Node61</title>
<g id="a_node12"><a xlink:href="_setup__2017__05_8cc.html" target="_top" xlink:title="src/expconfig/setups\l/Setup_2017_05.cc">
<polygon fill="white" stroke="black" points="810.5,-6 810.5,-36 917.5,-36 917.5,-6 810.5,-6"/>
<text text-anchor="start" x="818.5" y="-24" font-family="Helvetica,sans-Serif" font-size="10.00">src/expconfig/setups</text>
<text text-anchor="middle" x="864" y="-13" font-family="Helvetica,sans-Serif" font-size="10.00">/Setup_2017_05.cc</text>
</a>
</g>
</g>
<!-- Node54&#45;&gt;Node61 -->
<g id="edge11" class="edge"><title>Node54&#45;&gt;Node61</title>
<path fill="none" stroke="midnightblue" d="M672.168,-76.4566C710.12,-66.8755 758.36,-54.3065 801,-42 807.395,-40.1544 814.126,-38.1185 820.712,-36.0732"/>
<polygon fill="midnightblue" stroke="midnightblue" points="671.095,-73.1173 662.251,-78.9512 672.803,-79.9058 671.095,-73.1173"/>
</g>
<!-- Node62 -->
<g id="node13" class="node"><title>Node62</title>
<g id="a_node13"><a xlink:href="_setup__2017_plus___new_tagger___base_8cc.html" target="_top" xlink:title="src/expconfig/setups\l/Setup_2017Plus_NewTagger\l_Base.cc">
<polygon fill="white" stroke="black" points="936,-0.5 936,-41.5 1082,-41.5 1082,-0.5 936,-0.5"/>
<text text-anchor="start" x="944" y="-29.5" font-family="Helvetica,sans-Serif" font-size="10.00">src/expconfig/setups</text>
<text text-anchor="start" x="944" y="-18.5" font-family="Helvetica,sans-Serif" font-size="10.00">/Setup_2017Plus_NewTagger</text>
<text text-anchor="middle" x="1009" y="-7.5" font-family="Helvetica,sans-Serif" font-size="10.00">_Base.cc</text>
</a>
</g>
</g>
<!-- Node54&#45;&gt;Node62 -->
<g id="edge12" class="edge"><title>Node54&#45;&gt;Node62</title>
<path fill="none" stroke="midnightblue" d="M673.63,-77.9826C786.505,-58.0468 817.603,-62.7233 926,-42 929.203,-41.3877 932.468,-40.7329 935.762,-40.0475"/>
<polygon fill="midnightblue" stroke="midnightblue" points="672.774,-74.5802 663.549,-79.7897 674.009,-81.4704 672.774,-74.5802"/>
</g>
<!-- Node63 -->
<g id="node14" class="node"><title>Node63</title>
<g id="a_node14"><a xlink:href="expconfig__helpers_8cc.html" target="_top" xlink:title="test/expconfig_helpers.cc">
<polygon fill="white" stroke="black" points="1100,-11.5 1100,-30.5 1228,-30.5 1228,-11.5 1100,-11.5"/>
<text text-anchor="middle" x="1164" y="-18.5" font-family="Helvetica,sans-Serif" font-size="10.00">test/expconfig_helpers.cc</text>
</a>
</g>
</g>
<!-- Node54&#45;&gt;Node63 -->
<g id="edge13" class="edge"><title>Node54&#45;&gt;Node63</title>
<path fill="none" stroke="midnightblue" d="M673.603,-78.0641C859.132,-50.7143 910.663,-74.1942 1091,-42 1106.52,-39.2287 1123.53,-34.661 1137.23,-30.5899"/>
<polygon fill="midnightblue" stroke="midnightblue" points="672.882,-74.633 663.514,-79.5816 673.923,-81.5552 672.882,-74.633"/>
</g>
</g>
</svg>
