<?xml version="1.0" encoding="UTF-8" standalone="no"?>
<!DOCTYPE svg PUBLIC "-//W3C//DTD SVG 1.1//EN"
 "http://www.w3.org/Graphics/SVG/1.1/DTD/svg11.dtd">
<!-- Generated by graphviz version 2.36.0 (20140111.2315)
 -->
<!-- Title: src/calibration/modules/Energy.h Pages: 1 -->
<svg width="2060pt" height="186pt"
 viewBox="0.00 0.00 2060.00 186.00" xmlns="http://www.w3.org/2000/svg" xmlns:xlink="http://www.w3.org/1999/xlink">
<g id="graph0" class="graph" transform="scale(1 1) rotate(0) translate(4 182)">
<title>src/calibration/modules/Energy.h</title>
<polygon fill="white" stroke="none" points="-4,4 -4,-182 2056,-182 2056,4 -4,4"/>
<!-- Node50 -->
<g id="node1" class="node"><title>Node50</title>
<polygon fill="#bfbfbf" stroke="black" points="1080.5,-147 1080.5,-177 1197.5,-177 1197.5,-147 1080.5,-147"/>
<text text-anchor="start" x="1088.5" y="-165" font-family="Helvetica,sans-Serif" font-size="10.00">src/calibration/modules</text>
<text text-anchor="middle" x="1139" y="-154" font-family="Helvetica,sans-Serif" font-size="10.00">/Energy.h</text>
</g>
<!-- Node51 -->
<g id="node2" class="node"><title>Node51</title>
<g id="a_node2"><a xlink:href="calibration_2modules_2_c_b___energy_8h.html" target="_top" xlink:title="src/calibration/modules\l/CB_Energy.h">
<polygon fill="white" stroke="black" points="1215.5,-79 1215.5,-109 1332.5,-109 1332.5,-79 1215.5,-79"/>
<text text-anchor="start" x="1223.5" y="-97" font-family="Helvetica,sans-Serif" font-size="10.00">src/calibration/modules</text>
<text text-anchor="middle" x="1274" y="-86" font-family="Helvetica,sans-Serif" font-size="10.00">/CB_Energy.h</text>
</a>
</g>
</g>
<!-- Node50&#45;&gt;Node51 -->
<g id="edge1" class="edge"><title>Node50&#45;&gt;Node51</title>
<path fill="none" stroke="midnightblue" d="M1177.17,-142.339C1198.73,-131.796 1225.26,-118.83 1245.09,-109.135"/>
<polygon fill="midnightblue" stroke="midnightblue" points="1175.41,-139.305 1167.96,-146.841 1178.48,-145.594 1175.41,-139.305"/>
</g>
<!-- Node62 -->
<g id="node13" class="node"><title>Node62</title>
<g id="a_node13"><a xlink:href="calibration_2modules_2_c_b___source_calib_8h.html" target="_top" xlink:title="src/calibration/modules\l/CB_SourceCalib.h">
<polygon fill="white" stroke="black" points="1574.5,-79 1574.5,-109 1691.5,-109 1691.5,-79 1574.5,-79"/>
<text text-anchor="start" x="1582.5" y="-97" font-family="Helvetica,sans-Serif" font-size="10.00">src/calibration/modules</text>
<text text-anchor="middle" x="1633" y="-86" font-family="Helvetica,sans-Serif" font-size="10.00">/CB_SourceCalib.h</text>
</a>
</g>
</g>
<!-- Node50&#45;&gt;Node62 -->
<g id="edge12" class="edge"><title>Node50&#45;&gt;Node62</title>
<path fill="none" stroke="midnightblue" d="M1207.67,-151.825C1305.34,-138.776 1482.69,-115.082 1574.47,-102.82"/>
<polygon fill="midnightblue" stroke="midnightblue" points="1207.06,-148.376 1197.61,-153.17 1207.98,-155.315 1207.06,-148.376"/>
</g>
<!-- Node64 -->
<g id="node15" class="node"><title>Node64</title>
<g id="a_node15"><a xlink:href="_energy_8cc.html" target="_top" xlink:title="src/calibration/modules\l/Energy.cc">
<polygon fill="white" stroke="black" points="1709.5,-79 1709.5,-109 1826.5,-109 1826.5,-79 1709.5,-79"/>
<text text-anchor="start" x="1717.5" y="-97" font-family="Helvetica,sans-Serif" font-size="10.00">src/calibration/modules</text>
<text text-anchor="middle" x="1768" y="-86" font-family="Helvetica,sans-Serif" font-size="10.00">/Energy.cc</text>
</a>
</g>
</g>
<!-- Node50&#45;&gt;Node64 -->
<g id="edge15" class="edge"><title>Node50&#45;&gt;Node64</title>
<path fill="none" stroke="midnightblue" d="M1208.12,-157.536C1314.35,-151.578 1523.93,-137.31 1700,-110 1703.11,-109.518 1706.28,-108.98 1709.48,-108.401"/>
<polygon fill="midnightblue" stroke="midnightblue" points="1207.64,-154.057 1197.85,-158.104 1208.03,-161.046 1207.64,-154.057"/>
</g>
<!-- Node65 -->
<g id="node16" class="node"><title>Node65</title>
<g id="a_node16"><a xlink:href="calibration_2modules_2_p_i_d___energy_8h.html" target="_top" xlink:title="src/calibration/modules\l/PID_Energy.h">
<polygon fill="white" stroke="black" points="1080.5,-79 1080.5,-109 1197.5,-109 1197.5,-79 1080.5,-79"/>
<text text-anchor="start" x="1088.5" y="-97" font-family="Helvetica,sans-Serif" font-size="10.00">src/calibration/modules</text>
<text text-anchor="middle" x="1139" y="-86" font-family="Helvetica,sans-Serif" font-size="10.00">/PID_Energy.h</text>
</a>
</g>
</g>
<!-- Node50&#45;&gt;Node65 -->
<g id="edge16" class="edge"><title>Node50&#45;&gt;Node65</title>
<path fill="none" stroke="midnightblue" d="M1139,-136.532C1139,-127.361 1139,-117.245 1139,-109.293"/>
<polygon fill="midnightblue" stroke="midnightblue" points="1135.5,-136.679 1139,-146.679 1142.5,-136.679 1135.5,-136.679"/>
</g>
<!-- Node67 -->
<g id="node18" class="node"><title>Node67</title>
<g id="a_node18"><a xlink:href="calibration_2modules_2_t_a_p_s___energy_8h.html" target="_top" xlink:title="src/calibration/modules\l/TAPS_Energy.h">
<polygon fill="white" stroke="black" points="810.5,-79 810.5,-109 927.5,-109 927.5,-79 810.5,-79"/>
<text text-anchor="start" x="818.5" y="-97" font-family="Helvetica,sans-Serif" font-size="10.00">src/calibration/modules</text>
<text text-anchor="middle" x="869" y="-86" font-family="Helvetica,sans-Serif" font-size="10.00">/TAPS_Energy.h</text>
</a>
</g>
</g>
<!-- Node50&#45;&gt;Node67 -->
<g id="edge26" class="edge"><title>Node50&#45;&gt;Node67</title>
<path fill="none" stroke="midnightblue" d="M1071.52,-144.505C1026.87,-133.591 968.956,-119.434 926.502,-109.056"/>
<polygon fill="midnightblue" stroke="midnightblue" points="1070.86,-147.948 1081.41,-146.922 1072.53,-141.148 1070.86,-147.948"/>
</g>
<!-- Node69 -->
<g id="node20" class="node"><title>Node69</title>
<g id="a_node20"><a xlink:href="calibration_2modules_2_t_a_p_s___short_energy_8h.html" target="_top" xlink:title="src/calibration/modules\l/TAPS_ShortEnergy.h">
<polygon fill="white" stroke="black" points="675.5,-79 675.5,-109 792.5,-109 792.5,-79 675.5,-79"/>
<text text-anchor="start" x="683.5" y="-97" font-family="Helvetica,sans-Serif" font-size="10.00">src/calibration/modules</text>
<text text-anchor="middle" x="734" y="-86" font-family="Helvetica,sans-Serif" font-size="10.00">/TAPS_ShortEnergy.h</text>
</a>
</g>
</g>
<!-- Node50&#45;&gt;Node69 -->
<g id="edge36" class="edge"><title>Node50&#45;&gt;Node69</title>
<path fill="none" stroke="midnightblue" d="M1070.25,-152.073C1001.79,-142.843 893.797,-127.366 801,-110 798.305,-109.496 795.554,-108.961 792.778,-108.405"/>
<polygon fill="midnightblue" stroke="midnightblue" points="1070.1,-155.584 1080.47,-153.444 1071.03,-148.646 1070.1,-155.584"/>
</g>
<!-- Node71 -->
<g id="node22" class="node"><title>Node71</title>
<g id="a_node22"><a xlink:href="calibration_2modules_2_t_a_p_s_veto___energy_8h.html" target="_top" xlink:title="src/calibration/modules\l/TAPSVeto_Energy.h">
<polygon fill="white" stroke="black" points="945.5,-79 945.5,-109 1062.5,-109 1062.5,-79 945.5,-79"/>
<text text-anchor="start" x="953.5" y="-97" font-family="Helvetica,sans-Serif" font-size="10.00">src/calibration/modules</text>
<text text-anchor="middle" x="1004" y="-86" font-family="Helvetica,sans-Serif" font-size="10.00">/TAPSVeto_Energy.h</text>
</a>
</g>
</g>
<!-- Node50&#45;&gt;Node71 -->
<g id="edge46" class="edge"><title>Node50&#45;&gt;Node71</title>
<path fill="none" stroke="midnightblue" d="M1100.83,-142.339C1079.27,-131.796 1052.74,-118.83 1032.91,-109.135"/>
<polygon fill="midnightblue" stroke="midnightblue" points="1099.52,-145.594 1110.04,-146.841 1102.59,-139.305 1099.52,-145.594"/>
</g>
<!-- Node52 -->
<g id="node3" class="node"><title>Node52</title>
<g id="a_node3"><a xlink:href="calibration_2modules_2_c_b___energy_8cc.html" target="_top" xlink:title="src/calibration/modules\l/CB_Energy.cc">
<polygon fill="white" stroke="black" points="1651.5,-6 1651.5,-36 1768.5,-36 1768.5,-6 1651.5,-6"/>
<text text-anchor="start" x="1659.5" y="-24" font-family="Helvetica,sans-Serif" font-size="10.00">src/calibration/modules</text>
<text text-anchor="middle" x="1710" y="-13" font-family="Helvetica,sans-Serif" font-size="10.00">/CB_Energy.cc</text>
</a>
</g>
</g>
<!-- Node51&#45;&gt;Node52 -->
<g id="edge2" class="edge"><title>Node51&#45;&gt;Node52</title>
<path fill="none" stroke="midnightblue" d="M1342.96,-86.5308C1417.3,-78.8399 1538.87,-64.1852 1642,-42 1649.7,-40.3438 1657.8,-38.2657 1665.62,-36.0801"/>
<polygon fill="midnightblue" stroke="midnightblue" points="1342.38,-83.0715 1332.79,-87.5698 1343.09,-90.0353 1342.38,-83.0715"/>
</g>
<!-- Node53 -->
<g id="node4" class="node"><title>Node53</title>
<g id="a_node4"><a xlink:href="_setup__2007___base_8cc.html" target="_top" xlink:title="src/expconfig/setups\l/Setup_2007_Base.cc">
<polygon fill="white" stroke="black" points="406.5,-6 406.5,-36 519.5,-36 519.5,-6 406.5,-6"/>
<text text-anchor="start" x="414.5" y="-24" font-family="Helvetica,sans-Serif" font-size="10.00">src/expconfig/setups</text>
<text text-anchor="middle" x="463" y="-13" font-family="Helvetica,sans-Serif" font-size="10.00">/Setup_2007_Base.cc</text>
</a>
</g>
</g>
<!-- Node51&#45;&gt;Node53 -->
<g id="edge3" class="edge"><title>Node51&#45;&gt;Node53</title>
<path fill="none" stroke="midnightblue" d="M1204.85,-78.0182C905.571,-38.6696 822.448,-93.4848 529,-42 520.745,-40.5517 512.07,-38.4001 503.821,-36.038"/>
<polygon fill="midnightblue" stroke="midnightblue" points="1204.76,-81.5368 1215.13,-79.3957 1205.69,-74.5988 1204.76,-81.5368"/>
</g>
<!-- Node54 -->
<g id="node5" class="node"><title>Node54</title>
<g id="a_node5"><a xlink:href="_setup__2010__03___base_8cc.html" target="_top" xlink:title="src/expconfig/setups\l/Setup_2010_03_Base.cc">
<polygon fill="white" stroke="black" points="538,-6 538,-36 666,-36 666,-6 538,-6"/>
<text text-anchor="start" x="546" y="-24" font-family="Helvetica,sans-Serif" font-size="10.00">src/expconfig/setups</text>
<text text-anchor="middle" x="602" y="-13" font-family="Helvetica,sans-Serif" font-size="10.00">/Setup_2010_03_Base.cc</text>
</a>
</g>
</g>
<!-- Node51&#45;&gt;Node54 -->
<g id="edge4" class="edge"><title>Node51&#45;&gt;Node54</title>
<path fill="none" stroke="midnightblue" d="M1205.25,-78.0656C970.017,-45.4627 904.927,-80.8893 675,-42 666.06,-40.4879 656.636,-38.338 647.638,-36.0039"/>
<polygon fill="midnightblue" stroke="midnightblue" points="1205.1,-81.5793 1215.5,-79.513 1206.08,-74.6481 1205.1,-81.5793"/>
</g>
<!-- Node55 -->
<g id="node6" class="node"><title>Node55</title>
<g id="a_node6"><a xlink:href="_setup__2014___e_p_t_8cc.html" target="_top" xlink:title="src/expconfig/setups\l/Setup_2014_EPT.cc">
<polygon fill="white" stroke="black" points="684,-6 684,-36 794,-36 794,-6 684,-6"/>
<text text-anchor="start" x="692" y="-24" font-family="Helvetica,sans-Serif" font-size="10.00">src/expconfig/setups</text>
<text text-anchor="middle" x="739" y="-13" font-family="Helvetica,sans-Serif" font-size="10.00">/Setup_2014_EPT.cc</text>
</a>
</g>
</g>
<!-- Node51&#45;&gt;Node55 -->
<g id="edge5" class="edge"><title>Node51&#45;&gt;Node55</title>
<path fill="none" stroke="midnightblue" d="M1205.47,-78.0744C1026.47,-51.5113 976.195,-76.3858 803,-42 795.236,-40.4585 787.08,-38.3248 779.29,-36.0222"/>
<polygon fill="midnightblue" stroke="midnightblue" points="1205.07,-81.5538 1215.48,-79.5935 1206.12,-74.633 1205.07,-81.5538"/>
</g>
<!-- Node56 -->
<g id="node7" class="node"><title>Node56</title>
<g id="a_node7"><a xlink:href="_setup__2015__01___pion_8cc.html" target="_top" xlink:title="src/expconfig/setups\l/Setup_2015_01_Pion.cc">
<polygon fill="white" stroke="black" points="812.5,-6 812.5,-36 937.5,-36 937.5,-6 812.5,-6"/>
<text text-anchor="start" x="820.5" y="-24" font-family="Helvetica,sans-Serif" font-size="10.00">src/expconfig/setups</text>
<text text-anchor="middle" x="875" y="-13" font-family="Helvetica,sans-Serif" font-size="10.00">/Setup_2015_01_Pion.cc</text>
</a>
</g>
</g>
<!-- Node51&#45;&gt;Node56 -->
<g id="edge6" class="edge"><title>Node51&#45;&gt;Node56</title>
<path fill="none" stroke="midnightblue" d="M1205.46,-78.0095C1089.42,-57.8572 1057.07,-65.2185 946,-42 937.978,-40.3229 929.529,-38.2344 921.368,-36.0449"/>
<polygon fill="midnightblue" stroke="midnightblue" points="1205,-81.4811 1215.45,-79.7756 1206.22,-74.588 1205,-81.4811"/>
</g>
<!-- Node57 -->
<g id="node8" class="node"><title>Node57</title>
<g id="a_node8"><a xlink:href="_setup__2017__03_8cc.html" target="_top" xlink:title="src/expconfig/setups\l/Setup_2017_03.cc">
<polygon fill="white" stroke="black" points="955.5,-6 955.5,-36 1062.5,-36 1062.5,-6 955.5,-6"/>
<text text-anchor="start" x="963.5" y="-24" font-family="Helvetica,sans-Serif" font-size="10.00">src/expconfig/setups</text>
<text text-anchor="middle" x="1009" y="-13" font-family="Helvetica,sans-Serif" font-size="10.00">/Setup_2017_03.cc</text>
</a>
</g>
</g>
<!-- Node51&#45;&gt;Node57 -->
<g id="edge7" class="edge"><title>Node51&#45;&gt;Node57</title>
<path fill="none" stroke="midnightblue" d="M1205.31,-76.9349C1165.84,-67.4078 1115.44,-54.7352 1071,-42 1064.59,-40.1617 1057.83,-38.1085 1051.24,-36.037"/>
<polygon fill="midnightblue" stroke="midnightblue" points="1204.56,-80.3534 1215.1,-79.2874 1206.19,-73.5472 1204.56,-80.3534"/>
</g>
<!-- Node58 -->
<g id="node9" class="node"><title>Node58</title>
<g id="a_node9"><a xlink:href="_setup__2017__05_8cc.html" target="_top" xlink:title="src/expconfig/setups\l/Setup_2017_05.cc">
<polygon fill="white" stroke="black" points="1080.5,-6 1080.5,-36 1187.5,-36 1187.5,-6 1080.5,-6"/>
<text text-anchor="start" x="1088.5" y="-24" font-family="Helvetica,sans-Serif" font-size="10.00">src/expconfig/setups</text>
<text text-anchor="middle" x="1134" y="-13" font-family="Helvetica,sans-Serif" font-size="10.00">/Setup_2017_05.cc</text>
</a>
</g>
</g>
<!-- Node51&#45;&gt;Node58 -->
<g id="edge8" class="edge"><title>Node51&#45;&gt;Node58</title>
<path fill="none" stroke="midnightblue" d="M1237.35,-74.4135C1213.82,-62.4783 1183.72,-47.2147 1162.08,-36.2412"/>
<polygon fill="midnightblue" stroke="midnightblue" points="1235.84,-77.5711 1246.34,-78.9727 1239,-71.3281 1235.84,-77.5711"/>
</g>
<!-- Node59 -->
<g id="node10" class="node"><title>Node59</title>
<g id="a_node10"><a xlink:href="_setup__2017_plus___new_tagger___base_8cc.html" target="_top" xlink:title="src/expconfig/setups\l/Setup_2017Plus_NewTagger\l_Base.cc">
<polygon fill="white" stroke="black" points="1206,-0.5 1206,-41.5 1352,-41.5 1352,-0.5 1206,-0.5"/>
<text text-anchor="start" x="1214" y="-29.5" font-family="Helvetica,sans-Serif" font-size="10.00">src/expconfig/setups</text>
<text text-anchor="start" x="1214" y="-18.5" font-family="Helvetica,sans-Serif" font-size="10.00">/Setup_2017Plus_NewTagger</text>
<text text-anchor="middle" x="1279" y="-7.5" font-family="Helvetica,sans-Serif" font-size="10.00">_Base.cc</text>
</a>
</g>
</g>
<!-- Node51&#45;&gt;Node59 -->
<g id="edge9" class="edge"><title>Node51&#45;&gt;Node59</title>
<path fill="none" stroke="midnightblue" d="M1275.7,-68.8534C1276.32,-59.9872 1277.02,-50.065 1277.62,-41.642"/>
<polygon fill="midnightblue" stroke="midnightblue" points="1272.2,-68.7515 1274.99,-78.9727 1279.18,-69.2433 1272.2,-68.7515"/>
</g>
<!-- Node60 -->
<g id="node11" class="node"><title>Node60</title>
<g id="a_node11"><a xlink:href="_setup___c_b_source_calib_8cc.html" target="_top" xlink:title="src/expconfig/setups\l/Setup_CBSourceCalib.cc">
<polygon fill="white" stroke="black" points="1786.5,-6 1786.5,-36 1917.5,-36 1917.5,-6 1786.5,-6"/>
<text text-anchor="start" x="1794.5" y="-24" font-family="Helvetica,sans-Serif" font-size="10.00">src/expconfig/setups</text>
<text text-anchor="middle" x="1852" y="-13" font-family="Helvetica,sans-Serif" font-size="10.00">/Setup_CBSourceCalib.cc</text>
</a>
</g>
</g>
<!-- Node51&#45;&gt;Node60 -->
<g id="edge10" class="edge"><title>Node51&#45;&gt;Node60</title>
<path fill="none" stroke="midnightblue" d="M1342.51,-89.5255C1439.77,-83.8084 1623.14,-70.1285 1777,-42 1785.75,-40.4005 1794.97,-38.2964 1803.84,-36.0542"/>
<polygon fill="midnightblue" stroke="midnightblue" points="1342.3,-86.032 1332.51,-90.1028 1342.7,-93.0203 1342.3,-86.032"/>
</g>
<!-- Node61 -->
<g id="node12" class="node"><title>Node61</title>
<g id="a_node12"><a xlink:href="expconfig__helpers_8cc.html" target="_top" xlink:title="test/expconfig_helpers.cc">
<polygon fill="white" stroke="black" points="1370,-11.5 1370,-30.5 1498,-30.5 1498,-11.5 1370,-11.5"/>
<text text-anchor="middle" x="1434" y="-18.5" font-family="Helvetica,sans-Serif" font-size="10.00">test/expconfig_helpers.cc</text>
</a>
</g>
</g>
<!-- Node51&#45;&gt;Node61 -->
<g id="edge11" class="edge"><title>Node51&#45;&gt;Node61</title>
<path fill="none" stroke="midnightblue" d="M1315.14,-74.742C1347.1,-60.5618 1389.98,-41.5343 1414.54,-30.6372"/>
<polygon fill="midnightblue" stroke="midnightblue" points="1313.33,-71.7174 1305.61,-78.9727 1316.17,-78.1157 1313.33,-71.7174"/>
</g>
<!-- Node62&#45;&gt;Node60 -->
<g id="edge14" class="edge"><title>Node62&#45;&gt;Node60</title>
<path fill="none" stroke="midnightblue" d="M1686.02,-75.8125C1723.54,-63.6483 1773.24,-47.534 1808.45,-36.1195"/>
<polygon fill="midnightblue" stroke="midnightblue" points="1684.7,-72.5592 1676.27,-78.9727 1686.86,-79.218 1684.7,-72.5592"/>
</g>
<!-- Node63 -->
<g id="node14" class="node"><title>Node63</title>
<g id="a_node14"><a xlink:href="calibration_2modules_2_c_b___source_calib_8cc.html" target="_top" xlink:title="src/calibration/modules\l/CB_SourceCalib.cc">
<polygon fill="white" stroke="black" points="1935.5,-6 1935.5,-36 2052.5,-36 2052.5,-6 1935.5,-6"/>
<text text-anchor="start" x="1943.5" y="-24" font-family="Helvetica,sans-Serif" font-size="10.00">src/calibration/modules</text>
<text text-anchor="middle" x="1994" y="-13" font-family="Helvetica,sans-Serif" font-size="10.00">/CB_SourceCalib.cc</text>
</a>
</g>
</g>
<!-- Node62&#45;&gt;Node63 -->
<g id="edge13" class="edge"><title>Node62&#45;&gt;Node63</title>
<path fill="none" stroke="midnightblue" d="M1701.54,-77.9818C1802.23,-59.3855 1830.31,-63.6351 1926,-42 1933.56,-40.2904 1941.52,-38.211 1949.22,-36.0473"/>
<polygon fill="midnightblue" stroke="midnightblue" points="1700.74,-74.5695 1691.56,-79.8544 1702.03,-81.4494 1700.74,-74.5695"/>
</g>
<!-- Node65&#45;&gt;Node53 -->
<g id="edge18" class="edge"><title>Node65&#45;&gt;Node53</title>
<path fill="none" stroke="midnightblue" d="M1070.41,-78.0902C830.178,-45.0169 763.26,-84.6957 529,-42 520.873,-40.5187 512.332,-38.383 504.191,-36.0532"/>
<polygon fill="midnightblue" stroke="midnightblue" points="1070.11,-81.5824 1080.5,-79.5078 1071.08,-74.6505 1070.11,-81.5824"/>
</g>
<!-- Node65&#45;&gt;Node54 -->
<g id="edge19" class="edge"><title>Node65&#45;&gt;Node54</title>
<path fill="none" stroke="midnightblue" d="M1070.37,-78.0548C894.558,-51.7302 845.674,-72.8875 675,-42 666.336,-40.4321 657.208,-38.315 648.45,-36.0435"/>
<polygon fill="midnightblue" stroke="midnightblue" points="1070.07,-81.5488 1080.48,-79.5994 1071.13,-74.6291 1070.07,-81.5488"/>
</g>
<!-- Node65&#45;&gt;Node55 -->
<g id="edge20" class="edge"><title>Node65&#45;&gt;Node55</title>
<path fill="none" stroke="midnightblue" d="M1070.54,-78.032C950.897,-57.5909 917.237,-67.3307 803,-42 795.613,-40.362 787.851,-38.2664 780.381,-36.0512"/>
<polygon fill="midnightblue" stroke="midnightblue" points="1070,-81.4906 1080.46,-79.7604 1071.21,-74.5947 1070,-81.4906"/>
</g>
<!-- Node65&#45;&gt;Node56 -->
<g id="edge21" class="edge"><title>Node65&#45;&gt;Node56</title>
<path fill="none" stroke="midnightblue" d="M1075.05,-76.3794C1037.43,-66.5338 988.968,-53.7281 946,-42 939.082,-40.1116 931.793,-38.0924 924.626,-36.0899"/>
<polygon fill="midnightblue" stroke="midnightblue" points="1074.3,-79.8016 1084.86,-78.9451 1076.07,-73.0292 1074.3,-79.8016"/>
</g>
<!-- Node65&#45;&gt;Node57 -->
<g id="edge22" class="edge"><title>Node65&#45;&gt;Node57</title>
<path fill="none" stroke="midnightblue" d="M1104.39,-74.0959C1082.62,-62.2085 1054.99,-47.1176 1035.08,-36.2412"/>
<polygon fill="midnightblue" stroke="midnightblue" points="1102.86,-77.2511 1113.32,-78.9727 1106.22,-71.1076 1102.86,-77.2511"/>
</g>
<!-- Node65&#45;&gt;Node58 -->
<g id="edge23" class="edge"><title>Node65&#45;&gt;Node58</title>
<path fill="none" stroke="midnightblue" d="M1137.3,-68.8976C1136.54,-58.1314 1135.68,-45.8005 1135.02,-36.4856"/>
<polygon fill="midnightblue" stroke="midnightblue" points="1133.82,-69.2433 1138.01,-78.9727 1140.8,-68.7515 1133.82,-69.2433"/>
</g>
<!-- Node65&#45;&gt;Node59 -->
<g id="edge24" class="edge"><title>Node65&#45;&gt;Node59</title>
<path fill="none" stroke="midnightblue" d="M1175.75,-74.3643C1195.69,-64.2492 1220.33,-51.7546 1240.53,-41.5075"/>
<polygon fill="midnightblue" stroke="midnightblue" points="1174,-71.3281 1166.66,-78.9727 1177.16,-77.5711 1174,-71.3281"/>
</g>
<!-- Node65&#45;&gt;Node61 -->
<g id="edge25" class="edge"><title>Node65&#45;&gt;Node61</title>
<path fill="none" stroke="midnightblue" d="M1207.47,-77.5984C1261.49,-65.3859 1332.34,-49.2137 1361,-42 1375.14,-38.4392 1390.75,-34.2063 1403.88,-30.5534"/>
<polygon fill="midnightblue" stroke="midnightblue" points="1206.58,-74.212 1197.59,-79.8296 1208.12,-81.04 1206.58,-74.212"/>
</g>
<!-- Node66 -->
<g id="node17" class="node"><title>Node66</title>
<g id="a_node17"><a xlink:href="calibration_2modules_2_p_i_d___energy_8cc.html" target="_top" xlink:title="src/calibration/modules\l/PID_Energy.cc">
<polygon fill="white" stroke="black" points="1516.5,-6 1516.5,-36 1633.5,-36 1633.5,-6 1516.5,-6"/>
<text text-anchor="start" x="1524.5" y="-24" font-family="Helvetica,sans-Serif" font-size="10.00">src/calibration/modules</text>
<text text-anchor="middle" x="1575" y="-13" font-family="Helvetica,sans-Serif" font-size="10.00">/PID_Energy.cc</text>
</a>
</g>
</g>
<!-- Node65&#45;&gt;Node66 -->
<g id="edge17" class="edge"><title>Node65&#45;&gt;Node66</title>
<path fill="none" stroke="midnightblue" d="M1207.9,-77.7834C1340.62,-55.9052 1378.25,-68.4411 1507,-42 1514.84,-40.391 1523.08,-38.3097 1531.01,-36.0996"/>
<polygon fill="midnightblue" stroke="midnightblue" points="1207.04,-74.3798 1197.76,-79.4918 1208.2,-81.2826 1207.04,-74.3798"/>
</g>
<!-- Node67&#45;&gt;Node53 -->
<g id="edge28" class="edge"><title>Node67&#45;&gt;Node53</title>
<path fill="none" stroke="midnightblue" d="M800.409,-78.0104C679.12,-57.3972 645.047,-67.0879 529,-42 521.393,-40.3555 513.395,-38.2568 505.693,-36.0405"/>
<polygon fill="midnightblue" stroke="midnightblue" points="800.007,-81.4929 810.458,-79.7531 801.203,-74.5959 800.007,-81.4929"/>
</g>
<!-- Node67&#45;&gt;Node54 -->
<g id="edge29" class="edge"><title>Node67&#45;&gt;Node54</title>
<path fill="none" stroke="midnightblue" d="M805.149,-76.3918C767.291,-66.5003 718.38,-53.6441 675,-42 667.893,-40.0923 660.402,-38.0622 653.035,-36.0545"/>
<polygon fill="midnightblue" stroke="midnightblue" points="804.462,-79.8296 815.022,-78.9696 806.23,-73.0567 804.462,-79.8296"/>
</g>
<!-- Node67&#45;&gt;Node55 -->
<g id="edge30" class="edge"><title>Node67&#45;&gt;Node55</title>
<path fill="none" stroke="midnightblue" d="M834.387,-74.0959C812.621,-62.2085 784.99,-47.1176 765.075,-36.2412"/>
<polygon fill="midnightblue" stroke="midnightblue" points="832.862,-77.2511 843.316,-78.9727 836.217,-71.1076 832.862,-77.2511"/>
</g>
<!-- Node67&#45;&gt;Node56 -->
<g id="edge31" class="edge"><title>Node67&#45;&gt;Node56</title>
<path fill="none" stroke="midnightblue" d="M871.037,-68.8976C871.947,-58.1314 872.989,-45.8005 873.776,-36.4856"/>
<polygon fill="midnightblue" stroke="midnightblue" points="867.54,-68.7134 870.185,-78.9727 874.515,-69.303 867.54,-68.7134"/>
</g>
<!-- Node67&#45;&gt;Node57 -->
<g id="edge32" class="edge"><title>Node67&#45;&gt;Node57</title>
<path fill="none" stroke="midnightblue" d="M905.649,-74.4135C929.184,-62.4783 959.281,-47.2147 980.919,-36.2412"/>
<polygon fill="midnightblue" stroke="midnightblue" points="903.995,-71.3281 896.659,-78.9727 907.161,-77.5711 903.995,-71.3281"/>
</g>
<!-- Node67&#45;&gt;Node58 -->
<g id="edge33" class="edge"><title>Node67&#45;&gt;Node58</title>
<path fill="none" stroke="midnightblue" d="M937.326,-76.8318C976.588,-67.2711 1026.74,-54.5993 1071,-42 1077.51,-40.1462 1084.37,-38.0845 1091.06,-36.0093"/>
<polygon fill="midnightblue" stroke="midnightblue" points="936.482,-73.4348 927.589,-79.1935 938.132,-80.2376 936.482,-73.4348"/>
</g>
<!-- Node67&#45;&gt;Node59 -->
<g id="edge34" class="edge"><title>Node67&#45;&gt;Node59</title>
<path fill="none" stroke="midnightblue" d="M937.658,-77.7868C1052.53,-57.5708 1084.51,-63.0975 1196,-42 1199.2,-41.3937 1202.47,-40.7439 1205.76,-40.0626"/>
<polygon fill="midnightblue" stroke="midnightblue" points="936.999,-74.3492 927.77,-79.554 938.23,-81.24 936.999,-74.3492"/>
</g>
<!-- Node67&#45;&gt;Node61 -->
<g id="edge35" class="edge"><title>Node67&#45;&gt;Node61</title>
<path fill="none" stroke="midnightblue" d="M937.645,-77.8785C1125.15,-50.0963 1177.55,-74.6165 1361,-42 1376.53,-39.2397 1393.54,-34.6726 1407.23,-30.5992"/>
<polygon fill="midnightblue" stroke="midnightblue" points="937.105,-74.4203 927.74,-79.3756 938.151,-81.3416 937.105,-74.4203"/>
</g>
<!-- Node68 -->
<g id="node19" class="node"><title>Node68</title>
<g id="a_node19"><a xlink:href="calibration_2modules_2_t_a_p_s___energy_8cc.html" target="_top" xlink:title="src/calibration/modules\l/TAPS_Energy.cc">
<polygon fill="white" stroke="black" points="136.5,-6 136.5,-36 253.5,-36 253.5,-6 136.5,-6"/>
<text text-anchor="start" x="144.5" y="-24" font-family="Helvetica,sans-Serif" font-size="10.00">src/calibration/modules</text>
<text text-anchor="middle" x="195" y="-13" font-family="Helvetica,sans-Serif" font-size="10.00">/TAPS_Energy.cc</text>
</a>
</g>
</g>
<!-- Node67&#45;&gt;Node68 -->
<g id="edge27" class="edge"><title>Node67&#45;&gt;Node68</title>
<path fill="none" stroke="midnightblue" d="M800.46,-78.0969C561.513,-45.1387 495.049,-84.0201 262,-42 253.757,-40.5137 245.09,-38.3757 236.827,-36.0452"/>
<polygon fill="midnightblue" stroke="midnightblue" points="800.107,-81.5815 810.497,-79.5092 801.082,-74.6498 800.107,-81.5815"/>
</g>
<!-- Node69&#45;&gt;Node53 -->
<g id="edge38" class="edge"><title>Node69&#45;&gt;Node53</title>
<path fill="none" stroke="midnightblue" d="M665.573,-76.89C625.618,-67.2557 574.305,-54.4914 529,-42 522.306,-40.1542 515.257,-38.1182 508.358,-36.0729"/>
<polygon fill="midnightblue" stroke="midnightblue" points="664.935,-80.3362 675.476,-79.2699 666.571,-73.53 664.935,-80.3362"/>
</g>
<!-- Node69&#45;&gt;Node54 -->
<g id="edge39" class="edge"><title>Node69&#45;&gt;Node54</title>
<path fill="none" stroke="midnightblue" d="M698.854,-74.0959C676.754,-62.2085 648.697,-47.1176 628.477,-36.2412"/>
<polygon fill="midnightblue" stroke="midnightblue" points="697.456,-77.318 707.921,-78.9727 700.772,-71.1532 697.456,-77.318"/>
</g>
<!-- Node69&#45;&gt;Node55 -->
<g id="edge40" class="edge"><title>Node69&#45;&gt;Node55</title>
<path fill="none" stroke="midnightblue" d="M735.697,-68.8976C736.456,-58.1314 737.324,-45.8005 737.98,-36.4856"/>
<polygon fill="midnightblue" stroke="midnightblue" points="732.199,-68.7515 734.988,-78.9727 739.182,-69.2433 732.199,-68.7515"/>
</g>
<!-- Node69&#45;&gt;Node56 -->
<g id="edge41" class="edge"><title>Node69&#45;&gt;Node56</title>
<path fill="none" stroke="midnightblue" d="M770.911,-74.4135C794.613,-62.4783 824.926,-47.2147 846.718,-36.2412"/>
<polygon fill="midnightblue" stroke="midnightblue" points="769.215,-71.3491 761.857,-78.9727 772.363,-77.6012 769.215,-71.3491"/>
</g>
<!-- Node69&#45;&gt;Node57 -->
<g id="edge42" class="edge"><title>Node69&#45;&gt;Node57</title>
<path fill="none" stroke="midnightblue" d="M802.535,-77.0711C853.736,-65.0656 919.291,-49.4419 946,-42 952.522,-40.1828 959.384,-38.1408 966.083,-36.0743"/>
<polygon fill="midnightblue" stroke="midnightblue" points="801.44,-73.7326 792.502,-79.4204 803.036,-80.5482 801.44,-73.7326"/>
</g>
<!-- Node69&#45;&gt;Node58 -->
<g id="edge43" class="edge"><title>Node69&#45;&gt;Node58</title>
<path fill="none" stroke="midnightblue" d="M802.652,-77.8055C921.966,-57.3437 955.97,-67.7198 1071,-42 1078.28,-40.3724 1085.92,-38.282 1093.28,-36.0686"/>
<polygon fill="midnightblue" stroke="midnightblue" points="802.013,-74.364 792.767,-79.5371 803.221,-81.259 802.013,-74.364"/>
</g>
<!-- Node69&#45;&gt;Node59 -->
<g id="edge44" class="edge"><title>Node69&#45;&gt;Node59</title>
<path fill="none" stroke="midnightblue" d="M802.759,-77.8487C976.939,-51.4132 1025.3,-70.191 1196,-42 1199.22,-41.4687 1202.49,-40.8809 1205.8,-40.2505"/>
<polygon fill="midnightblue" stroke="midnightblue" points="802.092,-74.4103 792.744,-79.3971 803.161,-81.3281 802.092,-74.4103"/>
</g>
<!-- Node69&#45;&gt;Node61 -->
<g id="edge45" class="edge"><title>Node69&#45;&gt;Node61</title>
<path fill="none" stroke="midnightblue" d="M802.725,-77.8972C1049.69,-43.7027 1118.26,-82.6201 1361,-42 1376.81,-39.3541 1394.13,-34.6878 1407.93,-30.5278"/>
<polygon fill="midnightblue" stroke="midnightblue" points="802.143,-74.4445 792.73,-79.3072 803.121,-81.3758 802.143,-74.4445"/>
</g>
<!-- Node70 -->
<g id="node21" class="node"><title>Node70</title>
<g id="a_node21"><a xlink:href="calibration_2modules_2_t_a_p_s___short_energy_8cc.html" target="_top" xlink:title="src/calibration/modules\l/TAPS_ShortEnergy.cc">
<polygon fill="white" stroke="black" points="-0.5,-6 -0.5,-36 118.5,-36 118.5,-6 -0.5,-6"/>
<text text-anchor="start" x="7.5" y="-24" font-family="Helvetica,sans-Serif" font-size="10.00">src/calibration/modules</text>
<text text-anchor="middle" x="59" y="-13" font-family="Helvetica,sans-Serif" font-size="10.00">/TAPS_ShortEnergy.cc</text>
</a>
</g>
</g>
<!-- Node69&#45;&gt;Node70 -->
<g id="edge37" class="edge"><title>Node69&#45;&gt;Node70</title>
<path fill="none" stroke="midnightblue" d="M665.05,-91.7322C551.817,-88.6418 319.786,-78.0654 127,-42 118.775,-40.4613 110.122,-38.3289 101.848,-36.0268"/>
<polygon fill="midnightblue" stroke="midnightblue" points="665.214,-95.2376 675.302,-92.0003 665.397,-88.24 665.214,-95.2376"/>
</g>
<!-- Node71&#45;&gt;Node53 -->
<g id="edge48" class="edge"><title>Node71&#45;&gt;Node53</title>
<path fill="none" stroke="midnightblue" d="M935.378,-78.0608C754.696,-51.3084 704.064,-75.8913 529,-42 521.007,-40.4526 512.603,-38.3161 504.571,-36.0127"/>
<polygon fill="midnightblue" stroke="midnightblue" points="935.074,-81.5545 945.485,-79.5903 936.121,-74.6333 935.074,-81.5545"/>
</g>
<!-- Node71&#45;&gt;Node54 -->
<g id="edge49" class="edge"><title>Node71&#45;&gt;Node54</title>
<path fill="none" stroke="midnightblue" d="M935.43,-78.0032C818.974,-57.7934 786.575,-64.8775 675,-42 666.761,-40.3107 658.08,-38.2161 649.691,-36.0244"/>
<polygon fill="midnightblue" stroke="midnightblue" points="934.998,-81.481 945.454,-79.7736 936.215,-74.5877 934.998,-81.481"/>
</g>
<!-- Node71&#45;&gt;Node55 -->
<g id="edge50" class="edge"><title>Node71&#45;&gt;Node55</title>
<path fill="none" stroke="midnightblue" d="M935.117,-76.5052C896.196,-66.9394 846.726,-54.3695 803,-42 796.503,-40.1621 789.665,-38.1304 782.974,-36.0871"/>
<polygon fill="midnightblue" stroke="midnightblue" points="934.741,-80.0165 945.287,-78.9953 936.406,-73.2173 934.741,-80.0165"/>
</g>
<!-- Node71&#45;&gt;Node56 -->
<g id="edge51" class="edge"><title>Node71&#45;&gt;Node56</title>
<path fill="none" stroke="midnightblue" d="M969.653,-74.0959C948.055,-62.2085 920.636,-47.1176 900.875,-36.2412"/>
<polygon fill="midnightblue" stroke="midnightblue" points="968.065,-77.2171 978.514,-78.9727 971.441,-71.0846 968.065,-77.2171"/>
</g>
<!-- Node71&#45;&gt;Node57 -->
<g id="edge52" class="edge"><title>Node71&#45;&gt;Node57</title>
<path fill="none" stroke="midnightblue" d="M1005.7,-68.8976C1006.46,-58.1314 1007.32,-45.8005 1007.98,-36.4856"/>
<polygon fill="midnightblue" stroke="midnightblue" points="1002.2,-68.7515 1004.99,-78.9727 1009.18,-69.2433 1002.2,-68.7515"/>
</g>
<!-- Node71&#45;&gt;Node58 -->
<g id="edge53" class="edge"><title>Node71&#45;&gt;Node58</title>
<path fill="none" stroke="midnightblue" d="M1038.61,-74.0959C1060.38,-62.2085 1088.01,-47.1176 1107.92,-36.2412"/>
<polygon fill="midnightblue" stroke="midnightblue" points="1036.78,-71.1076 1029.68,-78.9727 1040.14,-77.2511 1036.78,-71.1076"/>
</g>
<!-- Node71&#45;&gt;Node59 -->
<g id="edge54" class="edge"><title>Node71&#45;&gt;Node59</title>
<path fill="none" stroke="midnightblue" d="M1068.25,-76.412C1109.42,-65.7829 1162.96,-51.9593 1205.77,-40.9054"/>
<polygon fill="midnightblue" stroke="midnightblue" points="1067.14,-73.0839 1058.33,-78.9727 1068.89,-79.8616 1067.14,-73.0839"/>
</g>
<!-- Node71&#45;&gt;Node61 -->
<g id="edge55" class="edge"><title>Node71&#45;&gt;Node61</title>
<path fill="none" stroke="midnightblue" d="M1072.94,-77.7668C1200.78,-56.3438 1236.83,-66.584 1361,-42 1376.21,-38.9885 1392.91,-34.5039 1406.49,-30.5442"/>
<polygon fill="midnightblue" stroke="midnightblue" points="1072.03,-74.3722 1062.76,-79.5068 1073.21,-81.2721 1072.03,-74.3722"/>
</g>
<!-- Node72 -->
<g id="node23" class="node"><title>Node72</title>
<g id="a_node23"><a xlink:href="calibration_2modules_2_t_a_p_s_veto___energy_8cc.html" target="_top" xlink:title="src/calibration/modules\l/TAPSVeto_Energy.cc">
<polygon fill="white" stroke="black" points="271.5,-6 271.5,-36 388.5,-36 388.5,-6 271.5,-6"/>
<text text-anchor="start" x="279.5" y="-24" font-family="Helvetica,sans-Serif" font-size="10.00">src/calibration/modules</text>
<text text-anchor="middle" x="330" y="-13" font-family="Helvetica,sans-Serif" font-size="10.00">/TAPSVeto_Energy.cc</text>
</a>
</g>
</g>
<!-- Node71&#45;&gt;Node72 -->
<g id="edge47" class="edge"><title>Node71&#45;&gt;Node72</title>
<path fill="none" stroke="midnightblue" d="M935.46,-78.0969C696.513,-45.1387 630.049,-84.0201 397,-42 388.757,-40.5137 380.09,-38.3757 371.827,-36.0452"/>
<polygon fill="midnightblue" stroke="midnightblue" points="935.107,-81.5815 945.497,-79.5092 936.082,-74.6498 935.107,-81.5815"/>
</g>
</g>
</svg>
