<?xml version="1.0" encoding="UTF-8" standalone="no"?>
<!DOCTYPE svg PUBLIC "-//W3C//DTD SVG 1.1//EN"
 "http://www.w3.org/Graphics/SVG/1.1/DTD/svg11.dtd">
<!-- Generated by graphviz version 2.36.0 (20140111.2315)
 -->
<!-- Title: src/calibration/fitfunctions/FitGausPol0.h Pages: 1 -->
<svg width="1516pt" height="118pt"
 viewBox="0.00 0.00 1516.00 118.00" xmlns="http://www.w3.org/2000/svg" xmlns:xlink="http://www.w3.org/1999/xlink">
<g id="graph0" class="graph" transform="scale(1 1) rotate(0) translate(4 114)">
<title>src/calibration/fitfunctions/FitGausPol0.h</title>
<polygon fill="white" stroke="none" points="-4,4 -4,-114 1512,-114 1512,4 -4,4"/>
<!-- Node18 -->
<g id="node1" class="node"><title>Node18</title>
<polygon fill="#bfbfbf" stroke="black" points="685,-79 685,-109 813,-109 813,-79 685,-79"/>
<text text-anchor="start" x="693" y="-97" font-family="Helvetica,sans-Serif" font-size="10.00">src/calibration/fitfunctions</text>
<text text-anchor="middle" x="749" y="-86" font-family="Helvetica,sans-Serif" font-size="10.00">/FitGausPol0.h</text>
</g>
<!-- Node19 -->
<g id="node2" class="node"><title>Node19</title>
<g id="a_node2"><a xlink:href="_fit_gaus_pol0_8cc.html" target="_top" xlink:title="src/calibration/fitfunctions\l/FitGausPol0.cc">
<polygon fill="white" stroke="black" points="0,-6 0,-36 128,-36 128,-6 0,-6"/>
<text text-anchor="start" x="8" y="-24" font-family="Helvetica,sans-Serif" font-size="10.00">src/calibration/fitfunctions</text>
<text text-anchor="middle" x="64" y="-13" font-family="Helvetica,sans-Serif" font-size="10.00">/FitGausPol0.cc</text>
</a>
</g>
</g>
<!-- Node18&#45;&gt;Node19 -->
<g id="edge1" class="edge"><title>Node18&#45;&gt;Node19</title>
<path fill="none" stroke="midnightblue" d="M674.452,-91.2074C558.636,-87.4319 328.844,-75.9742 137,-42 128.331,-40.4647 119.199,-38.3631 110.441,-36.0968"/>
<polygon fill="midnightblue" stroke="midnightblue" points="674.517,-94.7111 684.623,-91.5287 674.738,-87.7146 674.517,-94.7111"/>
</g>
<!-- Node20 -->
<g id="node3" class="node"><title>Node20</title>
<g id="a_node3"><a xlink:href="_t_a_p_s___time_8cc.html" target="_top" xlink:title="src/calibration/modules\l/TAPS_Time.cc">
<polygon fill="white" stroke="black" points="146.5,-6 146.5,-36 263.5,-36 263.5,-6 146.5,-6"/>
<text text-anchor="start" x="154.5" y="-24" font-family="Helvetica,sans-Serif" font-size="10.00">src/calibration/modules</text>
<text text-anchor="middle" x="205" y="-13" font-family="Helvetica,sans-Serif" font-size="10.00">/TAPS_Time.cc</text>
</a>
</g>
</g>
<!-- Node18&#45;&gt;Node20 -->
<g id="edge2" class="edge"><title>Node18&#45;&gt;Node20</title>
<path fill="none" stroke="midnightblue" d="M674.761,-89.2919C580.396,-83.614 412.822,-70.297 272,-42 264.145,-40.4216 255.887,-38.3278 247.956,-36.0891"/>
<polygon fill="midnightblue" stroke="midnightblue" points="674.592,-92.7879 684.78,-89.8825 675.004,-85.8 674.592,-92.7879"/>
</g>
<!-- Node21 -->
<g id="node4" class="node"><title>Node21</title>
<g id="a_node4"><a xlink:href="_t_a_p_s_veto___time_8cc.html" target="_top" xlink:title="src/calibration/modules\l/TAPSVeto_Time.cc">
<polygon fill="white" stroke="black" points="281.5,-6 281.5,-36 398.5,-36 398.5,-6 281.5,-6"/>
<text text-anchor="start" x="289.5" y="-24" font-family="Helvetica,sans-Serif" font-size="10.00">src/calibration/modules</text>
<text text-anchor="middle" x="340" y="-13" font-family="Helvetica,sans-Serif" font-size="10.00">/TAPSVeto_Time.cc</text>
</a>
</g>
</g>
<!-- Node18&#45;&gt;Node21 -->
<g id="edge3" class="edge"><title>Node18&#45;&gt;Node21</title>
<path fill="none" stroke="midnightblue" d="M674.839,-85.0238C605.188,-76.807 498.315,-62.3297 407,-42 399.417,-40.3117 391.437,-38.2175 383.734,-36.026"/>
<polygon fill="midnightblue" stroke="midnightblue" points="674.501,-88.508 684.839,-86.1906 675.312,-81.5551 674.501,-88.508"/>
</g>
<!-- Node22 -->
<g id="node5" class="node"><title>Node22</title>
<g id="a_node5"><a xlink:href="_setup__2007___base_8cc.html" target="_top" xlink:title="src/expconfig/setups\l/Setup_2007_Base.cc">
<polygon fill="white" stroke="black" points="416.5,-6 416.5,-36 529.5,-36 529.5,-6 416.5,-6"/>
<text text-anchor="start" x="424.5" y="-24" font-family="Helvetica,sans-Serif" font-size="10.00">src/expconfig/setups</text>
<text text-anchor="middle" x="473" y="-13" font-family="Helvetica,sans-Serif" font-size="10.00">/Setup_2007_Base.cc</text>
</a>
</g>
</g>
<!-- Node18&#45;&gt;Node22 -->
<g id="edge4" class="edge"><title>Node18&#45;&gt;Node22</title>
<path fill="none" stroke="midnightblue" d="M677.367,-76.6525C636.654,-67.0992 584.812,-54.4934 539,-42 532.185,-40.1414 525.005,-38.0772 517.992,-36.0009"/>
<polygon fill="midnightblue" stroke="midnightblue" points="676.667,-80.0831 687.201,-78.9515 678.261,-73.2669 676.667,-80.0831"/>
</g>
<!-- Node23 -->
<g id="node6" class="node"><title>Node23</title>
<g id="a_node6"><a xlink:href="_setup__2010__03___base_8cc.html" target="_top" xlink:title="src/expconfig/setups\l/Setup_2010_03_Base.cc">
<polygon fill="white" stroke="black" points="548,-6 548,-36 676,-36 676,-6 548,-6"/>
<text text-anchor="start" x="556" y="-24" font-family="Helvetica,sans-Serif" font-size="10.00">src/expconfig/setups</text>
<text text-anchor="middle" x="612" y="-13" font-family="Helvetica,sans-Serif" font-size="10.00">/Setup_2010_03_Base.cc</text>
</a>
</g>
</g>
<!-- Node18&#45;&gt;Node23 -->
<g id="edge5" class="edge"><title>Node18&#45;&gt;Node23</title>
<path fill="none" stroke="midnightblue" d="M712.83,-74.2549C689.846,-62.3433 660.56,-47.1661 639.479,-36.2412"/>
<polygon fill="midnightblue" stroke="midnightblue" points="711.444,-77.4788 721.933,-78.9727 714.665,-71.2639 711.444,-77.4788"/>
</g>
<!-- Node24 -->
<g id="node7" class="node"><title>Node24</title>
<g id="a_node7"><a xlink:href="_setup__2014___e_p_t_8cc.html" target="_top" xlink:title="src/expconfig/setups\l/Setup_2014_EPT.cc">
<polygon fill="white" stroke="black" points="694,-6 694,-36 804,-36 804,-6 694,-6"/>
<text text-anchor="start" x="702" y="-24" font-family="Helvetica,sans-Serif" font-size="10.00">src/expconfig/setups</text>
<text text-anchor="middle" x="749" y="-13" font-family="Helvetica,sans-Serif" font-size="10.00">/Setup_2014_EPT.cc</text>
</a>
</g>
</g>
<!-- Node18&#45;&gt;Node24 -->
<g id="edge6" class="edge"><title>Node18&#45;&gt;Node24</title>
<path fill="none" stroke="midnightblue" d="M749,-68.8976C749,-58.1314 749,-45.8005 749,-36.4856"/>
<polygon fill="midnightblue" stroke="midnightblue" points="745.5,-68.9727 749,-78.9727 752.5,-68.9727 745.5,-68.9727"/>
</g>
<!-- Node25 -->
<g id="node8" class="node"><title>Node25</title>
<g id="a_node8"><a xlink:href="_setup__2015__01___pion_8cc.html" target="_top" xlink:title="src/expconfig/setups\l/Setup_2015_01_Pion.cc">
<polygon fill="white" stroke="black" points="822.5,-6 822.5,-36 947.5,-36 947.5,-6 822.5,-6"/>
<text text-anchor="start" x="830.5" y="-24" font-family="Helvetica,sans-Serif" font-size="10.00">src/expconfig/setups</text>
<text text-anchor="middle" x="885" y="-13" font-family="Helvetica,sans-Serif" font-size="10.00">/Setup_2015_01_Pion.cc</text>
</a>
</g>
</g>
<!-- Node18&#45;&gt;Node25 -->
<g id="edge7" class="edge"><title>Node18&#45;&gt;Node25</title>
<path fill="none" stroke="midnightblue" d="M784.906,-74.2549C807.723,-62.3433 836.795,-47.1661 857.721,-36.2412"/>
<polygon fill="midnightblue" stroke="midnightblue" points="783.114,-71.2421 775.869,-78.9727 786.354,-77.4474 783.114,-71.2421"/>
</g>
<!-- Node26 -->
<g id="node9" class="node"><title>Node26</title>
<g id="a_node9"><a xlink:href="_setup__2017__03_8cc.html" target="_top" xlink:title="src/expconfig/setups\l/Setup_2017_03.cc">
<polygon fill="white" stroke="black" points="965.5,-6 965.5,-36 1072.5,-36 1072.5,-6 965.5,-6"/>
<text text-anchor="start" x="973.5" y="-24" font-family="Helvetica,sans-Serif" font-size="10.00">src/expconfig/setups</text>
<text text-anchor="middle" x="1019" y="-13" font-family="Helvetica,sans-Serif" font-size="10.00">/Setup_2017_03.cc</text>
</a>
</g>
</g>
<!-- Node18&#45;&gt;Node26 -->
<g id="edge8" class="edge"><title>Node18&#45;&gt;Node26</title>
<path fill="none" stroke="midnightblue" d="M820.355,-76.6442C860.396,-67.1599 911.169,-54.624 956,-42 962.517,-40.1649 969.376,-38.1133 976.074,-36.0425"/>
<polygon fill="midnightblue" stroke="midnightblue" points="819.346,-73.286 810.416,-78.9879 820.952,-80.0992 819.346,-73.286"/>
</g>
<!-- Node27 -->
<g id="node10" class="node"><title>Node27</title>
<g id="a_node10"><a xlink:href="_setup__2017__05_8cc.html" target="_top" xlink:title="src/expconfig/setups\l/Setup_2017_05.cc">
<polygon fill="white" stroke="black" points="1090.5,-6 1090.5,-36 1197.5,-36 1197.5,-6 1090.5,-6"/>
<text text-anchor="start" x="1098.5" y="-24" font-family="Helvetica,sans-Serif" font-size="10.00">src/expconfig/setups</text>
<text text-anchor="middle" x="1144" y="-13" font-family="Helvetica,sans-Serif" font-size="10.00">/Setup_2017_05.cc</text>
</a>
</g>
</g>
<!-- Node18&#45;&gt;Node27 -->
<g id="edge9" class="edge"><title>Node18&#45;&gt;Node27</title>
<path fill="none" stroke="midnightblue" d="M823.354,-84.9239C891.057,-76.781 993.507,-62.4776 1081,-42 1088.15,-40.3263 1095.66,-38.2395 1102.91,-36.0507"/>
<polygon fill="midnightblue" stroke="midnightblue" points="822.726,-81.4737 813.209,-86.1292 823.552,-88.4249 822.726,-81.4737"/>
</g>
<!-- Node28 -->
<g id="node11" class="node"><title>Node28</title>
<g id="a_node11"><a xlink:href="_setup__2017_plus___new_tagger___base_8cc.html" target="_top" xlink:title="src/expconfig/setups\l/Setup_2017Plus_NewTagger\l_Base.cc">
<polygon fill="white" stroke="black" points="1216,-0.5 1216,-41.5 1362,-41.5 1362,-0.5 1216,-0.5"/>
<text text-anchor="start" x="1224" y="-29.5" font-family="Helvetica,sans-Serif" font-size="10.00">src/expconfig/setups</text>
<text text-anchor="start" x="1224" y="-18.5" font-family="Helvetica,sans-Serif" font-size="10.00">/Setup_2017Plus_NewTagger</text>
<text text-anchor="middle" x="1289" y="-7.5" font-family="Helvetica,sans-Serif" font-size="10.00">_Base.cc</text>
</a>
</g>
</g>
<!-- Node18&#45;&gt;Node28 -->
<g id="edge10" class="edge"><title>Node18&#45;&gt;Node28</title>
<path fill="none" stroke="midnightblue" d="M823.51,-87.5704C914.308,-80.291 1072.18,-65.4948 1206,-42 1209.21,-41.4361 1212.48,-40.8214 1215.78,-40.1689"/>
<polygon fill="midnightblue" stroke="midnightblue" points="823.008,-84.0991 813.316,-88.3786 823.561,-91.0772 823.008,-84.0991"/>
</g>
<!-- Node29 -->
<g id="node12" class="node"><title>Node29</title>
<g id="a_node12"><a xlink:href="expconfig__helpers_8cc.html" target="_top" xlink:title="test/expconfig_helpers.cc">
<polygon fill="white" stroke="black" points="1380,-11.5 1380,-30.5 1508,-30.5 1508,-11.5 1380,-11.5"/>
<text text-anchor="middle" x="1444" y="-18.5" font-family="Helvetica,sans-Serif" font-size="10.00">test/expconfig_helpers.cc</text>
</a>
</g>
</g>
<!-- Node18&#45;&gt;Node29 -->
<g id="edge11" class="edge"><title>Node18&#45;&gt;Node29</title>
<path fill="none" stroke="midnightblue" d="M823.365,-91.3541C940.612,-87.7627 1175.24,-76.5329 1371,-42 1386.66,-39.2377 1403.82,-34.6186 1417.57,-30.515"/>
<polygon fill="midnightblue" stroke="midnightblue" points="822.966,-87.8643 813.074,-91.6589 823.173,-94.8613 822.966,-87.8643"/>
</g>
</g>
</svg>
