<?xml version="1.0" encoding="UTF-8" standalone="no"?>
<!DOCTYPE svg PUBLIC "-//W3C//DTD SVG 1.1//EN"
 "http://www.w3.org/Graphics/SVG/1.1/DTD/svg11.dtd">
<!-- Generated by graphviz version 2.36.0 (20140111.2315)
 -->
<!-- Title: src/analysis/utils/uncertainties/FitterSergey.h Pages: 1 -->
<svg width="3285pt" height="196pt"
 viewBox="0.00 0.00 3285.00 196.00" xmlns="http://www.w3.org/2000/svg" xmlns:xlink="http://www.w3.org/1999/xlink">
<g id="graph0" class="graph" transform="scale(1 1) rotate(0) translate(4 192)">
<title>src/analysis/utils/uncertainties/FitterSergey.h</title>
<polygon fill="white" stroke="none" points="-4,4 -4,-192 3281,-192 3281,4 -4,4"/>
<!-- Node42 -->
<g id="node1" class="node"><title>Node42</title>
<polygon fill="#bfbfbf" stroke="black" points="1673,-157 1673,-187 1813,-187 1813,-157 1673,-157"/>
<text text-anchor="start" x="1681" y="-175" font-family="Helvetica,sans-Serif" font-size="10.00">src/analysis/utils</text>
<text text-anchor="middle" x="1743" y="-164" font-family="Helvetica,sans-Serif" font-size="10.00">/uncertainties/FitterSergey.h</text>
</g>
<!-- Node43 -->
<g id="node2" class="node"><title>Node43</title>
<g id="a_node2"><a xlink:href="analysis_2physics_2calibration_2_p_i_d___energy_8h.html" target="_top" xlink:title="src/analysis/physics\l/calibration/PID_Energy.h">
<polygon fill="white" stroke="black" points="3,-84 3,-114 131,-114 131,-84 3,-84"/>
<text text-anchor="start" x="11" y="-102" font-family="Helvetica,sans-Serif" font-size="10.00">src/analysis/physics</text>
<text text-anchor="middle" x="67" y="-91" font-family="Helvetica,sans-Serif" font-size="10.00">/calibration/PID_Energy.h</text>
</a>
</g>
</g>
<!-- Node42&#45;&gt;Node43 -->
<g id="edge1" class="edge"><title>Node42&#45;&gt;Node43</title>
<path fill="none" stroke="midnightblue" d="M1662.83,-170.943C1381.25,-170.356 438.485,-164.992 140,-120 130.774,-118.609 121.051,-116.452 111.815,-114.059"/>
<polygon fill="midnightblue" stroke="midnightblue" points="1662.95,-174.444 1672.96,-170.963 1662.97,-167.444 1662.95,-174.444"/>
</g>
<!-- Node45 -->
<g id="node4" class="node"><title>Node45</title>
<g id="a_node4"><a xlink:href="_p_i_d___t_a_p_s_veto___kinfit_8cc.html" target="_top" xlink:title="src/analysis/physics\l/calibration/PID_TAPSVeto\l_Kinfit.cc">
<polygon fill="white" stroke="black" points="149,-78.5 149,-119.5 285,-119.5 285,-78.5 149,-78.5"/>
<text text-anchor="start" x="157" y="-107.5" font-family="Helvetica,sans-Serif" font-size="10.00">src/analysis/physics</text>
<text text-anchor="start" x="157" y="-96.5" font-family="Helvetica,sans-Serif" font-size="10.00">/calibration/PID_TAPSVeto</text>
<text text-anchor="middle" x="217" y="-85.5" font-family="Helvetica,sans-Serif" font-size="10.00">_Kinfit.cc</text>
</a>
</g>
</g>
<!-- Node42&#45;&gt;Node45 -->
<g id="edge3" class="edge"><title>Node42&#45;&gt;Node45</title>
<path fill="none" stroke="midnightblue" d="M1662.66,-170.486C1398.93,-168.434 561.313,-158.94 294,-120 291.13,-119.582 288.212,-119.098 285.275,-118.561"/>
<polygon fill="midnightblue" stroke="midnightblue" points="1662.89,-173.987 1672.92,-170.564 1662.95,-166.988 1662.89,-173.987"/>
</g>
<!-- Node46 -->
<g id="node5" class="node"><title>Node46</title>
<g id="a_node5"><a xlink:href="_i_m_comb_fit_plots_8cc.html" target="_top" xlink:title="src/analysis/physics\l/common/IMCombFitPlots.cc">
<polygon fill="white" stroke="black" points="303.5,-84 303.5,-114 448.5,-114 448.5,-84 303.5,-84"/>
<text text-anchor="start" x="311.5" y="-102" font-family="Helvetica,sans-Serif" font-size="10.00">src/analysis/physics</text>
<text text-anchor="middle" x="376" y="-91" font-family="Helvetica,sans-Serif" font-size="10.00">/common/IMCombFitPlots.cc</text>
</a>
</g>
</g>
<!-- Node42&#45;&gt;Node46 -->
<g id="edge4" class="edge"><title>Node42&#45;&gt;Node46</title>
<path fill="none" stroke="midnightblue" d="M1662.72,-169.943C1419.23,-166.4 691.451,-153.244 457,-120 446.961,-118.577 436.356,-116.436 426.245,-114.077"/>
<polygon fill="midnightblue" stroke="midnightblue" points="1662.86,-173.445 1672.91,-170.089 1662.96,-166.446 1662.86,-173.445"/>
</g>
<!-- Node47 -->
<g id="node6" class="node"><title>Node47</title>
<g id="a_node6"><a xlink:href="_just_particles_8cc.html" target="_top" xlink:title="src/analysis/physics\l/common/JustParticles.cc">
<polygon fill="white" stroke="black" points="466.5,-84 466.5,-114 597.5,-114 597.5,-84 466.5,-84"/>
<text text-anchor="start" x="474.5" y="-102" font-family="Helvetica,sans-Serif" font-size="10.00">src/analysis/physics</text>
<text text-anchor="middle" x="532" y="-91" font-family="Helvetica,sans-Serif" font-size="10.00">/common/JustParticles.cc</text>
</a>
</g>
</g>
<!-- Node42&#45;&gt;Node47 -->
<g id="edge5" class="edge"><title>Node42&#45;&gt;Node47</title>
<path fill="none" stroke="midnightblue" d="M1662.93,-169.65C1439.26,-165.523 810.94,-151.393 607,-120 597.677,-118.565 587.845,-116.419 578.479,-114.059"/>
<polygon fill="midnightblue" stroke="midnightblue" points="1662.89,-173.15 1672.95,-169.833 1663.01,-166.151 1662.89,-173.15"/>
</g>
<!-- Node48 -->
<g id="node7" class="node"><title>Node48</title>
<g id="a_node7"><a xlink:href="_meson_dalitz_decays_8cc.html" target="_top" xlink:title="Physics class to investigate Dalitz decays for different mesons. ">
<polygon fill="white" stroke="black" points="616,-84 616,-114 778,-114 778,-84 616,-84"/>
<text text-anchor="start" x="624" y="-102" font-family="Helvetica,sans-Serif" font-size="10.00">src/analysis/physics</text>
<text text-anchor="middle" x="697" y="-91" font-family="Helvetica,sans-Serif" font-size="10.00">/common/MesonDalitzDecays.cc</text>
</a>
</g>
</g>
<!-- Node42&#45;&gt;Node48 -->
<g id="edge6" class="edge"><title>Node42&#45;&gt;Node48</title>
<path fill="none" stroke="midnightblue" d="M1662.7,-171.184C1497.79,-170.582 1109.39,-164.112 787,-120 776.058,-118.503 764.476,-116.36 753.394,-114.028"/>
<polygon fill="midnightblue" stroke="midnightblue" points="1662.75,-174.684 1672.76,-171.215 1662.77,-167.684 1662.75,-174.684"/>
</g>
<!-- Node49 -->
<g id="node8" class="node"><title>Node49</title>
<g id="a_node8"><a xlink:href="_etap_omega_g_8cc.html" target="_top" xlink:title="src/analysis/physics\l/etaprime/EtapOmegaG.cc">
<polygon fill="white" stroke="black" points="796.5,-84 796.5,-114 929.5,-114 929.5,-84 796.5,-84"/>
<text text-anchor="start" x="804.5" y="-102" font-family="Helvetica,sans-Serif" font-size="10.00">src/analysis/physics</text>
<text text-anchor="middle" x="863" y="-91" font-family="Helvetica,sans-Serif" font-size="10.00">/etaprime/EtapOmegaG.cc</text>
</a>
</g>
</g>
<!-- Node42&#45;&gt;Node49 -->
<g id="edge7" class="edge"><title>Node42&#45;&gt;Node49</title>
<path fill="none" stroke="midnightblue" d="M1662.58,-171.133C1517.04,-170.217 1200.68,-162.913 938,-120 928.823,-118.501 919.145,-116.357 909.902,-114.025"/>
<polygon fill="midnightblue" stroke="midnightblue" points="1662.74,-174.634 1672.76,-171.189 1662.78,-167.634 1662.74,-174.634"/>
</g>
<!-- Node50 -->
<g id="node9" class="node"><title>Node50</title>
<g id="a_node9"><a xlink:href="_etap_omega_g__simple_8cc.html" target="_top" xlink:title="src/analysis/physics\l/etaprime/EtapOmegaG\l_simple.cc">
<polygon fill="white" stroke="black" points="947.5,-78.5 947.5,-119.5 1066.5,-119.5 1066.5,-78.5 947.5,-78.5"/>
<text text-anchor="start" x="955.5" y="-107.5" font-family="Helvetica,sans-Serif" font-size="10.00">src/analysis/physics</text>
<text text-anchor="start" x="955.5" y="-96.5" font-family="Helvetica,sans-Serif" font-size="10.00">/etaprime/EtapOmegaG</text>
<text text-anchor="middle" x="1007" y="-85.5" font-family="Helvetica,sans-Serif" font-size="10.00">_simple.cc</text>
</a>
</g>
</g>
<!-- Node42&#45;&gt;Node50 -->
<g id="edge8" class="edge"><title>Node42&#45;&gt;Node50</title>
<path fill="none" stroke="midnightblue" d="M1662.31,-170.281C1536.03,-167.938 1284.48,-158.363 1075,-120 1072.22,-119.49 1069.38,-118.91 1066.53,-118.278"/>
<polygon fill="midnightblue" stroke="midnightblue" points="1662.6,-173.787 1672.66,-170.462 1662.72,-166.788 1662.6,-173.787"/>
</g>
<!-- Node51 -->
<g id="node10" class="node"><title>Node51</title>
<g id="a_node10"><a xlink:href="etaprime-3pi0_8h.html" target="_top" xlink:title="src/analysis/physics\l/etaprime/etaprime&#45;3pi0.h">
<polygon fill="white" stroke="black" points="1084.5,-84 1084.5,-114 1211.5,-114 1211.5,-84 1084.5,-84"/>
<text text-anchor="start" x="1092.5" y="-102" font-family="Helvetica,sans-Serif" font-size="10.00">src/analysis/physics</text>
<text text-anchor="middle" x="1148" y="-91" font-family="Helvetica,sans-Serif" font-size="10.00">/etaprime/etaprime&#45;3pi0.h</text>
</a>
</g>
</g>
<!-- Node42&#45;&gt;Node51 -->
<g id="edge9" class="edge"><title>Node42&#45;&gt;Node51</title>
<path fill="none" stroke="midnightblue" d="M1662.8,-167.403C1559.82,-161.818 1375.91,-148.572 1221,-120 1212.47,-118.427 1203.49,-116.335 1194.85,-114.098"/>
<polygon fill="midnightblue" stroke="midnightblue" points="1662.64,-170.9 1672.81,-167.936 1663.02,-163.91 1662.64,-170.9"/>
</g>
<!-- Node53 -->
<g id="node12" class="node"><title>Node53</title>
<g id="a_node12"><a xlink:href="etaprime__dalitz_8cc.html" target="_top" xlink:title="src/analysis/physics\l/etaprime/etaprime_dalitz.cc">
<polygon fill="white" stroke="black" points="1230,-84 1230,-114 1370,-114 1370,-84 1230,-84"/>
<text text-anchor="start" x="1238" y="-102" font-family="Helvetica,sans-Serif" font-size="10.00">src/analysis/physics</text>
<text text-anchor="middle" x="1300" y="-91" font-family="Helvetica,sans-Serif" font-size="10.00">/etaprime/etaprime_dalitz.cc</text>
</a>
</g>
</g>
<!-- Node42&#45;&gt;Node53 -->
<g id="edge11" class="edge"><title>Node42&#45;&gt;Node53</title>
<path fill="none" stroke="midnightblue" d="M1662.66,-162.287C1588.62,-153.657 1475.89,-138.993 1379,-120 1370.25,-118.285 1361.03,-116.203 1352.09,-114.039"/>
<polygon fill="midnightblue" stroke="midnightblue" points="1662.51,-165.793 1672.84,-163.465 1663.31,-158.839 1662.51,-165.793"/>
</g>
<!-- Node54 -->
<g id="node13" class="node"><title>Node54</title>
<g id="a_node13"><a xlink:href="etaprime__proton_8cc.html" target="_top" xlink:title="src/analysis/physics\l/etaprime/etaprime_proton.cc">
<polygon fill="white" stroke="black" points="1388.5,-84 1388.5,-114 1531.5,-114 1531.5,-84 1388.5,-84"/>
<text text-anchor="start" x="1396.5" y="-102" font-family="Helvetica,sans-Serif" font-size="10.00">src/analysis/physics</text>
<text text-anchor="middle" x="1460" y="-91" font-family="Helvetica,sans-Serif" font-size="10.00">/etaprime/etaprime_proton.cc</text>
</a>
</g>
</g>
<!-- Node42&#45;&gt;Node54 -->
<g id="edge12" class="edge"><title>Node42&#45;&gt;Node54</title>
<path fill="none" stroke="midnightblue" d="M1677.26,-154.507C1628.47,-142.267 1562.65,-125.753 1516.28,-114.12"/>
<polygon fill="midnightblue" stroke="midnightblue" points="1676.54,-157.934 1687.09,-156.973 1678.24,-151.144 1676.54,-157.934"/>
</g>
<!-- Node55 -->
<g id="node14" class="node"><title>Node55</title>
<g id="a_node14"><a xlink:href="_find_proton_8cc.html" target="_top" xlink:title="src/analysis/physics\l/omega/FindProton.cc">
<polygon fill="white" stroke="black" points="1549.5,-84 1549.5,-114 1662.5,-114 1662.5,-84 1549.5,-84"/>
<text text-anchor="start" x="1557.5" y="-102" font-family="Helvetica,sans-Serif" font-size="10.00">src/analysis/physics</text>
<text text-anchor="middle" x="1606" y="-91" font-family="Helvetica,sans-Serif" font-size="10.00">/omega/FindProton.cc</text>
</a>
</g>
</g>
<!-- Node42&#45;&gt;Node55 -->
<g id="edge13" class="edge"><title>Node42&#45;&gt;Node55</title>
<path fill="none" stroke="midnightblue" d="M1706.83,-152.255C1683.85,-140.343 1654.56,-125.166 1633.48,-114.241"/>
<polygon fill="midnightblue" stroke="midnightblue" points="1705.44,-155.479 1715.93,-156.973 1708.67,-149.264 1705.44,-155.479"/>
</g>
<!-- Node56 -->
<g id="node15" class="node"><title>Node56</title>
<g id="a_node15"><a xlink:href="_omega___eta_g_8cc.html" target="_top" xlink:title="src/analysis/physics\l/omega/Omega_EtaG.cc">
<polygon fill="white" stroke="black" points="1680.5,-84 1680.5,-114 1805.5,-114 1805.5,-84 1680.5,-84"/>
<text text-anchor="start" x="1688.5" y="-102" font-family="Helvetica,sans-Serif" font-size="10.00">src/analysis/physics</text>
<text text-anchor="middle" x="1743" y="-91" font-family="Helvetica,sans-Serif" font-size="10.00">/omega/Omega_EtaG.cc</text>
</a>
</g>
</g>
<!-- Node42&#45;&gt;Node56 -->
<g id="edge14" class="edge"><title>Node42&#45;&gt;Node56</title>
<path fill="none" stroke="midnightblue" d="M1743,-146.898C1743,-136.131 1743,-123.801 1743,-114.486"/>
<polygon fill="midnightblue" stroke="midnightblue" points="1739.5,-146.973 1743,-156.973 1746.5,-146.973 1739.5,-146.973"/>
</g>
<!-- Node57 -->
<g id="node16" class="node"><title>Node57</title>
<g id="a_node16"><a xlink:href="_just_pi0_8cc.html" target="_top" xlink:title="src/analysis/physics\l/pi0/JustPi0.cc">
<polygon fill="white" stroke="black" points="1824,-84 1824,-114 1930,-114 1930,-84 1824,-84"/>
<text text-anchor="start" x="1832" y="-102" font-family="Helvetica,sans-Serif" font-size="10.00">src/analysis/physics</text>
<text text-anchor="middle" x="1877" y="-91" font-family="Helvetica,sans-Serif" font-size="10.00">/pi0/JustPi0.cc</text>
</a>
</g>
</g>
<!-- Node42&#45;&gt;Node57 -->
<g id="edge15" class="edge"><title>Node42&#45;&gt;Node57</title>
<path fill="none" stroke="midnightblue" d="M1778.38,-152.255C1800.86,-140.343 1829.5,-125.166 1850.12,-114.241"/>
<polygon fill="midnightblue" stroke="midnightblue" points="1776.67,-149.198 1769.47,-156.973 1779.95,-155.383 1776.67,-149.198"/>
</g>
<!-- Node58 -->
<g id="node17" class="node"><title>Node58</title>
<g id="a_node17"><a xlink:href="sigma_plus_8h.html" target="_top" xlink:title="src/analysis/physics\l/production/sigmaPlus.h">
<polygon fill="white" stroke="black" points="1948,-84 1948,-114 2070,-114 2070,-84 1948,-84"/>
<text text-anchor="start" x="1956" y="-102" font-family="Helvetica,sans-Serif" font-size="10.00">src/analysis/physics</text>
<text text-anchor="middle" x="2009" y="-91" font-family="Helvetica,sans-Serif" font-size="10.00">/production/sigmaPlus.h</text>
</a>
</g>
</g>
<!-- Node42&#45;&gt;Node58 -->
<g id="edge16" class="edge"><title>Node42&#45;&gt;Node58</title>
<path fill="none" stroke="midnightblue" d="M1807.62,-154.423C1845.63,-144.592 1894.6,-131.787 1938,-120 1944.92,-118.12 1952.21,-116.106 1959.38,-114.106"/>
<polygon fill="midnightblue" stroke="midnightblue" points="1806.51,-151.094 1797.71,-156.984 1808.27,-157.872 1806.51,-151.094"/>
</g>
<!-- Node61 -->
<g id="node20" class="node"><title>Node61</title>
<g id="a_node20"><a xlink:href="single_pi0_8h.html" target="_top" xlink:title="src/analysis/physics\l/production/singlePi0.h">
<polygon fill="white" stroke="black" points="2126,-84 2126,-114 2242,-114 2242,-84 2126,-84"/>
<text text-anchor="start" x="2134" y="-102" font-family="Helvetica,sans-Serif" font-size="10.00">src/analysis/physics</text>
<text text-anchor="middle" x="2184" y="-91" font-family="Helvetica,sans-Serif" font-size="10.00">/production/singlePi0.h</text>
</a>
</g>
</g>
<!-- Node42&#45;&gt;Node61 -->
<g id="edge19" class="edge"><title>Node42&#45;&gt;Node61</title>
<path fill="none" stroke="midnightblue" d="M1823.51,-163.008C1898.62,-154.813 2013.56,-140.379 2112,-120 2120.13,-118.317 2128.7,-116.225 2136.97,-114.035"/>
<polygon fill="midnightblue" stroke="midnightblue" points="1822.75,-159.57 1813.19,-164.123 1823.5,-166.529 1822.75,-159.57"/>
</g>
<!-- Node62 -->
<g id="node21" class="node"><title>Node62</title>
<g id="a_node21"><a xlink:href="single_pi0_8cc.html" target="_top" xlink:title="src/analysis/physics\l/production/singlePi0.cc">
<polygon fill="white" stroke="black" points="2005.5,-6 2005.5,-36 2126.5,-36 2126.5,-6 2005.5,-6"/>
<text text-anchor="start" x="2013.5" y="-24" font-family="Helvetica,sans-Serif" font-size="10.00">src/analysis/physics</text>
<text text-anchor="middle" x="2066" y="-13" font-family="Helvetica,sans-Serif" font-size="10.00">/production/singlePi0.cc</text>
</a>
</g>
</g>
<!-- Node42&#45;&gt;Node62 -->
<g id="edge22" class="edge"><title>Node42&#45;&gt;Node62</title>
<path fill="none" stroke="midnightblue" d="M1823.32,-170.388C1912.05,-167.805 2046.69,-157.588 2079,-120 2099.25,-96.4432 2084.37,-57.2076 2073.91,-36.24"/>
<polygon fill="midnightblue" stroke="midnightblue" points="1823.18,-166.89 1813.28,-170.654 1823.37,-173.888 1823.18,-166.89"/>
</g>
<!-- Node64 -->
<g id="node23" class="node"><title>Node64</title>
<g id="a_node23"><a xlink:href="triple_pi0_8h.html" target="_top" xlink:title="src/analysis/physics\l/production/triplePi0.h">
<polygon fill="white" stroke="black" points="2260.5,-84 2260.5,-114 2371.5,-114 2371.5,-84 2260.5,-84"/>
<text text-anchor="start" x="2268.5" y="-102" font-family="Helvetica,sans-Serif" font-size="10.00">src/analysis/physics</text>
<text text-anchor="middle" x="2316" y="-91" font-family="Helvetica,sans-Serif" font-size="10.00">/production/triplePi0.h</text>
</a>
</g>
</g>
<!-- Node42&#45;&gt;Node64 -->
<g id="edge23" class="edge"><title>Node42&#45;&gt;Node64</title>
<path fill="none" stroke="midnightblue" d="M1823.43,-167.726C1924.03,-162.532 2101.13,-149.75 2250,-120 2257.87,-118.428 2266.14,-116.309 2274.06,-114.037"/>
<polygon fill="midnightblue" stroke="midnightblue" points="1823.16,-164.236 1813.34,-168.235 1823.51,-171.227 1823.16,-164.236"/>
</g>
<!-- Node68 -->
<g id="node27" class="node"><title>Node68</title>
<g id="a_node27"><a xlink:href="gp__pi0[2g]p_8cc.html" target="_top" xlink:title="src/analysis/physics\l/scratch/collicott/gp\l_pi0[2g]p.cc">
<polygon fill="white" stroke="black" points="2389,-78.5 2389,-119.5 2495,-119.5 2495,-78.5 2389,-78.5"/>
<text text-anchor="start" x="2397" y="-107.5" font-family="Helvetica,sans-Serif" font-size="10.00">src/analysis/physics</text>
<text text-anchor="start" x="2397" y="-96.5" font-family="Helvetica,sans-Serif" font-size="10.00">/scratch/collicott/gp</text>
<text text-anchor="middle" x="2442" y="-85.5" font-family="Helvetica,sans-Serif" font-size="10.00">_pi0[2g]p.cc</text>
</a>
</g>
</g>
<!-- Node42&#45;&gt;Node68 -->
<g id="edge27" class="edge"><title>Node42&#45;&gt;Node68</title>
<path fill="none" stroke="midnightblue" d="M1823.34,-170.517C1944.95,-168.452 2182.53,-159.2 2380,-120 2382.88,-119.427 2385.82,-118.765 2388.77,-118.036"/>
<polygon fill="midnightblue" stroke="midnightblue" points="1822.95,-167.022 1813.01,-170.679 1823.06,-174.021 1822.95,-167.022"/>
</g>
<!-- Node69 -->
<g id="node28" class="node"><title>Node69</title>
<g id="a_node28"><a xlink:href="checktagger_8cc.html" target="_top" xlink:title="src/analysis/physics\l/scratch/lheijken/checktagger.cc">
<polygon fill="white" stroke="black" points="2513,-84 2513,-114 2671,-114 2671,-84 2513,-84"/>
<text text-anchor="start" x="2521" y="-102" font-family="Helvetica,sans-Serif" font-size="10.00">src/analysis/physics</text>
<text text-anchor="middle" x="2592" y="-91" font-family="Helvetica,sans-Serif" font-size="10.00">/scratch/lheijken/checktagger.cc</text>
</a>
</g>
</g>
<!-- Node42&#45;&gt;Node69 -->
<g id="edge28" class="edge"><title>Node42&#45;&gt;Node69</title>
<path fill="none" stroke="midnightblue" d="M1823.2,-169.672C1962.28,-166.466 2256.9,-155.692 2503,-120 2513.66,-118.454 2524.93,-116.319 2535.75,-114.016"/>
<polygon fill="midnightblue" stroke="midnightblue" points="1822.98,-166.176 1813.06,-169.898 1823.13,-173.174 1822.98,-166.176"/>
</g>
<!-- Node70 -->
<g id="node29" class="node"><title>Node70</title>
<g id="a_node29"><a xlink:href="gp__pi0p_8cc.html" target="_top" xlink:title="src/analysis/physics\l/scratch/lheijken/gp\l_pi0p.cc">
<polygon fill="white" stroke="black" points="2689,-78.5 2689,-119.5 2795,-119.5 2795,-78.5 2689,-78.5"/>
<text text-anchor="start" x="2697" y="-107.5" font-family="Helvetica,sans-Serif" font-size="10.00">src/analysis/physics</text>
<text text-anchor="start" x="2697" y="-96.5" font-family="Helvetica,sans-Serif" font-size="10.00">/scratch/lheijken/gp</text>
<text text-anchor="middle" x="2742" y="-85.5" font-family="Helvetica,sans-Serif" font-size="10.00">_pi0p.cc</text>
</a>
</g>
</g>
<!-- Node42&#45;&gt;Node70 -->
<g id="edge29" class="edge"><title>Node42&#45;&gt;Node70</title>
<path fill="none" stroke="midnightblue" d="M1823.38,-169.229C2019.01,-164.498 2515.83,-149.846 2679,-120 2682.27,-119.401 2685.61,-118.681 2688.96,-117.876"/>
<polygon fill="midnightblue" stroke="midnightblue" points="1823.09,-165.735 1813.17,-169.473 1823.25,-172.733 1823.09,-165.735"/>
</g>
<!-- Node71 -->
<g id="node30" class="node"><title>Node71</title>
<g id="a_node30"><a xlink:href="analysis_2physics_2tunings_2_interpolated_pulls_8cc.html" target="_top" xlink:title="src/analysis/physics\l/tunings/InterpolatedPulls.cc">
<polygon fill="white" stroke="black" points="2813,-84 2813,-114 2953,-114 2953,-84 2813,-84"/>
<text text-anchor="start" x="2821" y="-102" font-family="Helvetica,sans-Serif" font-size="10.00">src/analysis/physics</text>
<text text-anchor="middle" x="2883" y="-91" font-family="Helvetica,sans-Serif" font-size="10.00">/tunings/InterpolatedPulls.cc</text>
</a>
</g>
</g>
<!-- Node42&#45;&gt;Node71 -->
<g id="edge30" class="edge"><title>Node42&#45;&gt;Node71</title>
<path fill="none" stroke="midnightblue" d="M1823.19,-169.187C2036.44,-164.039 2614.14,-147.872 2803,-120 2812.91,-118.537 2823.39,-116.378 2833.37,-114.015"/>
<polygon fill="midnightblue" stroke="midnightblue" points="1822.92,-165.692 1813.01,-169.431 1823.09,-172.69 1822.92,-165.692"/>
</g>
<!-- Node72 -->
<g id="node31" class="node"><title>Node72</title>
<g id="a_node31"><a xlink:href="physics_2tunings_2_trigger_simulation_8cc.html" target="_top" xlink:title="src/analysis/physics\l/tunings/TriggerSimulation.cc">
<polygon fill="white" stroke="black" points="2971.5,-84 2971.5,-114 3114.5,-114 3114.5,-84 2971.5,-84"/>
<text text-anchor="start" x="2979.5" y="-102" font-family="Helvetica,sans-Serif" font-size="10.00">src/analysis/physics</text>
<text text-anchor="middle" x="3043" y="-91" font-family="Helvetica,sans-Serif" font-size="10.00">/tunings/TriggerSimulation.cc</text>
</a>
</g>
</g>
<!-- Node42&#45;&gt;Node72 -->
<g id="edge31" class="edge"><title>Node42&#45;&gt;Node72</title>
<path fill="none" stroke="midnightblue" d="M1823.52,-169.735C2058.59,-165.709 2741.18,-151.556 2962,-120 2972.04,-118.566 2982.64,-116.42 2992.75,-114.06"/>
<polygon fill="midnightblue" stroke="midnightblue" points="1823.28,-166.239 1813.34,-169.908 1823.4,-173.238 1823.28,-166.239"/>
</g>
<!-- Node73 -->
<g id="node32" class="node"><title>Node73</title>
<g id="a_node32"><a xlink:href="_fitter_sergey_8cc.html" target="_top" xlink:title="src/analysis/utils\l/uncertainties/FitterSergey.cc">
<polygon fill="white" stroke="black" points="3132.5,-84 3132.5,-114 3277.5,-114 3277.5,-84 3132.5,-84"/>
<text text-anchor="start" x="3140.5" y="-102" font-family="Helvetica,sans-Serif" font-size="10.00">src/analysis/utils</text>
<text text-anchor="middle" x="3205" y="-91" font-family="Helvetica,sans-Serif" font-size="10.00">/uncertainties/FitterSergey.cc</text>
</a>
</g>
</g>
<!-- Node42&#45;&gt;Node73 -->
<g id="edge32" class="edge"><title>Node42&#45;&gt;Node73</title>
<path fill="none" stroke="midnightblue" d="M1823.37,-170.164C2078.7,-167.173 2869.46,-155.235 3123,-120 3133.16,-118.588 3143.89,-116.453 3154.13,-114.096"/>
<polygon fill="midnightblue" stroke="midnightblue" points="1823.02,-166.668 1813.06,-170.284 1823.1,-173.668 1823.02,-166.668"/>
</g>
<!-- Node44 -->
<g id="node3" class="node"><title>Node44</title>
<g id="a_node3"><a xlink:href="analysis_2physics_2calibration_2_p_i_d___energy_8cc.html" target="_top" xlink:title="src/analysis/physics\l/calibration/PID_Energy.cc">
<polygon fill="white" stroke="black" points="0,-6 0,-36 134,-36 134,-6 0,-6"/>
<text text-anchor="start" x="8" y="-24" font-family="Helvetica,sans-Serif" font-size="10.00">src/analysis/physics</text>
<text text-anchor="middle" x="67" y="-13" font-family="Helvetica,sans-Serif" font-size="10.00">/calibration/PID_Energy.cc</text>
</a>
</g>
</g>
<!-- Node43&#45;&gt;Node44 -->
<g id="edge2" class="edge"><title>Node43&#45;&gt;Node44</title>
<path fill="none" stroke="midnightblue" d="M67,-73.5898C67,-61.2565 67,-46.7237 67,-36.2309"/>
<polygon fill="midnightblue" stroke="midnightblue" points="63.5001,-73.7049 67,-83.705 70.5001,-73.705 63.5001,-73.7049"/>
</g>
<!-- Node52 -->
<g id="node11" class="node"><title>Node52</title>
<g id="a_node11"><a xlink:href="etaprime-3pi0_8cc.html" target="_top" xlink:title="src/analysis/physics\l/etaprime/etaprime&#45;3pi0.cc">
<polygon fill="white" stroke="black" points="1082,-6 1082,-36 1214,-36 1214,-6 1082,-6"/>
<text text-anchor="start" x="1090" y="-24" font-family="Helvetica,sans-Serif" font-size="10.00">src/analysis/physics</text>
<text text-anchor="middle" x="1148" y="-13" font-family="Helvetica,sans-Serif" font-size="10.00">/etaprime/etaprime&#45;3pi0.cc</text>
</a>
</g>
</g>
<!-- Node51&#45;&gt;Node52 -->
<g id="edge10" class="edge"><title>Node51&#45;&gt;Node52</title>
<path fill="none" stroke="midnightblue" d="M1148,-73.5898C1148,-61.2565 1148,-46.7237 1148,-36.2309"/>
<polygon fill="midnightblue" stroke="midnightblue" points="1144.5,-73.7049 1148,-83.705 1151.5,-73.705 1144.5,-73.7049"/>
</g>
<!-- Node59 -->
<g id="node18" class="node"><title>Node59</title>
<g id="a_node18"><a xlink:href="sigma_plus_8cc.html" target="_top" xlink:title="src/analysis/physics\l/production/sigmaPlus.cc">
<polygon fill="white" stroke="black" points="1693.5,-6 1693.5,-36 1820.5,-36 1820.5,-6 1693.5,-6"/>
<text text-anchor="start" x="1701.5" y="-24" font-family="Helvetica,sans-Serif" font-size="10.00">src/analysis/physics</text>
<text text-anchor="middle" x="1757" y="-13" font-family="Helvetica,sans-Serif" font-size="10.00">/production/sigmaPlus.cc</text>
</a>
</g>
</g>
<!-- Node58&#45;&gt;Node59 -->
<g id="edge17" class="edge"><title>Node58&#45;&gt;Node59</title>
<path fill="none" stroke="midnightblue" d="M1952.9,-81.0816C1908.03,-67.5485 1845.85,-48.7964 1803.67,-36.0749"/>
<polygon fill="midnightblue" stroke="midnightblue" points="1951.9,-84.4353 1962.49,-83.9719 1953.92,-77.7334 1951.9,-84.4353"/>
</g>
<!-- Node60 -->
<g id="node19" class="node"><title>Node60</title>
<g id="a_node19"><a xlink:href="sigma_plus_plots_8cc.html" target="_top" xlink:title="src/analysis/physics\l/production/sigmaPlusPlots.cc">
<polygon fill="white" stroke="black" points="1838.5,-6 1838.5,-36 1987.5,-36 1987.5,-6 1838.5,-6"/>
<text text-anchor="start" x="1846.5" y="-24" font-family="Helvetica,sans-Serif" font-size="10.00">src/analysis/physics</text>
<text text-anchor="middle" x="1913" y="-13" font-family="Helvetica,sans-Serif" font-size="10.00">/production/sigmaPlusPlots.cc</text>
</a>
</g>
</g>
<!-- Node58&#45;&gt;Node60 -->
<g id="edge18" class="edge"><title>Node58&#45;&gt;Node60</title>
<path fill="none" stroke="midnightblue" d="M1982.79,-77.2533C1966.35,-64.2337 1945.57,-47.7835 1930.98,-36.2309"/>
<polygon fill="midnightblue" stroke="midnightblue" points="1980.93,-80.2421 1990.94,-83.705 1985.28,-74.7537 1980.93,-80.2421"/>
</g>
<!-- Node61&#45;&gt;Node62 -->
<g id="edge20" class="edge"><title>Node61&#45;&gt;Node62</title>
<path fill="none" stroke="midnightblue" d="M2153.67,-78.467C2133.07,-65.1993 2106.31,-47.9633 2087.8,-36.0413"/>
<polygon fill="midnightblue" stroke="midnightblue" points="2151.78,-81.4108 2162.08,-83.8831 2155.57,-75.5258 2151.78,-81.4108"/>
</g>
<!-- Node63 -->
<g id="node22" class="node"><title>Node63</title>
<g id="a_node22"><a xlink:href="single_pi0_plots_8cc.html" target="_top" xlink:title="src/analysis/physics\l/production/singlePi0Plots.cc">
<polygon fill="white" stroke="black" points="2144.5,-6 2144.5,-36 2287.5,-36 2287.5,-6 2144.5,-6"/>
<text text-anchor="start" x="2152.5" y="-24" font-family="Helvetica,sans-Serif" font-size="10.00">src/analysis/physics</text>
<text text-anchor="middle" x="2216" y="-13" font-family="Helvetica,sans-Serif" font-size="10.00">/production/singlePi0Plots.cc</text>
</a>
</g>
</g>
<!-- Node61&#45;&gt;Node63 -->
<g id="edge21" class="edge"><title>Node61&#45;&gt;Node63</title>
<path fill="none" stroke="midnightblue" d="M2193.96,-74.3345C2199.22,-61.8454 2205.5,-46.9356 2210.01,-36.2309"/>
<polygon fill="midnightblue" stroke="midnightblue" points="2190.67,-73.1304 2190.02,-83.705 2197.13,-75.8468 2190.67,-73.1304"/>
</g>
<!-- Node65 -->
<g id="node24" class="node"><title>Node65</title>
<g id="a_node24"><a xlink:href="triple_pi0_8cc.html" target="_top" xlink:title="src/analysis/physics\l/production/triplePi0.cc">
<polygon fill="white" stroke="black" points="2306,-6 2306,-36 2422,-36 2422,-6 2306,-6"/>
<text text-anchor="start" x="2314" y="-24" font-family="Helvetica,sans-Serif" font-size="10.00">src/analysis/physics</text>
<text text-anchor="middle" x="2364" y="-13" font-family="Helvetica,sans-Serif" font-size="10.00">/production/triplePi0.cc</text>
</a>
</g>
</g>
<!-- Node64&#45;&gt;Node65 -->
<g id="edge24" class="edge"><title>Node64&#45;&gt;Node65</title>
<path fill="none" stroke="midnightblue" d="M2330.48,-75.0735C2338.46,-62.4375 2348.12,-47.1476 2355.01,-36.2309"/>
<polygon fill="midnightblue" stroke="midnightblue" points="2327.41,-73.3811 2325.03,-83.705 2333.33,-77.1191 2327.41,-73.3811"/>
</g>
<!-- Node66 -->
<g id="node25" class="node"><title>Node66</title>
<g id="a_node25"><a xlink:href="triple_pi0_plots_8cc.html" target="_top" xlink:title="src/analysis/physics\l/production/triplePi0Plots.cc">
<polygon fill="white" stroke="black" points="2440.5,-6 2440.5,-36 2579.5,-36 2579.5,-6 2440.5,-6"/>
<text text-anchor="start" x="2448.5" y="-24" font-family="Helvetica,sans-Serif" font-size="10.00">src/analysis/physics</text>
<text text-anchor="middle" x="2510" y="-13" font-family="Helvetica,sans-Serif" font-size="10.00">/production/triplePi0Plots.cc</text>
</a>
</g>
</g>
<!-- Node64&#45;&gt;Node66 -->
<g id="edge25" class="edge"><title>Node64&#45;&gt;Node66</title>
<path fill="none" stroke="midnightblue" d="M2361.39,-80.2193C2395.77,-66.7488 2442.37,-48.4956 2474.16,-36.0413"/>
<polygon fill="midnightblue" stroke="midnightblue" points="2360.07,-76.9766 2352.04,-83.8831 2362.62,-83.4943 2360.07,-76.9766"/>
</g>
<!-- Node67 -->
<g id="node26" class="node"><title>Node67</title>
<g id="a_node26"><a xlink:href="_proton_vertex_test_8cc.html" target="_top" xlink:title="src/analysis/physics\l/scratch/wolfes/ProtonVertex\lTest.cc">
<polygon fill="white" stroke="black" points="2597.5,-0.5 2597.5,-41.5 2740.5,-41.5 2740.5,-0.5 2597.5,-0.5"/>
<text text-anchor="start" x="2605.5" y="-29.5" font-family="Helvetica,sans-Serif" font-size="10.00">src/analysis/physics</text>
<text text-anchor="start" x="2605.5" y="-18.5" font-family="Helvetica,sans-Serif" font-size="10.00">/scratch/wolfes/ProtonVertex</text>
<text text-anchor="middle" x="2669" y="-7.5" font-family="Helvetica,sans-Serif" font-size="10.00">Test.cc</text>
</a>
</g>
</g>
<!-- Node64&#45;&gt;Node67 -->
<g id="edge26" class="edge"><title>Node64&#45;&gt;Node67</title>
<path fill="none" stroke="midnightblue" d="M2368.08,-81.1062C2372.09,-79.993 2376.1,-78.9422 2380,-78 2471.19,-55.9605 2496.18,-61.2569 2588,-42 2590.98,-41.3756 2594.01,-40.7191 2597.07,-40.04"/>
<polygon fill="midnightblue" stroke="midnightblue" points="2366.76,-77.8417 2358.12,-83.9752 2368.7,-84.5677 2366.76,-77.8417"/>
</g>
</g>
</svg>
