<?xml version="1.0" encoding="UTF-8" standalone="no"?>
<!DOCTYPE svg PUBLIC "-//W3C//DTD SVG 1.1//EN"
 "http://www.w3.org/Graphics/SVG/1.1/DTD/svg11.dtd">
<!-- Generated by graphviz version 2.36.0 (20140111.2315)
 -->
<!-- Title: src/calibration/fitfunctions/FitGaus.h Pages: 1 -->
<svg width="2059pt" height="254pt"
 viewBox="0.00 0.00 2059.00 254.00" xmlns="http://www.w3.org/2000/svg" xmlns:xlink="http://www.w3.org/1999/xlink">
<g id="graph0" class="graph" transform="scale(1 1) rotate(0) translate(4 250)">
<title>src/calibration/fitfunctions/FitGaus.h</title>
<polygon fill="white" stroke="none" points="-4,4 -4,-250 2055,-250 2055,4 -4,4"/>
<!-- Node18 -->
<g id="node1" class="node"><title>Node18</title>
<polygon fill="#bfbfbf" stroke="black" points="1361,-215 1361,-245 1489,-245 1489,-215 1361,-215"/>
<text text-anchor="start" x="1369" y="-233" font-family="Helvetica,sans-Serif" font-size="10.00">src/calibration/fitfunctions</text>
<text text-anchor="middle" x="1425" y="-222" font-family="Helvetica,sans-Serif" font-size="10.00">/FitGaus.h</text>
</g>
<!-- Node19 -->
<g id="node2" class="node"><title>Node19</title>
<g id="a_node2"><a xlink:href="_fit_gaus_8cc.html" target="_top" xlink:title="src/calibration/fitfunctions\l/FitGaus.cc">
<polygon fill="white" stroke="black" points="371,-147 371,-177 499,-177 499,-147 371,-147"/>
<text text-anchor="start" x="379" y="-165" font-family="Helvetica,sans-Serif" font-size="10.00">src/calibration/fitfunctions</text>
<text text-anchor="middle" x="435" y="-154" font-family="Helvetica,sans-Serif" font-size="10.00">/FitGaus.cc</text>
</a>
</g>
</g>
<!-- Node18&#45;&gt;Node19 -->
<g id="edge1" class="edge"><title>Node18&#45;&gt;Node19</title>
<path fill="none" stroke="midnightblue" d="M1350.48,-228.212C1194.49,-225.82 822.429,-216.229 513,-178 508.484,-177.442 503.836,-176.779 499.165,-176.046"/>
<polygon fill="midnightblue" stroke="midnightblue" points="1350.83,-231.717 1360.88,-228.365 1350.94,-224.718 1350.83,-231.717"/>
</g>
<!-- Node20 -->
<g id="node3" class="node"><title>Node20</title>
<g id="a_node3"><a xlink:href="calibration_2modules_2_time_8h.html" target="_top" xlink:title="src/calibration/modules\l/Time.h">
<polygon fill="white" stroke="black" points="999.5,-147 999.5,-177 1116.5,-177 1116.5,-147 999.5,-147"/>
<text text-anchor="start" x="1007.5" y="-165" font-family="Helvetica,sans-Serif" font-size="10.00">src/calibration/modules</text>
<text text-anchor="middle" x="1058" y="-154" font-family="Helvetica,sans-Serif" font-size="10.00">/Time.h</text>
</a>
</g>
</g>
<!-- Node18&#45;&gt;Node20 -->
<g id="edge2" class="edge"><title>Node18&#45;&gt;Node20</title>
<path fill="none" stroke="midnightblue" d="M1350.7,-215.639C1281.6,-203.211 1180.02,-184.944 1116.51,-173.523"/>
<polygon fill="midnightblue" stroke="midnightblue" points="1350.19,-219.103 1360.65,-217.428 1351.43,-212.213 1350.19,-219.103"/>
</g>
<!-- Node27 -->
<g id="node10" class="node"><title>Node27</title>
<g id="a_node10"><a xlink:href="_setup__2007___base_8cc.html" target="_top" xlink:title="src/expconfig/setups\l/Setup_2007_Base.cc">
<polygon fill="white" stroke="black" points="384.5,-6 384.5,-36 497.5,-36 497.5,-6 384.5,-6"/>
<text text-anchor="start" x="392.5" y="-24" font-family="Helvetica,sans-Serif" font-size="10.00">src/expconfig/setups</text>
<text text-anchor="middle" x="441" y="-13" font-family="Helvetica,sans-Serif" font-size="10.00">/Setup_2007_Base.cc</text>
</a>
</g>
</g>
<!-- Node18&#45;&gt;Node27 -->
<g id="edge40" class="edge"><title>Node18&#45;&gt;Node27</title>
<path fill="none" stroke="midnightblue" d="M1350.35,-227.032C1194.27,-222.356 838.208,-208.605 721,-178 612.24,-149.601 500.784,-68.8905 458.602,-36.1044"/>
<polygon fill="midnightblue" stroke="midnightblue" points="1350.69,-230.543 1360.78,-227.34 1350.89,-223.546 1350.69,-230.543"/>
</g>
<!-- Node28 -->
<g id="node11" class="node"><title>Node28</title>
<g id="a_node11"><a xlink:href="_setup__2010__03___base_8cc.html" target="_top" xlink:title="src/expconfig/setups\l/Setup_2010_03_Base.cc">
<polygon fill="white" stroke="black" points="516,-6 516,-36 644,-36 644,-6 516,-6"/>
<text text-anchor="start" x="524" y="-24" font-family="Helvetica,sans-Serif" font-size="10.00">src/expconfig/setups</text>
<text text-anchor="middle" x="580" y="-13" font-family="Helvetica,sans-Serif" font-size="10.00">/Setup_2010_03_Base.cc</text>
</a>
</g>
</g>
<!-- Node18&#45;&gt;Node28 -->
<g id="edge41" class="edge"><title>Node18&#45;&gt;Node28</title>
<path fill="none" stroke="midnightblue" d="M1350.68,-227.443C1205.93,-223.691 891.4,-211.809 789,-178 702.15,-149.325 622.233,-68.7742 592.382,-36.0676"/>
<polygon fill="midnightblue" stroke="midnightblue" points="1350.72,-230.945 1360.81,-227.7 1350.9,-223.948 1350.72,-230.945"/>
</g>
<!-- Node29 -->
<g id="node12" class="node"><title>Node29</title>
<g id="a_node12"><a xlink:href="_setup__2014___e_p_t_8cc.html" target="_top" xlink:title="src/expconfig/setups\l/Setup_2014_EPT.cc">
<polygon fill="white" stroke="black" points="662,-6 662,-36 772,-36 772,-6 662,-6"/>
<text text-anchor="start" x="670" y="-24" font-family="Helvetica,sans-Serif" font-size="10.00">src/expconfig/setups</text>
<text text-anchor="middle" x="717" y="-13" font-family="Helvetica,sans-Serif" font-size="10.00">/Setup_2014_EPT.cc</text>
</a>
</g>
</g>
<!-- Node18&#45;&gt;Node29 -->
<g id="edge42" class="edge"><title>Node18&#45;&gt;Node29</title>
<path fill="none" stroke="midnightblue" d="M1350.47,-227.43C1216.25,-223.775 939.525,-212.22 850,-178 802.839,-159.973 791.028,-149.03 759,-110 740.314,-87.2295 727.627,-54.7588 721.416,-36.2936"/>
<polygon fill="midnightblue" stroke="midnightblue" points="1350.57,-230.934 1360.66,-227.7 1350.76,-223.937 1350.57,-230.934"/>
</g>
<!-- Node30 -->
<g id="node13" class="node"><title>Node30</title>
<g id="a_node13"><a xlink:href="_setup__2015__01___pion_8cc.html" target="_top" xlink:title="src/expconfig/setups\l/Setup_2015_01_Pion.cc">
<polygon fill="white" stroke="black" points="790.5,-6 790.5,-36 915.5,-36 915.5,-6 790.5,-6"/>
<text text-anchor="start" x="798.5" y="-24" font-family="Helvetica,sans-Serif" font-size="10.00">src/expconfig/setups</text>
<text text-anchor="middle" x="853" y="-13" font-family="Helvetica,sans-Serif" font-size="10.00">/Setup_2015_01_Pion.cc</text>
</a>
</g>
</g>
<!-- Node18&#45;&gt;Node30 -->
<g id="edge43" class="edge"><title>Node18&#45;&gt;Node30</title>
<path fill="none" stroke="midnightblue" d="M1350.85,-227.097C1199.56,-221.388 864.293,-198.774 802,-110 784.555,-85.1383 813.574,-53.9599 834.496,-36.1758"/>
<polygon fill="midnightblue" stroke="midnightblue" points="1350.86,-230.599 1360.98,-227.464 1351.11,-223.604 1350.86,-230.599"/>
</g>
<!-- Node31 -->
<g id="node14" class="node"><title>Node31</title>
<g id="a_node14"><a xlink:href="_setup__2017__03_8cc.html" target="_top" xlink:title="src/expconfig/setups\l/Setup_2017_03.cc">
<polygon fill="white" stroke="black" points="1639.5,-6 1639.5,-36 1746.5,-36 1746.5,-6 1639.5,-6"/>
<text text-anchor="start" x="1647.5" y="-24" font-family="Helvetica,sans-Serif" font-size="10.00">src/expconfig/setups</text>
<text text-anchor="middle" x="1693" y="-13" font-family="Helvetica,sans-Serif" font-size="10.00">/Setup_2017_03.cc</text>
</a>
</g>
</g>
<!-- Node18&#45;&gt;Node31 -->
<g id="edge44" class="edge"><title>Node18&#45;&gt;Node31</title>
<path fill="none" stroke="midnightblue" d="M1451.53,-208.51C1505.84,-166.562 1628.47,-71.8455 1674.8,-36.0538"/>
<polygon fill="midnightblue" stroke="midnightblue" points="1449.2,-205.889 1443.42,-214.772 1453.47,-211.429 1449.2,-205.889"/>
</g>
<!-- Node32 -->
<g id="node15" class="node"><title>Node32</title>
<g id="a_node15"><a xlink:href="_setup__2017__05_8cc.html" target="_top" xlink:title="src/expconfig/setups\l/Setup_2017_05.cc">
<polygon fill="white" stroke="black" points="1514.5,-6 1514.5,-36 1621.5,-36 1621.5,-6 1514.5,-6"/>
<text text-anchor="start" x="1522.5" y="-24" font-family="Helvetica,sans-Serif" font-size="10.00">src/expconfig/setups</text>
<text text-anchor="middle" x="1568" y="-13" font-family="Helvetica,sans-Serif" font-size="10.00">/Setup_2017_05.cc</text>
</a>
</g>
</g>
<!-- Node18&#45;&gt;Node32 -->
<g id="edge45" class="edge"><title>Node18&#45;&gt;Node32</title>
<path fill="none" stroke="midnightblue" d="M1440.62,-206.396C1470.28,-163.46 1533.97,-71.2563 1558.29,-36.0538"/>
<polygon fill="midnightblue" stroke="midnightblue" points="1437.63,-204.555 1434.83,-214.772 1443.39,-208.534 1437.63,-204.555"/>
</g>
<!-- Node33 -->
<g id="node16" class="node"><title>Node33</title>
<g id="a_node16"><a xlink:href="_setup__2017_plus___new_tagger___base_8cc.html" target="_top" xlink:title="src/expconfig/setups\l/Setup_2017Plus_NewTagger\l_Base.cc">
<polygon fill="white" stroke="black" points="1204,-0.5 1204,-41.5 1350,-41.5 1350,-0.5 1204,-0.5"/>
<text text-anchor="start" x="1212" y="-29.5" font-family="Helvetica,sans-Serif" font-size="10.00">src/expconfig/setups</text>
<text text-anchor="start" x="1212" y="-18.5" font-family="Helvetica,sans-Serif" font-size="10.00">/Setup_2017Plus_NewTagger</text>
<text text-anchor="middle" x="1277" y="-7.5" font-family="Helvetica,sans-Serif" font-size="10.00">_Base.cc</text>
</a>
</g>
</g>
<!-- Node18&#45;&gt;Node33 -->
<g id="edge46" class="edge"><title>Node18&#45;&gt;Node33</title>
<path fill="none" stroke="midnightblue" d="M1428.6,-204.503C1431.95,-172.177 1432.88,-115.049 1405,-78 1391.44,-59.9744 1370.84,-47.655 1350.1,-39.2748"/>
<polygon fill="midnightblue" stroke="midnightblue" points="1425.08,-204.483 1427.35,-214.829 1432.02,-205.32 1425.08,-204.483"/>
</g>
<!-- Node34 -->
<g id="node17" class="node"><title>Node34</title>
<g id="a_node17"><a xlink:href="expconfig__helpers_8cc.html" target="_top" xlink:title="test/expconfig_helpers.cc">
<polygon fill="white" stroke="black" points="1368,-11.5 1368,-30.5 1496,-30.5 1496,-11.5 1368,-11.5"/>
<text text-anchor="middle" x="1432" y="-18.5" font-family="Helvetica,sans-Serif" font-size="10.00">test/expconfig_helpers.cc</text>
</a>
</g>
</g>
<!-- Node18&#45;&gt;Node34 -->
<g id="edge47" class="edge"><title>Node18&#45;&gt;Node34</title>
<path fill="none" stroke="midnightblue" d="M1432.93,-205.283C1435.39,-196.78 1437.78,-187.057 1439,-178 1446.53,-122.115 1437.2,-54.0588 1433.44,-30.5024"/>
<polygon fill="midnightblue" stroke="midnightblue" points="1429.56,-204.335 1429.96,-214.922 1436.25,-206.395 1429.56,-204.335"/>
</g>
<!-- Node39 -->
<g id="node22" class="node"><title>Node39</title>
<g id="a_node22"><a xlink:href="calibration_2modules_2_p_i_d___energy_8cc.html" target="_top" xlink:title="src/calibration/modules\l/PID_Energy.cc">
<polygon fill="white" stroke="black" points="1662.5,-147 1662.5,-177 1779.5,-177 1779.5,-147 1662.5,-147"/>
<text text-anchor="start" x="1670.5" y="-165" font-family="Helvetica,sans-Serif" font-size="10.00">src/calibration/modules</text>
<text text-anchor="middle" x="1721" y="-154" font-family="Helvetica,sans-Serif" font-size="10.00">/PID_Energy.cc</text>
</a>
</g>
</g>
<!-- Node18&#45;&gt;Node39 -->
<g id="edge37" class="edge"><title>Node18&#45;&gt;Node39</title>
<path fill="none" stroke="midnightblue" d="M1498.05,-212.712C1548.72,-201.414 1615.31,-186.565 1662.49,-176.047"/>
<polygon fill="midnightblue" stroke="midnightblue" points="1497.13,-209.33 1488.14,-214.922 1498.66,-216.162 1497.13,-209.33"/>
</g>
<!-- Node40 -->
<g id="node23" class="node"><title>Node40</title>
<g id="a_node23"><a xlink:href="calibration_2modules_2_p_i_d___phi_angle_8cc.html" target="_top" xlink:title="src/calibration/modules\l/PID_PhiAngle.cc">
<polygon fill="white" stroke="black" points="1797.5,-147 1797.5,-177 1914.5,-177 1914.5,-147 1797.5,-147"/>
<text text-anchor="start" x="1805.5" y="-165" font-family="Helvetica,sans-Serif" font-size="10.00">src/calibration/modules</text>
<text text-anchor="middle" x="1856" y="-154" font-family="Helvetica,sans-Serif" font-size="10.00">/PID_PhiAngle.cc</text>
</a>
</g>
</g>
<!-- Node18&#45;&gt;Node40 -->
<g id="edge38" class="edge"><title>Node18&#45;&gt;Node40</title>
<path fill="none" stroke="midnightblue" d="M1499.27,-220.277C1572.82,-211.235 1688.55,-195.926 1788,-178 1791.09,-177.442 1794.26,-176.843 1797.45,-176.217"/>
<polygon fill="midnightblue" stroke="midnightblue" points="1498.67,-216.823 1489.17,-221.511 1499.52,-223.771 1498.67,-216.823"/>
</g>
<!-- Node41 -->
<g id="node24" class="node"><title>Node41</title>
<g id="a_node24"><a xlink:href="calibration_2modules_2_t_a_p_s___short_energy_8cc.html" target="_top" xlink:title="src/calibration/modules\l/TAPS_ShortEnergy.cc">
<polygon fill="white" stroke="black" points="1932.5,-147 1932.5,-177 2051.5,-177 2051.5,-147 1932.5,-147"/>
<text text-anchor="start" x="1940.5" y="-165" font-family="Helvetica,sans-Serif" font-size="10.00">src/calibration/modules</text>
<text text-anchor="middle" x="1992" y="-154" font-family="Helvetica,sans-Serif" font-size="10.00">/TAPS_ShortEnergy.cc</text>
</a>
</g>
</g>
<!-- Node18&#45;&gt;Node41 -->
<g id="edge39" class="edge"><title>Node18&#45;&gt;Node41</title>
<path fill="none" stroke="midnightblue" d="M1499.44,-223.992C1597.09,-216.825 1773.58,-201.815 1923,-178 1926.03,-177.518 1929.12,-176.986 1932.24,-176.42"/>
<polygon fill="midnightblue" stroke="midnightblue" points="1499.09,-220.508 1489.37,-224.723 1499.6,-227.489 1499.09,-220.508"/>
</g>
<!-- Node21 -->
<g id="node4" class="node"><title>Node21</title>
<g id="a_node4"><a xlink:href="_new_tagger___time_8h.html" target="_top" xlink:title="src/calibration/modules\l/NewTagger_Time.h">
<polygon fill="white" stroke="black" points="189.5,-79 189.5,-109 306.5,-109 306.5,-79 189.5,-79"/>
<text text-anchor="start" x="197.5" y="-97" font-family="Helvetica,sans-Serif" font-size="10.00">src/calibration/modules</text>
<text text-anchor="middle" x="248" y="-86" font-family="Helvetica,sans-Serif" font-size="10.00">/NewTagger_Time.h</text>
</a>
</g>
</g>
<!-- Node20&#45;&gt;Node21 -->
<g id="edge3" class="edge"><title>Node20&#45;&gt;Node21</title>
<path fill="none" stroke="midnightblue" d="M988.992,-155.377C832.498,-142.626 452.933,-111.698 306.749,-99.787"/>
<polygon fill="midnightblue" stroke="midnightblue" points="989.17,-158.903 999.421,-156.227 989.738,-151.926 989.17,-158.903"/>
</g>
<!-- Node25 -->
<g id="node8" class="node"><title>Node25</title>
<g id="a_node8"><a xlink:href="_t_a_p_s___time_8h.html" target="_top" xlink:title="src/calibration/modules\l/TAPS_Time.h">
<polygon fill="white" stroke="black" points="956.5,-79 956.5,-109 1073.5,-109 1073.5,-79 956.5,-79"/>
<text text-anchor="start" x="964.5" y="-97" font-family="Helvetica,sans-Serif" font-size="10.00">src/calibration/modules</text>
<text text-anchor="middle" x="1015" y="-86" font-family="Helvetica,sans-Serif" font-size="10.00">/TAPS_Time.h</text>
</a>
</g>
</g>
<!-- Node20&#45;&gt;Node25 -->
<g id="edge7" class="edge"><title>Node20&#45;&gt;Node25</title>
<path fill="none" stroke="midnightblue" d="M1043.03,-138.019C1036.8,-128.467 1029.77,-117.677 1024.31,-109.293"/>
<polygon fill="midnightblue" stroke="midnightblue" points="1040.28,-140.211 1048.67,-146.679 1046.14,-136.39 1040.28,-140.211"/>
</g>
<!-- Node20&#45;&gt;Node27 -->
<g id="edge28" class="edge"><title>Node20&#45;&gt;Node27</title>
<path fill="none" stroke="midnightblue" d="M989.318,-156.27C912.918,-149.965 786.251,-136.391 680,-110 603.401,-90.9744 517.425,-55.6968 472.389,-36.081"/>
<polygon fill="midnightblue" stroke="midnightblue" points="989.049,-159.76 999.298,-157.076 989.612,-152.783 989.049,-159.76"/>
</g>
<!-- Node20&#45;&gt;Node28 -->
<g id="edge29" class="edge"><title>Node20&#45;&gt;Node28</title>
<path fill="none" stroke="midnightblue" d="M989.519,-154.981C928.034,-148.255 835.885,-134.877 759,-110 700.19,-90.9711 636.366,-55.6948 603.113,-36.0801"/>
<polygon fill="midnightblue" stroke="midnightblue" points="989.181,-158.465 999.495,-156.044 989.922,-151.504 989.181,-158.465"/>
</g>
<!-- Node20&#45;&gt;Node29 -->
<g id="edge30" class="edge"><title>Node20&#45;&gt;Node29</title>
<path fill="none" stroke="midnightblue" d="M989.342,-158.433C935.502,-153.886 860.201,-141.772 802,-110 768.628,-91.7819 740.367,-56.0169 726.386,-36.1502"/>
<polygon fill="midnightblue" stroke="midnightblue" points="989.233,-161.935 999.474,-159.222 989.776,-154.956 989.233,-161.935"/>
</g>
<!-- Node20&#45;&gt;Node30 -->
<g id="edge31" class="edge"><title>Node20&#45;&gt;Node30</title>
<path fill="none" stroke="midnightblue" d="M989.099,-156.247C924.281,-150.17 833.987,-137.012 812,-110 793.487,-87.255 819.081,-54.7752 837.377,-36.3014"/>
<polygon fill="midnightblue" stroke="midnightblue" points="988.995,-159.751 999.269,-157.162 989.623,-152.779 988.995,-159.751"/>
</g>
<!-- Node20&#45;&gt;Node31 -->
<g id="edge32" class="edge"><title>Node20&#45;&gt;Node31</title>
<path fill="none" stroke="midnightblue" d="M1126.88,-157.914C1209.86,-152.967 1352.97,-140.49 1472,-110 1543.61,-91.6568 1623.13,-55.9416 1664.48,-36.1162"/>
<polygon fill="midnightblue" stroke="midnightblue" points="1126.59,-154.425 1116.81,-158.495 1127,-161.413 1126.59,-154.425"/>
</g>
<!-- Node20&#45;&gt;Node32 -->
<g id="edge33" class="edge"><title>Node20&#45;&gt;Node32</title>
<path fill="none" stroke="midnightblue" d="M1126.92,-160.12C1202.83,-157.201 1327.47,-146.591 1428,-110 1476.29,-92.4241 1525.5,-56.4032 1550.73,-36.3245"/>
<polygon fill="midnightblue" stroke="midnightblue" points="1126.41,-156.635 1116.54,-160.483 1126.66,-163.631 1126.41,-156.635"/>
</g>
<!-- Node20&#45;&gt;Node33 -->
<g id="edge34" class="edge"><title>Node20&#45;&gt;Node33</title>
<path fill="none" stroke="midnightblue" d="M1070.27,-138.243C1081.32,-119.691 1099.17,-94.0233 1121,-78 1135.96,-67.019 1175.46,-52.8852 1210.96,-41.5643"/>
<polygon fill="midnightblue" stroke="midnightblue" points="1067.21,-136.541 1065.26,-146.956 1073.28,-140.029 1067.21,-136.541"/>
</g>
<!-- Node20&#45;&gt;Node34 -->
<g id="edge36" class="edge"><title>Node20&#45;&gt;Node34</title>
<path fill="none" stroke="midnightblue" d="M1126.62,-159.396C1215.63,-155.919 1364.35,-144.901 1405,-110 1428.88,-89.4906 1432,-48.4348 1432.16,-30.5999"/>
<polygon fill="midnightblue" stroke="midnightblue" points="1126.47,-155.899 1116.6,-159.766 1126.73,-162.895 1126.47,-155.899"/>
</g>
<!-- Node35 -->
<g id="node18" class="node"><title>Node35</title>
<g id="a_node18"><a xlink:href="_t_a_p_s_veto___time_8h.html" target="_top" xlink:title="src/calibration/modules\l/TAPSVeto_Time.h">
<polygon fill="white" stroke="black" points="821.5,-79 821.5,-109 938.5,-109 938.5,-79 821.5,-79"/>
<text text-anchor="start" x="829.5" y="-97" font-family="Helvetica,sans-Serif" font-size="10.00">src/calibration/modules</text>
<text text-anchor="middle" x="880" y="-86" font-family="Helvetica,sans-Serif" font-size="10.00">/TAPSVeto_Time.h</text>
</a>
</g>
</g>
<!-- Node20&#45;&gt;Node35 -->
<g id="edge17" class="edge"><title>Node20&#45;&gt;Node35</title>
<path fill="none" stroke="midnightblue" d="M1010.3,-143.312C981.306,-132.563 944.805,-119.029 917.816,-109.022"/>
<polygon fill="midnightblue" stroke="midnightblue" points="1009.22,-146.646 1019.81,-146.841 1011.66,-140.083 1009.22,-146.646"/>
</g>
<!-- Node37 -->
<g id="node20" class="node"><title>Node37</title>
<g id="a_node20"><a xlink:href="calibration_2modules_2_time_8cc.html" target="_top" xlink:title="src/calibration/modules\l/Time.cc">
<polygon fill="white" stroke="black" points="1130.5,-79 1130.5,-109 1247.5,-109 1247.5,-79 1130.5,-79"/>
<text text-anchor="start" x="1138.5" y="-97" font-family="Helvetica,sans-Serif" font-size="10.00">src/calibration/modules</text>
<text text-anchor="middle" x="1189" y="-86" font-family="Helvetica,sans-Serif" font-size="10.00">/Time.cc</text>
</a>
</g>
</g>
<!-- Node20&#45;&gt;Node37 -->
<g id="edge27" class="edge"><title>Node20&#45;&gt;Node37</title>
<path fill="none" stroke="midnightblue" d="M1095.04,-142.339C1115.96,-131.796 1141.7,-118.83 1160.94,-109.135"/>
<polygon fill="midnightblue" stroke="midnightblue" points="1093.46,-139.216 1086.1,-146.841 1096.61,-145.468 1093.46,-139.216"/>
</g>
<!-- Node38 -->
<g id="node21" class="node"><title>Node38</title>
<g id="a_node21"><a xlink:href="_setup___c_b_source_calib_8cc.html" target="_top" xlink:title="src/expconfig/setups\l/Setup_CBSourceCalib.cc">
<polygon fill="white" stroke="black" points="1265.5,-79 1265.5,-109 1396.5,-109 1396.5,-79 1265.5,-79"/>
<text text-anchor="start" x="1273.5" y="-97" font-family="Helvetica,sans-Serif" font-size="10.00">src/expconfig/setups</text>
<text text-anchor="middle" x="1331" y="-86" font-family="Helvetica,sans-Serif" font-size="10.00">/Setup_CBSourceCalib.cc</text>
</a>
</g>
</g>
<!-- Node20&#45;&gt;Node38 -->
<g id="edge35" class="edge"><title>Node20&#45;&gt;Node38</title>
<path fill="none" stroke="midnightblue" d="M1126.23,-144.505C1171.37,-133.591 1229.93,-119.434 1272.86,-109.056"/>
<polygon fill="midnightblue" stroke="midnightblue" points="1125.13,-141.17 1116.23,-146.922 1126.77,-147.974 1125.13,-141.17"/>
</g>
<!-- Node22 -->
<g id="node5" class="node"><title>Node22</title>
<g id="a_node5"><a xlink:href="_new_tagger___time_8cc.html" target="_top" xlink:title="src/calibration/modules\l/NewTagger_Time.cc">
<polygon fill="white" stroke="black" points="124.5,-6 124.5,-36 241.5,-36 241.5,-6 124.5,-6"/>
<text text-anchor="start" x="132.5" y="-24" font-family="Helvetica,sans-Serif" font-size="10.00">src/calibration/modules</text>
<text text-anchor="middle" x="183" y="-13" font-family="Helvetica,sans-Serif" font-size="10.00">/NewTagger_Time.cc</text>
</a>
</g>
</g>
<!-- Node21&#45;&gt;Node22 -->
<g id="edge4" class="edge"><title>Node21&#45;&gt;Node22</title>
<path fill="none" stroke="midnightblue" d="M228.366,-71.5539C217.979,-60.2075 205.5,-46.5768 196.261,-36.4856"/>
<polygon fill="midnightblue" stroke="midnightblue" points="225.824,-73.9602 235.158,-78.9727 230.987,-69.2334 225.824,-73.9602"/>
</g>
<!-- Node23 -->
<g id="node6" class="node"><title>Node23</title>
<g id="a_node6"><a xlink:href="_setup__2017__12_8cc.html" target="_top" xlink:title="src/expconfig/setups\l/Setup_2017_12.cc">
<polygon fill="white" stroke="black" points="259.5,-6 259.5,-36 366.5,-36 366.5,-6 259.5,-6"/>
<text text-anchor="start" x="267.5" y="-24" font-family="Helvetica,sans-Serif" font-size="10.00">src/expconfig/setups</text>
<text text-anchor="middle" x="313" y="-13" font-family="Helvetica,sans-Serif" font-size="10.00">/Setup_2017_12.cc</text>
</a>
</g>
</g>
<!-- Node21&#45;&gt;Node23 -->
<g id="edge5" class="edge"><title>Node21&#45;&gt;Node23</title>
<path fill="none" stroke="midnightblue" d="M267.634,-71.5539C278.021,-60.2075 290.5,-46.5768 299.739,-36.4856"/>
<polygon fill="midnightblue" stroke="midnightblue" points="265.013,-69.2334 260.842,-78.9727 270.176,-73.9602 265.013,-69.2334"/>
</g>
<!-- Node24 -->
<g id="node7" class="node"><title>Node24</title>
<g id="a_node7"><a xlink:href="_setup__2018__03_8cc.html" target="_top" xlink:title="src/expconfig/setups\l/Setup_2018_03.cc">
<polygon fill="white" stroke="black" points="-0.5,-6 -0.5,-36 106.5,-36 106.5,-6 -0.5,-6"/>
<text text-anchor="start" x="7.5" y="-24" font-family="Helvetica,sans-Serif" font-size="10.00">src/expconfig/setups</text>
<text text-anchor="middle" x="53" y="-13" font-family="Helvetica,sans-Serif" font-size="10.00">/Setup_2018_03.cc</text>
</a>
</g>
</g>
<!-- Node21&#45;&gt;Node24 -->
<g id="edge6" class="edge"><title>Node21&#45;&gt;Node24</title>
<path fill="none" stroke="midnightblue" d="M199.939,-75.501C166.634,-63.3743 122.862,-47.4369 91.7789,-36.1195"/>
<polygon fill="midnightblue" stroke="midnightblue" points="198.88,-78.8401 209.474,-78.9727 201.275,-72.2625 198.88,-78.8401"/>
</g>
<!-- Node26 -->
<g id="node9" class="node"><title>Node26</title>
<g id="a_node9"><a xlink:href="_t_a_p_s___time_8cc.html" target="_top" xlink:title="src/calibration/modules\l/TAPS_Time.cc">
<polygon fill="white" stroke="black" points="1068.5,-6 1068.5,-36 1185.5,-36 1185.5,-6 1068.5,-6"/>
<text text-anchor="start" x="1076.5" y="-24" font-family="Helvetica,sans-Serif" font-size="10.00">src/calibration/modules</text>
<text text-anchor="middle" x="1127" y="-13" font-family="Helvetica,sans-Serif" font-size="10.00">/TAPS_Time.cc</text>
</a>
</g>
</g>
<!-- Node25&#45;&gt;Node26 -->
<g id="edge8" class="edge"><title>Node25&#45;&gt;Node26</title>
<path fill="none" stroke="midnightblue" d="M1045.58,-73.6165C1064.21,-61.8051 1087.61,-46.9719 1104.54,-36.2412"/>
<polygon fill="midnightblue" stroke="midnightblue" points="1043.7,-70.6625 1037.13,-78.9727 1047.45,-76.5746 1043.7,-70.6625"/>
</g>
<!-- Node25&#45;&gt;Node27 -->
<g id="edge9" class="edge"><title>Node25&#45;&gt;Node27</title>
<path fill="none" stroke="midnightblue" d="M946.476,-78.0828C751.17,-49.7734 696.554,-78.0494 507,-42 499.002,-40.4789 490.596,-38.3548 482.563,-36.0553"/>
<polygon fill="midnightblue" stroke="midnightblue" points="946.084,-81.5628 956.489,-79.5655 947.109,-74.6383 946.084,-81.5628"/>
</g>
<!-- Node25&#45;&gt;Node28 -->
<g id="edge10" class="edge"><title>Node25&#45;&gt;Node28</title>
<path fill="none" stroke="midnightblue" d="M946.451,-78.0272C815.474,-56.3436 779.004,-66.8381 653,-42 644.62,-40.3481 635.789,-38.2457 627.277,-36.028"/>
<polygon fill="midnightblue" stroke="midnightblue" points="946.021,-81.5041 956.464,-79.7166 947.186,-74.6016 946.021,-81.5041"/>
</g>
<!-- Node25&#45;&gt;Node29 -->
<g id="edge11" class="edge"><title>Node25&#45;&gt;Node29</title>
<path fill="none" stroke="midnightblue" d="M946.481,-77.9072C871.58,-61.7891 850.996,-60.4873 781,-42 774.247,-40.2164 767.144,-38.1702 760.226,-36.0825"/>
<polygon fill="midnightblue" stroke="midnightblue" points="945.883,-81.3588 956.398,-80.0591 947.367,-74.518 945.883,-81.3588"/>
</g>
<!-- Node25&#45;&gt;Node30 -->
<g id="edge12" class="edge"><title>Node25&#45;&gt;Node30</title>
<path fill="none" stroke="midnightblue" d="M973.64,-74.8732C946.158,-62.8285 910.596,-47.2426 885.216,-36.1195"/>
<polygon fill="midnightblue" stroke="midnightblue" points="972.43,-78.1642 982.994,-78.9727 975.24,-71.7529 972.43,-78.1642"/>
</g>
<!-- Node25&#45;&gt;Node31 -->
<g id="edge13" class="edge"><title>Node25&#45;&gt;Node31</title>
<path fill="none" stroke="midnightblue" d="M1083.77,-82.5544C1096.15,-80.8785 1108.94,-79.2779 1121,-78 1346.52,-54.0974 1407.25,-84.6088 1630,-42 1637.78,-40.5124 1645.94,-38.3737 1653.71,-36.0431"/>
<polygon fill="midnightblue" stroke="midnightblue" points="1082.93,-79.1377 1073.5,-83.9745 1083.89,-86.0717 1082.93,-79.1377"/>
</g>
<!-- Node25&#45;&gt;Node32 -->
<g id="edge14" class="edge"><title>Node25&#45;&gt;Node32</title>
<path fill="none" stroke="midnightblue" d="M1083.8,-82.7839C1096.17,-81.0838 1108.96,-79.4157 1121,-78 1291.24,-57.9857 1337.02,-76.1283 1505,-42 1512.65,-40.4464 1520.68,-38.307 1528.35,-36.0026"/>
<polygon fill="midnightblue" stroke="midnightblue" points="1082.95,-79.3681 1073.53,-84.2147 1083.92,-86.3012 1082.95,-79.3681"/>
</g>
<!-- Node25&#45;&gt;Node33 -->
<g id="edge15" class="edge"><title>Node25&#45;&gt;Node33</title>
<path fill="none" stroke="midnightblue" d="M1076.78,-76.2568C1115.22,-65.8413 1164.81,-52.4037 1205.01,-41.5075"/>
<polygon fill="midnightblue" stroke="midnightblue" points="1075.5,-72.9789 1066.76,-78.9727 1077.33,-79.7352 1075.5,-72.9789"/>
</g>
<!-- Node25&#45;&gt;Node34 -->
<g id="edge16" class="edge"><title>Node25&#45;&gt;Node34</title>
<path fill="none" stroke="midnightblue" d="M1083.91,-83.238C1176.54,-70.0449 1332.7,-47.5319 1359,-42 1373.92,-38.8627 1390.3,-34.4622 1403.77,-30.5873"/>
<polygon fill="midnightblue" stroke="midnightblue" points="1083.17,-79.8069 1073.77,-84.6811 1084.16,-86.7371 1083.17,-79.8069"/>
</g>
<!-- Node35&#45;&gt;Node27 -->
<g id="edge19" class="edge"><title>Node35&#45;&gt;Node27</title>
<path fill="none" stroke="midnightblue" d="M811.056,-86.8744C735.759,-79.4201 611.895,-64.9131 507,-42 499.397,-40.3392 491.4,-38.2324 483.699,-36.0132"/>
<polygon fill="midnightblue" stroke="midnightblue" points="811.058,-90.3912 821.351,-87.8795 811.738,-83.4243 811.058,-90.3912"/>
</g>
<!-- Node35&#45;&gt;Node28 -->
<g id="edge20" class="edge"><title>Node35&#45;&gt;Node28</title>
<path fill="none" stroke="midnightblue" d="M811.067,-78.3836C765.97,-68.6071 705.835,-55.1653 653,-42 645.605,-40.1572 637.813,-38.1228 630.185,-36.0783"/>
<polygon fill="midnightblue" stroke="midnightblue" points="810.518,-81.8456 821.032,-80.5372 811.997,-75.0036 810.518,-81.8456"/>
</g>
<!-- Node35&#45;&gt;Node29 -->
<g id="edge21" class="edge"><title>Node35&#45;&gt;Node29</title>
<path fill="none" stroke="midnightblue" d="M838.385,-74.8732C810.733,-62.8285 774.951,-47.2426 749.415,-36.1195"/>
<polygon fill="midnightblue" stroke="midnightblue" points="837.231,-78.188 847.796,-78.9727 840.026,-71.7704 837.231,-78.188"/>
</g>
<!-- Node35&#45;&gt;Node30 -->
<g id="edge22" class="edge"><title>Node35&#45;&gt;Node30</title>
<path fill="none" stroke="midnightblue" d="M871.089,-69.5684C866.936,-58.6465 862.125,-45.9946 858.509,-36.4856"/>
<polygon fill="midnightblue" stroke="midnightblue" points="867.84,-70.8698 874.666,-78.9727 874.383,-68.3816 867.84,-70.8698"/>
</g>
<!-- Node35&#45;&gt;Node31 -->
<g id="edge23" class="edge"><title>Node35&#45;&gt;Node31</title>
<path fill="none" stroke="midnightblue" d="M949.065,-77.8708C1250.04,-37.9779 1334.29,-95.8182 1630,-42 1637.9,-40.5617 1646.19,-38.4146 1654.07,-36.0538"/>
<polygon fill="midnightblue" stroke="midnightblue" points="948.166,-74.4604 938.725,-79.2683 949.104,-81.3973 948.166,-74.4604"/>
</g>
<!-- Node35&#45;&gt;Node32 -->
<g id="edge24" class="edge"><title>Node35&#45;&gt;Node32</title>
<path fill="none" stroke="midnightblue" d="M948.691,-77.9042C1194.82,-43.9219 1263.99,-87.3308 1505,-42 1512.78,-40.5364 1520.95,-38.4088 1528.72,-36.0815"/>
<polygon fill="midnightblue" stroke="midnightblue" points="948.144,-74.4465 938.73,-79.308 949.121,-81.378 948.144,-74.4465"/>
</g>
<!-- Node35&#45;&gt;Node33 -->
<g id="edge25" class="edge"><title>Node35&#45;&gt;Node33</title>
<path fill="none" stroke="midnightblue" d="M948.863,-77.7376C1057.86,-58.1465 1088.26,-62.4005 1194,-42 1197.2,-41.3823 1200.47,-40.723 1203.76,-40.0339"/>
<polygon fill="midnightblue" stroke="midnightblue" points="947.984,-74.34 938.775,-79.5779 949.24,-81.2264 947.984,-74.34"/>
</g>
<!-- Node35&#45;&gt;Node34 -->
<g id="edge26" class="edge"><title>Node35&#45;&gt;Node34</title>
<path fill="none" stroke="midnightblue" d="M948.898,-77.8366C1130.47,-50.7279 1181.34,-73.8303 1359,-42 1374.52,-39.2191 1391.53,-34.6507 1405.22,-30.5817"/>
<polygon fill="midnightblue" stroke="midnightblue" points="948.1,-74.4177 938.742,-79.3846 949.155,-81.3378 948.1,-74.4177"/>
</g>
<!-- Node36 -->
<g id="node19" class="node"><title>Node36</title>
<g id="a_node19"><a xlink:href="_t_a_p_s_veto___time_8cc.html" target="_top" xlink:title="src/calibration/modules\l/TAPSVeto_Time.cc">
<polygon fill="white" stroke="black" points="933.5,-6 933.5,-36 1050.5,-36 1050.5,-6 933.5,-6"/>
<text text-anchor="start" x="941.5" y="-24" font-family="Helvetica,sans-Serif" font-size="10.00">src/calibration/modules</text>
<text text-anchor="middle" x="992" y="-13" font-family="Helvetica,sans-Serif" font-size="10.00">/TAPSVeto_Time.cc</text>
</a>
</g>
</g>
<!-- Node35&#45;&gt;Node36 -->
<g id="edge18" class="edge"><title>Node35&#45;&gt;Node36</title>
<path fill="none" stroke="midnightblue" d="M910.577,-73.6165C929.209,-61.8051 952.608,-46.9719 969.535,-36.2412"/>
<polygon fill="midnightblue" stroke="midnightblue" points="908.7,-70.6625 902.128,-78.9727 912.447,-76.5746 908.7,-70.6625"/>
</g>
</g>
</svg>
