<?xml version="1.0" encoding="UTF-8" standalone="no"?>
<!DOCTYPE svg PUBLIC "-//W3C//DTD SVG 1.1//EN"
 "http://www.w3.org/Graphics/SVG/1.1/DTD/svg11.dtd">
<!-- Generated by graphviz version 2.36.0 (20140111.2315)
 -->
<!-- Title: src/calibration/converters/GeSiCa_SADC.h Pages: 1 -->
<svg width="1418pt" height="186pt"
 viewBox="0.00 0.00 1418.00 186.00" xmlns="http://www.w3.org/2000/svg" xmlns:xlink="http://www.w3.org/1999/xlink">
<g id="graph0" class="graph" transform="scale(1 1) rotate(0) translate(4 182)">
<title>src/calibration/converters/GeSiCa_SADC.h</title>
<polygon fill="white" stroke="none" points="-4,4 -4,-182 1414,-182 1414,4 -4,4"/>
<!-- Node49 -->
<g id="node1" class="node"><title>Node49</title>
<polygon fill="#bfbfbf" stroke="black" points="641,-147 641,-177 767,-177 767,-147 641,-147"/>
<text text-anchor="start" x="649" y="-165" font-family="Helvetica,sans-Serif" font-size="10.00">src/calibration/converters</text>
<text text-anchor="middle" x="704" y="-154" font-family="Helvetica,sans-Serif" font-size="10.00">/GeSiCa_SADC.h</text>
</g>
<!-- Node50 -->
<g id="node2" class="node"><title>Node50</title>
<g id="a_node2"><a xlink:href="analysis_2physics_2calibration_2_c_b___source_calib_8h.html" target="_top" xlink:title="src/analysis/physics\l/calibration/CB_SourceCalib.h">
<polygon fill="white" stroke="black" points="2,-74 2,-104 150,-104 150,-74 2,-74"/>
<text text-anchor="start" x="10" y="-92" font-family="Helvetica,sans-Serif" font-size="10.00">src/analysis/physics</text>
<text text-anchor="middle" x="76" y="-81" font-family="Helvetica,sans-Serif" font-size="10.00">/calibration/CB_SourceCalib.h</text>
</a>
</g>
</g>
<!-- Node49&#45;&gt;Node50 -->
<g id="edge1" class="edge"><title>Node49&#45;&gt;Node50</title>
<path fill="none" stroke="midnightblue" d="M630.645,-157.396C525.753,-151.502 327.112,-137.588 160,-110 150.238,-108.388 139.926,-106.279 129.997,-104.034"/>
<polygon fill="midnightblue" stroke="midnightblue" points="630.629,-160.9 640.807,-157.958 631.016,-153.911 630.629,-160.9"/>
</g>
<!-- Node52 -->
<g id="node4" class="node"><title>Node52</title>
<g id="a_node4"><a xlink:href="_setup__2007___base_8cc.html" target="_top" xlink:title="src/expconfig/setups\l/Setup_2007_Base.cc">
<polygon fill="white" stroke="black" points="168.5,-74 168.5,-104 281.5,-104 281.5,-74 168.5,-74"/>
<text text-anchor="start" x="176.5" y="-92" font-family="Helvetica,sans-Serif" font-size="10.00">src/expconfig/setups</text>
<text text-anchor="middle" x="225" y="-81" font-family="Helvetica,sans-Serif" font-size="10.00">/Setup_2007_Base.cc</text>
</a>
</g>
</g>
<!-- Node49&#45;&gt;Node52 -->
<g id="edge3" class="edge"><title>Node49&#45;&gt;Node52</title>
<path fill="none" stroke="midnightblue" d="M630.73,-155.767C547.676,-148.956 408.551,-134.877 291,-110 283.386,-108.389 275.384,-106.306 267.681,-104.096"/>
<polygon fill="midnightblue" stroke="midnightblue" points="630.575,-159.266 640.824,-156.582 631.138,-152.289 630.575,-159.266"/>
</g>
<!-- Node53 -->
<g id="node5" class="node"><title>Node53</title>
<g id="a_node5"><a xlink:href="_setup__2010__03___base_8cc.html" target="_top" xlink:title="src/expconfig/setups\l/Setup_2010_03_Base.cc">
<polygon fill="white" stroke="black" points="300,-74 300,-104 428,-104 428,-74 300,-74"/>
<text text-anchor="start" x="308" y="-92" font-family="Helvetica,sans-Serif" font-size="10.00">src/expconfig/setups</text>
<text text-anchor="middle" x="364" y="-81" font-family="Helvetica,sans-Serif" font-size="10.00">/Setup_2010_03_Base.cc</text>
</a>
</g>
</g>
<!-- Node49&#45;&gt;Node53 -->
<g id="edge4" class="edge"><title>Node49&#45;&gt;Node53</title>
<path fill="none" stroke="midnightblue" d="M630.719,-148.605C576.889,-139.112 502.104,-125.111 437,-110 429.32,-108.217 421.23,-106.172 413.344,-104.084"/>
<polygon fill="midnightblue" stroke="midnightblue" points="630.404,-152.103 640.858,-150.384 631.613,-145.208 630.404,-152.103"/>
</g>
<!-- Node54 -->
<g id="node6" class="node"><title>Node54</title>
<g id="a_node6"><a xlink:href="_setup__2014___e_p_t_8cc.html" target="_top" xlink:title="src/expconfig/setups\l/Setup_2014_EPT.cc">
<polygon fill="white" stroke="black" points="446,-74 446,-104 556,-104 556,-74 446,-74"/>
<text text-anchor="start" x="454" y="-92" font-family="Helvetica,sans-Serif" font-size="10.00">src/expconfig/setups</text>
<text text-anchor="middle" x="501" y="-81" font-family="Helvetica,sans-Serif" font-size="10.00">/Setup_2014_EPT.cc</text>
</a>
</g>
</g>
<!-- Node49&#45;&gt;Node54 -->
<g id="edge5" class="edge"><title>Node49&#45;&gt;Node54</title>
<path fill="none" stroke="midnightblue" d="M654.414,-143.657C619.687,-131.511 573.867,-115.485 541.37,-104.12"/>
<polygon fill="midnightblue" stroke="midnightblue" points="653.299,-146.975 663.894,-146.973 655.61,-140.367 653.299,-146.975"/>
</g>
<!-- Node55 -->
<g id="node7" class="node"><title>Node55</title>
<g id="a_node7"><a xlink:href="_setup__2015__01___pion_8cc.html" target="_top" xlink:title="src/expconfig/setups\l/Setup_2015_01_Pion.cc">
<polygon fill="white" stroke="black" points="574.5,-74 574.5,-104 699.5,-104 699.5,-74 574.5,-74"/>
<text text-anchor="start" x="582.5" y="-92" font-family="Helvetica,sans-Serif" font-size="10.00">src/expconfig/setups</text>
<text text-anchor="middle" x="637" y="-81" font-family="Helvetica,sans-Serif" font-size="10.00">/Setup_2015_01_Pion.cc</text>
</a>
</g>
</g>
<!-- Node49&#45;&gt;Node55 -->
<g id="edge6" class="edge"><title>Node49&#45;&gt;Node55</title>
<path fill="none" stroke="midnightblue" d="M683.762,-139.554C673.055,-128.207 660.192,-114.577 650.67,-104.486"/>
<polygon fill="midnightblue" stroke="midnightblue" points="681.354,-142.102 690.763,-146.973 686.445,-137.298 681.354,-142.102"/>
</g>
<!-- Node56 -->
<g id="node8" class="node"><title>Node56</title>
<g id="a_node8"><a xlink:href="_setup__2017__03_8cc.html" target="_top" xlink:title="src/expconfig/setups\l/Setup_2017_03.cc">
<polygon fill="white" stroke="black" points="717.5,-74 717.5,-104 824.5,-104 824.5,-74 717.5,-74"/>
<text text-anchor="start" x="725.5" y="-92" font-family="Helvetica,sans-Serif" font-size="10.00">src/expconfig/setups</text>
<text text-anchor="middle" x="771" y="-81" font-family="Helvetica,sans-Serif" font-size="10.00">/Setup_2017_03.cc</text>
</a>
</g>
</g>
<!-- Node49&#45;&gt;Node56 -->
<g id="edge7" class="edge"><title>Node49&#45;&gt;Node56</title>
<path fill="none" stroke="midnightblue" d="M724.238,-139.554C734.945,-128.207 747.808,-114.577 757.33,-104.486"/>
<polygon fill="midnightblue" stroke="midnightblue" points="721.555,-137.298 717.237,-146.973 726.646,-142.102 721.555,-137.298"/>
</g>
<!-- Node57 -->
<g id="node9" class="node"><title>Node57</title>
<g id="a_node9"><a xlink:href="_setup__2017__05_8cc.html" target="_top" xlink:title="src/expconfig/setups\l/Setup_2017_05.cc">
<polygon fill="white" stroke="black" points="842.5,-74 842.5,-104 949.5,-104 949.5,-74 842.5,-74"/>
<text text-anchor="start" x="850.5" y="-92" font-family="Helvetica,sans-Serif" font-size="10.00">src/expconfig/setups</text>
<text text-anchor="middle" x="896" y="-81" font-family="Helvetica,sans-Serif" font-size="10.00">/Setup_2017_05.cc</text>
</a>
</g>
</g>
<!-- Node49&#45;&gt;Node57 -->
<g id="edge8" class="edge"><title>Node49&#45;&gt;Node57</title>
<path fill="none" stroke="midnightblue" d="M751.321,-143.501C784.114,-131.374 827.213,-115.437 857.818,-104.12"/>
<polygon fill="midnightblue" stroke="midnightblue" points="750.098,-140.222 741.933,-146.973 752.526,-146.787 750.098,-140.222"/>
</g>
<!-- Node58 -->
<g id="node10" class="node"><title>Node58</title>
<g id="a_node10"><a xlink:href="_setup__2017_plus___new_tagger___base_8cc.html" target="_top" xlink:title="src/expconfig/setups\l/Setup_2017Plus_NewTagger\l_Base.cc">
<polygon fill="white" stroke="black" points="968,-68.5 968,-109.5 1114,-109.5 1114,-68.5 968,-68.5"/>
<text text-anchor="start" x="976" y="-97.5" font-family="Helvetica,sans-Serif" font-size="10.00">src/expconfig/setups</text>
<text text-anchor="start" x="976" y="-86.5" font-family="Helvetica,sans-Serif" font-size="10.00">/Setup_2017Plus_NewTagger</text>
<text text-anchor="middle" x="1041" y="-75.5" font-family="Helvetica,sans-Serif" font-size="10.00">_Base.cc</text>
</a>
</g>
</g>
<!-- Node49&#45;&gt;Node58 -->
<g id="edge9" class="edge"><title>Node49&#45;&gt;Node58</title>
<path fill="none" stroke="midnightblue" d="M776.947,-147.122C827.8,-137.259 897.165,-123.432 958,-110 961.184,-109.297 964.434,-108.567 967.715,-107.82"/>
<polygon fill="midnightblue" stroke="midnightblue" points="776.185,-143.705 767.031,-149.04 777.514,-150.577 776.185,-143.705"/>
</g>
<!-- Node59 -->
<g id="node11" class="node"><title>Node59</title>
<g id="a_node11"><a xlink:href="_setup___c_b_source_calib_8cc.html" target="_top" xlink:title="src/expconfig/setups\l/Setup_CBSourceCalib.cc">
<polygon fill="white" stroke="black" points="1132.5,-74 1132.5,-104 1263.5,-104 1263.5,-74 1132.5,-74"/>
<text text-anchor="start" x="1140.5" y="-92" font-family="Helvetica,sans-Serif" font-size="10.00">src/expconfig/setups</text>
<text text-anchor="middle" x="1198" y="-81" font-family="Helvetica,sans-Serif" font-size="10.00">/Setup_CBSourceCalib.cc</text>
</a>
</g>
</g>
<!-- Node49&#45;&gt;Node59 -->
<g id="edge10" class="edge"><title>Node49&#45;&gt;Node59</title>
<path fill="none" stroke="midnightblue" d="M777.46,-155.184C861.499,-147.809 1002.99,-133.187 1123,-110 1131.6,-108.338 1140.67,-106.231 1149.41,-104.012"/>
<polygon fill="midnightblue" stroke="midnightblue" points="776.91,-151.719 767.249,-156.069 777.514,-158.692 776.91,-151.719"/>
</g>
<!-- Node60 -->
<g id="node12" class="node"><title>Node60</title>
<g id="a_node12"><a xlink:href="expconfig__helpers_8cc.html" target="_top" xlink:title="test/expconfig_helpers.cc">
<polygon fill="white" stroke="black" points="1282,-79.5 1282,-98.5 1410,-98.5 1410,-79.5 1282,-79.5"/>
<text text-anchor="middle" x="1346" y="-86.5" font-family="Helvetica,sans-Serif" font-size="10.00">test/expconfig_helpers.cc</text>
</a>
</g>
</g>
<!-- Node49&#45;&gt;Node60 -->
<g id="edge11" class="edge"><title>Node49&#45;&gt;Node60</title>
<path fill="none" stroke="midnightblue" d="M777.293,-158.503C886.023,-153.879 1096.14,-141.411 1272,-110 1287.72,-107.192 1304.96,-102.622 1318.85,-98.5587"/>
<polygon fill="midnightblue" stroke="midnightblue" points="776.938,-155.015 767.092,-158.926 777.229,-162.009 776.938,-155.015"/>
</g>
<!-- Node51 -->
<g id="node3" class="node"><title>Node51</title>
<g id="a_node3"><a xlink:href="analysis_2physics_2calibration_2_c_b___source_calib_8cc.html" target="_top" xlink:title="src/analysis/physics\l/calibration/CB_SourceCalib.cc">
<polygon fill="white" stroke="black" points="-0.5,-1 -0.5,-31 152.5,-31 152.5,-1 -0.5,-1"/>
<text text-anchor="start" x="7.5" y="-19" font-family="Helvetica,sans-Serif" font-size="10.00">src/analysis/physics</text>
<text text-anchor="middle" x="76" y="-8" font-family="Helvetica,sans-Serif" font-size="10.00">/calibration/CB_SourceCalib.cc</text>
</a>
</g>
</g>
<!-- Node50&#45;&gt;Node51 -->
<g id="edge2" class="edge"><title>Node50&#45;&gt;Node51</title>
<path fill="none" stroke="midnightblue" d="M76,-63.8976C76,-53.1314 76,-40.8005 76,-31.4856"/>
<polygon fill="midnightblue" stroke="midnightblue" points="72.5001,-63.9727 76,-73.9727 79.5001,-63.9727 72.5001,-63.9727"/>
</g>
</g>
</svg>
