<?xml version="1.0" encoding="UTF-8" standalone="no"?>
<!DOCTYPE svg PUBLIC "-//W3C//DTD SVG 1.1//EN"
 "http://www.w3.org/Graphics/SVG/1.1/DTD/svg11.dtd">
<!-- Generated by graphviz version 2.36.0 (20140111.2315)
 -->
<!-- Title: src/analysis/plot/HistStyle.h Pages: 1 -->
<svg width="2438pt" height="242pt"
 viewBox="0.00 0.00 2438.00 242.00" xmlns="http://www.w3.org/2000/svg" xmlns:xlink="http://www.w3.org/1999/xlink">
<g id="graph0" class="graph" transform="scale(1 1) rotate(0) translate(4 238)">
<title>src/analysis/plot/HistStyle.h</title>
<polygon fill="white" stroke="none" points="-4,4 -4,-238 2434,-238 2434,4 -4,4"/>
<!-- Node4 -->
<g id="node1" class="node"><title>Node4</title>
<polygon fill="#bfbfbf" stroke="black" points="1671,-214.5 1671,-233.5 1811,-233.5 1811,-214.5 1671,-214.5"/>
<text text-anchor="middle" x="1741" y="-221.5" font-family="Helvetica,sans-Serif" font-size="10.00">src/analysis/plot/HistStyle.h</text>
</g>
<!-- Node5 -->
<g id="node2" class="node"><title>Node5</title>
<g id="a_node2"><a xlink:href="_m_c_clustering_check_8cc.html" target="_top" xlink:title="src/analysis/physics\l/check/MCClusteringCheck.cc">
<polygon fill="white" stroke="black" points="2078.5,-6 2078.5,-36 2229.5,-36 2229.5,-6 2078.5,-6"/>
<text text-anchor="start" x="2086.5" y="-24" font-family="Helvetica,sans-Serif" font-size="10.00">src/analysis/physics</text>
<text text-anchor="middle" x="2154" y="-13" font-family="Helvetica,sans-Serif" font-size="10.00">/check/MCClusteringCheck.cc</text>
</a>
</g>
</g>
<!-- Node4&#45;&gt;Node5 -->
<g id="edge1" class="edge"><title>Node4&#45;&gt;Node5</title>
<path fill="none" stroke="midnightblue" d="M1770.74,-210.613C1812.37,-193.716 1890.74,-163.541 1960,-146 2009.3,-133.515 2152.99,-148.685 2186,-110 2204.57,-88.2354 2182.48,-54.8034 2166.86,-36.0338"/>
<polygon fill="midnightblue" stroke="midnightblue" points="1769.39,-207.384 1761.45,-214.407 1772.03,-213.863 1769.39,-207.384"/>
</g>
<!-- Node6 -->
<g id="node3" class="node"><title>Node6</title>
<g id="a_node3"><a xlink:href="_m_c_gun_check_8cc.html" target="_top" xlink:title="src/analysis/physics\l/check/MCGunCheck.cc">
<polygon fill="white" stroke="black" points="1969.5,-147 1969.5,-177 2094.5,-177 2094.5,-147 1969.5,-147"/>
<text text-anchor="start" x="1977.5" y="-165" font-family="Helvetica,sans-Serif" font-size="10.00">src/analysis/physics</text>
<text text-anchor="middle" x="2032" y="-154" font-family="Helvetica,sans-Serif" font-size="10.00">/check/MCGunCheck.cc</text>
</a>
</g>
</g>
<!-- Node4&#45;&gt;Node6 -->
<g id="edge2" class="edge"><title>Node4&#45;&gt;Node6</title>
<path fill="none" stroke="midnightblue" d="M1792.21,-212.44C1841.6,-202.258 1916.44,-186.826 1969.36,-175.916"/>
<polygon fill="midnightblue" stroke="midnightblue" points="1791.47,-209.02 1782.38,-214.467 1792.88,-215.876 1791.47,-209.02"/>
</g>
<!-- Node7 -->
<g id="node4" class="node"><title>Node7</title>
<g id="a_node4"><a xlink:href="_m_c_photon_pair_check_8cc.html" target="_top" xlink:title="src/analysis/physics\l/check/MCPhotonPairCheck.cc">
<polygon fill="white" stroke="black" points="2112.5,-147 2112.5,-177 2267.5,-177 2267.5,-147 2112.5,-147"/>
<text text-anchor="start" x="2120.5" y="-165" font-family="Helvetica,sans-Serif" font-size="10.00">src/analysis/physics</text>
<text text-anchor="middle" x="2190" y="-154" font-family="Helvetica,sans-Serif" font-size="10.00">/check/MCPhotonPairCheck.cc</text>
</a>
</g>
</g>
<!-- Node4&#45;&gt;Node7 -->
<g id="edge3" class="edge"><title>Node4&#45;&gt;Node7</title>
<path fill="none" stroke="midnightblue" d="M1821.31,-214.114C1894.77,-205.726 2006.37,-192.328 2103,-178 2106.03,-177.55 2109.12,-177.079 2112.24,-176.593"/>
<polygon fill="midnightblue" stroke="midnightblue" points="1820.75,-210.656 1811.21,-215.264 1821.54,-217.611 1820.75,-210.656"/>
</g>
<!-- Node8 -->
<g id="node5" class="node"><title>Node8</title>
<g id="a_node5"><a xlink:href="_m_c_reconstruct_check_8cc.html" target="_top" xlink:title="src/analysis/physics\l/check/MCReconstructCheck.cc">
<polygon fill="white" stroke="black" points="842,-79 842,-109 1002,-109 1002,-79 842,-79"/>
<text text-anchor="start" x="850" y="-97" font-family="Helvetica,sans-Serif" font-size="10.00">src/analysis/physics</text>
<text text-anchor="middle" x="922" y="-86" font-family="Helvetica,sans-Serif" font-size="10.00">/check/MCReconstructCheck.cc</text>
</a>
</g>
</g>
<!-- Node4&#45;&gt;Node8 -->
<g id="edge4" class="edge"><title>Node4&#45;&gt;Node8</title>
<path fill="none" stroke="midnightblue" d="M1674.08,-212.948C1545.51,-193.567 1255.06,-149.455 1011,-110 1008.06,-109.525 1005.07,-109.038 1002.05,-108.543"/>
<polygon fill="midnightblue" stroke="midnightblue" points="1673.76,-216.438 1684.17,-214.468 1674.8,-209.517 1673.76,-216.438"/>
</g>
<!-- Node9 -->
<g id="node6" class="node"><title>Node9</title>
<g id="a_node6"><a xlink:href="physics_2tunings_2_trigger_simulation_8cc.html" target="_top" xlink:title="src/analysis/physics\l/tunings/TriggerSimulation.cc">
<polygon fill="white" stroke="black" points="-0.5,-6 -0.5,-36 142.5,-36 142.5,-6 -0.5,-6"/>
<text text-anchor="start" x="7.5" y="-24" font-family="Helvetica,sans-Serif" font-size="10.00">src/analysis/physics</text>
<text text-anchor="middle" x="71" y="-13" font-family="Helvetica,sans-Serif" font-size="10.00">/tunings/TriggerSimulation.cc</text>
</a>
</g>
</g>
<!-- Node4&#45;&gt;Node9 -->
<g id="edge5" class="edge"><title>Node4&#45;&gt;Node9</title>
<path fill="none" stroke="midnightblue" d="M1660.92,-220.29C1529.06,-215.299 1258.14,-202.817 1030,-178 637.003,-135.249 538.495,-120.243 151,-42 142.299,-40.2432 133.121,-38.1642 124.206,-36.0222"/>
<polygon fill="midnightblue" stroke="midnightblue" points="1660.81,-223.788 1670.93,-220.665 1661.07,-216.793 1660.81,-223.788"/>
</g>
<!-- Node10 -->
<g id="node7" class="node"><title>Node10</title>
<g id="a_node7"><a xlink:href="_cut_tree_8h.html" target="_top" xlink:title="src/analysis/plot/CutTree.h">
<polygon fill="white" stroke="black" points="690,-84.5 690,-103.5 824,-103.5 824,-84.5 690,-84.5"/>
<text text-anchor="middle" x="757" y="-91.5" font-family="Helvetica,sans-Serif" font-size="10.00">src/analysis/plot/CutTree.h</text>
</a>
</g>
</g>
<!-- Node4&#45;&gt;Node10 -->
<g id="edge6" class="edge"><title>Node4&#45;&gt;Node10</title>
<path fill="none" stroke="midnightblue" d="M1660.51,-217.426C1562.75,-210.248 1392.92,-196.463 1248,-178 1062.59,-154.379 1016.93,-143.211 833,-110 822.015,-108.017 810.164,-105.742 799.164,-103.575"/>
<polygon fill="midnightblue" stroke="midnightblue" points="1660.39,-220.927 1670.62,-218.164 1660.9,-213.945 1660.39,-220.927"/>
</g>
<!-- Node21 -->
<g id="node18" class="node"><title>Node21</title>
<g id="a_node18"><a xlink:href="_hist_style_8cc.html" target="_top" xlink:title="src/analysis/plot/HistStyle.cc">
<polygon fill="white" stroke="black" points="2285.5,-152.5 2285.5,-171.5 2430.5,-171.5 2430.5,-152.5 2285.5,-152.5"/>
<text text-anchor="middle" x="2358" y="-159.5" font-family="Helvetica,sans-Serif" font-size="10.00">src/analysis/plot/HistStyle.cc</text>
</a>
</g>
</g>
<!-- Node4&#45;&gt;Node21 -->
<g id="edge18" class="edge"><title>Node4&#45;&gt;Node21</title>
<path fill="none" stroke="midnightblue" d="M1821.54,-218.668C1926.47,-212.464 2115.5,-199.379 2276,-178 2288.91,-176.28 2302.88,-173.916 2315.56,-171.572"/>
<polygon fill="midnightblue" stroke="midnightblue" points="1821.12,-215.186 1811.34,-219.264 1821.53,-222.174 1821.12,-215.186"/>
</g>
<!-- Node22 -->
<g id="node19" class="node"><title>Node22</title>
<g id="a_node19"><a xlink:href="hstack_8h.html" target="_top" xlink:title="src/root&#45;addons/analysis\l_codes/hstack.h">
<polygon fill="white" stroke="black" points="1480.5,-147 1480.5,-177 1603.5,-177 1603.5,-147 1480.5,-147"/>
<text text-anchor="start" x="1488.5" y="-165" font-family="Helvetica,sans-Serif" font-size="10.00">src/root&#45;addons/analysis</text>
<text text-anchor="middle" x="1542" y="-154" font-family="Helvetica,sans-Serif" font-size="10.00">_codes/hstack.h</text>
</a>
</g>
</g>
<!-- Node4&#45;&gt;Node22 -->
<g id="edge19" class="edge"><title>Node4&#45;&gt;Node22</title>
<path fill="none" stroke="midnightblue" d="M1702.87,-211.503C1670.29,-201.68 1623.3,-187.514 1588.52,-177.025"/>
<polygon fill="midnightblue" stroke="midnightblue" points="1701.9,-214.868 1712.49,-214.403 1703.92,-208.166 1701.9,-214.868"/>
</g>
<!-- Node10&#45;&gt;Node9 -->
<g id="edge17" class="edge"><title>Node10&#45;&gt;Node9</title>
<path fill="none" stroke="midnightblue" d="M679.583,-90.4734C563.884,-85.7991 339.306,-73.253 151,-42 141.537,-40.4295 131.548,-38.3112 121.956,-36.0393"/>
<polygon fill="midnightblue" stroke="midnightblue" points="679.627,-93.9777 689.757,-90.8754 679.903,-86.9832 679.627,-93.9777"/>
</g>
<!-- Node11 -->
<g id="node8" class="node"><title>Node11</title>
<g id="a_node8"><a xlink:href="_p_i_d_efficiency_check_8cc.html" target="_top" xlink:title="src/analysis/physics\l/check/PIDEfficiencyCheck.cc">
<polygon fill="white" stroke="black" points="318,-6 318,-36 470,-36 470,-6 318,-6"/>
<text text-anchor="start" x="326" y="-24" font-family="Helvetica,sans-Serif" font-size="10.00">src/analysis/physics</text>
<text text-anchor="middle" x="394" y="-13" font-family="Helvetica,sans-Serif" font-size="10.00">/check/PIDEfficiencyCheck.cc</text>
</a>
</g>
</g>
<!-- Node10&#45;&gt;Node11 -->
<g id="edge7" class="edge"><title>Node10&#45;&gt;Node11</title>
<path fill="none" stroke="midnightblue" d="M696.197,-82.7407C639.762,-73.0065 553.492,-57.5866 479,-42 470.245,-40.1682 461.011,-38.1184 451.983,-36.0484"/>
<polygon fill="midnightblue" stroke="midnightblue" points="695.929,-86.246 706.378,-84.4909 697.115,-79.3472 695.929,-86.246"/>
</g>
<!-- Node12 -->
<g id="node9" class="node"><title>Node12</title>
<g id="a_node9"><a xlink:href="_meson_dalitz_decays__plot_8cc.html" target="_top" xlink:title="src/analysis/physics\l/common/MesonDalitzDecays\l_plot.cc">
<polygon fill="white" stroke="black" points="488.5,-0.5 488.5,-41.5 637.5,-41.5 637.5,-0.5 488.5,-0.5"/>
<text text-anchor="start" x="496.5" y="-29.5" font-family="Helvetica,sans-Serif" font-size="10.00">src/analysis/physics</text>
<text text-anchor="start" x="496.5" y="-18.5" font-family="Helvetica,sans-Serif" font-size="10.00">/common/MesonDalitzDecays</text>
<text text-anchor="middle" x="563" y="-7.5" font-family="Helvetica,sans-Serif" font-size="10.00">_plot.cc</text>
</a>
</g>
</g>
<!-- Node10&#45;&gt;Node12 -->
<g id="edge8" class="edge"><title>Node10&#45;&gt;Node12</title>
<path fill="none" stroke="midnightblue" d="M724.2,-80.996C694.768,-70.2245 651.023,-54.2147 616.527,-41.5897"/>
<polygon fill="midnightblue" stroke="midnightblue" points="723.005,-84.2856 733.599,-84.4357 725.411,-77.712 723.005,-84.2856"/>
</g>
<!-- Node13 -->
<g id="node10" class="node"><title>Node13</title>
<g id="a_node10"><a xlink:href="_etap_dalitz__plot_8cc.html" target="_top" xlink:title="src/analysis/physics\l/etaprime/EtapDalitz\l_plot.cc">
<polygon fill="white" stroke="black" points="655,-0.5 655,-41.5 761,-41.5 761,-0.5 655,-0.5"/>
<text text-anchor="start" x="663" y="-29.5" font-family="Helvetica,sans-Serif" font-size="10.00">src/analysis/physics</text>
<text text-anchor="start" x="663" y="-18.5" font-family="Helvetica,sans-Serif" font-size="10.00">/etaprime/EtapDalitz</text>
<text text-anchor="middle" x="708" y="-7.5" font-family="Helvetica,sans-Serif" font-size="10.00">_plot.cc</text>
</a>
</g>
</g>
<!-- Node10&#45;&gt;Node13 -->
<g id="edge9" class="edge"><title>Node10&#45;&gt;Node13</title>
<path fill="none" stroke="midnightblue" d="M745.31,-76.0618C738.141,-65.6738 728.936,-52.3353 721.462,-41.5067"/>
<polygon fill="midnightblue" stroke="midnightblue" points="742.431,-78.0518 750.992,-84.294 748.192,-74.0757 742.431,-78.0518"/>
</g>
<!-- Node14 -->
<g id="node11" class="node"><title>Node14</title>
<g id="a_node11"><a xlink:href="_etap_omega_g__plot_8cc.html" target="_top" xlink:title="src/analysis/physics\l/etaprime/EtapOmegaG\l_plot.cc">
<polygon fill="white" stroke="black" points="779.5,-0.5 779.5,-41.5 898.5,-41.5 898.5,-0.5 779.5,-0.5"/>
<text text-anchor="start" x="787.5" y="-29.5" font-family="Helvetica,sans-Serif" font-size="10.00">src/analysis/physics</text>
<text text-anchor="start" x="787.5" y="-18.5" font-family="Helvetica,sans-Serif" font-size="10.00">/etaprime/EtapOmegaG</text>
<text text-anchor="middle" x="839" y="-7.5" font-family="Helvetica,sans-Serif" font-size="10.00">_plot.cc</text>
</a>
</g>
</g>
<!-- Node10&#45;&gt;Node14 -->
<g id="edge10" class="edge"><title>Node10&#45;&gt;Node14</title>
<path fill="none" stroke="midnightblue" d="M774.771,-77.6125C786.996,-67.0275 803.333,-52.8822 816.471,-41.5067"/>
<polygon fill="midnightblue" stroke="midnightblue" points="772.324,-75.1022 767.055,-84.294 776.906,-80.3942 772.324,-75.1022"/>
</g>
<!-- Node15 -->
<g id="node12" class="node"><title>Node15</title>
<g id="a_node12"><a xlink:href="_omega___eta_g_8cc.html" target="_top" xlink:title="src/analysis/physics\l/omega/Omega_EtaG.cc">
<polygon fill="white" stroke="black" points="1524.5,-6 1524.5,-36 1649.5,-36 1649.5,-6 1524.5,-6"/>
<text text-anchor="start" x="1532.5" y="-24" font-family="Helvetica,sans-Serif" font-size="10.00">src/analysis/physics</text>
<text text-anchor="middle" x="1587" y="-13" font-family="Helvetica,sans-Serif" font-size="10.00">/omega/Omega_EtaG.cc</text>
</a>
</g>
</g>
<!-- Node10&#45;&gt;Node15 -->
<g id="edge11" class="edge"><title>Node10&#45;&gt;Node15</title>
<path fill="none" stroke="midnightblue" d="M804.659,-82.519C814.017,-80.7658 823.787,-79.1468 833,-78 1133.77,-40.5616 1214.79,-90.3213 1514,-42 1523.08,-40.5335 1532.65,-38.3736 1541.77,-36.0092"/>
<polygon fill="midnightblue" stroke="midnightblue" points="803.859,-79.109 794.713,-84.458 805.198,-85.9797 803.859,-79.109"/>
</g>
<!-- Node16 -->
<g id="node13" class="node"><title>Node16</title>
<g id="a_node13"><a xlink:href="sigma_plus_8cc.html" target="_top" xlink:title="src/analysis/physics\l/production/sigmaPlus.cc">
<polygon fill="white" stroke="black" points="916.5,-6 916.5,-36 1043.5,-36 1043.5,-6 916.5,-6"/>
<text text-anchor="start" x="924.5" y="-24" font-family="Helvetica,sans-Serif" font-size="10.00">src/analysis/physics</text>
<text text-anchor="middle" x="980" y="-13" font-family="Helvetica,sans-Serif" font-size="10.00">/production/sigmaPlus.cc</text>
</a>
</g>
</g>
<!-- Node10&#45;&gt;Node16 -->
<g id="edge12" class="edge"><title>Node10&#45;&gt;Node16</title>
<path fill="none" stroke="midnightblue" d="M793.764,-81.2948C832.688,-68.9022 894.129,-49.34 935.698,-36.1052"/>
<polygon fill="midnightblue" stroke="midnightblue" points="792.366,-78.0668 783.899,-84.4357 794.49,-84.7369 792.366,-78.0668"/>
</g>
<!-- Node17 -->
<g id="node14" class="node"><title>Node17</title>
<g id="a_node14"><a xlink:href="sigma_plus_plots_8cc.html" target="_top" xlink:title="src/analysis/physics\l/production/sigmaPlusPlots.cc">
<polygon fill="white" stroke="black" points="1061.5,-6 1061.5,-36 1210.5,-36 1210.5,-6 1061.5,-6"/>
<text text-anchor="start" x="1069.5" y="-24" font-family="Helvetica,sans-Serif" font-size="10.00">src/analysis/physics</text>
<text text-anchor="middle" x="1136" y="-13" font-family="Helvetica,sans-Serif" font-size="10.00">/production/sigmaPlusPlots.cc</text>
</a>
</g>
</g>
<!-- Node10&#45;&gt;Node17 -->
<g id="edge13" class="edge"><title>Node10&#45;&gt;Node17</title>
<path fill="none" stroke="midnightblue" d="M809.141,-82.4805C817.125,-80.936 825.277,-79.3966 833,-78 930.065,-60.4478 955.294,-61.4357 1052,-42 1060.82,-40.2277 1070.12,-38.1876 1079.19,-36.1025"/>
<polygon fill="midnightblue" stroke="midnightblue" points="808.308,-79.0771 799.164,-84.4292 809.65,-85.9473 808.308,-79.0771"/>
</g>
<!-- Node18 -->
<g id="node15" class="node"><title>Node18</title>
<g id="a_node15"><a xlink:href="single_pi0_plots_8cc.html" target="_top" xlink:title="src/analysis/physics\l/production/singlePi0Plots.cc">
<polygon fill="white" stroke="black" points="1228.5,-6 1228.5,-36 1371.5,-36 1371.5,-6 1228.5,-6"/>
<text text-anchor="start" x="1236.5" y="-24" font-family="Helvetica,sans-Serif" font-size="10.00">src/analysis/physics</text>
<text text-anchor="middle" x="1300" y="-13" font-family="Helvetica,sans-Serif" font-size="10.00">/production/singlePi0Plots.cc</text>
</a>
</g>
</g>
<!-- Node10&#45;&gt;Node18 -->
<g id="edge14" class="edge"><title>Node10&#45;&gt;Node18</title>
<path fill="none" stroke="midnightblue" d="M806.182,-82.534C815.081,-80.8571 824.297,-79.2614 833,-78 1003.52,-53.2865 1049.11,-70.7312 1219,-42 1228.43,-40.4059 1238.38,-38.3044 1247.95,-36.0631"/>
<polygon fill="midnightblue" stroke="midnightblue" points="805.465,-79.1078 796.314,-84.4482 806.798,-85.9797 805.465,-79.1078"/>
</g>
<!-- Node19 -->
<g id="node16" class="node"><title>Node19</title>
<g id="a_node16"><a xlink:href="triple_pi0_8cc.html" target="_top" xlink:title="src/analysis/physics\l/production/triplePi0.cc">
<polygon fill="white" stroke="black" points="1390,-6 1390,-36 1506,-36 1506,-6 1390,-6"/>
<text text-anchor="start" x="1398" y="-24" font-family="Helvetica,sans-Serif" font-size="10.00">src/analysis/physics</text>
<text text-anchor="middle" x="1448" y="-13" font-family="Helvetica,sans-Serif" font-size="10.00">/production/triplePi0.cc</text>
</a>
</g>
</g>
<!-- Node10&#45;&gt;Node19 -->
<g id="edge15" class="edge"><title>Node10&#45;&gt;Node19</title>
<path fill="none" stroke="midnightblue" d="M804.97,-82.5579C814.235,-80.8176 823.893,-79.1934 833,-78 1074.57,-46.3459 1140.12,-84.6315 1380,-42 1388.36,-40.5143 1397.15,-38.3765 1405.54,-36.0461"/>
<polygon fill="midnightblue" stroke="midnightblue" points="804.261,-79.1301 795.114,-84.4769 805.599,-86.0011 804.261,-79.1301"/>
</g>
<!-- Node20 -->
<g id="node17" class="node"><title>Node20</title>
<g id="a_node17"><a xlink:href="triple_pi0_plots_8cc.html" target="_top" xlink:title="src/analysis/physics\l/production/triplePi0Plots.cc">
<polygon fill="white" stroke="black" points="160.5,-6 160.5,-36 299.5,-36 299.5,-6 160.5,-6"/>
<text text-anchor="start" x="168.5" y="-24" font-family="Helvetica,sans-Serif" font-size="10.00">src/analysis/physics</text>
<text text-anchor="middle" x="230" y="-13" font-family="Helvetica,sans-Serif" font-size="10.00">/production/triplePi0Plots.cc</text>
</a>
</g>
</g>
<!-- Node10&#45;&gt;Node20 -->
<g id="edge16" class="edge"><title>Node10&#45;&gt;Node20</title>
<path fill="none" stroke="midnightblue" d="M679.711,-87.3811C590.05,-80.1293 438.019,-65.5645 309,-42 299.953,-40.3477 290.408,-38.2451 281.2,-36.0274"/>
<polygon fill="midnightblue" stroke="midnightblue" points="679.547,-90.8791 689.794,-88.187 680.105,-83.9013 679.547,-90.8791"/>
</g>
<!-- Node22&#45;&gt;Node8 -->
<g id="edge24" class="edge"><title>Node22&#45;&gt;Node8</title>
<path fill="none" stroke="midnightblue" d="M1469.9,-155.713C1367.59,-147.838 1174.55,-131.609 1011,-110 1008.05,-109.61 1005.04,-109.195 1002.01,-108.762"/>
<polygon fill="midnightblue" stroke="midnightblue" points="1469.87,-159.221 1480.11,-156.494 1470.41,-152.241 1469.87,-159.221"/>
</g>
<!-- Node22&#45;&gt;Node10 -->
<g id="edge27" class="edge"><title>Node22&#45;&gt;Node10</title>
<path fill="none" stroke="midnightblue" d="M1469.99,-158.748C1341.54,-154.08 1064.63,-141.068 833,-110 820.737,-108.355 807.472,-105.955 795.51,-103.555"/>
<polygon fill="midnightblue" stroke="midnightblue" points="1469.98,-162.25 1480.09,-159.109 1470.23,-155.254 1469.98,-162.25"/>
</g>
<!-- Node22&#45;&gt;Node15 -->
<g id="edge25" class="edge"><title>Node22&#45;&gt;Node15</title>
<path fill="none" stroke="midnightblue" d="M1554.84,-137.692C1559.16,-129.165 1563.71,-119.322 1567,-110 1575.93,-84.7391 1581.85,-53.9611 1584.8,-36.3075"/>
<polygon fill="midnightblue" stroke="midnightblue" points="1551.68,-136.177 1550.15,-146.66 1557.89,-139.423 1551.68,-136.177"/>
</g>
<!-- Node23 -->
<g id="node20" class="node"><title>Node23</title>
<g id="a_node20"><a xlink:href="_ant-mcdatabase-viewer_8cc.html" target="_top" xlink:title="progs/Ant&#45;mcdatabase\l&#45;viewer.cc">
<polygon fill="white" stroke="black" points="1897.5,-79 1897.5,-109 2012.5,-109 2012.5,-79 1897.5,-79"/>
<text text-anchor="start" x="1905.5" y="-97" font-family="Helvetica,sans-Serif" font-size="10.00">progs/Ant&#45;mcdatabase</text>
<text text-anchor="middle" x="1955" y="-86" font-family="Helvetica,sans-Serif" font-size="10.00">&#45;viewer.cc</text>
</a>
</g>
</g>
<!-- Node22&#45;&gt;Node23 -->
<g id="edge20" class="edge"><title>Node22&#45;&gt;Node23</title>
<path fill="none" stroke="midnightblue" d="M1613.85,-151.985C1684.01,-142.811 1793.68,-127.484 1888,-110 1891.05,-109.435 1894.17,-108.83 1897.31,-108.199"/>
<polygon fill="midnightblue" stroke="midnightblue" points="1613.26,-148.532 1603.79,-153.293 1614.16,-155.474 1613.26,-148.532"/>
</g>
<!-- Node24 -->
<g id="node21" class="node"><title>Node24</title>
<g id="a_node21"><a xlink:href="process_etap_tree_8cc.html" target="_top" xlink:title="progs/processEtapTree.cc">
<polygon fill="white" stroke="black" points="1020.5,-84.5 1020.5,-103.5 1151.5,-103.5 1151.5,-84.5 1020.5,-84.5"/>
<text text-anchor="middle" x="1086" y="-91.5" font-family="Helvetica,sans-Serif" font-size="10.00">progs/processEtapTree.cc</text>
</a>
</g>
</g>
<!-- Node22&#45;&gt;Node24 -->
<g id="edge21" class="edge"><title>Node22&#45;&gt;Node24</title>
<path fill="none" stroke="midnightblue" d="M1470.41,-152.811C1393.69,-143.709 1268.41,-127.911 1161,-110 1149.74,-108.122 1137.58,-105.813 1126.39,-103.574"/>
<polygon fill="midnightblue" stroke="midnightblue" points="1470.11,-156.299 1480.45,-153.996 1470.93,-149.348 1470.11,-156.299"/>
</g>
<!-- Node25 -->
<g id="node22" class="node"><title>Node25</title>
<g id="a_node22"><a xlink:href="_m_c_clustering_check_8h.html" target="_top" xlink:title="src/analysis/physics\l/check/MCClusteringCheck.h">
<polygon fill="white" stroke="black" points="2031,-79 2031,-109 2177,-109 2177,-79 2031,-79"/>
<text text-anchor="start" x="2039" y="-97" font-family="Helvetica,sans-Serif" font-size="10.00">src/analysis/physics</text>
<text text-anchor="middle" x="2104" y="-86" font-family="Helvetica,sans-Serif" font-size="10.00">/check/MCClusteringCheck.h</text>
</a>
</g>
</g>
<!-- Node22&#45;&gt;Node25 -->
<g id="edge22" class="edge"><title>Node22&#45;&gt;Node25</title>
<path fill="none" stroke="midnightblue" d="M1614.04,-154.975C1707.95,-146.745 1877.18,-130.625 2021,-110 2024.19,-109.543 2027.44,-109.053 2030.73,-108.54"/>
<polygon fill="midnightblue" stroke="midnightblue" points="1613.46,-151.512 1603.8,-155.867 1614.07,-158.486 1613.46,-151.512"/>
</g>
<!-- Node26 -->
<g id="node23" class="node"><title>Node26</title>
<g id="a_node23"><a xlink:href="pi0eta_8cc.html" target="_top" xlink:title="src/analysis/physics\l/omega/pi0eta.cc">
<polygon fill="white" stroke="black" points="1170,-79 1170,-109 1276,-109 1276,-79 1170,-79"/>
<text text-anchor="start" x="1178" y="-97" font-family="Helvetica,sans-Serif" font-size="10.00">src/analysis/physics</text>
<text text-anchor="middle" x="1223" y="-86" font-family="Helvetica,sans-Serif" font-size="10.00">/omega/pi0eta.cc</text>
</a>
</g>
</g>
<!-- Node22&#45;&gt;Node26 -->
<g id="edge26" class="edge"><title>Node22&#45;&gt;Node26</title>
<path fill="none" stroke="midnightblue" d="M1470.26,-147.589C1418.62,-137.736 1347.37,-123.727 1285,-110 1282.08,-109.357 1279.09,-108.683 1276.07,-107.992"/>
<polygon fill="midnightblue" stroke="midnightblue" points="1469.84,-151.072 1480.32,-149.503 1471.15,-144.196 1469.84,-151.072"/>
</g>
<!-- Node27 -->
<g id="node24" class="node"><title>Node27</title>
<g id="a_node24"><a xlink:href="hadd_8cc.html" target="_top" xlink:title="src/root&#45;addons/analysis\l_codes/hadd.cc">
<polygon fill="white" stroke="black" points="1294.5,-79 1294.5,-109 1417.5,-109 1417.5,-79 1294.5,-79"/>
<text text-anchor="start" x="1302.5" y="-97" font-family="Helvetica,sans-Serif" font-size="10.00">src/root&#45;addons/analysis</text>
<text text-anchor="middle" x="1356" y="-86" font-family="Helvetica,sans-Serif" font-size="10.00">_codes/hadd.cc</text>
</a>
</g>
</g>
<!-- Node22&#45;&gt;Node27 -->
<g id="edge28" class="edge"><title>Node22&#45;&gt;Node27</title>
<path fill="none" stroke="midnightblue" d="M1492.55,-143.452C1462.19,-132.68 1423.84,-119.072 1395.52,-109.022"/>
<polygon fill="midnightblue" stroke="midnightblue" points="1491.5,-146.796 1502.1,-146.841 1493.84,-140.199 1491.5,-146.796"/>
</g>
<!-- Node28 -->
<g id="node25" class="node"><title>Node28</title>
<g id="a_node25"><a xlink:href="hstack_8cc.html" target="_top" xlink:title="src/root&#45;addons/analysis\l_codes/hstack.cc">
<polygon fill="white" stroke="black" points="1435.5,-79 1435.5,-109 1558.5,-109 1558.5,-79 1435.5,-79"/>
<text text-anchor="start" x="1443.5" y="-97" font-family="Helvetica,sans-Serif" font-size="10.00">src/root&#45;addons/analysis</text>
<text text-anchor="middle" x="1497" y="-86" font-family="Helvetica,sans-Serif" font-size="10.00">_codes/hstack.cc</text>
</a>
</g>
</g>
<!-- Node22&#45;&gt;Node28 -->
<g id="edge29" class="edge"><title>Node22&#45;&gt;Node28</title>
<path fill="none" stroke="midnightblue" d="M1526.53,-138.314C1519.97,-128.689 1512.52,-117.763 1506.75,-109.293"/>
<polygon fill="midnightblue" stroke="midnightblue" points="1523.71,-140.388 1532.24,-146.679 1529.49,-136.445 1523.71,-140.388"/>
</g>
<!-- Node29 -->
<g id="node26" class="node"><title>Node29</title>
<g id="a_node26"><a xlink:href="_omega_8cc.html" target="_top" xlink:title="src/root&#45;addons/analysis\l_codes/Omega.cc">
<polygon fill="white" stroke="black" points="1615.5,-79 1615.5,-109 1738.5,-109 1738.5,-79 1615.5,-79"/>
<text text-anchor="start" x="1623.5" y="-97" font-family="Helvetica,sans-Serif" font-size="10.00">src/root&#45;addons/analysis</text>
<text text-anchor="middle" x="1677" y="-86" font-family="Helvetica,sans-Serif" font-size="10.00">_codes/Omega.cc</text>
</a>
</g>
</g>
<!-- Node22&#45;&gt;Node29 -->
<g id="edge30" class="edge"><title>Node22&#45;&gt;Node29</title>
<path fill="none" stroke="midnightblue" d="M1580.17,-142.339C1601.73,-131.796 1628.26,-118.83 1648.09,-109.135"/>
<polygon fill="midnightblue" stroke="midnightblue" points="1578.41,-139.305 1570.96,-146.841 1581.48,-145.594 1578.41,-139.305"/>
</g>
<!-- Node30 -->
<g id="node27" class="node"><title>Node30</title>
<g id="a_node27"><a xlink:href="pi0_8cc.html" target="_top" xlink:title="src/root&#45;addons/analysis\l_codes/pi0.cc">
<polygon fill="white" stroke="black" points="1756.5,-79 1756.5,-109 1879.5,-109 1879.5,-79 1756.5,-79"/>
<text text-anchor="start" x="1764.5" y="-97" font-family="Helvetica,sans-Serif" font-size="10.00">src/root&#45;addons/analysis</text>
<text text-anchor="middle" x="1818" y="-86" font-family="Helvetica,sans-Serif" font-size="10.00">_codes/pi0.cc</text>
</a>
</g>
</g>
<!-- Node22&#45;&gt;Node30 -->
<g id="edge31" class="edge"><title>Node22&#45;&gt;Node30</title>
<path fill="none" stroke="midnightblue" d="M1610.69,-144.574C1656.37,-133.651 1715.73,-119.456 1759.22,-109.056"/>
<polygon fill="midnightblue" stroke="midnightblue" points="1609.78,-141.192 1600.87,-146.922 1611.41,-148.001 1609.78,-141.192"/>
</g>
<!-- Node25&#45;&gt;Node5 -->
<g id="edge23" class="edge"><title>Node25&#45;&gt;Node5</title>
<path fill="none" stroke="midnightblue" d="M2119.8,-70.5665C2127.65,-59.424 2136.9,-46.2857 2143.8,-36.4856"/>
<polygon fill="midnightblue" stroke="midnightblue" points="2116.77,-68.7814 2113.88,-78.9727 2122.5,-72.8119 2116.77,-68.7814"/>
</g>
</g>
</svg>
