<?xml version="1.0" encoding="UTF-8" standalone="no"?>
<!DOCTYPE svg PUBLIC "-//W3C//DTD SVG 1.1//EN"
 "http://www.w3.org/Graphics/SVG/1.1/DTD/svg11.dtd">
<!-- Generated by graphviz version 2.36.0 (20140111.2315)
 -->
<!-- Title: src/analysis/utils/uncertainties/Interpolated.h Pages: 1 -->
<svg width="2710pt" height="186pt"
 viewBox="0.00 0.00 2710.00 186.00" xmlns="http://www.w3.org/2000/svg" xmlns:xlink="http://www.w3.org/1999/xlink">
<g id="graph0" class="graph" transform="scale(1 1) rotate(0) translate(4 182)">
<title>src/analysis/utils/uncertainties/Interpolated.h</title>
<polygon fill="white" stroke="none" points="-4,4 -4,-182 2706,-182 2706,4 -4,4"/>
<!-- Node44 -->
<g id="node1" class="node"><title>Node44</title>
<polygon fill="#bfbfbf" stroke="black" points="1276.5,-147 1276.5,-177 1413.5,-177 1413.5,-147 1276.5,-147"/>
<text text-anchor="start" x="1284.5" y="-165" font-family="Helvetica,sans-Serif" font-size="10.00">src/analysis/utils</text>
<text text-anchor="middle" x="1345" y="-154" font-family="Helvetica,sans-Serif" font-size="10.00">/uncertainties/Interpolated.h</text>
</g>
<!-- Node45 -->
<g id="node2" class="node"><title>Node45</title>
<g id="a_node2"><a xlink:href="_p_i_d___t_a_p_s_veto___kinfit_8cc.html" target="_top" xlink:title="src/analysis/physics\l/calibration/PID_TAPSVeto\l_Kinfit.cc">
<polygon fill="white" stroke="black" points="0,-68.5 0,-109.5 136,-109.5 136,-68.5 0,-68.5"/>
<text text-anchor="start" x="8" y="-97.5" font-family="Helvetica,sans-Serif" font-size="10.00">src/analysis/physics</text>
<text text-anchor="start" x="8" y="-86.5" font-family="Helvetica,sans-Serif" font-size="10.00">/calibration/PID_TAPSVeto</text>
<text text-anchor="middle" x="68" y="-75.5" font-family="Helvetica,sans-Serif" font-size="10.00">_Kinfit.cc</text>
</a>
</g>
</g>
<!-- Node44&#45;&gt;Node45 -->
<g id="edge1" class="edge"><title>Node44&#45;&gt;Node45</title>
<path fill="none" stroke="midnightblue" d="M1266.12,-159.826C1035.05,-156.04 362.309,-142.465 145,-110 142.131,-109.571 139.215,-109.079 136.279,-108.535"/>
<polygon fill="midnightblue" stroke="midnightblue" points="1266.08,-163.325 1276.13,-159.988 1266.19,-156.326 1266.08,-163.325"/>
</g>
<!-- Node46 -->
<g id="node3" class="node"><title>Node46</title>
<g id="a_node3"><a xlink:href="_kin_fit_i_m_check_8cc.html" target="_top" xlink:title="src/analysis/physics\l/check/KinFitIMCheck.cc">
<polygon fill="white" stroke="black" points="154,-74 154,-104 282,-104 282,-74 154,-74"/>
<text text-anchor="start" x="162" y="-92" font-family="Helvetica,sans-Serif" font-size="10.00">src/analysis/physics</text>
<text text-anchor="middle" x="218" y="-81" font-family="Helvetica,sans-Serif" font-size="10.00">/check/KinFitIMCheck.cc</text>
</a>
</g>
</g>
<!-- Node44&#45;&gt;Node46 -->
<g id="edge2" class="edge"><title>Node44&#45;&gt;Node46</title>
<path fill="none" stroke="midnightblue" d="M1266.36,-159.426C1055.14,-154.844 478.797,-139.898 291,-110 281.916,-108.554 272.342,-106.403 263.224,-104.041"/>
<polygon fill="midnightblue" stroke="midnightblue" points="1266.37,-162.927 1276.44,-159.643 1266.52,-155.929 1266.37,-162.927"/>
</g>
<!-- Node47 -->
<g id="node4" class="node"><title>Node47</title>
<g id="a_node4"><a xlink:href="_p_i_d_efficiency_check_8cc.html" target="_top" xlink:title="src/analysis/physics\l/check/PIDEfficiencyCheck.cc">
<polygon fill="white" stroke="black" points="300,-74 300,-104 452,-104 452,-74 300,-74"/>
<text text-anchor="start" x="308" y="-92" font-family="Helvetica,sans-Serif" font-size="10.00">src/analysis/physics</text>
<text text-anchor="middle" x="376" y="-81" font-family="Helvetica,sans-Serif" font-size="10.00">/check/PIDEfficiencyCheck.cc</text>
</a>
</g>
</g>
<!-- Node44&#45;&gt;Node47 -->
<g id="edge3" class="edge"><title>Node44&#45;&gt;Node47</title>
<path fill="none" stroke="midnightblue" d="M1266.01,-161.021C1110.87,-160.054 755.82,-152.858 461,-110 450.648,-108.495 439.702,-106.349 429.233,-104.016"/>
<polygon fill="midnightblue" stroke="midnightblue" points="1266.36,-164.523 1276.38,-161.078 1266.4,-157.523 1266.36,-164.523"/>
</g>
<!-- Node48 -->
<g id="node5" class="node"><title>Node48</title>
<g id="a_node5"><a xlink:href="_three_photon_check_8cc.html" target="_top" xlink:title="src/analysis/physics\l/check/ThreePhotonCheck.cc">
<polygon fill="white" stroke="black" points="470,-74 470,-104 616,-104 616,-74 470,-74"/>
<text text-anchor="start" x="478" y="-92" font-family="Helvetica,sans-Serif" font-size="10.00">src/analysis/physics</text>
<text text-anchor="middle" x="543" y="-81" font-family="Helvetica,sans-Serif" font-size="10.00">/check/ThreePhotonCheck.cc</text>
</a>
</g>
</g>
<!-- Node44&#45;&gt;Node48 -->
<g id="edge4" class="edge"><title>Node44&#45;&gt;Node48</title>
<path fill="none" stroke="midnightblue" d="M1266.35,-159.675C1133.6,-156.49 856.958,-145.765 626,-110 616.04,-108.458 605.515,-106.323 595.427,-104.021"/>
<polygon fill="midnightblue" stroke="midnightblue" points="1266.35,-163.176 1276.42,-159.909 1266.51,-156.177 1266.35,-163.176"/>
</g>
<!-- Node49 -->
<g id="node6" class="node"><title>Node49</title>
<g id="a_node6"><a xlink:href="_etap_omega_g_8cc.html" target="_top" xlink:title="src/analysis/physics\l/etaprime/EtapOmegaG.cc">
<polygon fill="white" stroke="black" points="634.5,-74 634.5,-104 767.5,-104 767.5,-74 634.5,-74"/>
<text text-anchor="start" x="642.5" y="-92" font-family="Helvetica,sans-Serif" font-size="10.00">src/analysis/physics</text>
<text text-anchor="middle" x="701" y="-81" font-family="Helvetica,sans-Serif" font-size="10.00">/etaprime/EtapOmegaG.cc</text>
</a>
</g>
</g>
<!-- Node44&#45;&gt;Node49 -->
<g id="edge5" class="edge"><title>Node44&#45;&gt;Node49</title>
<path fill="none" stroke="midnightblue" d="M1266.28,-158.106C1156.13,-153.111 950.063,-140.32 777,-110 767.996,-108.423 758.499,-106.301 749.384,-104.028"/>
<polygon fill="midnightblue" stroke="midnightblue" points="1266.17,-161.604 1276.32,-158.551 1266.48,-154.611 1266.17,-161.604"/>
</g>
<!-- Node50 -->
<g id="node7" class="node"><title>Node50</title>
<g id="a_node7"><a xlink:href="_etap_omega_g__simple_8cc.html" target="_top" xlink:title="src/analysis/physics\l/etaprime/EtapOmegaG\l_simple.cc">
<polygon fill="white" stroke="black" points="785.5,-68.5 785.5,-109.5 904.5,-109.5 904.5,-68.5 785.5,-68.5"/>
<text text-anchor="start" x="793.5" y="-97.5" font-family="Helvetica,sans-Serif" font-size="10.00">src/analysis/physics</text>
<text text-anchor="start" x="793.5" y="-86.5" font-family="Helvetica,sans-Serif" font-size="10.00">/etaprime/EtapOmegaG</text>
<text text-anchor="middle" x="845" y="-75.5" font-family="Helvetica,sans-Serif" font-size="10.00">_simple.cc</text>
</a>
</g>
</g>
<!-- Node44&#45;&gt;Node50 -->
<g id="edge6" class="edge"><title>Node44&#45;&gt;Node50</title>
<path fill="none" stroke="midnightblue" d="M1266.1,-155.575C1179.2,-148.696 1035.65,-134.653 914,-110 910.944,-109.381 907.827,-108.692 904.69,-107.952"/>
<polygon fill="midnightblue" stroke="midnightblue" points="1265.9,-159.071 1276.15,-156.359 1266.45,-152.092 1265.9,-159.071"/>
</g>
<!-- Node51 -->
<g id="node8" class="node"><title>Node51</title>
<g id="a_node8"><a xlink:href="etaprime__dalitz_8cc.html" target="_top" xlink:title="src/analysis/physics\l/etaprime/etaprime_dalitz.cc">
<polygon fill="white" stroke="black" points="923,-74 923,-104 1063,-104 1063,-74 923,-74"/>
<text text-anchor="start" x="931" y="-92" font-family="Helvetica,sans-Serif" font-size="10.00">src/analysis/physics</text>
<text text-anchor="middle" x="993" y="-81" font-family="Helvetica,sans-Serif" font-size="10.00">/etaprime/etaprime_dalitz.cc</text>
</a>
</g>
</g>
<!-- Node44&#45;&gt;Node51 -->
<g id="edge7" class="edge"><title>Node44&#45;&gt;Node51</title>
<path fill="none" stroke="midnightblue" d="M1266.37,-147.537C1211.92,-137.9 1137.84,-124.172 1073,-110 1064.75,-108.197 1056.05,-106.162 1047.55,-104.099"/>
<polygon fill="midnightblue" stroke="midnightblue" points="1265.85,-150.999 1276.3,-149.288 1267.06,-144.105 1265.85,-150.999"/>
</g>
<!-- Node52 -->
<g id="node9" class="node"><title>Node52</title>
<g id="a_node9"><a xlink:href="_omega___eta_g_8cc.html" target="_top" xlink:title="src/analysis/physics\l/omega/Omega_EtaG.cc">
<polygon fill="white" stroke="black" points="1081.5,-74 1081.5,-104 1206.5,-104 1206.5,-74 1081.5,-74"/>
<text text-anchor="start" x="1089.5" y="-92" font-family="Helvetica,sans-Serif" font-size="10.00">src/analysis/physics</text>
<text text-anchor="middle" x="1144" y="-81" font-family="Helvetica,sans-Serif" font-size="10.00">/omega/Omega_EtaG.cc</text>
</a>
</g>
</g>
<!-- Node44&#45;&gt;Node52 -->
<g id="edge8" class="edge"><title>Node44&#45;&gt;Node52</title>
<path fill="none" stroke="midnightblue" d="M1295.46,-143.501C1261.13,-131.374 1216.01,-115.437 1183.97,-104.12"/>
<polygon fill="midnightblue" stroke="midnightblue" points="1294.69,-146.942 1305.29,-146.973 1297.03,-140.342 1294.69,-146.942"/>
</g>
<!-- Node53 -->
<g id="node10" class="node"><title>Node53</title>
<g id="a_node10"><a xlink:href="_just_pi0_8cc.html" target="_top" xlink:title="src/analysis/physics\l/pi0/JustPi0.cc">
<polygon fill="white" stroke="black" points="1225,-74 1225,-104 1331,-104 1331,-74 1225,-74"/>
<text text-anchor="start" x="1233" y="-92" font-family="Helvetica,sans-Serif" font-size="10.00">src/analysis/physics</text>
<text text-anchor="middle" x="1278" y="-81" font-family="Helvetica,sans-Serif" font-size="10.00">/pi0/JustPi0.cc</text>
</a>
</g>
</g>
<!-- Node44&#45;&gt;Node53 -->
<g id="edge9" class="edge"><title>Node44&#45;&gt;Node53</title>
<path fill="none" stroke="midnightblue" d="M1324.76,-139.554C1314.05,-128.207 1301.19,-114.577 1291.67,-104.486"/>
<polygon fill="midnightblue" stroke="midnightblue" points="1322.35,-142.102 1331.76,-146.973 1327.45,-137.298 1322.35,-142.102"/>
</g>
<!-- Node54 -->
<g id="node11" class="node"><title>Node54</title>
<g id="a_node11"><a xlink:href="sigma_plus_8cc.html" target="_top" xlink:title="src/analysis/physics\l/production/sigmaPlus.cc">
<polygon fill="white" stroke="black" points="1349.5,-74 1349.5,-104 1476.5,-104 1476.5,-74 1349.5,-74"/>
<text text-anchor="start" x="1357.5" y="-92" font-family="Helvetica,sans-Serif" font-size="10.00">src/analysis/physics</text>
<text text-anchor="middle" x="1413" y="-81" font-family="Helvetica,sans-Serif" font-size="10.00">/production/sigmaPlus.cc</text>
</a>
</g>
</g>
<!-- Node44&#45;&gt;Node54 -->
<g id="edge10" class="edge"><title>Node44&#45;&gt;Node54</title>
<path fill="none" stroke="midnightblue" d="M1365.54,-139.554C1376.41,-128.207 1389.46,-114.577 1399.13,-104.486"/>
<polygon fill="midnightblue" stroke="midnightblue" points="1362.82,-137.33 1358.43,-146.973 1367.88,-142.172 1362.82,-137.33"/>
</g>
<!-- Node55 -->
<g id="node12" class="node"><title>Node55</title>
<g id="a_node12"><a xlink:href="single_pi0_8cc.html" target="_top" xlink:title="src/analysis/physics\l/production/singlePi0.cc">
<polygon fill="white" stroke="black" points="1494.5,-74 1494.5,-104 1615.5,-104 1615.5,-74 1494.5,-74"/>
<text text-anchor="start" x="1502.5" y="-92" font-family="Helvetica,sans-Serif" font-size="10.00">src/analysis/physics</text>
<text text-anchor="middle" x="1555" y="-81" font-family="Helvetica,sans-Serif" font-size="10.00">/production/singlePi0.cc</text>
</a>
</g>
</g>
<!-- Node44&#45;&gt;Node55 -->
<g id="edge11" class="edge"><title>Node44&#45;&gt;Node55</title>
<path fill="none" stroke="midnightblue" d="M1396.3,-143.657C1432.22,-131.511 1479.62,-115.485 1513.24,-104.12"/>
<polygon fill="midnightblue" stroke="midnightblue" points="1394.84,-140.454 1386.49,-146.973 1397.08,-147.085 1394.84,-140.454"/>
</g>
<!-- Node56 -->
<g id="node13" class="node"><title>Node56</title>
<g id="a_node13"><a xlink:href="triple_pi0_8cc.html" target="_top" xlink:title="src/analysis/physics\l/production/triplePi0.cc">
<polygon fill="white" stroke="black" points="1634,-74 1634,-104 1750,-104 1750,-74 1634,-74"/>
<text text-anchor="start" x="1642" y="-92" font-family="Helvetica,sans-Serif" font-size="10.00">src/analysis/physics</text>
<text text-anchor="middle" x="1692" y="-81" font-family="Helvetica,sans-Serif" font-size="10.00">/production/triplePi0.cc</text>
</a>
</g>
</g>
<!-- Node44&#45;&gt;Node56 -->
<g id="edge12" class="edge"><title>Node44&#45;&gt;Node56</title>
<path fill="none" stroke="midnightblue" d="M1423.52,-148.915C1479.68,-139.721 1556.89,-125.956 1624,-110 1631.42,-108.235 1639.24,-106.152 1646.82,-104.008"/>
<polygon fill="midnightblue" stroke="midnightblue" points="1422.95,-145.462 1413.64,-150.521 1424.07,-152.371 1422.95,-145.462"/>
</g>
<!-- Node57 -->
<g id="node14" class="node"><title>Node57</title>
<g id="a_node14"><a xlink:href="_proton_vertex_test_8cc.html" target="_top" xlink:title="src/analysis/physics\l/scratch/wolfes/ProtonVertex\lTest.cc">
<polygon fill="white" stroke="black" points="1768.5,-68.5 1768.5,-109.5 1911.5,-109.5 1911.5,-68.5 1768.5,-68.5"/>
<text text-anchor="start" x="1776.5" y="-97.5" font-family="Helvetica,sans-Serif" font-size="10.00">src/analysis/physics</text>
<text text-anchor="start" x="1776.5" y="-86.5" font-family="Helvetica,sans-Serif" font-size="10.00">/scratch/wolfes/ProtonVertex</text>
<text text-anchor="middle" x="1840" y="-75.5" font-family="Helvetica,sans-Serif" font-size="10.00">Test.cc</text>
</a>
</g>
</g>
<!-- Node44&#45;&gt;Node57 -->
<g id="edge13" class="edge"><title>Node44&#45;&gt;Node57</title>
<path fill="none" stroke="midnightblue" d="M1423.86,-154.016C1507.28,-145.986 1642.54,-131.136 1758,-110 1761.32,-109.393 1764.7,-108.734 1768.11,-108.037"/>
<polygon fill="midnightblue" stroke="midnightblue" points="1423.32,-150.551 1413.7,-154.985 1423.99,-157.519 1423.32,-150.551"/>
</g>
<!-- Node58 -->
<g id="node15" class="node"><title>Node58</title>
<g id="a_node15"><a xlink:href="_test_sigma_plus_fitter_8cc.html" target="_top" xlink:title="src/analysis/physics\l/test/TestSigmaPlusFitter.cc">
<polygon fill="white" stroke="black" points="1930,-74 1930,-104 2072,-104 2072,-74 1930,-74"/>
<text text-anchor="start" x="1938" y="-92" font-family="Helvetica,sans-Serif" font-size="10.00">src/analysis/physics</text>
<text text-anchor="middle" x="2001" y="-81" font-family="Helvetica,sans-Serif" font-size="10.00">/test/TestSigmaPlusFitter.cc</text>
</a>
</g>
</g>
<!-- Node44&#45;&gt;Node58 -->
<g id="edge14" class="edge"><title>Node44&#45;&gt;Node58</title>
<path fill="none" stroke="midnightblue" d="M1423.71,-157.85C1534.92,-152.532 1744.1,-139.339 1920,-110 1929.43,-108.427 1939.38,-106.336 1948.96,-104.098"/>
<polygon fill="midnightblue" stroke="midnightblue" points="1423.41,-154.36 1413.59,-158.325 1423.74,-161.352 1423.41,-154.36"/>
</g>
<!-- Node59 -->
<g id="node16" class="node"><title>Node59</title>
<g id="a_node16"><a xlink:href="analysis_2physics_2tunings_2_interpolated_pulls_8h.html" target="_top" xlink:title="src/analysis/physics\l/tunings/InterpolatedPulls.h">
<polygon fill="white" stroke="black" points="2090.5,-74 2090.5,-104 2225.5,-104 2225.5,-74 2090.5,-74"/>
<text text-anchor="start" x="2098.5" y="-92" font-family="Helvetica,sans-Serif" font-size="10.00">src/analysis/physics</text>
<text text-anchor="middle" x="2158" y="-81" font-family="Helvetica,sans-Serif" font-size="10.00">/tunings/InterpolatedPulls.h</text>
</a>
</g>
</g>
<!-- Node44&#45;&gt;Node59 -->
<g id="edge15" class="edge"><title>Node44&#45;&gt;Node59</title>
<path fill="none" stroke="midnightblue" d="M1424,-160.302C1559.36,-158.043 1843.99,-148.652 2081,-110 2090.27,-108.488 2100.05,-106.369 2109.41,-104.071"/>
<polygon fill="midnightblue" stroke="midnightblue" points="1423.67,-156.807 1413.72,-160.464 1423.78,-163.806 1423.67,-156.807"/>
</g>
<!-- Node61 -->
<g id="node18" class="node"><title>Node61</title>
<g id="a_node18"><a xlink:href="physics_2tunings_2_trigger_simulation_8cc.html" target="_top" xlink:title="src/analysis/physics\l/tunings/TriggerSimulation.cc">
<polygon fill="white" stroke="black" points="2243.5,-74 2243.5,-104 2386.5,-104 2386.5,-74 2243.5,-74"/>
<text text-anchor="start" x="2251.5" y="-92" font-family="Helvetica,sans-Serif" font-size="10.00">src/analysis/physics</text>
<text text-anchor="middle" x="2315" y="-81" font-family="Helvetica,sans-Serif" font-size="10.00">/tunings/TriggerSimulation.cc</text>
</a>
</g>
</g>
<!-- Node44&#45;&gt;Node61 -->
<g id="edge17" class="edge"><title>Node44&#45;&gt;Node61</title>
<path fill="none" stroke="midnightblue" d="M1424.19,-161.344C1580.12,-160.947 1937.56,-154.707 2234,-110 2243.88,-108.51 2254.32,-106.37 2264.3,-104.039"/>
<polygon fill="midnightblue" stroke="midnightblue" points="1423.75,-157.845 1413.76,-161.363 1423.77,-164.845 1423.75,-157.845"/>
</g>
<!-- Node62 -->
<g id="node19" class="node"><title>Node62</title>
<g id="a_node19"><a xlink:href="_interpolated_8cc.html" target="_top" xlink:title="src/analysis/utils\l/uncertainties/Interpolated.cc">
<polygon fill="white" stroke="black" points="2404.5,-74 2404.5,-104 2547.5,-104 2547.5,-74 2404.5,-74"/>
<text text-anchor="start" x="2412.5" y="-92" font-family="Helvetica,sans-Serif" font-size="10.00">src/analysis/utils</text>
<text text-anchor="middle" x="2476" y="-81" font-family="Helvetica,sans-Serif" font-size="10.00">/uncertainties/Interpolated.cc</text>
</a>
</g>
</g>
<!-- Node44&#45;&gt;Node62 -->
<g id="edge18" class="edge"><title>Node44&#45;&gt;Node62</title>
<path fill="none" stroke="midnightblue" d="M1423.68,-159.152C1634.3,-153.891 2207.67,-137.413 2395,-110 2405.03,-108.532 2415.63,-106.371 2425.74,-104.007"/>
<polygon fill="midnightblue" stroke="midnightblue" points="1423.53,-155.655 1413.62,-159.402 1423.71,-162.653 1423.53,-155.655"/>
</g>
<!-- Node63 -->
<g id="node20" class="node"><title>Node63</title>
<g id="a_node20"><a xlink:href="root-addons_2analysis__codes_2_interpolated_pulls_8cc.html" target="_top" xlink:title="src/root&#45;addons/analysis\l_codes/InterpolatedPulls.cc">
<polygon fill="white" stroke="black" points="2565.5,-74 2565.5,-104 2702.5,-104 2702.5,-74 2565.5,-74"/>
<text text-anchor="start" x="2573.5" y="-92" font-family="Helvetica,sans-Serif" font-size="10.00">src/root&#45;addons/analysis</text>
<text text-anchor="middle" x="2634" y="-81" font-family="Helvetica,sans-Serif" font-size="10.00">_codes/InterpolatedPulls.cc</text>
</a>
</g>
</g>
<!-- Node44&#45;&gt;Node63 -->
<g id="edge19" class="edge"><title>Node44&#45;&gt;Node63</title>
<path fill="none" stroke="midnightblue" d="M1423.78,-159.831C1656.19,-156.041 2336.39,-142.416 2556,-110 2565.68,-108.571 2575.9,-106.428 2585.64,-104.069"/>
<polygon fill="midnightblue" stroke="midnightblue" points="1423.66,-156.332 1413.72,-159.993 1423.77,-163.331 1423.66,-156.332"/>
</g>
<!-- Node60 -->
<g id="node17" class="node"><title>Node60</title>
<g id="a_node17"><a xlink:href="analysis_2physics_2tunings_2_interpolated_pulls_8cc.html" target="_top" xlink:title="src/analysis/physics\l/tunings/InterpolatedPulls.cc">
<polygon fill="white" stroke="black" points="2088,-1 2088,-31 2228,-31 2228,-1 2088,-1"/>
<text text-anchor="start" x="2096" y="-19" font-family="Helvetica,sans-Serif" font-size="10.00">src/analysis/physics</text>
<text text-anchor="middle" x="2158" y="-8" font-family="Helvetica,sans-Serif" font-size="10.00">/tunings/InterpolatedPulls.cc</text>
</a>
</g>
</g>
<!-- Node59&#45;&gt;Node60 -->
<g id="edge16" class="edge"><title>Node59&#45;&gt;Node60</title>
<path fill="none" stroke="midnightblue" d="M2158,-63.8976C2158,-53.1314 2158,-40.8005 2158,-31.4856"/>
<polygon fill="midnightblue" stroke="midnightblue" points="2154.5,-63.9727 2158,-73.9727 2161.5,-63.9727 2154.5,-63.9727"/>
</g>
</g>
</svg>
