<?xml version="1.0" encoding="UTF-8" standalone="no"?>
<!DOCTYPE svg PUBLIC "-//W3C//DTD SVG 1.1//EN"
 "http://www.w3.org/Graphics/SVG/1.1/DTD/svg11.dtd">
<!-- Generated by graphviz version 2.36.0 (20140111.2315)
 -->
<!-- Title: src/base/Interpolator.h Pages: 1 -->
<svg width="2710pt" height="310pt"
 viewBox="0.00 0.00 2710.00 310.00" xmlns="http://www.w3.org/2000/svg" xmlns:xlink="http://www.w3.org/1999/xlink">
<g id="graph0" class="graph" transform="scale(1 1) rotate(0) translate(4 306)">
<title>src/base/Interpolator.h</title>
<polygon fill="white" stroke="none" points="-4,4 -4,-306 2706,-306 2706,4 -4,4"/>
<!-- Node12 -->
<g id="node1" class="node"><title>Node12</title>
<polygon fill="#bfbfbf" stroke="black" points="1245,-282.5 1245,-301.5 1359,-301.5 1359,-282.5 1245,-282.5"/>
<text text-anchor="middle" x="1302" y="-289.5" font-family="Helvetica,sans-Serif" font-size="10.00">src/base/Interpolator.h</text>
</g>
<!-- Node13 -->
<g id="node2" class="node"><title>Node13</title>
<g id="a_node2"><a xlink:href="_interpolated_8cc.html" target="_top" xlink:title="src/analysis/utils\l/uncertainties/Interpolated.cc">
<polygon fill="white" stroke="black" points="-0.5,-74 -0.5,-104 142.5,-104 142.5,-74 -0.5,-74"/>
<text text-anchor="start" x="7.5" y="-92" font-family="Helvetica,sans-Serif" font-size="10.00">src/analysis/utils</text>
<text text-anchor="middle" x="71" y="-81" font-family="Helvetica,sans-Serif" font-size="10.00">/uncertainties/Interpolated.cc</text>
</a>
</g>
</g>
<!-- Node12&#45;&gt;Node13 -->
<g id="edge1" class="edge"><title>Node12&#45;&gt;Node13</title>
<path fill="none" stroke="midnightblue" d="M1234.76,-284.889C1087.78,-270.965 727.18,-233.716 429,-178 317.642,-157.192 189.132,-123.09 120.422,-104.024"/>
<polygon fill="midnightblue" stroke="midnightblue" points="1234.68,-288.397 1244.97,-285.851 1235.34,-281.428 1234.68,-288.397"/>
</g>
<!-- Node14 -->
<g id="node3" class="node"><title>Node14</title>
<g id="a_node3"><a xlink:href="_clipped_interpolator_wrapper_8h.html" target="_top" xlink:title="src/base/ClippedInterpolator\lWrapper.h">
<polygon fill="white" stroke="black" points="1159.5,-215 1159.5,-245 1298.5,-245 1298.5,-215 1159.5,-215"/>
<text text-anchor="start" x="1167.5" y="-233" font-family="Helvetica,sans-Serif" font-size="10.00">src/base/ClippedInterpolator</text>
<text text-anchor="middle" x="1229" y="-222" font-family="Helvetica,sans-Serif" font-size="10.00">Wrapper.h</text>
</a>
</g>
</g>
<!-- Node12&#45;&gt;Node14 -->
<g id="edge2" class="edge"><title>Node12&#45;&gt;Node14</title>
<path fill="none" stroke="midnightblue" d="M1283.5,-275.795C1272.04,-266.374 1257.42,-254.356 1246.2,-245.141"/>
<polygon fill="midnightblue" stroke="midnightblue" points="1281.59,-278.758 1291.54,-282.403 1286.04,-273.35 1281.59,-278.758"/>
</g>
<!-- Node36 -->
<g id="node25" class="node"><title>Node36</title>
<g id="a_node25"><a xlink:href="_interpolator_8cc.html" target="_top" xlink:title="src/base/Interpolator.cc">
<polygon fill="white" stroke="black" points="1316.5,-220.5 1316.5,-239.5 1435.5,-239.5 1435.5,-220.5 1316.5,-220.5"/>
<text text-anchor="middle" x="1376" y="-227.5" font-family="Helvetica,sans-Serif" font-size="10.00">src/base/Interpolator.cc</text>
</a>
</g>
</g>
<!-- Node12&#45;&gt;Node36 -->
<g id="edge26" class="edge"><title>Node12&#45;&gt;Node36</title>
<path fill="none" stroke="midnightblue" d="M1320.69,-275.846C1334.84,-264.371 1353.78,-249.02 1365.42,-239.581"/>
<polygon fill="midnightblue" stroke="midnightblue" points="1318.17,-273.387 1312.6,-282.403 1322.57,-278.824 1318.17,-273.387"/>
</g>
<!-- Node37 -->
<g id="node26" class="node"><title>Node37</title>
<g id="a_node26"><a xlink:href="_test_interpolator_8cc.html" target="_top" xlink:title="test/base/TestInterpolator.cc">
<polygon fill="white" stroke="black" points="1454,-220.5 1454,-239.5 1596,-239.5 1596,-220.5 1454,-220.5"/>
<text text-anchor="middle" x="1525" y="-227.5" font-family="Helvetica,sans-Serif" font-size="10.00">test/base/TestInterpolator.cc</text>
</a>
</g>
</g>
<!-- Node12&#45;&gt;Node37 -->
<g id="edge27" class="edge"><title>Node12&#45;&gt;Node37</title>
<path fill="none" stroke="midnightblue" d="M1343.62,-279.802C1386.93,-268.149 1453.81,-250.155 1493.11,-239.581"/>
<polygon fill="midnightblue" stroke="midnightblue" points="1342.7,-276.425 1333.95,-282.403 1344.52,-283.185 1342.7,-276.425"/>
</g>
<!-- Node14&#45;&gt;Node13 -->
<g id="edge23" class="edge"><title>Node14&#45;&gt;Node13</title>
<path fill="none" stroke="midnightblue" d="M1149.38,-221.581C934.233,-201.313 344.456,-144.238 152,-110 142.73,-108.351 132.946,-106.25 123.506,-104.033"/>
<polygon fill="midnightblue" stroke="midnightblue" points="1149.06,-225.066 1159.34,-222.518 1149.72,-218.097 1149.06,-225.066"/>
</g>
<!-- Node15 -->
<g id="node4" class="node"><title>Node15</title>
<g id="a_node4"><a xlink:href="_interpolated_8h.html" target="_top" xlink:title="src/analysis/utils\l/uncertainties/Interpolated.h">
<polygon fill="white" stroke="black" points="1160.5,-147 1160.5,-177 1297.5,-177 1297.5,-147 1160.5,-147"/>
<text text-anchor="start" x="1168.5" y="-165" font-family="Helvetica,sans-Serif" font-size="10.00">src/analysis/utils</text>
<text text-anchor="middle" x="1229" y="-154" font-family="Helvetica,sans-Serif" font-size="10.00">/uncertainties/Interpolated.h</text>
</a>
</g>
</g>
<!-- Node14&#45;&gt;Node15 -->
<g id="edge3" class="edge"><title>Node14&#45;&gt;Node15</title>
<path fill="none" stroke="midnightblue" d="M1229,-204.532C1229,-195.361 1229,-185.245 1229,-177.293"/>
<polygon fill="midnightblue" stroke="midnightblue" points="1225.5,-204.679 1229,-214.679 1232.5,-204.679 1225.5,-204.679"/>
</g>
<!-- Node34 -->
<g id="node23" class="node"><title>Node34</title>
<g id="a_node23"><a xlink:href="_clipped_interpolator_wrapper_8cc.html" target="_top" xlink:title="src/base/ClippedInterpolator\lWrapper.cc">
<polygon fill="white" stroke="black" points="1315.5,-147 1315.5,-177 1454.5,-177 1454.5,-147 1315.5,-147"/>
<text text-anchor="start" x="1323.5" y="-165" font-family="Helvetica,sans-Serif" font-size="10.00">src/base/ClippedInterpolator</text>
<text text-anchor="middle" x="1385" y="-154" font-family="Helvetica,sans-Serif" font-size="10.00">Wrapper.cc</text>
</a>
</g>
</g>
<!-- Node14&#45;&gt;Node34 -->
<g id="edge24" class="edge"><title>Node14&#45;&gt;Node34</title>
<path fill="none" stroke="midnightblue" d="M1271.81,-210.89C1297.05,-200.21 1328.51,-186.898 1351.86,-177.022"/>
<polygon fill="midnightblue" stroke="midnightblue" points="1270.31,-207.721 1262.47,-214.841 1273.04,-214.168 1270.31,-207.721"/>
</g>
<!-- Node35 -->
<g id="node24" class="node"><title>Node35</title>
<g id="a_node24"><a xlink:href="_cluster_correction_8cc.html" target="_top" xlink:title="src/calibration/modules\l/ClusterCorrection.cc">
<polygon fill="white" stroke="black" points="1472.5,-147 1472.5,-177 1589.5,-177 1589.5,-147 1472.5,-147"/>
<text text-anchor="start" x="1480.5" y="-165" font-family="Helvetica,sans-Serif" font-size="10.00">src/calibration/modules</text>
<text text-anchor="middle" x="1531" y="-154" font-family="Helvetica,sans-Serif" font-size="10.00">/ClusterCorrection.cc</text>
</a>
</g>
</g>
<!-- Node14&#45;&gt;Node35 -->
<g id="edge25" class="edge"><title>Node14&#45;&gt;Node35</title>
<path fill="none" stroke="midnightblue" d="M1303.45,-212.823C1349.44,-202.819 1409.65,-189.698 1463,-178 1466.07,-177.327 1469.22,-176.636 1472.4,-175.937"/>
<polygon fill="midnightblue" stroke="midnightblue" points="1302.6,-209.427 1293.57,-214.973 1304.08,-216.268 1302.6,-209.427"/>
</g>
<!-- Node15&#45;&gt;Node13 -->
<g id="edge21" class="edge"><title>Node15&#45;&gt;Node13</title>
<path fill="none" stroke="midnightblue" d="M1150.2,-157.294C902.392,-145.635 155.09,-110.45 152,-110 141.967,-108.538 131.364,-106.38 121.254,-104.016"/>
<polygon fill="midnightblue" stroke="midnightblue" points="1150.06,-160.791 1160.21,-157.765 1150.39,-153.799 1150.06,-160.791"/>
</g>
<!-- Node16 -->
<g id="node5" class="node"><title>Node16</title>
<g id="a_node5"><a xlink:href="_p_i_d___t_a_p_s_veto___kinfit_8cc.html" target="_top" xlink:title="src/analysis/physics\l/calibration/PID_TAPSVeto\l_Kinfit.cc">
<polygon fill="white" stroke="black" points="161,-68.5 161,-109.5 297,-109.5 297,-68.5 161,-68.5"/>
<text text-anchor="start" x="169" y="-97.5" font-family="Helvetica,sans-Serif" font-size="10.00">src/analysis/physics</text>
<text text-anchor="start" x="169" y="-86.5" font-family="Helvetica,sans-Serif" font-size="10.00">/calibration/PID_TAPSVeto</text>
<text text-anchor="middle" x="229" y="-75.5" font-family="Helvetica,sans-Serif" font-size="10.00">_Kinfit.cc</text>
</a>
</g>
</g>
<!-- Node15&#45;&gt;Node16 -->
<g id="edge4" class="edge"><title>Node15&#45;&gt;Node16</title>
<path fill="none" stroke="midnightblue" d="M1149.99,-157.063C934.066,-146.245 347.344,-116.446 306,-110 303.134,-109.553 300.22,-109.045 297.286,-108.489"/>
<polygon fill="midnightblue" stroke="midnightblue" points="1150.14,-160.574 1160.3,-157.579 1150.49,-153.583 1150.14,-160.574"/>
</g>
<!-- Node17 -->
<g id="node6" class="node"><title>Node17</title>
<g id="a_node6"><a xlink:href="_kin_fit_i_m_check_8cc.html" target="_top" xlink:title="src/analysis/physics\l/check/KinFitIMCheck.cc">
<polygon fill="white" stroke="black" points="315,-74 315,-104 443,-104 443,-74 315,-74"/>
<text text-anchor="start" x="323" y="-92" font-family="Helvetica,sans-Serif" font-size="10.00">src/analysis/physics</text>
<text text-anchor="middle" x="379" y="-81" font-family="Helvetica,sans-Serif" font-size="10.00">/check/KinFitIMCheck.cc</text>
</a>
</g>
</g>
<!-- Node15&#45;&gt;Node17 -->
<g id="edge5" class="edge"><title>Node15&#45;&gt;Node17</title>
<path fill="none" stroke="midnightblue" d="M1150.35,-156.742C966.585,-146.663 519.507,-121.343 452,-110 443.058,-108.498 433.634,-106.352 424.636,-104.019"/>
<polygon fill="midnightblue" stroke="midnightblue" points="1150.31,-160.244 1160.48,-157.297 1150.69,-153.255 1150.31,-160.244"/>
</g>
<!-- Node18 -->
<g id="node7" class="node"><title>Node18</title>
<g id="a_node7"><a xlink:href="_p_i_d_efficiency_check_8cc.html" target="_top" xlink:title="src/analysis/physics\l/check/PIDEfficiencyCheck.cc">
<polygon fill="white" stroke="black" points="461,-74 461,-104 613,-104 613,-74 461,-74"/>
<text text-anchor="start" x="469" y="-92" font-family="Helvetica,sans-Serif" font-size="10.00">src/analysis/physics</text>
<text text-anchor="middle" x="537" y="-81" font-family="Helvetica,sans-Serif" font-size="10.00">/check/PIDEfficiencyCheck.cc</text>
</a>
</g>
</g>
<!-- Node15&#45;&gt;Node18 -->
<g id="edge6" class="edge"><title>Node15&#45;&gt;Node18</title>
<path fill="none" stroke="midnightblue" d="M1150.11,-158.082C1033.88,-152.946 810.069,-139.86 622,-110 611.968,-108.407 601.366,-106.278 591.178,-104.003"/>
<polygon fill="midnightblue" stroke="midnightblue" points="1150.19,-161.589 1160.33,-158.526 1150.49,-154.595 1150.19,-161.589"/>
</g>
<!-- Node19 -->
<g id="node8" class="node"><title>Node19</title>
<g id="a_node8"><a xlink:href="_three_photon_check_8cc.html" target="_top" xlink:title="src/analysis/physics\l/check/ThreePhotonCheck.cc">
<polygon fill="white" stroke="black" points="631,-74 631,-104 777,-104 777,-74 631,-74"/>
<text text-anchor="start" x="639" y="-92" font-family="Helvetica,sans-Serif" font-size="10.00">src/analysis/physics</text>
<text text-anchor="middle" x="704" y="-81" font-family="Helvetica,sans-Serif" font-size="10.00">/check/ThreePhotonCheck.cc</text>
</a>
</g>
</g>
<!-- Node15&#45;&gt;Node19 -->
<g id="edge7" class="edge"><title>Node15&#45;&gt;Node19</title>
<path fill="none" stroke="midnightblue" d="M1150.49,-154.845C1061.8,-147.218 913.329,-132.423 787,-110 777.66,-108.342 767.802,-106.263 758.27,-104.077"/>
<polygon fill="midnightblue" stroke="midnightblue" points="1150.22,-158.334 1160.48,-155.694 1150.81,-151.359 1150.22,-158.334"/>
</g>
<!-- Node20 -->
<g id="node9" class="node"><title>Node20</title>
<g id="a_node9"><a xlink:href="_etap_omega_g_8cc.html" target="_top" xlink:title="src/analysis/physics\l/etaprime/EtapOmegaG.cc">
<polygon fill="white" stroke="black" points="795.5,-74 795.5,-104 928.5,-104 928.5,-74 795.5,-74"/>
<text text-anchor="start" x="803.5" y="-92" font-family="Helvetica,sans-Serif" font-size="10.00">src/analysis/physics</text>
<text text-anchor="middle" x="862" y="-81" font-family="Helvetica,sans-Serif" font-size="10.00">/etaprime/EtapOmegaG.cc</text>
</a>
</g>
</g>
<!-- Node15&#45;&gt;Node20 -->
<g id="edge8" class="edge"><title>Node15&#45;&gt;Node20</title>
<path fill="none" stroke="midnightblue" d="M1150.52,-149.075C1091.76,-139.703 1009.52,-125.649 938,-110 929.87,-108.221 921.299,-106.154 912.959,-104.038"/>
<polygon fill="midnightblue" stroke="midnightblue" points="1150.05,-152.544 1160.48,-150.654 1151.15,-145.631 1150.05,-152.544"/>
</g>
<!-- Node21 -->
<g id="node10" class="node"><title>Node21</title>
<g id="a_node10"><a xlink:href="_etap_omega_g__simple_8cc.html" target="_top" xlink:title="src/analysis/physics\l/etaprime/EtapOmegaG\l_simple.cc">
<polygon fill="white" stroke="black" points="946.5,-68.5 946.5,-109.5 1065.5,-109.5 1065.5,-68.5 946.5,-68.5"/>
<text text-anchor="start" x="954.5" y="-97.5" font-family="Helvetica,sans-Serif" font-size="10.00">src/analysis/physics</text>
<text text-anchor="start" x="954.5" y="-86.5" font-family="Helvetica,sans-Serif" font-size="10.00">/etaprime/EtapOmegaG</text>
<text text-anchor="middle" x="1006" y="-75.5" font-family="Helvetica,sans-Serif" font-size="10.00">_simple.cc</text>
</a>
</g>
</g>
<!-- Node15&#45;&gt;Node21 -->
<g id="edge9" class="edge"><title>Node15&#45;&gt;Node21</title>
<path fill="none" stroke="midnightblue" d="M1175,-143.808C1141.95,-133.285 1099.62,-119.806 1065.59,-108.972"/>
<polygon fill="midnightblue" stroke="midnightblue" points="1174.35,-147.274 1184.94,-146.973 1176.48,-140.604 1174.35,-147.274"/>
</g>
<!-- Node22 -->
<g id="node11" class="node"><title>Node22</title>
<g id="a_node11"><a xlink:href="etaprime__dalitz_8cc.html" target="_top" xlink:title="src/analysis/physics\l/etaprime/etaprime_dalitz.cc">
<polygon fill="white" stroke="black" points="1084,-74 1084,-104 1224,-104 1224,-74 1084,-74"/>
<text text-anchor="start" x="1092" y="-92" font-family="Helvetica,sans-Serif" font-size="10.00">src/analysis/physics</text>
<text text-anchor="middle" x="1154" y="-81" font-family="Helvetica,sans-Serif" font-size="10.00">/etaprime/etaprime_dalitz.cc</text>
</a>
</g>
</g>
<!-- Node15&#45;&gt;Node22 -->
<g id="edge10" class="edge"><title>Node15&#45;&gt;Node22</title>
<path fill="none" stroke="midnightblue" d="M1206.64,-139.831C1194.5,-128.339 1179.81,-114.438 1169.04,-104.241"/>
<polygon fill="midnightblue" stroke="midnightblue" points="1204.51,-142.64 1214.18,-146.973 1209.33,-137.556 1204.51,-142.64"/>
</g>
<!-- Node23 -->
<g id="node12" class="node"><title>Node23</title>
<g id="a_node12"><a xlink:href="_omega___eta_g_8cc.html" target="_top" xlink:title="src/analysis/physics\l/omega/Omega_EtaG.cc">
<polygon fill="white" stroke="black" points="1242.5,-74 1242.5,-104 1367.5,-104 1367.5,-74 1242.5,-74"/>
<text text-anchor="start" x="1250.5" y="-92" font-family="Helvetica,sans-Serif" font-size="10.00">src/analysis/physics</text>
<text text-anchor="middle" x="1305" y="-81" font-family="Helvetica,sans-Serif" font-size="10.00">/omega/Omega_EtaG.cc</text>
</a>
</g>
</g>
<!-- Node15&#45;&gt;Node23 -->
<g id="edge11" class="edge"><title>Node15&#45;&gt;Node23</title>
<path fill="none" stroke="midnightblue" d="M1251.66,-139.831C1263.96,-128.339 1278.84,-114.438 1289.76,-104.241"/>
<polygon fill="midnightblue" stroke="midnightblue" points="1248.93,-137.588 1244.02,-146.973 1253.71,-142.704 1248.93,-137.588"/>
</g>
<!-- Node24 -->
<g id="node13" class="node"><title>Node24</title>
<g id="a_node13"><a xlink:href="_just_pi0_8cc.html" target="_top" xlink:title="src/analysis/physics\l/pi0/JustPi0.cc">
<polygon fill="white" stroke="black" points="1386,-74 1386,-104 1492,-104 1492,-74 1386,-74"/>
<text text-anchor="start" x="1394" y="-92" font-family="Helvetica,sans-Serif" font-size="10.00">src/analysis/physics</text>
<text text-anchor="middle" x="1439" y="-81" font-family="Helvetica,sans-Serif" font-size="10.00">/pi0/JustPi0.cc</text>
</a>
</g>
</g>
<!-- Node15&#45;&gt;Node24 -->
<g id="edge12" class="edge"><title>Node15&#45;&gt;Node24</title>
<path fill="none" stroke="midnightblue" d="M1280.3,-143.657C1316.22,-131.511 1363.62,-115.485 1397.24,-104.12"/>
<polygon fill="midnightblue" stroke="midnightblue" points="1278.84,-140.454 1270.49,-146.973 1281.08,-147.085 1278.84,-140.454"/>
</g>
<!-- Node25 -->
<g id="node14" class="node"><title>Node25</title>
<g id="a_node14"><a xlink:href="sigma_plus_8cc.html" target="_top" xlink:title="src/analysis/physics\l/production/sigmaPlus.cc">
<polygon fill="white" stroke="black" points="1510.5,-74 1510.5,-104 1637.5,-104 1637.5,-74 1510.5,-74"/>
<text text-anchor="start" x="1518.5" y="-92" font-family="Helvetica,sans-Serif" font-size="10.00">src/analysis/physics</text>
<text text-anchor="middle" x="1574" y="-81" font-family="Helvetica,sans-Serif" font-size="10.00">/production/sigmaPlus.cc</text>
</a>
</g>
</g>
<!-- Node15&#45;&gt;Node25 -->
<g id="edge13" class="edge"><title>Node15&#45;&gt;Node25</title>
<path fill="none" stroke="midnightblue" d="M1307.9,-145.848C1394.42,-129.71 1418,-128.698 1500,-110 1507.79,-108.225 1515.99,-106.183 1523.98,-104.097"/>
<polygon fill="midnightblue" stroke="midnightblue" points="1307.08,-142.441 1297.9,-147.728 1308.37,-149.32 1307.08,-142.441"/>
</g>
<!-- Node26 -->
<g id="node15" class="node"><title>Node26</title>
<g id="a_node15"><a xlink:href="single_pi0_8cc.html" target="_top" xlink:title="src/analysis/physics\l/production/singlePi0.cc">
<polygon fill="white" stroke="black" points="1655.5,-74 1655.5,-104 1776.5,-104 1776.5,-74 1655.5,-74"/>
<text text-anchor="start" x="1663.5" y="-92" font-family="Helvetica,sans-Serif" font-size="10.00">src/analysis/physics</text>
<text text-anchor="middle" x="1716" y="-81" font-family="Helvetica,sans-Serif" font-size="10.00">/production/singlePi0.cc</text>
</a>
</g>
</g>
<!-- Node15&#45;&gt;Node26 -->
<g id="edge14" class="edge"><title>Node15&#45;&gt;Node26</title>
<path fill="none" stroke="midnightblue" d="M1307.94,-145.956C1458.65,-124.308 1500.47,-138.298 1646,-110 1654.19,-108.408 1662.81,-106.307 1671.09,-104.066"/>
<polygon fill="midnightblue" stroke="midnightblue" points="1307.24,-142.521 1297.85,-147.434 1308.25,-149.447 1307.24,-142.521"/>
</g>
<!-- Node27 -->
<g id="node16" class="node"><title>Node27</title>
<g id="a_node16"><a xlink:href="triple_pi0_8cc.html" target="_top" xlink:title="src/analysis/physics\l/production/triplePi0.cc">
<polygon fill="white" stroke="black" points="1795,-74 1795,-104 1911,-104 1911,-74 1795,-74"/>
<text text-anchor="start" x="1803" y="-92" font-family="Helvetica,sans-Serif" font-size="10.00">src/analysis/physics</text>
<text text-anchor="middle" x="1853" y="-81" font-family="Helvetica,sans-Serif" font-size="10.00">/production/triplePi0.cc</text>
</a>
</g>
</g>
<!-- Node15&#45;&gt;Node27 -->
<g id="edge15" class="edge"><title>Node15&#45;&gt;Node27</title>
<path fill="none" stroke="midnightblue" d="M1308.04,-145.98C1520,-118.771 1578.69,-147.672 1785,-110 1793.23,-108.497 1801.89,-106.381 1810.16,-104.084"/>
<polygon fill="midnightblue" stroke="midnightblue" points="1307.29,-142.548 1297.83,-147.319 1308.2,-149.489 1307.29,-142.548"/>
</g>
<!-- Node28 -->
<g id="node17" class="node"><title>Node28</title>
<g id="a_node17"><a xlink:href="_proton_vertex_test_8cc.html" target="_top" xlink:title="src/analysis/physics\l/scratch/wolfes/ProtonVertex\lTest.cc">
<polygon fill="white" stroke="black" points="1929.5,-68.5 1929.5,-109.5 2072.5,-109.5 2072.5,-68.5 1929.5,-68.5"/>
<text text-anchor="start" x="1937.5" y="-97.5" font-family="Helvetica,sans-Serif" font-size="10.00">src/analysis/physics</text>
<text text-anchor="start" x="1937.5" y="-86.5" font-family="Helvetica,sans-Serif" font-size="10.00">/scratch/wolfes/ProtonVertex</text>
<text text-anchor="middle" x="2001" y="-75.5" font-family="Helvetica,sans-Serif" font-size="10.00">Test.cc</text>
</a>
</g>
</g>
<!-- Node15&#45;&gt;Node28 -->
<g id="edge16" class="edge"><title>Node15&#45;&gt;Node28</title>
<path fill="none" stroke="midnightblue" d="M1307.97,-146.005C1579.16,-113.122 1652.84,-149.953 1919,-110 1922.33,-109.5 1925.73,-108.928 1929.15,-108.301"/>
<polygon fill="midnightblue" stroke="midnightblue" points="1307.32,-142.559 1297.83,-147.257 1308.18,-149.506 1307.32,-142.559"/>
</g>
<!-- Node29 -->
<g id="node18" class="node"><title>Node29</title>
<g id="a_node18"><a xlink:href="_test_sigma_plus_fitter_8cc.html" target="_top" xlink:title="src/analysis/physics\l/test/TestSigmaPlusFitter.cc">
<polygon fill="white" stroke="black" points="2091,-74 2091,-104 2233,-104 2233,-74 2091,-74"/>
<text text-anchor="start" x="2099" y="-92" font-family="Helvetica,sans-Serif" font-size="10.00">src/analysis/physics</text>
<text text-anchor="middle" x="2162" y="-81" font-family="Helvetica,sans-Serif" font-size="10.00">/test/TestSigmaPlusFitter.cc</text>
</a>
</g>
</g>
<!-- Node15&#45;&gt;Node29 -->
<g id="edge17" class="edge"><title>Node15&#45;&gt;Node29</title>
<path fill="none" stroke="midnightblue" d="M1307.78,-146.041C1650.73,-106.4 1743.45,-159.041 2081,-110 2091.03,-108.542 2101.64,-106.386 2111.75,-104.023"/>
<polygon fill="midnightblue" stroke="midnightblue" points="1307.34,-142.568 1297.82,-147.21 1308.16,-149.521 1307.34,-142.568"/>
</g>
<!-- Node30 -->
<g id="node19" class="node"><title>Node30</title>
<g id="a_node19"><a xlink:href="analysis_2physics_2tunings_2_interpolated_pulls_8h.html" target="_top" xlink:title="src/analysis/physics\l/tunings/InterpolatedPulls.h">
<polygon fill="white" stroke="black" points="2251.5,-74 2251.5,-104 2386.5,-104 2386.5,-74 2251.5,-74"/>
<text text-anchor="start" x="2259.5" y="-92" font-family="Helvetica,sans-Serif" font-size="10.00">src/analysis/physics</text>
<text text-anchor="middle" x="2319" y="-81" font-family="Helvetica,sans-Serif" font-size="10.00">/tunings/InterpolatedPulls.h</text>
</a>
</g>
</g>
<!-- Node15&#45;&gt;Node30 -->
<g id="edge18" class="edge"><title>Node15&#45;&gt;Node30</title>
<path fill="none" stroke="midnightblue" d="M1307.96,-146.029C1721.95,-99.7487 1833.89,-170.137 2242,-110 2251.56,-108.591 2261.66,-106.457 2271.27,-104.1"/>
<polygon fill="midnightblue" stroke="midnightblue" points="1307.36,-142.575 1297.82,-147.18 1308.15,-149.531 1307.36,-142.575"/>
</g>
<!-- Node32 -->
<g id="node21" class="node"><title>Node32</title>
<g id="a_node21"><a xlink:href="physics_2tunings_2_trigger_simulation_8cc.html" target="_top" xlink:title="src/analysis/physics\l/tunings/TriggerSimulation.cc">
<polygon fill="white" stroke="black" points="2404.5,-74 2404.5,-104 2547.5,-104 2547.5,-74 2404.5,-74"/>
<text text-anchor="start" x="2412.5" y="-92" font-family="Helvetica,sans-Serif" font-size="10.00">src/analysis/physics</text>
<text text-anchor="middle" x="2476" y="-81" font-family="Helvetica,sans-Serif" font-size="10.00">/tunings/TriggerSimulation.cc</text>
</a>
</g>
</g>
<!-- Node15&#45;&gt;Node32 -->
<g id="edge20" class="edge"><title>Node15&#45;&gt;Node32</title>
<path fill="none" stroke="midnightblue" d="M1307.81,-146.051C1789.58,-93.2944 1919.03,-175.898 2395,-110 2405.19,-108.59 2415.95,-106.423 2426.2,-104.029"/>
<polygon fill="midnightblue" stroke="midnightblue" points="1307.37,-142.579 1297.81,-147.16 1308.14,-149.536 1307.37,-142.579"/>
</g>
<!-- Node33 -->
<g id="node22" class="node"><title>Node33</title>
<g id="a_node22"><a xlink:href="root-addons_2analysis__codes_2_interpolated_pulls_8cc.html" target="_top" xlink:title="src/root&#45;addons/analysis\l_codes/InterpolatedPulls.cc">
<polygon fill="white" stroke="black" points="2565.5,-74 2565.5,-104 2702.5,-104 2702.5,-74 2565.5,-74"/>
<text text-anchor="start" x="2573.5" y="-92" font-family="Helvetica,sans-Serif" font-size="10.00">src/root&#45;addons/analysis</text>
<text text-anchor="middle" x="2634" y="-81" font-family="Helvetica,sans-Serif" font-size="10.00">_codes/InterpolatedPulls.cc</text>
</a>
</g>
</g>
<!-- Node15&#45;&gt;Node33 -->
<g id="edge22" class="edge"><title>Node15&#45;&gt;Node33</title>
<path fill="none" stroke="midnightblue" d="M1308.04,-146.031C1860.83,-86.6052 2009.44,-186.971 2556,-110 2565.83,-108.616 2576.21,-106.461 2586.07,-104.07"/>
<polygon fill="midnightblue" stroke="midnightblue" points="1307.37,-142.582 1297.81,-147.144 1308.13,-149.541 1307.37,-142.582"/>
</g>
<!-- Node31 -->
<g id="node20" class="node"><title>Node31</title>
<g id="a_node20"><a xlink:href="analysis_2physics_2tunings_2_interpolated_pulls_8cc.html" target="_top" xlink:title="src/analysis/physics\l/tunings/InterpolatedPulls.cc">
<polygon fill="white" stroke="black" points="2249,-1 2249,-31 2389,-31 2389,-1 2249,-1"/>
<text text-anchor="start" x="2257" y="-19" font-family="Helvetica,sans-Serif" font-size="10.00">src/analysis/physics</text>
<text text-anchor="middle" x="2319" y="-8" font-family="Helvetica,sans-Serif" font-size="10.00">/tunings/InterpolatedPulls.cc</text>
</a>
</g>
</g>
<!-- Node30&#45;&gt;Node31 -->
<g id="edge19" class="edge"><title>Node30&#45;&gt;Node31</title>
<path fill="none" stroke="midnightblue" d="M2319,-63.8976C2319,-53.1314 2319,-40.8005 2319,-31.4856"/>
<polygon fill="midnightblue" stroke="midnightblue" points="2315.5,-63.9727 2319,-73.9727 2322.5,-63.9727 2315.5,-63.9727"/>
</g>
</g>
</svg>
