<?xml version="1.0" encoding="UTF-8" standalone="no"?>
<!DOCTYPE svg PUBLIC "-//W3C//DTD SVG 1.1//EN"
 "http://www.w3.org/Graphics/SVG/1.1/DTD/svg11.dtd">
<!-- Generated by graphviz version 2.36.0 (20140111.2315)
 -->
<!-- Title: src/analysis/utils/Matcher.h Pages: 1 -->
<svg width="1411pt" height="118pt"
 viewBox="0.00 0.00 1411.00 118.00" xmlns="http://www.w3.org/2000/svg" xmlns:xlink="http://www.w3.org/1999/xlink">
<g id="graph0" class="graph" transform="scale(1 1) rotate(0) translate(4 114)">
<title>src/analysis/utils/Matcher.h</title>
<polygon fill="white" stroke="none" points="-4,4 -4,-114 1407,-114 1407,4 -4,4"/>
<!-- Node12 -->
<g id="node1" class="node"><title>Node12</title>
<polygon fill="#bfbfbf" stroke="black" points="670,-79 670,-109 760,-109 760,-79 670,-79"/>
<text text-anchor="start" x="678" y="-97" font-family="Helvetica,sans-Serif" font-size="10.00">src/analysis/utils</text>
<text text-anchor="middle" x="715" y="-86" font-family="Helvetica,sans-Serif" font-size="10.00">/Matcher.h</text>
</g>
<!-- Node13 -->
<g id="node2" class="node"><title>Node13</title>
<g id="a_node2"><a xlink:href="_p_i_d___t_a_p_s_veto___kinfit_8cc.html" target="_top" xlink:title="src/analysis/physics\l/calibration/PID_TAPSVeto\l_Kinfit.cc">
<polygon fill="white" stroke="black" points="0,-0.5 0,-41.5 136,-41.5 136,-0.5 0,-0.5"/>
<text text-anchor="start" x="8" y="-29.5" font-family="Helvetica,sans-Serif" font-size="10.00">src/analysis/physics</text>
<text text-anchor="start" x="8" y="-18.5" font-family="Helvetica,sans-Serif" font-size="10.00">/calibration/PID_TAPSVeto</text>
<text text-anchor="middle" x="68" y="-7.5" font-family="Helvetica,sans-Serif" font-size="10.00">_Kinfit.cc</text>
</a>
</g>
</g>
<!-- Node12&#45;&gt;Node13 -->
<g id="edge1" class="edge"><title>Node12&#45;&gt;Node13</title>
<path fill="none" stroke="midnightblue" d="M659.877,-91.0882C557.677,-86.8763 332.156,-74.4505 145,-42 142.142,-41.5045 139.235,-40.9557 136.306,-40.3657"/>
<polygon fill="midnightblue" stroke="midnightblue" points="659.832,-94.5891 669.964,-91.4936 660.113,-87.5947 659.832,-94.5891"/>
</g>
<!-- Node14 -->
<g id="node3" class="node"><title>Node14</title>
<g id="a_node3"><a xlink:href="_etap_omega_g_8cc.html" target="_top" xlink:title="src/analysis/physics\l/etaprime/EtapOmegaG.cc">
<polygon fill="white" stroke="black" points="154.5,-6 154.5,-36 287.5,-36 287.5,-6 154.5,-6"/>
<text text-anchor="start" x="162.5" y="-24" font-family="Helvetica,sans-Serif" font-size="10.00">src/analysis/physics</text>
<text text-anchor="middle" x="221" y="-13" font-family="Helvetica,sans-Serif" font-size="10.00">/etaprime/EtapOmegaG.cc</text>
</a>
</g>
</g>
<!-- Node12&#45;&gt;Node14 -->
<g id="edge2" class="edge"><title>Node12&#45;&gt;Node14</title>
<path fill="none" stroke="midnightblue" d="M659.313,-88.7106C578.677,-81.9377 424.936,-66.9123 296,-42 287.4,-40.3383 278.332,-38.2311 269.588,-36.0117"/>
<polygon fill="midnightblue" stroke="midnightblue" points="659.469,-92.2354 669.724,-89.5731 660.047,-85.2593 659.469,-92.2354"/>
</g>
<!-- Node15 -->
<g id="node4" class="node"><title>Node15</title>
<g id="a_node4"><a xlink:href="_etap_omega_g__simple_8cc.html" target="_top" xlink:title="src/analysis/physics\l/etaprime/EtapOmegaG\l_simple.cc">
<polygon fill="white" stroke="black" points="305.5,-0.5 305.5,-41.5 424.5,-41.5 424.5,-0.5 305.5,-0.5"/>
<text text-anchor="start" x="313.5" y="-29.5" font-family="Helvetica,sans-Serif" font-size="10.00">src/analysis/physics</text>
<text text-anchor="start" x="313.5" y="-18.5" font-family="Helvetica,sans-Serif" font-size="10.00">/etaprime/EtapOmegaG</text>
<text text-anchor="middle" x="365" y="-7.5" font-family="Helvetica,sans-Serif" font-size="10.00">_simple.cc</text>
</a>
</g>
</g>
<!-- Node12&#45;&gt;Node15 -->
<g id="edge3" class="edge"><title>Node12&#45;&gt;Node15</title>
<path fill="none" stroke="midnightblue" d="M659.856,-84.8193C602.746,-75.929 511.099,-60.4911 433,-42 430.246,-41.3479 427.438,-40.6516 424.607,-39.9242"/>
<polygon fill="midnightblue" stroke="midnightblue" points="659.342,-88.2813 669.759,-86.3491 660.41,-81.3633 659.342,-88.2813"/>
</g>
<!-- Node16 -->
<g id="node5" class="node"><title>Node16</title>
<g id="a_node5"><a xlink:href="_find_proton_8cc.html" target="_top" xlink:title="src/analysis/physics\l/omega/FindProton.cc">
<polygon fill="white" stroke="black" points="442.5,-6 442.5,-36 555.5,-36 555.5,-6 442.5,-6"/>
<text text-anchor="start" x="450.5" y="-24" font-family="Helvetica,sans-Serif" font-size="10.00">src/analysis/physics</text>
<text text-anchor="middle" x="499" y="-13" font-family="Helvetica,sans-Serif" font-size="10.00">/omega/FindProton.cc</text>
</a>
</g>
</g>
<!-- Node12&#45;&gt;Node16 -->
<g id="edge4" class="edge"><title>Node12&#45;&gt;Node16</title>
<path fill="none" stroke="midnightblue" d="M662.711,-75.8125C625.705,-63.6483 576.681,-47.534 541.955,-36.1195"/>
<polygon fill="midnightblue" stroke="midnightblue" points="661.732,-79.1749 672.325,-78.9727 663.918,-72.525 661.732,-79.1749"/>
</g>
<!-- Node17 -->
<g id="node6" class="node"><title>Node17</title>
<g id="a_node6"><a xlink:href="_geo_acceptance_8cc.html" target="_top" xlink:title="src/analysis/physics\l/omega/GeoAcceptance.cc">
<polygon fill="white" stroke="black" points="573.5,-6 573.5,-36 708.5,-36 708.5,-6 573.5,-6"/>
<text text-anchor="start" x="581.5" y="-24" font-family="Helvetica,sans-Serif" font-size="10.00">src/analysis/physics</text>
<text text-anchor="middle" x="641" y="-13" font-family="Helvetica,sans-Serif" font-size="10.00">/omega/GeoAcceptance.cc</text>
</a>
</g>
</g>
<!-- Node12&#45;&gt;Node17 -->
<g id="edge5" class="edge"><title>Node12&#45;&gt;Node17</title>
<path fill="none" stroke="midnightblue" d="M692.937,-71.8313C680.959,-60.3386 666.47,-46.4378 655.843,-36.2412"/>
<polygon fill="midnightblue" stroke="midnightblue" points="690.741,-74.5749 700.38,-78.9727 695.587,-69.5238 690.741,-74.5749"/>
</g>
<!-- Node18 -->
<g id="node7" class="node"><title>Node18</title>
<g id="a_node7"><a xlink:href="_omega___eta_g_8cc.html" target="_top" xlink:title="src/analysis/physics\l/omega/Omega_EtaG.cc">
<polygon fill="white" stroke="black" points="726.5,-6 726.5,-36 851.5,-36 851.5,-6 726.5,-6"/>
<text text-anchor="start" x="734.5" y="-24" font-family="Helvetica,sans-Serif" font-size="10.00">src/analysis/physics</text>
<text text-anchor="middle" x="789" y="-13" font-family="Helvetica,sans-Serif" font-size="10.00">/omega/Omega_EtaG.cc</text>
</a>
</g>
</g>
<!-- Node12&#45;&gt;Node18 -->
<g id="edge6" class="edge"><title>Node12&#45;&gt;Node18</title>
<path fill="none" stroke="midnightblue" d="M737.063,-71.8313C749.041,-60.3386 763.53,-46.4378 774.157,-36.2412"/>
<polygon fill="midnightblue" stroke="midnightblue" points="734.413,-69.5238 729.62,-78.9727 739.259,-74.5749 734.413,-69.5238"/>
</g>
<!-- Node19 -->
<g id="node8" class="node"><title>Node19</title>
<g id="a_node8"><a xlink:href="pi0eta_8cc.html" target="_top" xlink:title="src/analysis/physics\l/omega/pi0eta.cc">
<polygon fill="white" stroke="black" points="870,-6 870,-36 976,-36 976,-6 870,-6"/>
<text text-anchor="start" x="878" y="-24" font-family="Helvetica,sans-Serif" font-size="10.00">src/analysis/physics</text>
<text text-anchor="middle" x="923" y="-13" font-family="Helvetica,sans-Serif" font-size="10.00">/omega/pi0eta.cc</text>
</a>
</g>
</g>
<!-- Node12&#45;&gt;Node19 -->
<g id="edge7" class="edge"><title>Node12&#45;&gt;Node19</title>
<path fill="none" stroke="midnightblue" d="M765.808,-75.657C801.39,-63.5112 848.338,-47.4854 881.636,-36.1195"/>
<polygon fill="midnightblue" stroke="midnightblue" points="764.427,-72.4298 756.094,-78.9727 766.689,-79.0545 764.427,-72.4298"/>
</g>
<!-- Node20 -->
<g id="node9" class="node"><title>Node20</title>
<g id="a_node9"><a xlink:href="pi0eta__lost__g_8cc.html" target="_top" xlink:title="src/analysis/physics\l/omega/pi0eta_lost_g.cc">
<polygon fill="white" stroke="black" points="994.5,-6 994.5,-36 1117.5,-36 1117.5,-6 994.5,-6"/>
<text text-anchor="start" x="1002.5" y="-24" font-family="Helvetica,sans-Serif" font-size="10.00">src/analysis/physics</text>
<text text-anchor="middle" x="1056" y="-13" font-family="Helvetica,sans-Serif" font-size="10.00">/omega/pi0eta_lost_g.cc</text>
</a>
</g>
</g>
<!-- Node12&#45;&gt;Node20 -->
<g id="edge8" class="edge"><title>Node12&#45;&gt;Node20</title>
<path fill="none" stroke="midnightblue" d="M770.617,-83.8535C825.213,-74.5467 910.723,-59.0922 984,-42 991.707,-40.2023 999.829,-38.1258 1007.73,-36.0054"/>
<polygon fill="midnightblue" stroke="midnightblue" points="769.733,-80.4534 760.458,-85.5751 770.903,-87.355 769.733,-80.4534"/>
</g>
<!-- Node21 -->
<g id="node10" class="node"><title>Node21</title>
<g id="a_node10"><a xlink:href="_just_pi0_8cc.html" target="_top" xlink:title="src/analysis/physics\l/pi0/JustPi0.cc">
<polygon fill="white" stroke="black" points="1136,-6 1136,-36 1242,-36 1242,-6 1136,-6"/>
<text text-anchor="start" x="1144" y="-24" font-family="Helvetica,sans-Serif" font-size="10.00">src/analysis/physics</text>
<text text-anchor="middle" x="1189" y="-13" font-family="Helvetica,sans-Serif" font-size="10.00">/pi0/JustPi0.cc</text>
</a>
</g>
</g>
<!-- Node12&#45;&gt;Node21 -->
<g id="edge9" class="edge"><title>Node12&#45;&gt;Node21</title>
<path fill="none" stroke="midnightblue" d="M770.423,-89.3735C849.888,-83.4417 1000.46,-69.4701 1126,-42 1133.4,-40.381 1141.17,-38.2674 1148.63,-36.022"/>
<polygon fill="midnightblue" stroke="midnightblue" points="769.876,-85.9041 760.158,-90.1244 770.387,-92.8854 769.876,-85.9041"/>
</g>
<!-- Node22 -->
<g id="node11" class="node"><title>Node22</title>
<g id="a_node11"><a xlink:href="_test_matcher_8cc.html" target="_top" xlink:title="test/analysis/TestMatcher.cc">
<polygon fill="white" stroke="black" points="1260.5,-11.5 1260.5,-30.5 1403.5,-30.5 1403.5,-11.5 1260.5,-11.5"/>
<text text-anchor="middle" x="1332" y="-18.5" font-family="Helvetica,sans-Serif" font-size="10.00">test/analysis/TestMatcher.cc</text>
</a>
</g>
</g>
<!-- Node12&#45;&gt;Node22 -->
<g id="edge10" class="edge"><title>Node12&#45;&gt;Node22</title>
<path fill="none" stroke="midnightblue" d="M770.228,-90.3659C867.666,-85.1344 1076.24,-71.3157 1250,-42 1267.19,-39.0991 1286.12,-34.5735 1301.46,-30.5606"/>
<polygon fill="midnightblue" stroke="midnightblue" points="769.828,-86.882 760.026,-90.9039 770.197,-93.8723 769.828,-86.882"/>
</g>
</g>
</svg>
