<?xml version="1.0" encoding="UTF-8" standalone="no"?>
<!DOCTYPE svg PUBLIC "-//W3C//DTD SVG 1.1//EN"
 "http://www.w3.org/Graphics/SVG/1.1/DTD/svg11.dtd">
<!-- Generated by graphviz version 2.36.0 (20140111.2315)
 -->
<!-- Title: src/analysis/utils/uncertainties/MeasuredProton.h Pages: 1 -->
<svg width="313pt" height="108pt"
 viewBox="0.00 0.00 313.00 108.00" xmlns="http://www.w3.org/2000/svg" xmlns:xlink="http://www.w3.org/1999/xlink">
<g id="graph0" class="graph" transform="scale(1 1) rotate(0) translate(4 104)">
<title>src/analysis/utils/uncertainties/MeasuredProton.h</title>
<polygon fill="white" stroke="none" points="-4,4 -4,-104 309,-104 309,4 -4,4"/>
<!-- Node42 -->
<g id="node1" class="node"><title>Node42</title>
<polygon fill="#bfbfbf" stroke="black" points="64,-69 64,-99 222,-99 222,-69 64,-69"/>
<text text-anchor="start" x="72" y="-87" font-family="Helvetica,sans-Serif" font-size="10.00">src/analysis/utils</text>
<text text-anchor="middle" x="143" y="-76" font-family="Helvetica,sans-Serif" font-size="10.00">/uncertainties/MeasuredProton.h</text>
</g>
<!-- Node43 -->
<g id="node2" class="node"><title>Node43</title>
<g id="a_node2"><a xlink:href="_omega___eta_g_8cc.html" target="_top" xlink:title="src/analysis/physics\l/omega/Omega_EtaG.cc">
<polygon fill="white" stroke="black" points="-0.5,-1 -0.5,-31 124.5,-31 124.5,-1 -0.5,-1"/>
<text text-anchor="start" x="7.5" y="-19" font-family="Helvetica,sans-Serif" font-size="10.00">src/analysis/physics</text>
<text text-anchor="middle" x="62" y="-8" font-family="Helvetica,sans-Serif" font-size="10.00">/omega/Omega_EtaG.cc</text>
</a>
</g>
</g>
<!-- Node42&#45;&gt;Node43 -->
<g id="edge1" class="edge"><title>Node42&#45;&gt;Node43</title>
<path fill="none" stroke="midnightblue" d="M117.607,-62.3094C105.13,-52.1426 90.419,-40.1562 79.2632,-31.0663"/>
<polygon fill="midnightblue" stroke="midnightblue" points="115.461,-65.0755 125.424,-68.679 119.883,-59.6489 115.461,-65.0755"/>
</g>
<!-- Node44 -->
<g id="node3" class="node"><title>Node44</title>
<g id="a_node3"><a xlink:href="_measured_proton_8cc.html" target="_top" xlink:title="src/analysis/utils\l/uncertainties/MeasuredProton.cc">
<polygon fill="white" stroke="black" points="142.5,-1 142.5,-31 305.5,-31 305.5,-1 142.5,-1"/>
<text text-anchor="start" x="150.5" y="-19" font-family="Helvetica,sans-Serif" font-size="10.00">src/analysis/utils</text>
<text text-anchor="middle" x="224" y="-8" font-family="Helvetica,sans-Serif" font-size="10.00">/uncertainties/MeasuredProton.cc</text>
</a>
</g>
</g>
<!-- Node42&#45;&gt;Node44 -->
<g id="edge2" class="edge"><title>Node42&#45;&gt;Node44</title>
<path fill="none" stroke="midnightblue" d="M168.393,-62.3094C180.87,-52.1426 195.581,-40.1562 206.737,-31.0663"/>
<polygon fill="midnightblue" stroke="midnightblue" points="166.117,-59.6489 160.576,-68.679 170.539,-65.0755 166.117,-59.6489"/>
</g>
</g>
</svg>
