<?xml version="1.0" encoding="UTF-8" standalone="no"?>
<!DOCTYPE svg PUBLIC "-//W3C//DTD SVG 1.1//EN"
 "http://www.w3.org/Graphics/SVG/1.1/DTD/svg11.dtd">
<!-- Generated by graphviz version 2.36.0 (20140111.2315)
 -->
<!-- Title: src/calibration/converters/MultiHit.h Pages: 1 -->
<svg width="1578pt" height="322pt"
 viewBox="0.00 0.00 1578.00 322.00" xmlns="http://www.w3.org/2000/svg" xmlns:xlink="http://www.w3.org/1999/xlink">
<g id="graph0" class="graph" transform="scale(1 1) rotate(0) translate(4 318)">
<title>src/calibration/converters/MultiHit.h</title>
<polygon fill="white" stroke="none" points="-4,4 -4,-318 1574,-318 1574,4 -4,4"/>
<!-- Node49 -->
<g id="node1" class="node"><title>Node49</title>
<polygon fill="#bfbfbf" stroke="black" points="1026,-283 1026,-313 1152,-313 1152,-283 1026,-283"/>
<text text-anchor="start" x="1034" y="-301" font-family="Helvetica,sans-Serif" font-size="10.00">src/calibration/converters</text>
<text text-anchor="middle" x="1089" y="-290" font-family="Helvetica,sans-Serif" font-size="10.00">/MultiHit.h</text>
</g>
<!-- Node50 -->
<g id="node2" class="node"><title>Node50</title>
<g id="a_node2"><a xlink:href="_multi_hit_reference_8h.html" target="_top" xlink:title="src/calibration/converters\l/MultiHitReference.h">
<polygon fill="white" stroke="black" points="715,-215 715,-245 841,-245 841,-215 715,-215"/>
<text text-anchor="start" x="723" y="-233" font-family="Helvetica,sans-Serif" font-size="10.00">src/calibration/converters</text>
<text text-anchor="middle" x="778" y="-222" font-family="Helvetica,sans-Serif" font-size="10.00">/MultiHitReference.h</text>
</a>
</g>
</g>
<!-- Node49&#45;&gt;Node50 -->
<g id="edge1" class="edge"><title>Node49&#45;&gt;Node50</title>
<path fill="none" stroke="midnightblue" d="M1015.67,-281.438C962.653,-270.187 891.753,-255.14 841.222,-244.417"/>
<polygon fill="midnightblue" stroke="midnightblue" points="1015.18,-284.912 1025.69,-283.564 1016.63,-278.065 1015.18,-284.912"/>
</g>
<!-- Node56 -->
<g id="node8" class="node"><title>Node56</title>
<g id="a_node8"><a xlink:href="_setup__2007___base_8cc.html" target="_top" xlink:title="src/expconfig/setups\l/Setup_2007_Base.cc">
<polygon fill="white" stroke="black" points="271.5,-74 271.5,-104 384.5,-104 384.5,-74 271.5,-74"/>
<text text-anchor="start" x="279.5" y="-92" font-family="Helvetica,sans-Serif" font-size="10.00">src/expconfig/setups</text>
<text text-anchor="middle" x="328" y="-81" font-family="Helvetica,sans-Serif" font-size="10.00">/Setup_2007_Base.cc</text>
</a>
</g>
</g>
<!-- Node49&#45;&gt;Node56 -->
<g id="edge26" class="edge"><title>Node49&#45;&gt;Node56</title>
<path fill="none" stroke="midnightblue" d="M1015.69,-297.166C875.264,-296.461 573.998,-289.713 481,-246 411.993,-213.564 357.029,-135.893 336.596,-104.016"/>
<polygon fill="midnightblue" stroke="midnightblue" points="1015.91,-300.667 1025.93,-297.208 1015.94,-293.667 1015.91,-300.667"/>
</g>
<!-- Node57 -->
<g id="node9" class="node"><title>Node57</title>
<g id="a_node9"><a xlink:href="_setup__2010__03___base_8cc.html" target="_top" xlink:title="src/expconfig/setups\l/Setup_2010_03_Base.cc">
<polygon fill="white" stroke="black" points="403,-74 403,-104 531,-104 531,-74 403,-74"/>
<text text-anchor="start" x="411" y="-92" font-family="Helvetica,sans-Serif" font-size="10.00">src/expconfig/setups</text>
<text text-anchor="middle" x="467" y="-81" font-family="Helvetica,sans-Serif" font-size="10.00">/Setup_2010_03_Base.cc</text>
</a>
</g>
</g>
<!-- Node49&#45;&gt;Node57 -->
<g id="edge27" class="edge"><title>Node49&#45;&gt;Node57</title>
<path fill="none" stroke="midnightblue" d="M1015.85,-295.518C859.005,-290.596 498.776,-269.371 427,-178 408.962,-155.037 433.923,-122.636 451.765,-104.234"/>
<polygon fill="midnightblue" stroke="midnightblue" points="1015.78,-299.017 1025.88,-295.819 1015.99,-292.021 1015.78,-299.017"/>
</g>
<!-- Node58 -->
<g id="node10" class="node"><title>Node58</title>
<g id="a_node10"><a xlink:href="_setup__2014___e_p_t_8cc.html" target="_top" xlink:title="src/expconfig/setups\l/Setup_2014_EPT.cc">
<polygon fill="white" stroke="black" points="0,-74 0,-104 110,-104 110,-74 0,-74"/>
<text text-anchor="start" x="8" y="-92" font-family="Helvetica,sans-Serif" font-size="10.00">src/expconfig/setups</text>
<text text-anchor="middle" x="55" y="-81" font-family="Helvetica,sans-Serif" font-size="10.00">/Setup_2014_EPT.cc</text>
</a>
</g>
</g>
<!-- Node49&#45;&gt;Node58 -->
<g id="edge28" class="edge"><title>Node49&#45;&gt;Node58</title>
<path fill="none" stroke="midnightblue" d="M1015.54,-295.672C855.209,-292.16 478.502,-280.407 356,-246 242.102,-214.01 121.502,-136.085 74.9388,-104.078"/>
<polygon fill="midnightblue" stroke="midnightblue" points="1015.71,-299.176 1025.78,-295.891 1015.86,-292.178 1015.71,-299.176"/>
</g>
<!-- Node59 -->
<g id="node11" class="node"><title>Node59</title>
<g id="a_node11"><a xlink:href="_setup__2015__01___pion_8cc.html" target="_top" xlink:title="src/expconfig/setups\l/Setup_2015_01_Pion.cc">
<polygon fill="white" stroke="black" points="128.5,-74 128.5,-104 253.5,-104 253.5,-74 128.5,-74"/>
<text text-anchor="start" x="136.5" y="-92" font-family="Helvetica,sans-Serif" font-size="10.00">src/expconfig/setups</text>
<text text-anchor="middle" x="191" y="-81" font-family="Helvetica,sans-Serif" font-size="10.00">/Setup_2015_01_Pion.cc</text>
</a>
</g>
</g>
<!-- Node49&#45;&gt;Node59 -->
<g id="edge29" class="edge"><title>Node49&#45;&gt;Node59</title>
<path fill="none" stroke="midnightblue" d="M1015.41,-295.858C867.116,-292.813 537.433,-282.083 431,-246 336.401,-213.929 242.399,-136.05 206.374,-104.067"/>
<polygon fill="midnightblue" stroke="midnightblue" points="1015.7,-299.364 1025.77,-296.064 1015.84,-292.366 1015.7,-299.364"/>
</g>
<!-- Node60 -->
<g id="node12" class="node"><title>Node60</title>
<g id="a_node12"><a xlink:href="_setup__2017__03_8cc.html" target="_top" xlink:title="src/expconfig/setups\l/Setup_2017_03.cc">
<polygon fill="white" stroke="black" points="877.5,-74 877.5,-104 984.5,-104 984.5,-74 877.5,-74"/>
<text text-anchor="start" x="885.5" y="-92" font-family="Helvetica,sans-Serif" font-size="10.00">src/expconfig/setups</text>
<text text-anchor="middle" x="931" y="-81" font-family="Helvetica,sans-Serif" font-size="10.00">/Setup_2017_03.cc</text>
</a>
</g>
</g>
<!-- Node49&#45;&gt;Node60 -->
<g id="edge30" class="edge"><title>Node49&#45;&gt;Node60</title>
<path fill="none" stroke="midnightblue" d="M1124.99,-277.901C1174.7,-249.117 1253.95,-192.985 1214,-146 1181.77,-108.092 1041.37,-121.671 993,-110 985.963,-108.302 978.57,-106.203 971.438,-104.01"/>
<polygon fill="midnightblue" stroke="midnightblue" points="1123.06,-274.972 1116.09,-282.949 1126.52,-281.061 1123.06,-274.972"/>
</g>
<!-- Node61 -->
<g id="node13" class="node"><title>Node61</title>
<g id="a_node13"><a xlink:href="_setup__2017__05_8cc.html" target="_top" xlink:title="src/expconfig/setups\l/Setup_2017_05.cc">
<polygon fill="white" stroke="black" points="1002.5,-74 1002.5,-104 1109.5,-104 1109.5,-74 1002.5,-74"/>
<text text-anchor="start" x="1010.5" y="-92" font-family="Helvetica,sans-Serif" font-size="10.00">src/expconfig/setups</text>
<text text-anchor="middle" x="1056" y="-81" font-family="Helvetica,sans-Serif" font-size="10.00">/Setup_2017_05.cc</text>
</a>
</g>
</g>
<!-- Node49&#45;&gt;Node61 -->
<g id="edge31" class="edge"><title>Node49&#45;&gt;Node61</title>
<path fill="none" stroke="midnightblue" d="M1162.28,-292.221C1193.98,-286.074 1228.27,-273.051 1248,-246 1274.19,-210.093 1274.87,-181.4 1248,-146 1212.01,-98.5896 1176.04,-127.008 1119,-110 1112.73,-108.131 1106.13,-106.103 1099.66,-104.079"/>
<polygon fill="midnightblue" stroke="midnightblue" points="1161.36,-288.828 1152.1,-293.984 1162.55,-295.726 1161.36,-288.828"/>
</g>
<!-- Node62 -->
<g id="node14" class="node"><title>Node62</title>
<g id="a_node14"><a xlink:href="_setup__2017_plus___new_tagger___base_8cc.html" target="_top" xlink:title="src/expconfig/setups\l/Setup_2017Plus_NewTagger\l_Base.cc">
<polygon fill="white" stroke="black" points="1274,-68.5 1274,-109.5 1420,-109.5 1420,-68.5 1274,-68.5"/>
<text text-anchor="start" x="1282" y="-97.5" font-family="Helvetica,sans-Serif" font-size="10.00">src/expconfig/setups</text>
<text text-anchor="start" x="1282" y="-86.5" font-family="Helvetica,sans-Serif" font-size="10.00">/Setup_2017Plus_NewTagger</text>
<text text-anchor="middle" x="1347" y="-75.5" font-family="Helvetica,sans-Serif" font-size="10.00">_Base.cc</text>
</a>
</g>
</g>
<!-- Node49&#45;&gt;Node62 -->
<g id="edge33" class="edge"><title>Node49&#45;&gt;Node62</title>
<path fill="none" stroke="midnightblue" d="M1162.07,-286.375C1212.82,-277.623 1274.67,-263.776 1294,-246 1333.48,-209.696 1343.56,-142.887 1346.13,-109.733"/>
<polygon fill="midnightblue" stroke="midnightblue" points="1161.36,-282.944 1152.08,-288.057 1162.52,-289.847 1161.36,-282.944"/>
</g>
<!-- Node63 -->
<g id="node15" class="node"><title>Node63</title>
<g id="a_node15"><a xlink:href="_setup___c_b_source_calib_8cc.html" target="_top" xlink:title="src/expconfig/setups\l/Setup_CBSourceCalib.cc">
<polygon fill="white" stroke="black" points="1438.5,-74 1438.5,-104 1569.5,-104 1569.5,-74 1438.5,-74"/>
<text text-anchor="start" x="1446.5" y="-92" font-family="Helvetica,sans-Serif" font-size="10.00">src/expconfig/setups</text>
<text text-anchor="middle" x="1504" y="-81" font-family="Helvetica,sans-Serif" font-size="10.00">/Setup_CBSourceCalib.cc</text>
</a>
</g>
</g>
<!-- Node49&#45;&gt;Node63 -->
<g id="edge35" class="edge"><title>Node49&#45;&gt;Node63</title>
<path fill="none" stroke="midnightblue" d="M1162.14,-290.039C1209.15,-283.391 1270.46,-270.559 1320,-246 1394.67,-208.981 1464.44,-135.25 1491.8,-104.252"/>
<polygon fill="midnightblue" stroke="midnightblue" points="1161.47,-286.597 1152.03,-291.405 1162.41,-293.534 1161.47,-286.597"/>
</g>
<!-- Node64 -->
<g id="node16" class="node"><title>Node64</title>
<g id="a_node16"><a xlink:href="expconfig__helpers_8cc.html" target="_top" xlink:title="test/expconfig_helpers.cc">
<polygon fill="white" stroke="black" points="1128,-79.5 1128,-98.5 1256,-98.5 1256,-79.5 1128,-79.5"/>
<text text-anchor="middle" x="1192" y="-86.5" font-family="Helvetica,sans-Serif" font-size="10.00">test/expconfig_helpers.cc</text>
</a>
</g>
</g>
<!-- Node49&#45;&gt;Node64 -->
<g id="edge36" class="edge"><title>Node49&#45;&gt;Node64</title>
<path fill="none" stroke="midnightblue" d="M1162.4,-285.645C1206.85,-277.101 1257.5,-263.806 1271,-246 1297.85,-210.586 1291.41,-185.482 1271,-146 1259.11,-123.001 1232.94,-107.407 1213.97,-98.6326"/>
<polygon fill="midnightblue" stroke="midnightblue" points="1161.63,-282.229 1152.44,-287.502 1162.91,-289.11 1161.63,-282.229"/>
</g>
<!-- Node66 -->
<g id="node18" class="node"><title>Node66</title>
<g id="a_node18"><a xlink:href="_setup__2017__12_8cc.html" target="_top" xlink:title="src/expconfig/setups\l/Setup_2017_12.cc">
<polygon fill="white" stroke="black" points="973.5,-147 973.5,-177 1080.5,-177 1080.5,-147 973.5,-147"/>
<text text-anchor="start" x="981.5" y="-165" font-family="Helvetica,sans-Serif" font-size="10.00">src/expconfig/setups</text>
<text text-anchor="middle" x="1027" y="-154" font-family="Helvetica,sans-Serif" font-size="10.00">/Setup_2017_12.cc</text>
</a>
</g>
</g>
<!-- Node49&#45;&gt;Node66 -->
<g id="edge32" class="edge"><title>Node49&#45;&gt;Node66</title>
<path fill="none" stroke="midnightblue" d="M1078.02,-273.261C1065.13,-245.412 1044.18,-200.141 1033.59,-177.237"/>
<polygon fill="midnightblue" stroke="midnightblue" points="1074.99,-275.054 1082.36,-282.66 1081.34,-272.114 1074.99,-275.054"/>
</g>
<!-- Node67 -->
<g id="node19" class="node"><title>Node67</title>
<g id="a_node19"><a xlink:href="_setup__2018__03_8cc.html" target="_top" xlink:title="src/expconfig/setups\l/Setup_2018_03.cc">
<polygon fill="white" stroke="black" points="1098.5,-147 1098.5,-177 1205.5,-177 1205.5,-147 1098.5,-147"/>
<text text-anchor="start" x="1106.5" y="-165" font-family="Helvetica,sans-Serif" font-size="10.00">src/expconfig/setups</text>
<text text-anchor="middle" x="1152" y="-154" font-family="Helvetica,sans-Serif" font-size="10.00">/Setup_2018_03.cc</text>
</a>
</g>
</g>
<!-- Node49&#45;&gt;Node67 -->
<g id="edge34" class="edge"><title>Node49&#45;&gt;Node67</title>
<path fill="none" stroke="midnightblue" d="M1100.16,-273.261C1113.25,-245.412 1134.54,-200.141 1145.31,-177.237"/>
<polygon fill="midnightblue" stroke="midnightblue" points="1096.83,-272.121 1095.74,-282.66 1103.16,-275.099 1096.83,-272.121"/>
</g>
<!-- Node51 -->
<g id="node3" class="node"><title>Node51</title>
<g id="a_node3"><a xlink:href="analysis_2physics_2calibration_2_time_8cc.html" target="_top" xlink:title="src/analysis/physics\l/calibration/Time.cc">
<polygon fill="white" stroke="black" points="591,-147 591,-177 697,-177 697,-147 591,-147"/>
<text text-anchor="start" x="599" y="-165" font-family="Helvetica,sans-Serif" font-size="10.00">src/analysis/physics</text>
<text text-anchor="middle" x="644" y="-154" font-family="Helvetica,sans-Serif" font-size="10.00">/calibration/Time.cc</text>
</a>
</g>
</g>
<!-- Node50&#45;&gt;Node51 -->
<g id="edge2" class="edge"><title>Node50&#45;&gt;Node51</title>
<path fill="none" stroke="midnightblue" d="M740.112,-210.339C718.708,-199.796 692.383,-186.83 672.699,-177.135"/>
<polygon fill="midnightblue" stroke="midnightblue" points="738.736,-213.563 749.254,-214.841 741.829,-207.283 738.736,-213.563"/>
</g>
<!-- Node52 -->
<g id="node4" class="node"><title>Node52</title>
<g id="a_node4"><a xlink:href="_c_a_t_c_h___t_d_c_8h.html" target="_top" xlink:title="src/calibration/converters\l/CATCH_TDC.h">
<polygon fill="white" stroke="black" points="715,-147 715,-177 841,-177 841,-147 715,-147"/>
<text text-anchor="start" x="723" y="-165" font-family="Helvetica,sans-Serif" font-size="10.00">src/calibration/converters</text>
<text text-anchor="middle" x="778" y="-154" font-family="Helvetica,sans-Serif" font-size="10.00">/CATCH_TDC.h</text>
</a>
</g>
</g>
<!-- Node50&#45;&gt;Node52 -->
<g id="edge3" class="edge"><title>Node50&#45;&gt;Node52</title>
<path fill="none" stroke="midnightblue" d="M778,-204.532C778,-195.361 778,-185.245 778,-177.293"/>
<polygon fill="midnightblue" stroke="midnightblue" points="774.5,-204.679 778,-214.679 781.5,-204.679 774.5,-204.679"/>
</g>
<!-- Node50&#45;&gt;Node56 -->
<g id="edge17" class="edge"><title>Node50&#45;&gt;Node56</title>
<path fill="none" stroke="midnightblue" d="M704.478,-223.306C616.464,-215.629 474.931,-200.3 427,-178 389.47,-160.539 355.773,-124.127 339.072,-104.046"/>
<polygon fill="midnightblue" stroke="midnightblue" points="704.409,-226.813 714.672,-224.182 705.008,-219.839 704.409,-226.813"/>
</g>
<!-- Node50&#45;&gt;Node57 -->
<g id="edge18" class="edge"><title>Node50&#45;&gt;Node57</title>
<path fill="none" stroke="midnightblue" d="M704.703,-228.733C615.25,-226.668 471.707,-217.14 438,-178 419.525,-156.547 440.16,-122.998 454.861,-104.125"/>
<polygon fill="midnightblue" stroke="midnightblue" points="704.726,-232.235 714.795,-228.94 704.869,-225.236 704.726,-232.235"/>
</g>
<!-- Node50&#45;&gt;Node58 -->
<g id="edge19" class="edge"><title>Node50&#45;&gt;Node58</title>
<path fill="none" stroke="midnightblue" d="M704.685,-226.807C609.402,-222.696 438.367,-210.998 296,-178 218.111,-159.947 130.964,-123.946 85.8346,-104.042"/>
<polygon fill="midnightblue" stroke="midnightblue" points="704.657,-230.309 714.794,-227.227 704.948,-223.315 704.657,-230.309"/>
</g>
<!-- Node50&#45;&gt;Node59 -->
<g id="edge20" class="edge"><title>Node50&#45;&gt;Node59</title>
<path fill="none" stroke="midnightblue" d="M704.814,-226.438C623.726,-222.046 489.785,-210.152 379,-178 316.876,-159.97 249.442,-123.96 214.688,-104.048"/>
<polygon fill="midnightblue" stroke="midnightblue" points="704.755,-229.939 714.922,-226.961 705.117,-222.949 704.755,-229.939"/>
</g>
<!-- Node50&#45;&gt;Node60 -->
<g id="edge21" class="edge"><title>Node50&#45;&gt;Node60</title>
<path fill="none" stroke="midnightblue" d="M808.643,-209.395C821.848,-200.424 837.17,-189.288 850,-178 876.97,-154.271 904.48,-122.426 919.483,-104.27"/>
<polygon fill="midnightblue" stroke="midnightblue" points="806.689,-206.492 800.319,-214.958 810.578,-212.312 806.689,-206.492"/>
</g>
<!-- Node50&#45;&gt;Node61 -->
<g id="edge22" class="edge"><title>Node50&#45;&gt;Node61</title>
<path fill="none" stroke="midnightblue" d="M817.339,-210.433C836.476,-201.123 859.679,-189.42 880,-178 903.328,-164.89 907.399,-158.612 931,-146 960.677,-130.141 995.736,-114.705 1021.16,-104.069"/>
<polygon fill="midnightblue" stroke="midnightblue" points="815.783,-207.297 808.302,-214.799 818.829,-213.6 815.783,-207.297"/>
</g>
<!-- Node50&#45;&gt;Node64 -->
<g id="edge25" class="edge"><title>Node50&#45;&gt;Node64</title>
<path fill="none" stroke="midnightblue" d="M837.512,-211.81C863.557,-203.236 894.031,-191.745 920,-178 941.371,-166.688 942.013,-156.063 964,-146 1027.91,-116.748 1049.84,-127.172 1118,-110 1132.32,-106.391 1148.14,-102.152 1161.46,-98.5071"/>
<polygon fill="midnightblue" stroke="midnightblue" points="836.209,-208.553 827.765,-214.952 838.357,-215.215 836.209,-208.553"/>
</g>
<!-- Node65 -->
<g id="node17" class="node"><title>Node65</title>
<g id="a_node17"><a xlink:href="_multi_hit_reference_8cc.html" target="_top" xlink:title="src/calibration/converters\l/MultiHitReference.cc">
<polygon fill="white" stroke="black" points="447,-147 447,-177 573,-177 573,-147 447,-147"/>
<text text-anchor="start" x="455" y="-165" font-family="Helvetica,sans-Serif" font-size="10.00">src/calibration/converters</text>
<text text-anchor="middle" x="510" y="-154" font-family="Helvetica,sans-Serif" font-size="10.00">/MultiHitReference.cc</text>
</a>
</g>
</g>
<!-- Node50&#45;&gt;Node65 -->
<g id="edge16" class="edge"><title>Node50&#45;&gt;Node65</title>
<path fill="none" stroke="midnightblue" d="M711.019,-212.505C666.703,-201.591 609.216,-187.434 567.076,-177.056"/>
<polygon fill="midnightblue" stroke="midnightblue" points="710.289,-215.929 720.836,-214.922 711.963,-209.133 710.289,-215.929"/>
</g>
<!-- Node50&#45;&gt;Node66 -->
<g id="edge23" class="edge"><title>Node50&#45;&gt;Node66</title>
<path fill="none" stroke="midnightblue" d="M841.012,-212.298C882.079,-201.413 935.065,-187.368 973.97,-177.056"/>
<polygon fill="midnightblue" stroke="midnightblue" points="839.881,-208.977 831.111,-214.922 841.674,-215.743 839.881,-208.977"/>
</g>
<!-- Node50&#45;&gt;Node67 -->
<g id="edge24" class="edge"><title>Node50&#45;&gt;Node67</title>
<path fill="none" stroke="midnightblue" d="M851.344,-218.479C914.535,-209.056 1008.08,-194.247 1089,-178 1092.09,-177.38 1095.25,-176.717 1098.44,-176.026"/>
<polygon fill="midnightblue" stroke="midnightblue" points="850.458,-215.072 841.081,-220.002 851.486,-221.996 850.458,-215.072"/>
</g>
<!-- Node53 -->
<g id="node5" class="node"><title>Node53</title>
<g id="a_node5"><a xlink:href="analysis_2physics_2calibration_2_c_b___source_calib_8h.html" target="_top" xlink:title="src/analysis/physics\l/calibration/CB_SourceCalib.h">
<polygon fill="white" stroke="black" points="711,-74 711,-104 859,-104 859,-74 711,-74"/>
<text text-anchor="start" x="719" y="-92" font-family="Helvetica,sans-Serif" font-size="10.00">src/analysis/physics</text>
<text text-anchor="middle" x="785" y="-81" font-family="Helvetica,sans-Serif" font-size="10.00">/calibration/CB_SourceCalib.h</text>
</a>
</g>
</g>
<!-- Node52&#45;&gt;Node53 -->
<g id="edge4" class="edge"><title>Node52&#45;&gt;Node53</title>
<path fill="none" stroke="midnightblue" d="M780.376,-136.898C781.438,-126.131 782.653,-113.801 783.572,-104.486"/>
<polygon fill="midnightblue" stroke="midnightblue" points="776.881,-136.677 779.383,-146.973 783.847,-137.364 776.881,-136.677"/>
</g>
<!-- Node55 -->
<g id="node7" class="node"><title>Node55</title>
<g id="a_node7"><a xlink:href="analysis_2physics_2calibration_2_c_b___time_walk_8cc.html" target="_top" xlink:title="src/analysis/physics\l/calibration/CB_TimeWalk.cc">
<polygon fill="white" stroke="black" points="549,-74 549,-104 693,-104 693,-74 549,-74"/>
<text text-anchor="start" x="557" y="-92" font-family="Helvetica,sans-Serif" font-size="10.00">src/analysis/physics</text>
<text text-anchor="middle" x="621" y="-81" font-family="Helvetica,sans-Serif" font-size="10.00">/calibration/CB_TimeWalk.cc</text>
</a>
</g>
</g>
<!-- Node52&#45;&gt;Node55 -->
<g id="edge6" class="edge"><title>Node52&#45;&gt;Node55</title>
<path fill="none" stroke="midnightblue" d="M737.567,-142.715C710.982,-130.692 676.711,-115.194 652.222,-104.12"/>
<polygon fill="midnightblue" stroke="midnightblue" points="736.428,-146.041 746.982,-146.973 739.312,-139.663 736.428,-146.041"/>
</g>
<!-- Node52&#45;&gt;Node56 -->
<g id="edge7" class="edge"><title>Node52&#45;&gt;Node56</title>
<path fill="none" stroke="midnightblue" d="M704.586,-146.049C565.803,-124.623 527.046,-137.627 394,-110 386.263,-108.393 378.128,-106.286 370.316,-104.042"/>
<polygon fill="midnightblue" stroke="midnightblue" points="704.331,-149.552 714.754,-147.652 705.421,-142.637 704.331,-149.552"/>
</g>
<!-- Node52&#45;&gt;Node57 -->
<g id="edge8" class="edge"><title>Node52&#45;&gt;Node57</title>
<path fill="none" stroke="midnightblue" d="M705.019,-145.832C647.038,-133.693 570.756,-117.502 540,-110 532.468,-108.163 524.53,-106.11 516.774,-104.039"/>
<polygon fill="midnightblue" stroke="midnightblue" points="704.382,-149.274 714.886,-147.895 705.815,-142.422 704.382,-149.274"/>
</g>
<!-- Node52&#45;&gt;Node58 -->
<g id="edge9" class="edge"><title>Node52&#45;&gt;Node58</title>
<path fill="none" stroke="midnightblue" d="M704.656,-146.117C444.509,-112.797 372.362,-156.659 119,-110 111.101,-108.545 102.81,-106.422 94.913,-104.096"/>
<polygon fill="midnightblue" stroke="midnightblue" points="704.416,-149.616 714.785,-147.441 705.323,-142.675 704.416,-149.616"/>
</g>
<!-- Node52&#45;&gt;Node59 -->
<g id="edge10" class="edge"><title>Node52&#45;&gt;Node59</title>
<path fill="none" stroke="midnightblue" d="M704.673,-146.098C507.647,-118.944 453.195,-144.363 262,-110 253.429,-108.46 244.402,-106.326 235.766,-104.024"/>
<polygon fill="midnightblue" stroke="midnightblue" points="704.384,-149.592 714.774,-147.518 705.359,-142.66 704.384,-149.592"/>
</g>
<!-- Node52&#45;&gt;Node60 -->
<g id="edge11" class="edge"><title>Node52&#45;&gt;Node60</title>
<path fill="none" stroke="midnightblue" d="M817.403,-142.715C843.311,-130.692 876.709,-115.194 900.573,-104.12"/>
<polygon fill="midnightblue" stroke="midnightblue" points="815.825,-139.588 808.228,-146.973 818.772,-145.938 815.825,-139.588"/>
</g>
<!-- Node52&#45;&gt;Node61 -->
<g id="edge12" class="edge"><title>Node52&#45;&gt;Node61</title>
<path fill="none" stroke="midnightblue" d="M851.158,-145.068C892.908,-135.622 946.109,-122.985 993,-110 999.525,-108.193 1006.39,-106.157 1013.09,-104.093"/>
<polygon fill="midnightblue" stroke="midnightblue" points="850.334,-141.666 841.347,-147.277 851.872,-148.495 850.334,-141.666"/>
</g>
<!-- Node52&#45;&gt;Node62 -->
<g id="edge13" class="edge"><title>Node52&#45;&gt;Node62</title>
<path fill="none" stroke="midnightblue" d="M851.419,-154.536C967.313,-144.126 1187.45,-123.454 1265,-110 1267.89,-109.499 1270.82,-108.954 1273.79,-108.376"/>
<polygon fill="midnightblue" stroke="midnightblue" points="850.865,-151.072 841.217,-155.451 851.489,-158.044 850.865,-151.072"/>
</g>
<!-- Node52&#45;&gt;Node63 -->
<g id="edge14" class="edge"><title>Node52&#45;&gt;Node63</title>
<path fill="none" stroke="midnightblue" d="M851.64,-155.007C885.812,-152.24 926.976,-148.926 964,-146 1170.64,-129.669 1224.67,-144.851 1429,-110 1438.03,-108.459 1447.56,-106.326 1456.68,-104.024"/>
<polygon fill="midnightblue" stroke="midnightblue" points="850.956,-151.55 841.272,-155.847 851.522,-158.528 850.956,-151.55"/>
</g>
<!-- Node52&#45;&gt;Node64 -->
<g id="edge15" class="edge"><title>Node52&#45;&gt;Node64</title>
<path fill="none" stroke="midnightblue" d="M851.4,-152.469C920.555,-143.847 1026.87,-129.084 1118,-110 1133.11,-106.836 1149.72,-102.433 1163.37,-98.5632"/>
<polygon fill="midnightblue" stroke="midnightblue" points="850.546,-149.048 841.05,-153.748 851.404,-155.995 850.546,-149.048"/>
</g>
<!-- Node54 -->
<g id="node6" class="node"><title>Node54</title>
<g id="a_node6"><a xlink:href="analysis_2physics_2calibration_2_c_b___source_calib_8cc.html" target="_top" xlink:title="src/analysis/physics\l/calibration/CB_SourceCalib.cc">
<polygon fill="white" stroke="black" points="708.5,-1 708.5,-31 861.5,-31 861.5,-1 708.5,-1"/>
<text text-anchor="start" x="716.5" y="-19" font-family="Helvetica,sans-Serif" font-size="10.00">src/analysis/physics</text>
<text text-anchor="middle" x="785" y="-8" font-family="Helvetica,sans-Serif" font-size="10.00">/calibration/CB_SourceCalib.cc</text>
</a>
</g>
</g>
<!-- Node53&#45;&gt;Node54 -->
<g id="edge5" class="edge"><title>Node53&#45;&gt;Node54</title>
<path fill="none" stroke="midnightblue" d="M785,-63.8976C785,-53.1314 785,-40.8005 785,-31.4856"/>
<polygon fill="midnightblue" stroke="midnightblue" points="781.5,-63.9727 785,-73.9727 788.5,-63.9727 781.5,-63.9727"/>
</g>
</g>
</svg>
