<?xml version="1.0" encoding="UTF-8" standalone="no"?>
<!DOCTYPE svg PUBLIC "-//W3C//DTD SVG 1.1//EN"
 "http://www.w3.org/Graphics/SVG/1.1/DTD/svg11.dtd">
<!-- Generated by graphviz version 2.36.0 (20140111.2315)
 -->
<!-- Title: src/calibration/converters/MultiHitReference.h Pages: 1 -->
<svg width="1577pt" height="254pt"
 viewBox="0.00 0.00 1577.00 254.00" xmlns="http://www.w3.org/2000/svg" xmlns:xlink="http://www.w3.org/1999/xlink">
<g id="graph0" class="graph" transform="scale(1 1) rotate(0) translate(4 250)">
<title>src/calibration/converters/MultiHitReference.h</title>
<polygon fill="white" stroke="none" points="-4,4 -4,-250 1573,-250 1573,4 -4,4"/>
<!-- Node51 -->
<g id="node1" class="node"><title>Node51</title>
<polygon fill="#bfbfbf" stroke="black" points="923,-215 923,-245 1049,-245 1049,-215 923,-215"/>
<text text-anchor="start" x="931" y="-233" font-family="Helvetica,sans-Serif" font-size="10.00">src/calibration/converters</text>
<text text-anchor="middle" x="986" y="-222" font-family="Helvetica,sans-Serif" font-size="10.00">/MultiHitReference.h</text>
</g>
<!-- Node52 -->
<g id="node2" class="node"><title>Node52</title>
<g id="a_node2"><a xlink:href="analysis_2physics_2calibration_2_time_8cc.html" target="_top" xlink:title="src/analysis/physics\l/calibration/Time.cc">
<polygon fill="white" stroke="black" points="575,-147 575,-177 681,-177 681,-147 575,-147"/>
<text text-anchor="start" x="583" y="-165" font-family="Helvetica,sans-Serif" font-size="10.00">src/analysis/physics</text>
<text text-anchor="middle" x="628" y="-154" font-family="Helvetica,sans-Serif" font-size="10.00">/calibration/Time.cc</text>
</a>
</g>
</g>
<!-- Node51&#45;&gt;Node52 -->
<g id="edge1" class="edge"><title>Node51&#45;&gt;Node52</title>
<path fill="none" stroke="midnightblue" d="M912.868,-217.156C853.912,-207.374 768.939,-192.748 695,-178 690.558,-177.114 685.958,-176.161 681.346,-175.179"/>
<polygon fill="midnightblue" stroke="midnightblue" points="912.395,-220.625 922.832,-218.804 913.537,-213.719 912.395,-220.625"/>
</g>
<!-- Node53 -->
<g id="node3" class="node"><title>Node53</title>
<g id="a_node3"><a xlink:href="_c_a_t_c_h___t_d_c_8h.html" target="_top" xlink:title="src/calibration/converters\l/CATCH_TDC.h">
<polygon fill="white" stroke="black" points="813,-147 813,-177 939,-177 939,-147 813,-147"/>
<text text-anchor="start" x="821" y="-165" font-family="Helvetica,sans-Serif" font-size="10.00">src/calibration/converters</text>
<text text-anchor="middle" x="876" y="-154" font-family="Helvetica,sans-Serif" font-size="10.00">/CATCH_TDC.h</text>
</a>
</g>
</g>
<!-- Node51&#45;&gt;Node53 -->
<g id="edge2" class="edge"><title>Node51&#45;&gt;Node53</title>
<path fill="none" stroke="midnightblue" d="M953.71,-209.626C936.361,-199.217 915.355,-186.613 899.559,-177.135"/>
<polygon fill="midnightblue" stroke="midnightblue" points="952.027,-212.698 962.402,-214.841 955.628,-206.695 952.027,-212.698"/>
</g>
<!-- Node57 -->
<g id="node7" class="node"><title>Node57</title>
<g id="a_node7"><a xlink:href="_setup__2007___base_8cc.html" target="_top" xlink:title="src/expconfig/setups\l/Setup_2007_Base.cc">
<polygon fill="white" stroke="black" points="-0.5,-74 -0.5,-104 112.5,-104 112.5,-74 -0.5,-74"/>
<text text-anchor="start" x="7.5" y="-92" font-family="Helvetica,sans-Serif" font-size="10.00">src/expconfig/setups</text>
<text text-anchor="middle" x="56" y="-81" font-family="Helvetica,sans-Serif" font-size="10.00">/Setup_2007_Base.cc</text>
</a>
</g>
</g>
<!-- Node51&#45;&gt;Node57 -->
<g id="edge16" class="edge"><title>Node51&#45;&gt;Node57</title>
<path fill="none" stroke="midnightblue" d="M912.759,-225.742C857.917,-220.776 782.431,-208.438 723,-178 704.53,-168.541 708.038,-154.258 689,-146 573.173,-95.7603 246.24,-132.457 122,-110 113.87,-108.531 105.329,-106.4 97.1871,-104.072"/>
<polygon fill="midnightblue" stroke="midnightblue" points="912.492,-229.232 922.751,-226.587 913.081,-222.257 912.492,-229.232"/>
</g>
<!-- Node58 -->
<g id="node8" class="node"><title>Node58</title>
<g id="a_node8"><a xlink:href="_setup__2010__03___base_8cc.html" target="_top" xlink:title="src/expconfig/setups\l/Setup_2010_03_Base.cc">
<polygon fill="white" stroke="black" points="131,-74 131,-104 259,-104 259,-74 131,-74"/>
<text text-anchor="start" x="139" y="-92" font-family="Helvetica,sans-Serif" font-size="10.00">src/expconfig/setups</text>
<text text-anchor="middle" x="195" y="-81" font-family="Helvetica,sans-Serif" font-size="10.00">/Setup_2010_03_Base.cc</text>
</a>
</g>
</g>
<!-- Node51&#45;&gt;Node58 -->
<g id="edge17" class="edge"><title>Node51&#45;&gt;Node58</title>
<path fill="none" stroke="midnightblue" d="M912.589,-221.337C867.108,-214.455 808.514,-201.624 761,-178 741.229,-168.17 743.426,-154.383 723,-146 629.167,-107.493 367.91,-127.478 268,-110 259.198,-108.46 249.921,-106.327 241.043,-104.025"/>
<polygon fill="midnightblue" stroke="midnightblue" points="912.274,-224.828 922.673,-222.799 913.278,-217.901 912.274,-224.828"/>
</g>
<!-- Node59 -->
<g id="node9" class="node"><title>Node59</title>
<g id="a_node9"><a xlink:href="_setup__2014___e_p_t_8cc.html" target="_top" xlink:title="src/expconfig/setups\l/Setup_2014_EPT.cc">
<polygon fill="white" stroke="black" points="277,-74 277,-104 387,-104 387,-74 277,-74"/>
<text text-anchor="start" x="285" y="-92" font-family="Helvetica,sans-Serif" font-size="10.00">src/expconfig/setups</text>
<text text-anchor="middle" x="332" y="-81" font-family="Helvetica,sans-Serif" font-size="10.00">/Setup_2014_EPT.cc</text>
</a>
</g>
</g>
<!-- Node51&#45;&gt;Node59 -->
<g id="edge18" class="edge"><title>Node51&#45;&gt;Node59</title>
<path fill="none" stroke="midnightblue" d="M912.935,-214.988C878.77,-206.833 838.18,-194.785 804,-178 782.617,-167.499 783.219,-154.593 761,-146 608.965,-87.1991 555.741,-142.481 396,-110 388.357,-108.446 380.331,-106.335 372.645,-104.066"/>
<polygon fill="midnightblue" stroke="midnightblue" points="912.32,-218.439 922.853,-217.291 913.903,-211.62 912.32,-218.439"/>
</g>
<!-- Node60 -->
<g id="node10" class="node"><title>Node60</title>
<g id="a_node10"><a xlink:href="_setup__2015__01___pion_8cc.html" target="_top" xlink:title="src/expconfig/setups\l/Setup_2015_01_Pion.cc">
<polygon fill="white" stroke="black" points="1047.5,-74 1047.5,-104 1172.5,-104 1172.5,-74 1047.5,-74"/>
<text text-anchor="start" x="1055.5" y="-92" font-family="Helvetica,sans-Serif" font-size="10.00">src/expconfig/setups</text>
<text text-anchor="middle" x="1110" y="-81" font-family="Helvetica,sans-Serif" font-size="10.00">/Setup_2015_01_Pion.cc</text>
</a>
</g>
</g>
<!-- Node51&#45;&gt;Node60 -->
<g id="edge19" class="edge"><title>Node51&#45;&gt;Node60</title>
<path fill="none" stroke="midnightblue" d="M981.298,-204.791C979.216,-187.021 979.411,-163.102 991,-146 1000.48,-132.013 1038.77,-115.481 1069.39,-104.023"/>
<polygon fill="midnightblue" stroke="midnightblue" points="977.838,-205.314 982.763,-214.695 984.762,-204.29 977.838,-205.314"/>
</g>
<!-- Node61 -->
<g id="node11" class="node"><title>Node61</title>
<g id="a_node11"><a xlink:href="_setup__2017__03_8cc.html" target="_top" xlink:title="src/expconfig/setups\l/Setup_2017_03.cc">
<polygon fill="white" stroke="black" points="1190.5,-74 1190.5,-104 1297.5,-104 1297.5,-74 1190.5,-74"/>
<text text-anchor="start" x="1198.5" y="-92" font-family="Helvetica,sans-Serif" font-size="10.00">src/expconfig/setups</text>
<text text-anchor="middle" x="1244" y="-81" font-family="Helvetica,sans-Serif" font-size="10.00">/Setup_2017_03.cc</text>
</a>
</g>
</g>
<!-- Node51&#45;&gt;Node61 -->
<g id="edge20" class="edge"><title>Node51&#45;&gt;Node61</title>
<path fill="none" stroke="midnightblue" d="M992.329,-205.228C998.575,-186.381 1010,-160.827 1029,-146 1083.73,-103.288 1114.09,-128.516 1181,-110 1187.53,-108.194 1194.39,-106.159 1201.09,-104.095"/>
<polygon fill="midnightblue" stroke="midnightblue" points="988.949,-204.311 989.376,-214.898 995.644,-206.356 988.949,-204.311"/>
</g>
<!-- Node62 -->
<g id="node12" class="node"><title>Node62</title>
<g id="a_node12"><a xlink:href="_setup__2017__05_8cc.html" target="_top" xlink:title="src/expconfig/setups\l/Setup_2017_05.cc">
<polygon fill="white" stroke="black" points="1315.5,-74 1315.5,-104 1422.5,-104 1422.5,-74 1315.5,-74"/>
<text text-anchor="start" x="1323.5" y="-92" font-family="Helvetica,sans-Serif" font-size="10.00">src/expconfig/setups</text>
<text text-anchor="middle" x="1369" y="-81" font-family="Helvetica,sans-Serif" font-size="10.00">/Setup_2017_05.cc</text>
</a>
</g>
</g>
<!-- Node51&#45;&gt;Node62 -->
<g id="edge21" class="edge"><title>Node51&#45;&gt;Node62</title>
<path fill="none" stroke="midnightblue" d="M1004.53,-207.054C1023.56,-185.08 1052.4,-153.483 1067,-146 1162.6,-97.0112 1201.37,-134.327 1306,-110 1313.15,-108.337 1320.67,-106.255 1327.92,-104.068"/>
<polygon fill="midnightblue" stroke="midnightblue" points="1001.86,-204.784 998.003,-214.651 1007.17,-209.344 1001.86,-204.784"/>
</g>
<!-- Node65 -->
<g id="node15" class="node"><title>Node65</title>
<g id="a_node15"><a xlink:href="expconfig__helpers_8cc.html" target="_top" xlink:title="test/expconfig_helpers.cc">
<polygon fill="white" stroke="black" points="1441,-79.5 1441,-98.5 1569,-98.5 1569,-79.5 1441,-79.5"/>
<text text-anchor="middle" x="1505" y="-86.5" font-family="Helvetica,sans-Serif" font-size="10.00">test/expconfig_helpers.cc</text>
</a>
</g>
</g>
<!-- Node51&#45;&gt;Node65 -->
<g id="edge24" class="edge"><title>Node51&#45;&gt;Node65</title>
<path fill="none" stroke="midnightblue" d="M1017.55,-209.399C1031.74,-200.261 1048.51,-188.995 1063,-178 1080.32,-164.859 1080.07,-154.68 1100,-146 1235.67,-86.9196 1285.58,-137.387 1431,-110 1446.56,-107.069 1463.65,-102.541 1477.48,-98.5347"/>
<polygon fill="midnightblue" stroke="midnightblue" points="1015.65,-206.463 1009.1,-214.792 1019.41,-212.364 1015.65,-206.463"/>
</g>
<!-- Node66 -->
<g id="node16" class="node"><title>Node66</title>
<g id="a_node16"><a xlink:href="_multi_hit_reference_8cc.html" target="_top" xlink:title="src/calibration/converters\l/MultiHitReference.cc">
<polygon fill="white" stroke="black" points="1109,-147 1109,-177 1235,-177 1235,-147 1109,-147"/>
<text text-anchor="start" x="1117" y="-165" font-family="Helvetica,sans-Serif" font-size="10.00">src/calibration/converters</text>
<text text-anchor="middle" x="1172" y="-154" font-family="Helvetica,sans-Serif" font-size="10.00">/MultiHitReference.cc</text>
</a>
</g>
</g>
<!-- Node51&#45;&gt;Node66 -->
<g id="edge15" class="edge"><title>Node51&#45;&gt;Node66</title>
<path fill="none" stroke="midnightblue" d="M1035.45,-211.452C1065.81,-200.68 1104.16,-187.072 1132.48,-177.022"/>
<polygon fill="midnightblue" stroke="midnightblue" points="1034.16,-208.199 1025.9,-214.841 1036.5,-214.796 1034.16,-208.199"/>
</g>
<!-- Node67 -->
<g id="node17" class="node"><title>Node67</title>
<g id="a_node17"><a xlink:href="_setup__2017__12_8cc.html" target="_top" xlink:title="src/expconfig/setups\l/Setup_2017_12.cc">
<polygon fill="white" stroke="black" points="1253.5,-147 1253.5,-177 1360.5,-177 1360.5,-147 1253.5,-147"/>
<text text-anchor="start" x="1261.5" y="-165" font-family="Helvetica,sans-Serif" font-size="10.00">src/expconfig/setups</text>
<text text-anchor="middle" x="1307" y="-154" font-family="Helvetica,sans-Serif" font-size="10.00">/Setup_2017_12.cc</text>
</a>
</g>
</g>
<!-- Node51&#45;&gt;Node67 -->
<g id="edge22" class="edge"><title>Node51&#45;&gt;Node67</title>
<path fill="none" stroke="midnightblue" d="M1059.31,-215.289C1111.03,-205.425 1181.89,-191.527 1244,-178 1247.08,-177.33 1250.23,-176.627 1253.42,-175.907"/>
<polygon fill="midnightblue" stroke="midnightblue" points="1058.4,-211.899 1049.23,-217.207 1059.71,-218.776 1058.4,-211.899"/>
</g>
<!-- Node68 -->
<g id="node18" class="node"><title>Node68</title>
<g id="a_node18"><a xlink:href="_setup__2018__03_8cc.html" target="_top" xlink:title="src/expconfig/setups\l/Setup_2018_03.cc">
<polygon fill="white" stroke="black" points="1378.5,-147 1378.5,-177 1485.5,-177 1485.5,-147 1378.5,-147"/>
<text text-anchor="start" x="1386.5" y="-165" font-family="Helvetica,sans-Serif" font-size="10.00">src/expconfig/setups</text>
<text text-anchor="middle" x="1432" y="-154" font-family="Helvetica,sans-Serif" font-size="10.00">/Setup_2018_03.cc</text>
</a>
</g>
</g>
<!-- Node51&#45;&gt;Node68 -->
<g id="edge23" class="edge"><title>Node51&#45;&gt;Node68</title>
<path fill="none" stroke="midnightblue" d="M1059.12,-221.494C1136.45,-213.036 1261.85,-197.838 1369,-178 1372.1,-177.427 1375.27,-176.8 1378.46,-176.137"/>
<polygon fill="midnightblue" stroke="midnightblue" points="1058.57,-218.034 1049,-222.592 1059.32,-224.993 1058.57,-218.034"/>
</g>
<!-- Node54 -->
<g id="node4" class="node"><title>Node54</title>
<g id="a_node4"><a xlink:href="analysis_2physics_2calibration_2_c_b___source_calib_8h.html" target="_top" xlink:title="src/analysis/physics\l/calibration/CB_SourceCalib.h">
<polygon fill="white" stroke="black" points="881,-74 881,-104 1029,-104 1029,-74 881,-74"/>
<text text-anchor="start" x="889" y="-92" font-family="Helvetica,sans-Serif" font-size="10.00">src/analysis/physics</text>
<text text-anchor="middle" x="955" y="-81" font-family="Helvetica,sans-Serif" font-size="10.00">/calibration/CB_SourceCalib.h</text>
</a>
</g>
</g>
<!-- Node53&#45;&gt;Node54 -->
<g id="edge3" class="edge"><title>Node53&#45;&gt;Node54</title>
<path fill="none" stroke="midnightblue" d="M899.189,-140.159C912.047,-128.604 927.701,-114.535 939.154,-104.241"/>
<polygon fill="midnightblue" stroke="midnightblue" points="896.706,-137.685 891.608,-146.973 901.385,-142.891 896.706,-137.685"/>
</g>
<!-- Node56 -->
<g id="node6" class="node"><title>Node56</title>
<g id="a_node6"><a xlink:href="analysis_2physics_2calibration_2_c_b___time_walk_8cc.html" target="_top" xlink:title="src/analysis/physics\l/calibration/CB_TimeWalk.cc">
<polygon fill="white" stroke="black" points="405,-74 405,-104 549,-104 549,-74 405,-74"/>
<text text-anchor="start" x="413" y="-92" font-family="Helvetica,sans-Serif" font-size="10.00">src/analysis/physics</text>
<text text-anchor="middle" x="477" y="-81" font-family="Helvetica,sans-Serif" font-size="10.00">/calibration/CB_TimeWalk.cc</text>
</a>
</g>
</g>
<!-- Node53&#45;&gt;Node56 -->
<g id="edge5" class="edge"><title>Node53&#45;&gt;Node56</title>
<path fill="none" stroke="midnightblue" d="M802.346,-146.581C801.223,-146.384 800.107,-146.19 799,-146 692.268,-127.642 664.243,-131.004 558,-110 549.19,-108.258 539.896,-106.187 530.87,-104.048"/>
<polygon fill="midnightblue" stroke="midnightblue" points="802.131,-150.098 812.592,-148.418 803.366,-143.208 802.131,-150.098"/>
</g>
<!-- Node53&#45;&gt;Node57 -->
<g id="edge6" class="edge"><title>Node53&#45;&gt;Node57</title>
<path fill="none" stroke="midnightblue" d="M802.553,-153.23C777.351,-150.715 748.957,-148.049 723,-146 456.24,-124.942 385.408,-157.125 122,-110 113.868,-108.545 105.325,-106.422 97.1829,-104.095"/>
<polygon fill="midnightblue" stroke="midnightblue" points="802.474,-156.739 812.774,-154.259 803.175,-149.774 802.474,-156.739"/>
</g>
<!-- Node53&#45;&gt;Node58 -->
<g id="edge7" class="edge"><title>Node53&#45;&gt;Node58</title>
<path fill="none" stroke="midnightblue" d="M802.819,-150.821C788.947,-149.071 774.54,-147.376 761,-146 542.432,-123.783 484.522,-147.201 268,-110 259.193,-108.487 249.915,-106.367 241.036,-104.068"/>
<polygon fill="midnightblue" stroke="midnightblue" points="802.442,-154.302 812.806,-152.101 803.332,-147.358 802.442,-154.302"/>
</g>
<!-- Node53&#45;&gt;Node59 -->
<g id="edge8" class="edge"><title>Node53&#45;&gt;Node59</title>
<path fill="none" stroke="midnightblue" d="M802.361,-146.489C801.233,-146.321 800.112,-146.158 799,-146 620.954,-120.774 572.382,-145.018 396,-110 388.236,-108.458 380.08,-106.325 372.29,-104.022"/>
<polygon fill="midnightblue" stroke="midnightblue" points="802.214,-150.009 812.639,-148.119 803.31,-143.095 802.214,-150.009"/>
</g>
<!-- Node53&#45;&gt;Node60 -->
<g id="edge9" class="edge"><title>Node53&#45;&gt;Node60</title>
<path fill="none" stroke="midnightblue" d="M931.88,-144.045C972.058,-131.854 1025.61,-115.607 1063.47,-104.12"/>
<polygon fill="midnightblue" stroke="midnightblue" points="930.784,-140.72 922.231,-146.973 932.816,-147.418 930.784,-140.72"/>
</g>
<!-- Node53&#45;&gt;Node61 -->
<g id="edge10" class="edge"><title>Node53&#45;&gt;Node61</title>
<path fill="none" stroke="midnightblue" d="M949.128,-151.74C1011.28,-143.164 1102.64,-128.889 1181,-110 1188.03,-108.306 1195.41,-106.234 1202.55,-104.074"/>
<polygon fill="midnightblue" stroke="midnightblue" points="948.461,-148.299 939.027,-153.119 949.408,-155.234 948.461,-148.299"/>
</g>
<!-- Node53&#45;&gt;Node62 -->
<g id="edge11" class="edge"><title>Node53&#45;&gt;Node62</title>
<path fill="none" stroke="midnightblue" d="M949.275,-154.003C1053.64,-143.748 1239.78,-124.304 1306,-110 1313.4,-108.401 1321.18,-106.297 1328.64,-104.055"/>
<polygon fill="midnightblue" stroke="midnightblue" points="948.74,-150.539 939.129,-154.997 949.423,-157.506 948.74,-150.539"/>
</g>
<!-- Node63 -->
<g id="node13" class="node"><title>Node63</title>
<g id="a_node13"><a xlink:href="_setup__2017_plus___new_tagger___base_8cc.html" target="_top" xlink:title="src/expconfig/setups\l/Setup_2017Plus_NewTagger\l_Base.cc">
<polygon fill="white" stroke="black" points="567,-68.5 567,-109.5 713,-109.5 713,-68.5 567,-68.5"/>
<text text-anchor="start" x="575" y="-97.5" font-family="Helvetica,sans-Serif" font-size="10.00">src/expconfig/setups</text>
<text text-anchor="start" x="575" y="-86.5" font-family="Helvetica,sans-Serif" font-size="10.00">/Setup_2017Plus_NewTagger</text>
<text text-anchor="middle" x="640" y="-75.5" font-family="Helvetica,sans-Serif" font-size="10.00">_Base.cc</text>
</a>
</g>
</g>
<!-- Node53&#45;&gt;Node63 -->
<g id="edge12" class="edge"><title>Node53&#45;&gt;Node63</title>
<path fill="none" stroke="midnightblue" d="M819.46,-143.99C784.966,-133.613 740.752,-120.311 704.842,-109.507"/>
<polygon fill="midnightblue" stroke="midnightblue" points="818.79,-147.443 829.374,-146.973 820.806,-140.74 818.79,-147.443"/>
</g>
<!-- Node64 -->
<g id="node14" class="node"><title>Node64</title>
<g id="a_node14"><a xlink:href="_setup___c_b_source_calib_8cc.html" target="_top" xlink:title="src/expconfig/setups\l/Setup_CBSourceCalib.cc">
<polygon fill="white" stroke="black" points="731.5,-74 731.5,-104 862.5,-104 862.5,-74 731.5,-74"/>
<text text-anchor="start" x="739.5" y="-92" font-family="Helvetica,sans-Serif" font-size="10.00">src/expconfig/setups</text>
<text text-anchor="middle" x="797" y="-81" font-family="Helvetica,sans-Serif" font-size="10.00">/Setup_CBSourceCalib.cc</text>
</a>
</g>
</g>
<!-- Node53&#45;&gt;Node64 -->
<g id="edge13" class="edge"><title>Node53&#45;&gt;Node64</title>
<path fill="none" stroke="midnightblue" d="M852.811,-140.159C839.953,-128.604 824.299,-114.535 812.846,-104.241"/>
<polygon fill="midnightblue" stroke="midnightblue" points="850.615,-142.891 860.392,-146.973 855.294,-137.685 850.615,-142.891"/>
</g>
<!-- Node53&#45;&gt;Node65 -->
<g id="edge14" class="edge"><title>Node53&#45;&gt;Node65</title>
<path fill="none" stroke="midnightblue" d="M949.458,-154.961C1089.47,-143.345 1384.78,-118.306 1431,-110 1446.72,-107.176 1463.96,-102.604 1477.84,-98.5448"/>
<polygon fill="midnightblue" stroke="midnightblue" points="948.921,-151.493 939.245,-155.807 949.499,-158.469 948.921,-151.493"/>
</g>
<!-- Node55 -->
<g id="node5" class="node"><title>Node55</title>
<g id="a_node5"><a xlink:href="analysis_2physics_2calibration_2_c_b___source_calib_8cc.html" target="_top" xlink:title="src/analysis/physics\l/calibration/CB_SourceCalib.cc">
<polygon fill="white" stroke="black" points="878.5,-1 878.5,-31 1031.5,-31 1031.5,-1 878.5,-1"/>
<text text-anchor="start" x="886.5" y="-19" font-family="Helvetica,sans-Serif" font-size="10.00">src/analysis/physics</text>
<text text-anchor="middle" x="955" y="-8" font-family="Helvetica,sans-Serif" font-size="10.00">/calibration/CB_SourceCalib.cc</text>
</a>
</g>
</g>
<!-- Node54&#45;&gt;Node55 -->
<g id="edge4" class="edge"><title>Node54&#45;&gt;Node55</title>
<path fill="none" stroke="midnightblue" d="M955,-63.8976C955,-53.1314 955,-40.8005 955,-31.4856"/>
<polygon fill="midnightblue" stroke="midnightblue" points="951.5,-63.9727 955,-73.9727 958.5,-63.9727 951.5,-63.9727"/>
</g>
</g>
</svg>
