<?xml version="1.0" encoding="UTF-8" standalone="no"?>
<!DOCTYPE svg PUBLIC "-//W3C//DTD SVG 1.1//EN"
 "http://www.w3.org/Graphics/SVG/1.1/DTD/svg11.dtd">
<!-- Generated by graphviz version 2.36.0 (20140111.2315)
 -->
<!-- Title: src/calibration/modules/NewTagger_Time.h Pages: 1 -->
<svg width="374pt" height="108pt"
 viewBox="0.00 0.00 374.00 108.00" xmlns="http://www.w3.org/2000/svg" xmlns:xlink="http://www.w3.org/1999/xlink">
<g id="graph0" class="graph" transform="scale(1 1) rotate(0) translate(4 104)">
<title>src/calibration/modules/NewTagger_Time.h</title>
<polygon fill="white" stroke="none" points="-4,4 -4,-104 370,-104 370,4 -4,4"/>
<!-- Node63 -->
<g id="node1" class="node"><title>Node63</title>
<polygon fill="#bfbfbf" stroke="black" points="129.5,-69 129.5,-99 246.5,-99 246.5,-69 129.5,-69"/>
<text text-anchor="start" x="137.5" y="-87" font-family="Helvetica,sans-Serif" font-size="10.00">src/calibration/modules</text>
<text text-anchor="middle" x="188" y="-76" font-family="Helvetica,sans-Serif" font-size="10.00">/NewTagger_Time.h</text>
</g>
<!-- Node64 -->
<g id="node2" class="node"><title>Node64</title>
<g id="a_node2"><a xlink:href="_new_tagger___time_8cc.html" target="_top" xlink:title="src/calibration/modules\l/NewTagger_Time.cc">
<polygon fill="white" stroke="black" points="-0.5,-1 -0.5,-31 116.5,-31 116.5,-1 -0.5,-1"/>
<text text-anchor="start" x="7.5" y="-19" font-family="Helvetica,sans-Serif" font-size="10.00">src/calibration/modules</text>
<text text-anchor="middle" x="58" y="-8" font-family="Helvetica,sans-Serif" font-size="10.00">/NewTagger_Time.cc</text>
</a>
</g>
</g>
<!-- Node63&#45;&gt;Node64 -->
<g id="edge1" class="edge"><title>Node63&#45;&gt;Node64</title>
<path fill="none" stroke="midnightblue" d="M150.963,-64.1968C130.249,-53.6802 104.853,-40.7868 85.8421,-31.1352"/>
<polygon fill="midnightblue" stroke="midnightblue" points="149.611,-67.4352 160.112,-68.8413 152.78,-61.1935 149.611,-67.4352"/>
</g>
<!-- Node65 -->
<g id="node3" class="node"><title>Node65</title>
<g id="a_node3"><a xlink:href="_setup__2017__12_8cc.html" target="_top" xlink:title="src/expconfig/setups\l/Setup_2017_12.cc">
<polygon fill="white" stroke="black" points="134.5,-1 134.5,-31 241.5,-31 241.5,-1 134.5,-1"/>
<text text-anchor="start" x="142.5" y="-19" font-family="Helvetica,sans-Serif" font-size="10.00">src/expconfig/setups</text>
<text text-anchor="middle" x="188" y="-8" font-family="Helvetica,sans-Serif" font-size="10.00">/Setup_2017_12.cc</text>
</a>
</g>
</g>
<!-- Node63&#45;&gt;Node65 -->
<g id="edge2" class="edge"><title>Node63&#45;&gt;Node65</title>
<path fill="none" stroke="midnightblue" d="M188,-58.5322C188,-49.3606 188,-39.2449 188,-31.2931"/>
<polygon fill="midnightblue" stroke="midnightblue" points="184.5,-58.6789 188,-68.679 191.5,-58.679 184.5,-58.6789"/>
</g>
<!-- Node66 -->
<g id="node4" class="node"><title>Node66</title>
<g id="a_node4"><a xlink:href="_setup__2018__03_8cc.html" target="_top" xlink:title="src/expconfig/setups\l/Setup_2018_03.cc">
<polygon fill="white" stroke="black" points="259.5,-1 259.5,-31 366.5,-31 366.5,-1 259.5,-1"/>
<text text-anchor="start" x="267.5" y="-19" font-family="Helvetica,sans-Serif" font-size="10.00">src/expconfig/setups</text>
<text text-anchor="middle" x="313" y="-8" font-family="Helvetica,sans-Serif" font-size="10.00">/Setup_2018_03.cc</text>
</a>
</g>
</g>
<!-- Node63&#45;&gt;Node66 -->
<g id="edge3" class="edge"><title>Node63&#45;&gt;Node66</title>
<path fill="none" stroke="midnightblue" d="M223.882,-64.0545C243.75,-53.5641 268.032,-40.7434 286.229,-31.1352"/>
<polygon fill="midnightblue" stroke="midnightblue" points="222.024,-61.0771 214.816,-68.8413 225.293,-67.2672 222.024,-61.0771"/>
</g>
</g>
</svg>
