<?xml version="1.0" encoding="UTF-8" standalone="no"?>
<!DOCTYPE svg PUBLIC "-//W3C//DTD SVG 1.1//EN"
 "http://www.w3.org/Graphics/SVG/1.1/DTD/svg11.dtd">
<!-- Generated by graphviz version 2.36.0 (20140111.2315)
 -->
<!-- Title: src/expconfig/detectors/PID.h Pages: 1 -->
<svg width="2973pt" height="196pt"
 viewBox="0.00 0.00 2973.00 196.00" xmlns="http://www.w3.org/2000/svg" xmlns:xlink="http://www.w3.org/1999/xlink">
<g id="graph0" class="graph" transform="scale(1 1) rotate(0) translate(4 192)">
<title>src/expconfig/detectors/PID.h</title>
<polygon fill="white" stroke="none" points="-4,4 -4,-192 2969,-192 2969,4 -4,4"/>
<!-- Node56 -->
<g id="node1" class="node"><title>Node56</title>
<polygon fill="#bfbfbf" stroke="black" points="1395.5,-157 1395.5,-187 1514.5,-187 1514.5,-157 1395.5,-157"/>
<text text-anchor="start" x="1403.5" y="-175" font-family="Helvetica,sans-Serif" font-size="10.00">src/expconfig/detectors</text>
<text text-anchor="middle" x="1455" y="-164" font-family="Helvetica,sans-Serif" font-size="10.00">/PID.h</text>
</g>
<!-- Node57 -->
<g id="node2" class="node"><title>Node57</title>
<g id="a_node2"><a xlink:href="_m_c_fake_reconstructed_8cc.html" target="_top" xlink:title="src/analysis/utils\l/MCFakeReconstructed.cc">
<polygon fill="white" stroke="black" points="0,-84 0,-114 134,-114 134,-84 0,-84"/>
<text text-anchor="start" x="8" y="-102" font-family="Helvetica,sans-Serif" font-size="10.00">src/analysis/utils</text>
<text text-anchor="middle" x="67" y="-91" font-family="Helvetica,sans-Serif" font-size="10.00">/MCFakeReconstructed.cc</text>
</a>
</g>
</g>
<!-- Node56&#45;&gt;Node57 -->
<g id="edge1" class="edge"><title>Node56&#45;&gt;Node57</title>
<path fill="none" stroke="midnightblue" d="M1385.27,-170.297C1149.9,-167.611 385.979,-156.248 143,-120 133.554,-118.591 123.591,-116.457 114.101,-114.1"/>
<polygon fill="midnightblue" stroke="midnightblue" points="1385.37,-173.799 1395.41,-170.411 1385.45,-166.799 1385.37,-173.799"/>
</g>
<!-- Node58 -->
<g id="node3" class="node"><title>Node58</title>
<g id="a_node3"><a xlink:href="calibration_2modules_2_p_i_d___energy_8cc.html" target="_top" xlink:title="src/calibration/modules\l/PID_Energy.cc">
<polygon fill="white" stroke="black" points="152.5,-84 152.5,-114 269.5,-114 269.5,-84 152.5,-84"/>
<text text-anchor="start" x="160.5" y="-102" font-family="Helvetica,sans-Serif" font-size="10.00">src/calibration/modules</text>
<text text-anchor="middle" x="211" y="-91" font-family="Helvetica,sans-Serif" font-size="10.00">/PID_Energy.cc</text>
</a>
</g>
</g>
<!-- Node56&#45;&gt;Node58 -->
<g id="edge2" class="edge"><title>Node56&#45;&gt;Node58</title>
<path fill="none" stroke="midnightblue" d="M1385.14,-170.192C1165.98,-167.306 493.815,-155.703 279,-120 270.503,-118.588 261.568,-116.452 253.071,-114.095"/>
<polygon fill="midnightblue" stroke="midnightblue" points="1385.19,-173.692 1395.23,-170.323 1385.28,-166.693 1385.19,-173.692"/>
</g>
<!-- Node59 -->
<g id="node4" class="node"><title>Node59</title>
<g id="a_node4"><a xlink:href="calibration_2modules_2_p_i_d___phi_angle_8cc.html" target="_top" xlink:title="src/calibration/modules\l/PID_PhiAngle.cc">
<polygon fill="white" stroke="black" points="287.5,-84 287.5,-114 404.5,-114 404.5,-84 287.5,-84"/>
<text text-anchor="start" x="295.5" y="-102" font-family="Helvetica,sans-Serif" font-size="10.00">src/calibration/modules</text>
<text text-anchor="middle" x="346" y="-91" font-family="Helvetica,sans-Serif" font-size="10.00">/PID_PhiAngle.cc</text>
</a>
</g>
</g>
<!-- Node56&#45;&gt;Node59 -->
<g id="edge3" class="edge"><title>Node56&#45;&gt;Node59</title>
<path fill="none" stroke="midnightblue" d="M1385.03,-169.733C1183.04,-165.731 601.53,-151.709 414,-120 405.507,-118.564 396.574,-116.418 388.077,-114.057"/>
<polygon fill="midnightblue" stroke="midnightblue" points="1385.15,-173.235 1395.21,-169.932 1385.28,-166.237 1385.15,-173.235"/>
</g>
<!-- Node60 -->
<g id="node5" class="node"><title>Node60</title>
<g id="a_node5"><a xlink:href="_p_i_d__2004__elements_8h.html" target="_top" xlink:title="src/expconfig/detectors\l/detail/PID_2004_elements.h">
<polygon fill="white" stroke="black" points="422.5,-84 422.5,-114 565.5,-114 565.5,-84 422.5,-84"/>
<text text-anchor="start" x="430.5" y="-102" font-family="Helvetica,sans-Serif" font-size="10.00">src/expconfig/detectors</text>
<text text-anchor="middle" x="494" y="-91" font-family="Helvetica,sans-Serif" font-size="10.00">/detail/PID_2004_elements.h</text>
</a>
</g>
</g>
<!-- Node56&#45;&gt;Node60 -->
<g id="edge4" class="edge"><title>Node56&#45;&gt;Node60</title>
<path fill="none" stroke="midnightblue" d="M1385.15,-170.952C1236.32,-169.97 877.279,-162.912 580,-120 569.532,-118.489 558.459,-116.339 547.867,-114.005"/>
<polygon fill="midnightblue" stroke="midnightblue" points="1385.48,-174.454 1395.5,-171.013 1385.52,-167.454 1385.48,-174.454"/>
</g>
<!-- Node61 -->
<g id="node6" class="node"><title>Node61</title>
<g id="a_node6"><a xlink:href="_p_i_d_8cc.html" target="_top" xlink:title="src/expconfig/detectors\l/PID.cc">
<polygon fill="white" stroke="black" points="803.5,-6 803.5,-36 922.5,-36 922.5,-6 803.5,-6"/>
<text text-anchor="start" x="811.5" y="-24" font-family="Helvetica,sans-Serif" font-size="10.00">src/expconfig/detectors</text>
<text text-anchor="middle" x="863" y="-13" font-family="Helvetica,sans-Serif" font-size="10.00">/PID.cc</text>
</a>
</g>
</g>
<!-- Node56&#45;&gt;Node61 -->
<g id="edge16" class="edge"><title>Node56&#45;&gt;Node61</title>
<path fill="none" stroke="midnightblue" d="M1385.13,-169.342C1188.06,-164.327 640.285,-147.927 614,-120 554.936,-57.2462 712.209,-33.9806 803.31,-25.9256"/>
<polygon fill="midnightblue" stroke="midnightblue" points="1385.29,-172.847 1395.37,-169.6 1385.46,-165.849 1385.29,-172.847"/>
</g>
<!-- Node62 -->
<g id="node7" class="node"><title>Node62</title>
<g id="a_node7"><a xlink:href="_p_i_d__2007__elements_8h.html" target="_top" xlink:title="src/expconfig/detectors\l/detail/PID_2007_elements.h">
<polygon fill="white" stroke="black" points="622.5,-84 622.5,-114 765.5,-114 765.5,-84 622.5,-84"/>
<text text-anchor="start" x="630.5" y="-102" font-family="Helvetica,sans-Serif" font-size="10.00">src/expconfig/detectors</text>
<text text-anchor="middle" x="694" y="-91" font-family="Helvetica,sans-Serif" font-size="10.00">/detail/PID_2007_elements.h</text>
</a>
</g>
</g>
<!-- Node56&#45;&gt;Node62 -->
<g id="edge6" class="edge"><title>Node56&#45;&gt;Node62</title>
<path fill="none" stroke="midnightblue" d="M1385.41,-169.614C1261.8,-166.301 996.161,-155.343 775,-120 765.274,-118.446 754.999,-116.306 745.155,-114.002"/>
<polygon fill="midnightblue" stroke="midnightblue" points="1385.4,-173.115 1395.49,-169.875 1385.58,-166.117 1385.4,-173.115"/>
</g>
<!-- Node63 -->
<g id="node8" class="node"><title>Node63</title>
<g id="a_node8"><a xlink:href="_p_i_d__2009__05__elements_8h.html" target="_top" xlink:title="src/expconfig/detectors\l/detail/PID_2009_05_elements.h">
<polygon fill="white" stroke="black" points="784,-84 784,-114 942,-114 942,-84 784,-84"/>
<text text-anchor="start" x="792" y="-102" font-family="Helvetica,sans-Serif" font-size="10.00">src/expconfig/detectors</text>
<text text-anchor="middle" x="863" y="-91" font-family="Helvetica,sans-Serif" font-size="10.00">/detail/PID_2009_05_elements.h</text>
</a>
</g>
</g>
<!-- Node56&#45;&gt;Node63 -->
<g id="edge8" class="edge"><title>Node56&#45;&gt;Node63</title>
<path fill="none" stroke="midnightblue" d="M1385.3,-166.661C1287.71,-159.97 1105.03,-145.199 951,-120 940.95,-118.356 930.33,-116.257 920.078,-114.041"/>
<polygon fill="midnightblue" stroke="midnightblue" points="1385.12,-170.157 1395.34,-167.341 1385.59,-163.173 1385.12,-170.157"/>
</g>
<!-- Node64 -->
<g id="node9" class="node"><title>Node64</title>
<g id="a_node9"><a xlink:href="_p_i_d__2009__06__elements_8h.html" target="_top" xlink:title="src/expconfig/detectors\l/detail/PID_2009_06_elements.h">
<polygon fill="white" stroke="black" points="960,-84 960,-114 1118,-114 1118,-84 960,-84"/>
<text text-anchor="start" x="968" y="-102" font-family="Helvetica,sans-Serif" font-size="10.00">src/expconfig/detectors</text>
<text text-anchor="middle" x="1039" y="-91" font-family="Helvetica,sans-Serif" font-size="10.00">/detail/PID_2009_06_elements.h</text>
</a>
</g>
</g>
<!-- Node56&#45;&gt;Node64 -->
<g id="edge10" class="edge"><title>Node56&#45;&gt;Node64</title>
<path fill="none" stroke="midnightblue" d="M1385.28,-161.586C1318.71,-152.262 1215.7,-136.955 1127,-120 1117.61,-118.206 1107.7,-116.131 1098.05,-114.011"/>
<polygon fill="midnightblue" stroke="midnightblue" points="1384.85,-165.06 1395.23,-162.974 1385.81,-158.127 1384.85,-165.06"/>
</g>
<!-- Node65 -->
<g id="node10" class="node"><title>Node65</title>
<g id="a_node10"><a xlink:href="_p_i_d__2009__07__elements_8h.html" target="_top" xlink:title="src/expconfig/detectors\l/detail/PID_2009_07_elements.h">
<polygon fill="white" stroke="black" points="1136,-84 1136,-114 1294,-114 1294,-84 1136,-84"/>
<text text-anchor="start" x="1144" y="-102" font-family="Helvetica,sans-Serif" font-size="10.00">src/expconfig/detectors</text>
<text text-anchor="middle" x="1215" y="-91" font-family="Helvetica,sans-Serif" font-size="10.00">/detail/PID_2009_07_elements.h</text>
</a>
</g>
</g>
<!-- Node56&#45;&gt;Node65 -->
<g id="edge12" class="edge"><title>Node56&#45;&gt;Node65</title>
<path fill="none" stroke="midnightblue" d="M1397.95,-154.122C1356.71,-141.923 1301.64,-125.631 1262.73,-114.12"/>
<polygon fill="midnightblue" stroke="midnightblue" points="1397,-157.492 1407.58,-156.973 1398.99,-150.78 1397,-157.492"/>
</g>
<!-- Node66 -->
<g id="node11" class="node"><title>Node66</title>
<g id="a_node11"><a xlink:href="_p_i_d__2014__elements_8h.html" target="_top" xlink:title="src/expconfig/detectors\l/detail/PID_2014_elements.h">
<polygon fill="white" stroke="black" points="1312.5,-84 1312.5,-114 1455.5,-114 1455.5,-84 1312.5,-84"/>
<text text-anchor="start" x="1320.5" y="-102" font-family="Helvetica,sans-Serif" font-size="10.00">src/expconfig/detectors</text>
<text text-anchor="middle" x="1384" y="-91" font-family="Helvetica,sans-Serif" font-size="10.00">/detail/PID_2014_elements.h</text>
</a>
</g>
</g>
<!-- Node56&#45;&gt;Node66 -->
<g id="edge14" class="edge"><title>Node56&#45;&gt;Node66</title>
<path fill="none" stroke="midnightblue" d="M1433.88,-149.881C1422.47,-138.47 1408.67,-124.674 1398.49,-114.486"/>
<polygon fill="midnightblue" stroke="midnightblue" points="1431.43,-152.376 1440.97,-156.973 1436.38,-147.427 1431.43,-152.376"/>
</g>
<!-- Node67 -->
<g id="node12" class="node"><title>Node67</title>
<g id="a_node12"><a xlink:href="_setup__2007___base_8h.html" target="_top" xlink:title="src/expconfig/setups\l/Setup_2007_Base.h">
<polygon fill="white" stroke="black" points="1473.5,-84 1473.5,-114 1580.5,-114 1580.5,-84 1473.5,-84"/>
<text text-anchor="start" x="1481.5" y="-102" font-family="Helvetica,sans-Serif" font-size="10.00">src/expconfig/setups</text>
<text text-anchor="middle" x="1527" y="-91" font-family="Helvetica,sans-Serif" font-size="10.00">/Setup_2007_Base.h</text>
</a>
</g>
</g>
<!-- Node56&#45;&gt;Node67 -->
<g id="edge17" class="edge"><title>Node56&#45;&gt;Node67</title>
<path fill="none" stroke="midnightblue" d="M1476.42,-149.881C1487.99,-138.47 1501.98,-124.674 1512.31,-114.486"/>
<polygon fill="midnightblue" stroke="midnightblue" points="1473.89,-147.459 1469.22,-156.973 1478.8,-152.443 1473.89,-147.459"/>
</g>
<!-- Node71 -->
<g id="node16" class="node"><title>Node71</title>
<g id="a_node16"><a xlink:href="_setup__2010__03___base_8h.html" target="_top" xlink:title="src/expconfig/setups\l/Setup_2010_03_Base.h">
<polygon fill="white" stroke="black" points="1598.5,-84 1598.5,-114 1721.5,-114 1721.5,-84 1598.5,-84"/>
<text text-anchor="start" x="1606.5" y="-102" font-family="Helvetica,sans-Serif" font-size="10.00">src/expconfig/setups</text>
<text text-anchor="middle" x="1660" y="-91" font-family="Helvetica,sans-Serif" font-size="10.00">/Setup_2010_03_Base.h</text>
</a>
</g>
</g>
<!-- Node56&#45;&gt;Node71 -->
<g id="edge21" class="edge"><title>Node56&#45;&gt;Node71</title>
<path fill="none" stroke="midnightblue" d="M1505.07,-153.657C1540.14,-141.511 1586.42,-125.485 1619.23,-114.12"/>
<polygon fill="midnightblue" stroke="midnightblue" points="1503.81,-150.393 1495.5,-156.973 1506.1,-157.007 1503.81,-150.393"/>
</g>
<!-- Node74 -->
<g id="node19" class="node"><title>Node74</title>
<g id="a_node19"><a xlink:href="_setup__2012__12___compton_8cc.html" target="_top" xlink:title="src/expconfig/setups\l/Setup_2012_12_Compton.cc">
<polygon fill="white" stroke="black" points="1740,-84 1740,-114 1886,-114 1886,-84 1740,-84"/>
<text text-anchor="start" x="1748" y="-102" font-family="Helvetica,sans-Serif" font-size="10.00">src/expconfig/setups</text>
<text text-anchor="middle" x="1813" y="-91" font-family="Helvetica,sans-Serif" font-size="10.00">/Setup_2012_12_Compton.cc</text>
</a>
</g>
</g>
<!-- Node56&#45;&gt;Node74 -->
<g id="edge24" class="edge"><title>Node56&#45;&gt;Node74</title>
<path fill="none" stroke="midnightblue" d="M1524.84,-159.104C1580.54,-149.36 1660.48,-134.812 1730,-120 1738.55,-118.178 1747.57,-116.133 1756.39,-114.065"/>
<polygon fill="midnightblue" stroke="midnightblue" points="1523.98,-155.701 1514.73,-160.866 1525.18,-162.597 1523.98,-155.701"/>
</g>
<!-- Node75 -->
<g id="node20" class="node"><title>Node75</title>
<g id="a_node20"><a xlink:href="_setup__2014___e_p_t_8h.html" target="_top" xlink:title="src/expconfig/setups\l/Setup_2014_EPT.h">
<polygon fill="white" stroke="black" points="1904.5,-84 1904.5,-114 2011.5,-114 2011.5,-84 1904.5,-84"/>
<text text-anchor="start" x="1912.5" y="-102" font-family="Helvetica,sans-Serif" font-size="10.00">src/expconfig/setups</text>
<text text-anchor="middle" x="1958" y="-91" font-family="Helvetica,sans-Serif" font-size="10.00">/Setup_2014_EPT.h</text>
</a>
</g>
</g>
<!-- Node56&#45;&gt;Node75 -->
<g id="edge25" class="edge"><title>Node56&#45;&gt;Node75</title>
<path fill="none" stroke="midnightblue" d="M1524.71,-167.064C1612.04,-161.188 1765.9,-147.705 1895,-120 1902.41,-118.411 1910.18,-116.312 1917.64,-114.071"/>
<polygon fill="midnightblue" stroke="midnightblue" points="1524.41,-163.577 1514.66,-167.727 1524.87,-170.562 1524.41,-163.577"/>
</g>
<!-- Node80 -->
<g id="node25" class="node"><title>Node80</title>
<g id="a_node25"><a xlink:href="_setup__2015__01___pion_8cc.html" target="_top" xlink:title="src/expconfig/setups\l/Setup_2015_01_Pion.cc">
<polygon fill="white" stroke="black" points="2029.5,-84 2029.5,-114 2154.5,-114 2154.5,-84 2029.5,-84"/>
<text text-anchor="start" x="2037.5" y="-102" font-family="Helvetica,sans-Serif" font-size="10.00">src/expconfig/setups</text>
<text text-anchor="middle" x="2092" y="-91" font-family="Helvetica,sans-Serif" font-size="10.00">/Setup_2015_01_Pion.cc</text>
</a>
</g>
</g>
<!-- Node56&#45;&gt;Node80 -->
<g id="edge30" class="edge"><title>Node56&#45;&gt;Node80</title>
<path fill="none" stroke="midnightblue" d="M1524.91,-168.754C1632.2,-164.396 1843.54,-152.199 2020,-120 2028.55,-118.44 2037.56,-116.326 2046.2,-114.056"/>
<polygon fill="midnightblue" stroke="midnightblue" points="1524.71,-165.259 1514.86,-169.152 1524.99,-172.254 1524.71,-165.259"/>
</g>
<!-- Node81 -->
<g id="node26" class="node"><title>Node81</title>
<g id="a_node26"><a xlink:href="_setup__2017__03_8h.html" target="_top" xlink:title="src/expconfig/setups\l/Setup_2017_03.h">
<polygon fill="white" stroke="black" points="2187.5,-84 2187.5,-114 2294.5,-114 2294.5,-84 2187.5,-84"/>
<text text-anchor="start" x="2195.5" y="-102" font-family="Helvetica,sans-Serif" font-size="10.00">src/expconfig/setups</text>
<text text-anchor="middle" x="2241" y="-91" font-family="Helvetica,sans-Serif" font-size="10.00">/Setup_2017_03.h</text>
</a>
</g>
</g>
<!-- Node56&#45;&gt;Node81 -->
<g id="edge31" class="edge"><title>Node56&#45;&gt;Node81</title>
<path fill="none" stroke="midnightblue" d="M1524.64,-170.108C1652.12,-167.562 1931.18,-157.757 2163,-120 2172.38,-118.472 2182.28,-116.344 2191.77,-114.044"/>
<polygon fill="midnightblue" stroke="midnightblue" points="1524.56,-166.609 1514.63,-170.299 1524.69,-173.607 1524.56,-166.609"/>
</g>
<!-- Node83 -->
<g id="node28" class="node"><title>Node83</title>
<g id="a_node28"><a xlink:href="_setup__2017__05_8h.html" target="_top" xlink:title="src/expconfig/setups\l/Setup_2017_05.h">
<polygon fill="white" stroke="black" points="2370.5,-84 2370.5,-114 2477.5,-114 2477.5,-84 2370.5,-84"/>
<text text-anchor="start" x="2378.5" y="-102" font-family="Helvetica,sans-Serif" font-size="10.00">src/expconfig/setups</text>
<text text-anchor="middle" x="2424" y="-91" font-family="Helvetica,sans-Serif" font-size="10.00">/Setup_2017_05.h</text>
</a>
</g>
</g>
<!-- Node56&#45;&gt;Node83 -->
<g id="edge33" class="edge"><title>Node56&#45;&gt;Node83</title>
<path fill="none" stroke="midnightblue" d="M1524.66,-169.256C1669.82,-165.085 2015.13,-152.359 2303,-120 2325.11,-117.515 2349.33,-113.726 2370.26,-110.112"/>
<polygon fill="midnightblue" stroke="midnightblue" points="1524.45,-165.761 1514.55,-169.542 1524.65,-172.758 1524.45,-165.761"/>
</g>
<!-- Node85 -->
<g id="node30" class="node"><title>Node85</title>
<g id="a_node30"><a xlink:href="_setup__2017_plus___new_tagger___base_8h.html" target="_top" xlink:title="src/expconfig/setups\l/Setup_2017Plus_NewTagger\l_Base.h">
<polygon fill="white" stroke="black" points="2525,-78.5 2525,-119.5 2671,-119.5 2671,-78.5 2525,-78.5"/>
<text text-anchor="start" x="2533" y="-107.5" font-family="Helvetica,sans-Serif" font-size="10.00">src/expconfig/setups</text>
<text text-anchor="start" x="2533" y="-96.5" font-family="Helvetica,sans-Serif" font-size="10.00">/Setup_2017Plus_NewTagger</text>
<text text-anchor="middle" x="2598" y="-85.5" font-family="Helvetica,sans-Serif" font-size="10.00">_Base.h</text>
</a>
</g>
</g>
<!-- Node56&#45;&gt;Node85 -->
<g id="edge35" class="edge"><title>Node56&#45;&gt;Node85</title>
<path fill="none" stroke="midnightblue" d="M1524.9,-170.605C1691.72,-168.996 2126.05,-160.873 2486,-120 2498.66,-118.563 2512.05,-116.58 2525,-114.418"/>
<polygon fill="midnightblue" stroke="midnightblue" points="1524.75,-167.106 1514.78,-170.698 1524.81,-174.106 1524.75,-167.106"/>
</g>
<!-- Node89 -->
<g id="node34" class="node"><title>Node89</title>
<g id="a_node34"><a xlink:href="_candidate_builder_8cc.html" target="_top" xlink:title="src/reconstruct/Candidate\lBuilder.cc">
<polygon fill="white" stroke="black" points="2689.5,-84 2689.5,-114 2818.5,-114 2818.5,-84 2689.5,-84"/>
<text text-anchor="start" x="2697.5" y="-102" font-family="Helvetica,sans-Serif" font-size="10.00">src/reconstruct/Candidate</text>
<text text-anchor="middle" x="2754" y="-91" font-family="Helvetica,sans-Serif" font-size="10.00">Builder.cc</text>
</a>
</g>
</g>
<!-- Node56&#45;&gt;Node89 -->
<g id="edge39" class="edge"><title>Node56&#45;&gt;Node89</title>
<path fill="none" stroke="midnightblue" d="M1524.65,-170.135C1749.56,-167.022 2454.81,-154.677 2680,-120 2689.21,-118.582 2698.91,-116.444 2708.15,-114.086"/>
<polygon fill="midnightblue" stroke="midnightblue" points="1524.58,-166.636 1514.63,-170.272 1524.68,-173.635 1524.58,-166.636"/>
</g>
<!-- Node90 -->
<g id="node35" class="node"><title>Node90</title>
<g id="a_node35"><a xlink:href="expconfig__helpers_8cc.html" target="_top" xlink:title="test/expconfig_helpers.cc">
<polygon fill="white" stroke="black" points="2837,-89.5 2837,-108.5 2965,-108.5 2965,-89.5 2837,-89.5"/>
<text text-anchor="middle" x="2901" y="-96.5" font-family="Helvetica,sans-Serif" font-size="10.00">test/expconfig_helpers.cc</text>
</a>
</g>
</g>
<!-- Node56&#45;&gt;Node90 -->
<g id="edge40" class="edge"><title>Node56&#45;&gt;Node90</title>
<path fill="none" stroke="midnightblue" d="M1524.64,-170.497C1766.89,-168.42 2571.88,-158.704 2827,-120 2843.18,-117.545 2860.9,-112.832 2874.94,-108.598"/>
<polygon fill="midnightblue" stroke="midnightblue" points="1524.52,-166.997 1514.55,-170.582 1524.58,-173.997 1524.52,-166.997"/>
</g>
<!-- Node60&#45;&gt;Node61 -->
<g id="edge5" class="edge"><title>Node60&#45;&gt;Node61</title>
<path fill="none" stroke="midnightblue" d="M563.307,-81.6732C568.949,-80.4077 574.568,-79.1688 580,-78 656.874,-61.4601 745.897,-44.145 803.255,-33.2265"/>
<polygon fill="midnightblue" stroke="midnightblue" points="562.139,-78.349 553.158,-83.9708 563.684,-85.1762 562.139,-78.349"/>
</g>
<!-- Node62&#45;&gt;Node61 -->
<g id="edge7" class="edge"><title>Node62&#45;&gt;Node61</title>
<path fill="none" stroke="midnightblue" d="M734.696,-79.6989C764.531,-66.2817 804.437,-48.3359 831.777,-36.0413"/>
<polygon fill="midnightblue" stroke="midnightblue" points="733.076,-76.5896 725.392,-83.8831 735.947,-82.9737 733.076,-76.5896"/>
</g>
<!-- Node63&#45;&gt;Node61 -->
<g id="edge9" class="edge"><title>Node63&#45;&gt;Node61</title>
<path fill="none" stroke="midnightblue" d="M863,-73.5898C863,-61.2565 863,-46.7237 863,-36.2309"/>
<polygon fill="midnightblue" stroke="midnightblue" points="859.5,-73.7049 863,-83.705 866.5,-73.705 859.5,-73.7049"/>
</g>
<!-- Node64&#45;&gt;Node61 -->
<g id="edge11" class="edge"><title>Node64&#45;&gt;Node61</title>
<path fill="none" stroke="midnightblue" d="M997.021,-79.8729C965.907,-66.4372 924.112,-48.3891 895.517,-36.0413"/>
<polygon fill="midnightblue" stroke="midnightblue" points="995.74,-83.1319 1006.31,-83.8831 998.515,-76.7055 995.74,-83.1319"/>
</g>
<!-- Node65&#45;&gt;Node61 -->
<g id="edge13" class="edge"><title>Node65&#45;&gt;Node61</title>
<path fill="none" stroke="midnightblue" d="M1142.64,-81.6683C1137.01,-80.4195 1131.41,-79.1848 1126,-78 1056.23,-62.7322 975.912,-45.7114 922.579,-34.4865"/>
<polygon fill="midnightblue" stroke="midnightblue" points="1142.26,-85.1678 1152.78,-83.9236 1143.78,-78.3349 1142.26,-85.1678"/>
</g>
<!-- Node66&#45;&gt;Node61 -->
<g id="edge15" class="edge"><title>Node66&#45;&gt;Node61</title>
<path fill="none" stroke="midnightblue" d="M1320.9,-81.7348C1314.54,-80.3584 1308.16,-79.0818 1302,-78 1156.69,-52.4657 1117.99,-63.3274 972,-42 955.913,-39.6499 938.571,-36.6722 922.554,-33.7373"/>
<polygon fill="midnightblue" stroke="midnightblue" points="1320.32,-85.1913 1330.84,-83.9662 1321.85,-78.3612 1320.32,-85.1913"/>
</g>
<!-- Node68 -->
<g id="node13" class="node"><title>Node68</title>
<g id="a_node13"><a xlink:href="_setup__2007__06_8cc.html" target="_top" xlink:title="src/expconfig/setups\l/Setup_2007_06.cc">
<polygon fill="white" stroke="black" points="980.5,-6 980.5,-36 1087.5,-36 1087.5,-6 980.5,-6"/>
<text text-anchor="start" x="988.5" y="-24" font-family="Helvetica,sans-Serif" font-size="10.00">src/expconfig/setups</text>
<text text-anchor="middle" x="1034" y="-13" font-family="Helvetica,sans-Serif" font-size="10.00">/Setup_2007_06.cc</text>
</a>
</g>
</g>
<!-- Node67&#45;&gt;Node68 -->
<g id="edge18" class="edge"><title>Node67&#45;&gt;Node68</title>
<path fill="none" stroke="midnightblue" d="M1477.3,-81.1676C1472.83,-79.9759 1468.35,-78.8943 1464,-78 1303.46,-45.0236 1257.54,-74.9764 1097,-42 1089.47,-40.453 1081.56,-38.3459 1074,-36.0777"/>
<polygon fill="midnightblue" stroke="midnightblue" points="1476.43,-84.5582 1487,-83.9223 1478.34,-77.8243 1476.43,-84.5582"/>
</g>
<!-- Node69 -->
<g id="node14" class="node"><title>Node69</title>
<g id="a_node14"><a xlink:href="_setup__2007__07_8cc.html" target="_top" xlink:title="src/expconfig/setups\l/Setup_2007_07.cc">
<polygon fill="white" stroke="black" points="1105.5,-6 1105.5,-36 1212.5,-36 1212.5,-6 1105.5,-6"/>
<text text-anchor="start" x="1113.5" y="-24" font-family="Helvetica,sans-Serif" font-size="10.00">src/expconfig/setups</text>
<text text-anchor="middle" x="1159" y="-13" font-family="Helvetica,sans-Serif" font-size="10.00">/Setup_2007_07.cc</text>
</a>
</g>
</g>
<!-- Node67&#45;&gt;Node69 -->
<g id="edge19" class="edge"><title>Node67&#45;&gt;Node69</title>
<path fill="none" stroke="midnightblue" d="M1476.3,-81.14C1472.16,-79.9972 1468.02,-78.9319 1464,-78 1358.06,-53.4707 1327.94,-66.5293 1222,-42 1214.85,-40.3433 1207.33,-38.2649 1200.08,-36.0793"/>
<polygon fill="midnightblue" stroke="midnightblue" points="1475.34,-84.5042 1485.92,-83.9207 1477.28,-77.7799 1475.34,-84.5042"/>
</g>
<!-- Node70 -->
<g id="node15" class="node"><title>Node70</title>
<g id="a_node15"><a xlink:href="_setup__2007___base_8cc.html" target="_top" xlink:title="src/expconfig/setups\l/Setup_2007_Base.cc">
<polygon fill="white" stroke="black" points="1230.5,-6 1230.5,-36 1343.5,-36 1343.5,-6 1230.5,-6"/>
<text text-anchor="start" x="1238.5" y="-24" font-family="Helvetica,sans-Serif" font-size="10.00">src/expconfig/setups</text>
<text text-anchor="middle" x="1287" y="-13" font-family="Helvetica,sans-Serif" font-size="10.00">/Setup_2007_Base.cc</text>
</a>
</g>
</g>
<!-- Node67&#45;&gt;Node70 -->
<g id="edge20" class="edge"><title>Node67&#45;&gt;Node70</title>
<path fill="none" stroke="midnightblue" d="M1472.92,-80.8288C1469.9,-79.8716 1466.91,-78.9236 1464,-78 1418.84,-63.6862 1367.18,-47.3462 1331.38,-36.0266"/>
<polygon fill="midnightblue" stroke="midnightblue" points="1472.01,-84.2115 1482.6,-83.8992 1474.13,-77.5392 1472.01,-84.2115"/>
</g>
<!-- Node72 -->
<g id="node17" class="node"><title>Node72</title>
<g id="a_node17"><a xlink:href="_setup__2010__03___base_8cc.html" target="_top" xlink:title="src/expconfig/setups\l/Setup_2010_03_Base.cc">
<polygon fill="white" stroke="black" points="1362,-6 1362,-36 1490,-36 1490,-6 1362,-6"/>
<text text-anchor="start" x="1370" y="-24" font-family="Helvetica,sans-Serif" font-size="10.00">src/expconfig/setups</text>
<text text-anchor="middle" x="1426" y="-13" font-family="Helvetica,sans-Serif" font-size="10.00">/Setup_2010_03_Base.cc</text>
</a>
</g>
</g>
<!-- Node71&#45;&gt;Node72 -->
<g id="edge22" class="edge"><title>Node71&#45;&gt;Node72</title>
<path fill="none" stroke="midnightblue" d="M1607.12,-80.8256C1565.52,-67.3128 1508.26,-48.7164 1469.34,-36.0749"/>
<polygon fill="midnightblue" stroke="midnightblue" points="1606.22,-84.2116 1616.81,-83.9719 1608.38,-77.5539 1606.22,-84.2116"/>
</g>
<!-- Node73 -->
<g id="node18" class="node"><title>Node73</title>
<g id="a_node18"><a xlink:href="_setup__2010__09___compton_8cc.html" target="_top" xlink:title="src/expconfig/setups\l/Setup_2010_09_Compton.cc">
<polygon fill="white" stroke="black" points="1508,-6 1508,-36 1654,-36 1654,-6 1508,-6"/>
<text text-anchor="start" x="1516" y="-24" font-family="Helvetica,sans-Serif" font-size="10.00">src/expconfig/setups</text>
<text text-anchor="middle" x="1581" y="-13" font-family="Helvetica,sans-Serif" font-size="10.00">/Setup_2010_09_Compton.cc</text>
</a>
</g>
</g>
<!-- Node71&#45;&gt;Node73 -->
<g id="edge23" class="edge"><title>Node71&#45;&gt;Node73</title>
<path fill="none" stroke="midnightblue" d="M1637.69,-76.5332C1624.27,-63.6316 1607.58,-47.5716 1595.79,-36.2309"/>
<polygon fill="midnightblue" stroke="midnightblue" points="1635.51,-79.2944 1645.14,-83.705 1640.36,-74.2497 1635.51,-79.2944"/>
</g>
<!-- Node76 -->
<g id="node21" class="node"><title>Node76</title>
<g id="a_node21"><a xlink:href="_setup__2014__07___e_p_t___prod_8cc.html" target="_top" xlink:title="src/expconfig/setups\l/Setup_2014_07_EPT_Prod.cc">
<polygon fill="white" stroke="black" points="1672.5,-6 1672.5,-36 1823.5,-36 1823.5,-6 1672.5,-6"/>
<text text-anchor="start" x="1680.5" y="-24" font-family="Helvetica,sans-Serif" font-size="10.00">src/expconfig/setups</text>
<text text-anchor="middle" x="1748" y="-13" font-family="Helvetica,sans-Serif" font-size="10.00">/Setup_2014_07_EPT_Prod.cc</text>
</a>
</g>
</g>
<!-- Node75&#45;&gt;Node76 -->
<g id="edge26" class="edge"><title>Node75&#45;&gt;Node76</title>
<path fill="none" stroke="midnightblue" d="M1909.35,-80.3918C1872.08,-66.9049 1821.36,-48.5488 1786.8,-36.0413"/>
<polygon fill="midnightblue" stroke="midnightblue" points="1908.4,-83.7711 1918.99,-83.8831 1910.78,-77.1889 1908.4,-83.7711"/>
</g>
<!-- Node77 -->
<g id="node22" class="node"><title>Node77</title>
<g id="a_node22"><a xlink:href="_setup__2014__10___e_p_t___prod_8cc.html" target="_top" xlink:title="src/expconfig/setups\l/Setup_2014_10_EPT_Prod.cc">
<polygon fill="white" stroke="black" points="1841.5,-6 1841.5,-36 1992.5,-36 1992.5,-6 1841.5,-6"/>
<text text-anchor="start" x="1849.5" y="-24" font-family="Helvetica,sans-Serif" font-size="10.00">src/expconfig/setups</text>
<text text-anchor="middle" x="1917" y="-13" font-family="Helvetica,sans-Serif" font-size="10.00">/Setup_2014_10_EPT_Prod.cc</text>
</a>
</g>
</g>
<!-- Node75&#45;&gt;Node77 -->
<g id="edge27" class="edge"><title>Node75&#45;&gt;Node77</title>
<path fill="none" stroke="midnightblue" d="M1945.43,-74.7047C1938.66,-62.141 1930.51,-47.0416 1924.68,-36.2309"/>
<polygon fill="midnightblue" stroke="midnightblue" points="1942.46,-76.5658 1950.29,-83.705 1948.62,-73.2422 1942.46,-76.5658"/>
</g>
<!-- Node78 -->
<g id="node23" class="node"><title>Node78</title>
<g id="a_node23"><a xlink:href="_setup__2014__12___e_p_t___prod_8cc.html" target="_top" xlink:title="src/expconfig/setups\l/Setup_2014_12_EPT_Prod.cc">
<polygon fill="white" stroke="black" points="2010.5,-6 2010.5,-36 2161.5,-36 2161.5,-6 2010.5,-6"/>
<text text-anchor="start" x="2018.5" y="-24" font-family="Helvetica,sans-Serif" font-size="10.00">src/expconfig/setups</text>
<text text-anchor="middle" x="2086" y="-13" font-family="Helvetica,sans-Serif" font-size="10.00">/Setup_2014_12_EPT_Prod.cc</text>
</a>
</g>
</g>
<!-- Node75&#45;&gt;Node78 -->
<g id="edge28" class="edge"><title>Node75&#45;&gt;Node78</title>
<path fill="none" stroke="midnightblue" d="M1990.6,-78.6444C2012.98,-65.3533 2042.18,-48.0166 2062.35,-36.0413"/>
<polygon fill="midnightblue" stroke="midnightblue" points="1988.59,-75.7682 1981.78,-83.8831 1992.16,-81.7872 1988.59,-75.7682"/>
</g>
<!-- Node79 -->
<g id="node24" class="node"><title>Node79</title>
<g id="a_node24"><a xlink:href="_setup__2014___e_p_t_8cc.html" target="_top" xlink:title="src/expconfig/setups\l/Setup_2014_EPT.cc">
<polygon fill="white" stroke="black" points="2180,-6 2180,-36 2290,-36 2290,-6 2180,-6"/>
<text text-anchor="start" x="2188" y="-24" font-family="Helvetica,sans-Serif" font-size="10.00">src/expconfig/setups</text>
<text text-anchor="middle" x="2235" y="-13" font-family="Helvetica,sans-Serif" font-size="10.00">/Setup_2014_EPT.cc</text>
</a>
</g>
</g>
<!-- Node75&#45;&gt;Node79 -->
<g id="edge29" class="edge"><title>Node75&#45;&gt;Node79</title>
<path fill="none" stroke="midnightblue" d="M2010.71,-80.9667C2014.18,-79.9367 2017.64,-78.9387 2021,-78 2086.62,-59.6817 2104.3,-60.0262 2170,-42 2176.72,-40.1568 2183.79,-38.1009 2190.7,-36.0283"/>
<polygon fill="midnightblue" stroke="midnightblue" points="2009.48,-77.6836 2000.92,-83.9314 2011.5,-84.3833 2009.48,-77.6836"/>
</g>
<!-- Node82 -->
<g id="node27" class="node"><title>Node82</title>
<g id="a_node27"><a xlink:href="_setup__2017__03_8cc.html" target="_top" xlink:title="src/expconfig/setups\l/Setup_2017_03.cc">
<polygon fill="white" stroke="black" points="2308.5,-6 2308.5,-36 2415.5,-36 2415.5,-6 2308.5,-6"/>
<text text-anchor="start" x="2316.5" y="-24" font-family="Helvetica,sans-Serif" font-size="10.00">src/expconfig/setups</text>
<text text-anchor="middle" x="2362" y="-13" font-family="Helvetica,sans-Serif" font-size="10.00">/Setup_2017_03.cc</text>
</a>
</g>
</g>
<!-- Node81&#45;&gt;Node82 -->
<g id="edge32" class="edge"><title>Node81&#45;&gt;Node82</title>
<path fill="none" stroke="midnightblue" d="M2272.1,-78.467C2293.22,-65.1993 2320.66,-47.9633 2339.64,-36.0413"/>
<polygon fill="midnightblue" stroke="midnightblue" points="2270.08,-75.6003 2263.48,-83.8831 2273.81,-81.5281 2270.08,-75.6003"/>
</g>
<!-- Node84 -->
<g id="node29" class="node"><title>Node84</title>
<g id="a_node29"><a xlink:href="_setup__2017__05_8cc.html" target="_top" xlink:title="src/expconfig/setups\l/Setup_2017_05.cc">
<polygon fill="white" stroke="black" points="2433.5,-6 2433.5,-36 2540.5,-36 2540.5,-6 2433.5,-6"/>
<text text-anchor="start" x="2441.5" y="-24" font-family="Helvetica,sans-Serif" font-size="10.00">src/expconfig/setups</text>
<text text-anchor="middle" x="2487" y="-13" font-family="Helvetica,sans-Serif" font-size="10.00">/Setup_2017_05.cc</text>
</a>
</g>
</g>
<!-- Node83&#45;&gt;Node84 -->
<g id="edge34" class="edge"><title>Node83&#45;&gt;Node84</title>
<path fill="none" stroke="midnightblue" d="M2442.4,-75.8065C2452.99,-63.0329 2465.98,-47.3596 2475.2,-36.2309"/>
<polygon fill="midnightblue" stroke="midnightblue" points="2439.54,-73.7725 2435.85,-83.705 2444.93,-78.2398 2439.54,-73.7725"/>
</g>
<!-- Node86 -->
<g id="node31" class="node"><title>Node86</title>
<g id="a_node31"><a xlink:href="_setup__2017__12_8cc.html" target="_top" xlink:title="src/expconfig/setups\l/Setup_2017_12.cc">
<polygon fill="white" stroke="black" points="2558.5,-6 2558.5,-36 2665.5,-36 2665.5,-6 2558.5,-6"/>
<text text-anchor="start" x="2566.5" y="-24" font-family="Helvetica,sans-Serif" font-size="10.00">src/expconfig/setups</text>
<text text-anchor="middle" x="2612" y="-13" font-family="Helvetica,sans-Serif" font-size="10.00">/Setup_2017_12.cc</text>
</a>
</g>
</g>
<!-- Node85&#45;&gt;Node86 -->
<g id="edge36" class="edge"><title>Node85&#45;&gt;Node86</title>
<path fill="none" stroke="midnightblue" d="M2603.47,-68.2829C2605.51,-57.2536 2607.72,-45.2457 2609.38,-36.2254"/>
<polygon fill="midnightblue" stroke="midnightblue" points="2599.97,-67.9595 2601.61,-78.4281 2606.86,-69.2277 2599.97,-67.9595"/>
</g>
<!-- Node87 -->
<g id="node32" class="node"><title>Node87</title>
<g id="a_node32"><a xlink:href="_setup__2017_plus___new_tagger___base_8cc.html" target="_top" xlink:title="src/expconfig/setups\l/Setup_2017Plus_NewTagger\l_Base.cc">
<polygon fill="white" stroke="black" points="2684,-0.5 2684,-41.5 2830,-41.5 2830,-0.5 2684,-0.5"/>
<text text-anchor="start" x="2692" y="-29.5" font-family="Helvetica,sans-Serif" font-size="10.00">src/expconfig/setups</text>
<text text-anchor="start" x="2692" y="-18.5" font-family="Helvetica,sans-Serif" font-size="10.00">/Setup_2017Plus_NewTagger</text>
<text text-anchor="middle" x="2757" y="-7.5" font-family="Helvetica,sans-Serif" font-size="10.00">_Base.cc</text>
</a>
</g>
</g>
<!-- Node85&#45;&gt;Node87 -->
<g id="edge37" class="edge"><title>Node85&#45;&gt;Node87</title>
<path fill="none" stroke="midnightblue" d="M2648.11,-74.0487C2670.04,-63.5665 2695.44,-51.4244 2716.19,-41.5056"/>
<polygon fill="midnightblue" stroke="midnightblue" points="2646.46,-70.9577 2638.95,-78.4281 2649.48,-77.2733 2646.46,-70.9577"/>
</g>
<!-- Node88 -->
<g id="node33" class="node"><title>Node88</title>
<g id="a_node33"><a xlink:href="_setup__2018__03_8cc.html" target="_top" xlink:title="src/expconfig/setups\l/Setup_2018_03.cc">
<polygon fill="white" stroke="black" points="2848.5,-6 2848.5,-36 2955.5,-36 2955.5,-6 2848.5,-6"/>
<text text-anchor="start" x="2856.5" y="-24" font-family="Helvetica,sans-Serif" font-size="10.00">src/expconfig/setups</text>
<text text-anchor="middle" x="2902" y="-13" font-family="Helvetica,sans-Serif" font-size="10.00">/Setup_2018_03.cc</text>
</a>
</g>
</g>
<!-- Node85&#45;&gt;Node88 -->
<g id="edge38" class="edge"><title>Node85&#45;&gt;Node88</title>
<path fill="none" stroke="midnightblue" d="M2681.27,-77.9672C2752.8,-61.4741 2772.49,-60.0999 2839,-42 2845.64,-40.192 2852.63,-38.1328 2859.44,-36.0396"/>
<polygon fill="midnightblue" stroke="midnightblue" points="2680.26,-74.6086 2671.31,-80.283 2681.84,-81.4266 2680.26,-74.6086"/>
</g>
</g>
</svg>
