<?xml version="1.0" encoding="UTF-8" standalone="no"?>
<!DOCTYPE svg PUBLIC "-//W3C//DTD SVG 1.1//EN"
 "http://www.w3.org/Graphics/SVG/1.1/DTD/svg11.dtd">
<!-- Generated by graphviz version 2.36.0 (20140111.2315)
 -->
<!-- Title: src/analysis/physics/Plotter.h Pages: 1 -->
<svg width="1949pt" height="274pt"
 viewBox="0.00 0.00 1949.00 274.00" xmlns="http://www.w3.org/2000/svg" xmlns:xlink="http://www.w3.org/1999/xlink">
<g id="graph0" class="graph" transform="scale(1 1) rotate(0) translate(4 270)">
<title>src/analysis/physics/Plotter.h</title>
<polygon fill="white" stroke="none" points="-4,4 -4,-270 1945,-270 1945,4 -4,4"/>
<!-- Node32 -->
<g id="node1" class="node"><title>Node32</title>
<polygon fill="#bfbfbf" stroke="black" points="717,-235 717,-265 823,-265 823,-235 717,-235"/>
<text text-anchor="start" x="725" y="-253" font-family="Helvetica,sans-Serif" font-size="10.00">src/analysis/physics</text>
<text text-anchor="middle" x="770" y="-242" font-family="Helvetica,sans-Serif" font-size="10.00">/Plotter.h</text>
</g>
<!-- Node33 -->
<g id="node2" class="node"><title>Node33</title>
<g id="a_node2"><a xlink:href="_ant-plot_8cc.html" target="_top" xlink:title="progs/Ant&#45;plot.cc">
<polygon fill="white" stroke="black" points="-0.5,-167.5 -0.5,-186.5 90.5,-186.5 90.5,-167.5 -0.5,-167.5"/>
<text text-anchor="middle" x="45" y="-174.5" font-family="Helvetica,sans-Serif" font-size="10.00">progs/Ant&#45;plot.cc</text>
</a>
</g>
</g>
<!-- Node32&#45;&gt;Node33 -->
<g id="edge1" class="edge"><title>Node32&#45;&gt;Node33</title>
<path fill="none" stroke="midnightblue" d="M706.646,-249.882C586.766,-250.3 319.118,-245.247 100,-198 87.8829,-195.387 74.8237,-190.723 64.4724,-186.555"/>
<polygon fill="midnightblue" stroke="midnightblue" points="706.763,-253.382 716.746,-249.833 706.729,-246.382 706.763,-253.382"/>
</g>
<!-- Node34 -->
<g id="node3" class="node"><title>Node34</title>
<g id="a_node3"><a xlink:href="_p_i_d_efficiency_check_8cc.html" target="_top" xlink:title="src/analysis/physics\l/check/PIDEfficiencyCheck.cc">
<polygon fill="white" stroke="black" points="109,-162 109,-192 261,-192 261,-162 109,-162"/>
<text text-anchor="start" x="117" y="-180" font-family="Helvetica,sans-Serif" font-size="10.00">src/analysis/physics</text>
<text text-anchor="middle" x="185" y="-169" font-family="Helvetica,sans-Serif" font-size="10.00">/check/PIDEfficiencyCheck.cc</text>
</a>
</g>
</g>
<!-- Node32&#45;&gt;Node34 -->
<g id="edge2" class="edge"><title>Node32&#45;&gt;Node34</title>
<path fill="none" stroke="midnightblue" d="M706.741,-245.183C611.514,-238.844 425.881,-224.176 270,-198 260.282,-196.368 250.019,-194.276 240.115,-192.062"/>
<polygon fill="midnightblue" stroke="midnightblue" points="706.576,-248.68 716.784,-245.843 707.035,-241.695 706.576,-248.68"/>
</g>
<!-- Node35 -->
<g id="node4" class="node"><title>Node35</title>
<g id="a_node4"><a xlink:href="_meson_dalitz_decays__plot_8cc.html" target="_top" xlink:title="src/analysis/physics\l/common/MesonDalitzDecays\l_plot.cc">
<polygon fill="white" stroke="black" points="279.5,-156.5 279.5,-197.5 428.5,-197.5 428.5,-156.5 279.5,-156.5"/>
<text text-anchor="start" x="287.5" y="-185.5" font-family="Helvetica,sans-Serif" font-size="10.00">src/analysis/physics</text>
<text text-anchor="start" x="287.5" y="-174.5" font-family="Helvetica,sans-Serif" font-size="10.00">/common/MesonDalitzDecays</text>
<text text-anchor="middle" x="354" y="-163.5" font-family="Helvetica,sans-Serif" font-size="10.00">_plot.cc</text>
</a>
</g>
</g>
<!-- Node32&#45;&gt;Node35 -->
<g id="edge3" class="edge"><title>Node32&#45;&gt;Node35</title>
<path fill="none" stroke="midnightblue" d="M706.985,-240.964C639.815,-232.022 530.477,-216.386 437,-198 434.237,-197.456 431.426,-196.883 428.591,-196.288"/>
<polygon fill="midnightblue" stroke="midnightblue" points="706.616,-244.446 716.989,-242.288 707.534,-237.506 706.616,-244.446"/>
</g>
<!-- Node36 -->
<g id="node5" class="node"><title>Node36</title>
<g id="a_node5"><a xlink:href="_etap_dalitz__plot_8cc.html" target="_top" xlink:title="src/analysis/physics\l/etaprime/EtapDalitz\l_plot.cc">
<polygon fill="white" stroke="black" points="446,-156.5 446,-197.5 552,-197.5 552,-156.5 446,-156.5"/>
<text text-anchor="start" x="454" y="-185.5" font-family="Helvetica,sans-Serif" font-size="10.00">src/analysis/physics</text>
<text text-anchor="start" x="454" y="-174.5" font-family="Helvetica,sans-Serif" font-size="10.00">/etaprime/EtapDalitz</text>
<text text-anchor="middle" x="499" y="-163.5" font-family="Helvetica,sans-Serif" font-size="10.00">_plot.cc</text>
</a>
</g>
</g>
<!-- Node32&#45;&gt;Node36 -->
<g id="edge4" class="edge"><title>Node32&#45;&gt;Node36</title>
<path fill="none" stroke="midnightblue" d="M706.798,-234.664C665.424,-224.994 610.279,-211.566 562,-198 558.796,-197.1 555.51,-196.147 552.201,-195.165"/>
<polygon fill="midnightblue" stroke="midnightblue" points="706.206,-238.12 716.739,-236.977 707.793,-231.302 706.206,-238.12"/>
</g>
<!-- Node37 -->
<g id="node6" class="node"><title>Node37</title>
<g id="a_node6"><a xlink:href="_etap_omega_g__plot_8cc.html" target="_top" xlink:title="src/analysis/physics\l/etaprime/EtapOmegaG\l_plot.cc">
<polygon fill="white" stroke="black" points="570.5,-156.5 570.5,-197.5 689.5,-197.5 689.5,-156.5 570.5,-156.5"/>
<text text-anchor="start" x="578.5" y="-185.5" font-family="Helvetica,sans-Serif" font-size="10.00">src/analysis/physics</text>
<text text-anchor="start" x="578.5" y="-174.5" font-family="Helvetica,sans-Serif" font-size="10.00">/etaprime/EtapOmegaG</text>
<text text-anchor="middle" x="630" y="-163.5" font-family="Helvetica,sans-Serif" font-size="10.00">_plot.cc</text>
</a>
</g>
</g>
<!-- Node32&#45;&gt;Node37 -->
<g id="edge5" class="edge"><title>Node32&#45;&gt;Node37</title>
<path fill="none" stroke="midnightblue" d="M733.254,-230.364C713.308,-220.249 688.671,-207.755 668.465,-197.507"/>
<polygon fill="midnightblue" stroke="midnightblue" points="731.839,-233.571 742.341,-234.973 735.005,-227.328 731.839,-233.571"/>
</g>
<!-- Node38 -->
<g id="node7" class="node"><title>Node38</title>
<g id="a_node7"><a xlink:href="_omega___eta_g_8cc.html" target="_top" xlink:title="src/analysis/physics\l/omega/Omega_EtaG.cc">
<polygon fill="white" stroke="black" points="707.5,-162 707.5,-192 832.5,-192 832.5,-162 707.5,-162"/>
<text text-anchor="start" x="715.5" y="-180" font-family="Helvetica,sans-Serif" font-size="10.00">src/analysis/physics</text>
<text text-anchor="middle" x="770" y="-169" font-family="Helvetica,sans-Serif" font-size="10.00">/omega/Omega_EtaG.cc</text>
</a>
</g>
</g>
<!-- Node32&#45;&gt;Node38 -->
<g id="edge6" class="edge"><title>Node32&#45;&gt;Node38</title>
<path fill="none" stroke="midnightblue" d="M770,-224.898C770,-214.131 770,-201.801 770,-192.486"/>
<polygon fill="midnightblue" stroke="midnightblue" points="766.5,-224.973 770,-234.973 773.5,-224.973 766.5,-224.973"/>
</g>
<!-- Node39 -->
<g id="node8" class="node"><title>Node39</title>
<g id="a_node8"><a xlink:href="_plotter_8cc.html" target="_top" xlink:title="src/analysis/physics\l/Plotter.cc">
<polygon fill="white" stroke="black" points="851,-162 851,-192 957,-192 957,-162 851,-162"/>
<text text-anchor="start" x="859" y="-180" font-family="Helvetica,sans-Serif" font-size="10.00">src/analysis/physics</text>
<text text-anchor="middle" x="904" y="-169" font-family="Helvetica,sans-Serif" font-size="10.00">/Plotter.cc</text>
</a>
</g>
</g>
<!-- Node32&#45;&gt;Node39 -->
<g id="edge7" class="edge"><title>Node32&#45;&gt;Node39</title>
<path fill="none" stroke="midnightblue" d="M805.378,-230.255C827.859,-218.343 856.503,-203.166 877.122,-192.241"/>
<polygon fill="midnightblue" stroke="midnightblue" points="803.672,-227.198 796.474,-234.973 806.949,-233.383 803.672,-227.198"/>
</g>
<!-- Node40 -->
<g id="node9" class="node"><title>Node40</title>
<g id="a_node9"><a xlink:href="sigma_plus_8cc.html" target="_top" xlink:title="src/analysis/physics\l/production/sigmaPlus.cc">
<polygon fill="white" stroke="black" points="894.5,-6 894.5,-36 1021.5,-36 1021.5,-6 894.5,-6"/>
<text text-anchor="start" x="902.5" y="-24" font-family="Helvetica,sans-Serif" font-size="10.00">src/analysis/physics</text>
<text text-anchor="middle" x="958" y="-13" font-family="Helvetica,sans-Serif" font-size="10.00">/production/sigmaPlus.cc</text>
</a>
</g>
</g>
<!-- Node32&#45;&gt;Node40 -->
<g id="edge8" class="edge"><title>Node32&#45;&gt;Node40</title>
<path fill="none" stroke="midnightblue" d="M832.947,-240.917C883.562,-232.973 948.811,-218.968 965,-198 1002.56,-149.349 976.825,-68.5963 964.032,-36.1437"/>
<polygon fill="midnightblue" stroke="midnightblue" points="832.398,-237.46 823.038,-242.425 833.451,-244.381 832.398,-237.46"/>
</g>
<!-- Node41 -->
<g id="node10" class="node"><title>Node41</title>
<g id="a_node10"><a xlink:href="triple_pi0_8cc.html" target="_top" xlink:title="src/analysis/physics\l/production/triplePi0.cc">
<polygon fill="white" stroke="black" points="1825,-6 1825,-36 1941,-36 1941,-6 1825,-6"/>
<text text-anchor="start" x="1833" y="-24" font-family="Helvetica,sans-Serif" font-size="10.00">src/analysis/physics</text>
<text text-anchor="middle" x="1883" y="-13" font-family="Helvetica,sans-Serif" font-size="10.00">/production/triplePi0.cc</text>
</a>
</g>
</g>
<!-- Node32&#45;&gt;Node41 -->
<g id="edge9" class="edge"><title>Node32&#45;&gt;Node41</title>
<path fill="none" stroke="midnightblue" d="M833.286,-247.054C940.546,-242.952 1164.57,-230.909 1351,-198 1482.86,-174.724 1515.07,-162.635 1642,-120 1718.86,-94.1849 1806.42,-56.3905 1851.89,-36.1077"/>
<polygon fill="midnightblue" stroke="midnightblue" points="833.139,-243.557 823.276,-247.426 833.399,-250.552 833.139,-243.557"/>
</g>
<!-- Node42 -->
<g id="node11" class="node"><title>Node42</title>
<g id="a_node11"><a xlink:href="src_2analysis_2physics_2scratch_2wolfes_2tools_2tools_8h.html" target="_top" xlink:title="src/analysis/physics\l/scratch/wolfes/tools\l/tools.h">
<polygon fill="white" stroke="black" points="1235.5,-156.5 1235.5,-197.5 1342.5,-197.5 1342.5,-156.5 1235.5,-156.5"/>
<text text-anchor="start" x="1243.5" y="-185.5" font-family="Helvetica,sans-Serif" font-size="10.00">src/analysis/physics</text>
<text text-anchor="start" x="1243.5" y="-174.5" font-family="Helvetica,sans-Serif" font-size="10.00">/scratch/wolfes/tools</text>
<text text-anchor="middle" x="1289" y="-163.5" font-family="Helvetica,sans-Serif" font-size="10.00">/tools.h</text>
</a>
</g>
</g>
<!-- Node32&#45;&gt;Node42 -->
<g id="edge10" class="edge"><title>Node32&#45;&gt;Node42</title>
<path fill="none" stroke="midnightblue" d="M833.053,-240.374C936.043,-226.285 1138.55,-198.582 1235.2,-185.361"/>
<polygon fill="midnightblue" stroke="midnightblue" points="832.536,-236.912 823.103,-241.735 833.485,-243.848 832.536,-236.912"/>
</g>
<!-- Node52 -->
<g id="node21" class="node"><title>Node52</title>
<g id="a_node21"><a xlink:href="physics_2tunings_2_trigger_simulation_8cc.html" target="_top" xlink:title="src/analysis/physics\l/tunings/TriggerSimulation.cc">
<polygon fill="white" stroke="black" points="1690.5,-162 1690.5,-192 1833.5,-192 1833.5,-162 1690.5,-162"/>
<text text-anchor="start" x="1698.5" y="-180" font-family="Helvetica,sans-Serif" font-size="10.00">src/analysis/physics</text>
<text text-anchor="middle" x="1762" y="-169" font-family="Helvetica,sans-Serif" font-size="10.00">/tunings/TriggerSimulation.cc</text>
</a>
</g>
</g>
<!-- Node32&#45;&gt;Node52 -->
<g id="edge24" class="edge"><title>Node32&#45;&gt;Node52</title>
<path fill="none" stroke="midnightblue" d="M833.432,-249.173C981.68,-248.762 1362.09,-242.994 1676,-198 1686.47,-196.499 1697.54,-194.355 1708.13,-192.022"/>
<polygon fill="midnightblue" stroke="midnightblue" points="833.156,-245.673 823.163,-249.193 833.171,-252.673 833.156,-245.673"/>
</g>
<!-- Node43 -->
<g id="node12" class="node"><title>Node43</title>
<g id="a_node12"><a xlink:href="sigma_plus_8h.html" target="_top" xlink:title="src/analysis/physics\l/production/sigmaPlus.h">
<polygon fill="white" stroke="black" points="1139,-84 1139,-114 1261,-114 1261,-84 1139,-84"/>
<text text-anchor="start" x="1147" y="-102" font-family="Helvetica,sans-Serif" font-size="10.00">src/analysis/physics</text>
<text text-anchor="middle" x="1200" y="-91" font-family="Helvetica,sans-Serif" font-size="10.00">/production/sigmaPlus.h</text>
</a>
</g>
</g>
<!-- Node42&#45;&gt;Node43 -->
<g id="edge11" class="edge"><title>Node42&#45;&gt;Node43</title>
<path fill="none" stroke="midnightblue" d="M1258.15,-149.658C1244.22,-137.761 1228.31,-124.176 1216.66,-114.225"/>
<polygon fill="midnightblue" stroke="midnightblue" points="1256.2,-152.596 1266.08,-156.428 1260.75,-147.273 1256.2,-152.596"/>
</g>
<!-- Node45 -->
<g id="node14" class="node"><title>Node45</title>
<g id="a_node14"><a xlink:href="single_pi0_8h.html" target="_top" xlink:title="src/analysis/physics\l/production/singlePi0.h">
<polygon fill="white" stroke="black" points="1317,-84 1317,-114 1433,-114 1433,-84 1317,-84"/>
<text text-anchor="start" x="1325" y="-102" font-family="Helvetica,sans-Serif" font-size="10.00">src/analysis/physics</text>
<text text-anchor="middle" x="1375" y="-91" font-family="Helvetica,sans-Serif" font-size="10.00">/production/singlePi0.h</text>
</a>
</g>
</g>
<!-- Node42&#45;&gt;Node45 -->
<g id="edge14" class="edge"><title>Node42&#45;&gt;Node45</title>
<path fill="none" stroke="midnightblue" d="M1318.81,-149.658C1332.27,-137.761 1347.64,-124.176 1358.9,-114.225"/>
<polygon fill="midnightblue" stroke="midnightblue" points="1316.32,-147.183 1311.15,-156.428 1320.96,-152.429 1316.32,-147.183"/>
</g>
<!-- Node47 -->
<g id="node16" class="node"><title>Node47</title>
<g id="a_node16"><a xlink:href="single_pi0_plots_8cc.html" target="_top" xlink:title="src/analysis/physics\l/production/singlePi0Plots.cc">
<polygon fill="white" stroke="black" points="1206.5,-6 1206.5,-36 1349.5,-36 1349.5,-6 1206.5,-6"/>
<text text-anchor="start" x="1214.5" y="-24" font-family="Helvetica,sans-Serif" font-size="10.00">src/analysis/physics</text>
<text text-anchor="middle" x="1278" y="-13" font-family="Helvetica,sans-Serif" font-size="10.00">/production/singlePi0Plots.cc</text>
</a>
</g>
</g>
<!-- Node42&#45;&gt;Node47 -->
<g id="edge17" class="edge"><title>Node42&#45;&gt;Node47</title>
<path fill="none" stroke="midnightblue" d="M1286.89,-146.506C1284.53,-113.487 1280.81,-61.3389 1279.02,-36.3195"/>
<polygon fill="midnightblue" stroke="midnightblue" points="1283.4,-146.771 1287.61,-156.496 1290.39,-146.272 1283.4,-146.771"/>
</g>
<!-- Node48 -->
<g id="node17" class="node"><title>Node48</title>
<g id="a_node17"><a xlink:href="triple_pi0_8h.html" target="_top" xlink:title="src/analysis/physics\l/production/triplePi0.h">
<polygon fill="white" stroke="black" points="1522.5,-84 1522.5,-114 1633.5,-114 1633.5,-84 1522.5,-84"/>
<text text-anchor="start" x="1530.5" y="-102" font-family="Helvetica,sans-Serif" font-size="10.00">src/analysis/physics</text>
<text text-anchor="middle" x="1578" y="-91" font-family="Helvetica,sans-Serif" font-size="10.00">/production/triplePi0.h</text>
</a>
</g>
</g>
<!-- Node42&#45;&gt;Node48 -->
<g id="edge18" class="edge"><title>Node42&#45;&gt;Node48</title>
<path fill="none" stroke="midnightblue" d="M1352.39,-159.331C1403.96,-145.767 1475.93,-126.842 1524.61,-114.041"/>
<polygon fill="midnightblue" stroke="midnightblue" points="1351.46,-155.955 1342.68,-161.883 1353.24,-162.725 1351.46,-155.955"/>
</g>
<!-- Node50 -->
<g id="node19" class="node"><title>Node50</title>
<g id="a_node19"><a xlink:href="_proton_vertex_test_8cc.html" target="_top" xlink:title="src/analysis/physics\l/scratch/wolfes/ProtonVertex\lTest.cc">
<polygon fill="white" stroke="black" points="1506.5,-0.5 1506.5,-41.5 1649.5,-41.5 1649.5,-0.5 1506.5,-0.5"/>
<text text-anchor="start" x="1514.5" y="-29.5" font-family="Helvetica,sans-Serif" font-size="10.00">src/analysis/physics</text>
<text text-anchor="start" x="1514.5" y="-18.5" font-family="Helvetica,sans-Serif" font-size="10.00">/scratch/wolfes/ProtonVertex</text>
<text text-anchor="middle" x="1578" y="-7.5" font-family="Helvetica,sans-Serif" font-size="10.00">Test.cc</text>
</a>
</g>
</g>
<!-- Node42&#45;&gt;Node50 -->
<g id="edge22" class="edge"><title>Node42&#45;&gt;Node50</title>
<path fill="none" stroke="midnightblue" d="M1352.22,-156.948C1380.18,-147.46 1412.99,-134.833 1441,-120 1483.64,-97.4207 1528.23,-63.2363 1554.54,-41.7864"/>
<polygon fill="midnightblue" stroke="midnightblue" points="1350.93,-153.688 1342.55,-160.172 1353.15,-160.329 1350.93,-153.688"/>
</g>
<!-- Node51 -->
<g id="node20" class="node"><title>Node51</title>
<g id="a_node20"><a xlink:href="tools_8cc.html" target="_top" xlink:title="src/analysis/physics\l/scratch/wolfes/tools\l/tools.cc">
<polygon fill="white" stroke="black" points="1013.5,-78.5 1013.5,-119.5 1120.5,-119.5 1120.5,-78.5 1013.5,-78.5"/>
<text text-anchor="start" x="1021.5" y="-107.5" font-family="Helvetica,sans-Serif" font-size="10.00">src/analysis/physics</text>
<text text-anchor="start" x="1021.5" y="-96.5" font-family="Helvetica,sans-Serif" font-size="10.00">/scratch/wolfes/tools</text>
<text text-anchor="middle" x="1067" y="-85.5" font-family="Helvetica,sans-Serif" font-size="10.00">/tools.cc</text>
</a>
</g>
</g>
<!-- Node42&#45;&gt;Node51 -->
<g id="edge23" class="edge"><title>Node42&#45;&gt;Node51</title>
<path fill="none" stroke="midnightblue" d="M1225.65,-154.313C1192.46,-142.952 1152.26,-129.188 1120.63,-118.36"/>
<polygon fill="midnightblue" stroke="midnightblue" points="1224.67,-157.675 1235.26,-157.603 1226.93,-151.052 1224.67,-157.675"/>
</g>
<!-- Node43&#45;&gt;Node40 -->
<g id="edge12" class="edge"><title>Node43&#45;&gt;Node40</title>
<path fill="none" stroke="midnightblue" d="M1145.59,-80.9111C1102.54,-67.3913 1043.16,-48.7431 1002.82,-36.0749"/>
<polygon fill="midnightblue" stroke="midnightblue" points="1144.74,-84.3148 1155.33,-83.9719 1146.84,-77.6364 1144.74,-84.3148"/>
</g>
<!-- Node44 -->
<g id="node13" class="node"><title>Node44</title>
<g id="a_node13"><a xlink:href="sigma_plus_plots_8cc.html" target="_top" xlink:title="src/analysis/physics\l/production/sigmaPlusPlots.cc">
<polygon fill="white" stroke="black" points="1039.5,-6 1039.5,-36 1188.5,-36 1188.5,-6 1039.5,-6"/>
<text text-anchor="start" x="1047.5" y="-24" font-family="Helvetica,sans-Serif" font-size="10.00">src/analysis/physics</text>
<text text-anchor="middle" x="1114" y="-13" font-family="Helvetica,sans-Serif" font-size="10.00">/production/sigmaPlusPlots.cc</text>
</a>
</g>
</g>
<!-- Node43&#45;&gt;Node44 -->
<g id="edge13" class="edge"><title>Node43&#45;&gt;Node44</title>
<path fill="none" stroke="midnightblue" d="M1176.12,-76.8941C1161.45,-63.9322 1143.06,-47.6775 1130.1,-36.2309"/>
<polygon fill="midnightblue" stroke="midnightblue" points="1174.01,-79.7056 1183.82,-83.705 1178.65,-74.4603 1174.01,-79.7056"/>
</g>
<!-- Node46 -->
<g id="node15" class="node"><title>Node46</title>
<g id="a_node15"><a xlink:href="single_pi0_8cc.html" target="_top" xlink:title="src/analysis/physics\l/production/singlePi0.cc">
<polygon fill="white" stroke="black" points="1367.5,-6 1367.5,-36 1488.5,-36 1488.5,-6 1367.5,-6"/>
<text text-anchor="start" x="1375.5" y="-24" font-family="Helvetica,sans-Serif" font-size="10.00">src/analysis/physics</text>
<text text-anchor="middle" x="1428" y="-13" font-family="Helvetica,sans-Serif" font-size="10.00">/production/singlePi0.cc</text>
</a>
</g>
</g>
<!-- Node45&#45;&gt;Node46 -->
<g id="edge15" class="edge"><title>Node45&#45;&gt;Node46</title>
<path fill="none" stroke="midnightblue" d="M1390.73,-75.4408C1399.59,-62.7348 1410.39,-47.2536 1418.08,-36.2309"/>
<polygon fill="midnightblue" stroke="midnightblue" points="1387.82,-73.5005 1384.97,-83.705 1393.56,-77.5046 1387.82,-73.5005"/>
</g>
<!-- Node45&#45;&gt;Node47 -->
<g id="edge16" class="edge"><title>Node45&#45;&gt;Node47</title>
<path fill="none" stroke="midnightblue" d="M1348.52,-77.2533C1331.9,-64.2337 1310.91,-47.7835 1296.16,-36.2309"/>
<polygon fill="midnightblue" stroke="midnightblue" points="1346.72,-80.2926 1356.76,-83.705 1351.04,-74.7824 1346.72,-80.2926"/>
</g>
<!-- Node48&#45;&gt;Node41 -->
<g id="edge19" class="edge"><title>Node48&#45;&gt;Node41</title>
<path fill="none" stroke="midnightblue" d="M1635.53,-81.2363C1639.74,-80.1094 1643.93,-79.0187 1648,-78 1721.65,-59.5606 1741.42,-60.7248 1815,-42 1822.16,-40.1792 1829.69,-38.1132 1837.04,-36.017"/>
<polygon fill="midnightblue" stroke="midnightblue" points="1634.44,-77.9066 1625.71,-83.9146 1636.28,-84.6599 1634.44,-77.9066"/>
</g>
<!-- Node49 -->
<g id="node18" class="node"><title>Node49</title>
<g id="a_node18"><a xlink:href="triple_pi0_plots_8cc.html" target="_top" xlink:title="src/analysis/physics\l/production/triplePi0Plots.cc">
<polygon fill="white" stroke="black" points="1667.5,-6 1667.5,-36 1806.5,-36 1806.5,-6 1667.5,-6"/>
<text text-anchor="start" x="1675.5" y="-24" font-family="Helvetica,sans-Serif" font-size="10.00">src/analysis/physics</text>
<text text-anchor="middle" x="1737" y="-13" font-family="Helvetica,sans-Serif" font-size="10.00">/production/triplePi0Plots.cc</text>
</a>
</g>
</g>
<!-- Node48&#45;&gt;Node49 -->
<g id="edge20" class="edge"><title>Node48&#45;&gt;Node49</title>
<path fill="none" stroke="midnightblue" d="M1616.65,-79.5244C1644.68,-66.1265 1682.01,-48.2827 1707.62,-36.0413"/>
<polygon fill="midnightblue" stroke="midnightblue" points="1615.05,-76.4127 1607.53,-83.8831 1618.07,-82.7283 1615.05,-76.4127"/>
</g>
<!-- Node48&#45;&gt;Node50 -->
<g id="edge21" class="edge"><title>Node48&#45;&gt;Node50</title>
<path fill="none" stroke="midnightblue" d="M1578,-73.656C1578,-63.3257 1578,-51.4425 1578,-41.68"/>
<polygon fill="midnightblue" stroke="midnightblue" points="1574.5,-73.7049 1578,-83.705 1581.5,-73.705 1574.5,-73.7049"/>
</g>
</g>
</svg>
