<?xml version="1.0" encoding="UTF-8" standalone="no"?>
<!DOCTYPE svg PUBLIC "-//W3C//DTD SVG 1.1//EN"
 "http://www.w3.org/Graphics/SVG/1.1/DTD/svg11.dtd">
<!-- Generated by graphviz version 2.36.0 (20140111.2315)
 -->
<!-- Title: src/base/ProgressCounter.h Pages: 1 -->
<svg width="1943pt" height="164pt"
 viewBox="0.00 0.00 1943.00 164.00" xmlns="http://www.w3.org/2000/svg" xmlns:xlink="http://www.w3.org/1999/xlink">
<g id="graph0" class="graph" transform="scale(1 1) rotate(0) translate(4 160)">
<title>src/base/ProgressCounter.h</title>
<polygon fill="white" stroke="none" points="-4,4 -4,-160 1939,-160 1939,4 -4,4"/>
<!-- Node7 -->
<g id="node1" class="node"><title>Node7</title>
<polygon fill="#bfbfbf" stroke="black" points="536.5,-136.5 536.5,-155.5 675.5,-155.5 675.5,-136.5 536.5,-136.5"/>
<text text-anchor="middle" x="606" y="-143.5" font-family="Helvetica,sans-Serif" font-size="10.00">src/base/ProgressCounter.h</text>
</g>
<!-- Node8 -->
<g id="node2" class="node"><title>Node8</title>
<g id="a_node2"><a xlink:href="_ant-hadd_8cc.html" target="_top" xlink:title="progs/Ant&#45;hadd.cc">
<polygon fill="white" stroke="black" points="0,-74.5 0,-93.5 96,-93.5 96,-74.5 0,-74.5"/>
<text text-anchor="middle" x="48" y="-81.5" font-family="Helvetica,sans-Serif" font-size="10.00">progs/Ant&#45;hadd.cc</text>
</a>
</g>
</g>
<!-- Node7&#45;&gt;Node8 -->
<g id="edge1" class="edge"><title>Node7&#45;&gt;Node8</title>
<path fill="none" stroke="midnightblue" d="M525.963,-141.951C426.606,-137.218 252.257,-125.801 105,-100 95.6263,-98.3576 85.5407,-95.9289 76.4976,-93.502"/>
<polygon fill="midnightblue" stroke="midnightblue" points="526.073,-145.46 536.225,-142.429 526.398,-138.468 526.073,-145.46"/>
</g>
<!-- Node9 -->
<g id="node3" class="node"><title>Node9</title>
<g id="a_node3"><a xlink:href="_ant-make_sigmas_8cc.html" target="_top" xlink:title="progs/Ant&#45;makeSigmas.cc">
<polygon fill="white" stroke="black" points="114,-74.5 114,-93.5 246,-93.5 246,-74.5 114,-74.5"/>
<text text-anchor="middle" x="180" y="-81.5" font-family="Helvetica,sans-Serif" font-size="10.00">progs/Ant&#45;makeSigmas.cc</text>
</a>
</g>
</g>
<!-- Node7&#45;&gt;Node9 -->
<g id="edge2" class="edge"><title>Node7&#45;&gt;Node9</title>
<path fill="none" stroke="midnightblue" d="M525.944,-136.35C454.651,-128.263 347.601,-115.177 255,-100 243.6,-98.1315 231.286,-95.8006 219.996,-93.5374"/>
<polygon fill="midnightblue" stroke="midnightblue" points="525.868,-139.863 536.197,-137.506 526.653,-132.907 525.868,-139.863"/>
</g>
<!-- Node10 -->
<g id="node4" class="node"><title>Node10</title>
<g id="a_node4"><a xlink:href="_ant-mc-pi0gun_8cc.html" target="_top" xlink:title="progs/Ant&#45;mc&#45;pi0gun.cc">
<polygon fill="white" stroke="black" points="264,-74.5 264,-93.5 384,-93.5 384,-74.5 264,-74.5"/>
<text text-anchor="middle" x="324" y="-81.5" font-family="Helvetica,sans-Serif" font-size="10.00">progs/Ant&#45;mc&#45;pi0gun.cc</text>
</a>
</g>
</g>
<!-- Node7&#45;&gt;Node10 -->
<g id="edge3" class="edge"><title>Node7&#45;&gt;Node10</title>
<path fill="none" stroke="midnightblue" d="M555.826,-134.378C512.865,-125.277 449.359,-111.807 394,-100 384.154,-97.9001 373.531,-95.6274 363.608,-93.5014"/>
<polygon fill="midnightblue" stroke="midnightblue" points="555.239,-137.832 565.748,-136.48 556.69,-130.984 555.239,-137.832"/>
</g>
<!-- Node11 -->
<g id="node5" class="node"><title>Node11</title>
<g id="a_node5"><a xlink:href="_ant-plot_8cc.html" target="_top" xlink:title="progs/Ant&#45;plot.cc">
<polygon fill="white" stroke="black" points="402.5,-74.5 402.5,-93.5 493.5,-93.5 493.5,-74.5 402.5,-74.5"/>
<text text-anchor="middle" x="448" y="-81.5" font-family="Helvetica,sans-Serif" font-size="10.00">progs/Ant&#45;plot.cc</text>
</a>
</g>
</g>
<!-- Node7&#45;&gt;Node11 -->
<g id="edge4" class="edge"><title>Node7&#45;&gt;Node11</title>
<path fill="none" stroke="midnightblue" d="M573.956,-132.831C543.247,-121.17 497.679,-103.865 470.596,-93.5806"/>
<polygon fill="midnightblue" stroke="midnightblue" points="572.771,-136.125 583.362,-136.403 575.256,-129.581 572.771,-136.125"/>
</g>
<!-- Node12 -->
<g id="node6" class="node"><title>Node12</title>
<g id="a_node6"><a xlink:href="_p_c_a_8cc.html" target="_top" xlink:title="Tool to perform a Principal Component Analysis, based on ROOTs TPrincipal class, to create principal ...">
<polygon fill="white" stroke="black" points="512,-74.5 512,-93.5 590,-93.5 590,-74.5 512,-74.5"/>
<text text-anchor="middle" x="551" y="-81.5" font-family="Helvetica,sans-Serif" font-size="10.00">progs/PCA.cc</text>
</a>
</g>
</g>
<!-- Node7&#45;&gt;Node12 -->
<g id="edge5" class="edge"><title>Node7&#45;&gt;Node12</title>
<path fill="none" stroke="midnightblue" d="M591.208,-128.863C580.798,-117.506 567.273,-102.752 558.866,-93.5806"/>
<polygon fill="midnightblue" stroke="midnightblue" points="588.783,-131.397 598.12,-136.403 593.943,-126.667 588.783,-131.397"/>
</g>
<!-- Node13 -->
<g id="node7" class="node"><title>Node13</title>
<g id="a_node7"><a xlink:href="_physics_manager_8cc.html" target="_top" xlink:title="src/analysis/physics\l/PhysicsManager.cc">
<polygon fill="white" stroke="black" points="608,-69 608,-99 714,-99 714,-69 608,-69"/>
<text text-anchor="start" x="616" y="-87" font-family="Helvetica,sans-Serif" font-size="10.00">src/analysis/physics</text>
<text text-anchor="middle" x="661" y="-76" font-family="Helvetica,sans-Serif" font-size="10.00">/PhysicsManager.cc</text>
</a>
</g>
</g>
<!-- Node7&#45;&gt;Node13 -->
<g id="edge6" class="edge"><title>Node7&#45;&gt;Node13</title>
<path fill="none" stroke="midnightblue" d="M620.706,-128.957C629.22,-119.669 639.839,-108.085 648.038,-99.1408"/>
<polygon fill="midnightblue" stroke="midnightblue" points="618.057,-126.667 613.88,-136.403 623.217,-131.397 618.057,-126.667"/>
</g>
<!-- Node14 -->
<g id="node8" class="node"><title>Node14</title>
<g id="a_node8"><a xlink:href="_progress_counter_8cc.html" target="_top" xlink:title="src/base/ProgressCounter.cc">
<polygon fill="white" stroke="black" points="732,-74.5 732,-93.5 876,-93.5 876,-74.5 732,-74.5"/>
<text text-anchor="middle" x="804" y="-81.5" font-family="Helvetica,sans-Serif" font-size="10.00">src/base/ProgressCounter.cc</text>
</a>
</g>
</g>
<!-- Node7&#45;&gt;Node14 -->
<g id="edge7" class="edge"><title>Node7&#45;&gt;Node14</title>
<path fill="none" stroke="midnightblue" d="M644.174,-133.432C682.655,-121.771 741.156,-104.044 775.684,-93.5806"/>
<polygon fill="midnightblue" stroke="midnightblue" points="642.924,-130.154 634.369,-136.403 644.954,-136.853 642.924,-130.154"/>
</g>
<!-- Node15 -->
<g id="node9" class="node"><title>Node15</title>
<g id="a_node9"><a xlink:href="hadd_8cc.html" target="_top" xlink:title="src/root&#45;addons/analysis\l_codes/hadd.cc">
<polygon fill="white" stroke="black" points="894.5,-69 894.5,-99 1017.5,-99 1017.5,-69 894.5,-69"/>
<text text-anchor="start" x="902.5" y="-87" font-family="Helvetica,sans-Serif" font-size="10.00">src/root&#45;addons/analysis</text>
<text text-anchor="middle" x="956" y="-76" font-family="Helvetica,sans-Serif" font-size="10.00">_codes/hadd.cc</text>
</a>
</g>
</g>
<!-- Node7&#45;&gt;Node15 -->
<g id="edge8" class="edge"><title>Node7&#45;&gt;Node15</title>
<path fill="none" stroke="midnightblue" d="M674.022,-134.968C730.613,-126.396 813.219,-113.363 885,-100 888.096,-99.4236 891.265,-98.8166 894.463,-98.1907"/>
<polygon fill="midnightblue" stroke="midnightblue" points="673.484,-131.509 664.119,-136.462 674.529,-138.431 673.484,-131.509"/>
</g>
<!-- Node16 -->
<g id="node10" class="node"><title>Node16</title>
<g id="a_node10"><a xlink:href="pi0__true__calib_8cc.html" target="_top" xlink:title="src/root&#45;addons/analysis\l_codes/pi0_true_calib.cc">
<polygon fill="white" stroke="black" points="1035.5,-69 1035.5,-99 1160.5,-99 1160.5,-69 1035.5,-69"/>
<text text-anchor="start" x="1043.5" y="-87" font-family="Helvetica,sans-Serif" font-size="10.00">src/root&#45;addons/analysis</text>
<text text-anchor="middle" x="1098" y="-76" font-family="Helvetica,sans-Serif" font-size="10.00">_codes/pi0_true_calib.cc</text>
</a>
</g>
</g>
<!-- Node7&#45;&gt;Node16 -->
<g id="edge9" class="edge"><title>Node7&#45;&gt;Node16</title>
<path fill="none" stroke="midnightblue" d="M685.827,-138.807C770.545,-131.684 908.18,-118.538 1026,-100 1029.03,-99.5237 1032.12,-99.0049 1035.24,-98.4556"/>
<polygon fill="midnightblue" stroke="midnightblue" points="685.437,-135.327 675.763,-139.646 686.019,-142.303 685.437,-135.327"/>
</g>
<!-- Node17 -->
<g id="node11" class="node"><title>Node17</title>
<g id="a_node11"><a xlink:href="_raw_file_reader_8h.html" target="_top" xlink:title="src/unpacker/RawFileReader.h">
<polygon fill="white" stroke="black" points="1179,-74.5 1179,-93.5 1331,-93.5 1331,-74.5 1179,-74.5"/>
<text text-anchor="middle" x="1255" y="-81.5" font-family="Helvetica,sans-Serif" font-size="10.00">src/unpacker/RawFileReader.h</text>
</a>
</g>
</g>
<!-- Node7&#45;&gt;Node17 -->
<g id="edge10" class="edge"><title>Node7&#45;&gt;Node17</title>
<path fill="none" stroke="midnightblue" d="M685.839,-140.96C795.175,-134.894 997.492,-121.763 1169,-100 1182.53,-98.2829 1197.18,-95.9192 1210.48,-93.5757"/>
<polygon fill="midnightblue" stroke="midnightblue" points="685.346,-137.482 675.553,-141.525 685.73,-144.471 685.346,-137.482"/>
</g>
<!-- Node18 -->
<g id="node12" class="node"><title>Node18</title>
<g id="a_node12"><a xlink:href="_ant-fake_raw_8cc.html" target="_top" xlink:title="progs/Ant&#45;fakeRaw.cc">
<polygon fill="white" stroke="black" points="753,-6.5 753,-25.5 867,-25.5 867,-6.5 753,-6.5"/>
<text text-anchor="middle" x="810" y="-13.5" font-family="Helvetica,sans-Serif" font-size="10.00">progs/Ant&#45;fakeRaw.cc</text>
</a>
</g>
</g>
<!-- Node17&#45;&gt;Node18 -->
<g id="edge11" class="edge"><title>Node17&#45;&gt;Node18</title>
<path fill="none" stroke="midnightblue" d="M1198.55,-72.7387C1188.71,-71.0695 1178.57,-69.4234 1169,-68 1039.66,-48.7601 1005.84,-54.3103 877,-32 866.547,-30.1899 855.264,-27.8255 844.992,-25.5108"/>
<polygon fill="midnightblue" stroke="midnightblue" points="1198.2,-76.2305 1208.65,-74.4782 1199.39,-69.332 1198.2,-76.2305"/>
</g>
<!-- Node19 -->
<g id="node13" class="node"><title>Node19</title>
<g id="a_node13"><a xlink:href="_ant-rawdump_8cc.html" target="_top" xlink:title="progs/Ant&#45;rawdump.cc">
<polygon fill="white" stroke="black" points="885.5,-6.5 885.5,-25.5 1000.5,-25.5 1000.5,-6.5 885.5,-6.5"/>
<text text-anchor="middle" x="943" y="-13.5" font-family="Helvetica,sans-Serif" font-size="10.00">progs/Ant&#45;rawdump.cc</text>
</a>
</g>
</g>
<!-- Node17&#45;&gt;Node19 -->
<g id="edge12" class="edge"><title>Node17&#45;&gt;Node19</title>
<path fill="none" stroke="midnightblue" d="M1203.05,-72.4218C1153.43,-62.2609 1076.55,-46.3749 1010,-32 1000.45,-29.9363 990.138,-27.6556 980.54,-25.5087"/>
<polygon fill="midnightblue" stroke="midnightblue" points="1202.41,-75.8628 1212.91,-74.4379 1203.81,-69.0048 1202.41,-75.8628"/>
</g>
<!-- Node20 -->
<g id="node14" class="node"><title>Node20</title>
<g id="a_node14"><a xlink:href="_ant_8cc.html" target="_top" xlink:title="Main Ant executable. ">
<polygon fill="white" stroke="black" points="1019,-6.5 1019,-25.5 1091,-25.5 1091,-6.5 1019,-6.5"/>
<text text-anchor="middle" x="1055" y="-13.5" font-family="Helvetica,sans-Serif" font-size="10.00">progs/Ant.cc</text>
</a>
</g>
</g>
<!-- Node17&#45;&gt;Node20 -->
<g id="edge13" class="edge"><title>Node17&#45;&gt;Node20</title>
<path fill="none" stroke="midnightblue" d="M1219.31,-71.2997C1187.88,-60.9879 1140.89,-45.5416 1100,-32 1093.75,-29.9288 1087.01,-27.6872 1080.69,-25.5841"/>
<polygon fill="midnightblue" stroke="midnightblue" points="1218.34,-74.6667 1228.94,-74.4583 1220.53,-68.0154 1218.34,-74.6667"/>
</g>
<!-- Node21 -->
<g id="node15" class="node"><title>Node21</title>
<g id="a_node15"><a xlink:href="_unpacker_acqu__detail_8cc.html" target="_top" xlink:title="src/unpacker/detail\l/UnpackerAcqu_detail.cc">
<polygon fill="white" stroke="black" points="1109,-1 1109,-31 1235,-31 1235,-1 1109,-1"/>
<text text-anchor="start" x="1117" y="-19" font-family="Helvetica,sans-Serif" font-size="10.00">src/unpacker/detail</text>
<text text-anchor="middle" x="1172" y="-8" font-family="Helvetica,sans-Serif" font-size="10.00">/UnpackerAcqu_detail.cc</text>
</a>
</g>
</g>
<!-- Node17&#45;&gt;Node21 -->
<g id="edge14" class="edge"><title>Node17&#45;&gt;Node21</title>
<path fill="none" stroke="midnightblue" d="M1236.22,-68.0662C1222.32,-57.0132 1203.5,-42.0515 1189.83,-31.1815"/>
<polygon fill="midnightblue" stroke="midnightblue" points="1234.14,-70.8872 1244.15,-74.3717 1238.5,-65.4082 1234.14,-70.8872"/>
</g>
<!-- Node22 -->
<g id="node16" class="node"><title>Node22</title>
<g id="a_node16"><a xlink:href="_unpacker_acqu___file_format_mk1_8cc.html" target="_top" xlink:title="src/unpacker/detail\l/UnpackerAcqu_FileFormatMk1.cc">
<polygon fill="white" stroke="black" points="1253,-1 1253,-31 1421,-31 1421,-1 1253,-1"/>
<text text-anchor="start" x="1261" y="-19" font-family="Helvetica,sans-Serif" font-size="10.00">src/unpacker/detail</text>
<text text-anchor="middle" x="1337" y="-8" font-family="Helvetica,sans-Serif" font-size="10.00">/UnpackerAcqu_FileFormatMk1.cc</text>
</a>
</g>
</g>
<!-- Node17&#45;&gt;Node22 -->
<g id="edge15" class="edge"><title>Node17&#45;&gt;Node22</title>
<path fill="none" stroke="midnightblue" d="M1273.55,-68.0662C1287.29,-57.0132 1305.88,-42.0515 1319.38,-31.1815"/>
<polygon fill="midnightblue" stroke="midnightblue" points="1271.32,-65.375 1265.72,-74.3717 1275.7,-70.8281 1271.32,-65.375"/>
</g>
<!-- Node23 -->
<g id="node17" class="node"><title>Node23</title>
<g id="a_node17"><a xlink:href="_unpacker_acqu___file_format_mk2_8cc.html" target="_top" xlink:title="src/unpacker/detail\l/UnpackerAcqu_FileFormatMk2.cc">
<polygon fill="white" stroke="black" points="1439,-1 1439,-31 1607,-31 1607,-1 1439,-1"/>
<text text-anchor="start" x="1447" y="-19" font-family="Helvetica,sans-Serif" font-size="10.00">src/unpacker/detail</text>
<text text-anchor="middle" x="1523" y="-8" font-family="Helvetica,sans-Serif" font-size="10.00">/UnpackerAcqu_FileFormatMk2.cc</text>
</a>
</g>
</g>
<!-- Node17&#45;&gt;Node23 -->
<g id="edge16" class="edge"><title>Node17&#45;&gt;Node23</title>
<path fill="none" stroke="midnightblue" d="M1299.66,-72.0007C1345.32,-60.7577 1416.38,-43.2569 1466.05,-31.0247"/>
<polygon fill="midnightblue" stroke="midnightblue" points="1298.63,-68.6495 1289.76,-74.4393 1300.31,-75.4465 1298.63,-68.6495"/>
</g>
<!-- Node24 -->
<g id="node18" class="node"><title>Node24</title>
<g id="a_node18"><a xlink:href="_raw_file_reader_8cc.html" target="_top" xlink:title="src/unpacker/RawFileReader.cc">
<polygon fill="white" stroke="black" points="1625.5,-6.5 1625.5,-25.5 1782.5,-25.5 1782.5,-6.5 1625.5,-6.5"/>
<text text-anchor="middle" x="1704" y="-13.5" font-family="Helvetica,sans-Serif" font-size="10.00">src/unpacker/RawFileReader.cc</text>
</a>
</g>
</g>
<!-- Node17&#45;&gt;Node24 -->
<g id="edge17" class="edge"><title>Node17&#45;&gt;Node24</title>
<path fill="none" stroke="midnightblue" d="M1328.8,-73.1218C1401.63,-63.2376 1516.1,-47.3365 1615,-32 1627.85,-30.007 1641.73,-27.7295 1654.61,-25.5616"/>
<polygon fill="midnightblue" stroke="midnightblue" points="1328.24,-69.6649 1318.8,-74.4759 1329.18,-76.6015 1328.24,-69.6649"/>
</g>
<!-- Node25 -->
<g id="node19" class="node"><title>Node25</title>
<g id="a_node19"><a xlink:href="_test_raw_file_reader_8cc.html" target="_top" xlink:title="test/unpacker/TestRawFile\lReader.cc">
<polygon fill="white" stroke="black" points="1801,-1 1801,-31 1935,-31 1935,-1 1801,-1"/>
<text text-anchor="start" x="1809" y="-19" font-family="Helvetica,sans-Serif" font-size="10.00">test/unpacker/TestRawFile</text>
<text text-anchor="middle" x="1868" y="-8" font-family="Helvetica,sans-Serif" font-size="10.00">Reader.cc</text>
</a>
</g>
</g>
<!-- Node17&#45;&gt;Node25 -->
<g id="edge18" class="edge"><title>Node17&#45;&gt;Node25</title>
<path fill="none" stroke="midnightblue" d="M1341.19,-77.3993C1447.35,-69.9032 1633.04,-54.8449 1791,-32 1794.23,-31.5321 1797.54,-31.0202 1800.87,-30.4765"/>
<polygon fill="midnightblue" stroke="midnightblue" points="1340.9,-73.911 1331.17,-78.1012 1341.39,-80.8939 1340.9,-73.911"/>
</g>
</g>
</svg>
