<?xml version="1.0" encoding="UTF-8" standalone="no"?>
<!DOCTYPE svg PUBLIC "-//W3C//DTD SVG 1.1//EN"
 "http://www.w3.org/Graphics/SVG/1.1/DTD/svg11.dtd">
<!-- Generated by graphviz version 2.36.0 (20140111.2315)
 -->
<!-- Title: src/analysis/utils/ProtonPhotonCombs.h Pages: 1 -->
<svg width="1721pt" height="196pt"
 viewBox="0.00 0.00 1721.00 196.00" xmlns="http://www.w3.org/2000/svg" xmlns:xlink="http://www.w3.org/1999/xlink">
<g id="graph0" class="graph" transform="scale(1 1) rotate(0) translate(4 192)">
<title>src/analysis/utils/ProtonPhotonCombs.h</title>
<polygon fill="white" stroke="none" points="-4,4 -4,-192 1717,-192 1717,4 -4,4"/>
<!-- Node48 -->
<g id="node1" class="node"><title>Node48</title>
<polygon fill="#bfbfbf" stroke="black" points="902.5,-157 902.5,-187 1021.5,-187 1021.5,-157 902.5,-157"/>
<text text-anchor="start" x="910.5" y="-175" font-family="Helvetica,sans-Serif" font-size="10.00">src/analysis/utils</text>
<text text-anchor="middle" x="962" y="-164" font-family="Helvetica,sans-Serif" font-size="10.00">/ProtonPhotonCombs.h</text>
</g>
<!-- Node49 -->
<g id="node2" class="node"><title>Node49</title>
<g id="a_node2"><a xlink:href="_kin_fit_i_m_check_8cc.html" target="_top" xlink:title="src/analysis/physics\l/check/KinFitIMCheck.cc">
<polygon fill="white" stroke="black" points="77,-84 77,-114 205,-114 205,-84 77,-84"/>
<text text-anchor="start" x="85" y="-102" font-family="Helvetica,sans-Serif" font-size="10.00">src/analysis/physics</text>
<text text-anchor="middle" x="141" y="-91" font-family="Helvetica,sans-Serif" font-size="10.00">/check/KinFitIMCheck.cc</text>
</a>
</g>
</g>
<!-- Node48&#45;&gt;Node49 -->
<g id="edge1" class="edge"><title>Node48&#45;&gt;Node49</title>
<path fill="none" stroke="midnightblue" d="M892.334,-170.864C759.457,-169.589 461.027,-161.83 214,-120 205.06,-118.486 195.636,-116.335 186.639,-114.001"/>
<polygon fill="midnightblue" stroke="midnightblue" points="892.348,-174.365 902.378,-170.951 892.409,-167.365 892.348,-174.365"/>
</g>
<!-- Node50 -->
<g id="node3" class="node"><title>Node50</title>
<g id="a_node3"><a xlink:href="etaprime__dalitz_8h.html" target="_top" xlink:title="src/analysis/physics\l/etaprime/etaprime_dalitz.h">
<polygon fill="white" stroke="black" points="223,-84 223,-114 357,-114 357,-84 223,-84"/>
<text text-anchor="start" x="231" y="-102" font-family="Helvetica,sans-Serif" font-size="10.00">src/analysis/physics</text>
<text text-anchor="middle" x="290" y="-91" font-family="Helvetica,sans-Serif" font-size="10.00">/etaprime/etaprime_dalitz.h</text>
</a>
</g>
</g>
<!-- Node48&#45;&gt;Node50 -->
<g id="edge2" class="edge"><title>Node48&#45;&gt;Node50</title>
<path fill="none" stroke="midnightblue" d="M892.138,-163.619C762.207,-149.891 485.011,-120.604 357.156,-107.095"/>
<polygon fill="midnightblue" stroke="midnightblue" points="892.052,-167.129 902.364,-164.699 892.788,-160.168 892.052,-167.129"/>
</g>
<!-- Node54 -->
<g id="node7" class="node"><title>Node54</title>
<g id="a_node7"><a xlink:href="_etap_omega_g_8h.html" target="_top" xlink:title="src/analysis/physics\l/etaprime/EtapOmegaG.h">
<polygon fill="white" stroke="black" points="525,-84 525,-114 653,-114 653,-84 525,-84"/>
<text text-anchor="start" x="533" y="-102" font-family="Helvetica,sans-Serif" font-size="10.00">src/analysis/physics</text>
<text text-anchor="middle" x="589" y="-91" font-family="Helvetica,sans-Serif" font-size="10.00">/etaprime/EtapOmegaG.h</text>
</a>
</g>
</g>
<!-- Node48&#45;&gt;Node54 -->
<g id="edge6" class="edge"><title>Node48&#45;&gt;Node54</title>
<path fill="none" stroke="midnightblue" d="M892.424,-158.958C835.699,-148.989 753.551,-134.206 682,-120 672.605,-118.135 662.693,-116.088 652.981,-114.038"/>
<polygon fill="midnightblue" stroke="midnightblue" points="891.905,-162.42 902.359,-160.701 893.114,-155.526 891.905,-162.42"/>
</g>
<!-- Node57 -->
<g id="node10" class="node"><title>Node57</title>
<g id="a_node10"><a xlink:href="_etap_omega_g__simple_8cc.html" target="_top" xlink:title="src/analysis/physics\l/etaprime/EtapOmegaG\l_simple.cc">
<polygon fill="white" stroke="black" points="691.5,-78.5 691.5,-119.5 810.5,-119.5 810.5,-78.5 691.5,-78.5"/>
<text text-anchor="start" x="699.5" y="-107.5" font-family="Helvetica,sans-Serif" font-size="10.00">src/analysis/physics</text>
<text text-anchor="start" x="699.5" y="-96.5" font-family="Helvetica,sans-Serif" font-size="10.00">/etaprime/EtapOmegaG</text>
<text text-anchor="middle" x="751" y="-85.5" font-family="Helvetica,sans-Serif" font-size="10.00">_simple.cc</text>
</a>
</g>
</g>
<!-- Node48&#45;&gt;Node57 -->
<g id="edge9" class="edge"><title>Node48&#45;&gt;Node57</title>
<path fill="none" stroke="midnightblue" d="M910.654,-153.722C879.932,-143.385 840.804,-130.218 808.973,-119.507"/>
<polygon fill="midnightblue" stroke="midnightblue" points="909.719,-157.101 920.313,-156.973 911.952,-150.466 909.719,-157.101"/>
</g>
<!-- Node58 -->
<g id="node11" class="node"><title>Node58</title>
<g id="a_node11"><a xlink:href="sigma_plus_8h.html" target="_top" xlink:title="src/analysis/physics\l/production/sigmaPlus.h">
<polygon fill="white" stroke="black" points="829,-84 829,-114 951,-114 951,-84 829,-84"/>
<text text-anchor="start" x="837" y="-102" font-family="Helvetica,sans-Serif" font-size="10.00">src/analysis/physics</text>
<text text-anchor="middle" x="890" y="-91" font-family="Helvetica,sans-Serif" font-size="10.00">/production/sigmaPlus.h</text>
</a>
</g>
</g>
<!-- Node48&#45;&gt;Node58 -->
<g id="edge10" class="edge"><title>Node48&#45;&gt;Node58</title>
<path fill="none" stroke="midnightblue" d="M940.583,-149.881C929.012,-138.47 915.021,-124.674 904.69,-114.486"/>
<polygon fill="midnightblue" stroke="midnightblue" points="938.197,-152.443 947.775,-156.973 943.112,-147.459 938.197,-152.443"/>
</g>
<!-- Node61 -->
<g id="node14" class="node"><title>Node61</title>
<g id="a_node14"><a xlink:href="single_pi0_8h.html" target="_top" xlink:title="src/analysis/physics\l/production/singlePi0.h">
<polygon fill="white" stroke="black" points="977,-84 977,-114 1093,-114 1093,-84 977,-84"/>
<text text-anchor="start" x="985" y="-102" font-family="Helvetica,sans-Serif" font-size="10.00">src/analysis/physics</text>
<text text-anchor="middle" x="1035" y="-91" font-family="Helvetica,sans-Serif" font-size="10.00">/production/singlePi0.h</text>
</a>
</g>
</g>
<!-- Node48&#45;&gt;Node61 -->
<g id="edge13" class="edge"><title>Node48&#45;&gt;Node61</title>
<path fill="none" stroke="midnightblue" d="M983.714,-149.881C995.446,-138.47 1009.63,-124.674 1020.11,-114.486"/>
<polygon fill="midnightblue" stroke="midnightblue" points="981.151,-147.491 976.422,-156.973 986.031,-152.509 981.151,-147.491"/>
</g>
<!-- Node64 -->
<g id="node17" class="node"><title>Node64</title>
<g id="a_node17"><a xlink:href="triple_pi0_8h.html" target="_top" xlink:title="src/analysis/physics\l/production/triplePi0.h">
<polygon fill="white" stroke="black" points="1111.5,-84 1111.5,-114 1222.5,-114 1222.5,-84 1111.5,-84"/>
<text text-anchor="start" x="1119.5" y="-102" font-family="Helvetica,sans-Serif" font-size="10.00">src/analysis/physics</text>
<text text-anchor="middle" x="1167" y="-91" font-family="Helvetica,sans-Serif" font-size="10.00">/production/triplePi0.h</text>
</a>
</g>
</g>
<!-- Node48&#45;&gt;Node64 -->
<g id="edge16" class="edge"><title>Node48&#45;&gt;Node64</title>
<path fill="none" stroke="midnightblue" d="M1012.07,-153.657C1047.14,-141.511 1093.42,-125.485 1126.23,-114.12"/>
<polygon fill="midnightblue" stroke="midnightblue" points="1010.81,-150.393 1002.5,-156.973 1013.1,-157.007 1010.81,-150.393"/>
</g>
<!-- Node68 -->
<g id="node21" class="node"><title>Node68</title>
<g id="a_node21"><a xlink:href="analysis_2physics_2tunings_2_interpolated_pulls_8cc.html" target="_top" xlink:title="src/analysis/physics\l/tunings/InterpolatedPulls.cc">
<polygon fill="white" stroke="black" points="1241,-84 1241,-114 1381,-114 1381,-84 1241,-84"/>
<text text-anchor="start" x="1249" y="-102" font-family="Helvetica,sans-Serif" font-size="10.00">src/analysis/physics</text>
<text text-anchor="middle" x="1311" y="-91" font-family="Helvetica,sans-Serif" font-size="10.00">/tunings/InterpolatedPulls.cc</text>
</a>
</g>
</g>
<!-- Node48&#45;&gt;Node68 -->
<g id="edge20" class="edge"><title>Node48&#45;&gt;Node68</title>
<path fill="none" stroke="midnightblue" d="M1031.39,-158.978C1085.84,-149.271 1163.47,-134.829 1231,-120 1239.25,-118.188 1247.95,-116.149 1256.45,-114.084"/>
<polygon fill="midnightblue" stroke="midnightblue" points="1030.73,-155.54 1021.5,-160.735 1031.96,-162.432 1030.73,-155.54"/>
</g>
<!-- Node69 -->
<g id="node22" class="node"><title>Node69</title>
<g id="a_node22"><a xlink:href="physics_2tunings_2_trigger_simulation_8cc.html" target="_top" xlink:title="src/analysis/physics\l/tunings/TriggerSimulation.cc">
<polygon fill="white" stroke="black" points="1399.5,-84 1399.5,-114 1542.5,-114 1542.5,-84 1399.5,-84"/>
<text text-anchor="start" x="1407.5" y="-102" font-family="Helvetica,sans-Serif" font-size="10.00">src/analysis/physics</text>
<text text-anchor="middle" x="1471" y="-91" font-family="Helvetica,sans-Serif" font-size="10.00">/tunings/TriggerSimulation.cc</text>
</a>
</g>
</g>
<!-- Node48&#45;&gt;Node69 -->
<g id="edge21" class="edge"><title>Node48&#45;&gt;Node69</title>
<path fill="none" stroke="midnightblue" d="M1031.59,-165.368C1116.61,-157.878 1264.61,-142.861 1390,-120 1399.12,-118.337 1408.74,-116.256 1418.05,-114.069"/>
<polygon fill="midnightblue" stroke="midnightblue" points="1031.2,-161.889 1021.54,-166.245 1031.81,-168.863 1031.2,-161.889"/>
</g>
<!-- Node70 -->
<g id="node23" class="node"><title>Node70</title>
<g id="a_node23"><a xlink:href="_proton_photon_combs_8cc.html" target="_top" xlink:title="src/analysis/utils\l/ProtonPhotonCombs.cc">
<polygon fill="white" stroke="black" points="1561,-84 1561,-114 1685,-114 1685,-84 1561,-84"/>
<text text-anchor="start" x="1569" y="-102" font-family="Helvetica,sans-Serif" font-size="10.00">src/analysis/utils</text>
<text text-anchor="middle" x="1623" y="-91" font-family="Helvetica,sans-Serif" font-size="10.00">/ProtonPhotonCombs.cc</text>
</a>
</g>
</g>
<!-- Node48&#45;&gt;Node70 -->
<g id="edge22" class="edge"><title>Node48&#45;&gt;Node70</title>
<path fill="none" stroke="midnightblue" d="M1031.89,-169.116C1142.75,-165.195 1365.39,-153.519 1551,-120 1559.55,-118.455 1568.56,-116.349 1577.2,-114.081"/>
<polygon fill="midnightblue" stroke="midnightblue" points="1031.71,-165.62 1021.84,-169.461 1031.95,-172.616 1031.71,-165.62"/>
</g>
<!-- Node51 -->
<g id="node4" class="node"><title>Node51</title>
<g id="a_node4"><a xlink:href="_p_c_a_8cc.html" target="_top" xlink:title="Tool to perform a Principal Component Analysis, based on ROOTs TPrincipal class, to create principal ...">
<polygon fill="white" stroke="black" points="0,-11.5 0,-30.5 78,-30.5 78,-11.5 0,-11.5"/>
<text text-anchor="middle" x="39" y="-18.5" font-family="Helvetica,sans-Serif" font-size="10.00">progs/PCA.cc</text>
</a>
</g>
</g>
<!-- Node50&#45;&gt;Node51 -->
<g id="edge3" class="edge"><title>Node50&#45;&gt;Node51</title>
<path fill="none" stroke="midnightblue" d="M227.731,-81.2456C173.167,-66.4947 100.503,-46.6551 87,-42 77.2703,-38.6458 66.6875,-34.3129 57.9409,-30.538"/>
<polygon fill="midnightblue" stroke="midnightblue" points="227.123,-84.7069 237.69,-83.9359 228.949,-77.9491 227.123,-84.7069"/>
</g>
<!-- Node52 -->
<g id="node5" class="node"><title>Node52</title>
<g id="a_node5"><a xlink:href="_etap_dalitz__plot_8cc.html" target="_top" xlink:title="src/analysis/physics\l/etaprime/EtapDalitz\l_plot.cc">
<polygon fill="white" stroke="black" points="96,-0.5 96,-41.5 202,-41.5 202,-0.5 96,-0.5"/>
<text text-anchor="start" x="104" y="-29.5" font-family="Helvetica,sans-Serif" font-size="10.00">src/analysis/physics</text>
<text text-anchor="start" x="104" y="-18.5" font-family="Helvetica,sans-Serif" font-size="10.00">/etaprime/EtapDalitz</text>
<text text-anchor="middle" x="149" y="-7.5" font-family="Helvetica,sans-Serif" font-size="10.00">_plot.cc</text>
</a>
</g>
</g>
<!-- Node50&#45;&gt;Node52 -->
<g id="edge4" class="edge"><title>Node50&#45;&gt;Node52</title>
<path fill="none" stroke="midnightblue" d="M254.829,-79.0428C233.672,-67.639 206.791,-53.1497 185.415,-41.6279"/>
<polygon fill="midnightblue" stroke="midnightblue" points="253.346,-82.2193 263.809,-83.8831 256.667,-76.0574 253.346,-82.2193"/>
</g>
<!-- Node53 -->
<g id="node6" class="node"><title>Node53</title>
<g id="a_node6"><a xlink:href="etaprime__dalitz_8cc.html" target="_top" xlink:title="src/analysis/physics\l/etaprime/etaprime_dalitz.cc">
<polygon fill="white" stroke="black" points="220,-6 220,-36 360,-36 360,-6 220,-6"/>
<text text-anchor="start" x="228" y="-24" font-family="Helvetica,sans-Serif" font-size="10.00">src/analysis/physics</text>
<text text-anchor="middle" x="290" y="-13" font-family="Helvetica,sans-Serif" font-size="10.00">/etaprime/etaprime_dalitz.cc</text>
</a>
</g>
</g>
<!-- Node50&#45;&gt;Node53 -->
<g id="edge5" class="edge"><title>Node50&#45;&gt;Node53</title>
<path fill="none" stroke="midnightblue" d="M290,-73.5898C290,-61.2565 290,-46.7237 290,-36.2309"/>
<polygon fill="midnightblue" stroke="midnightblue" points="286.5,-73.7049 290,-83.705 293.5,-73.705 286.5,-73.7049"/>
</g>
<!-- Node55 -->
<g id="node8" class="node"><title>Node55</title>
<g id="a_node8"><a xlink:href="_etap_omega_g_8cc.html" target="_top" xlink:title="src/analysis/physics\l/etaprime/EtapOmegaG.cc">
<polygon fill="white" stroke="black" points="378.5,-6 378.5,-36 511.5,-36 511.5,-6 378.5,-6"/>
<text text-anchor="start" x="386.5" y="-24" font-family="Helvetica,sans-Serif" font-size="10.00">src/analysis/physics</text>
<text text-anchor="middle" x="445" y="-13" font-family="Helvetica,sans-Serif" font-size="10.00">/etaprime/EtapOmegaG.cc</text>
</a>
</g>
</g>
<!-- Node54&#45;&gt;Node55 -->
<g id="edge7" class="edge"><title>Node54&#45;&gt;Node55</title>
<path fill="none" stroke="midnightblue" d="M553.329,-79.1739C528.021,-65.8166 494.597,-48.1762 471.605,-36.0413"/>
<polygon fill="midnightblue" stroke="midnightblue" points="551.775,-82.3108 562.252,-83.8831 555.042,-76.1201 551.775,-82.3108"/>
</g>
<!-- Node56 -->
<g id="node9" class="node"><title>Node56</title>
<g id="a_node9"><a xlink:href="_etap_omega_g__plot_8cc.html" target="_top" xlink:title="src/analysis/physics\l/etaprime/EtapOmegaG\l_plot.cc">
<polygon fill="white" stroke="black" points="529.5,-0.5 529.5,-41.5 648.5,-41.5 648.5,-0.5 529.5,-0.5"/>
<text text-anchor="start" x="537.5" y="-29.5" font-family="Helvetica,sans-Serif" font-size="10.00">src/analysis/physics</text>
<text text-anchor="start" x="537.5" y="-18.5" font-family="Helvetica,sans-Serif" font-size="10.00">/etaprime/EtapOmegaG</text>
<text text-anchor="middle" x="589" y="-7.5" font-family="Helvetica,sans-Serif" font-size="10.00">_plot.cc</text>
</a>
</g>
</g>
<!-- Node54&#45;&gt;Node56 -->
<g id="edge8" class="edge"><title>Node54&#45;&gt;Node56</title>
<path fill="none" stroke="midnightblue" d="M589,-73.656C589,-63.3257 589,-51.4425 589,-41.68"/>
<polygon fill="midnightblue" stroke="midnightblue" points="585.5,-73.7049 589,-83.705 592.5,-73.705 585.5,-73.7049"/>
</g>
<!-- Node59 -->
<g id="node12" class="node"><title>Node59</title>
<g id="a_node12"><a xlink:href="sigma_plus_8cc.html" target="_top" xlink:title="src/analysis/physics\l/production/sigmaPlus.cc">
<polygon fill="white" stroke="black" points="666.5,-6 666.5,-36 793.5,-36 793.5,-6 666.5,-6"/>
<text text-anchor="start" x="674.5" y="-24" font-family="Helvetica,sans-Serif" font-size="10.00">src/analysis/physics</text>
<text text-anchor="middle" x="730" y="-13" font-family="Helvetica,sans-Serif" font-size="10.00">/production/sigmaPlus.cc</text>
</a>
</g>
</g>
<!-- Node58&#45;&gt;Node59 -->
<g id="edge11" class="edge"><title>Node58&#45;&gt;Node59</title>
<path fill="none" stroke="midnightblue" d="M851.104,-79.5244C822.898,-66.1265 785.332,-48.2827 759.561,-36.0413"/>
<polygon fill="midnightblue" stroke="midnightblue" points="849.746,-82.7539 860.28,-83.8831 852.749,-76.431 849.746,-82.7539"/>
</g>
<!-- Node60 -->
<g id="node13" class="node"><title>Node60</title>
<g id="a_node13"><a xlink:href="sigma_plus_plots_8cc.html" target="_top" xlink:title="src/analysis/physics\l/production/sigmaPlusPlots.cc">
<polygon fill="white" stroke="black" points="811.5,-6 811.5,-36 960.5,-36 960.5,-6 811.5,-6"/>
<text text-anchor="start" x="819.5" y="-24" font-family="Helvetica,sans-Serif" font-size="10.00">src/analysis/physics</text>
<text text-anchor="middle" x="886" y="-13" font-family="Helvetica,sans-Serif" font-size="10.00">/production/sigmaPlusPlots.cc</text>
</a>
</g>
</g>
<!-- Node58&#45;&gt;Node60 -->
<g id="edge12" class="edge"><title>Node58&#45;&gt;Node60</title>
<path fill="none" stroke="midnightblue" d="M888.715,-73.5898C888.066,-61.2565 887.301,-46.7237 886.749,-36.2309"/>
<polygon fill="midnightblue" stroke="midnightblue" points="885.227,-73.9028 889.248,-83.705 892.217,-73.5348 885.227,-73.9028"/>
</g>
<!-- Node62 -->
<g id="node15" class="node"><title>Node62</title>
<g id="a_node15"><a xlink:href="single_pi0_8cc.html" target="_top" xlink:title="src/analysis/physics\l/production/singlePi0.cc">
<polygon fill="white" stroke="black" points="978.5,-6 978.5,-36 1099.5,-36 1099.5,-6 978.5,-6"/>
<text text-anchor="start" x="986.5" y="-24" font-family="Helvetica,sans-Serif" font-size="10.00">src/analysis/physics</text>
<text text-anchor="middle" x="1039" y="-13" font-family="Helvetica,sans-Serif" font-size="10.00">/production/singlePi0.cc</text>
</a>
</g>
</g>
<!-- Node61&#45;&gt;Node62 -->
<g id="edge14" class="edge"><title>Node61&#45;&gt;Node62</title>
<path fill="none" stroke="midnightblue" d="M1036.28,-73.5898C1036.93,-61.2565 1037.7,-46.7237 1038.25,-36.2309"/>
<polygon fill="midnightblue" stroke="midnightblue" points="1032.78,-73.5348 1035.75,-83.705 1039.77,-73.9028 1032.78,-73.5348"/>
</g>
<!-- Node63 -->
<g id="node16" class="node"><title>Node63</title>
<g id="a_node16"><a xlink:href="single_pi0_plots_8cc.html" target="_top" xlink:title="src/analysis/physics\l/production/singlePi0Plots.cc">
<polygon fill="white" stroke="black" points="1117.5,-6 1117.5,-36 1260.5,-36 1260.5,-6 1117.5,-6"/>
<text text-anchor="start" x="1125.5" y="-24" font-family="Helvetica,sans-Serif" font-size="10.00">src/analysis/physics</text>
<text text-anchor="middle" x="1189" y="-13" font-family="Helvetica,sans-Serif" font-size="10.00">/production/singlePi0Plots.cc</text>
</a>
</g>
</g>
<!-- Node61&#45;&gt;Node63 -->
<g id="edge15" class="edge"><title>Node61&#45;&gt;Node63</title>
<path fill="none" stroke="midnightblue" d="M1072.79,-79.3494C1099.9,-65.9714 1135.85,-48.2295 1160.55,-36.0413"/>
<polygon fill="midnightblue" stroke="midnightblue" points="1071.02,-76.3189 1063.61,-83.8831 1074.12,-82.5962 1071.02,-76.3189"/>
</g>
<!-- Node65 -->
<g id="node18" class="node"><title>Node65</title>
<g id="a_node18"><a xlink:href="triple_pi0_8cc.html" target="_top" xlink:title="src/analysis/physics\l/production/triplePi0.cc">
<polygon fill="white" stroke="black" points="1279,-6 1279,-36 1395,-36 1395,-6 1279,-6"/>
<text text-anchor="start" x="1287" y="-24" font-family="Helvetica,sans-Serif" font-size="10.00">src/analysis/physics</text>
<text text-anchor="middle" x="1337" y="-13" font-family="Helvetica,sans-Serif" font-size="10.00">/production/triplePi0.cc</text>
</a>
</g>
</g>
<!-- Node64&#45;&gt;Node65 -->
<g id="edge17" class="edge"><title>Node64&#45;&gt;Node65</title>
<path fill="none" stroke="midnightblue" d="M1207.94,-79.6989C1237.95,-66.2817 1278.09,-48.3359 1305.59,-36.0413"/>
<polygon fill="midnightblue" stroke="midnightblue" points="1206.28,-76.6065 1198.58,-83.8831 1209.14,-82.997 1206.28,-76.6065"/>
</g>
<!-- Node66 -->
<g id="node19" class="node"><title>Node66</title>
<g id="a_node19"><a xlink:href="triple_pi0_plots_8cc.html" target="_top" xlink:title="src/analysis/physics\l/production/triplePi0Plots.cc">
<polygon fill="white" stroke="black" points="1413.5,-6 1413.5,-36 1552.5,-36 1552.5,-6 1413.5,-6"/>
<text text-anchor="start" x="1421.5" y="-24" font-family="Helvetica,sans-Serif" font-size="10.00">src/analysis/physics</text>
<text text-anchor="middle" x="1483" y="-13" font-family="Helvetica,sans-Serif" font-size="10.00">/production/triplePi0Plots.cc</text>
</a>
</g>
</g>
<!-- Node64&#45;&gt;Node66 -->
<g id="edge18" class="edge"><title>Node64&#45;&gt;Node66</title>
<path fill="none" stroke="midnightblue" d="M1220.52,-81.1127C1224.39,-80.0194 1228.25,-78.9697 1232,-78 1307.19,-58.5597 1327.31,-59.4214 1403,-42 1411.09,-40.1374 1419.62,-38.0922 1427.98,-36.0427"/>
<polygon fill="midnightblue" stroke="midnightblue" points="1219.53,-77.7543 1210.9,-83.8992 1221.48,-84.4777 1219.53,-77.7543"/>
</g>
<!-- Node67 -->
<g id="node20" class="node"><title>Node67</title>
<g id="a_node20"><a xlink:href="_proton_vertex_test_8cc.html" target="_top" xlink:title="src/analysis/physics\l/scratch/wolfes/ProtonVertex\lTest.cc">
<polygon fill="white" stroke="black" points="1570.5,-0.5 1570.5,-41.5 1713.5,-41.5 1713.5,-0.5 1570.5,-0.5"/>
<text text-anchor="start" x="1578.5" y="-29.5" font-family="Helvetica,sans-Serif" font-size="10.00">src/analysis/physics</text>
<text text-anchor="start" x="1578.5" y="-18.5" font-family="Helvetica,sans-Serif" font-size="10.00">/scratch/wolfes/ProtonVertex</text>
<text text-anchor="middle" x="1642" y="-7.5" font-family="Helvetica,sans-Serif" font-size="10.00">Test.cc</text>
</a>
</g>
</g>
<!-- Node64&#45;&gt;Node67 -->
<g id="edge19" class="edge"><title>Node64&#45;&gt;Node67</title>
<path fill="none" stroke="midnightblue" d="M1218.51,-81.1807C1223.05,-79.9957 1227.59,-78.9115 1232,-78 1376.05,-48.2372 1416.17,-67.6872 1561,-42 1564,-41.4688 1567.04,-40.8902 1570.12,-40.2755"/>
<polygon fill="midnightblue" stroke="midnightblue" points="1217.36,-77.8684 1208.66,-83.9082 1219.23,-84.615 1217.36,-77.8684"/>
</g>
</g>
</svg>
