<?xml version="1.0" encoding="UTF-8" standalone="no"?>
<!DOCTYPE svg PUBLIC "-//W3C//DTD SVG 1.1//EN"
 "http://www.w3.org/Graphics/SVG/1.1/DTD/svg11.dtd">
<!-- Generated by graphviz version 2.36.0 (20140111.2315)
 -->
<!-- Title: src/expconfig/setups/SetupRegistry.h Pages: 1 -->
<svg width="2917pt" height="264pt"
 viewBox="0.00 0.00 2917.00 264.00" xmlns="http://www.w3.org/2000/svg" xmlns:xlink="http://www.w3.org/1999/xlink">
<g id="graph0" class="graph" transform="scale(1 1) rotate(0) translate(4 260)">
<title>src/expconfig/setups/SetupRegistry.h</title>
<polygon fill="white" stroke="none" points="-4,4 -4,-260 2913,-260 2913,4 -4,4"/>
<!-- Node9 -->
<g id="node1" class="node"><title>Node9</title>
<polygon fill="#bfbfbf" stroke="black" points="1391.5,-225 1391.5,-255 1498.5,-255 1498.5,-225 1391.5,-225"/>
<text text-anchor="start" x="1399.5" y="-243" font-family="Helvetica,sans-Serif" font-size="10.00">src/expconfig/setups</text>
<text text-anchor="middle" x="1445" y="-232" font-family="Helvetica,sans-Serif" font-size="10.00">/SetupRegistry.h</text>
</g>
<!-- Node10 -->
<g id="node2" class="node"><title>Node10</title>
<g id="a_node2"><a xlink:href="_ant-rawdump_8cc.html" target="_top" xlink:title="progs/Ant&#45;rawdump.cc">
<polygon fill="white" stroke="black" points="-0.5,-89.5 -0.5,-108.5 114.5,-108.5 114.5,-89.5 -0.5,-89.5"/>
<text text-anchor="middle" x="57" y="-96.5" font-family="Helvetica,sans-Serif" font-size="10.00">progs/Ant&#45;rawdump.cc</text>
</a>
</g>
</g>
<!-- Node9&#45;&gt;Node10 -->
<g id="edge1" class="edge"><title>Node9&#45;&gt;Node10</title>
<path fill="none" stroke="midnightblue" d="M1381.46,-237.291C1237.22,-232.972 874.101,-219.633 572,-188 371.266,-166.981 319.866,-164.493 123,-120 109.336,-116.912 94.3762,-112.469 82.1587,-108.555"/>
<polygon fill="midnightblue" stroke="midnightblue" points="1381.37,-240.789 1391.47,-237.586 1381.57,-233.792 1381.37,-240.789"/>
</g>
<!-- Node11 -->
<g id="node3" class="node"><title>Node11</title>
<g id="a_node3"><a xlink:href="_ant_8cc.html" target="_top" xlink:title="Main Ant executable. ">
<polygon fill="white" stroke="black" points="1552,-162.5 1552,-181.5 1624,-181.5 1624,-162.5 1552,-162.5"/>
<text text-anchor="middle" x="1588" y="-169.5" font-family="Helvetica,sans-Serif" font-size="10.00">progs/Ant.cc</text>
</a>
</g>
</g>
<!-- Node9&#45;&gt;Node11 -->
<g id="edge2" class="edge"><title>Node9&#45;&gt;Node11</title>
<path fill="none" stroke="midnightblue" d="M1485.06,-220.512C1512.59,-207.804 1547.9,-191.51 1569.19,-181.682"/>
<polygon fill="midnightblue" stroke="midnightblue" points="1483.29,-217.473 1475.68,-224.841 1486.22,-223.829 1483.29,-217.473"/>
</g>
<!-- Node12 -->
<g id="node4" class="node"><title>Node12</title>
<g id="a_node4"><a xlink:href="_omega_eta_g__fit_8cc.html" target="_top" xlink:title="progs/OmegaEtaG_fit.cc">
<polygon fill="white" stroke="black" points="132.5,-89.5 132.5,-108.5 257.5,-108.5 257.5,-89.5 132.5,-89.5"/>
<text text-anchor="middle" x="195" y="-96.5" font-family="Helvetica,sans-Serif" font-size="10.00">progs/OmegaEtaG_fit.cc</text>
</a>
</g>
</g>
<!-- Node9&#45;&gt;Node12 -->
<g id="edge3" class="edge"><title>Node9&#45;&gt;Node12</title>
<path fill="none" stroke="midnightblue" d="M1381.25,-234.682C1206.43,-222.351 704.91,-183.711 292,-120 272.118,-116.932 250.148,-112.491 232.152,-108.573"/>
<polygon fill="midnightblue" stroke="midnightblue" points="1381.09,-238.179 1391.31,-235.387 1381.58,-231.196 1381.09,-238.179"/>
</g>
<!-- Node13 -->
<g id="node5" class="node"><title>Node13</title>
<g id="a_node5"><a xlink:href="_setup_8h.html" target="_top" xlink:title="src/expconfig/setups\l/Setup.h">
<polygon fill="white" stroke="black" points="1350.5,-157 1350.5,-187 1457.5,-187 1457.5,-157 1350.5,-157"/>
<text text-anchor="start" x="1358.5" y="-175" font-family="Helvetica,sans-Serif" font-size="10.00">src/expconfig/setups</text>
<text text-anchor="middle" x="1404" y="-164" font-family="Helvetica,sans-Serif" font-size="10.00">/Setup.h</text>
</a>
</g>
</g>
<!-- Node9&#45;&gt;Node13 -->
<g id="edge4" class="edge"><title>Node9&#45;&gt;Node13</title>
<path fill="none" stroke="midnightblue" d="M1430.72,-216.019C1424.79,-206.467 1418.09,-195.677 1412.88,-187.293"/>
<polygon fill="midnightblue" stroke="midnightblue" points="1427.85,-218.031 1436.1,-224.679 1433.8,-214.338 1427.85,-218.031"/>
</g>
<!-- Node44 -->
<g id="node36" class="node"><title>Node44</title>
<g id="a_node36"><a xlink:href="_setup_registry_8cc.html" target="_top" xlink:title="src/expconfig/setups\l/SetupRegistry.cc">
<polygon fill="white" stroke="black" points="2485.5,-84 2485.5,-114 2592.5,-114 2592.5,-84 2485.5,-84"/>
<text text-anchor="start" x="2493.5" y="-102" font-family="Helvetica,sans-Serif" font-size="10.00">src/expconfig/setups</text>
<text text-anchor="middle" x="2539" y="-91" font-family="Helvetica,sans-Serif" font-size="10.00">/SetupRegistry.cc</text>
</a>
</g>
</g>
<!-- Node9&#45;&gt;Node44 -->
<g id="edge42" class="edge"><title>Node9&#45;&gt;Node44</title>
<path fill="none" stroke="midnightblue" d="M1455.99,-215.673C1466.72,-195.878 1485.06,-168.725 1510,-156 1605.67,-107.181 2370.18,-138.417 2476,-120 2484.03,-118.603 2492.45,-116.442 2500.43,-114.049"/>
<polygon fill="midnightblue" stroke="midnightblue" points="1452.81,-214.211 1451.34,-224.704 1459.03,-217.414 1452.81,-214.211"/>
</g>
<!-- Node45 -->
<g id="node37" class="node"><title>Node45</title>
<g id="a_node37"><a xlink:href="expconfig__helpers_8cc.html" target="_top" xlink:title="test/expconfig_helpers.cc">
<polygon fill="white" stroke="black" points="2611,-89.5 2611,-108.5 2739,-108.5 2739,-89.5 2611,-89.5"/>
<text text-anchor="middle" x="2675" y="-96.5" font-family="Helvetica,sans-Serif" font-size="10.00">test/expconfig_helpers.cc</text>
</a>
</g>
</g>
<!-- Node9&#45;&gt;Node45 -->
<g id="edge43" class="edge"><title>Node9&#45;&gt;Node45</title>
<path fill="none" stroke="midnightblue" d="M1470.32,-218.536C1481.63,-209.305 1495.07,-198.205 1507,-188 1523.27,-174.087 1523.12,-163.947 1543,-156 1652.22,-112.335 2484.68,-137.46 2601,-120 2617.32,-117.55 2635.19,-112.782 2649.28,-108.515"/>
<polygon fill="midnightblue" stroke="midnightblue" points="1468.07,-215.86 1462.52,-224.887 1472.48,-221.289 1468.07,-215.86"/>
</g>
<!-- Node13&#45;&gt;Node10 -->
<g id="edge8" class="edge"><title>Node13&#45;&gt;Node10</title>
<path fill="none" stroke="midnightblue" d="M1339.85,-170.6C1114.65,-168.861 360.92,-160.109 123,-120 108.36,-117.532 92.4179,-112.762 79.8696,-108.5"/>
<polygon fill="midnightblue" stroke="midnightblue" points="1340.15,-174.102 1350.17,-170.678 1340.2,-167.103 1340.15,-174.102"/>
</g>
<!-- Node13&#45;&gt;Node12 -->
<g id="edge9" class="edge"><title>Node13&#45;&gt;Node12</title>
<path fill="none" stroke="midnightblue" d="M1340.15,-169.879C1132.9,-165.966 480.399,-151.405 272,-120 255.201,-117.468 236.77,-112.753 222.152,-108.536"/>
<polygon fill="midnightblue" stroke="midnightblue" points="1340.2,-173.381 1350.26,-170.068 1340.33,-166.382 1340.2,-173.381"/>
</g>
<!-- Node14 -->
<g id="node6" class="node"><title>Node14</title>
<g id="a_node6"><a xlink:href="_ant-fake_raw_8cc.html" target="_top" xlink:title="progs/Ant&#45;fakeRaw.cc">
<polygon fill="white" stroke="black" points="1017,-89.5 1017,-108.5 1131,-108.5 1131,-89.5 1017,-89.5"/>
<text text-anchor="middle" x="1074" y="-96.5" font-family="Helvetica,sans-Serif" font-size="10.00">progs/Ant&#45;fakeRaw.cc</text>
</a>
</g>
</g>
<!-- Node13&#45;&gt;Node14 -->
<g id="edge5" class="edge"><title>Node13&#45;&gt;Node14</title>
<path fill="none" stroke="midnightblue" d="M1340.24,-160.586C1286.51,-151.359 1207.79,-136.772 1140,-120 1126.63,-116.693 1111.96,-112.321 1099.85,-108.509"/>
<polygon fill="midnightblue" stroke="midnightblue" points="1339.85,-164.072 1350.3,-162.303 1341.03,-157.172 1339.85,-164.072"/>
</g>
<!-- Node15 -->
<g id="node7" class="node"><title>Node15</title>
<g id="a_node7"><a xlink:href="_ant-info_8cc.html" target="_top" xlink:title="progs/Ant&#45;info.cc">
<polygon fill="white" stroke="black" points="1149.5,-89.5 1149.5,-108.5 1240.5,-108.5 1240.5,-89.5 1149.5,-89.5"/>
<text text-anchor="middle" x="1195" y="-96.5" font-family="Helvetica,sans-Serif" font-size="10.00">progs/Ant&#45;info.cc</text>
</a>
</g>
</g>
<!-- Node13&#45;&gt;Node15 -->
<g id="edge6" class="edge"><title>Node13&#45;&gt;Node15</title>
<path fill="none" stroke="midnightblue" d="M1350.65,-153.755C1320.95,-144.047 1283.34,-131.581 1250,-120 1239.44,-116.333 1227.8,-112.125 1217.96,-108.517"/>
<polygon fill="midnightblue" stroke="midnightblue" points="1349.82,-157.162 1360.41,-156.936 1351.99,-150.507 1349.82,-157.162"/>
</g>
<!-- Node16 -->
<g id="node8" class="node"><title>Node16</title>
<g id="a_node8"><a xlink:href="_ant-make_tagg_eff_8cc.html" target="_top" xlink:title="progs/Ant&#45;makeTaggEff.cc">
<polygon fill="white" stroke="black" points="1259,-89.5 1259,-108.5 1393,-108.5 1393,-89.5 1259,-89.5"/>
<text text-anchor="middle" x="1326" y="-96.5" font-family="Helvetica,sans-Serif" font-size="10.00">progs/Ant&#45;makeTaggEff.cc</text>
</a>
</g>
</g>
<!-- Node13&#45;&gt;Node16 -->
<g id="edge7" class="edge"><title>Node13&#45;&gt;Node16</title>
<path fill="none" stroke="midnightblue" d="M1381.07,-150.125C1365.87,-136.295 1346.74,-118.877 1335.49,-108.637"/>
<polygon fill="midnightblue" stroke="midnightblue" points="1378.84,-152.83 1388.59,-156.973 1383.55,-147.653 1378.84,-152.83"/>
</g>
<!-- Node17 -->
<g id="node9" class="node"><title>Node17</title>
<g id="a_node9"><a xlink:href="_proton_vertex_test_8cc.html" target="_top" xlink:title="src/analysis/physics\l/scratch/wolfes/ProtonVertex\lTest.cc">
<polygon fill="white" stroke="black" points="1411.5,-78.5 1411.5,-119.5 1554.5,-119.5 1554.5,-78.5 1411.5,-78.5"/>
<text text-anchor="start" x="1419.5" y="-107.5" font-family="Helvetica,sans-Serif" font-size="10.00">src/analysis/physics</text>
<text text-anchor="start" x="1419.5" y="-96.5" font-family="Helvetica,sans-Serif" font-size="10.00">/scratch/wolfes/ProtonVertex</text>
<text text-anchor="middle" x="1483" y="-85.5" font-family="Helvetica,sans-Serif" font-size="10.00">Test.cc</text>
</a>
</g>
</g>
<!-- Node13&#45;&gt;Node17 -->
<g id="edge10" class="edge"><title>Node13&#45;&gt;Node17</title>
<path fill="none" stroke="midnightblue" d="M1427.35,-150.018C1438.04,-140.408 1450.64,-129.083 1461.14,-119.642"/>
<polygon fill="midnightblue" stroke="midnightblue" points="1424.71,-147.685 1419.61,-156.973 1429.39,-152.891 1424.71,-147.685"/>
</g>
<!-- Node18 -->
<g id="node10" class="node"><title>Node18</title>
<g id="a_node10"><a xlink:href="_exp_config_8cc.html" target="_top" xlink:title="src/expconfig/ExpConfig.cc">
<polygon fill="white" stroke="black" points="1572.5,-89.5 1572.5,-108.5 1709.5,-108.5 1709.5,-89.5 1572.5,-89.5"/>
<text text-anchor="middle" x="1641" y="-96.5" font-family="Helvetica,sans-Serif" font-size="10.00">src/expconfig/ExpConfig.cc</text>
</a>
</g>
</g>
<!-- Node13&#45;&gt;Node18 -->
<g id="edge11" class="edge"><title>Node13&#45;&gt;Node18</title>
<path fill="none" stroke="midnightblue" d="M1460.44,-154.093C1508.31,-139.75 1575.02,-119.765 1612.51,-108.536"/>
<polygon fill="midnightblue" stroke="midnightblue" points="1459.4,-150.75 1450.82,-156.973 1461.41,-157.456 1459.4,-150.75"/>
</g>
<!-- Node19 -->
<g id="node11" class="node"><title>Node19</title>
<g id="a_node11"><a xlink:href="_setup_8cc.html" target="_top" xlink:title="src/expconfig/setups\l/Setup.cc">
<polygon fill="white" stroke="black" points="1727.5,-84 1727.5,-114 1834.5,-114 1834.5,-84 1727.5,-84"/>
<text text-anchor="start" x="1735.5" y="-102" font-family="Helvetica,sans-Serif" font-size="10.00">src/expconfig/setups</text>
<text text-anchor="middle" x="1781" y="-91" font-family="Helvetica,sans-Serif" font-size="10.00">/Setup.cc</text>
</a>
</g>
</g>
<!-- Node13&#45;&gt;Node19 -->
<g id="edge12" class="edge"><title>Node13&#45;&gt;Node19</title>
<path fill="none" stroke="midnightblue" d="M1467.61,-156.821C1469.09,-156.54 1470.55,-156.266 1472,-156 1580.69,-136.086 1610.32,-144.799 1718,-120 1725.16,-118.352 1732.67,-116.278 1739.92,-114.094"/>
<polygon fill="midnightblue" stroke="midnightblue" points="1466.88,-153.397 1457.75,-158.77 1468.24,-160.264 1466.88,-153.397"/>
</g>
<!-- Node20 -->
<g id="node12" class="node"><title>Node20</title>
<g id="a_node12"><a xlink:href="_setup__2007___base_8h.html" target="_top" xlink:title="src/expconfig/setups\l/Setup_2007_Base.h">
<polygon fill="white" stroke="black" points="1852.5,-84 1852.5,-114 1959.5,-114 1959.5,-84 1852.5,-84"/>
<text text-anchor="start" x="1860.5" y="-102" font-family="Helvetica,sans-Serif" font-size="10.00">src/expconfig/setups</text>
<text text-anchor="middle" x="1906" y="-91" font-family="Helvetica,sans-Serif" font-size="10.00">/Setup_2007_Base.h</text>
</a>
</g>
</g>
<!-- Node13&#45;&gt;Node20 -->
<g id="edge13" class="edge"><title>Node13&#45;&gt;Node20</title>
<path fill="none" stroke="midnightblue" d="M1467.59,-156.725C1469.07,-156.473 1470.54,-156.23 1472,-156 1635.63,-130.11 1680.71,-153.247 1843,-120 1850.53,-118.457 1858.44,-116.352 1866,-114.084"/>
<polygon fill="midnightblue" stroke="midnightblue" points="1466.92,-153.29 1457.71,-158.527 1468.17,-160.177 1466.92,-153.29"/>
</g>
<!-- Node23 -->
<g id="node15" class="node"><title>Node23</title>
<g id="a_node15"><a xlink:href="_setup__2007___base_8cc.html" target="_top" xlink:title="src/expconfig/setups\l/Setup_2007_Base.cc">
<polygon fill="white" stroke="black" points="1849.5,-6 1849.5,-36 1962.5,-36 1962.5,-6 1849.5,-6"/>
<text text-anchor="start" x="1857.5" y="-24" font-family="Helvetica,sans-Serif" font-size="10.00">src/expconfig/setups</text>
<text text-anchor="middle" x="1906" y="-13" font-family="Helvetica,sans-Serif" font-size="10.00">/Setup_2007_Base.cc</text>
</a>
</g>
</g>
<!-- Node13&#45;&gt;Node23 -->
<g id="edge17" class="edge"><title>Node13&#45;&gt;Node23</title>
<path fill="none" stroke="midnightblue" d="M1467.58,-156.677C1469.07,-156.439 1470.54,-156.213 1472,-156 1526.68,-148.028 1930.37,-160.461 1968,-120 1980.71,-106.331 1975.58,-95.0588 1968,-78 1960.17,-60.3706 1943.74,-45.9441 1929.76,-36.151"/>
<polygon fill="midnightblue" stroke="midnightblue" points="1466.94,-153.237 1457.69,-158.405 1468.14,-160.133 1466.94,-153.237"/>
</g>
<!-- Node24 -->
<g id="node16" class="node"><title>Node24</title>
<g id="a_node16"><a xlink:href="_setup__2010__03___base_8cc.html" target="_top" xlink:title="src/expconfig/setups\l/Setup_2010_03_Base.cc">
<polygon fill="white" stroke="black" points="1981,-6 1981,-36 2109,-36 2109,-6 1981,-6"/>
<text text-anchor="start" x="1989" y="-24" font-family="Helvetica,sans-Serif" font-size="10.00">src/expconfig/setups</text>
<text text-anchor="middle" x="2045" y="-13" font-family="Helvetica,sans-Serif" font-size="10.00">/Setup_2010_03_Base.cc</text>
</a>
</g>
</g>
<!-- Node13&#45;&gt;Node24 -->
<g id="edge18" class="edge"><title>Node13&#45;&gt;Node24</title>
<path fill="none" stroke="midnightblue" d="M1467.58,-156.672C1469.07,-156.436 1470.54,-156.211 1472,-156 1585.1,-139.647 1887.32,-179.317 1985,-120 2016.55,-100.844 2033.83,-58.1955 2040.99,-36.0126"/>
<polygon fill="midnightblue" stroke="midnightblue" points="1466.94,-153.232 1457.69,-158.393 1468.14,-160.128 1466.94,-153.232"/>
</g>
<!-- Node25 -->
<g id="node17" class="node"><title>Node25</title>
<g id="a_node17"><a xlink:href="_setup__2010__03___base_8h.html" target="_top" xlink:title="src/expconfig/setups\l/Setup_2010_03_Base.h">
<polygon fill="white" stroke="black" points="2054.5,-84 2054.5,-114 2177.5,-114 2177.5,-84 2054.5,-84"/>
<text text-anchor="start" x="2062.5" y="-102" font-family="Helvetica,sans-Serif" font-size="10.00">src/expconfig/setups</text>
<text text-anchor="middle" x="2116" y="-91" font-family="Helvetica,sans-Serif" font-size="10.00">/Setup_2010_03_Base.h</text>
</a>
</g>
</g>
<!-- Node13&#45;&gt;Node25 -->
<g id="edge19" class="edge"><title>Node13&#45;&gt;Node25</title>
<path fill="none" stroke="midnightblue" d="M1467.58,-156.659C1469.07,-156.426 1470.54,-156.206 1472,-156 1722.47,-120.651 1790.29,-160.377 2040,-120 2049.29,-118.497 2059.1,-116.352 2068.46,-114.019"/>
<polygon fill="midnightblue" stroke="midnightblue" points="1466.95,-153.217 1457.68,-158.359 1468.13,-160.116 1466.95,-153.217"/>
</g>
<!-- Node27 -->
<g id="node19" class="node"><title>Node27</title>
<g id="a_node19"><a xlink:href="_setup__2012__12___compton_8cc.html" target="_top" xlink:title="src/expconfig/setups\l/Setup_2012_12_Compton.cc">
<polygon fill="white" stroke="black" points="2196,-84 2196,-114 2342,-114 2342,-84 2196,-84"/>
<text text-anchor="start" x="2204" y="-102" font-family="Helvetica,sans-Serif" font-size="10.00">src/expconfig/setups</text>
<text text-anchor="middle" x="2269" y="-91" font-family="Helvetica,sans-Serif" font-size="10.00">/Setup_2012_12_Compton.cc</text>
</a>
</g>
</g>
<!-- Node13&#45;&gt;Node27 -->
<g id="edge22" class="edge"><title>Node13&#45;&gt;Node27</title>
<path fill="none" stroke="midnightblue" d="M1467.58,-156.633C1469.06,-156.408 1470.54,-156.196 1472,-156 1786.9,-113.631 1871.53,-165.413 2186,-120 2196.12,-118.538 2206.82,-116.412 2217.04,-114.085"/>
<polygon fill="midnightblue" stroke="midnightblue" points="1466.96,-153.189 1457.67,-158.294 1468.11,-160.092 1466.96,-153.189"/>
</g>
<!-- Node28 -->
<g id="node20" class="node"><title>Node28</title>
<g id="a_node20"><a xlink:href="_setup__2014___e_p_t_8h.html" target="_top" xlink:title="src/expconfig/setups\l/Setup_2014_EPT.h">
<polygon fill="white" stroke="black" points="2360.5,-84 2360.5,-114 2467.5,-114 2467.5,-84 2360.5,-84"/>
<text text-anchor="start" x="2368.5" y="-102" font-family="Helvetica,sans-Serif" font-size="10.00">src/expconfig/setups</text>
<text text-anchor="middle" x="2414" y="-91" font-family="Helvetica,sans-Serif" font-size="10.00">/Setup_2014_EPT.h</text>
</a>
</g>
</g>
<!-- Node13&#45;&gt;Node28 -->
<g id="edge23" class="edge"><title>Node13&#45;&gt;Node28</title>
<path fill="none" stroke="midnightblue" d="M1467.58,-156.615C1469.06,-156.395 1470.54,-156.19 1472,-156 1859.74,-105.693 1965.92,-187.754 2351,-120 2359.02,-118.588 2367.44,-116.421 2375.42,-114.026"/>
<polygon fill="midnightblue" stroke="midnightblue" points="1466.97,-153.168 1457.67,-158.246 1468.1,-160.075 1466.97,-153.168"/>
</g>
<!-- Node33 -->
<g id="node25" class="node"><title>Node33</title>
<g id="a_node25"><a xlink:href="_setup__2015__01___pion_8cc.html" target="_top" xlink:title="src/expconfig/setups\l/Setup_2015_01_Pion.cc">
<polygon fill="white" stroke="black" points="266.5,-6 266.5,-36 391.5,-36 391.5,-6 266.5,-6"/>
<text text-anchor="start" x="274.5" y="-24" font-family="Helvetica,sans-Serif" font-size="10.00">src/expconfig/setups</text>
<text text-anchor="middle" x="329" y="-13" font-family="Helvetica,sans-Serif" font-size="10.00">/Setup_2015_01_Pion.cc</text>
</a>
</g>
</g>
<!-- Node13&#45;&gt;Node33 -->
<g id="edge28" class="edge"><title>Node13&#45;&gt;Node33</title>
<path fill="none" stroke="midnightblue" d="M1340.2,-169.22C1108.34,-162.603 322.983,-138.836 305,-120 282.986,-96.9406 304.403,-57.1365 318.625,-36.0514"/>
<polygon fill="midnightblue" stroke="midnightblue" points="1340.4,-172.727 1350.5,-169.513 1340.6,-165.73 1340.4,-172.727"/>
</g>
<!-- Node34 -->
<g id="node26" class="node"><title>Node34</title>
<g id="a_node26"><a xlink:href="_setup__2015__01___pion_8h.html" target="_top" xlink:title="src/expconfig/setups\l/Setup_2015_01_Pion.h">
<polygon fill="white" stroke="black" points="314,-84 314,-114 434,-114 434,-84 314,-84"/>
<text text-anchor="start" x="322" y="-102" font-family="Helvetica,sans-Serif" font-size="10.00">src/expconfig/setups</text>
<text text-anchor="middle" x="374" y="-91" font-family="Helvetica,sans-Serif" font-size="10.00">/Setup_2015_01_Pion.h</text>
</a>
</g>
</g>
<!-- Node13&#45;&gt;Node34 -->
<g id="edge29" class="edge"><title>Node13&#45;&gt;Node34</title>
<path fill="none" stroke="midnightblue" d="M1340.2,-169.52C1154.49,-164.911 616.4,-149.332 443,-120 434.392,-118.544 425.332,-116.389 416.712,-114.026"/>
<polygon fill="midnightblue" stroke="midnightblue" points="1340.27,-173.023 1350.35,-169.77 1340.44,-166.025 1340.27,-173.023"/>
</g>
<!-- Node35 -->
<g id="node27" class="node"><title>Node35</title>
<g id="a_node27"><a xlink:href="_setup__2017__03_8h.html" target="_top" xlink:title="src/expconfig/setups\l/Setup_2017_03.h">
<polygon fill="white" stroke="black" points="452.5,-84 452.5,-114 559.5,-114 559.5,-84 452.5,-84"/>
<text text-anchor="start" x="460.5" y="-102" font-family="Helvetica,sans-Serif" font-size="10.00">src/expconfig/setups</text>
<text text-anchor="middle" x="506" y="-91" font-family="Helvetica,sans-Serif" font-size="10.00">/Setup_2017_03.h</text>
</a>
</g>
</g>
<!-- Node13&#45;&gt;Node35 -->
<g id="edge31" class="edge"><title>Node13&#45;&gt;Node35</title>
<path fill="none" stroke="midnightblue" d="M1340.19,-169.18C1171.39,-164.033 715.917,-147.909 568,-120 560.22,-118.532 552.059,-116.372 544.308,-114.007"/>
<polygon fill="midnightblue" stroke="midnightblue" points="1340.31,-172.685 1350.41,-169.489 1340.52,-165.688 1340.31,-172.685"/>
</g>
<!-- Node37 -->
<g id="node29" class="node"><title>Node37</title>
<g id="a_node29"><a xlink:href="_setup__2017__05_8h.html" target="_top" xlink:title="src/expconfig/setups\l/Setup_2017_05.h">
<polygon fill="white" stroke="black" points="577.5,-84 577.5,-114 684.5,-114 684.5,-84 577.5,-84"/>
<text text-anchor="start" x="585.5" y="-102" font-family="Helvetica,sans-Serif" font-size="10.00">src/expconfig/setups</text>
<text text-anchor="middle" x="631" y="-91" font-family="Helvetica,sans-Serif" font-size="10.00">/Setup_2017_05.h</text>
</a>
</g>
</g>
<!-- Node13&#45;&gt;Node37 -->
<g id="edge33" class="edge"><title>Node13&#45;&gt;Node37</title>
<path fill="none" stroke="midnightblue" d="M1340.29,-171.423C1215.2,-171.157 929.213,-165.127 694,-120 686.224,-118.508 678.063,-116.367 670.289,-114.036"/>
<polygon fill="midnightblue" stroke="midnightblue" points="1340.44,-174.923 1350.45,-171.432 1340.45,-167.923 1340.44,-174.923"/>
</g>
<!-- Node39 -->
<g id="node31" class="node"><title>Node39</title>
<g id="a_node31"><a xlink:href="_setup__2017_plus___new_tagger___base_8h.html" target="_top" xlink:title="src/expconfig/setups\l/Setup_2017Plus_NewTagger\l_Base.h">
<polygon fill="white" stroke="black" points="703,-78.5 703,-119.5 849,-119.5 849,-78.5 703,-78.5"/>
<text text-anchor="start" x="711" y="-107.5" font-family="Helvetica,sans-Serif" font-size="10.00">src/expconfig/setups</text>
<text text-anchor="start" x="711" y="-96.5" font-family="Helvetica,sans-Serif" font-size="10.00">/Setup_2017Plus_NewTagger</text>
<text text-anchor="middle" x="776" y="-85.5" font-family="Helvetica,sans-Serif" font-size="10.00">_Base.h</text>
</a>
</g>
</g>
<!-- Node13&#45;&gt;Node39 -->
<g id="edge35" class="edge"><title>Node13&#45;&gt;Node39</title>
<path fill="none" stroke="midnightblue" d="M1340.01,-168.059C1237.64,-162.673 1030.93,-149.005 858,-120 855.11,-119.515 852.17,-118.984 849.208,-118.417"/>
<polygon fill="midnightblue" stroke="midnightblue" points="1340.02,-171.563 1350.19,-168.584 1340.38,-164.573 1340.02,-171.563"/>
</g>
<!-- Node43 -->
<g id="node35" class="node"><title>Node43</title>
<g id="a_node35"><a xlink:href="_setup___c_b_source_calib_8cc.html" target="_top" xlink:title="src/expconfig/setups\l/Setup_CBSourceCalib.cc">
<polygon fill="white" stroke="black" points="867.5,-84 867.5,-114 998.5,-114 998.5,-84 867.5,-84"/>
<text text-anchor="start" x="875.5" y="-102" font-family="Helvetica,sans-Serif" font-size="10.00">src/expconfig/setups</text>
<text text-anchor="middle" x="933" y="-91" font-family="Helvetica,sans-Serif" font-size="10.00">/Setup_CBSourceCalib.cc</text>
</a>
</g>
</g>
<!-- Node13&#45;&gt;Node43 -->
<g id="edge39" class="edge"><title>Node13&#45;&gt;Node43</title>
<path fill="none" stroke="midnightblue" d="M1340.25,-165.415C1261.65,-157.927 1124.19,-142.869 1008,-120 999.538,-118.334 990.619,-116.252 982.001,-114.064"/>
<polygon fill="midnightblue" stroke="midnightblue" points="1340.19,-168.925 1350.48,-166.378 1340.85,-161.955 1340.19,-168.925"/>
</g>
<!-- Node13&#45;&gt;Node44 -->
<g id="edge40" class="edge"><title>Node13&#45;&gt;Node44</title>
<path fill="none" stroke="midnightblue" d="M1467.58,-156.604C1469.06,-156.388 1470.54,-156.186 1472,-156 1914.94,-99.6776 2036.05,-196.254 2476,-120 2484.03,-118.609 2492.45,-116.451 2500.43,-114.058"/>
<polygon fill="midnightblue" stroke="midnightblue" points="1466.97,-153.157 1457.66,-158.22 1468.1,-160.065 1466.97,-153.157"/>
</g>
<!-- Node13&#45;&gt;Node45 -->
<g id="edge41" class="edge"><title>Node13&#45;&gt;Node45</title>
<path fill="none" stroke="midnightblue" d="M1467.53,-160.876C1481.49,-158.969 1496.22,-157.199 1510,-156 1993.33,-113.951 2121.18,-191.768 2601,-120 2617.32,-117.559 2635.19,-112.79 2649.28,-108.522"/>
<polygon fill="midnightblue" stroke="midnightblue" points="1466.94,-157.425 1457.52,-162.283 1467.91,-164.356 1466.94,-157.425"/>
</g>
<!-- Node21 -->
<g id="node13" class="node"><title>Node21</title>
<g id="a_node13"><a xlink:href="_setup__2007__06_8cc.html" target="_top" xlink:title="src/expconfig/setups\l/Setup_2007_06.cc">
<polygon fill="white" stroke="black" points="1724.5,-6 1724.5,-36 1831.5,-36 1831.5,-6 1724.5,-6"/>
<text text-anchor="start" x="1732.5" y="-24" font-family="Helvetica,sans-Serif" font-size="10.00">src/expconfig/setups</text>
<text text-anchor="middle" x="1778" y="-13" font-family="Helvetica,sans-Serif" font-size="10.00">/Setup_2007_06.cc</text>
</a>
</g>
</g>
<!-- Node20&#45;&gt;Node21 -->
<g id="edge14" class="edge"><title>Node20&#45;&gt;Node21</title>
<path fill="none" stroke="midnightblue" d="M1873.4,-78.6444C1851.02,-65.3533 1821.82,-48.0166 1801.65,-36.0413"/>
<polygon fill="midnightblue" stroke="midnightblue" points="1871.84,-81.7872 1882.22,-83.8831 1875.41,-75.7682 1871.84,-81.7872"/>
</g>
<!-- Node22 -->
<g id="node14" class="node"><title>Node22</title>
<g id="a_node14"><a xlink:href="_setup__2007__07_8cc.html" target="_top" xlink:title="src/expconfig/setups\l/Setup_2007_07.cc">
<polygon fill="white" stroke="black" points="1599.5,-6 1599.5,-36 1706.5,-36 1706.5,-6 1599.5,-6"/>
<text text-anchor="start" x="1607.5" y="-24" font-family="Helvetica,sans-Serif" font-size="10.00">src/expconfig/setups</text>
<text text-anchor="middle" x="1653" y="-13" font-family="Helvetica,sans-Serif" font-size="10.00">/Setup_2007_07.cc</text>
</a>
</g>
</g>
<!-- Node20&#45;&gt;Node22 -->
<g id="edge15" class="edge"><title>Node20&#45;&gt;Node22</title>
<path fill="none" stroke="midnightblue" d="M1852.59,-80.9176C1849.35,-79.9201 1846.13,-78.9409 1843,-78 1786.81,-61.122 1772.19,-58.878 1716,-42 1709.74,-40.1183 1703.14,-38.083 1696.66,-36.0558"/>
<polygon fill="midnightblue" stroke="midnightblue" points="1851.75,-84.3208 1862.34,-83.9442 1853.82,-77.6357 1851.75,-84.3208"/>
</g>
<!-- Node20&#45;&gt;Node23 -->
<g id="edge16" class="edge"><title>Node20&#45;&gt;Node23</title>
<path fill="none" stroke="midnightblue" d="M1906,-73.5898C1906,-61.2565 1906,-46.7237 1906,-36.2309"/>
<polygon fill="midnightblue" stroke="midnightblue" points="1902.5,-73.7049 1906,-83.705 1909.5,-73.705 1902.5,-73.7049"/>
</g>
<!-- Node25&#45;&gt;Node24 -->
<g id="edge20" class="edge"><title>Node25&#45;&gt;Node24</title>
<path fill="none" stroke="midnightblue" d="M2095.61,-76.1707C2083.61,-63.3319 2068.79,-47.4656 2058.29,-36.2309"/>
<polygon fill="midnightblue" stroke="midnightblue" points="2093.26,-78.7869 2102.65,-83.705 2098.38,-74.0083 2093.26,-78.7869"/>
</g>
<!-- Node26 -->
<g id="node18" class="node"><title>Node26</title>
<g id="a_node18"><a xlink:href="_setup__2010__09___compton_8cc.html" target="_top" xlink:title="src/expconfig/setups\l/Setup_2010_09_Compton.cc">
<polygon fill="white" stroke="black" points="2127,-6 2127,-36 2273,-36 2273,-6 2127,-6"/>
<text text-anchor="start" x="2135" y="-24" font-family="Helvetica,sans-Serif" font-size="10.00">src/expconfig/setups</text>
<text text-anchor="middle" x="2200" y="-13" font-family="Helvetica,sans-Serif" font-size="10.00">/Setup_2010_09_Compton.cc</text>
</a>
</g>
</g>
<!-- Node25&#45;&gt;Node26 -->
<g id="edge21" class="edge"><title>Node25&#45;&gt;Node26</title>
<path fill="none" stroke="midnightblue" d="M2139.33,-76.8941C2153.65,-63.9322 2171.62,-47.6775 2184.27,-36.2309"/>
<polygon fill="midnightblue" stroke="midnightblue" points="2136.87,-74.4004 2131.8,-83.705 2141.56,-79.5912 2136.87,-74.4004"/>
</g>
<!-- Node29 -->
<g id="node21" class="node"><title>Node29</title>
<g id="a_node21"><a xlink:href="_setup__2014__07___e_p_t___prod_8cc.html" target="_top" xlink:title="src/expconfig/setups\l/Setup_2014_07_EPT_Prod.cc">
<polygon fill="white" stroke="black" points="2589.5,-6 2589.5,-36 2740.5,-36 2740.5,-6 2589.5,-6"/>
<text text-anchor="start" x="2597.5" y="-24" font-family="Helvetica,sans-Serif" font-size="10.00">src/expconfig/setups</text>
<text text-anchor="middle" x="2665" y="-13" font-family="Helvetica,sans-Serif" font-size="10.00">/Setup_2014_07_EPT_Prod.cc</text>
</a>
</g>
</g>
<!-- Node28&#45;&gt;Node29 -->
<g id="edge24" class="edge"><title>Node28&#45;&gt;Node29</title>
<path fill="none" stroke="midnightblue" d="M2467.6,-80.9137C2470.78,-79.9222 2473.93,-78.9448 2477,-78 2524.52,-63.3798 2578.99,-47.2214 2617.02,-36.0346"/>
<polygon fill="midnightblue" stroke="midnightblue" points="2466.52,-77.5817 2458.03,-83.9123 2468.62,-84.2613 2466.52,-77.5817"/>
</g>
<!-- Node30 -->
<g id="node22" class="node"><title>Node30</title>
<g id="a_node22"><a xlink:href="_setup__2014__10___e_p_t___prod_8cc.html" target="_top" xlink:title="src/expconfig/setups\l/Setup_2014_10_EPT_Prod.cc">
<polygon fill="white" stroke="black" points="2758.5,-6 2758.5,-36 2909.5,-36 2909.5,-6 2758.5,-6"/>
<text text-anchor="start" x="2766.5" y="-24" font-family="Helvetica,sans-Serif" font-size="10.00">src/expconfig/setups</text>
<text text-anchor="middle" x="2834" y="-13" font-family="Helvetica,sans-Serif" font-size="10.00">/Setup_2014_10_EPT_Prod.cc</text>
</a>
</g>
</g>
<!-- Node28&#45;&gt;Node30 -->
<g id="edge25" class="edge"><title>Node28&#45;&gt;Node30</title>
<path fill="none" stroke="midnightblue" d="M2464.49,-81.1211C2468.69,-79.9741 2472.9,-78.9135 2477,-78 2596.02,-51.4488 2629.06,-63.9921 2749,-42 2758.39,-40.2775 2768.31,-38.1916 2777.93,-36.0254"/>
<polygon fill="midnightblue" stroke="midnightblue" points="2463.37,-77.801 2454.72,-83.9255 2465.3,-84.529 2463.37,-77.801"/>
</g>
<!-- Node31 -->
<g id="node23" class="node"><title>Node31</title>
<g id="a_node23"><a xlink:href="_setup__2014__12___e_p_t___prod_8cc.html" target="_top" xlink:title="src/expconfig/setups\l/Setup_2014_12_EPT_Prod.cc">
<polygon fill="white" stroke="black" points="2291.5,-6 2291.5,-36 2442.5,-36 2442.5,-6 2291.5,-6"/>
<text text-anchor="start" x="2299.5" y="-24" font-family="Helvetica,sans-Serif" font-size="10.00">src/expconfig/setups</text>
<text text-anchor="middle" x="2367" y="-13" font-family="Helvetica,sans-Serif" font-size="10.00">/Setup_2014_12_EPT_Prod.cc</text>
</a>
</g>
</g>
<!-- Node28&#45;&gt;Node31 -->
<g id="edge26" class="edge"><title>Node28&#45;&gt;Node31</title>
<path fill="none" stroke="midnightblue" d="M2399.82,-75.0735C2392.01,-62.4375 2382.55,-47.1476 2375.8,-36.2309"/>
<polygon fill="midnightblue" stroke="midnightblue" points="2396.92,-77.0408 2405.16,-83.705 2402.88,-73.359 2396.92,-77.0408"/>
</g>
<!-- Node32 -->
<g id="node24" class="node"><title>Node32</title>
<g id="a_node24"><a xlink:href="_setup__2014___e_p_t_8cc.html" target="_top" xlink:title="src/expconfig/setups\l/Setup_2014_EPT.cc">
<polygon fill="white" stroke="black" points="2461,-6 2461,-36 2571,-36 2571,-6 2461,-6"/>
<text text-anchor="start" x="2469" y="-24" font-family="Helvetica,sans-Serif" font-size="10.00">src/expconfig/setups</text>
<text text-anchor="middle" x="2516" y="-13" font-family="Helvetica,sans-Serif" font-size="10.00">/Setup_2014_EPT.cc</text>
</a>
</g>
</g>
<!-- Node28&#45;&gt;Node32 -->
<g id="edge27" class="edge"><title>Node28&#45;&gt;Node32</title>
<path fill="none" stroke="midnightblue" d="M2441.36,-77.6108C2458.91,-64.5359 2481.25,-47.8895 2496.9,-36.2309"/>
<polygon fill="midnightblue" stroke="midnightblue" points="2439.11,-74.9235 2433.19,-83.705 2443.3,-80.5367 2439.11,-74.9235"/>
</g>
<!-- Node34&#45;&gt;Node33 -->
<g id="edge30" class="edge"><title>Node34&#45;&gt;Node33</title>
<path fill="none" stroke="midnightblue" d="M360.425,-75.0735C352.943,-62.4375 343.89,-47.1476 337.426,-36.2309"/>
<polygon fill="midnightblue" stroke="midnightblue" points="357.429,-76.8835 365.536,-83.705 363.453,-73.317 357.429,-76.8835"/>
</g>
<!-- Node36 -->
<g id="node28" class="node"><title>Node36</title>
<g id="a_node28"><a xlink:href="_setup__2017__03_8cc.html" target="_top" xlink:title="src/expconfig/setups\l/Setup_2017_03.cc">
<polygon fill="white" stroke="black" points="452.5,-6 452.5,-36 559.5,-36 559.5,-6 452.5,-6"/>
<text text-anchor="start" x="460.5" y="-24" font-family="Helvetica,sans-Serif" font-size="10.00">src/expconfig/setups</text>
<text text-anchor="middle" x="506" y="-13" font-family="Helvetica,sans-Serif" font-size="10.00">/Setup_2017_03.cc</text>
</a>
</g>
</g>
<!-- Node35&#45;&gt;Node36 -->
<g id="edge32" class="edge"><title>Node35&#45;&gt;Node36</title>
<path fill="none" stroke="midnightblue" d="M506,-73.5898C506,-61.2565 506,-46.7237 506,-36.2309"/>
<polygon fill="midnightblue" stroke="midnightblue" points="502.5,-73.7049 506,-83.705 509.5,-73.705 502.5,-73.7049"/>
</g>
<!-- Node38 -->
<g id="node30" class="node"><title>Node38</title>
<g id="a_node30"><a xlink:href="_setup__2017__05_8cc.html" target="_top" xlink:title="src/expconfig/setups\l/Setup_2017_05.cc">
<polygon fill="white" stroke="black" points="577.5,-6 577.5,-36 684.5,-36 684.5,-6 577.5,-6"/>
<text text-anchor="start" x="585.5" y="-24" font-family="Helvetica,sans-Serif" font-size="10.00">src/expconfig/setups</text>
<text text-anchor="middle" x="631" y="-13" font-family="Helvetica,sans-Serif" font-size="10.00">/Setup_2017_05.cc</text>
</a>
</g>
</g>
<!-- Node37&#45;&gt;Node38 -->
<g id="edge34" class="edge"><title>Node37&#45;&gt;Node38</title>
<path fill="none" stroke="midnightblue" d="M631,-73.5898C631,-61.2565 631,-46.7237 631,-36.2309"/>
<polygon fill="midnightblue" stroke="midnightblue" points="627.5,-73.7049 631,-83.705 634.5,-73.705 627.5,-73.7049"/>
</g>
<!-- Node40 -->
<g id="node32" class="node"><title>Node40</title>
<g id="a_node32"><a xlink:href="_setup__2017__12_8cc.html" target="_top" xlink:title="src/expconfig/setups\l/Setup_2017_12.cc">
<polygon fill="white" stroke="black" points="702.5,-6 702.5,-36 809.5,-36 809.5,-6 702.5,-6"/>
<text text-anchor="start" x="710.5" y="-24" font-family="Helvetica,sans-Serif" font-size="10.00">src/expconfig/setups</text>
<text text-anchor="middle" x="756" y="-13" font-family="Helvetica,sans-Serif" font-size="10.00">/Setup_2017_12.cc</text>
</a>
</g>
</g>
<!-- Node39&#45;&gt;Node40 -->
<g id="edge36" class="edge"><title>Node39&#45;&gt;Node40</title>
<path fill="none" stroke="midnightblue" d="M768.269,-68.6237C765.342,-57.5015 762.142,-45.3387 759.744,-36.2254"/>
<polygon fill="midnightblue" stroke="midnightblue" points="764.92,-69.6481 770.85,-78.4281 771.689,-67.8666 764.92,-69.6481"/>
</g>
<!-- Node41 -->
<g id="node33" class="node"><title>Node41</title>
<g id="a_node33"><a xlink:href="_setup__2017_plus___new_tagger___base_8cc.html" target="_top" xlink:title="src/expconfig/setups\l/Setup_2017Plus_NewTagger\l_Base.cc">
<polygon fill="white" stroke="black" points="828,-0.5 828,-41.5 974,-41.5 974,-0.5 828,-0.5"/>
<text text-anchor="start" x="836" y="-29.5" font-family="Helvetica,sans-Serif" font-size="10.00">src/expconfig/setups</text>
<text text-anchor="start" x="836" y="-18.5" font-family="Helvetica,sans-Serif" font-size="10.00">/Setup_2017Plus_NewTagger</text>
<text text-anchor="middle" x="901" y="-7.5" font-family="Helvetica,sans-Serif" font-size="10.00">_Base.cc</text>
</a>
</g>
</g>
<!-- Node39&#45;&gt;Node41 -->
<g id="edge37" class="edge"><title>Node39&#45;&gt;Node41</title>
<path fill="none" stroke="midnightblue" d="M816.785,-73.2029C833.701,-62.9176 853.042,-51.1587 868.918,-41.5056"/>
<polygon fill="midnightblue" stroke="midnightblue" points="814.917,-70.2423 808.191,-78.4281 818.554,-76.2236 814.917,-70.2423"/>
</g>
<!-- Node42 -->
<g id="node34" class="node"><title>Node42</title>
<g id="a_node34"><a xlink:href="_setup__2018__03_8cc.html" target="_top" xlink:title="src/expconfig/setups\l/Setup_2018_03.cc">
<polygon fill="white" stroke="black" points="992.5,-6 992.5,-36 1099.5,-36 1099.5,-6 992.5,-6"/>
<text text-anchor="start" x="1000.5" y="-24" font-family="Helvetica,sans-Serif" font-size="10.00">src/expconfig/setups</text>
<text text-anchor="middle" x="1046" y="-13" font-family="Helvetica,sans-Serif" font-size="10.00">/Setup_2018_03.cc</text>
</a>
</g>
</g>
<!-- Node39&#45;&gt;Node42 -->
<g id="edge38" class="edge"><title>Node39&#45;&gt;Node42</title>
<path fill="none" stroke="midnightblue" d="M858.999,-76.4234C896.915,-66.3417 942.342,-53.9474 983,-42 989.386,-40.1236 996.112,-38.0708 1002.7,-36.0179"/>
<polygon fill="midnightblue" stroke="midnightblue" points="857.791,-73.1225 849.023,-79.0688 859.586,-79.8887 857.791,-73.1225"/>
</g>
</g>
</svg>
