<?xml version="1.0" encoding="UTF-8" standalone="no"?>
<!DOCTYPE svg PUBLIC "-//W3C//DTD SVG 1.1//EN"
 "http://www.w3.org/Graphics/SVG/1.1/DTD/svg11.dtd">
<!-- Generated by graphviz version 2.36.0 (20140111.2315)
 -->
<!-- Title: src/expconfig/setups/Setup.h Pages: 1 -->
<svg width="2777pt" height="196pt"
 viewBox="0.00 0.00 2777.00 196.00" xmlns="http://www.w3.org/2000/svg" xmlns:xlink="http://www.w3.org/1999/xlink">
<g id="graph0" class="graph" transform="scale(1 1) rotate(0) translate(4 192)">
<title>src/expconfig/setups/Setup.h</title>
<polygon fill="white" stroke="none" points="-4,4 -4,-192 2773,-192 2773,4 -4,4"/>
<!-- Node61 -->
<g id="node1" class="node"><title>Node61</title>
<polygon fill="#bfbfbf" stroke="black" points="1276.5,-157 1276.5,-187 1383.5,-187 1383.5,-157 1276.5,-157"/>
<text text-anchor="start" x="1284.5" y="-175" font-family="Helvetica,sans-Serif" font-size="10.00">src/expconfig/setups</text>
<text text-anchor="middle" x="1330" y="-164" font-family="Helvetica,sans-Serif" font-size="10.00">/Setup.h</text>
</g>
<!-- Node62 -->
<g id="node2" class="node"><title>Node62</title>
<g id="a_node2"><a xlink:href="_ant-fake_raw_8cc.html" target="_top" xlink:title="progs/Ant&#45;fakeRaw.cc">
<polygon fill="white" stroke="black" points="0,-89.5 0,-108.5 114,-108.5 114,-89.5 0,-89.5"/>
<text text-anchor="middle" x="57" y="-96.5" font-family="Helvetica,sans-Serif" font-size="10.00">progs/Ant&#45;fakeRaw.cc</text>
</a>
</g>
</g>
<!-- Node61&#45;&gt;Node62 -->
<g id="edge1" class="edge"><title>Node61&#45;&gt;Node62</title>
<path fill="none" stroke="midnightblue" d="M1266,-170.382C1049.67,-167.967 346.79,-157.367 124,-120 109.275,-117.53 93.2324,-112.817 80.5381,-108.586"/>
<polygon fill="midnightblue" stroke="midnightblue" points="1266.2,-173.884 1276.24,-170.494 1266.27,-166.885 1266.2,-173.884"/>
</g>
<!-- Node63 -->
<g id="node3" class="node"><title>Node63</title>
<g id="a_node3"><a xlink:href="_ant-info_8cc.html" target="_top" xlink:title="progs/Ant&#45;info.cc">
<polygon fill="white" stroke="black" points="132.5,-89.5 132.5,-108.5 223.5,-108.5 223.5,-89.5 132.5,-89.5"/>
<text text-anchor="middle" x="178" y="-96.5" font-family="Helvetica,sans-Serif" font-size="10.00">progs/Ant&#45;info.cc</text>
</a>
</g>
</g>
<!-- Node61&#45;&gt;Node63 -->
<g id="edge2" class="edge"><title>Node61&#45;&gt;Node63</title>
<path fill="none" stroke="midnightblue" d="M1266.29,-170.558C1063.2,-168.753 432.715,-159.988 233,-120 220.746,-117.546 207.571,-112.834 197.188,-108.599"/>
<polygon fill="midnightblue" stroke="midnightblue" points="1266.46,-174.059 1276.49,-170.646 1266.52,-167.06 1266.46,-174.059"/>
</g>
<!-- Node64 -->
<g id="node4" class="node"><title>Node64</title>
<g id="a_node4"><a xlink:href="_ant-make_tagg_eff_8cc.html" target="_top" xlink:title="progs/Ant&#45;makeTaggEff.cc">
<polygon fill="white" stroke="black" points="242,-89.5 242,-108.5 376,-108.5 376,-89.5 242,-89.5"/>
<text text-anchor="middle" x="309" y="-96.5" font-family="Helvetica,sans-Serif" font-size="10.00">progs/Ant&#45;makeTaggEff.cc</text>
</a>
</g>
</g>
<!-- Node61&#45;&gt;Node64 -->
<g id="edge3" class="edge"><title>Node61&#45;&gt;Node64</title>
<path fill="none" stroke="midnightblue" d="M1266.41,-169.225C1083.19,-163.847 556.417,-146.462 386,-120 369.349,-117.415 351.081,-112.751 336.519,-108.577"/>
<polygon fill="midnightblue" stroke="midnightblue" points="1266.33,-172.724 1276.43,-169.517 1266.53,-165.727 1266.33,-172.724"/>
</g>
<!-- Node65 -->
<g id="node5" class="node"><title>Node65</title>
<g id="a_node5"><a xlink:href="_ant-rawdump_8cc.html" target="_top" xlink:title="progs/Ant&#45;rawdump.cc">
<polygon fill="white" stroke="black" points="394.5,-89.5 394.5,-108.5 509.5,-108.5 509.5,-89.5 394.5,-89.5"/>
<text text-anchor="middle" x="452" y="-96.5" font-family="Helvetica,sans-Serif" font-size="10.00">progs/Ant&#45;rawdump.cc</text>
</a>
</g>
</g>
<!-- Node61&#45;&gt;Node65 -->
<g id="edge4" class="edge"><title>Node61&#45;&gt;Node65</title>
<path fill="none" stroke="midnightblue" d="M1266,-171.885C1128.23,-172.72 793.781,-168.993 519,-120 504.42,-117.4 488.52,-112.736 475.87,-108.566"/>
<polygon fill="midnightblue" stroke="midnightblue" points="1266.39,-175.382 1276.36,-171.811 1266.34,-168.383 1266.39,-175.382"/>
</g>
<!-- Node66 -->
<g id="node6" class="node"><title>Node66</title>
<g id="a_node6"><a xlink:href="_omega_eta_g__fit_8cc.html" target="_top" xlink:title="progs/OmegaEtaG_fit.cc">
<polygon fill="white" stroke="black" points="527.5,-89.5 527.5,-108.5 652.5,-108.5 652.5,-89.5 527.5,-89.5"/>
<text text-anchor="middle" x="590" y="-96.5" font-family="Helvetica,sans-Serif" font-size="10.00">progs/OmegaEtaG_fit.cc</text>
</a>
</g>
</g>
<!-- Node61&#45;&gt;Node66 -->
<g id="edge5" class="edge"><title>Node61&#45;&gt;Node66</title>
<path fill="none" stroke="midnightblue" d="M1266.24,-170.25C1146.8,-167.938 881.574,-158.5 662,-120 646.538,-117.289 629.608,-112.673 616.051,-108.558"/>
<polygon fill="midnightblue" stroke="midnightblue" points="1266.25,-173.751 1276.31,-170.435 1266.37,-166.752 1266.25,-173.751"/>
</g>
<!-- Node67 -->
<g id="node7" class="node"><title>Node67</title>
<g id="a_node7"><a xlink:href="_proton_vertex_test_8cc.html" target="_top" xlink:title="src/analysis/physics\l/scratch/wolfes/ProtonVertex\lTest.cc">
<polygon fill="white" stroke="black" points="670.5,-78.5 670.5,-119.5 813.5,-119.5 813.5,-78.5 670.5,-78.5"/>
<text text-anchor="start" x="678.5" y="-107.5" font-family="Helvetica,sans-Serif" font-size="10.00">src/analysis/physics</text>
<text text-anchor="start" x="678.5" y="-96.5" font-family="Helvetica,sans-Serif" font-size="10.00">/scratch/wolfes/ProtonVertex</text>
<text text-anchor="middle" x="742" y="-85.5" font-family="Helvetica,sans-Serif" font-size="10.00">Test.cc</text>
</a>
</g>
</g>
<!-- Node61&#45;&gt;Node67 -->
<g id="edge6" class="edge"><title>Node61&#45;&gt;Node67</title>
<path fill="none" stroke="midnightblue" d="M1266.2,-167.494C1169.71,-161.536 981.122,-147.332 823,-120 820.003,-119.482 816.952,-118.914 813.877,-118.309"/>
<polygon fill="midnightblue" stroke="midnightblue" points="1266.18,-170.999 1276.38,-168.113 1266.61,-164.012 1266.18,-170.999"/>
</g>
<!-- Node68 -->
<g id="node8" class="node"><title>Node68</title>
<g id="a_node8"><a xlink:href="_exp_config_8cc.html" target="_top" xlink:title="src/expconfig/ExpConfig.cc">
<polygon fill="white" stroke="black" points="831.5,-89.5 831.5,-108.5 968.5,-108.5 968.5,-89.5 831.5,-89.5"/>
<text text-anchor="middle" x="900" y="-96.5" font-family="Helvetica,sans-Serif" font-size="10.00">src/expconfig/ExpConfig.cc</text>
</a>
</g>
</g>
<!-- Node61&#45;&gt;Node68 -->
<g id="edge7" class="edge"><title>Node61&#45;&gt;Node68</title>
<path fill="none" stroke="midnightblue" d="M1266.22,-163.845C1195.44,-155.42 1077.98,-140.002 978,-120 962.099,-116.819 944.593,-112.414 930.201,-108.548"/>
<polygon fill="midnightblue" stroke="midnightblue" points="1265.98,-167.34 1276.32,-165.037 1266.8,-160.388 1265.98,-167.34"/>
</g>
<!-- Node69 -->
<g id="node9" class="node"><title>Node69</title>
<g id="a_node9"><a xlink:href="_setup_8cc.html" target="_top" xlink:title="src/expconfig/setups\l/Setup.cc">
<polygon fill="white" stroke="black" points="986.5,-84 986.5,-114 1093.5,-114 1093.5,-84 986.5,-84"/>
<text text-anchor="start" x="994.5" y="-102" font-family="Helvetica,sans-Serif" font-size="10.00">src/expconfig/setups</text>
<text text-anchor="middle" x="1040" y="-91" font-family="Helvetica,sans-Serif" font-size="10.00">/Setup.cc</text>
</a>
</g>
</g>
<!-- Node61&#45;&gt;Node69 -->
<g id="edge8" class="edge"><title>Node61&#45;&gt;Node69</title>
<path fill="none" stroke="midnightblue" d="M1266.41,-158.25C1220.7,-148.711 1157.74,-134.807 1103,-120 1096.35,-118.202 1089.36,-116.148 1082.55,-114.057"/>
<polygon fill="midnightblue" stroke="midnightblue" points="1265.97,-161.733 1276.48,-160.337 1267.4,-154.879 1265.97,-161.733"/>
</g>
<!-- Node70 -->
<g id="node10" class="node"><title>Node70</title>
<g id="a_node10"><a xlink:href="_setup__2007___base_8h.html" target="_top" xlink:title="src/expconfig/setups\l/Setup_2007_Base.h">
<polygon fill="white" stroke="black" points="1111.5,-84 1111.5,-114 1218.5,-114 1218.5,-84 1111.5,-84"/>
<text text-anchor="start" x="1119.5" y="-102" font-family="Helvetica,sans-Serif" font-size="10.00">src/expconfig/setups</text>
<text text-anchor="middle" x="1165" y="-91" font-family="Helvetica,sans-Serif" font-size="10.00">/Setup_2007_Base.h</text>
</a>
</g>
</g>
<!-- Node61&#45;&gt;Node70 -->
<g id="edge9" class="edge"><title>Node61&#45;&gt;Node70</title>
<path fill="none" stroke="midnightblue" d="M1287.87,-152.873C1259.88,-140.829 1223.66,-125.243 1197.81,-114.12"/>
<polygon fill="midnightblue" stroke="midnightblue" points="1286.83,-156.235 1297.4,-156.973 1289.6,-149.805 1286.83,-156.235"/>
</g>
<!-- Node73 -->
<g id="node13" class="node"><title>Node73</title>
<g id="a_node13"><a xlink:href="_setup__2007___base_8cc.html" target="_top" xlink:title="src/expconfig/setups\l/Setup_2007_Base.cc">
<polygon fill="white" stroke="black" points="901.5,-6 901.5,-36 1014.5,-36 1014.5,-6 901.5,-6"/>
<text text-anchor="start" x="909.5" y="-24" font-family="Helvetica,sans-Serif" font-size="10.00">src/expconfig/setups</text>
<text text-anchor="middle" x="958" y="-13" font-family="Helvetica,sans-Serif" font-size="10.00">/Setup_2007_Base.cc</text>
</a>
</g>
</g>
<!-- Node61&#45;&gt;Node73 -->
<g id="edge13" class="edge"><title>Node61&#45;&gt;Node73</title>
<path fill="none" stroke="midnightblue" d="M1299.72,-151.135C1287.16,-142.276 1272.81,-131.297 1261,-120 1243.65,-103.396 1247.69,-90.2011 1227,-78 1148.08,-31.4493 1113.11,-63.3242 1024,-42 1016.78,-40.2725 1009.19,-38.2086 1001.82,-36.0727"/>
<polygon fill="midnightblue" stroke="midnightblue" points="1297.85,-154.1 1308.06,-156.908 1301.83,-148.342 1297.85,-154.1"/>
</g>
<!-- Node74 -->
<g id="node14" class="node"><title>Node74</title>
<g id="a_node14"><a xlink:href="_setup__2010__03___base_8cc.html" target="_top" xlink:title="src/expconfig/setups\l/Setup_2010_03_Base.cc">
<polygon fill="white" stroke="black" points="1033,-6 1033,-36 1161,-36 1161,-6 1033,-6"/>
<text text-anchor="start" x="1041" y="-24" font-family="Helvetica,sans-Serif" font-size="10.00">src/expconfig/setups</text>
<text text-anchor="middle" x="1097" y="-13" font-family="Helvetica,sans-Serif" font-size="10.00">/Setup_2010_03_Base.cc</text>
</a>
</g>
</g>
<!-- Node61&#45;&gt;Node74 -->
<g id="edge14" class="edge"><title>Node61&#45;&gt;Node74</title>
<path fill="none" stroke="midnightblue" d="M1318.26,-148.019C1306.43,-127.022 1286.34,-96.5077 1261,-78 1242.78,-64.6922 1189.6,-47.7534 1148.69,-36.0075"/>
<polygon fill="midnightblue" stroke="midnightblue" points="1315.24,-149.806 1323.09,-156.92 1321.39,-146.463 1315.24,-149.806"/>
</g>
<!-- Node75 -->
<g id="node15" class="node"><title>Node75</title>
<g id="a_node15"><a xlink:href="_setup__2010__03___base_8h.html" target="_top" xlink:title="src/expconfig/setups\l/Setup_2010_03_Base.h">
<polygon fill="white" stroke="black" points="1313.5,-84 1313.5,-114 1436.5,-114 1436.5,-84 1313.5,-84"/>
<text text-anchor="start" x="1321.5" y="-102" font-family="Helvetica,sans-Serif" font-size="10.00">src/expconfig/setups</text>
<text text-anchor="middle" x="1375" y="-91" font-family="Helvetica,sans-Serif" font-size="10.00">/Setup_2010_03_Base.h</text>
</a>
</g>
</g>
<!-- Node61&#45;&gt;Node75 -->
<g id="edge15" class="edge"><title>Node61&#45;&gt;Node75</title>
<path fill="none" stroke="midnightblue" d="M1344.43,-148.235C1351.45,-137.164 1359.67,-124.189 1365.82,-114.486"/>
<polygon fill="midnightblue" stroke="midnightblue" points="1341.29,-146.653 1338.89,-156.973 1347.2,-150.4 1341.29,-146.653"/>
</g>
<!-- Node77 -->
<g id="node17" class="node"><title>Node77</title>
<g id="a_node17"><a xlink:href="_setup__2012__12___compton_8cc.html" target="_top" xlink:title="src/expconfig/setups\l/Setup_2012_12_Compton.cc">
<polygon fill="white" stroke="black" points="1455,-84 1455,-114 1601,-114 1601,-84 1455,-84"/>
<text text-anchor="start" x="1463" y="-102" font-family="Helvetica,sans-Serif" font-size="10.00">src/expconfig/setups</text>
<text text-anchor="middle" x="1528" y="-91" font-family="Helvetica,sans-Serif" font-size="10.00">/Setup_2012_12_Compton.cc</text>
</a>
</g>
</g>
<!-- Node61&#45;&gt;Node77 -->
<g id="edge18" class="edge"><title>Node61&#45;&gt;Node77</title>
<path fill="none" stroke="midnightblue" d="M1378.8,-153.501C1412.62,-141.374 1457.06,-125.437 1488.62,-114.12"/>
<polygon fill="midnightblue" stroke="midnightblue" points="1377.35,-150.303 1369.12,-156.973 1379.71,-156.892 1377.35,-150.303"/>
</g>
<!-- Node78 -->
<g id="node18" class="node"><title>Node78</title>
<g id="a_node18"><a xlink:href="_setup__2014___e_p_t_8h.html" target="_top" xlink:title="src/expconfig/setups\l/Setup_2014_EPT.h">
<polygon fill="white" stroke="black" points="1619.5,-84 1619.5,-114 1726.5,-114 1726.5,-84 1619.5,-84"/>
<text text-anchor="start" x="1627.5" y="-102" font-family="Helvetica,sans-Serif" font-size="10.00">src/expconfig/setups</text>
<text text-anchor="middle" x="1673" y="-91" font-family="Helvetica,sans-Serif" font-size="10.00">/Setup_2014_EPT.h</text>
</a>
</g>
</g>
<!-- Node61&#45;&gt;Node78 -->
<g id="edge19" class="edge"><title>Node61&#45;&gt;Node78</title>
<path fill="none" stroke="midnightblue" d="M1393.55,-161.789C1450.62,-152.957 1536.49,-138.283 1610,-120 1616.9,-118.283 1624.16,-116.224 1631.19,-114.09"/>
<polygon fill="midnightblue" stroke="midnightblue" points="1392.94,-158.341 1383.59,-163.316 1394,-165.26 1392.94,-158.341"/>
</g>
<!-- Node83 -->
<g id="node23" class="node"><title>Node83</title>
<g id="a_node23"><a xlink:href="_setup__2015__01___pion_8cc.html" target="_top" xlink:title="src/expconfig/setups\l/Setup_2015_01_Pion.cc">
<polygon fill="white" stroke="black" points="1979.5,-6 1979.5,-36 2104.5,-36 2104.5,-6 1979.5,-6"/>
<text text-anchor="start" x="1987.5" y="-24" font-family="Helvetica,sans-Serif" font-size="10.00">src/expconfig/setups</text>
<text text-anchor="middle" x="2042" y="-13" font-family="Helvetica,sans-Serif" font-size="10.00">/Setup_2015_01_Pion.cc</text>
</a>
</g>
</g>
<!-- Node61&#45;&gt;Node83 -->
<g id="edge24" class="edge"><title>Node61&#45;&gt;Node83</title>
<path fill="none" stroke="midnightblue" d="M1393.95,-168.246C1492.68,-163.115 1676.91,-149.788 1735,-120 1757.67,-108.376 1751.67,-90.258 1774,-78 1851.64,-35.3801 1883.69,-61.8722 1970,-42 1977.71,-40.2244 1985.84,-38.1594 1993.74,-36.0438"/>
<polygon fill="midnightblue" stroke="midnightblue" points="1393.61,-164.759 1383.8,-168.76 1393.96,-171.75 1393.61,-164.759"/>
</g>
<!-- Node84 -->
<g id="node24" class="node"><title>Node84</title>
<g id="a_node24"><a xlink:href="_setup__2015__01___pion_8h.html" target="_top" xlink:title="src/expconfig/setups\l/Setup_2015_01_Pion.h">
<polygon fill="white" stroke="black" points="1783,-84 1783,-114 1903,-114 1903,-84 1783,-84"/>
<text text-anchor="start" x="1791" y="-102" font-family="Helvetica,sans-Serif" font-size="10.00">src/expconfig/setups</text>
<text text-anchor="middle" x="1843" y="-91" font-family="Helvetica,sans-Serif" font-size="10.00">/Setup_2015_01_Pion.h</text>
</a>
</g>
</g>
<!-- Node61&#45;&gt;Node84 -->
<g id="edge25" class="edge"><title>Node61&#45;&gt;Node84</title>
<path fill="none" stroke="midnightblue" d="M1393.89,-166.565C1479.75,-159.925 1636.86,-145.387 1769,-120 1777.49,-118.368 1786.45,-116.275 1795.08,-114.061"/>
<polygon fill="midnightblue" stroke="midnightblue" points="1393.48,-163.085 1383.78,-167.335 1394.01,-170.065 1393.48,-163.085"/>
</g>
<!-- Node85 -->
<g id="node25" class="node"><title>Node85</title>
<g id="a_node25"><a xlink:href="_setup__2017__03_8h.html" target="_top" xlink:title="src/expconfig/setups\l/Setup_2017_03.h">
<polygon fill="white" stroke="black" points="1921.5,-84 1921.5,-114 2028.5,-114 2028.5,-84 1921.5,-84"/>
<text text-anchor="start" x="1929.5" y="-102" font-family="Helvetica,sans-Serif" font-size="10.00">src/expconfig/setups</text>
<text text-anchor="middle" x="1975" y="-91" font-family="Helvetica,sans-Serif" font-size="10.00">/Setup_2017_03.h</text>
</a>
</g>
</g>
<!-- Node61&#45;&gt;Node85 -->
<g id="edge27" class="edge"><title>Node61&#45;&gt;Node85</title>
<path fill="none" stroke="midnightblue" d="M1393.86,-169.875C1501.51,-166.983 1725.52,-156.677 1911,-120 1918.77,-118.464 1926.92,-116.334 1934.71,-114.032"/>
<polygon fill="midnightblue" stroke="midnightblue" points="1393.72,-166.377 1383.81,-170.132 1393.9,-173.375 1393.72,-166.377"/>
</g>
<!-- Node87 -->
<g id="node27" class="node"><title>Node87</title>
<g id="a_node27"><a xlink:href="_setup__2017__05_8h.html" target="_top" xlink:title="src/expconfig/setups\l/Setup_2017_05.h">
<polygon fill="white" stroke="black" points="2046.5,-84 2046.5,-114 2153.5,-114 2153.5,-84 2046.5,-84"/>
<text text-anchor="start" x="2054.5" y="-102" font-family="Helvetica,sans-Serif" font-size="10.00">src/expconfig/setups</text>
<text text-anchor="middle" x="2100" y="-91" font-family="Helvetica,sans-Serif" font-size="10.00">/Setup_2017_05.h</text>
</a>
</g>
</g>
<!-- Node61&#45;&gt;Node87 -->
<g id="edge29" class="edge"><title>Node61&#45;&gt;Node87</title>
<path fill="none" stroke="midnightblue" d="M1393.92,-171.394C1518.72,-171.066 1803.08,-164.916 2037,-120 2044.78,-118.507 2052.94,-116.366 2060.71,-114.034"/>
<polygon fill="midnightblue" stroke="midnightblue" points="1393.77,-167.894 1383.77,-171.409 1393.78,-174.894 1393.77,-167.894"/>
</g>
<!-- Node89 -->
<g id="node29" class="node"><title>Node89</title>
<g id="a_node29"><a xlink:href="_setup__2017_plus___new_tagger___base_8h.html" target="_top" xlink:title="src/expconfig/setups\l/Setup_2017Plus_NewTagger\l_Base.h">
<polygon fill="white" stroke="black" points="2172,-78.5 2172,-119.5 2318,-119.5 2318,-78.5 2172,-78.5"/>
<text text-anchor="start" x="2180" y="-107.5" font-family="Helvetica,sans-Serif" font-size="10.00">src/expconfig/setups</text>
<text text-anchor="start" x="2180" y="-96.5" font-family="Helvetica,sans-Serif" font-size="10.00">/Setup_2017Plus_NewTagger</text>
<text text-anchor="middle" x="2245" y="-85.5" font-family="Helvetica,sans-Serif" font-size="10.00">_Base.h</text>
</a>
</g>
</g>
<!-- Node61&#45;&gt;Node89 -->
<g id="edge31" class="edge"><title>Node61&#45;&gt;Node89</title>
<path fill="none" stroke="midnightblue" d="M1394,-170.885C1534.05,-169.801 1877.87,-162.605 2162,-120 2165.22,-119.516 2168.51,-118.968 2171.82,-118.37"/>
<polygon fill="midnightblue" stroke="midnightblue" points="1393.85,-167.386 1383.88,-170.955 1393.9,-174.385 1393.85,-167.386"/>
</g>
<!-- Node93 -->
<g id="node33" class="node"><title>Node93</title>
<g id="a_node33"><a xlink:href="_setup___c_b_source_calib_8cc.html" target="_top" xlink:title="src/expconfig/setups\l/Setup_CBSourceCalib.cc">
<polygon fill="white" stroke="black" points="2336.5,-84 2336.5,-114 2467.5,-114 2467.5,-84 2336.5,-84"/>
<text text-anchor="start" x="2344.5" y="-102" font-family="Helvetica,sans-Serif" font-size="10.00">src/expconfig/setups</text>
<text text-anchor="middle" x="2402" y="-91" font-family="Helvetica,sans-Serif" font-size="10.00">/Setup_CBSourceCalib.cc</text>
</a>
</g>
</g>
<!-- Node61&#45;&gt;Node93 -->
<g id="edge35" class="edge"><title>Node61&#45;&gt;Node93</title>
<path fill="none" stroke="midnightblue" d="M1393.87,-169.482C1584.28,-164.68 2146.06,-148.431 2327,-120 2336.32,-118.536 2346.15,-116.377 2355.51,-114.013"/>
<polygon fill="midnightblue" stroke="midnightblue" points="1393.65,-165.986 1383.74,-169.736 1393.82,-172.984 1393.65,-165.986"/>
</g>
<!-- Node94 -->
<g id="node34" class="node"><title>Node94</title>
<g id="a_node34"><a xlink:href="_setup_registry_8cc.html" target="_top" xlink:title="src/expconfig/setups\l/SetupRegistry.cc">
<polygon fill="white" stroke="black" points="2485.5,-84 2485.5,-114 2592.5,-114 2592.5,-84 2485.5,-84"/>
<text text-anchor="start" x="2493.5" y="-102" font-family="Helvetica,sans-Serif" font-size="10.00">src/expconfig/setups</text>
<text text-anchor="middle" x="2539" y="-91" font-family="Helvetica,sans-Serif" font-size="10.00">/SetupRegistry.cc</text>
</a>
</g>
</g>
<!-- Node61&#45;&gt;Node94 -->
<g id="edge36" class="edge"><title>Node61&#45;&gt;Node94</title>
<path fill="none" stroke="midnightblue" d="M1393.99,-170.361C1603.23,-167.926 2265.7,-157.386 2476,-120 2484.02,-118.574 2492.44,-116.401 2500.42,-114.004"/>
<polygon fill="midnightblue" stroke="midnightblue" points="1393.75,-166.864 1383.79,-170.478 1393.83,-173.863 1393.75,-166.864"/>
</g>
<!-- Node95 -->
<g id="node35" class="node"><title>Node95</title>
<g id="a_node35"><a xlink:href="expconfig__helpers_8cc.html" target="_top" xlink:title="test/expconfig_helpers.cc">
<polygon fill="white" stroke="black" points="2611,-89.5 2611,-108.5 2739,-108.5 2739,-89.5 2611,-89.5"/>
<text text-anchor="middle" x="2675" y="-96.5" font-family="Helvetica,sans-Serif" font-size="10.00">test/expconfig_helpers.cc</text>
</a>
</g>
</g>
<!-- Node61&#45;&gt;Node95 -->
<g id="edge37" class="edge"><title>Node61&#45;&gt;Node95</title>
<path fill="none" stroke="midnightblue" d="M1393.99,-170.325C1617.76,-167.668 2364.5,-156.236 2601,-120 2617.18,-117.521 2634.9,-112.807 2648.93,-108.578"/>
<polygon fill="midnightblue" stroke="midnightblue" points="1393.69,-166.828 1383.73,-170.445 1393.77,-173.827 1393.69,-166.828"/>
</g>
<!-- Node71 -->
<g id="node11" class="node"><title>Node71</title>
<g id="a_node11"><a xlink:href="_setup__2007__06_8cc.html" target="_top" xlink:title="src/expconfig/setups\l/Setup_2007_06.cc">
<polygon fill="white" stroke="black" points="651.5,-6 651.5,-36 758.5,-36 758.5,-6 651.5,-6"/>
<text text-anchor="start" x="659.5" y="-24" font-family="Helvetica,sans-Serif" font-size="10.00">src/expconfig/setups</text>
<text text-anchor="middle" x="705" y="-13" font-family="Helvetica,sans-Serif" font-size="10.00">/Setup_2007_06.cc</text>
</a>
</g>
</g>
<!-- Node70&#45;&gt;Node71 -->
<g id="edge10" class="edge"><title>Node70&#45;&gt;Node71</title>
<path fill="none" stroke="midnightblue" d="M1115.29,-81.2127C1110.83,-80.0113 1106.35,-78.9152 1102,-78 955.895,-47.2582 914.105,-72.7418 768,-42 760.476,-40.4169 752.575,-38.2926 745.01,-36.0187"/>
<polygon fill="midnightblue" stroke="midnightblue" points="1114.41,-84.6023 1124.99,-83.9813 1116.33,-77.8711 1114.41,-84.6023"/>
</g>
<!-- Node72 -->
<g id="node12" class="node"><title>Node72</title>
<g id="a_node12"><a xlink:href="_setup__2007__07_8cc.html" target="_top" xlink:title="src/expconfig/setups\l/Setup_2007_07.cc">
<polygon fill="white" stroke="black" points="776.5,-6 776.5,-36 883.5,-36 883.5,-6 776.5,-6"/>
<text text-anchor="start" x="784.5" y="-24" font-family="Helvetica,sans-Serif" font-size="10.00">src/expconfig/setups</text>
<text text-anchor="middle" x="830" y="-13" font-family="Helvetica,sans-Serif" font-size="10.00">/Setup_2007_07.cc</text>
</a>
</g>
</g>
<!-- Node70&#45;&gt;Node72 -->
<g id="edge11" class="edge"><title>Node70&#45;&gt;Node72</title>
<path fill="none" stroke="midnightblue" d="M1113.75,-81.0921C1109.79,-79.9821 1105.84,-78.9359 1102,-78 1010.42,-55.6877 984.578,-64.3123 893,-42 885.976,-40.2886 878.594,-38.2084 871.455,-36.0444"/>
<polygon fill="midnightblue" stroke="midnightblue" points="1112.96,-84.5099 1123.55,-83.9556 1114.93,-77.7909 1112.96,-84.5099"/>
</g>
<!-- Node70&#45;&gt;Node73 -->
<g id="edge12" class="edge"><title>Node70&#45;&gt;Node73</title>
<path fill="none" stroke="midnightblue" d="M1117.04,-80.3918C1080.31,-66.9049 1030.31,-48.5488 996.244,-36.0413"/>
<polygon fill="midnightblue" stroke="midnightblue" points="1115.96,-83.722 1126.55,-83.8831 1118.37,-77.1509 1115.96,-83.722"/>
</g>
<!-- Node75&#45;&gt;Node74 -->
<g id="edge16" class="edge"><title>Node75&#45;&gt;Node74</title>
<path fill="none" stroke="midnightblue" d="M1313.82,-81.3008C1273.07,-70.174 1218.33,-55.2211 1170,-42 1163.03,-40.0929 1155.68,-38.0821 1148.45,-36.1001"/>
<polygon fill="midnightblue" stroke="midnightblue" points="1313.04,-84.7145 1323.61,-83.972 1314.88,-77.9616 1313.04,-84.7145"/>
</g>
<!-- Node76 -->
<g id="node16" class="node"><title>Node76</title>
<g id="a_node16"><a xlink:href="_setup__2010__09___compton_8cc.html" target="_top" xlink:title="src/expconfig/setups\l/Setup_2010_09_Compton.cc">
<polygon fill="white" stroke="black" points="1179,-6 1179,-36 1325,-36 1325,-6 1179,-6"/>
<text text-anchor="start" x="1187" y="-24" font-family="Helvetica,sans-Serif" font-size="10.00">src/expconfig/setups</text>
<text text-anchor="middle" x="1252" y="-13" font-family="Helvetica,sans-Serif" font-size="10.00">/Setup_2010_09_Compton.cc</text>
</a>
</g>
</g>
<!-- Node75&#45;&gt;Node76 -->
<g id="edge17" class="edge"><title>Node75&#45;&gt;Node76</title>
<path fill="none" stroke="midnightblue" d="M1343.39,-78.467C1321.91,-65.1993 1294.02,-47.9633 1274.72,-36.0413"/>
<polygon fill="midnightblue" stroke="midnightblue" points="1341.81,-81.6041 1352.15,-83.8831 1345.49,-75.6492 1341.81,-81.6041"/>
</g>
<!-- Node79 -->
<g id="node19" class="node"><title>Node79</title>
<g id="a_node19"><a xlink:href="_setup__2014__07___e_p_t___prod_8cc.html" target="_top" xlink:title="src/expconfig/setups\l/Setup_2014_07_EPT_Prod.cc">
<polygon fill="white" stroke="black" points="1343.5,-6 1343.5,-36 1494.5,-36 1494.5,-6 1343.5,-6"/>
<text text-anchor="start" x="1351.5" y="-24" font-family="Helvetica,sans-Serif" font-size="10.00">src/expconfig/setups</text>
<text text-anchor="middle" x="1419" y="-13" font-family="Helvetica,sans-Serif" font-size="10.00">/Setup_2014_07_EPT_Prod.cc</text>
</a>
</g>
</g>
<!-- Node78&#45;&gt;Node79 -->
<g id="edge20" class="edge"><title>Node78&#45;&gt;Node79</title>
<path fill="none" stroke="midnightblue" d="M1619.58,-80.9509C1616.34,-79.9451 1613.13,-78.9549 1610,-78 1561.91,-63.3196 1506.79,-47.2369 1468.16,-36.0881"/>
<polygon fill="midnightblue" stroke="midnightblue" points="1618.73,-84.3526 1629.32,-83.9952 1620.82,-77.6713 1618.73,-84.3526"/>
</g>
<!-- Node80 -->
<g id="node20" class="node"><title>Node80</title>
<g id="a_node20"><a xlink:href="_setup__2014__10___e_p_t___prod_8cc.html" target="_top" xlink:title="src/expconfig/setups\l/Setup_2014_10_EPT_Prod.cc">
<polygon fill="white" stroke="black" points="1512.5,-6 1512.5,-36 1663.5,-36 1663.5,-6 1512.5,-6"/>
<text text-anchor="start" x="1520.5" y="-24" font-family="Helvetica,sans-Serif" font-size="10.00">src/expconfig/setups</text>
<text text-anchor="middle" x="1588" y="-13" font-family="Helvetica,sans-Serif" font-size="10.00">/Setup_2014_10_EPT_Prod.cc</text>
</a>
</g>
</g>
<!-- Node78&#45;&gt;Node80 -->
<g id="edge21" class="edge"><title>Node78&#45;&gt;Node80</title>
<path fill="none" stroke="midnightblue" d="M1649.39,-76.8941C1634.9,-63.9322 1616.72,-47.6775 1603.92,-36.2309"/>
<polygon fill="midnightblue" stroke="midnightblue" points="1647.22,-79.6487 1657.01,-83.705 1651.89,-74.4304 1647.22,-79.6487"/>
</g>
<!-- Node81 -->
<g id="node21" class="node"><title>Node81</title>
<g id="a_node21"><a xlink:href="_setup__2014__12___e_p_t___prod_8cc.html" target="_top" xlink:title="src/expconfig/setups\l/Setup_2014_12_EPT_Prod.cc">
<polygon fill="white" stroke="black" points="1681.5,-6 1681.5,-36 1832.5,-36 1832.5,-6 1681.5,-6"/>
<text text-anchor="start" x="1689.5" y="-24" font-family="Helvetica,sans-Serif" font-size="10.00">src/expconfig/setups</text>
<text text-anchor="middle" x="1757" y="-13" font-family="Helvetica,sans-Serif" font-size="10.00">/Setup_2014_12_EPT_Prod.cc</text>
</a>
</g>
</g>
<!-- Node78&#45;&gt;Node81 -->
<g id="edge22" class="edge"><title>Node78&#45;&gt;Node81</title>
<path fill="none" stroke="midnightblue" d="M1696.33,-76.8941C1710.65,-63.9322 1728.62,-47.6775 1741.27,-36.2309"/>
<polygon fill="midnightblue" stroke="midnightblue" points="1693.87,-74.4004 1688.8,-83.705 1698.56,-79.5912 1693.87,-74.4004"/>
</g>
<!-- Node82 -->
<g id="node22" class="node"><title>Node82</title>
<g id="a_node22"><a xlink:href="_setup__2014___e_p_t_8cc.html" target="_top" xlink:title="src/expconfig/setups\l/Setup_2014_EPT.cc">
<polygon fill="white" stroke="black" points="1851,-6 1851,-36 1961,-36 1961,-6 1851,-6"/>
<text text-anchor="start" x="1859" y="-24" font-family="Helvetica,sans-Serif" font-size="10.00">src/expconfig/setups</text>
<text text-anchor="middle" x="1906" y="-13" font-family="Helvetica,sans-Serif" font-size="10.00">/Setup_2014_EPT.cc</text>
</a>
</g>
</g>
<!-- Node78&#45;&gt;Node82 -->
<g id="edge23" class="edge"><title>Node78&#45;&gt;Node82</title>
<path fill="none" stroke="midnightblue" d="M1725.65,-80.8256C1767.08,-67.3128 1824.09,-48.7164 1862.85,-36.0749"/>
<polygon fill="midnightblue" stroke="midnightblue" points="1724.43,-77.5433 1716.01,-83.9719 1726.6,-84.1982 1724.43,-77.5433"/>
</g>
<!-- Node84&#45;&gt;Node83 -->
<g id="edge26" class="edge"><title>Node84&#45;&gt;Node83</title>
<path fill="none" stroke="midnightblue" d="M1889.56,-80.2193C1924.83,-66.7488 1972.62,-48.4956 2005.23,-36.0413"/>
<polygon fill="midnightblue" stroke="midnightblue" points="1888.06,-77.0456 1879.96,-83.8831 1890.55,-83.5849 1888.06,-77.0456"/>
</g>
<!-- Node86 -->
<g id="node26" class="node"><title>Node86</title>
<g id="a_node26"><a xlink:href="_setup__2017__03_8cc.html" target="_top" xlink:title="src/expconfig/setups\l/Setup_2017_03.cc">
<polygon fill="white" stroke="black" points="2122.5,-6 2122.5,-36 2229.5,-36 2229.5,-6 2122.5,-6"/>
<text text-anchor="start" x="2130.5" y="-24" font-family="Helvetica,sans-Serif" font-size="10.00">src/expconfig/setups</text>
<text text-anchor="middle" x="2176" y="-13" font-family="Helvetica,sans-Serif" font-size="10.00">/Setup_2017_03.cc</text>
</a>
</g>
</g>
<!-- Node85&#45;&gt;Node86 -->
<g id="edge28" class="edge"><title>Node85&#45;&gt;Node86</title>
<path fill="none" stroke="midnightblue" d="M2022.03,-80.2193C2057.65,-66.7488 2105.93,-48.4956 2138.86,-36.0413"/>
<polygon fill="midnightblue" stroke="midnightblue" points="2020.45,-77.0725 2012.34,-83.8831 2022.93,-83.6201 2020.45,-77.0725"/>
</g>
<!-- Node88 -->
<g id="node28" class="node"><title>Node88</title>
<g id="a_node28"><a xlink:href="_setup__2017__05_8cc.html" target="_top" xlink:title="src/expconfig/setups\l/Setup_2017_05.cc">
<polygon fill="white" stroke="black" points="2247.5,-6 2247.5,-36 2354.5,-36 2354.5,-6 2247.5,-6"/>
<text text-anchor="start" x="2255.5" y="-24" font-family="Helvetica,sans-Serif" font-size="10.00">src/expconfig/setups</text>
<text text-anchor="middle" x="2301" y="-13" font-family="Helvetica,sans-Serif" font-size="10.00">/Setup_2017_05.cc</text>
</a>
</g>
</g>
<!-- Node87&#45;&gt;Node88 -->
<g id="edge30" class="edge"><title>Node87&#45;&gt;Node88</title>
<path fill="none" stroke="midnightblue" d="M2147.03,-80.2193C2182.65,-66.7488 2230.93,-48.4956 2263.86,-36.0413"/>
<polygon fill="midnightblue" stroke="midnightblue" points="2145.45,-77.0725 2137.34,-83.8831 2147.93,-83.6201 2145.45,-77.0725"/>
</g>
<!-- Node90 -->
<g id="node30" class="node"><title>Node90</title>
<g id="a_node30"><a xlink:href="_setup__2017__12_8cc.html" target="_top" xlink:title="src/expconfig/setups\l/Setup_2017_12.cc">
<polygon fill="white" stroke="black" points="2372.5,-6 2372.5,-36 2479.5,-36 2479.5,-6 2372.5,-6"/>
<text text-anchor="start" x="2380.5" y="-24" font-family="Helvetica,sans-Serif" font-size="10.00">src/expconfig/setups</text>
<text text-anchor="middle" x="2426" y="-13" font-family="Helvetica,sans-Serif" font-size="10.00">/Setup_2017_12.cc</text>
</a>
</g>
</g>
<!-- Node89&#45;&gt;Node90 -->
<g id="edge32" class="edge"><title>Node89&#45;&gt;Node90</title>
<path fill="none" stroke="midnightblue" d="M2301.1,-74.4456C2331.01,-61.8855 2366.81,-46.8516 2392.4,-36.1065"/>
<polygon fill="midnightblue" stroke="midnightblue" points="2299.48,-71.3295 2291.61,-78.4281 2302.19,-77.7837 2299.48,-71.3295"/>
</g>
<!-- Node91 -->
<g id="node31" class="node"><title>Node91</title>
<g id="a_node31"><a xlink:href="_setup__2017_plus___new_tagger___base_8cc.html" target="_top" xlink:title="src/expconfig/setups\l/Setup_2017Plus_NewTagger\l_Base.cc">
<polygon fill="white" stroke="black" points="2498,-0.5 2498,-41.5 2644,-41.5 2644,-0.5 2498,-0.5"/>
<text text-anchor="start" x="2506" y="-29.5" font-family="Helvetica,sans-Serif" font-size="10.00">src/expconfig/setups</text>
<text text-anchor="start" x="2506" y="-18.5" font-family="Helvetica,sans-Serif" font-size="10.00">/Setup_2017Plus_NewTagger</text>
<text text-anchor="middle" x="2571" y="-7.5" font-family="Helvetica,sans-Serif" font-size="10.00">_Base.cc</text>
</a>
</g>
</g>
<!-- Node89&#45;&gt;Node91 -->
<g id="edge33" class="edge"><title>Node89&#45;&gt;Node91</title>
<path fill="none" stroke="midnightblue" d="M2328.37,-77.9331C2400.63,-61.1857 2420.06,-57.8273 2488,-42 2491.18,-41.2601 2494.42,-40.4997 2497.69,-39.7278"/>
<polygon fill="midnightblue" stroke="midnightblue" points="2327.25,-74.5989 2318.31,-80.2722 2328.84,-81.4171 2327.25,-74.5989"/>
</g>
<!-- Node92 -->
<g id="node32" class="node"><title>Node92</title>
<g id="a_node32"><a xlink:href="_setup__2018__03_8cc.html" target="_top" xlink:title="src/expconfig/setups\l/Setup_2018_03.cc">
<polygon fill="white" stroke="black" points="2662.5,-6 2662.5,-36 2769.5,-36 2769.5,-6 2662.5,-6"/>
<text text-anchor="start" x="2670.5" y="-24" font-family="Helvetica,sans-Serif" font-size="10.00">src/expconfig/setups</text>
<text text-anchor="middle" x="2716" y="-13" font-family="Helvetica,sans-Serif" font-size="10.00">/Setup_2018_03.cc</text>
</a>
</g>
</g>
<!-- Node89&#45;&gt;Node92 -->
<g id="edge34" class="edge"><title>Node89&#45;&gt;Node92</title>
<path fill="none" stroke="midnightblue" d="M2328.35,-78.0839C2472.98,-53.7658 2514.02,-71.456 2653,-42 2660.52,-40.4058 2668.42,-38.2762 2675.99,-36.0005"/>
<polygon fill="midnightblue" stroke="midnightblue" points="2327.48,-74.6829 2318.22,-79.8278 2328.66,-81.5815 2327.48,-74.6829"/>
</g>
</g>
</svg>
