<?xml version="1.0" encoding="UTF-8" standalone="no"?>
<!DOCTYPE svg PUBLIC "-//W3C//DTD SVG 1.1//EN"
 "http://www.w3.org/Graphics/SVG/1.1/DTD/svg11.dtd">
<!-- Generated by graphviz version 2.36.0 (20140111.2315)
 -->
<!-- Title: src/expconfig/detectors/TAPSVeto.h Pages: 1 -->
<svg width="2843pt" height="196pt"
 viewBox="0.00 0.00 2843.00 196.00" xmlns="http://www.w3.org/2000/svg" xmlns:xlink="http://www.w3.org/1999/xlink">
<g id="graph0" class="graph" transform="scale(1 1) rotate(0) translate(4 192)">
<title>src/expconfig/detectors/TAPSVeto.h</title>
<polygon fill="white" stroke="none" points="-4,4 -4,-192 2839,-192 2839,4 -4,4"/>
<!-- Node56 -->
<g id="node1" class="node"><title>Node56</title>
<polygon fill="#bfbfbf" stroke="black" points="1226.5,-157 1226.5,-187 1345.5,-187 1345.5,-157 1226.5,-157"/>
<text text-anchor="start" x="1234.5" y="-175" font-family="Helvetica,sans-Serif" font-size="10.00">src/expconfig/detectors</text>
<text text-anchor="middle" x="1286" y="-164" font-family="Helvetica,sans-Serif" font-size="10.00">/TAPSVeto.h</text>
</g>
<!-- Node57 -->
<g id="node2" class="node"><title>Node57</title>
<g id="a_node2"><a xlink:href="_m_c_fake_reconstructed_8cc.html" target="_top" xlink:title="src/analysis/utils\l/MCFakeReconstructed.cc">
<polygon fill="white" stroke="black" points="0,-84 0,-114 134,-114 134,-84 0,-84"/>
<text text-anchor="start" x="8" y="-102" font-family="Helvetica,sans-Serif" font-size="10.00">src/analysis/utils</text>
<text text-anchor="middle" x="67" y="-91" font-family="Helvetica,sans-Serif" font-size="10.00">/MCFakeReconstructed.cc</text>
</a>
</g>
</g>
<!-- Node56&#45;&gt;Node57 -->
<g id="edge1" class="edge"><title>Node56&#45;&gt;Node57</title>
<path fill="none" stroke="midnightblue" d="M1215.97,-169.826C1000.84,-165.913 351.548,-151.723 143,-120 133.558,-118.564 123.597,-116.418 114.107,-114.057"/>
<polygon fill="midnightblue" stroke="midnightblue" points="1216.12,-173.33 1226.18,-170.01 1216.25,-166.331 1216.12,-173.33"/>
</g>
<!-- Node58 -->
<g id="node3" class="node"><title>Node58</title>
<g id="a_node3"><a xlink:href="calibration_2modules_2_t_a_p_s_veto___energy_8cc.html" target="_top" xlink:title="src/calibration/modules\l/TAPSVeto_Energy.cc">
<polygon fill="white" stroke="black" points="152.5,-84 152.5,-114 269.5,-114 269.5,-84 152.5,-84"/>
<text text-anchor="start" x="160.5" y="-102" font-family="Helvetica,sans-Serif" font-size="10.00">src/calibration/modules</text>
<text text-anchor="middle" x="211" y="-91" font-family="Helvetica,sans-Serif" font-size="10.00">/TAPSVeto_Energy.cc</text>
</a>
</g>
</g>
<!-- Node56&#45;&gt;Node58 -->
<g id="edge2" class="edge"><title>Node56&#45;&gt;Node58</title>
<path fill="none" stroke="midnightblue" d="M1215.95,-169.596C1018.42,-165.298 459.669,-150.702 279,-120 270.508,-118.557 261.576,-116.408 253.079,-114.046"/>
<polygon fill="midnightblue" stroke="midnightblue" points="1216.13,-173.101 1226.2,-169.817 1216.28,-166.103 1216.13,-173.101"/>
</g>
<!-- Node59 -->
<g id="node4" class="node"><title>Node59</title>
<g id="a_node4"><a xlink:href="_t_a_p_s_veto___time_8cc.html" target="_top" xlink:title="src/calibration/modules\l/TAPSVeto_Time.cc">
<polygon fill="white" stroke="black" points="287.5,-84 287.5,-114 404.5,-114 404.5,-84 287.5,-84"/>
<text text-anchor="start" x="295.5" y="-102" font-family="Helvetica,sans-Serif" font-size="10.00">src/calibration/modules</text>
<text text-anchor="middle" x="346" y="-91" font-family="Helvetica,sans-Serif" font-size="10.00">/TAPSVeto_Time.cc</text>
</a>
</g>
</g>
<!-- Node56&#45;&gt;Node59 -->
<g id="edge3" class="edge"><title>Node56&#45;&gt;Node59</title>
<path fill="none" stroke="midnightblue" d="M1216.18,-168.967C1037.63,-163.441 567.703,-146.738 414,-120 405.635,-118.545 396.839,-116.421 388.452,-114.095"/>
<polygon fill="midnightblue" stroke="midnightblue" points="1216.14,-172.468 1226.24,-169.277 1216.35,-165.471 1216.14,-172.468"/>
</g>
<!-- Node60 -->
<g id="node5" class="node"><title>Node60</title>
<g id="a_node5"><a xlink:href="_t_a_p_s_veto__2007___ba_f2__elements_8h.html" target="_top" xlink:title="src/expconfig/detectors\l/detail/TAPSVeto_2007\l_BaF2_elements.h">
<polygon fill="white" stroke="black" points="422.5,-78.5 422.5,-119.5 541.5,-119.5 541.5,-78.5 422.5,-78.5"/>
<text text-anchor="start" x="430.5" y="-107.5" font-family="Helvetica,sans-Serif" font-size="10.00">src/expconfig/detectors</text>
<text text-anchor="start" x="430.5" y="-96.5" font-family="Helvetica,sans-Serif" font-size="10.00">/detail/TAPSVeto_2007</text>
<text text-anchor="middle" x="482" y="-85.5" font-family="Helvetica,sans-Serif" font-size="10.00">_BaF2_elements.h</text>
</a>
</g>
</g>
<!-- Node56&#45;&gt;Node60 -->
<g id="edge4" class="edge"><title>Node56&#45;&gt;Node60</title>
<path fill="none" stroke="midnightblue" d="M1216.15,-170.616C1085.57,-168.905 795.99,-160.42 556,-120 551.276,-119.204 546.417,-118.237 541.554,-117.162"/>
<polygon fill="midnightblue" stroke="midnightblue" points="1216.36,-174.118 1226.4,-170.74 1216.44,-167.119 1216.36,-174.118"/>
</g>
<!-- Node61 -->
<g id="node6" class="node"><title>Node61</title>
<g id="a_node6"><a xlink:href="_t_a_p_s_veto_8cc.html" target="_top" xlink:title="src/expconfig/detectors\l/TAPSVeto.cc">
<polygon fill="white" stroke="black" points="723.5,-6 723.5,-36 842.5,-36 842.5,-6 723.5,-6"/>
<text text-anchor="start" x="731.5" y="-24" font-family="Helvetica,sans-Serif" font-size="10.00">src/expconfig/detectors</text>
<text text-anchor="middle" x="783" y="-13" font-family="Helvetica,sans-Serif" font-size="10.00">/TAPSVeto.cc</text>
</a>
</g>
</g>
<!-- Node56&#45;&gt;Node61 -->
<g id="edge18" class="edge"><title>Node56&#45;&gt;Node61</title>
<path fill="none" stroke="midnightblue" d="M1216.07,-171.143C1047.97,-170.758 632.011,-165.202 590,-120 545.358,-71.9667 651.25,-43.8822 723.198,-30.8685"/>
<polygon fill="midnightblue" stroke="midnightblue" points="1216.29,-174.643 1226.29,-171.161 1216.3,-167.643 1216.29,-174.643"/>
</g>
<!-- Node62 -->
<g id="node7" class="node"><title>Node62</title>
<g id="a_node7"><a xlink:href="_t_a_p_s_veto__2009__03___ba_f2__elements_8h.html" target="_top" xlink:title="src/expconfig/detectors\l/detail/TAPSVeto_2009\l_03_BaF2_elements.h">
<polygon fill="white" stroke="black" points="598.5,-78.5 598.5,-119.5 717.5,-119.5 717.5,-78.5 598.5,-78.5"/>
<text text-anchor="start" x="606.5" y="-107.5" font-family="Helvetica,sans-Serif" font-size="10.00">src/expconfig/detectors</text>
<text text-anchor="start" x="606.5" y="-96.5" font-family="Helvetica,sans-Serif" font-size="10.00">/detail/TAPSVeto_2009</text>
<text text-anchor="middle" x="658" y="-85.5" font-family="Helvetica,sans-Serif" font-size="10.00">_03_BaF2_elements.h</text>
</a>
</g>
</g>
<!-- Node56&#45;&gt;Node62 -->
<g id="edge6" class="edge"><title>Node56&#45;&gt;Node62</title>
<path fill="none" stroke="midnightblue" d="M1216.04,-168.905C1109.6,-164.756 900.997,-152.842 727,-120 723.936,-119.422 720.812,-118.766 717.67,-118.052"/>
<polygon fill="midnightblue" stroke="midnightblue" points="1216.2,-172.413 1226.33,-169.294 1216.47,-165.418 1216.2,-172.413"/>
</g>
<!-- Node63 -->
<g id="node8" class="node"><title>Node63</title>
<g id="a_node8"><a xlink:href="_t_a_p_s_veto__2009__03___pb_w_o4__elements_8h.html" target="_top" xlink:title="src/expconfig/detectors\l/detail/TAPSVeto_2009\l_03_PbWO4_elements.h">
<polygon fill="white" stroke="black" points="735.5,-78.5 735.5,-119.5 860.5,-119.5 860.5,-78.5 735.5,-78.5"/>
<text text-anchor="start" x="743.5" y="-107.5" font-family="Helvetica,sans-Serif" font-size="10.00">src/expconfig/detectors</text>
<text text-anchor="start" x="743.5" y="-96.5" font-family="Helvetica,sans-Serif" font-size="10.00">/detail/TAPSVeto_2009</text>
<text text-anchor="middle" x="798" y="-85.5" font-family="Helvetica,sans-Serif" font-size="10.00">_03_PbWO4_elements.h</text>
</a>
</g>
</g>
<!-- Node56&#45;&gt;Node63 -->
<g id="edge8" class="edge"><title>Node56&#45;&gt;Node63</title>
<path fill="none" stroke="midnightblue" d="M1216.24,-165.644C1133.19,-158.533 990.57,-143.998 870,-120 866.946,-119.392 863.832,-118.723 860.696,-118.008"/>
<polygon fill="midnightblue" stroke="midnightblue" points="1216.05,-169.141 1226.31,-166.495 1216.64,-162.166 1216.05,-169.141"/>
</g>
<!-- Node64 -->
<g id="node9" class="node"><title>Node64</title>
<g id="a_node9"><a xlink:href="_t_a_p_s_veto__2013__11___ba_f2__elements_8h.html" target="_top" xlink:title="src/expconfig/detectors\l/detail/TAPSVeto_2013\l_11_BaF2_elements.h">
<polygon fill="white" stroke="black" points="878.5,-78.5 878.5,-119.5 997.5,-119.5 997.5,-78.5 878.5,-78.5"/>
<text text-anchor="start" x="886.5" y="-107.5" font-family="Helvetica,sans-Serif" font-size="10.00">src/expconfig/detectors</text>
<text text-anchor="start" x="886.5" y="-96.5" font-family="Helvetica,sans-Serif" font-size="10.00">/detail/TAPSVeto_2013</text>
<text text-anchor="middle" x="938" y="-85.5" font-family="Helvetica,sans-Serif" font-size="10.00">_11_BaF2_elements.h</text>
</a>
</g>
</g>
<!-- Node56&#45;&gt;Node64 -->
<g id="edge10" class="edge"><title>Node56&#45;&gt;Node64</title>
<path fill="none" stroke="midnightblue" d="M1216.38,-160.286C1159.69,-151.08 1077.76,-136.676 1007,-120 1003.97,-119.285 1000.86,-118.518 997.741,-117.718"/>
<polygon fill="midnightblue" stroke="midnightblue" points="1215.88,-163.751 1226.31,-161.887 1217,-156.84 1215.88,-163.751"/>
</g>
<!-- Node65 -->
<g id="node10" class="node"><title>Node65</title>
<g id="a_node10"><a xlink:href="_t_a_p_s_veto__2013__11___pb_w_o4__elements_8h.html" target="_top" xlink:title="src/expconfig/detectors\l/detail/TAPSVeto_2013\l_11_PbWO4_elements.h">
<polygon fill="white" stroke="black" points="1015.5,-78.5 1015.5,-119.5 1140.5,-119.5 1140.5,-78.5 1015.5,-78.5"/>
<text text-anchor="start" x="1023.5" y="-107.5" font-family="Helvetica,sans-Serif" font-size="10.00">src/expconfig/detectors</text>
<text text-anchor="start" x="1023.5" y="-96.5" font-family="Helvetica,sans-Serif" font-size="10.00">/detail/TAPSVeto_2013</text>
<text text-anchor="middle" x="1078" y="-85.5" font-family="Helvetica,sans-Serif" font-size="10.00">_11_PbWO4_elements.h</text>
</a>
</g>
</g>
<!-- Node56&#45;&gt;Node65 -->
<g id="edge12" class="edge"><title>Node56&#45;&gt;Node65</title>
<path fill="none" stroke="midnightblue" d="M1235.38,-153.722C1205.1,-143.385 1166.53,-130.218 1135.15,-119.507"/>
<polygon fill="midnightblue" stroke="midnightblue" points="1234.31,-157.055 1244.91,-156.973 1236.57,-150.43 1234.31,-157.055"/>
</g>
<!-- Node66 -->
<g id="node11" class="node"><title>Node66</title>
<g id="a_node11"><a xlink:href="_t_a_p_s_veto__2014___ba_f2__elements_8h.html" target="_top" xlink:title="src/expconfig/detectors\l/detail/TAPSVeto_2014\l_BaF2_elements.h">
<polygon fill="white" stroke="black" points="1158.5,-78.5 1158.5,-119.5 1277.5,-119.5 1277.5,-78.5 1158.5,-78.5"/>
<text text-anchor="start" x="1166.5" y="-107.5" font-family="Helvetica,sans-Serif" font-size="10.00">src/expconfig/detectors</text>
<text text-anchor="start" x="1166.5" y="-96.5" font-family="Helvetica,sans-Serif" font-size="10.00">/detail/TAPSVeto_2014</text>
<text text-anchor="middle" x="1218" y="-85.5" font-family="Helvetica,sans-Serif" font-size="10.00">_BaF2_elements.h</text>
</a>
</g>
</g>
<!-- Node56&#45;&gt;Node66 -->
<g id="edge14" class="edge"><title>Node56&#45;&gt;Node66</title>
<path fill="none" stroke="midnightblue" d="M1265.63,-149.735C1256.49,-140.186 1245.77,-128.991 1236.81,-119.642"/>
<polygon fill="midnightblue" stroke="midnightblue" points="1263.12,-152.172 1272.57,-156.973 1268.18,-147.33 1263.12,-152.172"/>
</g>
<!-- Node67 -->
<g id="node12" class="node"><title>Node67</title>
<g id="a_node12"><a xlink:href="_t_a_p_s_veto__2014___pb_w_o4__elements_8h.html" target="_top" xlink:title="src/expconfig/detectors\l/detail/TAPSVeto_2014\l_PbWO4_elements.h">
<polygon fill="white" stroke="black" points="1295.5,-78.5 1295.5,-119.5 1414.5,-119.5 1414.5,-78.5 1295.5,-78.5"/>
<text text-anchor="start" x="1303.5" y="-107.5" font-family="Helvetica,sans-Serif" font-size="10.00">src/expconfig/detectors</text>
<text text-anchor="start" x="1303.5" y="-96.5" font-family="Helvetica,sans-Serif" font-size="10.00">/detail/TAPSVeto_2014</text>
<text text-anchor="middle" x="1355" y="-85.5" font-family="Helvetica,sans-Serif" font-size="10.00">_PbWO4_elements.h</text>
</a>
</g>
</g>
<!-- Node56&#45;&gt;Node67 -->
<g id="edge16" class="edge"><title>Node56&#45;&gt;Node67</title>
<path fill="none" stroke="midnightblue" d="M1306.67,-149.735C1315.95,-140.186 1326.83,-128.991 1335.91,-119.642"/>
<polygon fill="midnightblue" stroke="midnightblue" points="1304.09,-147.362 1299.63,-156.973 1309.11,-152.241 1304.09,-147.362"/>
</g>
<!-- Node68 -->
<g id="node13" class="node"><title>Node68</title>
<g id="a_node13"><a xlink:href="_setup__2007___base_8h.html" target="_top" xlink:title="src/expconfig/setups\l/Setup_2007_Base.h">
<polygon fill="white" stroke="black" points="1432.5,-84 1432.5,-114 1539.5,-114 1539.5,-84 1432.5,-84"/>
<text text-anchor="start" x="1440.5" y="-102" font-family="Helvetica,sans-Serif" font-size="10.00">src/expconfig/setups</text>
<text text-anchor="middle" x="1486" y="-91" font-family="Helvetica,sans-Serif" font-size="10.00">/Setup_2007_Base.h</text>
</a>
</g>
</g>
<!-- Node56&#45;&gt;Node68 -->
<g id="edge19" class="edge"><title>Node56&#45;&gt;Node68</title>
<path fill="none" stroke="midnightblue" d="M1335.29,-153.501C1369.45,-141.374 1414.35,-125.437 1446.23,-114.12"/>
<polygon fill="midnightblue" stroke="midnightblue" points="1333.77,-150.329 1325.51,-156.973 1336.11,-156.926 1333.77,-150.329"/>
</g>
<!-- Node72 -->
<g id="node17" class="node"><title>Node72</title>
<g id="a_node17"><a xlink:href="_setup__2010__03___base_8h.html" target="_top" xlink:title="src/expconfig/setups\l/Setup_2010_03_Base.h">
<polygon fill="white" stroke="black" points="1557.5,-84 1557.5,-114 1680.5,-114 1680.5,-84 1557.5,-84"/>
<text text-anchor="start" x="1565.5" y="-102" font-family="Helvetica,sans-Serif" font-size="10.00">src/expconfig/setups</text>
<text text-anchor="middle" x="1619" y="-91" font-family="Helvetica,sans-Serif" font-size="10.00">/Setup_2010_03_Base.h</text>
</a>
</g>
</g>
<!-- Node56&#45;&gt;Node72 -->
<g id="edge23" class="edge"><title>Node56&#45;&gt;Node72</title>
<path fill="none" stroke="midnightblue" d="M1355.58,-159.067C1408.57,-149.59 1483.2,-135.406 1548,-120 1555.48,-118.223 1563.35,-116.18 1571.02,-114.094"/>
<polygon fill="midnightblue" stroke="midnightblue" points="1354.84,-155.643 1345.61,-160.84 1356.07,-162.535 1354.84,-155.643"/>
</g>
<!-- Node75 -->
<g id="node20" class="node"><title>Node75</title>
<g id="a_node20"><a xlink:href="_setup__2014___e_p_t_8h.html" target="_top" xlink:title="src/expconfig/setups\l/Setup_2014_EPT.h">
<polygon fill="white" stroke="black" points="1728.5,-84 1728.5,-114 1835.5,-114 1835.5,-84 1728.5,-84"/>
<text text-anchor="start" x="1736.5" y="-102" font-family="Helvetica,sans-Serif" font-size="10.00">src/expconfig/setups</text>
<text text-anchor="middle" x="1782" y="-91" font-family="Helvetica,sans-Serif" font-size="10.00">/Setup_2014_EPT.h</text>
</a>
</g>
</g>
<!-- Node56&#45;&gt;Node75 -->
<g id="edge26" class="edge"><title>Node56&#45;&gt;Node75</title>
<path fill="none" stroke="midnightblue" d="M1355.67,-164.023C1436.22,-155.529 1572.66,-139.833 1689,-120 1701.7,-117.835 1715.29,-115.133 1728.06,-112.422"/>
<polygon fill="midnightblue" stroke="midnightblue" points="1355.22,-160.55 1345.64,-165.073 1355.95,-167.512 1355.22,-160.55"/>
</g>
<!-- Node80 -->
<g id="node25" class="node"><title>Node80</title>
<g id="a_node25"><a xlink:href="_setup__2015__01___pion_8cc.html" target="_top" xlink:title="src/expconfig/setups\l/Setup_2015_01_Pion.cc">
<polygon fill="white" stroke="black" points="1853.5,-84 1853.5,-114 1978.5,-114 1978.5,-84 1853.5,-84"/>
<text text-anchor="start" x="1861.5" y="-102" font-family="Helvetica,sans-Serif" font-size="10.00">src/expconfig/setups</text>
<text text-anchor="middle" x="1916" y="-91" font-family="Helvetica,sans-Serif" font-size="10.00">/Setup_2015_01_Pion.cc</text>
</a>
</g>
</g>
<!-- Node56&#45;&gt;Node80 -->
<g id="edge31" class="edge"><title>Node56&#45;&gt;Node80</title>
<path fill="none" stroke="midnightblue" d="M1355.79,-168.648C1461.97,-164.166 1670.13,-151.826 1844,-120 1852.55,-118.435 1861.56,-116.319 1870.19,-114.048"/>
<polygon fill="midnightblue" stroke="midnightblue" points="1355.37,-165.162 1345.53,-169.07 1355.66,-172.156 1355.37,-165.162"/>
</g>
<!-- Node81 -->
<g id="node26" class="node"><title>Node81</title>
<g id="a_node26"><a xlink:href="_setup__2017__03_8h.html" target="_top" xlink:title="src/expconfig/setups\l/Setup_2017_03.h">
<polygon fill="white" stroke="black" points="2035.5,-84 2035.5,-114 2142.5,-114 2142.5,-84 2035.5,-84"/>
<text text-anchor="start" x="2043.5" y="-102" font-family="Helvetica,sans-Serif" font-size="10.00">src/expconfig/setups</text>
<text text-anchor="middle" x="2089" y="-91" font-family="Helvetica,sans-Serif" font-size="10.00">/Setup_2017_03.h</text>
</a>
</g>
</g>
<!-- Node56&#45;&gt;Node81 -->
<g id="edge32" class="edge"><title>Node56&#45;&gt;Node81</title>
<path fill="none" stroke="midnightblue" d="M1356.11,-168.708C1482.63,-163.948 1757.32,-150.758 1987,-120 2002.83,-117.88 2019.9,-114.836 2035.47,-111.76"/>
<polygon fill="midnightblue" stroke="midnightblue" points="1355.66,-165.222 1345.8,-169.09 1355.92,-172.217 1355.66,-165.222"/>
</g>
<!-- Node83 -->
<g id="node28" class="node"><title>Node83</title>
<g id="a_node28"><a xlink:href="_setup__2017__05_8h.html" target="_top" xlink:title="src/expconfig/setups\l/Setup_2017_05.h">
<polygon fill="white" stroke="black" points="2238.5,-84 2238.5,-114 2345.5,-114 2345.5,-84 2238.5,-84"/>
<text text-anchor="start" x="2246.5" y="-102" font-family="Helvetica,sans-Serif" font-size="10.00">src/expconfig/setups</text>
<text text-anchor="middle" x="2292" y="-91" font-family="Helvetica,sans-Serif" font-size="10.00">/Setup_2017_05.h</text>
</a>
</g>
</g>
<!-- Node56&#45;&gt;Node83 -->
<g id="edge34" class="edge"><title>Node56&#45;&gt;Node83</title>
<path fill="none" stroke="midnightblue" d="M1355.9,-168.824C1503.21,-163.81 1856.27,-149.541 2151,-120 2179.91,-117.103 2211.98,-112.652 2238.23,-108.684"/>
<polygon fill="midnightblue" stroke="midnightblue" points="1355.52,-165.334 1345.65,-169.169 1355.76,-172.33 1355.52,-165.334"/>
</g>
<!-- Node85 -->
<g id="node30" class="node"><title>Node85</title>
<g id="a_node30"><a xlink:href="_setup__2017_plus___new_tagger___base_8h.html" target="_top" xlink:title="src/expconfig/setups\l/Setup_2017Plus_NewTagger\l_Base.h">
<polygon fill="white" stroke="black" points="2392,-78.5 2392,-119.5 2538,-119.5 2538,-78.5 2392,-78.5"/>
<text text-anchor="start" x="2400" y="-107.5" font-family="Helvetica,sans-Serif" font-size="10.00">src/expconfig/setups</text>
<text text-anchor="start" x="2400" y="-96.5" font-family="Helvetica,sans-Serif" font-size="10.00">/Setup_2017Plus_NewTagger</text>
<text text-anchor="middle" x="2465" y="-85.5" font-family="Helvetica,sans-Serif" font-size="10.00">_Base.h</text>
</a>
</g>
</g>
<!-- Node56&#45;&gt;Node85 -->
<g id="edge36" class="edge"><title>Node56&#45;&gt;Node85</title>
<path fill="none" stroke="midnightblue" d="M1355.67,-170.814C1526.41,-169.677 1979.17,-162.534 2354,-120 2366.26,-118.609 2379.2,-116.692 2391.76,-114.591"/>
<polygon fill="midnightblue" stroke="midnightblue" points="1355.54,-167.315 1345.56,-170.877 1355.58,-174.315 1355.54,-167.315"/>
</g>
<!-- Node89 -->
<g id="node34" class="node"><title>Node89</title>
<g id="a_node34"><a xlink:href="_candidate_builder_8cc.html" target="_top" xlink:title="src/reconstruct/Candidate\lBuilder.cc">
<polygon fill="white" stroke="black" points="2556.5,-84 2556.5,-114 2685.5,-114 2685.5,-84 2556.5,-84"/>
<text text-anchor="start" x="2564.5" y="-102" font-family="Helvetica,sans-Serif" font-size="10.00">src/reconstruct/Candidate</text>
<text text-anchor="middle" x="2621" y="-91" font-family="Helvetica,sans-Serif" font-size="10.00">Builder.cc</text>
</a>
</g>
</g>
<!-- Node56&#45;&gt;Node89 -->
<g id="edge40" class="edge"><title>Node56&#45;&gt;Node89</title>
<path fill="none" stroke="midnightblue" d="M1355.72,-170.23C1585.03,-167.377 2314.51,-155.659 2547,-120 2556.21,-118.588 2565.91,-116.452 2575.16,-114.095"/>
<polygon fill="midnightblue" stroke="midnightblue" points="1355.46,-166.733 1345.5,-170.356 1355.54,-173.733 1355.46,-166.733"/>
</g>
<!-- Node90 -->
<g id="node35" class="node"><title>Node90</title>
<g id="a_node35"><a xlink:href="expconfig__helpers_8cc.html" target="_top" xlink:title="test/expconfig_helpers.cc">
<polygon fill="white" stroke="black" points="2704,-89.5 2704,-108.5 2832,-108.5 2832,-89.5 2704,-89.5"/>
<text text-anchor="middle" x="2768" y="-96.5" font-family="Helvetica,sans-Serif" font-size="10.00">test/expconfig_helpers.cc</text>
</a>
</g>
</g>
<!-- Node56&#45;&gt;Node90 -->
<g id="edge41" class="edge"><title>Node56&#45;&gt;Node90</title>
<path fill="none" stroke="midnightblue" d="M1355.78,-170.573C1602.31,-168.736 2431.58,-159.684 2694,-120 2710.32,-117.533 2728.19,-112.763 2742.28,-108.501"/>
<polygon fill="midnightblue" stroke="midnightblue" points="1355.49,-167.075 1345.52,-170.648 1355.55,-174.075 1355.49,-167.075"/>
</g>
<!-- Node60&#45;&gt;Node61 -->
<g id="edge5" class="edge"><title>Node60&#45;&gt;Node61</title>
<path fill="none" stroke="midnightblue" d="M551.609,-79.1398C553.085,-78.755 554.55,-78.3746 556,-78 613.181,-63.2215 678.692,-47.1522 724.592,-36.0333"/>
<polygon fill="midnightblue" stroke="midnightblue" points="550.527,-75.8052 541.744,-81.7314 552.306,-82.5755 550.527,-75.8052"/>
</g>
<!-- Node62&#45;&gt;Node61 -->
<g id="edge7" class="edge"><title>Node62&#45;&gt;Node61</title>
<path fill="none" stroke="midnightblue" d="M698.871,-73.1502C719.003,-60.9103 742.549,-46.5941 759.603,-36.2254"/>
<polygon fill="midnightblue" stroke="midnightblue" points="696.917,-70.2423 690.191,-78.4281 700.554,-76.2236 696.917,-70.2423"/>
</g>
<!-- Node63&#45;&gt;Node61 -->
<g id="edge9" class="edge"><title>Node63&#45;&gt;Node61</title>
<path fill="none" stroke="midnightblue" d="M792.135,-68.2829C789.958,-57.2536 787.588,-45.2457 785.808,-36.2254"/>
<polygon fill="midnightblue" stroke="midnightblue" points="788.767,-69.2951 794.137,-78.4281 795.634,-67.9396 788.767,-69.2951"/>
</g>
<!-- Node64&#45;&gt;Node61 -->
<g id="edge11" class="edge"><title>Node64&#45;&gt;Node61</title>
<path fill="none" stroke="midnightblue" d="M888.992,-73.9703C863.67,-61.5543 833.633,-46.8266 812.012,-36.2254"/>
<polygon fill="midnightblue" stroke="midnightblue" points="887.564,-77.1681 898.084,-78.4281 890.646,-70.883 887.564,-77.1681"/>
</g>
<!-- Node65&#45;&gt;Node61 -->
<g id="edge13" class="edge"><title>Node65&#45;&gt;Node61</title>
<path fill="none" stroke="midnightblue" d="M1005.14,-77.8373C936.191,-60.4839 916.946,-58.9911 852,-42 845.002,-40.1691 837.633,-38.1412 830.42,-36.0996"/>
<polygon fill="midnightblue" stroke="midnightblue" points="1004.66,-81.3253 1015.21,-80.3945 1006.38,-74.5407 1004.66,-81.3253"/>
</g>
<!-- Node66&#45;&gt;Node61 -->
<g id="edge15" class="edge"><title>Node66&#45;&gt;Node61</title>
<path fill="none" stroke="midnightblue" d="M1148.27,-78.0404C1016.89,-52.218 979.099,-67.946 852,-42 844.057,-40.3785 835.699,-38.291 827.649,-36.0788"/>
<polygon fill="midnightblue" stroke="midnightblue" points="1147.81,-81.5195 1158.31,-80.0583 1149.19,-74.6567 1147.81,-81.5195"/>
</g>
<!-- Node67&#45;&gt;Node61 -->
<g id="edge17" class="edge"><title>Node67&#45;&gt;Node61</title>
<path fill="none" stroke="midnightblue" d="M1285.23,-78.0799C1093.8,-44.0335 1039.09,-76.5162 852,-42 843.66,-40.4613 834.882,-38.3288 826.487,-36.0267"/>
<polygon fill="midnightblue" stroke="midnightblue" points="1284.87,-81.5727 1295.34,-79.9168 1286.12,-74.6855 1284.87,-81.5727"/>
</g>
<!-- Node69 -->
<g id="node14" class="node"><title>Node69</title>
<g id="a_node14"><a xlink:href="_setup__2007__06_8cc.html" target="_top" xlink:title="src/expconfig/setups\l/Setup_2007_06.cc">
<polygon fill="white" stroke="black" points="860.5,-6 860.5,-36 967.5,-36 967.5,-6 860.5,-6"/>
<text text-anchor="start" x="868.5" y="-24" font-family="Helvetica,sans-Serif" font-size="10.00">src/expconfig/setups</text>
<text text-anchor="middle" x="914" y="-13" font-family="Helvetica,sans-Serif" font-size="10.00">/Setup_2007_06.cc</text>
</a>
</g>
</g>
<!-- Node68&#45;&gt;Node69 -->
<g id="edge20" class="edge"><title>Node68&#45;&gt;Node69</title>
<path fill="none" stroke="midnightblue" d="M1436.52,-81.1391C1431.98,-79.9437 1427.43,-78.8696 1423,-78 1227.86,-39.6672 1172.14,-80.3328 977,-42 969.343,-40.4959 961.309,-38.3797 953.638,-36.0827"/>
<polygon fill="midnightblue" stroke="midnightblue" points="1435.79,-84.5703 1446.36,-83.9173 1437.69,-77.8333 1435.79,-84.5703"/>
</g>
<!-- Node70 -->
<g id="node15" class="node"><title>Node70</title>
<g id="a_node15"><a xlink:href="_setup__2007__07_8cc.html" target="_top" xlink:title="src/expconfig/setups\l/Setup_2007_07.cc">
<polygon fill="white" stroke="black" points="985.5,-6 985.5,-36 1092.5,-36 1092.5,-6 985.5,-6"/>
<text text-anchor="start" x="993.5" y="-24" font-family="Helvetica,sans-Serif" font-size="10.00">src/expconfig/setups</text>
<text text-anchor="middle" x="1039" y="-13" font-family="Helvetica,sans-Serif" font-size="10.00">/Setup_2007_07.cc</text>
</a>
</g>
</g>
<!-- Node68&#45;&gt;Node70 -->
<g id="edge21" class="edge"><title>Node68&#45;&gt;Node70</title>
<path fill="none" stroke="midnightblue" d="M1435.73,-81.0832C1431.45,-79.9359 1427.17,-78.8862 1423,-78 1282.58,-48.1378 1242.42,-71.8622 1102,-42 1094.59,-40.4246 1086.82,-38.3321 1079.35,-36.094"/>
<polygon fill="midnightblue" stroke="midnightblue" points="1435.07,-84.5344 1445.65,-83.906 1436.99,-77.8019 1435.07,-84.5344"/>
</g>
<!-- Node71 -->
<g id="node16" class="node"><title>Node71</title>
<g id="a_node16"><a xlink:href="_setup__2007___base_8cc.html" target="_top" xlink:title="src/expconfig/setups\l/Setup_2007_Base.cc">
<polygon fill="white" stroke="black" points="1110.5,-6 1110.5,-36 1223.5,-36 1223.5,-6 1110.5,-6"/>
<text text-anchor="start" x="1118.5" y="-24" font-family="Helvetica,sans-Serif" font-size="10.00">src/expconfig/setups</text>
<text text-anchor="middle" x="1167" y="-13" font-family="Helvetica,sans-Serif" font-size="10.00">/Setup_2007_Base.cc</text>
</a>
</g>
</g>
<!-- Node68&#45;&gt;Node71 -->
<g id="edge22" class="edge"><title>Node68&#45;&gt;Node71</title>
<path fill="none" stroke="midnightblue" d="M1434.54,-81.1104C1430.65,-80.0036 1426.77,-78.9525 1423,-78 1339.67,-56.9592 1316.47,-62.4919 1233,-42 1225.91,-40.2587 1218.45,-38.2116 1211.2,-36.1034"/>
<polygon fill="midnightblue" stroke="midnightblue" points="1433.6,-84.4815 1444.18,-83.9519 1435.58,-77.7672 1433.6,-84.4815"/>
</g>
<!-- Node73 -->
<g id="node18" class="node"><title>Node73</title>
<g id="a_node18"><a xlink:href="_setup__2010__03___base_8cc.html" target="_top" xlink:title="src/expconfig/setups\l/Setup_2010_03_Base.cc">
<polygon fill="white" stroke="black" points="1242,-6 1242,-36 1370,-36 1370,-6 1242,-6"/>
<text text-anchor="start" x="1250" y="-24" font-family="Helvetica,sans-Serif" font-size="10.00">src/expconfig/setups</text>
<text text-anchor="middle" x="1306" y="-13" font-family="Helvetica,sans-Serif" font-size="10.00">/Setup_2010_03_Base.cc</text>
</a>
</g>
</g>
<!-- Node72&#45;&gt;Node73 -->
<g id="edge24" class="edge"><title>Node72&#45;&gt;Node73</title>
<path fill="none" stroke="midnightblue" d="M1560.65,-81.238C1556.38,-80.1107 1552.13,-79.0194 1548,-78 1473.45,-59.5792 1453.62,-60.1537 1379,-42 1371.47,-40.1673 1363.53,-38.117 1355.77,-36.0468"/>
<polygon fill="midnightblue" stroke="midnightblue" points="1560.04,-84.6992 1570.61,-83.917 1561.86,-77.9395 1560.04,-84.6992"/>
</g>
<!-- Node74 -->
<g id="node19" class="node"><title>Node74</title>
<g id="a_node19"><a xlink:href="_setup__2010__09___compton_8cc.html" target="_top" xlink:title="src/expconfig/setups\l/Setup_2010_09_Compton.cc">
<polygon fill="white" stroke="black" points="1388,-6 1388,-36 1534,-36 1534,-6 1388,-6"/>
<text text-anchor="start" x="1396" y="-24" font-family="Helvetica,sans-Serif" font-size="10.00">src/expconfig/setups</text>
<text text-anchor="middle" x="1461" y="-13" font-family="Helvetica,sans-Serif" font-size="10.00">/Setup_2010_09_Compton.cc</text>
</a>
</g>
</g>
<!-- Node72&#45;&gt;Node74 -->
<g id="edge25" class="edge"><title>Node72&#45;&gt;Node74</title>
<path fill="none" stroke="midnightblue" d="M1580.59,-79.5244C1552.74,-66.1265 1515.64,-48.2827 1490.19,-36.0413"/>
<polygon fill="midnightblue" stroke="midnightblue" points="1579.12,-82.7024 1589.65,-83.8831 1582.16,-76.3942 1579.12,-82.7024"/>
</g>
<!-- Node76 -->
<g id="node21" class="node"><title>Node76</title>
<g id="a_node21"><a xlink:href="_setup__2014__07___e_p_t___prod_8cc.html" target="_top" xlink:title="src/expconfig/setups\l/Setup_2014_07_EPT_Prod.cc">
<polygon fill="white" stroke="black" points="1552.5,-6 1552.5,-36 1703.5,-36 1703.5,-6 1552.5,-6"/>
<text text-anchor="start" x="1560.5" y="-24" font-family="Helvetica,sans-Serif" font-size="10.00">src/expconfig/setups</text>
<text text-anchor="middle" x="1628" y="-13" font-family="Helvetica,sans-Serif" font-size="10.00">/Setup_2014_07_EPT_Prod.cc</text>
</a>
</g>
</g>
<!-- Node75&#45;&gt;Node76 -->
<g id="edge27" class="edge"><title>Node75&#45;&gt;Node76</title>
<path fill="none" stroke="midnightblue" d="M1744.21,-79.3494C1717.1,-65.9714 1681.15,-48.2295 1656.45,-36.0413"/>
<polygon fill="midnightblue" stroke="midnightblue" points="1742.88,-82.5962 1753.39,-83.8831 1745.98,-76.3189 1742.88,-82.5962"/>
</g>
<!-- Node77 -->
<g id="node22" class="node"><title>Node77</title>
<g id="a_node22"><a xlink:href="_setup__2014__10___e_p_t___prod_8cc.html" target="_top" xlink:title="src/expconfig/setups\l/Setup_2014_10_EPT_Prod.cc">
<polygon fill="white" stroke="black" points="1721.5,-6 1721.5,-36 1872.5,-36 1872.5,-6 1721.5,-6"/>
<text text-anchor="start" x="1729.5" y="-24" font-family="Helvetica,sans-Serif" font-size="10.00">src/expconfig/setups</text>
<text text-anchor="middle" x="1797" y="-13" font-family="Helvetica,sans-Serif" font-size="10.00">/Setup_2014_10_EPT_Prod.cc</text>
</a>
</g>
</g>
<!-- Node75&#45;&gt;Node77 -->
<g id="edge28" class="edge"><title>Node75&#45;&gt;Node77</title>
<path fill="none" stroke="midnightblue" d="M1786.82,-73.5898C1789.25,-61.2565 1792.12,-46.7237 1794.19,-36.2309"/>
<polygon fill="midnightblue" stroke="midnightblue" points="1783.32,-73.2165 1784.82,-83.705 1790.19,-74.572 1783.32,-73.2165"/>
</g>
<!-- Node78 -->
<g id="node23" class="node"><title>Node78</title>
<g id="a_node23"><a xlink:href="_setup__2014__12___e_p_t___prod_8cc.html" target="_top" xlink:title="src/expconfig/setups\l/Setup_2014_12_EPT_Prod.cc">
<polygon fill="white" stroke="black" points="1890.5,-6 1890.5,-36 2041.5,-36 2041.5,-6 1890.5,-6"/>
<text text-anchor="start" x="1898.5" y="-24" font-family="Helvetica,sans-Serif" font-size="10.00">src/expconfig/setups</text>
<text text-anchor="middle" x="1966" y="-13" font-family="Helvetica,sans-Serif" font-size="10.00">/Setup_2014_12_EPT_Prod.cc</text>
</a>
</g>
</g>
<!-- Node75&#45;&gt;Node78 -->
<g id="edge29" class="edge"><title>Node75&#45;&gt;Node78</title>
<path fill="none" stroke="midnightblue" d="M1825.47,-80.0464C1858.04,-66.5929 1901.98,-48.4424 1932.01,-36.0413"/>
<polygon fill="midnightblue" stroke="midnightblue" points="1824.08,-76.8305 1816.18,-83.8831 1826.76,-83.3004 1824.08,-76.8305"/>
</g>
<!-- Node79 -->
<g id="node24" class="node"><title>Node79</title>
<g id="a_node24"><a xlink:href="_setup__2014___e_p_t_8cc.html" target="_top" xlink:title="src/expconfig/setups\l/Setup_2014_EPT.cc">
<polygon fill="white" stroke="black" points="2060,-6 2060,-36 2170,-36 2170,-6 2060,-6"/>
<text text-anchor="start" x="2068" y="-24" font-family="Helvetica,sans-Serif" font-size="10.00">src/expconfig/setups</text>
<text text-anchor="middle" x="2115" y="-13" font-family="Helvetica,sans-Serif" font-size="10.00">/Setup_2014_EPT.cc</text>
</a>
</g>
</g>
<!-- Node75&#45;&gt;Node79 -->
<g id="edge30" class="edge"><title>Node75&#45;&gt;Node79</title>
<path fill="none" stroke="midnightblue" d="M1833.26,-81.1061C1837.21,-79.993 1841.16,-78.9422 1845,-78 1934.84,-55.9558 1960.06,-63.6443 2050,-42 2057.12,-40.2872 2064.6,-38.231 2071.85,-36.0981"/>
<polygon fill="midnightblue" stroke="midnightblue" points="1832.07,-77.8057 1823.46,-83.9752 1834.04,-84.5236 1832.07,-77.8057"/>
</g>
<!-- Node82 -->
<g id="node27" class="node"><title>Node82</title>
<g id="a_node27"><a xlink:href="_setup__2017__03_8cc.html" target="_top" xlink:title="src/expconfig/setups\l/Setup_2017_03.cc">
<polygon fill="white" stroke="black" points="2188.5,-6 2188.5,-36 2295.5,-36 2295.5,-6 2188.5,-6"/>
<text text-anchor="start" x="2196.5" y="-24" font-family="Helvetica,sans-Serif" font-size="10.00">src/expconfig/setups</text>
<text text-anchor="middle" x="2242" y="-13" font-family="Helvetica,sans-Serif" font-size="10.00">/Setup_2017_03.cc</text>
</a>
</g>
</g>
<!-- Node81&#45;&gt;Node82 -->
<g id="edge33" class="edge"><title>Node81&#45;&gt;Node82</title>
<path fill="none" stroke="midnightblue" d="M2126.55,-79.3494C2153.48,-65.9714 2189.2,-48.2295 2213.73,-36.0413"/>
<polygon fill="midnightblue" stroke="midnightblue" points="2124.82,-76.2997 2117.42,-83.8831 2127.93,-82.5689 2124.82,-76.2997"/>
</g>
<!-- Node84 -->
<g id="node29" class="node"><title>Node84</title>
<g id="a_node29"><a xlink:href="_setup__2017__05_8cc.html" target="_top" xlink:title="src/expconfig/setups\l/Setup_2017_05.cc">
<polygon fill="white" stroke="black" points="2313.5,-6 2313.5,-36 2420.5,-36 2420.5,-6 2313.5,-6"/>
<text text-anchor="start" x="2321.5" y="-24" font-family="Helvetica,sans-Serif" font-size="10.00">src/expconfig/setups</text>
<text text-anchor="middle" x="2367" y="-13" font-family="Helvetica,sans-Serif" font-size="10.00">/Setup_2017_05.cc</text>
</a>
</g>
</g>
<!-- Node83&#45;&gt;Node84 -->
<g id="edge35" class="edge"><title>Node83&#45;&gt;Node84</title>
<path fill="none" stroke="midnightblue" d="M2313.18,-76.5332C2325.92,-63.6316 2341.76,-47.5716 2352.96,-36.2309"/>
<polygon fill="midnightblue" stroke="midnightblue" points="2310.64,-74.1288 2306.11,-83.705 2315.62,-79.0457 2310.64,-74.1288"/>
</g>
<!-- Node86 -->
<g id="node31" class="node"><title>Node86</title>
<g id="a_node31"><a xlink:href="_setup__2017__12_8cc.html" target="_top" xlink:title="src/expconfig/setups\l/Setup_2017_12.cc">
<polygon fill="white" stroke="black" points="2438.5,-6 2438.5,-36 2545.5,-36 2545.5,-6 2438.5,-6"/>
<text text-anchor="start" x="2446.5" y="-24" font-family="Helvetica,sans-Serif" font-size="10.00">src/expconfig/setups</text>
<text text-anchor="middle" x="2492" y="-13" font-family="Helvetica,sans-Serif" font-size="10.00">/Setup_2017_12.cc</text>
</a>
</g>
</g>
<!-- Node85&#45;&gt;Node86 -->
<g id="edge37" class="edge"><title>Node85&#45;&gt;Node86</title>
<path fill="none" stroke="midnightblue" d="M2475.32,-68.9638C2479.3,-57.75 2483.68,-45.4317 2486.95,-36.2254"/>
<polygon fill="midnightblue" stroke="midnightblue" points="2472,-67.8334 2471.95,-78.4281 2478.6,-70.1768 2472,-67.8334"/>
</g>
<!-- Node87 -->
<g id="node32" class="node"><title>Node87</title>
<g id="a_node32"><a xlink:href="_setup__2017_plus___new_tagger___base_8cc.html" target="_top" xlink:title="src/expconfig/setups\l/Setup_2017Plus_NewTagger\l_Base.cc">
<polygon fill="white" stroke="black" points="2564,-0.5 2564,-41.5 2710,-41.5 2710,-0.5 2564,-0.5"/>
<text text-anchor="start" x="2572" y="-29.5" font-family="Helvetica,sans-Serif" font-size="10.00">src/expconfig/setups</text>
<text text-anchor="start" x="2572" y="-18.5" font-family="Helvetica,sans-Serif" font-size="10.00">/Setup_2017Plus_NewTagger</text>
<text text-anchor="middle" x="2637" y="-7.5" font-family="Helvetica,sans-Serif" font-size="10.00">_Base.cc</text>
</a>
</g>
</g>
<!-- Node85&#45;&gt;Node87 -->
<g id="edge38" class="edge"><title>Node85&#45;&gt;Node87</title>
<path fill="none" stroke="midnightblue" d="M2518.57,-74.3291C2542.44,-63.7835 2570.21,-51.5129 2592.86,-41.5056"/>
<polygon fill="midnightblue" stroke="midnightblue" points="2517.03,-71.185 2509.29,-78.4281 2519.86,-77.5878 2517.03,-71.185"/>
</g>
<!-- Node88 -->
<g id="node33" class="node"><title>Node88</title>
<g id="a_node33"><a xlink:href="_setup__2018__03_8cc.html" target="_top" xlink:title="src/expconfig/setups\l/Setup_2018_03.cc">
<polygon fill="white" stroke="black" points="2728.5,-6 2728.5,-36 2835.5,-36 2835.5,-6 2728.5,-6"/>
<text text-anchor="start" x="2736.5" y="-24" font-family="Helvetica,sans-Serif" font-size="10.00">src/expconfig/setups</text>
<text text-anchor="middle" x="2782" y="-13" font-family="Helvetica,sans-Serif" font-size="10.00">/Setup_2018_03.cc</text>
</a>
</g>
</g>
<!-- Node85&#45;&gt;Node88 -->
<g id="edge39" class="edge"><title>Node85&#45;&gt;Node88</title>
<path fill="none" stroke="midnightblue" d="M2548.49,-77.9395C2625.5,-60.9382 2646.97,-60.9636 2719,-42 2725.77,-40.2177 2732.89,-38.1492 2739.81,-36.0322"/>
<polygon fill="midnightblue" stroke="midnightblue" points="2547.29,-74.6209 2538.29,-80.2172 2548.82,-81.4525 2547.29,-74.6209"/>
</g>
</g>
</svg>
