<?xml version="1.0" encoding="UTF-8" standalone="no"?>
<!DOCTYPE svg PUBLIC "-//W3C//DTD SVG 1.1//EN"
 "http://www.w3.org/Graphics/SVG/1.1/DTD/svg11.dtd">
<!-- Generated by graphviz version 2.36.0 (20140111.2315)
 -->
<!-- Title: src/tree/TAntHeader.h Pages: 1 -->
<svg width="2132pt" height="96pt"
 viewBox="0.00 0.00 2132.00 96.00" xmlns="http://www.w3.org/2000/svg" xmlns:xlink="http://www.w3.org/1999/xlink">
<g id="graph0" class="graph" transform="scale(1 1) rotate(0) translate(4 92)">
<title>src/tree/TAntHeader.h</title>
<polygon fill="white" stroke="none" points="-4,4 -4,-92 2128,-92 2128,4 -4,4"/>
<!-- Node18 -->
<g id="node1" class="node"><title>Node18</title>
<polygon fill="#bfbfbf" stroke="black" points="909.5,-68.5 909.5,-87.5 1022.5,-87.5 1022.5,-68.5 909.5,-68.5"/>
<text text-anchor="middle" x="966" y="-75.5" font-family="Helvetica,sans-Serif" font-size="10.00">src/tree/TAntHeader.h</text>
</g>
<!-- Node19 -->
<g id="node2" class="node"><title>Node19</title>
<g id="a_node2"><a xlink:href="_ant-alt_veto_cal_tool_8cc.html" target="_top" xlink:title="progs/Ant&#45;altVetoCalTool.cc">
<polygon fill="white" stroke="black" points="0,-6.5 0,-25.5 140,-25.5 140,-6.5 0,-6.5"/>
<text text-anchor="middle" x="70" y="-13.5" font-family="Helvetica,sans-Serif" font-size="10.00">progs/Ant&#45;altVetoCalTool.cc</text>
</a>
</g>
</g>
<!-- Node18&#45;&gt;Node19 -->
<g id="edge1" class="edge"><title>Node18&#45;&gt;Node19</title>
<path fill="none" stroke="midnightblue" d="M899.189,-76.3151C759.432,-74.2248 426.2,-65.7992 149,-32 135.974,-30.4117 121.862,-27.9674 109.219,-25.5099"/>
<polygon fill="midnightblue" stroke="midnightblue" points="899.265,-79.8165 909.314,-76.4605 899.365,-72.8172 899.265,-79.8165"/>
</g>
<!-- Node20 -->
<g id="node3" class="node"><title>Node20</title>
<g id="a_node3"><a xlink:href="_ant-calib-regedit_8cc.html" target="_top" xlink:title="progs/Ant&#45;calib&#45;regedit.cc">
<polygon fill="white" stroke="black" points="158,-6.5 158,-25.5 286,-25.5 286,-6.5 158,-6.5"/>
<text text-anchor="middle" x="222" y="-13.5" font-family="Helvetica,sans-Serif" font-size="10.00">progs/Ant&#45;calib&#45;regedit.cc</text>
</a>
</g>
</g>
<!-- Node18&#45;&gt;Node20 -->
<g id="edge2" class="edge"><title>Node18&#45;&gt;Node20</title>
<path fill="none" stroke="midnightblue" d="M898.961,-75.5124C777.859,-72.1574 514.779,-61.8095 295,-32 283.076,-30.3828 270.182,-27.961 258.596,-25.5326"/>
<polygon fill="midnightblue" stroke="midnightblue" points="899.092,-79.0172 909.183,-75.7883 899.281,-72.0197 899.092,-79.0172"/>
</g>
<!-- Node21 -->
<g id="node4" class="node"><title>Node21</title>
<g id="a_node4"><a xlink:href="_ant-chain_8cc.html" target="_top" xlink:title="hadd like tool to concatenate TTrees in ROOT files using TChains. ">
<polygon fill="white" stroke="black" points="304,-6.5 304,-25.5 402,-25.5 402,-6.5 304,-6.5"/>
<text text-anchor="middle" x="353" y="-13.5" font-family="Helvetica,sans-Serif" font-size="10.00">progs/Ant&#45;chain.cc</text>
</a>
</g>
</g>
<!-- Node18&#45;&gt;Node21 -->
<g id="edge3" class="edge"><title>Node18&#45;&gt;Node21</title>
<path fill="none" stroke="midnightblue" d="M899.164,-75.2912C794.439,-71.7819 585.59,-61.4288 411,-32 401.462,-30.3923 391.199,-27.973 381.997,-25.5441"/>
<polygon fill="midnightblue" stroke="midnightblue" points="899.166,-78.793 909.274,-75.6194 899.393,-71.7967 899.166,-78.793"/>
</g>
<!-- Node22 -->
<g id="node5" class="node"><title>Node22</title>
<g id="a_node5"><a xlink:href="_ant-fake_raw_8cc.html" target="_top" xlink:title="progs/Ant&#45;fakeRaw.cc">
<polygon fill="white" stroke="black" points="420,-6.5 420,-25.5 534,-25.5 534,-6.5 420,-6.5"/>
<text text-anchor="middle" x="477" y="-13.5" font-family="Helvetica,sans-Serif" font-size="10.00">progs/Ant&#45;fakeRaw.cc</text>
</a>
</g>
</g>
<!-- Node18&#45;&gt;Node22 -->
<g id="edge4" class="edge"><title>Node18&#45;&gt;Node22</title>
<path fill="none" stroke="midnightblue" d="M899.139,-72.3273C815.481,-65.9214 668.009,-52.7811 543,-32 532.568,-30.2658 521.313,-27.897 511.104,-25.5541"/>
<polygon fill="midnightblue" stroke="midnightblue" points="899.031,-75.8291 909.267,-73.0938 899.56,-68.8491 899.031,-75.8291"/>
</g>
<!-- Node23 -->
<g id="node6" class="node"><title>Node23</title>
<g id="a_node6"><a xlink:href="_ant-mc-pi0gun_8cc.html" target="_top" xlink:title="progs/Ant&#45;mc&#45;pi0gun.cc">
<polygon fill="white" stroke="black" points="552,-6.5 552,-25.5 672,-25.5 672,-6.5 552,-6.5"/>
<text text-anchor="middle" x="612" y="-13.5" font-family="Helvetica,sans-Serif" font-size="10.00">progs/Ant&#45;mc&#45;pi0gun.cc</text>
</a>
</g>
</g>
<!-- Node18&#45;&gt;Node23 -->
<g id="edge5" class="edge"><title>Node18&#45;&gt;Node23</title>
<path fill="none" stroke="midnightblue" d="M899.214,-67.5626C841.338,-59.1201 755.429,-45.9542 681,-32 670.758,-30.0799 659.711,-27.7811 649.522,-25.5669"/>
<polygon fill="midnightblue" stroke="midnightblue" points="898.928,-71.0577 909.327,-69.0314 899.934,-64.1304 898.928,-71.0577"/>
</g>
<!-- Node24 -->
<g id="node7" class="node"><title>Node24</title>
<g id="a_node7"><a xlink:href="_ant-plot_8cc.html" target="_top" xlink:title="progs/Ant&#45;plot.cc">
<polygon fill="white" stroke="black" points="690.5,-6.5 690.5,-25.5 781.5,-25.5 781.5,-6.5 690.5,-6.5"/>
<text text-anchor="middle" x="736" y="-13.5" font-family="Helvetica,sans-Serif" font-size="10.00">progs/Ant&#45;plot.cc</text>
</a>
</g>
</g>
<!-- Node18&#45;&gt;Node24 -->
<g id="edge6" class="edge"><title>Node18&#45;&gt;Node24</title>
<path fill="none" stroke="midnightblue" d="M922.076,-65.8939C886.655,-56.8923 835.574,-43.8085 791,-32 783.25,-29.947 774.899,-27.6915 767.102,-25.5671"/>
<polygon fill="midnightblue" stroke="midnightblue" points="921.533,-69.3669 932.086,-68.4351 923.255,-62.5821 921.533,-69.3669"/>
</g>
<!-- Node25 -->
<g id="node8" class="node"><title>Node25</title>
<g id="a_node8"><a xlink:href="_ant_8cc.html" target="_top" xlink:title="Main Ant executable. ">
<polygon fill="white" stroke="black" points="800,-6.5 800,-25.5 872,-25.5 872,-6.5 800,-6.5"/>
<text text-anchor="middle" x="836" y="-13.5" font-family="Helvetica,sans-Serif" font-size="10.00">progs/Ant.cc</text>
</a>
</g>
</g>
<!-- Node18&#45;&gt;Node25 -->
<g id="edge7" class="edge"><title>Node18&#45;&gt;Node25</title>
<path fill="none" stroke="midnightblue" d="M937.977,-64.0664C912.752,-52.4239 876.393,-35.6429 854.591,-25.5806"/>
<polygon fill="midnightblue" stroke="midnightblue" points="936.828,-67.3907 947.374,-68.4035 939.761,-61.035 936.828,-67.3907"/>
</g>
<!-- Node26 -->
<g id="node9" class="node"><title>Node26</title>
<g id="a_node9"><a xlink:href="tagg_eff_classes_8cc.html" target="_top" xlink:title="progs/detail/taggEffClasses.cc">
<polygon fill="white" stroke="black" points="890.5,-6.5 890.5,-25.5 1041.5,-25.5 1041.5,-6.5 890.5,-6.5"/>
<text text-anchor="middle" x="966" y="-13.5" font-family="Helvetica,sans-Serif" font-size="10.00">progs/detail/taggEffClasses.cc</text>
</a>
</g>
</g>
<!-- Node18&#45;&gt;Node26 -->
<g id="edge8" class="edge"><title>Node18&#45;&gt;Node26</title>
<path fill="none" stroke="midnightblue" d="M966,-58.1595C966,-47.2482 966,-34.04 966,-25.5806"/>
<polygon fill="midnightblue" stroke="midnightblue" points="962.5,-58.4034 966,-68.4035 969.5,-58.4035 962.5,-58.4034"/>
</g>
<!-- Node27 -->
<g id="node10" class="node"><title>Node27</title>
<g id="a_node10"><a xlink:href="_manager_8cc.html" target="_top" xlink:title="src/calibration/gui\l/Manager.cc">
<polygon fill="white" stroke="black" points="1059.5,-1 1059.5,-31 1152.5,-31 1152.5,-1 1059.5,-1"/>
<text text-anchor="start" x="1067.5" y="-19" font-family="Helvetica,sans-Serif" font-size="10.00">src/calibration/gui</text>
<text text-anchor="middle" x="1106" y="-8" font-family="Helvetica,sans-Serif" font-size="10.00">/Manager.cc</text>
</a>
</g>
</g>
<!-- Node18&#45;&gt;Node27 -->
<g id="edge9" class="edge"><title>Node18&#45;&gt;Node27</title>
<path fill="none" stroke="midnightblue" d="M995.538,-64.3408C1018.3,-54.5862 1049.75,-41.1068 1073.27,-31.0253"/>
<polygon fill="midnightblue" stroke="midnightblue" points="993.871,-61.2472 986.059,-68.4035 996.629,-67.6812 993.871,-61.2472"/>
</g>
<!-- Node28 -->
<g id="node11" class="node"><title>Node28</title>
<g id="a_node11"><a xlink:href="_display_clustering_8cc.html" target="_top" xlink:title="src/root&#45;addons/analysis\l_codes/DisplayClustering.cc">
<polygon fill="white" stroke="black" points="1171,-1 1171,-31 1313,-31 1313,-1 1171,-1"/>
<text text-anchor="start" x="1179" y="-19" font-family="Helvetica,sans-Serif" font-size="10.00">src/root&#45;addons/analysis</text>
<text text-anchor="middle" x="1242" y="-8" font-family="Helvetica,sans-Serif" font-size="10.00">_codes/DisplayClustering.cc</text>
</a>
</g>
</g>
<!-- Node18&#45;&gt;Node28 -->
<g id="edge10" class="edge"><title>Node18&#45;&gt;Node28</title>
<path fill="none" stroke="midnightblue" d="M1015.12,-66.3228C1060.34,-56.4903 1127.75,-41.8374 1177.34,-31.0565"/>
<polygon fill="midnightblue" stroke="midnightblue" points="1014.28,-62.9227 1005.25,-68.4672 1015.77,-69.7629 1014.28,-62.9227"/>
</g>
<!-- Node29 -->
<g id="node12" class="node"><title>Node29</title>
<g id="a_node12"><a xlink:href="hadd_8cc.html" target="_top" xlink:title="src/root&#45;addons/analysis\l_codes/hadd.cc">
<polygon fill="white" stroke="black" points="1331.5,-1 1331.5,-31 1454.5,-31 1454.5,-1 1331.5,-1"/>
<text text-anchor="start" x="1339.5" y="-19" font-family="Helvetica,sans-Serif" font-size="10.00">src/root&#45;addons/analysis</text>
<text text-anchor="middle" x="1393" y="-8" font-family="Helvetica,sans-Serif" font-size="10.00">_codes/hadd.cc</text>
</a>
</g>
</g>
<!-- Node18&#45;&gt;Node29 -->
<g id="edge11" class="edge"><title>Node18&#45;&gt;Node29</title>
<path fill="none" stroke="midnightblue" d="M1032.87,-70.2116C1104.6,-62.5425 1221.73,-48.8995 1322,-32 1325.11,-31.4765 1328.28,-30.9123 1331.49,-30.3202"/>
<polygon fill="midnightblue" stroke="midnightblue" points="1032.2,-66.7632 1022.63,-71.2995 1032.94,-73.7241 1032.2,-66.7632"/>
</g>
<!-- Node30 -->
<g id="node13" class="node"><title>Node30</title>
<g id="a_node13"><a xlink:href="pi0__true__calib_8cc.html" target="_top" xlink:title="src/root&#45;addons/analysis\l_codes/pi0_true_calib.cc">
<polygon fill="white" stroke="black" points="1472.5,-1 1472.5,-31 1597.5,-31 1597.5,-1 1472.5,-1"/>
<text text-anchor="start" x="1480.5" y="-19" font-family="Helvetica,sans-Serif" font-size="10.00">src/root&#45;addons/analysis</text>
<text text-anchor="middle" x="1535" y="-8" font-family="Helvetica,sans-Serif" font-size="10.00">_codes/pi0_true_calib.cc</text>
</a>
</g>
</g>
<!-- Node18&#45;&gt;Node30 -->
<g id="edge12" class="edge"><title>Node18&#45;&gt;Node30</title>
<path fill="none" stroke="midnightblue" d="M1032.63,-73.4108C1128.27,-67.7055 1309.84,-54.8112 1463,-32 1466.03,-31.5486 1469.13,-31.05 1472.25,-30.517"/>
<polygon fill="midnightblue" stroke="midnightblue" points="1032.3,-69.9241 1022.52,-74.006 1032.71,-76.912 1032.3,-69.9241"/>
</g>
<!-- Node31 -->
<g id="node14" class="node"><title>Node31</title>
<g id="a_node14"><a xlink:href="_time_dependent_calibration_8cc.html" target="_top" xlink:title="src/root&#45;addons/analysis\l_codes/TimeDependentCalibration.cc">
<polygon fill="white" stroke="black" points="1616,-1 1616,-31 1796,-31 1796,-1 1616,-1"/>
<text text-anchor="start" x="1624" y="-19" font-family="Helvetica,sans-Serif" font-size="10.00">src/root&#45;addons/analysis</text>
<text text-anchor="middle" x="1706" y="-8" font-family="Helvetica,sans-Serif" font-size="10.00">_codes/TimeDependentCalibration.cc</text>
</a>
</g>
</g>
<!-- Node18&#45;&gt;Node31 -->
<g id="edge13" class="edge"><title>Node18&#45;&gt;Node31</title>
<path fill="none" stroke="midnightblue" d="M1032.83,-74.0355C1149.43,-68.4763 1397.5,-54.9316 1606,-32 1609.23,-31.6449 1612.51,-31.2629 1615.83,-30.8595"/>
<polygon fill="midnightblue" stroke="midnightblue" points="1032.46,-70.5489 1022.64,-74.517 1032.79,-77.5411 1032.46,-70.5489"/>
</g>
<!-- Node32 -->
<g id="node15" class="node"><title>Node32</title>
<g id="a_node15"><a xlink:href="_t_ant_header_8cc.html" target="_top" xlink:title="src/tree/TAntHeader.cc">
<polygon fill="white" stroke="black" points="1814.5,-6.5 1814.5,-25.5 1933.5,-25.5 1933.5,-6.5 1814.5,-6.5"/>
<text text-anchor="middle" x="1874" y="-13.5" font-family="Helvetica,sans-Serif" font-size="10.00">src/tree/TAntHeader.cc</text>
</a>
</g>
</g>
<!-- Node18&#45;&gt;Node32 -->
<g id="edge14" class="edge"><title>Node18&#45;&gt;Node32</title>
<path fill="none" stroke="midnightblue" d="M1032.83,-77.0453C1175.38,-76.3469 1519.58,-70.4253 1805,-32 1816.42,-30.4625 1828.76,-28.0317 1839.8,-25.5709"/>
<polygon fill="midnightblue" stroke="midnightblue" points="1032.49,-73.5466 1022.51,-77.0883 1032.52,-80.5465 1032.49,-73.5466"/>
</g>
<!-- Node33 -->
<g id="node16" class="node"><title>Node33</title>
<g id="a_node16"><a xlink:href="_test_g_u_i_manager_8cc.html" target="_top" xlink:title="test/calibration/TestGUIManager.cc">
<polygon fill="white" stroke="black" points="1952,-6.5 1952,-25.5 2124,-25.5 2124,-6.5 1952,-6.5"/>
<text text-anchor="middle" x="2038" y="-13.5" font-family="Helvetica,sans-Serif" font-size="10.00">test/calibration/TestGUIManager.cc</text>
</a>
</g>
</g>
<!-- Node18&#45;&gt;Node33 -->
<g id="edge15" class="edge"><title>Node18&#45;&gt;Node33</title>
<path fill="none" stroke="midnightblue" d="M1032.59,-76.4267C1190.74,-74.5212 1601.19,-66.3796 1942,-32 1957.78,-30.4085 1974.91,-27.9634 1990.28,-25.5061"/>
<polygon fill="midnightblue" stroke="midnightblue" points="1032.5,-72.9274 1022.54,-76.5434 1032.58,-79.927 1032.5,-72.9274"/>
</g>
</g>
</svg>
