<?xml version="1.0" encoding="UTF-8" standalone="no"?>
<!DOCTYPE svg PUBLIC "-//W3C//DTD SVG 1.1//EN"
 "http://www.w3.org/Graphics/SVG/1.1/DTD/svg11.dtd">
<!-- Generated by graphviz version 2.36.0 (20140111.2315)
 -->
<!-- Title: src/calibration/modules/TAPS_ToF.h Pages: 1 -->
<svg width="1088pt" height="118pt"
 viewBox="0.00 0.00 1088.00 118.00" xmlns="http://www.w3.org/2000/svg" xmlns:xlink="http://www.w3.org/1999/xlink">
<g id="graph0" class="graph" transform="scale(1 1) rotate(0) translate(4 114)">
<title>src/calibration/modules/TAPS_ToF.h</title>
<polygon fill="white" stroke="none" points="-4,4 -4,-114 1084,-114 1084,4 -4,4"/>
<!-- Node49 -->
<g id="node1" class="node"><title>Node49</title>
<polygon fill="#bfbfbf" stroke="black" points="476.5,-79 476.5,-109 593.5,-109 593.5,-79 476.5,-79"/>
<text text-anchor="start" x="484.5" y="-97" font-family="Helvetica,sans-Serif" font-size="10.00">src/calibration/modules</text>
<text text-anchor="middle" x="535" y="-86" font-family="Helvetica,sans-Serif" font-size="10.00">/TAPS_ToF.h</text>
</g>
<!-- Node50 -->
<g id="node2" class="node"><title>Node50</title>
<g id="a_node2"><a xlink:href="_t_a_p_s___to_f_8cc.html" target="_top" xlink:title="src/calibration/modules\l/TAPS_ToF.cc">
<polygon fill="white" stroke="black" points="-0.5,-6 -0.5,-36 116.5,-36 116.5,-6 -0.5,-6"/>
<text text-anchor="start" x="7.5" y="-24" font-family="Helvetica,sans-Serif" font-size="10.00">src/calibration/modules</text>
<text text-anchor="middle" x="58" y="-13" font-family="Helvetica,sans-Serif" font-size="10.00">/TAPS_ToF.cc</text>
</a>
</g>
</g>
<!-- Node49&#45;&gt;Node50 -->
<g id="edge1" class="edge"><title>Node49&#45;&gt;Node50</title>
<path fill="none" stroke="midnightblue" d="M466.263,-87.9645C384.351,-81.1571 243.651,-66.9079 125,-42 117.278,-40.3789 109.158,-38.2917 101.34,-36.0795"/>
<polygon fill="midnightblue" stroke="midnightblue" points="466.192,-91.4703 476.445,-88.7974 466.763,-84.4936 466.192,-91.4703"/>
</g>
<!-- Node51 -->
<g id="node3" class="node"><title>Node51</title>
<g id="a_node3"><a xlink:href="_setup__2007___base_8cc.html" target="_top" xlink:title="src/expconfig/setups\l/Setup_2007_Base.cc">
<polygon fill="white" stroke="black" points="134.5,-6 134.5,-36 247.5,-36 247.5,-6 134.5,-6"/>
<text text-anchor="start" x="142.5" y="-24" font-family="Helvetica,sans-Serif" font-size="10.00">src/expconfig/setups</text>
<text text-anchor="middle" x="191" y="-13" font-family="Helvetica,sans-Serif" font-size="10.00">/Setup_2007_Base.cc</text>
</a>
</g>
</g>
<!-- Node49&#45;&gt;Node51 -->
<g id="edge2" class="edge"><title>Node49&#45;&gt;Node51</title>
<path fill="none" stroke="midnightblue" d="M466.39,-82.6266C409.846,-73.5487 327.742,-59.1495 257,-42 249.786,-40.2511 242.195,-38.1762 234.833,-36.0359"/>
<polygon fill="midnightblue" stroke="midnightblue" points="465.865,-86.0869 476.291,-84.2036 466.966,-79.1741 465.865,-86.0869"/>
</g>
<!-- Node52 -->
<g id="node4" class="node"><title>Node52</title>
<g id="a_node4"><a xlink:href="_setup__2010__03___base_8cc.html" target="_top" xlink:title="src/expconfig/setups\l/Setup_2010_03_Base.cc">
<polygon fill="white" stroke="black" points="266,-6 266,-36 394,-36 394,-6 266,-6"/>
<text text-anchor="start" x="274" y="-24" font-family="Helvetica,sans-Serif" font-size="10.00">src/expconfig/setups</text>
<text text-anchor="middle" x="330" y="-13" font-family="Helvetica,sans-Serif" font-size="10.00">/Setup_2010_03_Base.cc</text>
</a>
</g>
</g>
<!-- Node49&#45;&gt;Node52 -->
<g id="edge3" class="edge"><title>Node49&#45;&gt;Node52</title>
<path fill="none" stroke="midnightblue" d="M484.925,-75.657C449.856,-63.5112 403.585,-47.4854 370.768,-36.1195"/>
<polygon fill="midnightblue" stroke="midnightblue" points="483.904,-79.0072 494.499,-78.9727 486.195,-72.3927 483.904,-79.0072"/>
</g>
<!-- Node53 -->
<g id="node5" class="node"><title>Node53</title>
<g id="a_node5"><a xlink:href="_setup__2014___e_p_t_8cc.html" target="_top" xlink:title="src/expconfig/setups\l/Setup_2014_EPT.cc">
<polygon fill="white" stroke="black" points="412,-6 412,-36 522,-36 522,-6 412,-6"/>
<text text-anchor="start" x="420" y="-24" font-family="Helvetica,sans-Serif" font-size="10.00">src/expconfig/setups</text>
<text text-anchor="middle" x="467" y="-13" font-family="Helvetica,sans-Serif" font-size="10.00">/Setup_2014_EPT.cc</text>
</a>
</g>
</g>
<!-- Node49&#45;&gt;Node53 -->
<g id="edge4" class="edge"><title>Node49&#45;&gt;Node53</title>
<path fill="none" stroke="midnightblue" d="M514.46,-71.5539C503.593,-60.2075 490.538,-46.5768 480.874,-36.4856"/>
<polygon fill="midnightblue" stroke="midnightblue" points="512.121,-74.1716 521.565,-78.9727 517.176,-69.3298 512.121,-74.1716"/>
</g>
<!-- Node54 -->
<g id="node6" class="node"><title>Node54</title>
<g id="a_node6"><a xlink:href="_setup__2015__01___pion_8cc.html" target="_top" xlink:title="src/expconfig/setups\l/Setup_2015_01_Pion.cc">
<polygon fill="white" stroke="black" points="540.5,-6 540.5,-36 665.5,-36 665.5,-6 540.5,-6"/>
<text text-anchor="start" x="548.5" y="-24" font-family="Helvetica,sans-Serif" font-size="10.00">src/expconfig/setups</text>
<text text-anchor="middle" x="603" y="-13" font-family="Helvetica,sans-Serif" font-size="10.00">/Setup_2015_01_Pion.cc</text>
</a>
</g>
</g>
<!-- Node49&#45;&gt;Node54 -->
<g id="edge5" class="edge"><title>Node49&#45;&gt;Node54</title>
<path fill="none" stroke="midnightblue" d="M555.54,-71.5539C566.407,-60.2075 579.462,-46.5768 589.126,-36.4856"/>
<polygon fill="midnightblue" stroke="midnightblue" points="552.824,-69.3298 548.435,-78.9727 557.879,-74.1716 552.824,-69.3298"/>
</g>
<!-- Node55 -->
<g id="node7" class="node"><title>Node55</title>
<g id="a_node7"><a xlink:href="_setup__2017__03_8cc.html" target="_top" xlink:title="src/expconfig/setups\l/Setup_2017_03.cc">
<polygon fill="white" stroke="black" points="683.5,-6 683.5,-36 790.5,-36 790.5,-6 683.5,-6"/>
<text text-anchor="start" x="691.5" y="-24" font-family="Helvetica,sans-Serif" font-size="10.00">src/expconfig/setups</text>
<text text-anchor="middle" x="737" y="-13" font-family="Helvetica,sans-Serif" font-size="10.00">/Setup_2017_03.cc</text>
</a>
</g>
</g>
<!-- Node49&#45;&gt;Node55 -->
<g id="edge6" class="edge"><title>Node49&#45;&gt;Node55</title>
<path fill="none" stroke="midnightblue" d="M584.786,-75.501C619.287,-63.3743 664.63,-47.4369 696.829,-36.1195"/>
<polygon fill="midnightblue" stroke="midnightblue" points="583.182,-72.3547 574.909,-78.9727 585.504,-78.9586 583.182,-72.3547"/>
</g>
<!-- Node56 -->
<g id="node8" class="node"><title>Node56</title>
<g id="a_node8"><a xlink:href="_setup__2017__05_8cc.html" target="_top" xlink:title="src/expconfig/setups\l/Setup_2017_05.cc">
<polygon fill="white" stroke="black" points="808.5,-6 808.5,-36 915.5,-36 915.5,-6 808.5,-6"/>
<text text-anchor="start" x="816.5" y="-24" font-family="Helvetica,sans-Serif" font-size="10.00">src/expconfig/setups</text>
<text text-anchor="middle" x="862" y="-13" font-family="Helvetica,sans-Serif" font-size="10.00">/Setup_2017_05.cc</text>
</a>
</g>
</g>
<!-- Node49&#45;&gt;Node56 -->
<g id="edge7" class="edge"><title>Node49&#45;&gt;Node56</title>
<path fill="none" stroke="midnightblue" d="M603.699,-81.9899C657.267,-72.8616 733.337,-58.7047 799,-42 805.895,-40.2459 813.146,-38.1683 820.175,-36.0269"/>
<polygon fill="midnightblue" stroke="midnightblue" points="602.908,-78.5738 593.631,-83.6915 604.074,-85.476 602.908,-78.5738"/>
</g>
<!-- Node57 -->
<g id="node9" class="node"><title>Node57</title>
<g id="a_node9"><a xlink:href="_setup__2017_plus___new_tagger___base_8cc.html" target="_top" xlink:title="src/expconfig/setups\l/Setup_2017Plus_NewTagger\l_Base.cc">
<polygon fill="white" stroke="black" points="934,-0.5 934,-41.5 1080,-41.5 1080,-0.5 934,-0.5"/>
<text text-anchor="start" x="942" y="-29.5" font-family="Helvetica,sans-Serif" font-size="10.00">src/expconfig/setups</text>
<text text-anchor="start" x="942" y="-18.5" font-family="Helvetica,sans-Serif" font-size="10.00">/Setup_2017Plus_NewTagger</text>
<text text-anchor="middle" x="1007" y="-7.5" font-family="Helvetica,sans-Serif" font-size="10.00">_Base.cc</text>
</a>
</g>
</g>
<!-- Node49&#45;&gt;Node57 -->
<g id="edge8" class="edge"><title>Node49&#45;&gt;Node57</title>
<path fill="none" stroke="midnightblue" d="M603.81,-86.2102C681.823,-77.9959 812.639,-62.6567 924,-42 927.206,-41.4053 930.474,-40.7651 933.77,-40.0916"/>
<polygon fill="midnightblue" stroke="midnightblue" points="603.21,-82.7537 593.628,-87.2734 603.938,-89.7159 603.21,-82.7537"/>
</g>
</g>
</svg>
