<?xml version="1.0" encoding="UTF-8" standalone="no"?>
<!DOCTYPE svg PUBLIC "-//W3C//DTD SVG 1.1//EN"
 "http://www.w3.org/Graphics/SVG/1.1/DTD/svg11.dtd">
<!-- Generated by graphviz version 2.36.0 (20140111.2315)
 -->
<!-- Title: src/calibration/modules/TAPS_ShowerCorrection.h Pages: 1 -->
<svg width="1099pt" height="118pt"
 viewBox="0.00 0.00 1099.00 118.00" xmlns="http://www.w3.org/2000/svg" xmlns:xlink="http://www.w3.org/1999/xlink">
<g id="graph0" class="graph" transform="scale(1 1) rotate(0) translate(4 114)">
<title>src/calibration/modules/TAPS_ShowerCorrection.h</title>
<polygon fill="white" stroke="none" points="-4,4 -4,-114 1095,-114 1095,4 -4,4"/>
<!-- Node51 -->
<g id="node1" class="node"><title>Node51</title>
<polygon fill="#bfbfbf" stroke="black" points="466.5,-79 466.5,-109 603.5,-109 603.5,-79 466.5,-79"/>
<text text-anchor="start" x="474.5" y="-97" font-family="Helvetica,sans-Serif" font-size="10.00">src/calibration/modules</text>
<text text-anchor="middle" x="535" y="-86" font-family="Helvetica,sans-Serif" font-size="10.00">/TAPS_ShowerCorrection.h</text>
</g>
<!-- Node52 -->
<g id="node2" class="node"><title>Node52</title>
<g id="a_node2"><a xlink:href="_setup__2007___base_8cc.html" target="_top" xlink:title="src/expconfig/setups\l/Setup_2007_Base.cc">
<polygon fill="white" stroke="black" points="-0.5,-6 -0.5,-36 112.5,-36 112.5,-6 -0.5,-6"/>
<text text-anchor="start" x="7.5" y="-24" font-family="Helvetica,sans-Serif" font-size="10.00">src/expconfig/setups</text>
<text text-anchor="middle" x="56" y="-13" font-family="Helvetica,sans-Serif" font-size="10.00">/Setup_2007_Base.cc</text>
</a>
</g>
</g>
<!-- Node51&#45;&gt;Node52 -->
<g id="edge1" class="edge"><title>Node51&#45;&gt;Node52</title>
<path fill="none" stroke="midnightblue" d="M456.259,-87.3146C372.663,-80.3412 237.007,-66.3385 122,-42 114.386,-40.3887 106.384,-38.3063 98.6813,-36.0959"/>
<polygon fill="midnightblue" stroke="midnightblue" points="456.189,-90.8206 466.442,-88.1507 456.762,-83.844 456.189,-90.8206"/>
</g>
<!-- Node53 -->
<g id="node3" class="node"><title>Node53</title>
<g id="a_node3"><a xlink:href="_setup__2010__03___base_8cc.html" target="_top" xlink:title="src/expconfig/setups\l/Setup_2010_03_Base.cc">
<polygon fill="white" stroke="black" points="131,-6 131,-36 259,-36 259,-6 131,-6"/>
<text text-anchor="start" x="139" y="-24" font-family="Helvetica,sans-Serif" font-size="10.00">src/expconfig/setups</text>
<text text-anchor="middle" x="195" y="-13" font-family="Helvetica,sans-Serif" font-size="10.00">/Setup_2010_03_Base.cc</text>
</a>
</g>
</g>
<!-- Node51&#45;&gt;Node53 -->
<g id="edge2" class="edge"><title>Node51&#45;&gt;Node53</title>
<path fill="none" stroke="midnightblue" d="M456.295,-79.6457C402.939,-70.1816 330.945,-56.6103 268,-42 260.32,-40.2173 252.23,-38.1716 244.344,-36.0842"/>
<polygon fill="midnightblue" stroke="midnightblue" points="455.916,-83.1327 466.372,-81.4235 457.132,-76.2392 455.916,-83.1327"/>
</g>
<!-- Node54 -->
<g id="node4" class="node"><title>Node54</title>
<g id="a_node4"><a xlink:href="_setup__2014___e_p_t_8cc.html" target="_top" xlink:title="src/expconfig/setups\l/Setup_2014_EPT.cc">
<polygon fill="white" stroke="black" points="277,-6 277,-36 387,-36 387,-6 277,-6"/>
<text text-anchor="start" x="285" y="-24" font-family="Helvetica,sans-Serif" font-size="10.00">src/expconfig/setups</text>
<text text-anchor="middle" x="332" y="-13" font-family="Helvetica,sans-Serif" font-size="10.00">/Setup_2014_EPT.cc</text>
</a>
</g>
</g>
<!-- Node51&#45;&gt;Node54 -->
<g id="edge3" class="edge"><title>Node51&#45;&gt;Node54</title>
<path fill="none" stroke="midnightblue" d="M485.414,-75.657C450.687,-63.5112 404.867,-47.4854 372.37,-36.1195"/>
<polygon fill="midnightblue" stroke="midnightblue" points="484.299,-78.9749 494.894,-78.9727 486.61,-72.3674 484.299,-78.9749"/>
</g>
<!-- Node55 -->
<g id="node5" class="node"><title>Node55</title>
<g id="a_node5"><a xlink:href="_setup__2015__01___pion_8cc.html" target="_top" xlink:title="src/expconfig/setups\l/Setup_2015_01_Pion.cc">
<polygon fill="white" stroke="black" points="405.5,-6 405.5,-36 530.5,-36 530.5,-6 405.5,-6"/>
<text text-anchor="start" x="413.5" y="-24" font-family="Helvetica,sans-Serif" font-size="10.00">src/expconfig/setups</text>
<text text-anchor="middle" x="468" y="-13" font-family="Helvetica,sans-Serif" font-size="10.00">/Setup_2015_01_Pion.cc</text>
</a>
</g>
</g>
<!-- Node51&#45;&gt;Node55 -->
<g id="edge4" class="edge"><title>Node51&#45;&gt;Node55</title>
<path fill="none" stroke="midnightblue" d="M514.762,-71.5539C504.055,-60.2075 491.192,-46.5768 481.67,-36.4856"/>
<polygon fill="midnightblue" stroke="midnightblue" points="512.354,-74.1018 521.763,-78.9727 517.445,-69.2975 512.354,-74.1018"/>
</g>
<!-- Node56 -->
<g id="node6" class="node"><title>Node56</title>
<g id="a_node6"><a xlink:href="_setup__2017__03_8cc.html" target="_top" xlink:title="src/expconfig/setups\l/Setup_2017_03.cc">
<polygon fill="white" stroke="black" points="548.5,-6 548.5,-36 655.5,-36 655.5,-6 548.5,-6"/>
<text text-anchor="start" x="556.5" y="-24" font-family="Helvetica,sans-Serif" font-size="10.00">src/expconfig/setups</text>
<text text-anchor="middle" x="602" y="-13" font-family="Helvetica,sans-Serif" font-size="10.00">/Setup_2017_03.cc</text>
</a>
</g>
</g>
<!-- Node51&#45;&gt;Node56 -->
<g id="edge5" class="edge"><title>Node51&#45;&gt;Node56</title>
<path fill="none" stroke="midnightblue" d="M555.238,-71.5539C565.945,-60.2075 578.808,-46.5768 588.33,-36.4856"/>
<polygon fill="midnightblue" stroke="midnightblue" points="552.555,-69.2975 548.237,-78.9727 557.646,-74.1018 552.555,-69.2975"/>
</g>
<!-- Node57 -->
<g id="node7" class="node"><title>Node57</title>
<g id="a_node7"><a xlink:href="_setup__2017__05_8cc.html" target="_top" xlink:title="src/expconfig/setups\l/Setup_2017_05.cc">
<polygon fill="white" stroke="black" points="673.5,-6 673.5,-36 780.5,-36 780.5,-6 673.5,-6"/>
<text text-anchor="start" x="681.5" y="-24" font-family="Helvetica,sans-Serif" font-size="10.00">src/expconfig/setups</text>
<text text-anchor="middle" x="727" y="-13" font-family="Helvetica,sans-Serif" font-size="10.00">/Setup_2017_05.cc</text>
</a>
</g>
</g>
<!-- Node51&#45;&gt;Node57 -->
<g id="edge6" class="edge"><title>Node51&#45;&gt;Node57</title>
<path fill="none" stroke="midnightblue" d="M582.321,-75.501C615.114,-63.3743 658.213,-47.4369 688.818,-36.1195"/>
<polygon fill="midnightblue" stroke="midnightblue" points="581.098,-72.2215 572.933,-78.9727 583.526,-78.787 581.098,-72.2215"/>
</g>
<!-- Node58 -->
<g id="node8" class="node"><title>Node58</title>
<g id="a_node8"><a xlink:href="_setup__2017_plus___new_tagger___base_8cc.html" target="_top" xlink:title="src/expconfig/setups\l/Setup_2017Plus_NewTagger\l_Base.cc">
<polygon fill="white" stroke="black" points="799,-0.5 799,-41.5 945,-41.5 945,-0.5 799,-0.5"/>
<text text-anchor="start" x="807" y="-29.5" font-family="Helvetica,sans-Serif" font-size="10.00">src/expconfig/setups</text>
<text text-anchor="start" x="807" y="-18.5" font-family="Helvetica,sans-Serif" font-size="10.00">/Setup_2017Plus_NewTagger</text>
<text text-anchor="middle" x="872" y="-7.5" font-family="Helvetica,sans-Serif" font-size="10.00">_Base.cc</text>
</a>
</g>
</g>
<!-- Node51&#45;&gt;Node58 -->
<g id="edge7" class="edge"><title>Node51&#45;&gt;Node58</title>
<path fill="none" stroke="midnightblue" d="M613.437,-78.0558C663.719,-68.2772 730.326,-54.9546 789,-42 792.184,-41.297 795.434,-40.5671 798.715,-39.8201"/>
<polygon fill="midnightblue" stroke="midnightblue" points="612.756,-74.6226 603.605,-79.9631 614.089,-81.4945 612.756,-74.6226"/>
</g>
<!-- Node59 -->
<g id="node9" class="node"><title>Node59</title>
<g id="a_node9"><a xlink:href="expconfig__helpers_8cc.html" target="_top" xlink:title="test/expconfig_helpers.cc">
<polygon fill="white" stroke="black" points="963,-11.5 963,-30.5 1091,-30.5 1091,-11.5 963,-11.5"/>
<text text-anchor="middle" x="1027" y="-18.5" font-family="Helvetica,sans-Serif" font-size="10.00">test/expconfig_helpers.cc</text>
</a>
</g>
</g>
<!-- Node51&#45;&gt;Node59 -->
<g id="edge8" class="edge"><title>Node51&#45;&gt;Node59</title>
<path fill="none" stroke="midnightblue" d="M613.753,-86.8766C698.372,-79.4929 836.542,-65.1096 954,-42 969.214,-39.0066 985.913,-34.5235 999.495,-30.56"/>
<polygon fill="midnightblue" stroke="midnightblue" points="613.367,-83.3968 603.704,-87.7424 613.968,-90.371 613.367,-83.3968"/>
</g>
</g>
</svg>
