<?xml version="1.0" encoding="UTF-8" standalone="no"?>
<!DOCTYPE svg PUBLIC "-//W3C//DTD SVG 1.1//EN"
 "http://www.w3.org/Graphics/SVG/1.1/DTD/svg11.dtd">
<!-- Generated by graphviz version 2.36.0 (20140111.2315)
 -->
<!-- Title: src/expconfig/detectors/TAPS.h Pages: 1 -->
<svg width="4366pt" height="196pt"
 viewBox="0.00 0.00 4366.00 196.00" xmlns="http://www.w3.org/2000/svg" xmlns:xlink="http://www.w3.org/1999/xlink">
<g id="graph0" class="graph" transform="scale(1 1) rotate(0) translate(4 192)">
<title>src/expconfig/detectors/TAPS.h</title>
<polygon fill="white" stroke="none" points="-4,4 -4,-192 4362,-192 4362,4 -4,4"/>
<!-- Node58 -->
<g id="node1" class="node"><title>Node58</title>
<polygon fill="#bfbfbf" stroke="black" points="2079.5,-157 2079.5,-187 2198.5,-187 2198.5,-157 2079.5,-157"/>
<text text-anchor="start" x="2087.5" y="-175" font-family="Helvetica,sans-Serif" font-size="10.00">src/expconfig/detectors</text>
<text text-anchor="middle" x="2139" y="-164" font-family="Helvetica,sans-Serif" font-size="10.00">/TAPS.h</text>
</g>
<!-- Node59 -->
<g id="node2" class="node"><title>Node59</title>
<g id="a_node2"><a xlink:href="analysis_2physics_2calibration_2_t_a_p_s___energy_8cc.html" target="_top" xlink:title="src/analysis/physics\l/calibration/TAPS_Energy.cc">
<polygon fill="white" stroke="black" points="-0.5,-84 -0.5,-114 142.5,-114 142.5,-84 -0.5,-84"/>
<text text-anchor="start" x="7.5" y="-102" font-family="Helvetica,sans-Serif" font-size="10.00">src/analysis/physics</text>
<text text-anchor="middle" x="71" y="-91" font-family="Helvetica,sans-Serif" font-size="10.00">/calibration/TAPS_Energy.cc</text>
</a>
</g>
</g>
<!-- Node58&#45;&gt;Node59 -->
<g id="edge1" class="edge"><title>Node58&#45;&gt;Node59</title>
<path fill="none" stroke="midnightblue" d="M2069.38,-171.232C1763.13,-171.941 534.11,-171.46 152,-120 141.808,-118.627 131.039,-116.478 120.796,-114.088"/>
<polygon fill="midnightblue" stroke="midnightblue" points="2069.46,-174.732 2079.45,-171.207 2069.45,-167.732 2069.46,-174.732"/>
</g>
<!-- Node60 -->
<g id="node3" class="node"><title>Node60</title>
<g id="a_node3"><a xlink:href="analysis_2physics_2calibration_2_time_8cc.html" target="_top" xlink:title="src/analysis/physics\l/calibration/Time.cc">
<polygon fill="white" stroke="black" points="161,-84 161,-114 267,-114 267,-84 161,-84"/>
<text text-anchor="start" x="169" y="-102" font-family="Helvetica,sans-Serif" font-size="10.00">src/analysis/physics</text>
<text text-anchor="middle" x="214" y="-91" font-family="Helvetica,sans-Serif" font-size="10.00">/calibration/Time.cc</text>
</a>
</g>
</g>
<!-- Node58&#45;&gt;Node60 -->
<g id="edge2" class="edge"><title>Node58&#45;&gt;Node60</title>
<path fill="none" stroke="midnightblue" d="M2068.72,-170.259C1750.78,-166.744 454.851,-150.647 276,-120 267.974,-118.625 259.558,-116.441 251.607,-114.012"/>
<polygon fill="midnightblue" stroke="midnightblue" points="2069.13,-173.763 2079.17,-170.373 2069.21,-166.764 2069.13,-173.763"/>
</g>
<!-- Node61 -->
<g id="node4" class="node"><title>Node61</title>
<g id="a_node4"><a xlink:href="_m_c_reconstruct_check_8cc.html" target="_top" xlink:title="src/analysis/physics\l/check/MCReconstructCheck.cc">
<polygon fill="white" stroke="black" points="285,-84 285,-114 445,-114 445,-84 285,-84"/>
<text text-anchor="start" x="293" y="-102" font-family="Helvetica,sans-Serif" font-size="10.00">src/analysis/physics</text>
<text text-anchor="middle" x="365" y="-91" font-family="Helvetica,sans-Serif" font-size="10.00">/check/MCReconstructCheck.cc</text>
</a>
</g>
</g>
<!-- Node58&#45;&gt;Node61 -->
<g id="edge3" class="edge"><title>Node58&#45;&gt;Node61</title>
<path fill="none" stroke="midnightblue" d="M2068.93,-170.661C1792.08,-169.045 774.001,-160.422 454,-120 442.845,-118.591 431.031,-116.425 419.783,-114.03"/>
<polygon fill="midnightblue" stroke="midnightblue" points="2069.22,-174.162 2079.24,-170.72 2069.26,-167.163 2069.22,-174.162"/>
</g>
<!-- Node62 -->
<g id="node5" class="node"><title>Node62</title>
<g id="a_node5"><a xlink:href="_event_display_hists_8cc.html" target="_top" xlink:title="src/analysis/physics\l/common/EventDisplayHists.cc">
<polygon fill="white" stroke="black" points="463.5,-84 463.5,-114 618.5,-114 618.5,-84 463.5,-84"/>
<text text-anchor="start" x="471.5" y="-102" font-family="Helvetica,sans-Serif" font-size="10.00">src/analysis/physics</text>
<text text-anchor="middle" x="541" y="-91" font-family="Helvetica,sans-Serif" font-size="10.00">/common/EventDisplayHists.cc</text>
</a>
</g>
</g>
<!-- Node58&#45;&gt;Node62 -->
<g id="edge4" class="edge"><title>Node58&#45;&gt;Node62</title>
<path fill="none" stroke="midnightblue" d="M2069,-170.423C1810.8,-168.016 912.143,-157.105 628,-120 617.089,-118.575 605.538,-116.402 594.542,-114.006"/>
<polygon fill="midnightblue" stroke="midnightblue" points="2069.33,-173.926 2079.36,-170.518 2069.4,-166.926 2069.33,-173.926"/>
</g>
<!-- Node63 -->
<g id="node6" class="node"><title>Node63</title>
<g id="a_node6"><a xlink:href="_extract_shower_depth_8cc.html" target="_top" xlink:title="src/analysis/physics\l/common/ExtractShowerDepth.cc">
<polygon fill="white" stroke="black" points="637,-84 637,-114 801,-114 801,-84 637,-84"/>
<text text-anchor="start" x="645" y="-102" font-family="Helvetica,sans-Serif" font-size="10.00">src/analysis/physics</text>
<text text-anchor="middle" x="719" y="-91" font-family="Helvetica,sans-Serif" font-size="10.00">/common/ExtractShowerDepth.cc</text>
</a>
</g>
</g>
<!-- Node58&#45;&gt;Node63 -->
<g id="edge5" class="edge"><title>Node58&#45;&gt;Node63</title>
<path fill="none" stroke="midnightblue" d="M2068.88,-169.934C1831.3,-166.065 1057.82,-151.321 811,-120 799.649,-118.56 787.627,-116.412 776.15,-114.051"/>
<polygon fill="midnightblue" stroke="midnightblue" points="2069.06,-173.437 2079.12,-170.099 2069.18,-166.438 2069.06,-173.437"/>
</g>
<!-- Node64 -->
<g id="node7" class="node"><title>Node64</title>
<g id="a_node7"><a xlink:href="_just_particles_8h.html" target="_top" xlink:title="src/analysis/physics\l/common/JustParticles.h">
<polygon fill="white" stroke="black" points="819.5,-84 819.5,-114 944.5,-114 944.5,-84 819.5,-84"/>
<text text-anchor="start" x="827.5" y="-102" font-family="Helvetica,sans-Serif" font-size="10.00">src/analysis/physics</text>
<text text-anchor="middle" x="882" y="-91" font-family="Helvetica,sans-Serif" font-size="10.00">/common/JustParticles.h</text>
</a>
</g>
</g>
<!-- Node58&#45;&gt;Node64 -->
<g id="edge6" class="edge"><title>Node58&#45;&gt;Node64</title>
<path fill="none" stroke="midnightblue" d="M2069.01,-170.08C1848.64,-166.852 1170.85,-154.324 954,-120 945.03,-118.58 935.583,-116.442 926.589,-114.083"/>
<polygon fill="midnightblue" stroke="midnightblue" points="2069.11,-173.581 2079.16,-170.226 2069.21,-166.582 2069.11,-173.581"/>
</g>
<!-- Node66 -->
<g id="node9" class="node"><title>Node66</title>
<g id="a_node9"><a xlink:href="etaprime__proton_8h.html" target="_top" xlink:title="src/analysis/physics\l/etaprime/etaprime_proton.h">
<polygon fill="white" stroke="black" points="963,-84 963,-114 1101,-114 1101,-84 963,-84"/>
<text text-anchor="start" x="971" y="-102" font-family="Helvetica,sans-Serif" font-size="10.00">src/analysis/physics</text>
<text text-anchor="middle" x="1032" y="-91" font-family="Helvetica,sans-Serif" font-size="10.00">/etaprime/etaprime_proton.h</text>
</a>
</g>
</g>
<!-- Node58&#45;&gt;Node66 -->
<g id="edge8" class="edge"><title>Node58&#45;&gt;Node66</title>
<path fill="none" stroke="midnightblue" d="M2069.18,-169.373C1869.02,-164.418 1295.67,-148.111 1110,-120 1100.32,-118.535 1090.11,-116.376 1080.37,-114.012"/>
<polygon fill="midnightblue" stroke="midnightblue" points="2069.2,-172.875 2079.28,-169.621 2069.37,-165.877 2069.2,-172.875"/>
</g>
<!-- Node68 -->
<g id="node11" class="node"><title>Node68</title>
<g id="a_node11"><a xlink:href="_fitter_8cc.html" target="_top" xlink:title="src/analysis/utils\l/fitter/Fitter.cc">
<polygon fill="white" stroke="black" points="1119,-84 1119,-114 1209,-114 1209,-84 1119,-84"/>
<text text-anchor="start" x="1127" y="-102" font-family="Helvetica,sans-Serif" font-size="10.00">src/analysis/utils</text>
<text text-anchor="middle" x="1164" y="-91" font-family="Helvetica,sans-Serif" font-size="10.00">/fitter/Fitter.cc</text>
</a>
</g>
</g>
<!-- Node58&#45;&gt;Node68 -->
<g id="edge10" class="edge"><title>Node58&#45;&gt;Node68</title>
<path fill="none" stroke="midnightblue" d="M2069.09,-169.829C1883.3,-166.287 1380.44,-153.776 1218,-120 1211.15,-118.575 1204.01,-116.434 1197.24,-114.075"/>
<polygon fill="midnightblue" stroke="midnightblue" points="2069.21,-173.332 2079.28,-170.021 2069.35,-166.333 2069.21,-173.332"/>
</g>
<!-- Node69 -->
<g id="node12" class="node"><title>Node69</title>
<g id="a_node12"><a xlink:href="_m_c_fake_reconstructed_8cc.html" target="_top" xlink:title="src/analysis/utils\l/MCFakeReconstructed.cc">
<polygon fill="white" stroke="black" points="1227,-84 1227,-114 1361,-114 1361,-84 1227,-84"/>
<text text-anchor="start" x="1235" y="-102" font-family="Helvetica,sans-Serif" font-size="10.00">src/analysis/utils</text>
<text text-anchor="middle" x="1294" y="-91" font-family="Helvetica,sans-Serif" font-size="10.00">/MCFakeReconstructed.cc</text>
</a>
</g>
</g>
<!-- Node58&#45;&gt;Node69 -->
<g id="edge11" class="edge"><title>Node58&#45;&gt;Node69</title>
<path fill="none" stroke="midnightblue" d="M2068.97,-170.816C1933.21,-169.476 1625.15,-161.64 1370,-120 1360.84,-118.506 1351.19,-116.394 1341.95,-114.099"/>
<polygon fill="midnightblue" stroke="midnightblue" points="2069.19,-174.318 2079.22,-170.908 2069.25,-167.318 2069.19,-174.318"/>
</g>
<!-- Node70 -->
<g id="node13" class="node"><title>Node70</title>
<g id="a_node13"><a xlink:href="_optimized_8cc.html" target="_top" xlink:title="src/analysis/utils\l/uncertainties/Optimized.cc">
<polygon fill="white" stroke="black" points="1379,-84 1379,-114 1515,-114 1515,-84 1379,-84"/>
<text text-anchor="start" x="1387" y="-102" font-family="Helvetica,sans-Serif" font-size="10.00">src/analysis/utils</text>
<text text-anchor="middle" x="1447" y="-91" font-family="Helvetica,sans-Serif" font-size="10.00">/uncertainties/Optimized.cc</text>
</a>
</g>
</g>
<!-- Node58&#45;&gt;Node70 -->
<g id="edge12" class="edge"><title>Node58&#45;&gt;Node70</title>
<path fill="none" stroke="midnightblue" d="M2069.29,-169.022C1954.91,-164.925 1720.56,-152.953 1525,-120 1515.76,-118.444 1506.02,-116.332 1496.67,-114.062"/>
<polygon fill="midnightblue" stroke="midnightblue" points="2069.2,-172.521 2079.31,-169.372 2069.44,-165.525 2069.2,-172.521"/>
</g>
<!-- Node71 -->
<g id="node14" class="node"><title>Node71</title>
<g id="a_node14"><a xlink:href="calibration_2modules_2_t_a_p_s___energy_8cc.html" target="_top" xlink:title="src/calibration/modules\l/TAPS_Energy.cc">
<polygon fill="white" stroke="black" points="1533.5,-84 1533.5,-114 1650.5,-114 1650.5,-84 1533.5,-84"/>
<text text-anchor="start" x="1541.5" y="-102" font-family="Helvetica,sans-Serif" font-size="10.00">src/calibration/modules</text>
<text text-anchor="middle" x="1592" y="-91" font-family="Helvetica,sans-Serif" font-size="10.00">/TAPS_Energy.cc</text>
</a>
</g>
</g>
<!-- Node58&#45;&gt;Node71 -->
<g id="edge13" class="edge"><title>Node58&#45;&gt;Node71</title>
<path fill="none" stroke="midnightblue" d="M2069.28,-167.517C1975.51,-161.939 1803.9,-148.58 1660,-120 1652.03,-118.418 1643.66,-116.322 1635.61,-114.083"/>
<polygon fill="midnightblue" stroke="midnightblue" points="2069.3,-171.024 2079.49,-168.112 2069.71,-164.036 2069.3,-171.024"/>
</g>
<!-- Node72 -->
<g id="node15" class="node"><title>Node72</title>
<g id="a_node15"><a xlink:href="calibration_2modules_2_t_a_p_s___short_energy_8cc.html" target="_top" xlink:title="src/calibration/modules\l/TAPS_ShortEnergy.cc">
<polygon fill="white" stroke="black" points="1668.5,-84 1668.5,-114 1787.5,-114 1787.5,-84 1668.5,-84"/>
<text text-anchor="start" x="1676.5" y="-102" font-family="Helvetica,sans-Serif" font-size="10.00">src/calibration/modules</text>
<text text-anchor="middle" x="1728" y="-91" font-family="Helvetica,sans-Serif" font-size="10.00">/TAPS_ShortEnergy.cc</text>
</a>
</g>
</g>
<!-- Node58&#45;&gt;Node72 -->
<g id="edge14" class="edge"><title>Node58&#45;&gt;Node72</title>
<path fill="none" stroke="midnightblue" d="M2069.3,-163.383C1999.83,-155.143 1890.35,-140.393 1797,-120 1789.2,-118.296 1780.99,-116.195 1773.06,-114"/>
<polygon fill="midnightblue" stroke="midnightblue" points="2068.91,-166.862 2079.25,-164.552 2069.72,-159.91 2068.91,-166.862"/>
</g>
<!-- Node73 -->
<g id="node16" class="node"><title>Node73</title>
<g id="a_node16"><a xlink:href="_t_a_p_s___time_8cc.html" target="_top" xlink:title="src/calibration/modules\l/TAPS_Time.cc">
<polygon fill="white" stroke="black" points="1805.5,-84 1805.5,-114 1922.5,-114 1922.5,-84 1805.5,-84"/>
<text text-anchor="start" x="1813.5" y="-102" font-family="Helvetica,sans-Serif" font-size="10.00">src/calibration/modules</text>
<text text-anchor="middle" x="1864" y="-91" font-family="Helvetica,sans-Serif" font-size="10.00">/TAPS_Time.cc</text>
</a>
</g>
</g>
<!-- Node58&#45;&gt;Node73 -->
<g id="edge15" class="edge"><title>Node58&#45;&gt;Node73</title>
<path fill="none" stroke="midnightblue" d="M2069.76,-154.754C2029.45,-145.094 1977.72,-132.349 1932,-120 1925.11,-118.139 1917.85,-116.094 1910.74,-114.045"/>
<polygon fill="midnightblue" stroke="midnightblue" points="2068.94,-158.158 2079.48,-157.079 2070.57,-151.35 2068.94,-158.158"/>
</g>
<!-- Node74 -->
<g id="node17" class="node"><title>Node74</title>
<g id="a_node17"><a xlink:href="_t_a_p_s___to_f_8cc.html" target="_top" xlink:title="src/calibration/modules\l/TAPS_ToF.cc">
<polygon fill="white" stroke="black" points="1940.5,-84 1940.5,-114 2057.5,-114 2057.5,-84 1940.5,-84"/>
<text text-anchor="start" x="1948.5" y="-102" font-family="Helvetica,sans-Serif" font-size="10.00">src/calibration/modules</text>
<text text-anchor="middle" x="1999" y="-91" font-family="Helvetica,sans-Serif" font-size="10.00">/TAPS_ToF.cc</text>
</a>
</g>
</g>
<!-- Node58&#45;&gt;Node74 -->
<g id="edge16" class="edge"><title>Node58&#45;&gt;Node74</title>
<path fill="none" stroke="midnightblue" d="M2102.35,-152.414C2078.82,-140.478 2048.72,-125.215 2027.08,-114.241"/>
<polygon fill="midnightblue" stroke="midnightblue" points="2100.84,-155.571 2111.34,-156.973 2104,-149.328 2100.84,-155.571"/>
</g>
<!-- Node75 -->
<g id="node18" class="node"><title>Node75</title>
<g id="a_node18"><a xlink:href="_t_a_p_s__2007___ba_f2__elements_8h.html" target="_top" xlink:title="src/expconfig/detectors\l/detail/TAPS_2007_BaF2\l_elements.h">
<polygon fill="white" stroke="black" points="2075.5,-78.5 2075.5,-119.5 2202.5,-119.5 2202.5,-78.5 2075.5,-78.5"/>
<text text-anchor="start" x="2083.5" y="-107.5" font-family="Helvetica,sans-Serif" font-size="10.00">src/expconfig/detectors</text>
<text text-anchor="start" x="2083.5" y="-96.5" font-family="Helvetica,sans-Serif" font-size="10.00">/detail/TAPS_2007_BaF2</text>
<text text-anchor="middle" x="2139" y="-85.5" font-family="Helvetica,sans-Serif" font-size="10.00">_elements.h</text>
</a>
</g>
</g>
<!-- Node58&#45;&gt;Node75 -->
<g id="edge17" class="edge"><title>Node58&#45;&gt;Node75</title>
<path fill="none" stroke="midnightblue" d="M2139,-146.853C2139,-137.987 2139,-128.065 2139,-119.642"/>
<polygon fill="midnightblue" stroke="midnightblue" points="2135.5,-146.973 2139,-156.973 2142.5,-146.973 2135.5,-146.973"/>
</g>
<!-- Node76 -->
<g id="node19" class="node"><title>Node76</title>
<g id="a_node19"><a xlink:href="_t_a_p_s_8cc.html" target="_top" xlink:title="src/expconfig/detectors\l/TAPS.cc">
<polygon fill="white" stroke="black" points="2246.5,-6 2246.5,-36 2365.5,-36 2365.5,-6 2246.5,-6"/>
<text text-anchor="start" x="2254.5" y="-24" font-family="Helvetica,sans-Serif" font-size="10.00">src/expconfig/detectors</text>
<text text-anchor="middle" x="2306" y="-13" font-family="Helvetica,sans-Serif" font-size="10.00">/TAPS.cc</text>
</a>
</g>
</g>
<!-- Node58&#45;&gt;Node76 -->
<g id="edge27" class="edge"><title>Node58&#45;&gt;Node76</title>
<path fill="none" stroke="midnightblue" d="M2169.55,-151.291C2182.74,-142.3 2198.07,-131.179 2211,-120 2230.5,-103.138 2233.08,-96.5294 2251,-78 2264.83,-63.6988 2280.78,-47.4955 2291.92,-36.2113"/>
<polygon fill="midnightblue" stroke="midnightblue" points="2167.59,-148.39 2161.24,-156.87 2171.5,-154.202 2167.59,-148.39"/>
</g>
<!-- Node77 -->
<g id="node20" class="node"><title>Node77</title>
<g id="a_node20"><a xlink:href="_t_a_p_s__2009__03___ba_f2__elements_8h.html" target="_top" xlink:title="src/expconfig/detectors\l/detail/TAPS_2009_03_BaF2\l_elements.h">
<polygon fill="white" stroke="black" points="2259.5,-78.5 2259.5,-119.5 2402.5,-119.5 2402.5,-78.5 2259.5,-78.5"/>
<text text-anchor="start" x="2267.5" y="-107.5" font-family="Helvetica,sans-Serif" font-size="10.00">src/expconfig/detectors</text>
<text text-anchor="start" x="2267.5" y="-96.5" font-family="Helvetica,sans-Serif" font-size="10.00">/detail/TAPS_2009_03_BaF2</text>
<text text-anchor="middle" x="2331" y="-85.5" font-family="Helvetica,sans-Serif" font-size="10.00">_elements.h</text>
</a>
</g>
</g>
<!-- Node58&#45;&gt;Node77 -->
<g id="edge19" class="edge"><title>Node58&#45;&gt;Node77</title>
<path fill="none" stroke="midnightblue" d="M2186.45,-153.453C2214.29,-143.157 2249.53,-130.126 2278.25,-119.507"/>
<polygon fill="midnightblue" stroke="midnightblue" points="2185.1,-150.222 2176.93,-156.973 2187.53,-156.787 2185.1,-150.222"/>
</g>
<!-- Node78 -->
<g id="node21" class="node"><title>Node78</title>
<g id="a_node21"><a xlink:href="_t_a_p_s__2009__03___pb_w_o4__elements_8h.html" target="_top" xlink:title="src/expconfig/detectors\l/detail/TAPS_2009_03_PbWO4\l_elements.h">
<polygon fill="white" stroke="black" points="2421,-78.5 2421,-119.5 2575,-119.5 2575,-78.5 2421,-78.5"/>
<text text-anchor="start" x="2429" y="-107.5" font-family="Helvetica,sans-Serif" font-size="10.00">src/expconfig/detectors</text>
<text text-anchor="start" x="2429" y="-96.5" font-family="Helvetica,sans-Serif" font-size="10.00">/detail/TAPS_2009_03_PbWO4</text>
<text text-anchor="middle" x="2498" y="-85.5" font-family="Helvetica,sans-Serif" font-size="10.00">_elements.h</text>
</a>
</g>
</g>
<!-- Node58&#45;&gt;Node78 -->
<g id="edge21" class="edge"><title>Node58&#45;&gt;Node78</title>
<path fill="none" stroke="midnightblue" d="M2208.56,-158.761C2263.61,-148.882 2342.37,-134.316 2411,-120 2414.19,-119.335 2417.43,-118.645 2420.71,-117.938"/>
<polygon fill="midnightblue" stroke="midnightblue" points="2207.79,-155.343 2198.56,-160.55 2209.03,-162.233 2207.79,-155.343"/>
</g>
<!-- Node79 -->
<g id="node22" class="node"><title>Node79</title>
<g id="a_node22"><a xlink:href="_t_a_p_s__2013__11___ba_f2__elements_8h.html" target="_top" xlink:title="src/expconfig/detectors\l/detail/TAPS_2013_11_BaF2\l_elements.h">
<polygon fill="white" stroke="black" points="2593.5,-78.5 2593.5,-119.5 2736.5,-119.5 2736.5,-78.5 2593.5,-78.5"/>
<text text-anchor="start" x="2601.5" y="-107.5" font-family="Helvetica,sans-Serif" font-size="10.00">src/expconfig/detectors</text>
<text text-anchor="start" x="2601.5" y="-96.5" font-family="Helvetica,sans-Serif" font-size="10.00">/detail/TAPS_2013_11_BaF2</text>
<text text-anchor="middle" x="2665" y="-85.5" font-family="Helvetica,sans-Serif" font-size="10.00">_elements.h</text>
</a>
</g>
</g>
<!-- Node58&#45;&gt;Node79 -->
<g id="edge23" class="edge"><title>Node58&#45;&gt;Node79</title>
<path fill="none" stroke="midnightblue" d="M2208.86,-165.776C2296.84,-158.562 2452.41,-143.686 2584,-120 2586.99,-119.461 2590.04,-118.876 2593.11,-118.256"/>
<polygon fill="midnightblue" stroke="midnightblue" points="2208.42,-162.301 2198.74,-166.597 2208.99,-169.278 2208.42,-162.301"/>
</g>
<!-- Node80 -->
<g id="node23" class="node"><title>Node80</title>
<g id="a_node23"><a xlink:href="_t_a_p_s__2013__11___pb_w_o4__elements_8h.html" target="_top" xlink:title="src/expconfig/detectors\l/detail/TAPS_2013_11_PbWO4\l_elements.h">
<polygon fill="white" stroke="black" points="2755,-78.5 2755,-119.5 2909,-119.5 2909,-78.5 2755,-78.5"/>
<text text-anchor="start" x="2763" y="-107.5" font-family="Helvetica,sans-Serif" font-size="10.00">src/expconfig/detectors</text>
<text text-anchor="start" x="2763" y="-96.5" font-family="Helvetica,sans-Serif" font-size="10.00">/detail/TAPS_2013_11_PbWO4</text>
<text text-anchor="middle" x="2832" y="-85.5" font-family="Helvetica,sans-Serif" font-size="10.00">_elements.h</text>
</a>
</g>
</g>
<!-- Node58&#45;&gt;Node80 -->
<g id="edge25" class="edge"><title>Node58&#45;&gt;Node80</title>
<path fill="none" stroke="midnightblue" d="M2208.94,-168.342C2322.15,-163.317 2552.3,-150.103 2745,-120 2748.22,-119.498 2751.49,-118.943 2754.79,-118.348"/>
<polygon fill="midnightblue" stroke="midnightblue" points="2208.52,-164.857 2198.69,-168.789 2208.83,-171.85 2208.52,-164.857"/>
</g>
<!-- Node81 -->
<g id="node24" class="node"><title>Node81</title>
<g id="a_node24"><a xlink:href="_setup__2007___base_8h.html" target="_top" xlink:title="src/expconfig/setups\l/Setup_2007_Base.h">
<polygon fill="white" stroke="black" points="2927.5,-84 2927.5,-114 3034.5,-114 3034.5,-84 2927.5,-84"/>
<text text-anchor="start" x="2935.5" y="-102" font-family="Helvetica,sans-Serif" font-size="10.00">src/expconfig/setups</text>
<text text-anchor="middle" x="2981" y="-91" font-family="Helvetica,sans-Serif" font-size="10.00">/Setup_2007_Base.h</text>
</a>
</g>
</g>
<!-- Node58&#45;&gt;Node81 -->
<g id="edge28" class="edge"><title>Node58&#45;&gt;Node81</title>
<path fill="none" stroke="midnightblue" d="M2208.56,-168.603C2373.18,-162.583 2782.98,-145.461 2918,-120 2925.78,-118.533 2933.94,-116.403 2941.72,-114.076"/>
<polygon fill="midnightblue" stroke="midnightblue" points="2208.41,-165.106 2198.54,-168.967 2208.66,-172.102 2208.41,-165.106"/>
</g>
<!-- Node85 -->
<g id="node28" class="node"><title>Node85</title>
<g id="a_node28"><a xlink:href="_setup__2010__03___base_8h.html" target="_top" xlink:title="src/expconfig/setups\l/Setup_2010_03_Base.h">
<polygon fill="white" stroke="black" points="3052.5,-84 3052.5,-114 3175.5,-114 3175.5,-84 3052.5,-84"/>
<text text-anchor="start" x="3060.5" y="-102" font-family="Helvetica,sans-Serif" font-size="10.00">src/expconfig/setups</text>
<text text-anchor="middle" x="3114" y="-91" font-family="Helvetica,sans-Serif" font-size="10.00">/Setup_2010_03_Base.h</text>
</a>
</g>
</g>
<!-- Node58&#45;&gt;Node85 -->
<g id="edge32" class="edge"><title>Node58&#45;&gt;Node85</title>
<path fill="none" stroke="midnightblue" d="M2208.79,-169.033C2391.86,-163.558 2882.75,-146.761 3043,-120 3051.72,-118.545 3060.89,-116.421 3069.64,-114.095"/>
<polygon fill="midnightblue" stroke="midnightblue" points="2208.64,-165.536 2198.74,-169.331 2208.84,-172.533 2208.64,-165.536"/>
</g>
<!-- Node88 -->
<g id="node31" class="node"><title>Node88</title>
<g id="a_node31"><a xlink:href="_setup__2014___e_p_t_8h.html" target="_top" xlink:title="src/expconfig/setups\l/Setup_2014_EPT.h">
<polygon fill="white" stroke="black" points="3242.5,-84 3242.5,-114 3349.5,-114 3349.5,-84 3242.5,-84"/>
<text text-anchor="start" x="3250.5" y="-102" font-family="Helvetica,sans-Serif" font-size="10.00">src/expconfig/setups</text>
<text text-anchor="middle" x="3296" y="-91" font-family="Helvetica,sans-Serif" font-size="10.00">/Setup_2014_EPT.h</text>
</a>
</g>
</g>
<!-- Node58&#45;&gt;Node88 -->
<g id="edge35" class="edge"><title>Node58&#45;&gt;Node88</title>
<path fill="none" stroke="midnightblue" d="M2208.93,-170.671C2377.33,-169.207 2818.5,-161.381 3184,-120 3203.14,-117.833 3223.94,-114.416 3242.37,-111.015"/>
<polygon fill="midnightblue" stroke="midnightblue" points="2208.69,-167.172 2198.72,-170.754 2208.74,-174.172 2208.69,-167.172"/>
</g>
<!-- Node93 -->
<g id="node36" class="node"><title>Node93</title>
<g id="a_node36"><a xlink:href="_setup__2015__01___pion_8cc.html" target="_top" xlink:title="src/expconfig/setups\l/Setup_2015_01_Pion.cc">
<polygon fill="white" stroke="black" points="3367.5,-84 3367.5,-114 3492.5,-114 3492.5,-84 3367.5,-84"/>
<text text-anchor="start" x="3375.5" y="-102" font-family="Helvetica,sans-Serif" font-size="10.00">src/expconfig/setups</text>
<text text-anchor="middle" x="3430" y="-91" font-family="Helvetica,sans-Serif" font-size="10.00">/Setup_2015_01_Pion.cc</text>
</a>
</g>
</g>
<!-- Node58&#45;&gt;Node93 -->
<g id="edge40" class="edge"><title>Node58&#45;&gt;Node93</title>
<path fill="none" stroke="midnightblue" d="M2209.04,-170.177C2433.66,-167.205 3134.27,-155.275 3358,-120 3366.97,-118.586 3376.42,-116.449 3385.41,-114.092"/>
<polygon fill="midnightblue" stroke="midnightblue" points="2208.67,-166.681 2198.71,-170.311 2208.76,-173.68 2208.67,-166.681"/>
</g>
<!-- Node94 -->
<g id="node37" class="node"><title>Node94</title>
<g id="a_node37"><a xlink:href="_setup__2017__03_8h.html" target="_top" xlink:title="src/expconfig/setups\l/Setup_2017_03.h">
<polygon fill="white" stroke="black" points="3542.5,-84 3542.5,-114 3649.5,-114 3649.5,-84 3542.5,-84"/>
<text text-anchor="start" x="3550.5" y="-102" font-family="Helvetica,sans-Serif" font-size="10.00">src/expconfig/setups</text>
<text text-anchor="middle" x="3596" y="-91" font-family="Helvetica,sans-Serif" font-size="10.00">/Setup_2017_03.h</text>
</a>
</g>
</g>
<!-- Node58&#45;&gt;Node94 -->
<g id="edge41" class="edge"><title>Node58&#45;&gt;Node94</title>
<path fill="none" stroke="midnightblue" d="M2208.89,-169.955C2450.13,-166.1 3247.04,-151.256 3501,-120 3514.38,-118.353 3528.68,-115.782 3542.01,-113.026"/>
<polygon fill="midnightblue" stroke="midnightblue" points="2208.78,-166.456 2198.84,-170.114 2208.89,-173.455 2208.78,-166.456"/>
</g>
<!-- Node96 -->
<g id="node39" class="node"><title>Node96</title>
<g id="a_node39"><a xlink:href="_setup__2017__05_8h.html" target="_top" xlink:title="src/expconfig/setups\l/Setup_2017_05.h">
<polygon fill="white" stroke="black" points="3745.5,-84 3745.5,-114 3852.5,-114 3852.5,-84 3745.5,-84"/>
<text text-anchor="start" x="3753.5" y="-102" font-family="Helvetica,sans-Serif" font-size="10.00">src/expconfig/setups</text>
<text text-anchor="middle" x="3799" y="-91" font-family="Helvetica,sans-Serif" font-size="10.00">/Setup_2017_05.h</text>
</a>
</g>
</g>
<!-- Node58&#45;&gt;Node96 -->
<g id="edge43" class="edge"><title>Node58&#45;&gt;Node96</title>
<path fill="none" stroke="midnightblue" d="M2209.1,-171.318C2425.33,-171.725 3100.99,-168.714 3658,-120 3686.94,-117.469 3719.02,-113.048 3745.26,-109.005"/>
<polygon fill="midnightblue" stroke="midnightblue" points="2208.85,-167.817 2198.85,-171.295 2208.84,-174.817 2208.85,-167.817"/>
</g>
<!-- Node98 -->
<g id="node41" class="node"><title>Node98</title>
<g id="a_node41"><a xlink:href="_setup__2017_plus___new_tagger___base_8h.html" target="_top" xlink:title="src/expconfig/setups\l/Setup_2017Plus_NewTagger\l_Base.h">
<polygon fill="white" stroke="black" points="3910,-78.5 3910,-119.5 4056,-119.5 4056,-78.5 3910,-78.5"/>
<text text-anchor="start" x="3918" y="-107.5" font-family="Helvetica,sans-Serif" font-size="10.00">src/expconfig/setups</text>
<text text-anchor="start" x="3918" y="-96.5" font-family="Helvetica,sans-Serif" font-size="10.00">/Setup_2017Plus_NewTagger</text>
<text text-anchor="middle" x="3983" y="-85.5" font-family="Helvetica,sans-Serif" font-size="10.00">_Base.h</text>
</a>
</g>
</g>
<!-- Node58&#45;&gt;Node98 -->
<g id="edge45" class="edge"><title>Node58&#45;&gt;Node98</title>
<path fill="none" stroke="midnightblue" d="M2208.71,-170.173C2488.71,-166.66 3532.19,-151.68 3861,-120 3876.92,-118.467 3893.9,-116.132 3909.98,-113.592"/>
<polygon fill="midnightblue" stroke="midnightblue" points="2208.64,-166.674 2198.68,-170.298 2208.73,-173.673 2208.64,-166.674"/>
</g>
<!-- Node102 -->
<g id="node45" class="node"><title>Node102</title>
<g id="a_node45"><a xlink:href="_candidate_builder_8cc.html" target="_top" xlink:title="src/reconstruct/Candidate\lBuilder.cc">
<polygon fill="white" stroke="black" points="4074.5,-84 4074.5,-114 4203.5,-114 4203.5,-84 4074.5,-84"/>
<text text-anchor="start" x="4082.5" y="-102" font-family="Helvetica,sans-Serif" font-size="10.00">src/reconstruct/Candidate</text>
<text text-anchor="middle" x="4139" y="-91" font-family="Helvetica,sans-Serif" font-size="10.00">Builder.cc</text>
</a>
</g>
</g>
<!-- Node58&#45;&gt;Node102 -->
<g id="edge49" class="edge"><title>Node58&#45;&gt;Node102</title>
<path fill="none" stroke="midnightblue" d="M2208.94,-171.369C2509.92,-172.615 3696.2,-173.936 4065,-120 4074.35,-118.633 4084.2,-116.485 4093.57,-114.096"/>
<polygon fill="midnightblue" stroke="midnightblue" points="2208.63,-167.868 2198.61,-171.325 2208.6,-174.868 2208.63,-167.868"/>
</g>
<!-- Node103 -->
<g id="node46" class="node"><title>Node103</title>
<g id="a_node46"><a xlink:href="expconfig__helpers_8cc.html" target="_top" xlink:title="test/expconfig_helpers.cc">
<polygon fill="white" stroke="black" points="4222,-89.5 4222,-108.5 4350,-108.5 4350,-89.5 4222,-89.5"/>
<text text-anchor="middle" x="4286" y="-96.5" font-family="Helvetica,sans-Serif" font-size="10.00">test/expconfig_helpers.cc</text>
</a>
</g>
</g>
<!-- Node58&#45;&gt;Node103 -->
<g id="edge50" class="edge"><title>Node58&#45;&gt;Node103</title>
<path fill="none" stroke="midnightblue" d="M2208.73,-170.276C2547.18,-166.626 4010.57,-149.266 4212,-120 4228.33,-117.627 4246.2,-112.861 4260.29,-108.576"/>
<polygon fill="midnightblue" stroke="midnightblue" points="2208.54,-166.777 2198.58,-170.385 2208.62,-173.777 2208.54,-166.777"/>
</g>
<!-- Node65 -->
<g id="node8" class="node"><title>Node65</title>
<g id="a_node8"><a xlink:href="_just_particles_8cc.html" target="_top" xlink:title="src/analysis/physics\l/common/JustParticles.cc">
<polygon fill="white" stroke="black" points="813.5,-6 813.5,-36 944.5,-36 944.5,-6 813.5,-6"/>
<text text-anchor="start" x="821.5" y="-24" font-family="Helvetica,sans-Serif" font-size="10.00">src/analysis/physics</text>
<text text-anchor="middle" x="879" y="-13" font-family="Helvetica,sans-Serif" font-size="10.00">/common/JustParticles.cc</text>
</a>
</g>
</g>
<!-- Node64&#45;&gt;Node65 -->
<g id="edge7" class="edge"><title>Node64&#45;&gt;Node65</title>
<path fill="none" stroke="midnightblue" d="M881.036,-73.5898C880.55,-61.2565 879.976,-46.7237 879.562,-36.2309"/>
<polygon fill="midnightblue" stroke="midnightblue" points="877.544,-73.8508 881.436,-83.705 884.538,-73.5747 877.544,-73.8508"/>
</g>
<!-- Node67 -->
<g id="node10" class="node"><title>Node67</title>
<g id="a_node10"><a xlink:href="etaprime__proton_8cc.html" target="_top" xlink:title="src/analysis/physics\l/etaprime/etaprime_proton.cc">
<polygon fill="white" stroke="black" points="962.5,-6 962.5,-36 1105.5,-36 1105.5,-6 962.5,-6"/>
<text text-anchor="start" x="970.5" y="-24" font-family="Helvetica,sans-Serif" font-size="10.00">src/analysis/physics</text>
<text text-anchor="middle" x="1034" y="-13" font-family="Helvetica,sans-Serif" font-size="10.00">/etaprime/etaprime_proton.cc</text>
</a>
</g>
</g>
<!-- Node66&#45;&gt;Node67 -->
<g id="edge9" class="edge"><title>Node66&#45;&gt;Node67</title>
<path fill="none" stroke="midnightblue" d="M1032.64,-73.5898C1032.97,-61.2565 1033.35,-46.7237 1033.63,-36.2309"/>
<polygon fill="midnightblue" stroke="midnightblue" points="1029.14,-73.6163 1032.38,-83.705 1036.14,-73.8005 1029.14,-73.6163"/>
</g>
<!-- Node75&#45;&gt;Node76 -->
<g id="edge18" class="edge"><title>Node75&#45;&gt;Node76</title>
<path fill="none" stroke="midnightblue" d="M2191.12,-74.2824C2218.64,-61.7554 2251.49,-46.8051 2275,-36.1065"/>
<polygon fill="midnightblue" stroke="midnightblue" points="2189.66,-71.1003 2182.01,-78.4281 2192.56,-77.4715 2189.66,-71.1003"/>
</g>
<!-- Node77&#45;&gt;Node76 -->
<g id="edge20" class="edge"><title>Node77&#45;&gt;Node76</title>
<path fill="none" stroke="midnightblue" d="M2321.34,-68.6237C2317.68,-57.5015 2313.68,-45.3387 2310.68,-36.2254"/>
<polygon fill="midnightblue" stroke="midnightblue" points="2318.11,-70.0225 2324.56,-78.4281 2324.76,-67.8352 2318.11,-70.0225"/>
</g>
<!-- Node78&#45;&gt;Node76 -->
<g id="edge22" class="edge"><title>Node78&#45;&gt;Node76</title>
<path fill="none" stroke="midnightblue" d="M2438.91,-74.6086C2407.09,-62.0157 2368.9,-46.8981 2341.64,-36.1065"/>
<polygon fill="midnightblue" stroke="midnightblue" points="2437.97,-78.0019 2448.56,-78.4281 2440.55,-71.4932 2437.97,-78.0019"/>
</g>
<!-- Node79&#45;&gt;Node76 -->
<g id="edge24" class="edge"><title>Node79&#45;&gt;Node76</title>
<path fill="none" stroke="midnightblue" d="M2583.23,-77.9219C2490.02,-58.9584 2463.8,-62.4509 2375,-42 2367.46,-40.2646 2359.53,-38.1967 2351.84,-36.0591"/>
<polygon fill="midnightblue" stroke="midnightblue" points="2582.57,-81.3603 2593.07,-79.957 2583.99,-74.5052 2582.57,-81.3603"/>
</g>
<!-- Node80&#45;&gt;Node76 -->
<g id="edge26" class="edge"><title>Node80&#45;&gt;Node76</title>
<path fill="none" stroke="midnightblue" d="M2744.8,-78.1046C2580.14,-52.2639 2534.09,-72.5237 2375,-42 2366.79,-40.4254 2358.16,-38.3051 2349.88,-36.0326"/>
<polygon fill="midnightblue" stroke="midnightblue" points="2744.35,-81.5779 2754.78,-79.7045 2745.46,-74.6661 2744.35,-81.5779"/>
</g>
<!-- Node82 -->
<g id="node25" class="node"><title>Node82</title>
<g id="a_node25"><a xlink:href="_setup__2007__06_8cc.html" target="_top" xlink:title="src/expconfig/setups\l/Setup_2007_06.cc">
<polygon fill="white" stroke="black" points="2383.5,-6 2383.5,-36 2490.5,-36 2490.5,-6 2383.5,-6"/>
<text text-anchor="start" x="2391.5" y="-24" font-family="Helvetica,sans-Serif" font-size="10.00">src/expconfig/setups</text>
<text text-anchor="middle" x="2437" y="-13" font-family="Helvetica,sans-Serif" font-size="10.00">/Setup_2007_06.cc</text>
</a>
</g>
</g>
<!-- Node81&#45;&gt;Node82 -->
<g id="edge29" class="edge"><title>Node81&#45;&gt;Node82</title>
<path fill="none" stroke="midnightblue" d="M2931.51,-81.1646C2926.98,-79.9638 2922.42,-78.8815 2918,-78 2735.13,-41.5665 2682.87,-78.4335 2500,-42 2492.35,-40.4753 2484.31,-38.3495 2476.64,-36.0495"/>
<polygon fill="midnightblue" stroke="midnightblue" points="2930.78,-84.5955 2941.36,-83.9505 2932.69,-77.8599 2930.78,-84.5955"/>
</g>
<!-- Node83 -->
<g id="node26" class="node"><title>Node83</title>
<g id="a_node26"><a xlink:href="_setup__2007__07_8cc.html" target="_top" xlink:title="src/expconfig/setups\l/Setup_2007_07.cc">
<polygon fill="white" stroke="black" points="2508.5,-6 2508.5,-36 2615.5,-36 2615.5,-6 2508.5,-6"/>
<text text-anchor="start" x="2516.5" y="-24" font-family="Helvetica,sans-Serif" font-size="10.00">src/expconfig/setups</text>
<text text-anchor="middle" x="2562" y="-13" font-family="Helvetica,sans-Serif" font-size="10.00">/Setup_2007_07.cc</text>
</a>
</g>
</g>
<!-- Node81&#45;&gt;Node83 -->
<g id="edge30" class="edge"><title>Node81&#45;&gt;Node83</title>
<path fill="none" stroke="midnightblue" d="M2930.72,-81.1315C2926.44,-79.9736 2922.16,-78.9082 2918,-78 2789.81,-50.0308 2753.19,-69.9692 2625,-42 2617.6,-40.3854 2609.83,-38.274 2602.37,-36.0293"/>
<polygon fill="midnightblue" stroke="midnightblue" points="2930.05,-84.5819 2940.63,-83.9707 2931.98,-77.8525 2930.05,-84.5819"/>
</g>
<!-- Node84 -->
<g id="node27" class="node"><title>Node84</title>
<g id="a_node27"><a xlink:href="_setup__2007___base_8cc.html" target="_top" xlink:title="src/expconfig/setups\l/Setup_2007_Base.cc">
<polygon fill="white" stroke="black" points="2633.5,-6 2633.5,-36 2746.5,-36 2746.5,-6 2633.5,-6"/>
<text text-anchor="start" x="2641.5" y="-24" font-family="Helvetica,sans-Serif" font-size="10.00">src/expconfig/setups</text>
<text text-anchor="middle" x="2690" y="-13" font-family="Helvetica,sans-Serif" font-size="10.00">/Setup_2007_Base.cc</text>
</a>
</g>
</g>
<!-- Node81&#45;&gt;Node84 -->
<g id="edge31" class="edge"><title>Node81&#45;&gt;Node84</title>
<path fill="none" stroke="midnightblue" d="M2928.81,-81.0399C2925.16,-79.9754 2921.53,-78.9511 2918,-78 2846.78,-58.8226 2827.34,-60.7083 2756,-42 2749.05,-40.1778 2741.73,-38.1112 2734.6,-36.0148"/>
<polygon fill="midnightblue" stroke="midnightblue" points="2927.87,-84.4117 2938.45,-83.9291 2929.88,-77.7062 2927.87,-84.4117"/>
</g>
<!-- Node86 -->
<g id="node29" class="node"><title>Node86</title>
<g id="a_node29"><a xlink:href="_setup__2010__03___base_8cc.html" target="_top" xlink:title="src/expconfig/setups\l/Setup_2010_03_Base.cc">
<polygon fill="white" stroke="black" points="2765,-6 2765,-36 2893,-36 2893,-6 2765,-6"/>
<text text-anchor="start" x="2773" y="-24" font-family="Helvetica,sans-Serif" font-size="10.00">src/expconfig/setups</text>
<text text-anchor="middle" x="2829" y="-13" font-family="Helvetica,sans-Serif" font-size="10.00">/Setup_2010_03_Base.cc</text>
</a>
</g>
</g>
<!-- Node85&#45;&gt;Node86 -->
<g id="edge33" class="edge"><title>Node85&#45;&gt;Node86</title>
<path fill="none" stroke="midnightblue" d="M3054.82,-81.2123C3050.82,-80.1145 3046.86,-79.035 3043,-78 2980.53,-61.2305 2964.52,-58.5456 2902,-42 2894.89,-40.1175 2887.39,-38.1015 2880.02,-36.1006"/>
<polygon fill="midnightblue" stroke="midnightblue" points="3054.2,-84.6717 3064.77,-83.9639 3056.07,-77.9249 3054.2,-84.6717"/>
</g>
<!-- Node87 -->
<g id="node30" class="node"><title>Node87</title>
<g id="a_node30"><a xlink:href="_setup__2010__09___compton_8cc.html" target="_top" xlink:title="src/expconfig/setups\l/Setup_2010_09_Compton.cc">
<polygon fill="white" stroke="black" points="2911,-6 2911,-36 3057,-36 3057,-6 2911,-6"/>
<text text-anchor="start" x="2919" y="-24" font-family="Helvetica,sans-Serif" font-size="10.00">src/expconfig/setups</text>
<text text-anchor="middle" x="2984" y="-13" font-family="Helvetica,sans-Serif" font-size="10.00">/Setup_2010_09_Compton.cc</text>
</a>
</g>
</g>
<!-- Node85&#45;&gt;Node87 -->
<g id="edge34" class="edge"><title>Node85&#45;&gt;Node87</title>
<path fill="none" stroke="midnightblue" d="M3081.19,-78.8214C3058.42,-65.5075 3028.59,-48.0698 3008.02,-36.0413"/>
<polygon fill="midnightblue" stroke="midnightblue" points="3079.45,-81.8576 3089.85,-83.8831 3082.99,-75.8145 3079.45,-81.8576"/>
</g>
<!-- Node89 -->
<g id="node32" class="node"><title>Node89</title>
<g id="a_node32"><a xlink:href="_setup__2014__07___e_p_t___prod_8cc.html" target="_top" xlink:title="src/expconfig/setups\l/Setup_2014_07_EPT_Prod.cc">
<polygon fill="white" stroke="black" points="3075.5,-6 3075.5,-36 3226.5,-36 3226.5,-6 3075.5,-6"/>
<text text-anchor="start" x="3083.5" y="-24" font-family="Helvetica,sans-Serif" font-size="10.00">src/expconfig/setups</text>
<text text-anchor="middle" x="3151" y="-13" font-family="Helvetica,sans-Serif" font-size="10.00">/Setup_2014_07_EPT_Prod.cc</text>
</a>
</g>
</g>
<!-- Node88&#45;&gt;Node89 -->
<g id="edge36" class="edge"><title>Node88&#45;&gt;Node89</title>
<path fill="none" stroke="midnightblue" d="M3260.08,-79.1739C3234.6,-65.8166 3200.94,-48.1762 3177.79,-36.0413"/>
<polygon fill="midnightblue" stroke="midnightblue" points="3258.58,-82.3407 3269.07,-83.8831 3261.83,-76.1407 3258.58,-82.3407"/>
</g>
<!-- Node90 -->
<g id="node33" class="node"><title>Node90</title>
<g id="a_node33"><a xlink:href="_setup__2014__10___e_p_t___prod_8cc.html" target="_top" xlink:title="src/expconfig/setups\l/Setup_2014_10_EPT_Prod.cc">
<polygon fill="white" stroke="black" points="3244.5,-6 3244.5,-36 3395.5,-36 3395.5,-6 3244.5,-6"/>
<text text-anchor="start" x="3252.5" y="-24" font-family="Helvetica,sans-Serif" font-size="10.00">src/expconfig/setups</text>
<text text-anchor="middle" x="3320" y="-13" font-family="Helvetica,sans-Serif" font-size="10.00">/Setup_2014_10_EPT_Prod.cc</text>
</a>
</g>
</g>
<!-- Node88&#45;&gt;Node90 -->
<g id="edge37" class="edge"><title>Node88&#45;&gt;Node90</title>
<path fill="none" stroke="midnightblue" d="M3303.59,-73.9628C3307.51,-61.5505 3312.16,-46.8296 3315.51,-36.2309"/>
<polygon fill="midnightblue" stroke="midnightblue" points="3300.19,-73.1152 3300.51,-83.705 3306.86,-75.2231 3300.19,-73.1152"/>
</g>
<!-- Node91 -->
<g id="node34" class="node"><title>Node91</title>
<g id="a_node34"><a xlink:href="_setup__2014__12___e_p_t___prod_8cc.html" target="_top" xlink:title="src/expconfig/setups\l/Setup_2014_12_EPT_Prod.cc">
<polygon fill="white" stroke="black" points="3413.5,-6 3413.5,-36 3564.5,-36 3564.5,-6 3413.5,-6"/>
<text text-anchor="start" x="3421.5" y="-24" font-family="Helvetica,sans-Serif" font-size="10.00">src/expconfig/setups</text>
<text text-anchor="middle" x="3489" y="-13" font-family="Helvetica,sans-Serif" font-size="10.00">/Setup_2014_12_EPT_Prod.cc</text>
</a>
</g>
</g>
<!-- Node88&#45;&gt;Node91 -->
<g id="edge38" class="edge"><title>Node88&#45;&gt;Node91</title>
<path fill="none" stroke="midnightblue" d="M3341.59,-80.0464C3375.76,-66.5929 3421.85,-48.4424 3453.34,-36.0413"/>
<polygon fill="midnightblue" stroke="midnightblue" points="3339.87,-76.9624 3331.85,-83.8831 3342.44,-83.4757 3339.87,-76.9624"/>
</g>
<!-- Node92 -->
<g id="node35" class="node"><title>Node92</title>
<g id="a_node35"><a xlink:href="_setup__2014___e_p_t_8cc.html" target="_top" xlink:title="src/expconfig/setups\l/Setup_2014_EPT.cc">
<polygon fill="white" stroke="black" points="3583,-6 3583,-36 3693,-36 3693,-6 3583,-6"/>
<text text-anchor="start" x="3591" y="-24" font-family="Helvetica,sans-Serif" font-size="10.00">src/expconfig/setups</text>
<text text-anchor="middle" x="3638" y="-13" font-family="Helvetica,sans-Serif" font-size="10.00">/Setup_2014_EPT.cc</text>
</a>
</g>
</g>
<!-- Node88&#45;&gt;Node92 -->
<g id="edge39" class="edge"><title>Node88&#45;&gt;Node92</title>
<path fill="none" stroke="midnightblue" d="M3347.25,-81.0752C3351.21,-79.9691 3355.16,-78.9284 3359,-78 3452.75,-55.3525 3479.15,-64.2302 3573,-42 3580.24,-40.2855 3587.85,-38.2037 3595.21,-36.0391"/>
<polygon fill="midnightblue" stroke="midnightblue" points="3346.07,-77.7732 3337.45,-83.9322 3348.03,-84.4934 3346.07,-77.7732"/>
</g>
<!-- Node95 -->
<g id="node38" class="node"><title>Node95</title>
<g id="a_node38"><a xlink:href="_setup__2017__03_8cc.html" target="_top" xlink:title="src/expconfig/setups\l/Setup_2017_03.cc">
<polygon fill="white" stroke="black" points="3711.5,-6 3711.5,-36 3818.5,-36 3818.5,-6 3711.5,-6"/>
<text text-anchor="start" x="3719.5" y="-24" font-family="Helvetica,sans-Serif" font-size="10.00">src/expconfig/setups</text>
<text text-anchor="middle" x="3765" y="-13" font-family="Helvetica,sans-Serif" font-size="10.00">/Setup_2017_03.cc</text>
</a>
</g>
</g>
<!-- Node94&#45;&gt;Node95 -->
<g id="edge42" class="edge"><title>Node94&#45;&gt;Node95</title>
<path fill="none" stroke="midnightblue" d="M3636.7,-79.6989C3666.53,-66.2817 3706.44,-48.3359 3733.78,-36.0413"/>
<polygon fill="midnightblue" stroke="midnightblue" points="3635.08,-76.5896 3627.39,-83.8831 3637.95,-82.9737 3635.08,-76.5896"/>
</g>
<!-- Node97 -->
<g id="node40" class="node"><title>Node97</title>
<g id="a_node40"><a xlink:href="_setup__2017__05_8cc.html" target="_top" xlink:title="src/expconfig/setups\l/Setup_2017_05.cc">
<polygon fill="white" stroke="black" points="3836.5,-6 3836.5,-36 3943.5,-36 3943.5,-6 3836.5,-6"/>
<text text-anchor="start" x="3844.5" y="-24" font-family="Helvetica,sans-Serif" font-size="10.00">src/expconfig/setups</text>
<text text-anchor="middle" x="3890" y="-13" font-family="Helvetica,sans-Serif" font-size="10.00">/Setup_2017_05.cc</text>
</a>
</g>
</g>
<!-- Node96&#45;&gt;Node97 -->
<g id="edge44" class="edge"><title>Node96&#45;&gt;Node97</title>
<path fill="none" stroke="midnightblue" d="M3823.84,-77.2533C3839.43,-64.2337 3859.13,-47.7835 3872.96,-36.2309"/>
<polygon fill="midnightblue" stroke="midnightblue" points="3821.55,-74.6084 3816.12,-83.705 3826.04,-79.9812 3821.55,-74.6084"/>
</g>
<!-- Node99 -->
<g id="node42" class="node"><title>Node99</title>
<g id="a_node42"><a xlink:href="_setup__2017__12_8cc.html" target="_top" xlink:title="src/expconfig/setups\l/Setup_2017_12.cc">
<polygon fill="white" stroke="black" points="3961.5,-6 3961.5,-36 4068.5,-36 4068.5,-6 3961.5,-6"/>
<text text-anchor="start" x="3969.5" y="-24" font-family="Helvetica,sans-Serif" font-size="10.00">src/expconfig/setups</text>
<text text-anchor="middle" x="4015" y="-13" font-family="Helvetica,sans-Serif" font-size="10.00">/Setup_2017_12.cc</text>
</a>
</g>
</g>
<!-- Node98&#45;&gt;Node99 -->
<g id="edge46" class="edge"><title>Node98&#45;&gt;Node99</title>
<path fill="none" stroke="midnightblue" d="M3995.23,-68.9638C3999.95,-57.75 4005.13,-45.4317 4009.01,-36.2254"/>
<polygon fill="midnightblue" stroke="midnightblue" points="3991.9,-67.8535 3991.24,-78.4281 3998.35,-70.57 3991.9,-67.8535"/>
</g>
<!-- Node100 -->
<g id="node43" class="node"><title>Node100</title>
<g id="a_node43"><a xlink:href="_setup__2017_plus___new_tagger___base_8cc.html" target="_top" xlink:title="src/expconfig/setups\l/Setup_2017Plus_NewTagger\l_Base.cc">
<polygon fill="white" stroke="black" points="4087,-0.5 4087,-41.5 4233,-41.5 4233,-0.5 4087,-0.5"/>
<text text-anchor="start" x="4095" y="-29.5" font-family="Helvetica,sans-Serif" font-size="10.00">src/expconfig/setups</text>
<text text-anchor="start" x="4095" y="-18.5" font-family="Helvetica,sans-Serif" font-size="10.00">/Setup_2017Plus_NewTagger</text>
<text text-anchor="middle" x="4160" y="-7.5" font-family="Helvetica,sans-Serif" font-size="10.00">_Base.cc</text>
</a>
</g>
</g>
<!-- Node98&#45;&gt;Node100 -->
<g id="edge47" class="edge"><title>Node98&#45;&gt;Node100</title>
<path fill="none" stroke="midnightblue" d="M4037.8,-74.4689C4062.44,-63.8921 4091.16,-51.5572 4114.57,-41.5056"/>
<polygon fill="midnightblue" stroke="midnightblue" points="4036.39,-71.2665 4028.58,-78.4281 4039.15,-77.6987 4036.39,-71.2665"/>
</g>
<!-- Node101 -->
<g id="node44" class="node"><title>Node101</title>
<g id="a_node44"><a xlink:href="_setup__2018__03_8cc.html" target="_top" xlink:title="src/expconfig/setups\l/Setup_2018_03.cc">
<polygon fill="white" stroke="black" points="4251.5,-6 4251.5,-36 4358.5,-36 4358.5,-6 4251.5,-6"/>
<text text-anchor="start" x="4259.5" y="-24" font-family="Helvetica,sans-Serif" font-size="10.00">src/expconfig/setups</text>
<text text-anchor="middle" x="4305" y="-13" font-family="Helvetica,sans-Serif" font-size="10.00">/Setup_2018_03.cc</text>
</a>
</g>
</g>
<!-- Node98&#45;&gt;Node101 -->
<g id="edge48" class="edge"><title>Node98&#45;&gt;Node101</title>
<path fill="none" stroke="midnightblue" d="M4066.26,-77.9971C4145.64,-60.7268 4167.75,-61.3218 4242,-42 4248.77,-40.2371 4255.9,-38.1788 4262.82,-36.0659"/>
<polygon fill="midnightblue" stroke="midnightblue" points="4065.3,-74.6245 4056.29,-80.1943 4066.81,-81.4605 4065.3,-74.6245"/>
</g>
</g>
</svg>
