<?xml version="1.0" encoding="UTF-8" standalone="no"?>
<!DOCTYPE svg PUBLIC "-//W3C//DTD SVG 1.1//EN"
 "http://www.w3.org/Graphics/SVG/1.1/DTD/svg11.dtd">
<!-- Generated by graphviz version 2.36.0 (20140111.2315)
 -->
<!-- Title: src/root&#45;addons/cbtaps_display/TH2Crystals.h Pages: 1 -->
<svg width="3586pt" height="264pt"
 viewBox="0.00 0.00 3586.00 264.00" xmlns="http://www.w3.org/2000/svg" xmlns:xlink="http://www.w3.org/1999/xlink">
<g id="graph0" class="graph" transform="scale(1 1) rotate(0) translate(4 260)">
<title>src/root&#45;addons/cbtaps_display/TH2Crystals.h</title>
<polygon fill="white" stroke="none" points="-4,4 -4,-260 3582,-260 3582,4 -4,4"/>
<!-- Node5 -->
<g id="node1" class="node"><title>Node5</title>
<polygon fill="#bfbfbf" stroke="black" points="2100.5,-225 2100.5,-255 2219.5,-255 2219.5,-225 2100.5,-225"/>
<text text-anchor="start" x="2108.5" y="-243" font-family="Helvetica,sans-Serif" font-size="10.00">src/root&#45;addons/cbtaps</text>
<text text-anchor="middle" x="2160" y="-232" font-family="Helvetica,sans-Serif" font-size="10.00">_display/TH2Crystals.h</text>
</g>
<!-- Node6 -->
<g id="node2" class="node"><title>Node6</title>
<g id="a_node2"><a xlink:href="_t_h2_c_b_8h.html" target="_top" xlink:title="src/root&#45;addons/cbtaps\l_display/TH2CB.h">
<polygon fill="white" stroke="black" points="2102,-157 2102,-187 2218,-187 2218,-157 2102,-157"/>
<text text-anchor="start" x="2110" y="-175" font-family="Helvetica,sans-Serif" font-size="10.00">src/root&#45;addons/cbtaps</text>
<text text-anchor="middle" x="2160" y="-164" font-family="Helvetica,sans-Serif" font-size="10.00">_display/TH2CB.h</text>
</a>
</g>
</g>
<!-- Node5&#45;&gt;Node6 -->
<g id="edge1" class="edge"><title>Node5&#45;&gt;Node6</title>
<path fill="none" stroke="midnightblue" d="M2160,-214.532C2160,-205.361 2160,-195.245 2160,-187.293"/>
<polygon fill="midnightblue" stroke="midnightblue" points="2156.5,-214.679 2160,-224.679 2163.5,-214.679 2156.5,-214.679"/>
</g>
<!-- Node34 -->
<g id="node30" class="node"><title>Node34</title>
<g id="a_node30"><a xlink:href="_t_h2_t_a_p_s_8h.html" target="_top" xlink:title="src/root&#45;addons/cbtaps\l_display/TH2TAPS.h">
<polygon fill="white" stroke="black" points="754,-157 754,-187 870,-187 870,-157 754,-157"/>
<text text-anchor="start" x="762" y="-175" font-family="Helvetica,sans-Serif" font-size="10.00">src/root&#45;addons/cbtaps</text>
<text text-anchor="middle" x="812" y="-164" font-family="Helvetica,sans-Serif" font-size="10.00">_display/TH2TAPS.h</text>
</a>
</g>
</g>
<!-- Node5&#45;&gt;Node34 -->
<g id="edge29" class="edge"><title>Node5&#45;&gt;Node34</title>
<path fill="none" stroke="midnightblue" d="M2090.16,-235.581C1854.01,-224.018 1087.96,-186.511 870.214,-175.85"/>
<polygon fill="midnightblue" stroke="midnightblue" points="2090.18,-239.086 2100.34,-236.079 2090.52,-232.094 2090.18,-239.086"/>
</g>
<!-- Node41 -->
<g id="node37" class="node"><title>Node41</title>
<g id="a_node37"><a xlink:href="_t_h2_crystals_8cc.html" target="_top" xlink:title="src/root&#45;addons/cbtaps\l_display/TH2Crystals.cc">
<polygon fill="white" stroke="black" points="2236.5,-157 2236.5,-187 2361.5,-187 2361.5,-157 2236.5,-157"/>
<text text-anchor="start" x="2244.5" y="-175" font-family="Helvetica,sans-Serif" font-size="10.00">src/root&#45;addons/cbtaps</text>
<text text-anchor="middle" x="2299" y="-164" font-family="Helvetica,sans-Serif" font-size="10.00">_display/TH2Crystals.cc</text>
</a>
</g>
</g>
<!-- Node5&#45;&gt;Node41 -->
<g id="edge41" class="edge"><title>Node5&#45;&gt;Node41</title>
<path fill="none" stroke="midnightblue" d="M2199,-220.48C2221.26,-209.913 2248.72,-196.874 2269.23,-187.135"/>
<polygon fill="midnightblue" stroke="midnightblue" points="2197.35,-217.39 2189.82,-224.841 2200.35,-223.714 2197.35,-217.39"/>
</g>
<!-- Node7 -->
<g id="node3" class="node"><title>Node7</title>
<g id="a_node3"><a xlink:href="progs_2_xmas_c_b_8cc.html" target="_top" xlink:title="progs/XmasCB.cc">
<polygon fill="white" stroke="black" points="3335.5,-89.5 3335.5,-108.5 3432.5,-108.5 3432.5,-89.5 3335.5,-89.5"/>
<text text-anchor="middle" x="3384" y="-96.5" font-family="Helvetica,sans-Serif" font-size="10.00">progs/XmasCB.cc</text>
</a>
</g>
</g>
<!-- Node6&#45;&gt;Node7 -->
<g id="edge2" class="edge"><title>Node6&#45;&gt;Node7</title>
<path fill="none" stroke="midnightblue" d="M2228.42,-155.995C2713.64,-95.8981 2848.69,-208.042 3326,-120 3338.99,-117.604 3353,-112.837 3364,-108.558"/>
<polygon fill="midnightblue" stroke="midnightblue" points="2227.84,-152.54 2218.35,-157.26 2228.71,-159.486 2227.84,-152.54"/>
</g>
<!-- Node8 -->
<g id="node4" class="node"><title>Node8</title>
<g id="a_node4"><a xlink:href="analysis_2physics_2calibration_2_c_b___energy_8h.html" target="_top" xlink:title="src/analysis/physics\l/calibration/CB_Energy.h">
<polygon fill="white" stroke="black" points="3450.5,-84 3450.5,-114 3575.5,-114 3575.5,-84 3450.5,-84"/>
<text text-anchor="start" x="3458.5" y="-102" font-family="Helvetica,sans-Serif" font-size="10.00">src/analysis/physics</text>
<text text-anchor="middle" x="3513" y="-91" font-family="Helvetica,sans-Serif" font-size="10.00">/calibration/CB_Energy.h</text>
</a>
</g>
</g>
<!-- Node6&#45;&gt;Node8 -->
<g id="edge3" class="edge"><title>Node6&#45;&gt;Node8</title>
<path fill="none" stroke="midnightblue" d="M2228.67,-155.966C2764.44,-90.1451 2910.68,-200.311 3441,-120 3450.11,-118.621 3459.7,-116.468 3468.81,-114.077"/>
<polygon fill="midnightblue" stroke="midnightblue" points="2227.84,-152.542 2218.35,-157.249 2228.71,-159.488 2227.84,-152.542"/>
</g>
<!-- Node10 -->
<g id="node6" class="node"><title>Node10</title>
<g id="a_node6"><a xlink:href="analysis_2physics_2calibration_2_c_b___source_calib_8h.html" target="_top" xlink:title="src/analysis/physics\l/calibration/CB_SourceCalib.h">
<polygon fill="white" stroke="black" points="1533,-84 1533,-114 1681,-114 1681,-84 1533,-84"/>
<text text-anchor="start" x="1541" y="-102" font-family="Helvetica,sans-Serif" font-size="10.00">src/analysis/physics</text>
<text text-anchor="middle" x="1607" y="-91" font-family="Helvetica,sans-Serif" font-size="10.00">/calibration/CB_SourceCalib.h</text>
</a>
</g>
</g>
<!-- Node6&#45;&gt;Node10 -->
<g id="edge5" class="edge"><title>Node6&#45;&gt;Node10</title>
<path fill="none" stroke="midnightblue" d="M2091.78,-166.359C1999.99,-159.485 1831.85,-144.681 1690,-120 1680.51,-118.348 1670.49,-116.246 1660.81,-114.029"/>
<polygon fill="midnightblue" stroke="midnightblue" points="2091.55,-169.851 2101.78,-167.098 2092.06,-162.87 2091.55,-169.851"/>
</g>
<!-- Node12 -->
<g id="node8" class="node"><title>Node12</title>
<g id="a_node8"><a xlink:href="_thresholds_8cc.html" target="_top" xlink:title="src/analysis/physics\l/calibration/Thresholds.cc">
<polygon fill="white" stroke="black" points="1699,-84 1699,-114 1827,-114 1827,-84 1699,-84"/>
<text text-anchor="start" x="1707" y="-102" font-family="Helvetica,sans-Serif" font-size="10.00">src/analysis/physics</text>
<text text-anchor="middle" x="1763" y="-91" font-family="Helvetica,sans-Serif" font-size="10.00">/calibration/Thresholds.cc</text>
</a>
</g>
</g>
<!-- Node6&#45;&gt;Node12 -->
<g id="edge7" class="edge"><title>Node6&#45;&gt;Node12</title>
<path fill="none" stroke="midnightblue" d="M2091.74,-162.504C2025.89,-153.779 1923.59,-138.831 1836,-120 1828.03,-118.288 1819.65,-116.231 1811.51,-114.099"/>
<polygon fill="midnightblue" stroke="midnightblue" points="2091.62,-166.018 2101.99,-163.85 2092.53,-159.077 2091.62,-166.018"/>
</g>
<!-- Node13 -->
<g id="node9" class="node"><title>Node13</title>
<g id="a_node9"><a xlink:href="_data_overview_8cc.html" target="_top" xlink:title="src/analysis/physics\l/common/DataOverview.cc">
<polygon fill="white" stroke="black" points="1845,-84 1845,-114 1981,-114 1981,-84 1845,-84"/>
<text text-anchor="start" x="1853" y="-102" font-family="Helvetica,sans-Serif" font-size="10.00">src/analysis/physics</text>
<text text-anchor="middle" x="1913" y="-91" font-family="Helvetica,sans-Serif" font-size="10.00">/common/DataOverview.cc</text>
</a>
</g>
</g>
<!-- Node6&#45;&gt;Node13 -->
<g id="edge8" class="edge"><title>Node6&#45;&gt;Node13</title>
<path fill="none" stroke="midnightblue" d="M2101.55,-154.199C2059.08,-141.992 2002.25,-125.655 1962.12,-114.12"/>
<polygon fill="midnightblue" stroke="midnightblue" points="2100.62,-157.574 2111.2,-156.973 2102.56,-150.846 2100.62,-157.574"/>
</g>
<!-- Node14 -->
<g id="node10" class="node"><title>Node14</title>
<g id="a_node10"><a xlink:href="_event_display_hists_8cc.html" target="_top" xlink:title="src/analysis/physics\l/common/EventDisplayHists.cc">
<polygon fill="white" stroke="black" points="1067.5,-84 1067.5,-114 1222.5,-114 1222.5,-84 1067.5,-84"/>
<text text-anchor="start" x="1075.5" y="-102" font-family="Helvetica,sans-Serif" font-size="10.00">src/analysis/physics</text>
<text text-anchor="middle" x="1145" y="-91" font-family="Helvetica,sans-Serif" font-size="10.00">/common/EventDisplayHists.cc</text>
</a>
</g>
</g>
<!-- Node6&#45;&gt;Node14 -->
<g id="edge9" class="edge"><title>Node6&#45;&gt;Node14</title>
<path fill="none" stroke="midnightblue" d="M2091.5,-171.294C1937.1,-171.072 1550.47,-165.565 1231,-120 1220.53,-118.507 1209.45,-116.365 1198.86,-114.034"/>
<polygon fill="midnightblue" stroke="midnightblue" points="2091.77,-174.794 2101.77,-171.301 2091.77,-167.794 2091.77,-174.794"/>
</g>
<!-- Node15 -->
<g id="node11" class="node"><title>Node15</title>
<g id="a_node11"><a xlink:href="_meson_dalitz_decays_8h.html" target="_top" xlink:title="src/analysis/physics\l/common/MesonDalitzDecays.h">
<polygon fill="white" stroke="black" points="1999.5,-84 1999.5,-114 2156.5,-114 2156.5,-84 1999.5,-84"/>
<text text-anchor="start" x="2007.5" y="-102" font-family="Helvetica,sans-Serif" font-size="10.00">src/analysis/physics</text>
<text text-anchor="middle" x="2078" y="-91" font-family="Helvetica,sans-Serif" font-size="10.00">/common/MesonDalitzDecays.h</text>
</a>
</g>
</g>
<!-- Node6&#45;&gt;Node15 -->
<g id="edge10" class="edge"><title>Node6&#45;&gt;Node15</title>
<path fill="none" stroke="midnightblue" d="M2135.93,-150.159C2122.58,-138.604 2106.34,-124.535 2094.45,-114.241"/>
<polygon fill="midnightblue" stroke="midnightblue" points="2133.95,-153.073 2143.8,-156.973 2138.53,-147.781 2133.95,-153.073"/>
</g>
<!-- Node18 -->
<g id="node14" class="node"><title>Node18</title>
<g id="a_node14"><a xlink:href="etaprime__dalitz_8h.html" target="_top" xlink:title="src/analysis/physics\l/etaprime/etaprime_dalitz.h">
<polygon fill="white" stroke="black" points="2175,-84 2175,-114 2309,-114 2309,-84 2175,-84"/>
<text text-anchor="start" x="2183" y="-102" font-family="Helvetica,sans-Serif" font-size="10.00">src/analysis/physics</text>
<text text-anchor="middle" x="2242" y="-91" font-family="Helvetica,sans-Serif" font-size="10.00">/etaprime/etaprime_dalitz.h</text>
</a>
</g>
</g>
<!-- Node6&#45;&gt;Node18 -->
<g id="edge13" class="edge"><title>Node6&#45;&gt;Node18</title>
<path fill="none" stroke="midnightblue" d="M2184.07,-150.159C2197.42,-138.604 2213.66,-124.535 2225.55,-114.241"/>
<polygon fill="midnightblue" stroke="midnightblue" points="2181.47,-147.781 2176.2,-156.973 2186.05,-153.073 2181.47,-147.781"/>
</g>
<!-- Node22 -->
<g id="node18" class="node"><title>Node22</title>
<g id="a_node18"><a xlink:href="_goat_comparison_8cc.html" target="_top" xlink:title="src/analysis/physics\l/misc/GoatComparison.cc">
<polygon fill="white" stroke="black" points="1240.5,-84 1240.5,-114 1371.5,-114 1371.5,-84 1240.5,-84"/>
<text text-anchor="start" x="1248.5" y="-102" font-family="Helvetica,sans-Serif" font-size="10.00">src/analysis/physics</text>
<text text-anchor="middle" x="1306" y="-91" font-family="Helvetica,sans-Serif" font-size="10.00">/misc/GoatComparison.cc</text>
</a>
</g>
</g>
<!-- Node6&#45;&gt;Node22 -->
<g id="edge17" class="edge"><title>Node6&#45;&gt;Node22</title>
<path fill="none" stroke="midnightblue" d="M2091.53,-171.073C1955.14,-170.218 1640.29,-163.243 1380,-120 1370.94,-118.495 1361.39,-116.348 1352.27,-114.015"/>
<polygon fill="midnightblue" stroke="midnightblue" points="2091.8,-174.574 2101.82,-171.128 2091.84,-167.574 2091.8,-174.574"/>
</g>
<!-- Node23 -->
<g id="node19" class="node"><title>Node23</title>
<g id="a_node19"><a xlink:href="src_2analysis_2physics_2misc_2_xmas_c_b_8cc.html" target="_top" xlink:title="src/analysis/physics\l/misc/XMasCB.cc">
<polygon fill="white" stroke="black" points="2327,-84 2327,-114 2433,-114 2433,-84 2327,-84"/>
<text text-anchor="start" x="2335" y="-102" font-family="Helvetica,sans-Serif" font-size="10.00">src/analysis/physics</text>
<text text-anchor="middle" x="2380" y="-91" font-family="Helvetica,sans-Serif" font-size="10.00">/misc/XMasCB.cc</text>
</a>
</g>
</g>
<!-- Node6&#45;&gt;Node23 -->
<g id="edge18" class="edge"><title>Node6&#45;&gt;Node23</title>
<path fill="none" stroke="midnightblue" d="M2213.26,-153.812C2250.95,-141.648 2300.88,-125.534 2336.25,-114.12"/>
<polygon fill="midnightblue" stroke="midnightblue" points="2211.91,-150.57 2203.46,-156.973 2214.06,-157.232 2211.91,-150.57"/>
</g>
<!-- Node24 -->
<g id="node20" class="node"><title>Node24</title>
<g id="a_node20"><a xlink:href="_pi0_calib_8h.html" target="_top" xlink:title="src/analysis/physics\l/scratch/sobotzik/Pi0Calib.h">
<polygon fill="white" stroke="black" points="2451,-84 2451,-114 2591,-114 2591,-84 2451,-84"/>
<text text-anchor="start" x="2459" y="-102" font-family="Helvetica,sans-Serif" font-size="10.00">src/analysis/physics</text>
<text text-anchor="middle" x="2521" y="-91" font-family="Helvetica,sans-Serif" font-size="10.00">/scratch/sobotzik/Pi0Calib.h</text>
</a>
</g>
</g>
<!-- Node6&#45;&gt;Node24 -->
<g id="edge19" class="edge"><title>Node6&#45;&gt;Node24</title>
<path fill="none" stroke="midnightblue" d="M2228.13,-155.847C2323.38,-137.583 2349.72,-139.057 2441,-120 2449.55,-118.215 2458.57,-116.145 2467.34,-114.028"/>
<polygon fill="midnightblue" stroke="midnightblue" points="2227.21,-152.459 2218.06,-157.801 2228.55,-159.331 2227.21,-152.459"/>
</g>
<!-- Node26 -->
<g id="node22" class="node"><title>Node26</title>
<g id="a_node22"><a xlink:href="calibration_2modules_2_c_b___energy_8cc.html" target="_top" xlink:title="src/calibration/modules\l/CB_Energy.cc">
<polygon fill="white" stroke="black" points="2609.5,-84 2609.5,-114 2726.5,-114 2726.5,-84 2609.5,-84"/>
<text text-anchor="start" x="2617.5" y="-102" font-family="Helvetica,sans-Serif" font-size="10.00">src/calibration/modules</text>
<text text-anchor="middle" x="2668" y="-91" font-family="Helvetica,sans-Serif" font-size="10.00">/CB_Energy.cc</text>
</a>
</g>
</g>
<!-- Node6&#45;&gt;Node26 -->
<g id="edge21" class="edge"><title>Node6&#45;&gt;Node26</title>
<path fill="none" stroke="midnightblue" d="M2228.04,-155.976C2393.27,-130.591 2439.68,-151.022 2600,-120 2608.09,-118.434 2616.61,-116.317 2624.77,-114.046"/>
<polygon fill="midnightblue" stroke="midnightblue" points="2227.36,-152.54 2218.02,-157.548 2228.44,-159.455 2227.36,-152.54"/>
</g>
<!-- Node27 -->
<g id="node23" class="node"><title>Node27</title>
<g id="a_node23"><a xlink:href="calibration_2modules_2_c_b___source_calib_8cc.html" target="_top" xlink:title="src/calibration/modules\l/CB_SourceCalib.cc">
<polygon fill="white" stroke="black" points="2744.5,-84 2744.5,-114 2861.5,-114 2861.5,-84 2744.5,-84"/>
<text text-anchor="start" x="2752.5" y="-102" font-family="Helvetica,sans-Serif" font-size="10.00">src/calibration/modules</text>
<text text-anchor="middle" x="2803" y="-91" font-family="Helvetica,sans-Serif" font-size="10.00">/CB_SourceCalib.cc</text>
</a>
</g>
</g>
<!-- Node6&#45;&gt;Node27 -->
<g id="edge22" class="edge"><title>Node6&#45;&gt;Node27</title>
<path fill="none" stroke="midnightblue" d="M2228.13,-155.996C2452.78,-124.25 2515.51,-159.577 2735,-120 2743.36,-118.493 2752.15,-116.346 2760.53,-114.012"/>
<polygon fill="midnightblue" stroke="midnightblue" points="2227.4,-152.565 2218.01,-157.457 2228.4,-159.493 2227.4,-152.565"/>
</g>
<!-- Node28 -->
<g id="node24" class="node"><title>Node28</title>
<g id="a_node24"><a xlink:href="_c_b_e_sum___check_8cc.html" target="_top" xlink:title="src/root&#45;addons/analysis\l_codes/CBESum_Check.cc">
<polygon fill="white" stroke="black" points="2880,-84 2880,-114 3020,-114 3020,-84 2880,-84"/>
<text text-anchor="start" x="2888" y="-102" font-family="Helvetica,sans-Serif" font-size="10.00">src/root&#45;addons/analysis</text>
<text text-anchor="middle" x="2950" y="-91" font-family="Helvetica,sans-Serif" font-size="10.00">_codes/CBESum_Check.cc</text>
</a>
</g>
</g>
<!-- Node6&#45;&gt;Node28 -->
<g id="edge23" class="edge"><title>Node6&#45;&gt;Node28</title>
<path fill="none" stroke="midnightblue" d="M2228.54,-155.944C2512.32,-117.674 2590.32,-162.399 2870,-120 2879.77,-118.519 2890.08,-116.384 2899.94,-114.054"/>
<polygon fill="midnightblue" stroke="midnightblue" points="2227.79,-152.514 2218.36,-157.341 2228.75,-159.45 2227.79,-152.514"/>
</g>
<!-- Node29 -->
<g id="node25" class="node"><title>Node29</title>
<g id="a_node25"><a xlink:href="_detector_plots_8cc.html" target="_top" xlink:title="src/root&#45;addons/analysis\l_codes/DetectorPlots.cc">
<polygon fill="white" stroke="black" points="1389.5,-84 1389.5,-114 1514.5,-114 1514.5,-84 1389.5,-84"/>
<text text-anchor="start" x="1397.5" y="-102" font-family="Helvetica,sans-Serif" font-size="10.00">src/root&#45;addons/analysis</text>
<text text-anchor="middle" x="1452" y="-91" font-family="Helvetica,sans-Serif" font-size="10.00">_codes/DetectorPlots.cc</text>
</a>
</g>
</g>
<!-- Node6&#45;&gt;Node29 -->
<g id="edge24" class="edge"><title>Node6&#45;&gt;Node29</title>
<path fill="none" stroke="midnightblue" d="M2091.4,-169.781C1974.21,-166.746 1728.34,-156.23 1524,-120 1515.31,-118.46 1506.16,-116.327 1497.4,-114.024"/>
<polygon fill="midnightblue" stroke="midnightblue" points="2091.57,-173.286 2101.65,-170.035 2091.74,-166.288 2091.57,-173.286"/>
</g>
<!-- Node30 -->
<g id="node26" class="node"><title>Node30</title>
<g id="a_node26"><a xlink:href="_display_clustering_8cc.html" target="_top" xlink:title="src/root&#45;addons/analysis\l_codes/DisplayClustering.cc">
<polygon fill="white" stroke="black" points="741,-84 741,-114 883,-114 883,-84 741,-84"/>
<text text-anchor="start" x="749" y="-102" font-family="Helvetica,sans-Serif" font-size="10.00">src/root&#45;addons/analysis</text>
<text text-anchor="middle" x="812" y="-91" font-family="Helvetica,sans-Serif" font-size="10.00">_codes/DisplayClustering.cc</text>
</a>
</g>
</g>
<!-- Node6&#45;&gt;Node30 -->
<g id="edge25" class="edge"><title>Node6&#45;&gt;Node30</title>
<path fill="none" stroke="midnightblue" d="M2091.5,-170.093C1862.78,-166.776 1126.65,-153.687 892,-120 882.08,-118.576 871.604,-116.435 861.617,-114.076"/>
<polygon fill="midnightblue" stroke="midnightblue" points="2091.63,-173.596 2101.68,-170.239 2091.73,-166.596 2091.63,-173.596"/>
</g>
<!-- Node31 -->
<g id="node27" class="node"><title>Node31</title>
<g id="a_node27"><a xlink:href="root-addons_2analysis__codes_2_extract_resolutions_8cc.html" target="_top" xlink:title="src/root&#45;addons/analysis\l_codes/ExtractResolutions.cc">
<polygon fill="white" stroke="black" points="901,-84 901,-114 1049,-114 1049,-84 901,-84"/>
<text text-anchor="start" x="909" y="-102" font-family="Helvetica,sans-Serif" font-size="10.00">src/root&#45;addons/analysis</text>
<text text-anchor="middle" x="975" y="-91" font-family="Helvetica,sans-Serif" font-size="10.00">_codes/ExtractResolutions.cc</text>
</a>
</g>
</g>
<!-- Node6&#45;&gt;Node31 -->
<g id="edge26" class="edge"><title>Node6&#45;&gt;Node31</title>
<path fill="none" stroke="midnightblue" d="M2091.47,-169.536C1883.1,-164.814 1259.03,-148.607 1058,-120 1047.73,-118.538 1036.87,-116.381 1026.51,-114.017"/>
<polygon fill="midnightblue" stroke="midnightblue" points="2091.59,-173.039 2101.67,-169.765 2091.75,-166.041 2091.59,-173.039"/>
</g>
<!-- Node32 -->
<g id="node28" class="node"><title>Node32</title>
<g id="a_node28"><a xlink:href="_two_pi0___m_c_smearing__tools_8cc.html" target="_top" xlink:title="src/root&#45;addons/analysis\l_codes/TwoPi0_MCSmearing\l_tools.cc">
<polygon fill="white" stroke="black" points="3038,-78.5 3038,-119.5 3184,-119.5 3184,-78.5 3038,-78.5"/>
<text text-anchor="start" x="3046" y="-107.5" font-family="Helvetica,sans-Serif" font-size="10.00">src/root&#45;addons/analysis</text>
<text text-anchor="start" x="3046" y="-96.5" font-family="Helvetica,sans-Serif" font-size="10.00">_codes/TwoPi0_MCSmearing</text>
<text text-anchor="middle" x="3111" y="-85.5" font-family="Helvetica,sans-Serif" font-size="10.00">_tools.cc</text>
</a>
</g>
</g>
<!-- Node6&#45;&gt;Node32 -->
<g id="edge27" class="edge"><title>Node6&#45;&gt;Node32</title>
<path fill="none" stroke="midnightblue" d="M2228.37,-155.982C2582.46,-109.978 2679.07,-170.043 3029,-120 3031.9,-119.585 3034.85,-119.113 3037.82,-118.595"/>
<polygon fill="midnightblue" stroke="midnightblue" points="2227.81,-152.525 2218.36,-157.302 2228.73,-159.465 2227.81,-152.525"/>
</g>
<!-- Node33 -->
<g id="node29" class="node"><title>Node33</title>
<g id="a_node29"><a xlink:href="_t_h2_c_b_8cc.html" target="_top" xlink:title="src/root&#45;addons/cbtaps\l_display/TH2CB.cc">
<polygon fill="white" stroke="black" points="3202,-84 3202,-114 3318,-114 3318,-84 3202,-84"/>
<text text-anchor="start" x="3210" y="-102" font-family="Helvetica,sans-Serif" font-size="10.00">src/root&#45;addons/cbtaps</text>
<text text-anchor="middle" x="3260" y="-91" font-family="Helvetica,sans-Serif" font-size="10.00">_display/TH2CB.cc</text>
</a>
</g>
</g>
<!-- Node6&#45;&gt;Node33 -->
<g id="edge28" class="edge"><title>Node6&#45;&gt;Node33</title>
<path fill="none" stroke="midnightblue" d="M2228.48,-155.98C2654.91,-102.221 2772.42,-189.457 3193,-120 3201.5,-118.596 3210.44,-116.432 3218.92,-114.038"/>
<polygon fill="midnightblue" stroke="midnightblue" points="2227.83,-152.535 2218.35,-157.276 2228.72,-159.478 2227.83,-152.535"/>
</g>
<!-- Node9 -->
<g id="node5" class="node"><title>Node9</title>
<g id="a_node5"><a xlink:href="analysis_2physics_2calibration_2_c_b___energy_8cc.html" target="_top" xlink:title="src/analysis/physics\l/calibration/CB_Energy.cc">
<polygon fill="white" stroke="black" points="3447.5,-6 3447.5,-36 3578.5,-36 3578.5,-6 3447.5,-6"/>
<text text-anchor="start" x="3455.5" y="-24" font-family="Helvetica,sans-Serif" font-size="10.00">src/analysis/physics</text>
<text text-anchor="middle" x="3513" y="-13" font-family="Helvetica,sans-Serif" font-size="10.00">/calibration/CB_Energy.cc</text>
</a>
</g>
</g>
<!-- Node8&#45;&gt;Node9 -->
<g id="edge4" class="edge"><title>Node8&#45;&gt;Node9</title>
<path fill="none" stroke="midnightblue" d="M3513,-73.5898C3513,-61.2565 3513,-46.7237 3513,-36.2309"/>
<polygon fill="midnightblue" stroke="midnightblue" points="3509.5,-73.7049 3513,-83.705 3516.5,-73.705 3509.5,-73.7049"/>
</g>
<!-- Node11 -->
<g id="node7" class="node"><title>Node11</title>
<g id="a_node7"><a xlink:href="analysis_2physics_2calibration_2_c_b___source_calib_8cc.html" target="_top" xlink:title="src/analysis/physics\l/calibration/CB_SourceCalib.cc">
<polygon fill="white" stroke="black" points="1530.5,-6 1530.5,-36 1683.5,-36 1683.5,-6 1530.5,-6"/>
<text text-anchor="start" x="1538.5" y="-24" font-family="Helvetica,sans-Serif" font-size="10.00">src/analysis/physics</text>
<text text-anchor="middle" x="1607" y="-13" font-family="Helvetica,sans-Serif" font-size="10.00">/calibration/CB_SourceCalib.cc</text>
</a>
</g>
</g>
<!-- Node10&#45;&gt;Node11 -->
<g id="edge6" class="edge"><title>Node10&#45;&gt;Node11</title>
<path fill="none" stroke="midnightblue" d="M1607,-73.5898C1607,-61.2565 1607,-46.7237 1607,-36.2309"/>
<polygon fill="midnightblue" stroke="midnightblue" points="1603.5,-73.7049 1607,-83.705 1610.5,-73.705 1603.5,-73.7049"/>
</g>
<!-- Node16 -->
<g id="node12" class="node"><title>Node16</title>
<g id="a_node12"><a xlink:href="_meson_dalitz_decays_8cc.html" target="_top" xlink:title="Physics class to investigate Dalitz decays for different mesons. ">
<polygon fill="white" stroke="black" points="1773,-6 1773,-36 1935,-36 1935,-6 1773,-6"/>
<text text-anchor="start" x="1781" y="-24" font-family="Helvetica,sans-Serif" font-size="10.00">src/analysis/physics</text>
<text text-anchor="middle" x="1854" y="-13" font-family="Helvetica,sans-Serif" font-size="10.00">/common/MesonDalitzDecays.cc</text>
</a>
</g>
</g>
<!-- Node15&#45;&gt;Node16 -->
<g id="edge11" class="edge"><title>Node15&#45;&gt;Node16</title>
<path fill="none" stroke="midnightblue" d="M2027.13,-80.7401C1987.32,-67.2344 1932.66,-48.6898 1895.48,-36.0749"/>
<polygon fill="midnightblue" stroke="midnightblue" points="2026.06,-84.0733 2036.65,-83.9719 2028.31,-77.4444 2026.06,-84.0733"/>
</g>
<!-- Node17 -->
<g id="node13" class="node"><title>Node17</title>
<g id="a_node13"><a xlink:href="_meson_dalitz_decays__plot_8cc.html" target="_top" xlink:title="src/analysis/physics\l/common/MesonDalitzDecays\l_plot.cc">
<polygon fill="white" stroke="black" points="1953.5,-0.5 1953.5,-41.5 2102.5,-41.5 2102.5,-0.5 1953.5,-0.5"/>
<text text-anchor="start" x="1961.5" y="-29.5" font-family="Helvetica,sans-Serif" font-size="10.00">src/analysis/physics</text>
<text text-anchor="start" x="1961.5" y="-18.5" font-family="Helvetica,sans-Serif" font-size="10.00">/common/MesonDalitzDecays</text>
<text text-anchor="middle" x="2028" y="-7.5" font-family="Helvetica,sans-Serif" font-size="10.00">_plot.cc</text>
</a>
</g>
</g>
<!-- Node15&#45;&gt;Node17 -->
<g id="edge12" class="edge"><title>Node15&#45;&gt;Node17</title>
<path fill="none" stroke="midnightblue" d="M2063.05,-75.2736C2056.01,-64.5825 2047.71,-51.9564 2040.95,-41.68"/>
<polygon fill="midnightblue" stroke="midnightblue" points="2060.18,-77.2745 2068.6,-83.705 2066.02,-73.4271 2060.18,-77.2745"/>
</g>
<!-- Node19 -->
<g id="node15" class="node"><title>Node19</title>
<g id="a_node15"><a xlink:href="_p_c_a_8cc.html" target="_top" xlink:title="Tool to perform a Principal Component Analysis, based on ROOTs TPrincipal class, to create principal ...">
<polygon fill="white" stroke="black" points="2279,-11.5 2279,-30.5 2357,-30.5 2357,-11.5 2279,-11.5"/>
<text text-anchor="middle" x="2318" y="-18.5" font-family="Helvetica,sans-Serif" font-size="10.00">progs/PCA.cc</text>
</a>
</g>
</g>
<!-- Node18&#45;&gt;Node19 -->
<g id="edge14" class="edge"><title>Node18&#45;&gt;Node19</title>
<path fill="none" stroke="midnightblue" d="M2263.37,-76.6293C2278.63,-61.37 2298.35,-41.654 2309.44,-30.5635"/>
<polygon fill="midnightblue" stroke="midnightblue" points="2260.89,-74.159 2256.3,-83.705 2265.84,-79.1088 2260.89,-74.159"/>
</g>
<!-- Node20 -->
<g id="node16" class="node"><title>Node20</title>
<g id="a_node16"><a xlink:href="_etap_dalitz__plot_8cc.html" target="_top" xlink:title="src/analysis/physics\l/etaprime/EtapDalitz\l_plot.cc">
<polygon fill="white" stroke="black" points="2375,-0.5 2375,-41.5 2481,-41.5 2481,-0.5 2375,-0.5"/>
<text text-anchor="start" x="2383" y="-29.5" font-family="Helvetica,sans-Serif" font-size="10.00">src/analysis/physics</text>
<text text-anchor="start" x="2383" y="-18.5" font-family="Helvetica,sans-Serif" font-size="10.00">/etaprime/EtapDalitz</text>
<text text-anchor="middle" x="2428" y="-7.5" font-family="Helvetica,sans-Serif" font-size="10.00">_plot.cc</text>
</a>
</g>
</g>
<!-- Node18&#45;&gt;Node20 -->
<g id="edge15" class="edge"><title>Node18&#45;&gt;Node20</title>
<path fill="none" stroke="midnightblue" d="M2286.16,-79.9564C2314.39,-68.4208 2351.01,-53.4597 2379.96,-41.6279"/>
<polygon fill="midnightblue" stroke="midnightblue" points="2284.48,-76.8606 2276.55,-83.8831 2287.13,-83.3406 2284.48,-76.8606"/>
</g>
<!-- Node21 -->
<g id="node17" class="node"><title>Node21</title>
<g id="a_node17"><a xlink:href="etaprime__dalitz_8cc.html" target="_top" xlink:title="src/analysis/physics\l/etaprime/etaprime_dalitz.cc">
<polygon fill="white" stroke="black" points="2121,-6 2121,-36 2261,-36 2261,-6 2121,-6"/>
<text text-anchor="start" x="2129" y="-24" font-family="Helvetica,sans-Serif" font-size="10.00">src/analysis/physics</text>
<text text-anchor="middle" x="2191" y="-13" font-family="Helvetica,sans-Serif" font-size="10.00">/etaprime/etaprime_dalitz.cc</text>
</a>
</g>
</g>
<!-- Node18&#45;&gt;Node21 -->
<g id="edge16" class="edge"><title>Node18&#45;&gt;Node21</title>
<path fill="none" stroke="midnightblue" d="M2226.62,-75.0735C2218.14,-62.4375 2207.88,-47.1476 2200.55,-36.2309"/>
<polygon fill="midnightblue" stroke="midnightblue" points="2223.93,-77.3516 2232.41,-83.705 2229.74,-73.451 2223.93,-77.3516"/>
</g>
<!-- Node25 -->
<g id="node21" class="node"><title>Node25</title>
<g id="a_node21"><a xlink:href="_pi0_calib_8cc.html" target="_top" xlink:title="src/analysis/physics\l/scratch/sobotzik/Pi0Calib.cc">
<polygon fill="white" stroke="black" points="2499.5,-6 2499.5,-36 2644.5,-36 2644.5,-6 2499.5,-6"/>
<text text-anchor="start" x="2507.5" y="-24" font-family="Helvetica,sans-Serif" font-size="10.00">src/analysis/physics</text>
<text text-anchor="middle" x="2572" y="-13" font-family="Helvetica,sans-Serif" font-size="10.00">/scratch/sobotzik/Pi0Calib.cc</text>
</a>
</g>
</g>
<!-- Node24&#45;&gt;Node25 -->
<g id="edge20" class="edge"><title>Node24&#45;&gt;Node25</title>
<path fill="none" stroke="midnightblue" d="M2536.38,-75.0735C2544.86,-62.4375 2555.12,-47.1476 2562.45,-36.2309"/>
<polygon fill="midnightblue" stroke="midnightblue" points="2533.26,-73.451 2530.59,-83.705 2539.07,-77.3516 2533.26,-73.451"/>
</g>
<!-- Node34&#45;&gt;Node14 -->
<g id="edge33" class="edge"><title>Node34&#45;&gt;Node14</title>
<path fill="none" stroke="midnightblue" d="M880.164,-157.279C929.589,-147.23 998.004,-133.113 1058,-120 1066.63,-118.114 1075.73,-116.076 1084.66,-114.047"/>
<polygon fill="midnightblue" stroke="midnightblue" points="879.332,-153.876 870.229,-159.296 880.725,-160.736 879.332,-153.876"/>
</g>
<!-- Node34&#45;&gt;Node22 -->
<g id="edge34" class="edge"><title>Node34&#45;&gt;Node22</title>
<path fill="none" stroke="midnightblue" d="M880.099,-165.652C963.381,-158.436 1108.4,-143.687 1231,-120 1239.6,-118.338 1248.67,-116.231 1257.41,-114.012"/>
<polygon fill="midnightblue" stroke="midnightblue" points="879.672,-162.175 870.007,-166.515 880.269,-169.15 879.672,-162.175"/>
</g>
<!-- Node34&#45;&gt;Node29 -->
<g id="edge37" class="edge"><title>Node34&#45;&gt;Node29</title>
<path fill="none" stroke="midnightblue" d="M880.146,-168.871C987.309,-164.63 1201.42,-152.541 1380,-120 1388.55,-118.442 1397.56,-116.329 1406.2,-114.059"/>
<polygon fill="midnightblue" stroke="midnightblue" points="879.972,-165.375 870.114,-169.257 880.241,-172.37 879.972,-165.375"/>
</g>
<!-- Node34&#45;&gt;Node30 -->
<g id="edge38" class="edge"><title>Node34&#45;&gt;Node30</title>
<path fill="none" stroke="midnightblue" d="M812,-146.898C812,-136.131 812,-123.801 812,-114.486"/>
<polygon fill="midnightblue" stroke="midnightblue" points="808.5,-146.973 812,-156.973 815.5,-146.973 808.5,-146.973"/>
</g>
<!-- Node34&#45;&gt;Node31 -->
<g id="edge39" class="edge"><title>Node34&#45;&gt;Node31</title>
<path fill="none" stroke="midnightblue" d="M853.615,-152.873C881.267,-140.829 917.049,-125.243 942.585,-114.12"/>
<polygon fill="midnightblue" stroke="midnightblue" points="851.974,-149.77 844.204,-156.973 854.769,-156.188 851.974,-149.77"/>
</g>
<!-- Node35 -->
<g id="node31" class="node"><title>Node35</title>
<g id="a_node31"><a xlink:href="analysis_2physics_2calibration_2_t_a_p_s___energy_8h.html" target="_top" xlink:title="src/analysis/physics\l/calibration/TAPS_Energy.h">
<polygon fill="white" stroke="black" points="134.5,-84 134.5,-114 271.5,-114 271.5,-84 134.5,-84"/>
<text text-anchor="start" x="142.5" y="-102" font-family="Helvetica,sans-Serif" font-size="10.00">src/analysis/physics</text>
<text text-anchor="middle" x="203" y="-91" font-family="Helvetica,sans-Serif" font-size="10.00">/calibration/TAPS_Energy.h</text>
</a>
</g>
</g>
<!-- Node34&#45;&gt;Node35 -->
<g id="edge30" class="edge"><title>Node34&#45;&gt;Node35</title>
<path fill="none" stroke="midnightblue" d="M743.734,-167.838C642.209,-162.371 445.703,-148.845 281,-120 271.912,-118.408 262.325,-116.308 253.101,-114.067"/>
<polygon fill="midnightblue" stroke="midnightblue" points="743.682,-171.34 753.852,-168.373 744.051,-164.35 743.682,-171.34"/>
</g>
<!-- Node37 -->
<g id="node33" class="node"><title>Node37</title>
<g id="a_node33"><a xlink:href="_m_c_reconstruct_check_8cc.html" target="_top" xlink:title="src/analysis/physics\l/check/MCReconstructCheck.cc">
<polygon fill="white" stroke="black" points="290,-84 290,-114 450,-114 450,-84 290,-84"/>
<text text-anchor="start" x="298" y="-102" font-family="Helvetica,sans-Serif" font-size="10.00">src/analysis/physics</text>
<text text-anchor="middle" x="370" y="-91" font-family="Helvetica,sans-Serif" font-size="10.00">/check/MCReconstructCheck.cc</text>
</a>
</g>
</g>
<!-- Node34&#45;&gt;Node37 -->
<g id="edge32" class="edge"><title>Node34&#45;&gt;Node37</title>
<path fill="none" stroke="midnightblue" d="M743.799,-162.741C672.512,-153.736 557.524,-138.159 459,-120 449.5,-118.249 439.474,-116.197 429.712,-114.087"/>
<polygon fill="midnightblue" stroke="midnightblue" points="743.634,-166.248 753.993,-164.022 744.507,-159.302 743.634,-166.248"/>
</g>
<!-- Node38 -->
<g id="node34" class="node"><title>Node38</title>
<g id="a_node34"><a xlink:href="calibration_2modules_2_t_a_p_s___energy_8cc.html" target="_top" xlink:title="src/calibration/modules\l/TAPS_Energy.cc">
<polygon fill="white" stroke="black" points="468.5,-84 468.5,-114 585.5,-114 585.5,-84 468.5,-84"/>
<text text-anchor="start" x="476.5" y="-102" font-family="Helvetica,sans-Serif" font-size="10.00">src/calibration/modules</text>
<text text-anchor="middle" x="527" y="-91" font-family="Helvetica,sans-Serif" font-size="10.00">/TAPS_Energy.cc</text>
</a>
</g>
</g>
<!-- Node34&#45;&gt;Node38 -->
<g id="edge35" class="edge"><title>Node34&#45;&gt;Node38</title>
<path fill="none" stroke="midnightblue" d="M744.109,-156.224C700.96,-146.56 644.008,-133.3 594,-120 587.079,-118.159 579.789,-116.104 572.668,-114.032"/>
<polygon fill="midnightblue" stroke="midnightblue" points="743.409,-159.654 753.931,-158.415 744.933,-152.822 743.409,-159.654"/>
</g>
<!-- Node39 -->
<g id="node35" class="node"><title>Node39</title>
<g id="a_node35"><a xlink:href="calibration_2modules_2_t_a_p_s___short_energy_8cc.html" target="_top" xlink:title="src/calibration/modules\l/TAPS_ShortEnergy.cc">
<polygon fill="white" stroke="black" points="603.5,-84 603.5,-114 722.5,-114 722.5,-84 603.5,-84"/>
<text text-anchor="start" x="611.5" y="-102" font-family="Helvetica,sans-Serif" font-size="10.00">src/calibration/modules</text>
<text text-anchor="middle" x="663" y="-91" font-family="Helvetica,sans-Serif" font-size="10.00">/TAPS_ShortEnergy.cc</text>
</a>
</g>
</g>
<!-- Node34&#45;&gt;Node39 -->
<g id="edge36" class="edge"><title>Node34&#45;&gt;Node39</title>
<path fill="none" stroke="midnightblue" d="M773.295,-152.557C748.112,-140.557 715.77,-125.145 692.631,-114.12"/>
<polygon fill="midnightblue" stroke="midnightblue" points="772.029,-155.831 782.562,-156.973 775.041,-149.511 772.029,-155.831"/>
</g>
<!-- Node40 -->
<g id="node36" class="node"><title>Node40</title>
<g id="a_node36"><a xlink:href="_t_h2_t_a_p_s_8cc.html" target="_top" xlink:title="src/root&#45;addons/cbtaps\l_display/TH2TAPS.cc">
<polygon fill="white" stroke="black" points="0,-84 0,-114 116,-114 116,-84 0,-84"/>
<text text-anchor="start" x="8" y="-102" font-family="Helvetica,sans-Serif" font-size="10.00">src/root&#45;addons/cbtaps</text>
<text text-anchor="middle" x="58" y="-91" font-family="Helvetica,sans-Serif" font-size="10.00">_display/TH2TAPS.cc</text>
</a>
</g>
</g>
<!-- Node34&#45;&gt;Node40 -->
<g id="edge40" class="edge"><title>Node34&#45;&gt;Node40</title>
<path fill="none" stroke="midnightblue" d="M743.421,-170.787C619.1,-169.324 348.663,-161.184 125,-120 116.882,-118.505 108.349,-116.393 100.195,-114.098"/>
<polygon fill="midnightblue" stroke="midnightblue" points="743.519,-174.289 753.556,-170.896 743.594,-167.289 743.519,-174.289"/>
</g>
<!-- Node36 -->
<g id="node32" class="node"><title>Node36</title>
<g id="a_node32"><a xlink:href="analysis_2physics_2calibration_2_t_a_p_s___energy_8cc.html" target="_top" xlink:title="src/analysis/physics\l/calibration/TAPS_Energy.cc">
<polygon fill="white" stroke="black" points="131.5,-6 131.5,-36 274.5,-36 274.5,-6 131.5,-6"/>
<text text-anchor="start" x="139.5" y="-24" font-family="Helvetica,sans-Serif" font-size="10.00">src/analysis/physics</text>
<text text-anchor="middle" x="203" y="-13" font-family="Helvetica,sans-Serif" font-size="10.00">/calibration/TAPS_Energy.cc</text>
</a>
</g>
</g>
<!-- Node35&#45;&gt;Node36 -->
<g id="edge31" class="edge"><title>Node35&#45;&gt;Node36</title>
<path fill="none" stroke="midnightblue" d="M203,-73.5898C203,-61.2565 203,-46.7237 203,-36.2309"/>
<polygon fill="midnightblue" stroke="midnightblue" points="199.5,-73.7049 203,-83.705 206.5,-73.705 199.5,-73.7049"/>
</g>
</g>
</svg>
