<?xml version="1.0" encoding="UTF-8" standalone="no"?>
<!DOCTYPE svg PUBLIC "-//W3C//DTD SVG 1.1//EN"
 "http://www.w3.org/Graphics/SVG/1.1/DTD/svg11.dtd">
<!-- Generated by graphviz version 2.36.0 (20140111.2315)
 -->
<!-- Title: src/root&#45;addons/cbtaps_display/TH2CB.h Pages: 1 -->
<svg width="2844pt" height="196pt"
 viewBox="0.00 0.00 2844.00 196.00" xmlns="http://www.w3.org/2000/svg" xmlns:xlink="http://www.w3.org/1999/xlink">
<g id="graph0" class="graph" transform="scale(1 1) rotate(0) translate(4 192)">
<title>src/root&#45;addons/cbtaps_display/TH2CB.h</title>
<polygon fill="white" stroke="none" points="-4,4 -4,-192 2840,-192 2840,4 -4,4"/>
<!-- Node8 -->
<g id="node1" class="node"><title>Node8</title>
<polygon fill="#bfbfbf" stroke="black" points="1370,-157 1370,-187 1486,-187 1486,-157 1370,-157"/>
<text text-anchor="start" x="1378" y="-175" font-family="Helvetica,sans-Serif" font-size="10.00">src/root&#45;addons/cbtaps</text>
<text text-anchor="middle" x="1428" y="-164" font-family="Helvetica,sans-Serif" font-size="10.00">_display/TH2CB.h</text>
</g>
<!-- Node9 -->
<g id="node2" class="node"><title>Node9</title>
<g id="a_node2"><a xlink:href="progs_2_xmas_c_b_8cc.html" target="_top" xlink:title="progs/XmasCB.cc">
<polygon fill="white" stroke="black" points="-0.5,-89.5 -0.5,-108.5 96.5,-108.5 96.5,-89.5 -0.5,-89.5"/>
<text text-anchor="middle" x="48" y="-96.5" font-family="Helvetica,sans-Serif" font-size="10.00">progs/XmasCB.cc</text>
</a>
</g>
</g>
<!-- Node8&#45;&gt;Node9 -->
<g id="edge1" class="edge"><title>Node8&#45;&gt;Node9</title>
<path fill="none" stroke="midnightblue" d="M1359.58,-171.052C1124.23,-170.812 349.055,-166.429 105,-120 92.2248,-117.57 78.4523,-112.801 67.6459,-108.53"/>
<polygon fill="midnightblue" stroke="midnightblue" points="1359.72,-174.552 1369.72,-171.06 1359.72,-167.552 1359.72,-174.552"/>
</g>
<!-- Node10 -->
<g id="node3" class="node"><title>Node10</title>
<g id="a_node3"><a xlink:href="analysis_2physics_2calibration_2_c_b___energy_8h.html" target="_top" xlink:title="src/analysis/physics\l/calibration/CB_Energy.h">
<polygon fill="white" stroke="black" points="114.5,-84 114.5,-114 239.5,-114 239.5,-84 114.5,-84"/>
<text text-anchor="start" x="122.5" y="-102" font-family="Helvetica,sans-Serif" font-size="10.00">src/analysis/physics</text>
<text text-anchor="middle" x="177" y="-91" font-family="Helvetica,sans-Serif" font-size="10.00">/calibration/CB_Energy.h</text>
</a>
</g>
</g>
<!-- Node8&#45;&gt;Node10 -->
<g id="edge2" class="edge"><title>Node8&#45;&gt;Node10</title>
<path fill="none" stroke="midnightblue" d="M1359.88,-170.089C1142.23,-166.86 465.25,-154.253 249,-120 240.031,-118.579 230.583,-116.44 221.589,-114.082"/>
<polygon fill="midnightblue" stroke="midnightblue" points="1359.84,-173.589 1369.89,-170.236 1359.94,-166.59 1359.84,-173.589"/>
</g>
<!-- Node12 -->
<g id="node5" class="node"><title>Node12</title>
<g id="a_node5"><a xlink:href="analysis_2physics_2calibration_2_c_b___source_calib_8h.html" target="_top" xlink:title="src/analysis/physics\l/calibration/CB_SourceCalib.h">
<polygon fill="white" stroke="black" points="258,-84 258,-114 406,-114 406,-84 258,-84"/>
<text text-anchor="start" x="266" y="-102" font-family="Helvetica,sans-Serif" font-size="10.00">src/analysis/physics</text>
<text text-anchor="middle" x="332" y="-91" font-family="Helvetica,sans-Serif" font-size="10.00">/calibration/CB_SourceCalib.h</text>
</a>
</g>
</g>
<!-- Node8&#45;&gt;Node12 -->
<g id="edge4" class="edge"><title>Node8&#45;&gt;Node12</title>
<path fill="none" stroke="midnightblue" d="M1359.68,-169.22C1163.05,-163.832 598.099,-146.434 415,-120 404.878,-118.539 394.182,-116.412 383.958,-114.085"/>
<polygon fill="midnightblue" stroke="midnightblue" points="1359.79,-172.724 1369.88,-169.497 1359.98,-165.726 1359.79,-172.724"/>
</g>
<!-- Node14 -->
<g id="node7" class="node"><title>Node14</title>
<g id="a_node7"><a xlink:href="_thresholds_8cc.html" target="_top" xlink:title="src/analysis/physics\l/calibration/Thresholds.cc">
<polygon fill="white" stroke="black" points="424,-84 424,-114 552,-114 552,-84 424,-84"/>
<text text-anchor="start" x="432" y="-102" font-family="Helvetica,sans-Serif" font-size="10.00">src/analysis/physics</text>
<text text-anchor="middle" x="488" y="-91" font-family="Helvetica,sans-Serif" font-size="10.00">/calibration/Thresholds.cc</text>
</a>
</g>
</g>
<!-- Node8&#45;&gt;Node14 -->
<g id="edge6" class="edge"><title>Node8&#45;&gt;Node14</title>
<path fill="none" stroke="midnightblue" d="M1359.74,-171.798C1212.68,-172.468 855.401,-168.442 561,-120 552.053,-118.528 542.626,-116.396 533.628,-114.068"/>
<polygon fill="midnightblue" stroke="midnightblue" points="1359.98,-175.297 1369.96,-171.743 1359.94,-168.297 1359.98,-175.297"/>
</g>
<!-- Node15 -->
<g id="node8" class="node"><title>Node15</title>
<g id="a_node8"><a xlink:href="_data_overview_8cc.html" target="_top" xlink:title="src/analysis/physics\l/common/DataOverview.cc">
<polygon fill="white" stroke="black" points="570,-84 570,-114 706,-114 706,-84 570,-84"/>
<text text-anchor="start" x="578" y="-102" font-family="Helvetica,sans-Serif" font-size="10.00">src/analysis/physics</text>
<text text-anchor="middle" x="638" y="-91" font-family="Helvetica,sans-Serif" font-size="10.00">/common/DataOverview.cc</text>
</a>
</g>
</g>
<!-- Node8&#45;&gt;Node15 -->
<g id="edge7" class="edge"><title>Node8&#45;&gt;Node15</title>
<path fill="none" stroke="midnightblue" d="M1359.81,-170.255C1232.33,-167.95 949.589,-158.524 715,-120 705.732,-118.478 695.955,-116.354 686.593,-114.054"/>
<polygon fill="midnightblue" stroke="midnightblue" points="1359.76,-173.755 1369.82,-170.427 1359.88,-166.756 1359.76,-173.755"/>
</g>
<!-- Node16 -->
<g id="node9" class="node"><title>Node16</title>
<g id="a_node9"><a xlink:href="_event_display_hists_8cc.html" target="_top" xlink:title="src/analysis/physics\l/common/EventDisplayHists.cc">
<polygon fill="white" stroke="black" points="724.5,-84 724.5,-114 879.5,-114 879.5,-84 724.5,-84"/>
<text text-anchor="start" x="732.5" y="-102" font-family="Helvetica,sans-Serif" font-size="10.00">src/analysis/physics</text>
<text text-anchor="middle" x="802" y="-91" font-family="Helvetica,sans-Serif" font-size="10.00">/common/EventDisplayHists.cc</text>
</a>
</g>
</g>
<!-- Node8&#45;&gt;Node16 -->
<g id="edge8" class="edge"><title>Node8&#45;&gt;Node16</title>
<path fill="none" stroke="midnightblue" d="M1359.49,-167.486C1256.59,-161.542 1056.26,-147.383 888,-120 878.014,-118.375 867.461,-116.258 857.297,-114.012"/>
<polygon fill="midnightblue" stroke="midnightblue" points="1359.55,-170.995 1369.74,-168.069 1359.95,-164.007 1359.55,-170.995"/>
</g>
<!-- Node17 -->
<g id="node10" class="node"><title>Node17</title>
<g id="a_node10"><a xlink:href="_meson_dalitz_decays_8h.html" target="_top" xlink:title="src/analysis/physics\l/common/MesonDalitzDecays.h">
<polygon fill="white" stroke="black" points="897.5,-84 897.5,-114 1054.5,-114 1054.5,-84 897.5,-84"/>
<text text-anchor="start" x="905.5" y="-102" font-family="Helvetica,sans-Serif" font-size="10.00">src/analysis/physics</text>
<text text-anchor="middle" x="976" y="-91" font-family="Helvetica,sans-Serif" font-size="10.00">/common/MesonDalitzDecays.h</text>
</a>
</g>
</g>
<!-- Node8&#45;&gt;Node17 -->
<g id="edge9" class="edge"><title>Node8&#45;&gt;Node17</title>
<path fill="none" stroke="midnightblue" d="M1359.72,-163.177C1286.37,-154.366 1166.51,-138.795 1064,-120 1054.45,-118.248 1044.36,-116.172 1034.55,-114.031"/>
<polygon fill="midnightblue" stroke="midnightblue" points="1359.41,-166.665 1369.76,-164.375 1360.24,-159.714 1359.41,-166.665"/>
</g>
<!-- Node20 -->
<g id="node13" class="node"><title>Node20</title>
<g id="a_node13"><a xlink:href="etaprime__dalitz_8h.html" target="_top" xlink:title="src/analysis/physics\l/etaprime/etaprime_dalitz.h">
<polygon fill="white" stroke="black" points="1073,-84 1073,-114 1207,-114 1207,-84 1073,-84"/>
<text text-anchor="start" x="1081" y="-102" font-family="Helvetica,sans-Serif" font-size="10.00">src/analysis/physics</text>
<text text-anchor="middle" x="1140" y="-91" font-family="Helvetica,sans-Serif" font-size="10.00">/etaprime/etaprime_dalitz.h</text>
</a>
</g>
</g>
<!-- Node8&#45;&gt;Node20 -->
<g id="edge12" class="edge"><title>Node8&#45;&gt;Node20</title>
<path fill="none" stroke="midnightblue" d="M1360.12,-155.058C1318.47,-145.181 1264.09,-132.11 1216,-120 1208.46,-118.101 1200.51,-116.056 1192.7,-114.024"/>
<polygon fill="midnightblue" stroke="midnightblue" points="1359.34,-158.471 1369.88,-157.37 1360.96,-151.659 1359.34,-158.471"/>
</g>
<!-- Node24 -->
<g id="node17" class="node"><title>Node24</title>
<g id="a_node17"><a xlink:href="_goat_comparison_8cc.html" target="_top" xlink:title="src/analysis/physics\l/misc/GoatComparison.cc">
<polygon fill="white" stroke="black" points="1225.5,-84 1225.5,-114 1356.5,-114 1356.5,-84 1225.5,-84"/>
<text text-anchor="start" x="1233.5" y="-102" font-family="Helvetica,sans-Serif" font-size="10.00">src/analysis/physics</text>
<text text-anchor="middle" x="1291" y="-91" font-family="Helvetica,sans-Serif" font-size="10.00">/misc/GoatComparison.cc</text>
</a>
</g>
</g>
<!-- Node8&#45;&gt;Node24 -->
<g id="edge16" class="edge"><title>Node8&#45;&gt;Node24</title>
<path fill="none" stroke="midnightblue" d="M1391.83,-152.255C1368.85,-140.343 1339.56,-125.166 1318.48,-114.241"/>
<polygon fill="midnightblue" stroke="midnightblue" points="1390.44,-155.479 1400.93,-156.973 1393.67,-149.264 1390.44,-155.479"/>
</g>
<!-- Node25 -->
<g id="node18" class="node"><title>Node25</title>
<g id="a_node18"><a xlink:href="src_2analysis_2physics_2misc_2_xmas_c_b_8cc.html" target="_top" xlink:title="src/analysis/physics\l/misc/XMasCB.cc">
<polygon fill="white" stroke="black" points="1375,-84 1375,-114 1481,-114 1481,-84 1375,-84"/>
<text text-anchor="start" x="1383" y="-102" font-family="Helvetica,sans-Serif" font-size="10.00">src/analysis/physics</text>
<text text-anchor="middle" x="1428" y="-91" font-family="Helvetica,sans-Serif" font-size="10.00">/misc/XMasCB.cc</text>
</a>
</g>
</g>
<!-- Node8&#45;&gt;Node25 -->
<g id="edge17" class="edge"><title>Node8&#45;&gt;Node25</title>
<path fill="none" stroke="midnightblue" d="M1428,-146.898C1428,-136.131 1428,-123.801 1428,-114.486"/>
<polygon fill="midnightblue" stroke="midnightblue" points="1424.5,-146.973 1428,-156.973 1431.5,-146.973 1424.5,-146.973"/>
</g>
<!-- Node26 -->
<g id="node19" class="node"><title>Node26</title>
<g id="a_node19"><a xlink:href="_pi0_calib_8h.html" target="_top" xlink:title="src/analysis/physics\l/scratch/sobotzik/Pi0Calib.h">
<polygon fill="white" stroke="black" points="1499,-84 1499,-114 1639,-114 1639,-84 1499,-84"/>
<text text-anchor="start" x="1507" y="-102" font-family="Helvetica,sans-Serif" font-size="10.00">src/analysis/physics</text>
<text text-anchor="middle" x="1569" y="-91" font-family="Helvetica,sans-Serif" font-size="10.00">/scratch/sobotzik/Pi0Calib.h</text>
</a>
</g>
</g>
<!-- Node8&#45;&gt;Node26 -->
<g id="edge18" class="edge"><title>Node8&#45;&gt;Node26</title>
<path fill="none" stroke="midnightblue" d="M1464.91,-152.414C1488.61,-140.478 1518.93,-125.215 1540.72,-114.241"/>
<polygon fill="midnightblue" stroke="midnightblue" points="1463.21,-149.349 1455.86,-156.973 1466.36,-155.601 1463.21,-149.349"/>
</g>
<!-- Node28 -->
<g id="node21" class="node"><title>Node28</title>
<g id="a_node21"><a xlink:href="calibration_2modules_2_c_b___energy_8cc.html" target="_top" xlink:title="src/calibration/modules\l/CB_Energy.cc">
<polygon fill="white" stroke="black" points="1657.5,-84 1657.5,-114 1774.5,-114 1774.5,-84 1657.5,-84"/>
<text text-anchor="start" x="1665.5" y="-102" font-family="Helvetica,sans-Serif" font-size="10.00">src/calibration/modules</text>
<text text-anchor="middle" x="1716" y="-91" font-family="Helvetica,sans-Serif" font-size="10.00">/CB_Energy.cc</text>
</a>
</g>
</g>
<!-- Node8&#45;&gt;Node28 -->
<g id="edge20" class="edge"><title>Node8&#45;&gt;Node28</title>
<path fill="none" stroke="midnightblue" d="M1496.05,-156.299C1539.64,-146.617 1597.34,-133.31 1648,-120 1655.02,-118.155 1662.42,-116.098 1669.65,-114.025"/>
<polygon fill="midnightblue" stroke="midnightblue" points="1495.13,-152.917 1486.13,-158.494 1496.65,-159.751 1495.13,-152.917"/>
</g>
<!-- Node29 -->
<g id="node22" class="node"><title>Node29</title>
<g id="a_node22"><a xlink:href="calibration_2modules_2_c_b___source_calib_8cc.html" target="_top" xlink:title="src/calibration/modules\l/CB_SourceCalib.cc">
<polygon fill="white" stroke="black" points="1792.5,-84 1792.5,-114 1909.5,-114 1909.5,-84 1792.5,-84"/>
<text text-anchor="start" x="1800.5" y="-102" font-family="Helvetica,sans-Serif" font-size="10.00">src/calibration/modules</text>
<text text-anchor="middle" x="1851" y="-91" font-family="Helvetica,sans-Serif" font-size="10.00">/CB_SourceCalib.cc</text>
</a>
</g>
</g>
<!-- Node8&#45;&gt;Node29 -->
<g id="edge21" class="edge"><title>Node8&#45;&gt;Node29</title>
<path fill="none" stroke="midnightblue" d="M1496.53,-164.105C1568.41,-156.187 1684.42,-141.462 1783,-120 1790.7,-118.325 1798.79,-116.237 1806.61,-114.048"/>
<polygon fill="midnightblue" stroke="midnightblue" points="1495.82,-160.662 1486.26,-165.224 1496.58,-167.621 1495.82,-160.662"/>
</g>
<!-- Node30 -->
<g id="node23" class="node"><title>Node30</title>
<g id="a_node23"><a xlink:href="_c_b_e_sum___check_8cc.html" target="_top" xlink:title="src/root&#45;addons/analysis\l_codes/CBESum_Check.cc">
<polygon fill="white" stroke="black" points="1928,-84 1928,-114 2068,-114 2068,-84 1928,-84"/>
<text text-anchor="start" x="1936" y="-102" font-family="Helvetica,sans-Serif" font-size="10.00">src/root&#45;addons/analysis</text>
<text text-anchor="middle" x="1998" y="-91" font-family="Helvetica,sans-Serif" font-size="10.00">_codes/CBESum_Check.cc</text>
</a>
</g>
</g>
<!-- Node8&#45;&gt;Node30 -->
<g id="edge22" class="edge"><title>Node8&#45;&gt;Node30</title>
<path fill="none" stroke="midnightblue" d="M1496.13,-166.961C1591.16,-160.634 1768.66,-146.303 1918,-120 1927.16,-118.386 1936.83,-116.302 1946.16,-114.091"/>
<polygon fill="midnightblue" stroke="midnightblue" points="1495.82,-163.473 1486.07,-167.62 1496.28,-170.458 1495.82,-163.473"/>
</g>
<!-- Node31 -->
<g id="node24" class="node"><title>Node31</title>
<g id="a_node24"><a xlink:href="_detector_plots_8cc.html" target="_top" xlink:title="src/root&#45;addons/analysis\l_codes/DetectorPlots.cc">
<polygon fill="white" stroke="black" points="2086.5,-84 2086.5,-114 2211.5,-114 2211.5,-84 2086.5,-84"/>
<text text-anchor="start" x="2094.5" y="-102" font-family="Helvetica,sans-Serif" font-size="10.00">src/root&#45;addons/analysis</text>
<text text-anchor="middle" x="2149" y="-91" font-family="Helvetica,sans-Serif" font-size="10.00">_codes/DetectorPlots.cc</text>
</a>
</g>
</g>
<!-- Node8&#45;&gt;Node31 -->
<g id="edge23" class="edge"><title>Node8&#45;&gt;Node31</title>
<path fill="none" stroke="midnightblue" d="M1496.26,-169.945C1615.12,-167.151 1867.46,-156.98 2077,-120 2085.69,-118.467 2094.84,-116.337 2103.6,-114.036"/>
<polygon fill="midnightblue" stroke="midnightblue" points="1496.13,-166.447 1486.21,-170.171 1496.28,-173.445 1496.13,-166.447"/>
</g>
<!-- Node32 -->
<g id="node25" class="node"><title>Node32</title>
<g id="a_node25"><a xlink:href="_display_clustering_8cc.html" target="_top" xlink:title="src/root&#45;addons/analysis\l_codes/DisplayClustering.cc">
<polygon fill="white" stroke="black" points="2230,-84 2230,-114 2372,-114 2372,-84 2230,-84"/>
<text text-anchor="start" x="2238" y="-102" font-family="Helvetica,sans-Serif" font-size="10.00">src/root&#45;addons/analysis</text>
<text text-anchor="middle" x="2301" y="-91" font-family="Helvetica,sans-Serif" font-size="10.00">_codes/DisplayClustering.cc</text>
</a>
</g>
</g>
<!-- Node8&#45;&gt;Node32 -->
<g id="edge24" class="edge"><title>Node8&#45;&gt;Node32</title>
<path fill="none" stroke="midnightblue" d="M1496.41,-170.674C1634.18,-169.123 1954.57,-160.982 2220,-120 2229.73,-118.497 2240.01,-116.381 2249.86,-114.085"/>
<polygon fill="midnightblue" stroke="midnightblue" points="1495.98,-167.179 1486.02,-170.783 1496.05,-174.178 1495.98,-167.179"/>
</g>
<!-- Node33 -->
<g id="node26" class="node"><title>Node33</title>
<g id="a_node26"><a xlink:href="root-addons_2analysis__codes_2_extract_resolutions_8cc.html" target="_top" xlink:title="src/root&#45;addons/analysis\l_codes/ExtractResolutions.cc">
<polygon fill="white" stroke="black" points="2390,-84 2390,-114 2538,-114 2538,-84 2390,-84"/>
<text text-anchor="start" x="2398" y="-102" font-family="Helvetica,sans-Serif" font-size="10.00">src/root&#45;addons/analysis</text>
<text text-anchor="middle" x="2464" y="-91" font-family="Helvetica,sans-Serif" font-size="10.00">_codes/ExtractResolutions.cc</text>
</a>
</g>
</g>
<!-- Node8&#45;&gt;Node33 -->
<g id="edge25" class="edge"><title>Node8&#45;&gt;Node33</title>
<path fill="none" stroke="midnightblue" d="M1496.56,-171.615C1653.82,-172.092 2052.25,-167.992 2381,-120 2391.12,-118.523 2401.81,-116.389 2412.04,-114.06"/>
<polygon fill="midnightblue" stroke="midnightblue" points="1496.12,-168.113 1486.11,-171.575 1496.09,-175.113 1496.12,-168.113"/>
</g>
<!-- Node34 -->
<g id="node27" class="node"><title>Node34</title>
<g id="a_node27"><a xlink:href="_two_pi0___m_c_smearing__tools_8cc.html" target="_top" xlink:title="src/root&#45;addons/analysis\l_codes/TwoPi0_MCSmearing\l_tools.cc">
<polygon fill="white" stroke="black" points="2556,-78.5 2556,-119.5 2702,-119.5 2702,-78.5 2556,-78.5"/>
<text text-anchor="start" x="2564" y="-107.5" font-family="Helvetica,sans-Serif" font-size="10.00">src/root&#45;addons/analysis</text>
<text text-anchor="start" x="2564" y="-96.5" font-family="Helvetica,sans-Serif" font-size="10.00">_codes/TwoPi0_MCSmearing</text>
<text text-anchor="middle" x="2629" y="-85.5" font-family="Helvetica,sans-Serif" font-size="10.00">_tools.cc</text>
</a>
</g>
</g>
<!-- Node8&#45;&gt;Node34 -->
<g id="edge26" class="edge"><title>Node8&#45;&gt;Node34</title>
<path fill="none" stroke="midnightblue" d="M1496.49,-169.617C1706.98,-165.093 2342.55,-149.31 2547,-120 2549.9,-119.584 2552.85,-119.111 2555.82,-118.593"/>
<polygon fill="midnightblue" stroke="midnightblue" points="1496.12,-166.124 1486.19,-169.837 1496.27,-173.123 1496.12,-166.124"/>
</g>
<!-- Node35 -->
<g id="node28" class="node"><title>Node35</title>
<g id="a_node28"><a xlink:href="_t_h2_c_b_8cc.html" target="_top" xlink:title="src/root&#45;addons/cbtaps\l_display/TH2CB.cc">
<polygon fill="white" stroke="black" points="2720,-84 2720,-114 2836,-114 2836,-84 2720,-84"/>
<text text-anchor="start" x="2728" y="-102" font-family="Helvetica,sans-Serif" font-size="10.00">src/root&#45;addons/cbtaps</text>
<text text-anchor="middle" x="2778" y="-91" font-family="Helvetica,sans-Serif" font-size="10.00">_display/TH2CB.cc</text>
</a>
</g>
</g>
<!-- Node8&#45;&gt;Node35 -->
<g id="edge27" class="edge"><title>Node8&#45;&gt;Node35</title>
<path fill="none" stroke="midnightblue" d="M1496.58,-170.534C1727.29,-168.611 2474.13,-159.42 2711,-120 2719.5,-118.585 2728.44,-116.417 2736.92,-114.021"/>
<polygon fill="midnightblue" stroke="midnightblue" points="1496.28,-167.036 1486.31,-170.617 1496.34,-174.036 1496.28,-167.036"/>
</g>
<!-- Node11 -->
<g id="node4" class="node"><title>Node11</title>
<g id="a_node4"><a xlink:href="analysis_2physics_2calibration_2_c_b___energy_8cc.html" target="_top" xlink:title="src/analysis/physics\l/calibration/CB_Energy.cc">
<polygon fill="white" stroke="black" points="109.5,-6 109.5,-36 240.5,-36 240.5,-6 109.5,-6"/>
<text text-anchor="start" x="117.5" y="-24" font-family="Helvetica,sans-Serif" font-size="10.00">src/analysis/physics</text>
<text text-anchor="middle" x="175" y="-13" font-family="Helvetica,sans-Serif" font-size="10.00">/calibration/CB_Energy.cc</text>
</a>
</g>
</g>
<!-- Node10&#45;&gt;Node11 -->
<g id="edge3" class="edge"><title>Node10&#45;&gt;Node11</title>
<path fill="none" stroke="midnightblue" d="M176.358,-73.5898C176.033,-61.2565 175.651,-46.7237 175.374,-36.2309"/>
<polygon fill="midnightblue" stroke="midnightblue" points="172.862,-73.8005 176.624,-83.705 179.859,-73.6163 172.862,-73.8005"/>
</g>
<!-- Node13 -->
<g id="node6" class="node"><title>Node13</title>
<g id="a_node6"><a xlink:href="analysis_2physics_2calibration_2_c_b___source_calib_8cc.html" target="_top" xlink:title="src/analysis/physics\l/calibration/CB_SourceCalib.cc">
<polygon fill="white" stroke="black" points="258.5,-6 258.5,-36 411.5,-36 411.5,-6 258.5,-6"/>
<text text-anchor="start" x="266.5" y="-24" font-family="Helvetica,sans-Serif" font-size="10.00">src/analysis/physics</text>
<text text-anchor="middle" x="335" y="-13" font-family="Helvetica,sans-Serif" font-size="10.00">/calibration/CB_SourceCalib.cc</text>
</a>
</g>
</g>
<!-- Node12&#45;&gt;Node13 -->
<g id="edge5" class="edge"><title>Node12&#45;&gt;Node13</title>
<path fill="none" stroke="midnightblue" d="M332.964,-73.5898C333.45,-61.2565 334.024,-46.7237 334.438,-36.2309"/>
<polygon fill="midnightblue" stroke="midnightblue" points="329.462,-73.5747 332.564,-83.705 336.456,-73.8508 329.462,-73.5747"/>
</g>
<!-- Node18 -->
<g id="node11" class="node"><title>Node18</title>
<g id="a_node11"><a xlink:href="_meson_dalitz_decays_8cc.html" target="_top" xlink:title="Physics class to investigate Dalitz decays for different mesons. ">
<polygon fill="white" stroke="black" points="721,-6 721,-36 883,-36 883,-6 721,-6"/>
<text text-anchor="start" x="729" y="-24" font-family="Helvetica,sans-Serif" font-size="10.00">src/analysis/physics</text>
<text text-anchor="middle" x="802" y="-13" font-family="Helvetica,sans-Serif" font-size="10.00">/common/MesonDalitzDecays.cc</text>
</a>
</g>
</g>
<!-- Node17&#45;&gt;Node18 -->
<g id="edge10" class="edge"><title>Node17&#45;&gt;Node18</title>
<path fill="none" stroke="midnightblue" d="M934.498,-79.8729C903.738,-66.4372 862.417,-48.3891 834.147,-36.0413"/>
<polygon fill="midnightblue" stroke="midnightblue" points="933.115,-83.0878 943.68,-83.8831 935.917,-76.673 933.115,-83.0878"/>
</g>
<!-- Node19 -->
<g id="node12" class="node"><title>Node19</title>
<g id="a_node12"><a xlink:href="_meson_dalitz_decays__plot_8cc.html" target="_top" xlink:title="src/analysis/physics\l/common/MesonDalitzDecays\l_plot.cc">
<polygon fill="white" stroke="black" points="901.5,-0.5 901.5,-41.5 1050.5,-41.5 1050.5,-0.5 901.5,-0.5"/>
<text text-anchor="start" x="909.5" y="-29.5" font-family="Helvetica,sans-Serif" font-size="10.00">src/analysis/physics</text>
<text text-anchor="start" x="909.5" y="-18.5" font-family="Helvetica,sans-Serif" font-size="10.00">/common/MesonDalitzDecays</text>
<text text-anchor="middle" x="976" y="-7.5" font-family="Helvetica,sans-Serif" font-size="10.00">_plot.cc</text>
</a>
</g>
</g>
<!-- Node17&#45;&gt;Node19 -->
<g id="edge11" class="edge"><title>Node17&#45;&gt;Node19</title>
<path fill="none" stroke="midnightblue" d="M976,-73.656C976,-63.3257 976,-51.4425 976,-41.68"/>
<polygon fill="midnightblue" stroke="midnightblue" points="972.5,-73.7049 976,-83.705 979.5,-73.705 972.5,-73.7049"/>
</g>
<!-- Node21 -->
<g id="node14" class="node"><title>Node21</title>
<g id="a_node14"><a xlink:href="_p_c_a_8cc.html" target="_top" xlink:title="Tool to perform a Principal Component Analysis, based on ROOTs TPrincipal class, to create principal ...">
<polygon fill="white" stroke="black" points="1069,-11.5 1069,-30.5 1147,-30.5 1147,-11.5 1069,-11.5"/>
<text text-anchor="middle" x="1108" y="-18.5" font-family="Helvetica,sans-Serif" font-size="10.00">progs/PCA.cc</text>
</a>
</g>
</g>
<!-- Node20&#45;&gt;Node21 -->
<g id="edge13" class="edge"><title>Node20&#45;&gt;Node21</title>
<path fill="none" stroke="midnightblue" d="M1129.93,-74.0947C1123.68,-59.2448 1116.02,-41.049 1111.61,-30.5635"/>
<polygon fill="midnightblue" stroke="midnightblue" points="1126.87,-75.8468 1133.98,-83.705 1133.33,-73.1304 1126.87,-75.8468"/>
</g>
<!-- Node22 -->
<g id="node15" class="node"><title>Node22</title>
<g id="a_node15"><a xlink:href="_etap_dalitz__plot_8cc.html" target="_top" xlink:title="src/analysis/physics\l/etaprime/EtapDalitz\l_plot.cc">
<polygon fill="white" stroke="black" points="1165,-0.5 1165,-41.5 1271,-41.5 1271,-0.5 1165,-0.5"/>
<text text-anchor="start" x="1173" y="-29.5" font-family="Helvetica,sans-Serif" font-size="10.00">src/analysis/physics</text>
<text text-anchor="start" x="1173" y="-18.5" font-family="Helvetica,sans-Serif" font-size="10.00">/etaprime/EtapDalitz</text>
<text text-anchor="middle" x="1218" y="-7.5" font-family="Helvetica,sans-Serif" font-size="10.00">_plot.cc</text>
</a>
</g>
</g>
<!-- Node20&#45;&gt;Node22 -->
<g id="edge14" class="edge"><title>Node20&#45;&gt;Node22</title>
<path fill="none" stroke="midnightblue" d="M1162.02,-76.547C1173.26,-65.5963 1186.83,-52.3674 1197.8,-41.68"/>
<polygon fill="midnightblue" stroke="midnightblue" points="1159.39,-74.2195 1154.67,-83.705 1164.28,-79.2331 1159.39,-74.2195"/>
</g>
<!-- Node23 -->
<g id="node16" class="node"><title>Node23</title>
<g id="a_node16"><a xlink:href="etaprime__dalitz_8cc.html" target="_top" xlink:title="src/analysis/physics\l/etaprime/etaprime_dalitz.cc">
<polygon fill="white" stroke="black" points="1289,-6 1289,-36 1429,-36 1429,-6 1289,-6"/>
<text text-anchor="start" x="1297" y="-24" font-family="Helvetica,sans-Serif" font-size="10.00">src/analysis/physics</text>
<text text-anchor="middle" x="1359" y="-13" font-family="Helvetica,sans-Serif" font-size="10.00">/etaprime/etaprime_dalitz.cc</text>
</a>
</g>
</g>
<!-- Node20&#45;&gt;Node23 -->
<g id="edge15" class="edge"><title>Node20&#45;&gt;Node23</title>
<path fill="none" stroke="midnightblue" d="M1189.98,-80.6543C1228.88,-67.156 1282.17,-48.6631 1318.44,-36.0749"/>
<polygon fill="midnightblue" stroke="midnightblue" points="1188.72,-77.3867 1180.42,-83.9719 1191.02,-83.9998 1188.72,-77.3867"/>
</g>
<!-- Node27 -->
<g id="node20" class="node"><title>Node27</title>
<g id="a_node20"><a xlink:href="_pi0_calib_8cc.html" target="_top" xlink:title="src/analysis/physics\l/scratch/sobotzik/Pi0Calib.cc">
<polygon fill="white" stroke="black" points="1496.5,-6 1496.5,-36 1641.5,-36 1641.5,-6 1496.5,-6"/>
<text text-anchor="start" x="1504.5" y="-24" font-family="Helvetica,sans-Serif" font-size="10.00">src/analysis/physics</text>
<text text-anchor="middle" x="1569" y="-13" font-family="Helvetica,sans-Serif" font-size="10.00">/scratch/sobotzik/Pi0Calib.cc</text>
</a>
</g>
</g>
<!-- Node26&#45;&gt;Node27 -->
<g id="edge19" class="edge"><title>Node26&#45;&gt;Node27</title>
<path fill="none" stroke="midnightblue" d="M1569,-73.5898C1569,-61.2565 1569,-46.7237 1569,-36.2309"/>
<polygon fill="midnightblue" stroke="midnightblue" points="1565.5,-73.7049 1569,-83.705 1572.5,-73.705 1565.5,-73.7049"/>
</g>
</g>
</svg>
