<?xml version="1.0" encoding="UTF-8" standalone="no"?>
<!DOCTYPE svg PUBLIC "-//W3C//DTD SVG 1.1//EN"
 "http://www.w3.org/Graphics/SVG/1.1/DTD/svg11.dtd">
<!-- Generated by graphviz version 2.36.0 (20140111.2315)
 -->
<!-- Title: src/tree/TSimpleParticle.h Pages: 1 -->
<svg width="1835pt" height="262pt"
 viewBox="0.00 0.00 1835.00 262.00" xmlns="http://www.w3.org/2000/svg" xmlns:xlink="http://www.w3.org/1999/xlink">
<g id="graph0" class="graph" transform="scale(1 1) rotate(0) translate(4 258)">
<title>src/tree/TSimpleParticle.h</title>
<polygon fill="white" stroke="none" points="-4,4 -4,-258 1831,-258 1831,4 -4,4"/>
<!-- Node43 -->
<g id="node1" class="node"><title>Node43</title>
<polygon fill="#bfbfbf" stroke="black" points="911,-234.5 911,-253.5 1041,-253.5 1041,-234.5 911,-234.5"/>
<text text-anchor="middle" x="976" y="-241.5" font-family="Helvetica,sans-Serif" font-size="10.00">src/tree/TSimpleParticle.h</text>
</g>
<!-- Node44 -->
<g id="node2" class="node"><title>Node44</title>
<g id="a_node2"><a xlink:href="etaprime__dalitz_8h.html" target="_top" xlink:title="src/analysis/physics\l/etaprime/etaprime_dalitz.h">
<polygon fill="white" stroke="black" points="153,-162 153,-192 287,-192 287,-162 153,-162"/>
<text text-anchor="start" x="161" y="-180" font-family="Helvetica,sans-Serif" font-size="10.00">src/analysis/physics</text>
<text text-anchor="middle" x="220" y="-169" font-family="Helvetica,sans-Serif" font-size="10.00">/etaprime/etaprime_dalitz.h</text>
</a>
</g>
</g>
<!-- Node43&#45;&gt;Node44 -->
<g id="edge1" class="edge"><title>Node43&#45;&gt;Node44</title>
<path fill="none" stroke="midnightblue" d="M900.603,-236.86C796.688,-228.358 603.607,-212.413 439,-198 388.035,-193.537 330.421,-188.267 287.082,-184.257"/>
<polygon fill="midnightblue" stroke="midnightblue" points="900.431,-240.358 910.683,-237.685 901.001,-233.381 900.431,-240.358"/>
</g>
<!-- Node48 -->
<g id="node6" class="node"><title>Node48</title>
<g id="a_node6"><a xlink:href="_etap_omega_g_8h.html" target="_top" xlink:title="src/analysis/physics\l/etaprime/EtapOmegaG.h">
<polygon fill="white" stroke="black" points="448,-162 448,-192 576,-192 576,-162 448,-162"/>
<text text-anchor="start" x="456" y="-180" font-family="Helvetica,sans-Serif" font-size="10.00">src/analysis/physics</text>
<text text-anchor="middle" x="512" y="-169" font-family="Helvetica,sans-Serif" font-size="10.00">/etaprime/EtapOmegaG.h</text>
</a>
</g>
</g>
<!-- Node43&#45;&gt;Node48 -->
<g id="edge5" class="edge"><title>Node43&#45;&gt;Node48</title>
<path fill="none" stroke="midnightblue" d="M900.489,-237.751C821.354,-231.449 693.667,-219.011 585,-198 576.614,-196.379 567.78,-194.291 559.267,-192.079"/>
<polygon fill="midnightblue" stroke="midnightblue" points="900.605,-241.271 910.848,-238.563 901.153,-234.292 900.605,-241.271"/>
</g>
<!-- Node51 -->
<g id="node9" class="node"><title>Node51</title>
<g id="a_node9"><a xlink:href="_etap_omega_g__simple_8cc.html" target="_top" xlink:title="src/analysis/physics\l/etaprime/EtapOmegaG\l_simple.cc">
<polygon fill="white" stroke="black" points="594.5,-156.5 594.5,-197.5 713.5,-197.5 713.5,-156.5 594.5,-156.5"/>
<text text-anchor="start" x="602.5" y="-185.5" font-family="Helvetica,sans-Serif" font-size="10.00">src/analysis/physics</text>
<text text-anchor="start" x="602.5" y="-174.5" font-family="Helvetica,sans-Serif" font-size="10.00">/etaprime/EtapOmegaG</text>
<text text-anchor="middle" x="654" y="-163.5" font-family="Helvetica,sans-Serif" font-size="10.00">_simple.cc</text>
</a>
</g>
</g>
<!-- Node43&#45;&gt;Node51 -->
<g id="edge8" class="edge"><title>Node43&#45;&gt;Node51</title>
<path fill="none" stroke="midnightblue" d="M908.169,-232.939C856.996,-224.865 785.218,-212.507 723,-198 719.963,-197.292 716.862,-196.531 713.737,-195.736"/>
<polygon fill="midnightblue" stroke="midnightblue" points="907.699,-236.408 918.119,-234.496 908.781,-229.492 907.699,-236.408"/>
</g>
<!-- Node52 -->
<g id="node10" class="node"><title>Node52</title>
<g id="a_node10"><a xlink:href="_omega___ep_em_8h.html" target="_top" xlink:title="src/analysis/physics\l/omega/Omega_EpEm.h">
<polygon fill="white" stroke="black" points="732,-162 732,-192 856,-192 856,-162 732,-162"/>
<text text-anchor="start" x="740" y="-180" font-family="Helvetica,sans-Serif" font-size="10.00">src/analysis/physics</text>
<text text-anchor="middle" x="794" y="-169" font-family="Helvetica,sans-Serif" font-size="10.00">/omega/Omega_EpEm.h</text>
</a>
</g>
</g>
<!-- Node43&#45;&gt;Node52 -->
<g id="edge9" class="edge"><title>Node43&#45;&gt;Node52</title>
<path fill="none" stroke="midnightblue" d="M942.372,-230.99C911.517,-219.97 865.8,-203.643 833.279,-192.028"/>
<polygon fill="midnightblue" stroke="midnightblue" points="941.237,-234.301 951.832,-234.369 943.592,-227.709 941.237,-234.301"/>
</g>
<!-- Node54 -->
<g id="node12" class="node"><title>Node54</title>
<g id="a_node12"><a xlink:href="pi0eta__lost__g_8h.html" target="_top" xlink:title="src/analysis/physics\l/omega/pi0eta_lost_g.h">
<polygon fill="white" stroke="black" points="874,-162 874,-192 992,-192 992,-162 874,-162"/>
<text text-anchor="start" x="882" y="-180" font-family="Helvetica,sans-Serif" font-size="10.00">src/analysis/physics</text>
<text text-anchor="middle" x="933" y="-169" font-family="Helvetica,sans-Serif" font-size="10.00">/omega/pi0eta_lost_g.h</text>
</a>
</g>
</g>
<!-- Node43&#45;&gt;Node54 -->
<g id="edge11" class="edge"><title>Node43&#45;&gt;Node54</title>
<path fill="none" stroke="midnightblue" d="M964.658,-225.855C957.692,-215.324 948.878,-202.002 942.32,-192.089"/>
<polygon fill="midnightblue" stroke="midnightblue" points="961.764,-227.825 970.201,-234.234 967.602,-223.963 961.764,-227.825"/>
</g>
<!-- Node56 -->
<g id="node14" class="node"><title>Node56</title>
<g id="a_node14"><a xlink:href="sigma_plus_8h.html" target="_top" xlink:title="src/analysis/physics\l/production/sigmaPlus.h">
<polygon fill="white" stroke="black" points="955,-84 955,-114 1077,-114 1077,-84 955,-84"/>
<text text-anchor="start" x="963" y="-102" font-family="Helvetica,sans-Serif" font-size="10.00">src/analysis/physics</text>
<text text-anchor="middle" x="1016" y="-91" font-family="Helvetica,sans-Serif" font-size="10.00">/production/sigmaPlus.h</text>
</a>
</g>
</g>
<!-- Node43&#45;&gt;Node56 -->
<g id="edge13" class="edge"><title>Node43&#45;&gt;Node56</title>
<path fill="none" stroke="midnightblue" d="M987.371,-225.934C992.292,-217.793 997.675,-207.725 1001,-198 1010.86,-169.174 1014.25,-133.36 1015.41,-114.002"/>
<polygon fill="midnightblue" stroke="midnightblue" points="984.358,-224.15 981.958,-234.47 990.27,-227.899 984.358,-224.15"/>
</g>
<!-- Node59 -->
<g id="node17" class="node"><title>Node59</title>
<g id="a_node17"><a xlink:href="single_pi0_8h.html" target="_top" xlink:title="src/analysis/physics\l/production/singlePi0.h">
<polygon fill="white" stroke="black" points="1095,-84 1095,-114 1211,-114 1211,-84 1095,-84"/>
<text text-anchor="start" x="1103" y="-102" font-family="Helvetica,sans-Serif" font-size="10.00">src/analysis/physics</text>
<text text-anchor="middle" x="1153" y="-91" font-family="Helvetica,sans-Serif" font-size="10.00">/production/singlePi0.h</text>
</a>
</g>
</g>
<!-- Node43&#45;&gt;Node59 -->
<g id="edge16" class="edge"><title>Node43&#45;&gt;Node59</title>
<path fill="none" stroke="midnightblue" d="M994.368,-228.161C1028.64,-200.471 1101.9,-141.285 1135.5,-114.138"/>
<polygon fill="midnightblue" stroke="midnightblue" points="992.121,-225.476 986.542,-234.483 996.52,-230.921 992.121,-225.476"/>
</g>
<!-- Node62 -->
<g id="node20" class="node"><title>Node62</title>
<g id="a_node20"><a xlink:href="triple_pi0_8h.html" target="_top" xlink:title="src/analysis/physics\l/production/triplePi0.h">
<polygon fill="white" stroke="black" points="1431.5,-84 1431.5,-114 1542.5,-114 1542.5,-84 1431.5,-84"/>
<text text-anchor="start" x="1439.5" y="-102" font-family="Helvetica,sans-Serif" font-size="10.00">src/analysis/physics</text>
<text text-anchor="middle" x="1487" y="-91" font-family="Helvetica,sans-Serif" font-size="10.00">/production/triplePi0.h</text>
</a>
</g>
</g>
<!-- Node43&#45;&gt;Node62 -->
<g id="edge19" class="edge"><title>Node43&#45;&gt;Node62</title>
<path fill="none" stroke="midnightblue" d="M1051.34,-237.474C1128.14,-230.851 1241.3,-218.067 1280,-198 1302.88,-186.134 1298.25,-169.838 1320,-156 1354.06,-134.331 1397.39,-120.12 1431.38,-111.436"/>
<polygon fill="midnightblue" stroke="midnightblue" points="1050.9,-233.999 1041.23,-238.329 1051.49,-240.974 1050.9,-233.999"/>
</g>
<!-- Node66 -->
<g id="node24" class="node"><title>Node66</title>
<g id="a_node24"><a xlink:href="src_2analysis_2physics_2scratch_2wolfes_2tools_2tools_8h.html" target="_top" xlink:title="src/analysis/physics\l/scratch/wolfes/tools\l/tools.h">
<polygon fill="white" stroke="black" points="1164.5,-156.5 1164.5,-197.5 1271.5,-197.5 1271.5,-156.5 1164.5,-156.5"/>
<text text-anchor="start" x="1172.5" y="-185.5" font-family="Helvetica,sans-Serif" font-size="10.00">src/analysis/physics</text>
<text text-anchor="start" x="1172.5" y="-174.5" font-family="Helvetica,sans-Serif" font-size="10.00">/scratch/wolfes/tools</text>
<text text-anchor="middle" x="1218" y="-163.5" font-family="Helvetica,sans-Serif" font-size="10.00">/tools.h</text>
</a>
</g>
</g>
<!-- Node43&#45;&gt;Node66 -->
<g id="edge23" class="edge"><title>Node43&#45;&gt;Node66</title>
<path fill="none" stroke="midnightblue" d="M1017.72,-231.795C1058.27,-220.902 1120.05,-204.308 1164.27,-192.432"/>
<polygon fill="midnightblue" stroke="midnightblue" points="1016.64,-228.461 1007.89,-234.436 1018.45,-235.222 1016.64,-228.461"/>
</g>
<!-- Node68 -->
<g id="node26" class="node"><title>Node68</title>
<g id="a_node26"><a xlink:href="_t_simple_particle_8cc.html" target="_top" xlink:title="src/tree/TSimpleParticle.cc">
<polygon fill="white" stroke="black" points="1328.5,-167.5 1328.5,-186.5 1463.5,-186.5 1463.5,-167.5 1328.5,-167.5"/>
<text text-anchor="middle" x="1396" y="-174.5" font-family="Helvetica,sans-Serif" font-size="10.00">src/tree/TSimpleParticle.cc</text>
</a>
</g>
</g>
<!-- Node43&#45;&gt;Node68 -->
<g id="edge30" class="edge"><title>Node43&#45;&gt;Node68</title>
<path fill="none" stroke="midnightblue" d="M1051.42,-235.295C1120.17,-227.719 1224.35,-214.851 1314,-198 1330.71,-194.86 1349.11,-190.459 1364.24,-186.585"/>
<polygon fill="midnightblue" stroke="midnightblue" points="1050.69,-231.855 1041.13,-236.42 1051.45,-238.813 1050.69,-231.855"/>
</g>
<!-- Node45 -->
<g id="node3" class="node"><title>Node45</title>
<g id="a_node3"><a xlink:href="_p_c_a_8cc.html" target="_top" xlink:title="Tool to perform a Principal Component Analysis, based on ROOTs TPrincipal class, to create principal ...">
<polygon fill="white" stroke="black" points="0,-89.5 0,-108.5 78,-108.5 78,-89.5 0,-89.5"/>
<text text-anchor="middle" x="39" y="-96.5" font-family="Helvetica,sans-Serif" font-size="10.00">progs/PCA.cc</text>
</a>
</g>
</g>
<!-- Node44&#45;&gt;Node45 -->
<g id="edge2" class="edge"><title>Node44&#45;&gt;Node45</title>
<path fill="none" stroke="midnightblue" d="M176.813,-157.866C139.709,-142.287 87.8422,-120.508 59.4962,-108.606"/>
<polygon fill="midnightblue" stroke="midnightblue" points="175.804,-161.239 186.379,-161.883 178.514,-154.785 175.804,-161.239"/>
</g>
<!-- Node46 -->
<g id="node4" class="node"><title>Node46</title>
<g id="a_node4"><a xlink:href="_etap_dalitz__plot_8cc.html" target="_top" xlink:title="src/analysis/physics\l/etaprime/EtapDalitz\l_plot.cc">
<polygon fill="white" stroke="black" points="96,-78.5 96,-119.5 202,-119.5 202,-78.5 96,-78.5"/>
<text text-anchor="start" x="104" y="-107.5" font-family="Helvetica,sans-Serif" font-size="10.00">src/analysis/physics</text>
<text text-anchor="start" x="104" y="-96.5" font-family="Helvetica,sans-Serif" font-size="10.00">/etaprime/EtapDalitz</text>
<text text-anchor="middle" x="149" y="-85.5" font-family="Helvetica,sans-Serif" font-size="10.00">_plot.cc</text>
</a>
</g>
</g>
<!-- Node44&#45;&gt;Node46 -->
<g id="edge3" class="edge"><title>Node44&#45;&gt;Node46</title>
<path fill="none" stroke="midnightblue" d="M199.663,-154.23C189.491,-143.342 177.274,-130.265 167.385,-119.68"/>
<polygon fill="midnightblue" stroke="midnightblue" points="197.261,-156.787 206.645,-161.705 202.376,-152.008 197.261,-156.787"/>
</g>
<!-- Node47 -->
<g id="node5" class="node"><title>Node47</title>
<g id="a_node5"><a xlink:href="etaprime__dalitz_8cc.html" target="_top" xlink:title="src/analysis/physics\l/etaprime/etaprime_dalitz.cc">
<polygon fill="white" stroke="black" points="220,-84 220,-114 360,-114 360,-84 220,-84"/>
<text text-anchor="start" x="228" y="-102" font-family="Helvetica,sans-Serif" font-size="10.00">src/analysis/physics</text>
<text text-anchor="middle" x="290" y="-91" font-family="Helvetica,sans-Serif" font-size="10.00">/etaprime/etaprime_dalitz.cc</text>
</a>
</g>
</g>
<!-- Node44&#45;&gt;Node47 -->
<g id="edge4" class="edge"><title>Node44&#45;&gt;Node47</title>
<path fill="none" stroke="midnightblue" d="M240.106,-154.171C251.931,-141.332 266.545,-125.466 276.893,-114.231"/>
<polygon fill="midnightblue" stroke="midnightblue" points="237.367,-151.978 233.166,-161.705 242.516,-156.721 237.367,-151.978"/>
</g>
<!-- Node49 -->
<g id="node7" class="node"><title>Node49</title>
<g id="a_node7"><a xlink:href="_etap_omega_g_8cc.html" target="_top" xlink:title="src/analysis/physics\l/etaprime/EtapOmegaG.cc">
<polygon fill="white" stroke="black" points="515.5,-84 515.5,-114 648.5,-114 648.5,-84 515.5,-84"/>
<text text-anchor="start" x="523.5" y="-102" font-family="Helvetica,sans-Serif" font-size="10.00">src/analysis/physics</text>
<text text-anchor="middle" x="582" y="-91" font-family="Helvetica,sans-Serif" font-size="10.00">/etaprime/EtapOmegaG.cc</text>
</a>
</g>
</g>
<!-- Node48&#45;&gt;Node49 -->
<g id="edge6" class="edge"><title>Node48&#45;&gt;Node49</title>
<path fill="none" stroke="midnightblue" d="M532.106,-154.171C543.931,-141.332 558.545,-125.466 568.893,-114.231"/>
<polygon fill="midnightblue" stroke="midnightblue" points="529.367,-151.978 525.166,-161.705 534.516,-156.721 529.367,-151.978"/>
</g>
<!-- Node50 -->
<g id="node8" class="node"><title>Node50</title>
<g id="a_node8"><a xlink:href="_etap_omega_g__plot_8cc.html" target="_top" xlink:title="src/analysis/physics\l/etaprime/EtapOmegaG\l_plot.cc">
<polygon fill="white" stroke="black" points="378.5,-78.5 378.5,-119.5 497.5,-119.5 497.5,-78.5 378.5,-78.5"/>
<text text-anchor="start" x="386.5" y="-107.5" font-family="Helvetica,sans-Serif" font-size="10.00">src/analysis/physics</text>
<text text-anchor="start" x="386.5" y="-96.5" font-family="Helvetica,sans-Serif" font-size="10.00">/etaprime/EtapOmegaG</text>
<text text-anchor="middle" x="438" y="-85.5" font-family="Helvetica,sans-Serif" font-size="10.00">_plot.cc</text>
</a>
</g>
</g>
<!-- Node48&#45;&gt;Node50 -->
<g id="edge7" class="edge"><title>Node48&#45;&gt;Node50</title>
<path fill="none" stroke="midnightblue" d="M490.803,-154.23C480.202,-143.342 467.468,-130.265 457.162,-119.68"/>
<polygon fill="midnightblue" stroke="midnightblue" points="488.597,-156.982 498.081,-161.705 493.613,-152.099 488.597,-156.982"/>
</g>
<!-- Node53 -->
<g id="node11" class="node"><title>Node53</title>
<g id="a_node11"><a xlink:href="_omega___ep_em_8cc.html" target="_top" xlink:title="src/analysis/physics\l/omega/Omega_EpEm.cc">
<polygon fill="white" stroke="black" points="666.5,-84 666.5,-114 795.5,-114 795.5,-84 666.5,-84"/>
<text text-anchor="start" x="674.5" y="-102" font-family="Helvetica,sans-Serif" font-size="10.00">src/analysis/physics</text>
<text text-anchor="middle" x="731" y="-91" font-family="Helvetica,sans-Serif" font-size="10.00">/omega/Omega_EpEm.cc</text>
</a>
</g>
</g>
<!-- Node52&#45;&gt;Node53 -->
<g id="edge10" class="edge"><title>Node52&#45;&gt;Node53</title>
<path fill="none" stroke="midnightblue" d="M775.603,-153.807C765.014,-141.033 752.022,-125.36 742.797,-114.231"/>
<polygon fill="midnightblue" stroke="midnightblue" points="773.074,-156.24 782.15,-161.705 778.463,-151.772 773.074,-156.24"/>
</g>
<!-- Node55 -->
<g id="node13" class="node"><title>Node55</title>
<g id="a_node13"><a xlink:href="pi0eta__lost__g_8cc.html" target="_top" xlink:title="src/analysis/physics\l/omega/pi0eta_lost_g.cc">
<polygon fill="white" stroke="black" points="813.5,-84 813.5,-114 936.5,-114 936.5,-84 813.5,-84"/>
<text text-anchor="start" x="821.5" y="-102" font-family="Helvetica,sans-Serif" font-size="10.00">src/analysis/physics</text>
<text text-anchor="middle" x="875" y="-91" font-family="Helvetica,sans-Serif" font-size="10.00">/omega/pi0eta_lost_g.cc</text>
</a>
</g>
</g>
<!-- Node54&#45;&gt;Node55 -->
<g id="edge12" class="edge"><title>Node54&#45;&gt;Node55</title>
<path fill="none" stroke="midnightblue" d="M915.784,-153.441C906.087,-140.735 894.272,-125.254 885.86,-114.231"/>
<polygon fill="midnightblue" stroke="midnightblue" points="913.242,-155.879 922.091,-161.705 918.806,-151.632 913.242,-155.879"/>
</g>
<!-- Node57 -->
<g id="node15" class="node"><title>Node57</title>
<g id="a_node15"><a xlink:href="sigma_plus_8cc.html" target="_top" xlink:title="src/analysis/physics\l/production/sigmaPlus.cc">
<polygon fill="white" stroke="black" points="947.5,-6 947.5,-36 1074.5,-36 1074.5,-6 947.5,-6"/>
<text text-anchor="start" x="955.5" y="-24" font-family="Helvetica,sans-Serif" font-size="10.00">src/analysis/physics</text>
<text text-anchor="middle" x="1011" y="-13" font-family="Helvetica,sans-Serif" font-size="10.00">/production/sigmaPlus.cc</text>
</a>
</g>
</g>
<!-- Node56&#45;&gt;Node57 -->
<g id="edge14" class="edge"><title>Node56&#45;&gt;Node57</title>
<path fill="none" stroke="midnightblue" d="M1014.39,-73.5898C1013.58,-61.2565 1012.63,-46.7237 1011.94,-36.2309"/>
<polygon fill="midnightblue" stroke="midnightblue" points="1010.91,-73.9564 1015.06,-83.705 1017.9,-73.4968 1010.91,-73.9564"/>
</g>
<!-- Node58 -->
<g id="node16" class="node"><title>Node58</title>
<g id="a_node16"><a xlink:href="sigma_plus_plots_8cc.html" target="_top" xlink:title="src/analysis/physics\l/production/sigmaPlusPlots.cc">
<polygon fill="white" stroke="black" points="780.5,-6 780.5,-36 929.5,-36 929.5,-6 780.5,-6"/>
<text text-anchor="start" x="788.5" y="-24" font-family="Helvetica,sans-Serif" font-size="10.00">src/analysis/physics</text>
<text text-anchor="middle" x="855" y="-13" font-family="Helvetica,sans-Serif" font-size="10.00">/production/sigmaPlusPlots.cc</text>
</a>
</g>
</g>
<!-- Node56&#45;&gt;Node58 -->
<g id="edge15" class="edge"><title>Node56&#45;&gt;Node58</title>
<path fill="none" stroke="midnightblue" d="M976.861,-79.5244C948.478,-66.1265 910.678,-48.2827 884.745,-36.0413"/>
<polygon fill="midnightblue" stroke="midnightblue" points="975.557,-82.7793 986.094,-83.8831 978.545,-76.4492 975.557,-82.7793"/>
</g>
<!-- Node60 -->
<g id="node18" class="node"><title>Node60</title>
<g id="a_node18"><a xlink:href="single_pi0_8cc.html" target="_top" xlink:title="src/analysis/physics\l/production/singlePi0.cc">
<polygon fill="white" stroke="black" points="1092.5,-6 1092.5,-36 1213.5,-36 1213.5,-6 1092.5,-6"/>
<text text-anchor="start" x="1100.5" y="-24" font-family="Helvetica,sans-Serif" font-size="10.00">src/analysis/physics</text>
<text text-anchor="middle" x="1153" y="-13" font-family="Helvetica,sans-Serif" font-size="10.00">/production/singlePi0.cc</text>
</a>
</g>
</g>
<!-- Node59&#45;&gt;Node60 -->
<g id="edge17" class="edge"><title>Node59&#45;&gt;Node60</title>
<path fill="none" stroke="midnightblue" d="M1153,-73.5898C1153,-61.2565 1153,-46.7237 1153,-36.2309"/>
<polygon fill="midnightblue" stroke="midnightblue" points="1149.5,-73.7049 1153,-83.705 1156.5,-73.705 1149.5,-73.7049"/>
</g>
<!-- Node61 -->
<g id="node19" class="node"><title>Node61</title>
<g id="a_node19"><a xlink:href="single_pi0_plots_8cc.html" target="_top" xlink:title="src/analysis/physics\l/production/singlePi0Plots.cc">
<polygon fill="white" stroke="black" points="1231.5,-6 1231.5,-36 1374.5,-36 1374.5,-6 1231.5,-6"/>
<text text-anchor="start" x="1239.5" y="-24" font-family="Helvetica,sans-Serif" font-size="10.00">src/analysis/physics</text>
<text text-anchor="middle" x="1303" y="-13" font-family="Helvetica,sans-Serif" font-size="10.00">/production/singlePi0Plots.cc</text>
</a>
</g>
</g>
<!-- Node59&#45;&gt;Node61 -->
<g id="edge18" class="edge"><title>Node59&#45;&gt;Node61</title>
<path fill="none" stroke="midnightblue" d="M1189.81,-79.3494C1216.21,-65.9714 1251.23,-48.2295 1275.29,-36.0413"/>
<polygon fill="midnightblue" stroke="midnightblue" points="1188.2,-76.2413 1180.86,-83.8831 1191.36,-82.4855 1188.2,-76.2413"/>
</g>
<!-- Node63 -->
<g id="node21" class="node"><title>Node63</title>
<g id="a_node21"><a xlink:href="triple_pi0_8cc.html" target="_top" xlink:title="src/analysis/physics\l/production/triplePi0.cc">
<polygon fill="white" stroke="black" points="1711,-6 1711,-36 1827,-36 1827,-6 1711,-6"/>
<text text-anchor="start" x="1719" y="-24" font-family="Helvetica,sans-Serif" font-size="10.00">src/analysis/physics</text>
<text text-anchor="middle" x="1769" y="-13" font-family="Helvetica,sans-Serif" font-size="10.00">/production/triplePi0.cc</text>
</a>
</g>
</g>
<!-- Node62&#45;&gt;Node63 -->
<g id="edge20" class="edge"><title>Node62&#45;&gt;Node63</title>
<path fill="none" stroke="midnightblue" d="M1552.47,-81.4112C1594.91,-70.5255 1651.33,-55.8002 1701,-42 1707.76,-40.1224 1714.88,-38.0893 1721.86,-36.0632"/>
<polygon fill="midnightblue" stroke="midnightblue" points="1551.37,-78.0815 1542.55,-83.9528 1553.1,-84.8627 1551.37,-78.0815"/>
</g>
<!-- Node64 -->
<g id="node22" class="node"><title>Node64</title>
<g id="a_node22"><a xlink:href="triple_pi0_plots_8cc.html" target="_top" xlink:title="src/analysis/physics\l/production/triplePi0Plots.cc">
<polygon fill="white" stroke="black" points="1553.5,-6 1553.5,-36 1692.5,-36 1692.5,-6 1553.5,-6"/>
<text text-anchor="start" x="1561.5" y="-24" font-family="Helvetica,sans-Serif" font-size="10.00">src/analysis/physics</text>
<text text-anchor="middle" x="1623" y="-13" font-family="Helvetica,sans-Serif" font-size="10.00">/production/triplePi0Plots.cc</text>
</a>
</g>
</g>
<!-- Node62&#45;&gt;Node64 -->
<g id="edge21" class="edge"><title>Node62&#45;&gt;Node64</title>
<path fill="none" stroke="midnightblue" d="M1521,-78.9979C1544.87,-65.6619 1576.25,-48.123 1597.87,-36.0413"/>
<polygon fill="midnightblue" stroke="midnightblue" points="1519.28,-75.9495 1512.26,-83.8831 1522.7,-82.0601 1519.28,-75.9495"/>
</g>
<!-- Node65 -->
<g id="node23" class="node"><title>Node65</title>
<g id="a_node23"><a xlink:href="_proton_vertex_test_8cc.html" target="_top" xlink:title="src/analysis/physics\l/scratch/wolfes/ProtonVertex\lTest.cc">
<polygon fill="white" stroke="black" points="1392.5,-0.5 1392.5,-41.5 1535.5,-41.5 1535.5,-0.5 1392.5,-0.5"/>
<text text-anchor="start" x="1400.5" y="-29.5" font-family="Helvetica,sans-Serif" font-size="10.00">src/analysis/physics</text>
<text text-anchor="start" x="1400.5" y="-18.5" font-family="Helvetica,sans-Serif" font-size="10.00">/scratch/wolfes/ProtonVertex</text>
<text text-anchor="middle" x="1464" y="-7.5" font-family="Helvetica,sans-Serif" font-size="10.00">Test.cc</text>
</a>
</g>
</g>
<!-- Node62&#45;&gt;Node65 -->
<g id="edge22" class="edge"><title>Node62&#45;&gt;Node65</title>
<path fill="none" stroke="midnightblue" d="M1479.73,-73.9817C1476.58,-63.5762 1472.94,-51.5453 1469.96,-41.68"/>
<polygon fill="midnightblue" stroke="midnightblue" points="1476.43,-75.1475 1482.67,-83.705 1483.13,-73.1198 1476.43,-75.1475"/>
</g>
<!-- Node66&#45;&gt;Node56 -->
<g id="edge24" class="edge"><title>Node66&#45;&gt;Node56</title>
<path fill="none" stroke="midnightblue" d="M1156.26,-152.771C1122.7,-140.146 1082.3,-124.945 1053.49,-114.106"/>
<polygon fill="midnightblue" stroke="midnightblue" points="1155.39,-156.182 1165.98,-156.428 1157.85,-149.631 1155.39,-156.182"/>
</g>
<!-- Node66&#45;&gt;Node59 -->
<g id="edge25" class="edge"><title>Node66&#45;&gt;Node59</title>
<path fill="none" stroke="midnightblue" d="M1194.61,-148.654C1184.65,-137.002 1173.44,-123.897 1165.17,-114.225"/>
<polygon fill="midnightblue" stroke="midnightblue" points="1192.1,-151.103 1201.26,-156.428 1197.42,-146.554 1192.1,-151.103"/>
</g>
<!-- Node66&#45;&gt;Node61 -->
<g id="edge26" class="edge"><title>Node66&#45;&gt;Node61</title>
<path fill="none" stroke="midnightblue" d="M1281.11,-155.5C1308.95,-145.063 1337.14,-132.06 1345,-120 1362.99,-92.399 1335.66,-55.8016 1317.33,-36.0624"/>
<polygon fill="midnightblue" stroke="midnightblue" points="1279.91,-152.214 1271.72,-158.936 1282.31,-158.788 1279.91,-152.214"/>
</g>
<!-- Node66&#45;&gt;Node62 -->
<g id="edge27" class="edge"><title>Node66&#45;&gt;Node62</title>
<path fill="none" stroke="midnightblue" d="M1281.63,-157.248C1283.1,-156.827 1284.56,-156.41 1286,-156 1344.08,-139.481 1358.86,-136.294 1417,-120 1423.82,-118.09 1431,-116.059 1438.06,-114.05"/>
<polygon fill="midnightblue" stroke="midnightblue" points="1280.44,-153.949 1271.8,-160.081 1282.37,-160.675 1280.44,-153.949"/>
</g>
<!-- Node66&#45;&gt;Node65 -->
<g id="edge28" class="edge"><title>Node66&#45;&gt;Node65</title>
<path fill="none" stroke="midnightblue" d="M1281.32,-157.154C1307.13,-147.989 1336.57,-135.553 1361,-120 1395.56,-97.9969 1428.61,-63.3229 1447.58,-41.6622"/>
<polygon fill="midnightblue" stroke="midnightblue" points="1279.93,-153.93 1271.63,-160.506 1282.22,-160.545 1279.93,-153.93"/>
</g>
<!-- Node67 -->
<g id="node25" class="node"><title>Node67</title>
<g id="a_node25"><a xlink:href="tools_8cc.html" target="_top" xlink:title="src/analysis/physics\l/scratch/wolfes/tools\l/tools.cc">
<polygon fill="white" stroke="black" points="1229.5,-78.5 1229.5,-119.5 1336.5,-119.5 1336.5,-78.5 1229.5,-78.5"/>
<text text-anchor="start" x="1237.5" y="-107.5" font-family="Helvetica,sans-Serif" font-size="10.00">src/analysis/physics</text>
<text text-anchor="start" x="1237.5" y="-96.5" font-family="Helvetica,sans-Serif" font-size="10.00">/scratch/wolfes/tools</text>
<text text-anchor="middle" x="1283" y="-85.5" font-family="Helvetica,sans-Serif" font-size="10.00">/tools.cc</text>
</a>
</g>
</g>
<!-- Node66&#45;&gt;Node67 -->
<g id="edge29" class="edge"><title>Node66&#45;&gt;Node67</title>
<path fill="none" stroke="midnightblue" d="M1241.41,-148.627C1249.65,-138.99 1258.74,-128.362 1266.32,-119.506"/>
<polygon fill="midnightblue" stroke="midnightblue" points="1238.58,-146.554 1234.74,-156.428 1243.9,-151.103 1238.58,-146.554"/>
</g>
</g>
</svg>
