<?xml version="1.0" encoding="UTF-8" standalone="no"?>
<!DOCTYPE svg PUBLIC "-//W3C//DTD SVG 1.1//EN"
 "http://www.w3.org/Graphics/SVG/1.1/DTD/svg11.dtd">
<!-- Generated by graphviz version 2.36.0 (20140111.2315)
 -->
<!-- Title: src/calibration/modules/Tagger_QDC.h Pages: 1 -->
<svg width="753pt" height="108pt"
 viewBox="0.00 0.00 753.00 108.00" xmlns="http://www.w3.org/2000/svg" xmlns:xlink="http://www.w3.org/1999/xlink">
<g id="graph0" class="graph" transform="scale(1 1) rotate(0) translate(4 104)">
<title>src/calibration/modules/Tagger_QDC.h</title>
<polygon fill="white" stroke="none" points="-4,4 -4,-104 749,-104 749,4 -4,4"/>
<!-- Node49 -->
<g id="node1" class="node"><title>Node49</title>
<polygon fill="#bfbfbf" stroke="black" points="320.5,-69 320.5,-99 437.5,-99 437.5,-69 320.5,-69"/>
<text text-anchor="start" x="328.5" y="-87" font-family="Helvetica,sans-Serif" font-size="10.00">src/calibration/modules</text>
<text text-anchor="middle" x="379" y="-76" font-family="Helvetica,sans-Serif" font-size="10.00">/Tagger_QDC.h</text>
</g>
<!-- Node50 -->
<g id="node2" class="node"><title>Node50</title>
<g id="a_node2"><a xlink:href="_tagger___q_d_c_8cc.html" target="_top" xlink:title="src/calibration/modules\l/Tagger_QDC.cc">
<polygon fill="white" stroke="black" points="-0.5,-1 -0.5,-31 116.5,-31 116.5,-1 -0.5,-1"/>
<text text-anchor="start" x="7.5" y="-19" font-family="Helvetica,sans-Serif" font-size="10.00">src/calibration/modules</text>
<text text-anchor="middle" x="58" y="-8" font-family="Helvetica,sans-Serif" font-size="10.00">/Tagger_QDC.cc</text>
</a>
</g>
</g>
<!-- Node49&#45;&gt;Node50 -->
<g id="edge1" class="edge"><title>Node49&#45;&gt;Node50</title>
<path fill="none" stroke="midnightblue" d="M310.493,-69.5405C259.554,-59.4476 188.371,-45.1644 126,-32 122.925,-31.3509 119.772,-30.6789 116.591,-29.9953"/>
<polygon fill="midnightblue" stroke="midnightblue" points="309.912,-72.9935 320.402,-71.5016 311.272,-66.1267 309.912,-72.9935"/>
</g>
<!-- Node51 -->
<g id="node3" class="node"><title>Node51</title>
<g id="a_node3"><a xlink:href="_setup__2014___e_p_t_8cc.html" target="_top" xlink:title="src/expconfig/setups\l/Setup_2014_EPT.cc">
<polygon fill="white" stroke="black" points="135,-1 135,-31 245,-31 245,-1 135,-1"/>
<text text-anchor="start" x="143" y="-19" font-family="Helvetica,sans-Serif" font-size="10.00">src/expconfig/setups</text>
<text text-anchor="middle" x="190" y="-8" font-family="Helvetica,sans-Serif" font-size="10.00">/Setup_2014_EPT.cc</text>
</a>
</g>
</g>
<!-- Node49&#45;&gt;Node51 -->
<g id="edge2" class="edge"><title>Node49&#45;&gt;Node51</title>
<path fill="none" stroke="midnightblue" d="M328.749,-65.4519C297.903,-54.6805 258.934,-41.0722 230.153,-31.0218"/>
<polygon fill="midnightblue" stroke="midnightblue" points="327.86,-68.8488 338.455,-68.8413 330.168,-62.2401 327.86,-68.8488"/>
</g>
<!-- Node52 -->
<g id="node4" class="node"><title>Node52</title>
<g id="a_node4"><a xlink:href="_setup__2017__03_8cc.html" target="_top" xlink:title="src/expconfig/setups\l/Setup_2017_03.cc">
<polygon fill="white" stroke="black" points="263.5,-1 263.5,-31 370.5,-31 370.5,-1 263.5,-1"/>
<text text-anchor="start" x="271.5" y="-19" font-family="Helvetica,sans-Serif" font-size="10.00">src/expconfig/setups</text>
<text text-anchor="middle" x="317" y="-8" font-family="Helvetica,sans-Serif" font-size="10.00">/Setup_2017_03.cc</text>
</a>
</g>
</g>
<!-- Node49&#45;&gt;Node52 -->
<g id="edge3" class="edge"><title>Node49&#45;&gt;Node52</title>
<path fill="none" stroke="midnightblue" d="M358.515,-61.1939C349.278,-51.3605 338.627,-40.0228 330.427,-31.2931"/>
<polygon fill="midnightblue" stroke="midnightblue" points="356.149,-63.7869 365.547,-68.679 361.251,-58.9941 356.149,-63.7869"/>
</g>
<!-- Node53 -->
<g id="node5" class="node"><title>Node53</title>
<g id="a_node5"><a xlink:href="_setup__2017__05_8cc.html" target="_top" xlink:title="src/expconfig/setups\l/Setup_2017_05.cc">
<polygon fill="white" stroke="black" points="388.5,-1 388.5,-31 495.5,-31 495.5,-1 388.5,-1"/>
<text text-anchor="start" x="396.5" y="-19" font-family="Helvetica,sans-Serif" font-size="10.00">src/expconfig/setups</text>
<text text-anchor="middle" x="442" y="-8" font-family="Helvetica,sans-Serif" font-size="10.00">/Setup_2017_05.cc</text>
</a>
</g>
</g>
<!-- Node49&#45;&gt;Node53 -->
<g id="edge4" class="edge"><title>Node49&#45;&gt;Node53</title>
<path fill="none" stroke="midnightblue" d="M399.815,-61.1939C409.201,-51.3605 420.024,-40.0228 428.357,-31.2931"/>
<polygon fill="midnightblue" stroke="midnightblue" points="397.043,-59.0287 392.67,-68.679 402.107,-63.8621 397.043,-59.0287"/>
</g>
<!-- Node54 -->
<g id="node6" class="node"><title>Node54</title>
<g id="a_node6"><a xlink:href="_setup__2017__12_8cc.html" target="_top" xlink:title="src/expconfig/setups\l/Setup_2017_12.cc">
<polygon fill="white" stroke="black" points="513.5,-1 513.5,-31 620.5,-31 620.5,-1 513.5,-1"/>
<text text-anchor="start" x="521.5" y="-19" font-family="Helvetica,sans-Serif" font-size="10.00">src/expconfig/setups</text>
<text text-anchor="middle" x="567" y="-8" font-family="Helvetica,sans-Serif" font-size="10.00">/Setup_2017_12.cc</text>
</a>
</g>
</g>
<!-- Node49&#45;&gt;Node54 -->
<g id="edge5" class="edge"><title>Node49&#45;&gt;Node54</title>
<path fill="none" stroke="midnightblue" d="M428.985,-65.4519C459.668,-54.6805 498.431,-41.0722 527.059,-31.0218"/>
<polygon fill="midnightblue" stroke="midnightblue" points="427.607,-62.2264 419.331,-68.8413 429.926,-68.8312 427.607,-62.2264"/>
</g>
<!-- Node55 -->
<g id="node7" class="node"><title>Node55</title>
<g id="a_node7"><a xlink:href="_setup__2018__03_8cc.html" target="_top" xlink:title="src/expconfig/setups\l/Setup_2018_03.cc">
<polygon fill="white" stroke="black" points="638.5,-1 638.5,-31 745.5,-31 745.5,-1 638.5,-1"/>
<text text-anchor="start" x="646.5" y="-19" font-family="Helvetica,sans-Serif" font-size="10.00">src/expconfig/setups</text>
<text text-anchor="middle" x="692" y="-8" font-family="Helvetica,sans-Serif" font-size="10.00">/Setup_2018_03.cc</text>
</a>
</g>
</g>
<!-- Node49&#45;&gt;Node55 -->
<g id="edge6" class="edge"><title>Node49&#45;&gt;Node55</title>
<path fill="none" stroke="midnightblue" d="M447.816,-69.5871C498.103,-59.6334 567.897,-45.5029 629,-32 632.074,-31.3207 635.229,-30.6106 638.411,-29.8844"/>
<polygon fill="midnightblue" stroke="midnightblue" points="446.841,-66.2118 437.709,-71.5832 448.198,-73.0791 446.841,-66.2118"/>
</g>
</g>
</svg>
