<?xml version="1.0" encoding="UTF-8" standalone="no"?>
<!DOCTYPE svg PUBLIC "-//W3C//DTD SVG 1.1//EN"
 "http://www.w3.org/Graphics/SVG/1.1/DTD/svg11.dtd">
<!-- Generated by graphviz version 2.36.0 (20140111.2315)
 -->
<!-- Title: src/analysis/utils/fitter/TreeFitter.h Pages: 1 -->
<svg width="3252pt" height="264pt"
 viewBox="0.00 0.00 3252.00 264.00" xmlns="http://www.w3.org/2000/svg" xmlns:xlink="http://www.w3.org/1999/xlink">
<g id="graph0" class="graph" transform="scale(1 1) rotate(0) translate(4 260)">
<title>src/analysis/utils/fitter/TreeFitter.h</title>
<polygon fill="white" stroke="none" points="-4,4 -4,-260 3248,-260 3248,4 -4,4"/>
<!-- Node46 -->
<g id="node1" class="node"><title>Node46</title>
<polygon fill="#bfbfbf" stroke="black" points="1685,-225 1685,-255 1777,-255 1777,-225 1685,-225"/>
<text text-anchor="start" x="1693" y="-243" font-family="Helvetica,sans-Serif" font-size="10.00">src/analysis/utils</text>
<text text-anchor="middle" x="1731" y="-232" font-family="Helvetica,sans-Serif" font-size="10.00">/fitter/TreeFitter.h</text>
</g>
<!-- Node47 -->
<g id="node2" class="node"><title>Node47</title>
<g id="a_node2"><a xlink:href="_p_i_d___t_a_p_s_veto___kinfit_8h.html" target="_top" xlink:title="src/analysis/physics\l/calibration/PID_TAPSVeto\l_Kinfit.h">
<polygon fill="white" stroke="black" points="88,-146.5 88,-187.5 224,-187.5 224,-146.5 88,-146.5"/>
<text text-anchor="start" x="96" y="-175.5" font-family="Helvetica,sans-Serif" font-size="10.00">src/analysis/physics</text>
<text text-anchor="start" x="96" y="-164.5" font-family="Helvetica,sans-Serif" font-size="10.00">/calibration/PID_TAPSVeto</text>
<text text-anchor="middle" x="156" y="-153.5" font-family="Helvetica,sans-Serif" font-size="10.00">_Kinfit.h</text>
</a>
</g>
</g>
<!-- Node46&#45;&gt;Node47 -->
<g id="edge1" class="edge"><title>Node46&#45;&gt;Node47</title>
<path fill="none" stroke="midnightblue" d="M1674.93,-238.671C1484.69,-237.194 846.435,-229.273 321,-188 289.069,-185.492 253.807,-181.399 224.107,-177.566"/>
<polygon fill="midnightblue" stroke="midnightblue" points="1674.94,-242.172 1684.97,-238.747 1675,-235.172 1674.94,-242.172"/>
</g>
<!-- Node49 -->
<g id="node4" class="node"><title>Node49</title>
<g id="a_node4"><a xlink:href="_meson_dalitz_decays_8h.html" target="_top" xlink:title="src/analysis/physics\l/common/MesonDalitzDecays.h">
<polygon fill="white" stroke="black" points="330.5,-152 330.5,-182 487.5,-182 487.5,-152 330.5,-152"/>
<text text-anchor="start" x="338.5" y="-170" font-family="Helvetica,sans-Serif" font-size="10.00">src/analysis/physics</text>
<text text-anchor="middle" x="409" y="-159" font-family="Helvetica,sans-Serif" font-size="10.00">/common/MesonDalitzDecays.h</text>
</a>
</g>
</g>
<!-- Node46&#45;&gt;Node49 -->
<g id="edge3" class="edge"><title>Node46&#45;&gt;Node49</title>
<path fill="none" stroke="midnightblue" d="M1674.85,-237.098C1514.3,-231.503 1039.57,-213.847 646,-188 593.157,-184.53 533.778,-179.517 487.675,-175.378"/>
<polygon fill="midnightblue" stroke="midnightblue" points="1674.85,-240.601 1684.96,-237.45 1675.09,-233.605 1674.85,-240.601"/>
</g>
<!-- Node52 -->
<g id="node7" class="node"><title>Node52</title>
<g id="a_node7"><a xlink:href="etaprime__dalitz_8h.html" target="_top" xlink:title="src/analysis/physics\l/etaprime/etaprime_dalitz.h">
<polygon fill="white" stroke="black" points="655,-152 655,-182 789,-182 789,-152 655,-152"/>
<text text-anchor="start" x="663" y="-170" font-family="Helvetica,sans-Serif" font-size="10.00">src/analysis/physics</text>
<text text-anchor="middle" x="722" y="-159" font-family="Helvetica,sans-Serif" font-size="10.00">/etaprime/etaprime_dalitz.h</text>
</a>
</g>
</g>
<!-- Node46&#45;&gt;Node52 -->
<g id="edge6" class="edge"><title>Node46&#45;&gt;Node52</title>
<path fill="none" stroke="midnightblue" d="M1674.5,-235.024C1500.94,-222.812 976.013,-185.874 789.033,-172.717"/>
<polygon fill="midnightblue" stroke="midnightblue" points="1674.47,-238.531 1684.69,-235.741 1674.96,-231.548 1674.47,-238.531"/>
</g>
<!-- Node56 -->
<g id="node11" class="node"><title>Node56</title>
<g id="a_node11"><a xlink:href="_etap_omega_g_8h.html" target="_top" xlink:title="src/analysis/physics\l/etaprime/EtapOmegaG.h">
<polygon fill="white" stroke="black" points="1027,-152 1027,-182 1155,-182 1155,-152 1027,-152"/>
<text text-anchor="start" x="1035" y="-170" font-family="Helvetica,sans-Serif" font-size="10.00">src/analysis/physics</text>
<text text-anchor="middle" x="1091" y="-159" font-family="Helvetica,sans-Serif" font-size="10.00">/etaprime/EtapOmegaG.h</text>
</a>
</g>
</g>
<!-- Node46&#45;&gt;Node56 -->
<g id="edge10" class="edge"><title>Node46&#45;&gt;Node56</title>
<path fill="none" stroke="midnightblue" d="M1674.9,-237.032C1573.05,-232.773 1351.2,-220.331 1167,-188 1158,-186.42 1148.5,-184.297 1139.39,-182.023"/>
<polygon fill="midnightblue" stroke="midnightblue" points="1674.83,-240.532 1684.97,-237.443 1675.12,-233.538 1674.83,-240.532"/>
</g>
<!-- Node59 -->
<g id="node14" class="node"><title>Node59</title>
<g id="a_node14"><a xlink:href="_etap_omega_g__simple_8cc.html" target="_top" xlink:title="src/analysis/physics\l/etaprime/EtapOmegaG\l_simple.cc">
<polygon fill="white" stroke="black" points="1176.5,-146.5 1176.5,-187.5 1295.5,-187.5 1295.5,-146.5 1176.5,-146.5"/>
<text text-anchor="start" x="1184.5" y="-175.5" font-family="Helvetica,sans-Serif" font-size="10.00">src/analysis/physics</text>
<text text-anchor="start" x="1184.5" y="-164.5" font-family="Helvetica,sans-Serif" font-size="10.00">/etaprime/EtapOmegaG</text>
<text text-anchor="middle" x="1236" y="-153.5" font-family="Helvetica,sans-Serif" font-size="10.00">_simple.cc</text>
</a>
</g>
</g>
<!-- Node46&#45;&gt;Node59 -->
<g id="edge13" class="edge"><title>Node46&#45;&gt;Node59</title>
<path fill="none" stroke="midnightblue" d="M1674.66,-235.285C1592.51,-229.19 1435.33,-214.958 1304,-188 1301.23,-187.431 1298.4,-186.803 1295.56,-186.13"/>
<polygon fill="midnightblue" stroke="midnightblue" points="1674.55,-238.787 1684.78,-236.023 1675.06,-231.805 1674.55,-238.787"/>
</g>
<!-- Node60 -->
<g id="node15" class="node"><title>Node60</title>
<g id="a_node15"><a xlink:href="etaprime-3pi0_8h.html" target="_top" xlink:title="src/analysis/physics\l/etaprime/etaprime&#45;3pi0.h">
<polygon fill="white" stroke="black" points="1313.5,-152 1313.5,-182 1440.5,-182 1440.5,-152 1313.5,-152"/>
<text text-anchor="start" x="1321.5" y="-170" font-family="Helvetica,sans-Serif" font-size="10.00">src/analysis/physics</text>
<text text-anchor="middle" x="1377" y="-159" font-family="Helvetica,sans-Serif" font-size="10.00">/etaprime/etaprime&#45;3pi0.h</text>
</a>
</g>
</g>
<!-- Node46&#45;&gt;Node60 -->
<g id="edge14" class="edge"><title>Node46&#45;&gt;Node60</title>
<path fill="none" stroke="midnightblue" d="M1674.91,-230.417C1617.78,-221.31 1526.78,-205.796 1449,-188 1441.29,-186.235 1433.16,-184.175 1425.26,-182.062"/>
<polygon fill="midnightblue" stroke="midnightblue" points="1674.4,-233.88 1684.82,-231.987 1675.49,-226.966 1674.4,-233.88"/>
</g>
<!-- Node62 -->
<g id="node17" class="node"><title>Node62</title>
<g id="a_node17"><a xlink:href="_find_proton_8h.html" target="_top" xlink:title="src/analysis/physics\l/omega/FindProton.h">
<polygon fill="white" stroke="black" points="1458.5,-152 1458.5,-182 1565.5,-182 1565.5,-152 1458.5,-152"/>
<text text-anchor="start" x="1466.5" y="-170" font-family="Helvetica,sans-Serif" font-size="10.00">src/analysis/physics</text>
<text text-anchor="middle" x="1512" y="-159" font-family="Helvetica,sans-Serif" font-size="10.00">/omega/FindProton.h</text>
</a>
</g>
</g>
<!-- Node46&#45;&gt;Node62 -->
<g id="edge16" class="edge"><title>Node46&#45;&gt;Node62</title>
<path fill="none" stroke="midnightblue" d="M1677.98,-221.812C1640.46,-209.648 1590.76,-193.534 1555.55,-182.12"/>
<polygon fill="midnightblue" stroke="midnightblue" points="1677.14,-225.218 1687.73,-224.973 1679.3,-218.559 1677.14,-225.218"/>
</g>
<!-- Node64 -->
<g id="node19" class="node"><title>Node64</title>
<g id="a_node19"><a xlink:href="_omega___eta_g_8h.html" target="_top" xlink:title="src/analysis/physics\l/omega/Omega_EtaG.h">
<polygon fill="white" stroke="black" points="1583.5,-152 1583.5,-182 1702.5,-182 1702.5,-152 1583.5,-152"/>
<text text-anchor="start" x="1591.5" y="-170" font-family="Helvetica,sans-Serif" font-size="10.00">src/analysis/physics</text>
<text text-anchor="middle" x="1643" y="-159" font-family="Helvetica,sans-Serif" font-size="10.00">/omega/Omega_EtaG.h</text>
</a>
</g>
</g>
<!-- Node46&#45;&gt;Node64 -->
<g id="edge18" class="edge"><title>Node46&#45;&gt;Node64</title>
<path fill="none" stroke="midnightblue" d="M1705.57,-218.485C1691.18,-206.87 1673.53,-192.632 1660.65,-182.241"/>
<polygon fill="midnightblue" stroke="midnightblue" points="1703.63,-221.417 1713.61,-224.973 1708.03,-215.969 1703.63,-221.417"/>
</g>
<!-- Node66 -->
<g id="node21" class="node"><title>Node66</title>
<g id="a_node21"><a xlink:href="pi0eta_8h.html" target="_top" xlink:title="src/analysis/physics\l/omega/pi0eta.h">
<polygon fill="white" stroke="black" points="1594,-74 1594,-104 1700,-104 1700,-74 1594,-74"/>
<text text-anchor="start" x="1602" y="-92" font-family="Helvetica,sans-Serif" font-size="10.00">src/analysis/physics</text>
<text text-anchor="middle" x="1647" y="-81" font-family="Helvetica,sans-Serif" font-size="10.00">/omega/pi0eta.h</text>
</a>
</g>
</g>
<!-- Node46&#45;&gt;Node66 -->
<g id="edge22" class="edge"><title>Node46&#45;&gt;Node66</title>
<path fill="none" stroke="midnightblue" d="M1729.96,-214.757C1728.18,-195.045 1723.44,-167.137 1711,-146 1700.89,-128.822 1683.65,-114.188 1669.6,-104.193"/>
<polygon fill="midnightblue" stroke="midnightblue" points="1726.47,-215.045 1730.68,-224.769 1733.46,-214.544 1726.47,-215.045"/>
</g>
<!-- Node68 -->
<g id="node23" class="node"><title>Node68</title>
<g id="a_node23"><a xlink:href="_just_pi0_8h.html" target="_top" xlink:title="src/analysis/physics\l/pi0/JustPi0.h">
<polygon fill="white" stroke="black" points="1759,-152 1759,-182 1865,-182 1865,-152 1759,-152"/>
<text text-anchor="start" x="1767" y="-170" font-family="Helvetica,sans-Serif" font-size="10.00">src/analysis/physics</text>
<text text-anchor="middle" x="1812" y="-159" font-family="Helvetica,sans-Serif" font-size="10.00">/pi0/JustPi0.h</text>
</a>
</g>
</g>
<!-- Node46&#45;&gt;Node68 -->
<g id="edge23" class="edge"><title>Node46&#45;&gt;Node68</title>
<path fill="none" stroke="midnightblue" d="M1754.78,-218.159C1767.96,-206.604 1784.01,-192.535 1795.75,-182.241"/>
<polygon fill="midnightblue" stroke="midnightblue" points="1752.22,-215.749 1747,-224.973 1756.83,-221.013 1752.22,-215.749"/>
</g>
<!-- Node71 -->
<g id="node26" class="node"><title>Node71</title>
<g id="a_node26"><a xlink:href="sigma_plus_8h.html" target="_top" xlink:title="src/analysis/physics\l/production/sigmaPlus.h">
<polygon fill="white" stroke="black" points="2003,-152 2003,-182 2125,-182 2125,-152 2003,-152"/>
<text text-anchor="start" x="2011" y="-170" font-family="Helvetica,sans-Serif" font-size="10.00">src/analysis/physics</text>
<text text-anchor="middle" x="2064" y="-159" font-family="Helvetica,sans-Serif" font-size="10.00">/production/sigmaPlus.h</text>
</a>
</g>
</g>
<!-- Node46&#45;&gt;Node71 -->
<g id="edge26" class="edge"><title>Node46&#45;&gt;Node71</title>
<path fill="none" stroke="midnightblue" d="M1787.32,-226.992C1847.1,-214.245 1941.27,-194.167 2002.84,-181.041"/>
<polygon fill="midnightblue" stroke="midnightblue" points="1786.35,-223.619 1777.3,-229.128 1787.81,-230.465 1786.35,-223.619"/>
</g>
<!-- Node74 -->
<g id="node29" class="node"><title>Node74</title>
<g id="a_node29"><a xlink:href="single_pi0_8h.html" target="_top" xlink:title="src/analysis/physics\l/production/singlePi0.h">
<polygon fill="white" stroke="black" points="2315,-152 2315,-182 2431,-182 2431,-152 2315,-152"/>
<text text-anchor="start" x="2323" y="-170" font-family="Helvetica,sans-Serif" font-size="10.00">src/analysis/physics</text>
<text text-anchor="middle" x="2373" y="-159" font-family="Helvetica,sans-Serif" font-size="10.00">/production/singlePi0.h</text>
</a>
</g>
</g>
<!-- Node46&#45;&gt;Node74 -->
<g id="edge29" class="edge"><title>Node46&#45;&gt;Node74</title>
<path fill="none" stroke="midnightblue" d="M1787.32,-232.771C1908.26,-219.396 2191.74,-188.045 2314.56,-174.463"/>
<polygon fill="midnightblue" stroke="midnightblue" points="1786.73,-229.316 1777.17,-233.894 1787.5,-236.273 1786.73,-229.316"/>
</g>
<!-- Node77 -->
<g id="node32" class="node"><title>Node77</title>
<g id="a_node32"><a xlink:href="triple_pi0_8h.html" target="_top" xlink:title="src/analysis/physics\l/production/triplePi0.h">
<polygon fill="white" stroke="black" points="2532.5,-152 2532.5,-182 2643.5,-182 2643.5,-152 2532.5,-152"/>
<text text-anchor="start" x="2540.5" y="-170" font-family="Helvetica,sans-Serif" font-size="10.00">src/analysis/physics</text>
<text text-anchor="middle" x="2588" y="-159" font-family="Helvetica,sans-Serif" font-size="10.00">/production/triplePi0.h</text>
</a>
</g>
</g>
<!-- Node46&#45;&gt;Node77 -->
<g id="edge32" class="edge"><title>Node46&#45;&gt;Node77</title>
<path fill="none" stroke="midnightblue" d="M1787.1,-236.135C1906.97,-229.754 2196.9,-212.944 2439,-188 2469.9,-184.817 2504.26,-180.271 2532.2,-176.318"/>
<polygon fill="midnightblue" stroke="midnightblue" points="1786.86,-232.643 1777.06,-236.666 1787.23,-239.633 1786.86,-232.643"/>
</g>
<!-- Node81 -->
<g id="node36" class="node"><title>Node81</title>
<g id="a_node36"><a xlink:href="_proton_vertex_test_8h.html" target="_top" xlink:title="src/analysis/physics\l/scratch/wolfes/ProtonVertex\lTest.h">
<polygon fill="white" stroke="black" points="2661.5,-146.5 2661.5,-187.5 2804.5,-187.5 2804.5,-146.5 2661.5,-146.5"/>
<text text-anchor="start" x="2669.5" y="-175.5" font-family="Helvetica,sans-Serif" font-size="10.00">src/analysis/physics</text>
<text text-anchor="start" x="2669.5" y="-164.5" font-family="Helvetica,sans-Serif" font-size="10.00">/scratch/wolfes/ProtonVertex</text>
<text text-anchor="middle" x="2733" y="-153.5" font-family="Helvetica,sans-Serif" font-size="10.00">Test.h</text>
</a>
</g>
</g>
<!-- Node46&#45;&gt;Node81 -->
<g id="edge36" class="edge"><title>Node46&#45;&gt;Node81</title>
<path fill="none" stroke="midnightblue" d="M1787.71,-239.526C1932.54,-240.078 2327.54,-236.605 2652,-188 2655.01,-187.549 2658.07,-187.038 2661.15,-186.479"/>
<polygon fill="midnightblue" stroke="midnightblue" points="1787.33,-236.024 1777.31,-239.478 1787.29,-243.024 1787.33,-236.024"/>
</g>
<!-- Node82 -->
<g id="node37" class="node"><title>Node82</title>
<g id="a_node37"><a xlink:href="_test_sigma_plus_fitter_8h.html" target="_top" xlink:title="src/analysis/physics\l/test/TestSigmaPlusFitter.h">
<polygon fill="white" stroke="black" points="2822.5,-152 2822.5,-182 2959.5,-182 2959.5,-152 2822.5,-152"/>
<text text-anchor="start" x="2830.5" y="-170" font-family="Helvetica,sans-Serif" font-size="10.00">src/analysis/physics</text>
<text text-anchor="middle" x="2891" y="-159" font-family="Helvetica,sans-Serif" font-size="10.00">/test/TestSigmaPlusFitter.h</text>
</a>
</g>
</g>
<!-- Node46&#45;&gt;Node82 -->
<g id="edge38" class="edge"><title>Node46&#45;&gt;Node82</title>
<path fill="none" stroke="midnightblue" d="M1787.21,-237.864C1979.8,-233.736 2612.13,-218.164 2813,-188 2822.68,-186.547 2832.89,-184.393 2842.63,-182.03"/>
<polygon fill="midnightblue" stroke="midnightblue" points="1786.96,-234.369 1777.04,-238.08 1787.11,-241.367 1786.96,-234.369"/>
</g>
<!-- Node84 -->
<g id="node39" class="node"><title>Node84</title>
<g id="a_node39"><a xlink:href="_tree_fitter_8cc.html" target="_top" xlink:title="src/analysis/utils\l/fitter/TreeFitter.cc">
<polygon fill="white" stroke="black" points="2978,-152 2978,-182 3076,-182 3076,-152 2978,-152"/>
<text text-anchor="start" x="2986" y="-170" font-family="Helvetica,sans-Serif" font-size="10.00">src/analysis/utils</text>
<text text-anchor="middle" x="3027" y="-159" font-family="Helvetica,sans-Serif" font-size="10.00">/fitter/TreeFitter.cc</text>
</a>
</g>
</g>
<!-- Node46&#45;&gt;Node84 -->
<g id="edge40" class="edge"><title>Node46&#45;&gt;Node84</title>
<path fill="none" stroke="midnightblue" d="M1787.46,-238.806C1997.99,-237.752 2736.95,-231.003 2968,-188 2975.55,-186.595 2983.45,-184.431 2990.93,-182.037"/>
<polygon fill="midnightblue" stroke="midnightblue" points="1787.24,-235.307 1777.26,-238.855 1787.27,-242.307 1787.24,-235.307"/>
</g>
<!-- Node85 -->
<g id="node40" class="node"><title>Node85</title>
<g id="a_node40"><a xlink:href="_test_tree_fitter_8cc.html" target="_top" xlink:title="test/analysis/TestTreeFitter.cc">
<polygon fill="white" stroke="black" points="3094,-157.5 3094,-176.5 3244,-176.5 3244,-157.5 3094,-157.5"/>
<text text-anchor="middle" x="3169" y="-164.5" font-family="Helvetica,sans-Serif" font-size="10.00">test/analysis/TestTreeFitter.cc</text>
</a>
</g>
</g>
<!-- Node46&#45;&gt;Node85 -->
<g id="edge41" class="edge"><title>Node46&#45;&gt;Node85</title>
<path fill="none" stroke="midnightblue" d="M1787.39,-238.328C2009.91,-235.452 2827.32,-222.702 3084,-188 3102.48,-185.502 3122.82,-180.787 3138.97,-176.563"/>
<polygon fill="midnightblue" stroke="midnightblue" points="1787.21,-234.83 1777.25,-238.458 1787.3,-241.83 1787.21,-234.83"/>
</g>
<!-- Node48 -->
<g id="node3" class="node"><title>Node48</title>
<g id="a_node3"><a xlink:href="_p_i_d___t_a_p_s_veto___kinfit_8cc.html" target="_top" xlink:title="src/analysis/physics\l/calibration/PID_TAPSVeto\l_Kinfit.cc">
<polygon fill="white" stroke="black" points="0,-68.5 0,-109.5 136,-109.5 136,-68.5 0,-68.5"/>
<text text-anchor="start" x="8" y="-97.5" font-family="Helvetica,sans-Serif" font-size="10.00">src/analysis/physics</text>
<text text-anchor="start" x="8" y="-86.5" font-family="Helvetica,sans-Serif" font-size="10.00">/calibration/PID_TAPSVeto</text>
<text text-anchor="middle" x="68" y="-75.5" font-family="Helvetica,sans-Serif" font-size="10.00">_Kinfit.cc</text>
</a>
</g>
</g>
<!-- Node47&#45;&gt;Node48 -->
<g id="edge2" class="edge"><title>Node47&#45;&gt;Node48</title>
<path fill="none" stroke="midnightblue" d="M125.638,-139.779C114.134,-129.843 101.25,-118.716 90.5854,-109.506"/>
<polygon fill="midnightblue" stroke="midnightblue" points="123.482,-142.541 133.338,-146.428 128.057,-137.243 123.482,-142.541"/>
</g>
<!-- Node50 -->
<g id="node5" class="node"><title>Node50</title>
<g id="a_node5"><a xlink:href="_meson_dalitz_decays_8cc.html" target="_top" xlink:title="Physics class to investigate Dalitz decays for different mesons. ">
<polygon fill="white" stroke="black" points="154,-74 154,-104 316,-104 316,-74 154,-74"/>
<text text-anchor="start" x="162" y="-92" font-family="Helvetica,sans-Serif" font-size="10.00">src/analysis/physics</text>
<text text-anchor="middle" x="235" y="-81" font-family="Helvetica,sans-Serif" font-size="10.00">/common/MesonDalitzDecays.cc</text>
</a>
</g>
</g>
<!-- Node49&#45;&gt;Node50 -->
<g id="edge4" class="edge"><title>Node49&#45;&gt;Node50</title>
<path fill="none" stroke="midnightblue" d="M367.498,-147.873C336.738,-134.437 295.417,-116.389 267.147,-104.041"/>
<polygon fill="midnightblue" stroke="midnightblue" points="366.115,-151.088 376.68,-151.883 368.917,-144.673 366.115,-151.088"/>
</g>
<!-- Node51 -->
<g id="node6" class="node"><title>Node51</title>
<g id="a_node6"><a xlink:href="_meson_dalitz_decays__plot_8cc.html" target="_top" xlink:title="src/analysis/physics\l/common/MesonDalitzDecays\l_plot.cc">
<polygon fill="white" stroke="black" points="334.5,-68.5 334.5,-109.5 483.5,-109.5 483.5,-68.5 334.5,-68.5"/>
<text text-anchor="start" x="342.5" y="-97.5" font-family="Helvetica,sans-Serif" font-size="10.00">src/analysis/physics</text>
<text text-anchor="start" x="342.5" y="-86.5" font-family="Helvetica,sans-Serif" font-size="10.00">/common/MesonDalitzDecays</text>
<text text-anchor="middle" x="409" y="-75.5" font-family="Helvetica,sans-Serif" font-size="10.00">_plot.cc</text>
</a>
</g>
</g>
<!-- Node49&#45;&gt;Node51 -->
<g id="edge5" class="edge"><title>Node49&#45;&gt;Node51</title>
<path fill="none" stroke="midnightblue" d="M409,-141.656C409,-131.326 409,-119.443 409,-109.68"/>
<polygon fill="midnightblue" stroke="midnightblue" points="405.5,-141.705 409,-151.705 412.5,-141.705 405.5,-141.705"/>
</g>
<!-- Node53 -->
<g id="node8" class="node"><title>Node53</title>
<g id="a_node8"><a xlink:href="_p_c_a_8cc.html" target="_top" xlink:title="Tool to perform a Principal Component Analysis, based on ROOTs TPrincipal class, to create principal ...">
<polygon fill="white" stroke="black" points="502,-79.5 502,-98.5 580,-98.5 580,-79.5 502,-79.5"/>
<text text-anchor="middle" x="541" y="-86.5" font-family="Helvetica,sans-Serif" font-size="10.00">progs/PCA.cc</text>
</a>
</g>
</g>
<!-- Node52&#45;&gt;Node53 -->
<g id="edge7" class="edge"><title>Node52&#45;&gt;Node53</title>
<path fill="none" stroke="midnightblue" d="M678.813,-147.866C641.709,-132.287 589.842,-110.508 561.496,-98.6061"/>
<polygon fill="midnightblue" stroke="midnightblue" points="677.804,-151.239 688.379,-151.883 680.514,-144.785 677.804,-151.239"/>
</g>
<!-- Node54 -->
<g id="node9" class="node"><title>Node54</title>
<g id="a_node9"><a xlink:href="_etap_dalitz__plot_8cc.html" target="_top" xlink:title="src/analysis/physics\l/etaprime/EtapDalitz\l_plot.cc">
<polygon fill="white" stroke="black" points="598,-68.5 598,-109.5 704,-109.5 704,-68.5 598,-68.5"/>
<text text-anchor="start" x="606" y="-97.5" font-family="Helvetica,sans-Serif" font-size="10.00">src/analysis/physics</text>
<text text-anchor="start" x="606" y="-86.5" font-family="Helvetica,sans-Serif" font-size="10.00">/etaprime/EtapDalitz</text>
<text text-anchor="middle" x="651" y="-75.5" font-family="Helvetica,sans-Serif" font-size="10.00">_plot.cc</text>
</a>
</g>
</g>
<!-- Node52&#45;&gt;Node54 -->
<g id="edge8" class="edge"><title>Node52&#45;&gt;Node54</title>
<path fill="none" stroke="midnightblue" d="M701.663,-144.23C691.491,-133.342 679.274,-120.265 669.385,-109.68"/>
<polygon fill="midnightblue" stroke="midnightblue" points="699.261,-146.787 708.645,-151.705 704.376,-142.008 699.261,-146.787"/>
</g>
<!-- Node55 -->
<g id="node10" class="node"><title>Node55</title>
<g id="a_node10"><a xlink:href="etaprime__dalitz_8cc.html" target="_top" xlink:title="src/analysis/physics\l/etaprime/etaprime_dalitz.cc">
<polygon fill="white" stroke="black" points="722,-74 722,-104 862,-104 862,-74 722,-74"/>
<text text-anchor="start" x="730" y="-92" font-family="Helvetica,sans-Serif" font-size="10.00">src/analysis/physics</text>
<text text-anchor="middle" x="792" y="-81" font-family="Helvetica,sans-Serif" font-size="10.00">/etaprime/etaprime_dalitz.cc</text>
</a>
</g>
</g>
<!-- Node52&#45;&gt;Node55 -->
<g id="edge9" class="edge"><title>Node52&#45;&gt;Node55</title>
<path fill="none" stroke="midnightblue" d="M742.106,-144.171C753.931,-131.332 768.545,-115.466 778.893,-104.231"/>
<polygon fill="midnightblue" stroke="midnightblue" points="739.367,-141.978 735.166,-151.705 744.516,-146.721 739.367,-141.978"/>
</g>
<!-- Node57 -->
<g id="node12" class="node"><title>Node57</title>
<g id="a_node12"><a xlink:href="_etap_omega_g_8cc.html" target="_top" xlink:title="src/analysis/physics\l/etaprime/EtapOmegaG.cc">
<polygon fill="white" stroke="black" points="880.5,-74 880.5,-104 1013.5,-104 1013.5,-74 880.5,-74"/>
<text text-anchor="start" x="888.5" y="-92" font-family="Helvetica,sans-Serif" font-size="10.00">src/analysis/physics</text>
<text text-anchor="middle" x="947" y="-81" font-family="Helvetica,sans-Serif" font-size="10.00">/etaprime/EtapOmegaG.cc</text>
</a>
</g>
</g>
<!-- Node56&#45;&gt;Node57 -->
<g id="edge11" class="edge"><title>Node56&#45;&gt;Node57</title>
<path fill="none" stroke="midnightblue" d="M1055.33,-147.174C1030.02,-133.817 996.597,-116.176 973.605,-104.041"/>
<polygon fill="midnightblue" stroke="midnightblue" points="1053.77,-150.311 1064.25,-151.883 1057.04,-144.12 1053.77,-150.311"/>
</g>
<!-- Node58 -->
<g id="node13" class="node"><title>Node58</title>
<g id="a_node13"><a xlink:href="_etap_omega_g__plot_8cc.html" target="_top" xlink:title="src/analysis/physics\l/etaprime/EtapOmegaG\l_plot.cc">
<polygon fill="white" stroke="black" points="1031.5,-68.5 1031.5,-109.5 1150.5,-109.5 1150.5,-68.5 1031.5,-68.5"/>
<text text-anchor="start" x="1039.5" y="-97.5" font-family="Helvetica,sans-Serif" font-size="10.00">src/analysis/physics</text>
<text text-anchor="start" x="1039.5" y="-86.5" font-family="Helvetica,sans-Serif" font-size="10.00">/etaprime/EtapOmegaG</text>
<text text-anchor="middle" x="1091" y="-75.5" font-family="Helvetica,sans-Serif" font-size="10.00">_plot.cc</text>
</a>
</g>
</g>
<!-- Node56&#45;&gt;Node58 -->
<g id="edge12" class="edge"><title>Node56&#45;&gt;Node58</title>
<path fill="none" stroke="midnightblue" d="M1091,-141.656C1091,-131.326 1091,-119.443 1091,-109.68"/>
<polygon fill="midnightblue" stroke="midnightblue" points="1087.5,-141.705 1091,-151.705 1094.5,-141.705 1087.5,-141.705"/>
</g>
<!-- Node61 -->
<g id="node16" class="node"><title>Node61</title>
<g id="a_node16"><a xlink:href="etaprime-3pi0_8cc.html" target="_top" xlink:title="src/analysis/physics\l/etaprime/etaprime&#45;3pi0.cc">
<polygon fill="white" stroke="black" points="1169,-74 1169,-104 1301,-104 1301,-74 1169,-74"/>
<text text-anchor="start" x="1177" y="-92" font-family="Helvetica,sans-Serif" font-size="10.00">src/analysis/physics</text>
<text text-anchor="middle" x="1235" y="-81" font-family="Helvetica,sans-Serif" font-size="10.00">/etaprime/etaprime&#45;3pi0.cc</text>
</a>
</g>
</g>
<!-- Node60&#45;&gt;Node61 -->
<g id="edge15" class="edge"><title>Node60&#45;&gt;Node61</title>
<path fill="none" stroke="midnightblue" d="M1341.5,-146.998C1316.58,-133.662 1283.81,-116.123 1261.24,-104.041"/>
<polygon fill="midnightblue" stroke="midnightblue" points="1340.16,-150.25 1350.62,-151.883 1343.46,-144.078 1340.16,-150.25"/>
</g>
<!-- Node63 -->
<g id="node18" class="node"><title>Node63</title>
<g id="a_node18"><a xlink:href="_find_proton_8cc.html" target="_top" xlink:title="src/analysis/physics\l/omega/FindProton.cc">
<polygon fill="white" stroke="black" points="1319.5,-74 1319.5,-104 1432.5,-104 1432.5,-74 1319.5,-74"/>
<text text-anchor="start" x="1327.5" y="-92" font-family="Helvetica,sans-Serif" font-size="10.00">src/analysis/physics</text>
<text text-anchor="middle" x="1376" y="-81" font-family="Helvetica,sans-Serif" font-size="10.00">/omega/FindProton.cc</text>
</a>
</g>
</g>
<!-- Node62&#45;&gt;Node63 -->
<g id="edge17" class="edge"><title>Node62&#45;&gt;Node63</title>
<path fill="none" stroke="midnightblue" d="M1478,-146.998C1454.13,-133.662 1422.75,-116.123 1401.13,-104.041"/>
<polygon fill="midnightblue" stroke="midnightblue" points="1476.3,-150.06 1486.74,-151.883 1479.72,-143.95 1476.3,-150.06"/>
</g>
<!-- Node65 -->
<g id="node20" class="node"><title>Node65</title>
<g id="a_node20"><a xlink:href="_omega___eta_g_8cc.html" target="_top" xlink:title="src/analysis/physics\l/omega/Omega_EtaG.cc">
<polygon fill="white" stroke="black" points="1450.5,-74 1450.5,-104 1575.5,-104 1575.5,-74 1450.5,-74"/>
<text text-anchor="start" x="1458.5" y="-92" font-family="Helvetica,sans-Serif" font-size="10.00">src/analysis/physics</text>
<text text-anchor="middle" x="1513" y="-81" font-family="Helvetica,sans-Serif" font-size="10.00">/omega/Omega_EtaG.cc</text>
</a>
</g>
</g>
<!-- Node64&#45;&gt;Node65 -->
<g id="edge19" class="edge"><title>Node64&#45;&gt;Node65</title>
<path fill="none" stroke="midnightblue" d="M1610.19,-146.821C1587.42,-133.508 1557.59,-116.07 1537.02,-104.041"/>
<polygon fill="midnightblue" stroke="midnightblue" points="1608.45,-149.858 1618.85,-151.883 1611.99,-143.815 1608.45,-149.858"/>
</g>
<!-- Node64&#45;&gt;Node66 -->
<g id="edge20" class="edge"><title>Node64&#45;&gt;Node66</title>
<path fill="none" stroke="midnightblue" d="M1644.28,-141.59C1644.93,-129.257 1645.7,-114.724 1646.25,-104.231"/>
<polygon fill="midnightblue" stroke="midnightblue" points="1640.78,-141.535 1643.75,-151.705 1647.77,-141.903 1640.78,-141.535"/>
</g>
<!-- Node67 -->
<g id="node22" class="node"><title>Node67</title>
<g id="a_node22"><a xlink:href="pi0eta_8cc.html" target="_top" xlink:title="src/analysis/physics\l/omega/pi0eta.cc">
<polygon fill="white" stroke="black" points="1594,-1 1594,-31 1700,-31 1700,-1 1594,-1"/>
<text text-anchor="start" x="1602" y="-19" font-family="Helvetica,sans-Serif" font-size="10.00">src/analysis/physics</text>
<text text-anchor="middle" x="1647" y="-8" font-family="Helvetica,sans-Serif" font-size="10.00">/omega/pi0eta.cc</text>
</a>
</g>
</g>
<!-- Node66&#45;&gt;Node67 -->
<g id="edge21" class="edge"><title>Node66&#45;&gt;Node67</title>
<path fill="none" stroke="midnightblue" d="M1647,-63.8976C1647,-53.1314 1647,-40.8005 1647,-31.4856"/>
<polygon fill="midnightblue" stroke="midnightblue" points="1643.5,-63.9727 1647,-73.9727 1650.5,-63.9727 1643.5,-63.9727"/>
</g>
<!-- Node69 -->
<g id="node24" class="node"><title>Node69</title>
<g id="a_node24"><a xlink:href="_ant-alt_veto_cal_tool_8cc.html" target="_top" xlink:title="progs/Ant&#45;altVetoCalTool.cc">
<polygon fill="white" stroke="black" points="1718,-79.5 1718,-98.5 1858,-98.5 1858,-79.5 1718,-79.5"/>
<text text-anchor="middle" x="1788" y="-86.5" font-family="Helvetica,sans-Serif" font-size="10.00">progs/Ant&#45;altVetoCalTool.cc</text>
</a>
</g>
</g>
<!-- Node68&#45;&gt;Node69 -->
<g id="edge24" class="edge"><title>Node68&#45;&gt;Node69</title>
<path fill="none" stroke="midnightblue" d="M1804.45,-142.095C1799.76,-127.245 1794.02,-109.049 1790.7,-98.5635"/>
<polygon fill="midnightblue" stroke="midnightblue" points="1801.14,-143.223 1807.49,-151.705 1807.81,-141.115 1801.14,-143.223"/>
</g>
<!-- Node70 -->
<g id="node25" class="node"><title>Node70</title>
<g id="a_node25"><a xlink:href="_just_pi0_8cc.html" target="_top" xlink:title="src/analysis/physics\l/pi0/JustPi0.cc">
<polygon fill="white" stroke="black" points="1876,-74 1876,-104 1982,-104 1982,-74 1876,-74"/>
<text text-anchor="start" x="1884" y="-92" font-family="Helvetica,sans-Serif" font-size="10.00">src/analysis/physics</text>
<text text-anchor="middle" x="1929" y="-81" font-family="Helvetica,sans-Serif" font-size="10.00">/pi0/JustPi0.cc</text>
</a>
</g>
</g>
<!-- Node68&#45;&gt;Node70 -->
<g id="edge25" class="edge"><title>Node68&#45;&gt;Node70</title>
<path fill="none" stroke="midnightblue" d="M1842.34,-146.289C1862.73,-133.046 1889.11,-115.91 1907.38,-104.041"/>
<polygon fill="midnightblue" stroke="midnightblue" points="1840.21,-143.501 1833.73,-151.883 1844.03,-149.371 1840.21,-143.501"/>
</g>
<!-- Node72 -->
<g id="node27" class="node"><title>Node72</title>
<g id="a_node27"><a xlink:href="sigma_plus_8cc.html" target="_top" xlink:title="src/analysis/physics\l/production/sigmaPlus.cc">
<polygon fill="white" stroke="black" points="2000.5,-74 2000.5,-104 2127.5,-104 2127.5,-74 2000.5,-74"/>
<text text-anchor="start" x="2008.5" y="-92" font-family="Helvetica,sans-Serif" font-size="10.00">src/analysis/physics</text>
<text text-anchor="middle" x="2064" y="-81" font-family="Helvetica,sans-Serif" font-size="10.00">/production/sigmaPlus.cc</text>
</a>
</g>
</g>
<!-- Node71&#45;&gt;Node72 -->
<g id="edge27" class="edge"><title>Node71&#45;&gt;Node72</title>
<path fill="none" stroke="midnightblue" d="M2064,-141.59C2064,-129.257 2064,-114.724 2064,-104.231"/>
<polygon fill="midnightblue" stroke="midnightblue" points="2060.5,-141.705 2064,-151.705 2067.5,-141.705 2060.5,-141.705"/>
</g>
<!-- Node73 -->
<g id="node28" class="node"><title>Node73</title>
<g id="a_node28"><a xlink:href="sigma_plus_plots_8cc.html" target="_top" xlink:title="src/analysis/physics\l/production/sigmaPlusPlots.cc">
<polygon fill="white" stroke="black" points="2145.5,-74 2145.5,-104 2294.5,-104 2294.5,-74 2145.5,-74"/>
<text text-anchor="start" x="2153.5" y="-92" font-family="Helvetica,sans-Serif" font-size="10.00">src/analysis/physics</text>
<text text-anchor="middle" x="2220" y="-81" font-family="Helvetica,sans-Serif" font-size="10.00">/production/sigmaPlusPlots.cc</text>
</a>
</g>
</g>
<!-- Node71&#45;&gt;Node73 -->
<g id="edge28" class="edge"><title>Node71&#45;&gt;Node73</title>
<path fill="none" stroke="midnightblue" d="M2102.28,-147.349C2129.74,-133.971 2166.16,-116.229 2191.18,-104.041"/>
<polygon fill="midnightblue" stroke="midnightblue" points="2100.43,-144.357 2092.98,-151.883 2103.5,-150.65 2100.43,-144.357"/>
</g>
<!-- Node75 -->
<g id="node30" class="node"><title>Node75</title>
<g id="a_node30"><a xlink:href="single_pi0_8cc.html" target="_top" xlink:title="src/analysis/physics\l/production/singlePi0.cc">
<polygon fill="white" stroke="black" points="2312.5,-74 2312.5,-104 2433.5,-104 2433.5,-74 2312.5,-74"/>
<text text-anchor="start" x="2320.5" y="-92" font-family="Helvetica,sans-Serif" font-size="10.00">src/analysis/physics</text>
<text text-anchor="middle" x="2373" y="-81" font-family="Helvetica,sans-Serif" font-size="10.00">/production/singlePi0.cc</text>
</a>
</g>
</g>
<!-- Node74&#45;&gt;Node75 -->
<g id="edge30" class="edge"><title>Node74&#45;&gt;Node75</title>
<path fill="none" stroke="midnightblue" d="M2373,-141.59C2373,-129.257 2373,-114.724 2373,-104.231"/>
<polygon fill="midnightblue" stroke="midnightblue" points="2369.5,-141.705 2373,-151.705 2376.5,-141.705 2369.5,-141.705"/>
</g>
<!-- Node76 -->
<g id="node31" class="node"><title>Node76</title>
<g id="a_node31"><a xlink:href="single_pi0_plots_8cc.html" target="_top" xlink:title="src/analysis/physics\l/production/singlePi0Plots.cc">
<polygon fill="white" stroke="black" points="2451.5,-74 2451.5,-104 2594.5,-104 2594.5,-74 2451.5,-74"/>
<text text-anchor="start" x="2459.5" y="-92" font-family="Helvetica,sans-Serif" font-size="10.00">src/analysis/physics</text>
<text text-anchor="middle" x="2523" y="-81" font-family="Helvetica,sans-Serif" font-size="10.00">/production/singlePi0Plots.cc</text>
</a>
</g>
</g>
<!-- Node74&#45;&gt;Node76 -->
<g id="edge31" class="edge"><title>Node74&#45;&gt;Node76</title>
<path fill="none" stroke="midnightblue" d="M2409.81,-147.349C2436.21,-133.971 2471.23,-116.229 2495.29,-104.041"/>
<polygon fill="midnightblue" stroke="midnightblue" points="2408.2,-144.241 2400.86,-151.883 2411.36,-150.486 2408.2,-144.241"/>
</g>
<!-- Node78 -->
<g id="node33" class="node"><title>Node78</title>
<g id="a_node33"><a xlink:href="triple_pi0_8cc.html" target="_top" xlink:title="src/analysis/physics\l/production/triplePi0.cc">
<polygon fill="white" stroke="black" points="2613,-74 2613,-104 2729,-104 2729,-74 2613,-74"/>
<text text-anchor="start" x="2621" y="-92" font-family="Helvetica,sans-Serif" font-size="10.00">src/analysis/physics</text>
<text text-anchor="middle" x="2671" y="-81" font-family="Helvetica,sans-Serif" font-size="10.00">/production/triplePi0.cc</text>
</a>
</g>
</g>
<!-- Node77&#45;&gt;Node78 -->
<g id="edge33" class="edge"><title>Node77&#45;&gt;Node78</title>
<path fill="none" stroke="midnightblue" d="M2611.05,-144.894C2625.21,-131.932 2642.96,-115.678 2655.46,-104.231"/>
<polygon fill="midnightblue" stroke="midnightblue" points="2608.62,-142.37 2603.61,-151.705 2613.35,-147.533 2608.62,-142.37"/>
</g>
<!-- Node79 -->
<g id="node34" class="node"><title>Node79</title>
<g id="a_node34"><a xlink:href="triple_pi0_plots_8cc.html" target="_top" xlink:title="src/analysis/physics\l/production/triplePi0Plots.cc">
<polygon fill="white" stroke="black" points="2747.5,-74 2747.5,-104 2886.5,-104 2886.5,-74 2747.5,-74"/>
<text text-anchor="start" x="2755.5" y="-92" font-family="Helvetica,sans-Serif" font-size="10.00">src/analysis/physics</text>
<text text-anchor="middle" x="2817" y="-81" font-family="Helvetica,sans-Serif" font-size="10.00">/production/triplePi0Plots.cc</text>
</a>
</g>
</g>
<!-- Node77&#45;&gt;Node79 -->
<g id="edge34" class="edge"><title>Node77&#45;&gt;Node79</title>
<path fill="none" stroke="midnightblue" d="M2640.01,-148.74C2680.7,-135.234 2736.58,-116.69 2774.59,-104.075"/>
<polygon fill="midnightblue" stroke="midnightblue" points="2638.66,-145.5 2630.27,-151.972 2640.86,-152.144 2638.66,-145.5"/>
</g>
<!-- Node80 -->
<g id="node35" class="node"><title>Node80</title>
<g id="a_node35"><a xlink:href="_proton_vertex_test_8cc.html" target="_top" xlink:title="src/analysis/physics\l/scratch/wolfes/ProtonVertex\lTest.cc">
<polygon fill="white" stroke="black" points="2904.5,-68.5 2904.5,-109.5 3047.5,-109.5 3047.5,-68.5 2904.5,-68.5"/>
<text text-anchor="start" x="2912.5" y="-97.5" font-family="Helvetica,sans-Serif" font-size="10.00">src/analysis/physics</text>
<text text-anchor="start" x="2912.5" y="-86.5" font-family="Helvetica,sans-Serif" font-size="10.00">/scratch/wolfes/ProtonVertex</text>
<text text-anchor="middle" x="2976" y="-75.5" font-family="Helvetica,sans-Serif" font-size="10.00">Test.cc</text>
</a>
</g>
</g>
<!-- Node77&#45;&gt;Node80 -->
<g id="edge35" class="edge"><title>Node77&#45;&gt;Node80</title>
<path fill="none" stroke="midnightblue" d="M2639.51,-149.147C2643.71,-148.002 2647.91,-146.935 2652,-146 2758.43,-121.643 2787.88,-131.11 2895,-110 2897.98,-109.412 2901.02,-108.786 2904.09,-108.132"/>
<polygon fill="midnightblue" stroke="midnightblue" points="2638.4,-145.822 2629.74,-151.93 2640.32,-152.554 2638.4,-145.822"/>
</g>
<!-- Node81&#45;&gt;Node80 -->
<g id="edge37" class="edge"><title>Node81&#45;&gt;Node80</title>
<path fill="none" stroke="midnightblue" d="M2805.13,-143.442C2839.62,-132.655 2880.5,-119.867 2913.63,-109.506"/>
<polygon fill="midnightblue" stroke="midnightblue" points="2804.08,-140.103 2795.58,-146.428 2806.17,-146.783 2804.08,-140.103"/>
</g>
<!-- Node83 -->
<g id="node38" class="node"><title>Node83</title>
<g id="a_node38"><a xlink:href="_test_sigma_plus_fitter_8cc.html" target="_top" xlink:title="src/analysis/physics\l/test/TestSigmaPlusFitter.cc">
<polygon fill="white" stroke="black" points="3066,-74 3066,-104 3208,-104 3208,-74 3066,-74"/>
<text text-anchor="start" x="3074" y="-92" font-family="Helvetica,sans-Serif" font-size="10.00">src/analysis/physics</text>
<text text-anchor="middle" x="3137" y="-81" font-family="Helvetica,sans-Serif" font-size="10.00">/test/TestSigmaPlusFitter.cc</text>
</a>
</g>
</g>
<!-- Node82&#45;&gt;Node83 -->
<g id="edge39" class="edge"><title>Node82&#45;&gt;Node83</title>
<path fill="none" stroke="midnightblue" d="M2946.04,-148.996C2989.82,-135.47 3050.35,-116.77 3091.44,-104.075"/>
<polygon fill="midnightblue" stroke="midnightblue" points="2944.93,-145.676 2936.41,-151.972 2946.99,-152.364 2944.93,-145.676"/>
</g>
</g>
</svg>
