<?xml version="1.0" encoding="UTF-8" standalone="no"?>
<!DOCTYPE svg PUBLIC "-//W3C//DTD SVG 1.1//EN"
 "http://www.w3.org/Graphics/SVG/1.1/DTD/svg11.dtd">
<!-- Generated by graphviz version 2.36.0 (20140111.2315)
 -->
<!-- Title: src/unpacker/UnpackerA2Geant.h Pages: 1 -->
<svg width="2777pt" height="252pt"
 viewBox="0.00 0.00 2777.00 252.00" xmlns="http://www.w3.org/2000/svg" xmlns:xlink="http://www.w3.org/1999/xlink">
<g id="graph0" class="graph" transform="scale(1 1) rotate(0) translate(4 248)">
<title>src/unpacker/UnpackerA2Geant.h</title>
<polygon fill="white" stroke="none" points="-4,4 -4,-248 2773,-248 2773,4 -4,4"/>
<!-- Node57 -->
<g id="node1" class="node"><title>Node57</title>
<polygon fill="#bfbfbf" stroke="black" points="1271,-224.5 1271,-243.5 1435,-243.5 1435,-224.5 1271,-224.5"/>
<text text-anchor="middle" x="1353" y="-231.5" font-family="Helvetica,sans-Serif" font-size="10.00">src/unpacker/UnpackerA2Geant.h</text>
</g>
<!-- Node58 -->
<g id="node2" class="node"><title>Node58</title>
<g id="a_node2"><a xlink:href="_setup_8h.html" target="_top" xlink:title="src/expconfig/setups\l/Setup.h">
<polygon fill="white" stroke="black" points="1231.5,-157 1231.5,-187 1338.5,-187 1338.5,-157 1231.5,-157"/>
<text text-anchor="start" x="1239.5" y="-175" font-family="Helvetica,sans-Serif" font-size="10.00">src/expconfig/setups</text>
<text text-anchor="middle" x="1285" y="-164" font-family="Helvetica,sans-Serif" font-size="10.00">/Setup.h</text>
</a>
</g>
</g>
<!-- Node57&#45;&gt;Node58 -->
<g id="edge1" class="edge"><title>Node57&#45;&gt;Node58</title>
<path fill="none" stroke="midnightblue" d="M1335.45,-217.517C1324.82,-208.138 1311.37,-196.266 1301.03,-187.141"/>
<polygon fill="midnightblue" stroke="midnightblue" points="1333.44,-220.412 1343.26,-224.403 1338.07,-215.163 1333.44,-220.412"/>
</g>
<!-- Node65 -->
<g id="node9" class="node"><title>Node65</title>
<g id="a_node9"><a xlink:href="_exp_config_8cc.html" target="_top" xlink:title="src/expconfig/ExpConfig.cc">
<polygon fill="white" stroke="black" points="-0.5,-89.5 -0.5,-108.5 136.5,-108.5 136.5,-89.5 -0.5,-89.5"/>
<text text-anchor="middle" x="68" y="-96.5" font-family="Helvetica,sans-Serif" font-size="10.00">src/expconfig/ExpConfig.cc</text>
</a>
</g>
</g>
<!-- Node57&#45;&gt;Node65 -->
<g id="edge39" class="edge"><title>Node57&#45;&gt;Node65</title>
<path fill="none" stroke="midnightblue" d="M1260.8,-229.329C1057.94,-220.169 558.154,-191.673 146,-120 129.472,-117.126 111.301,-112.552 96.6579,-108.503"/>
<polygon fill="midnightblue" stroke="midnightblue" points="1260.67,-232.826 1270.82,-229.776 1260.98,-225.833 1260.67,-232.826"/>
</g>
<!-- Node93 -->
<g id="node37" class="node"><title>Node93</title>
<g id="a_node37"><a xlink:href="_unpacker_8cc.html" target="_top" xlink:title="src/unpacker/Unpacker.cc">
<polygon fill="white" stroke="black" points="1356.5,-162.5 1356.5,-181.5 1487.5,-181.5 1487.5,-162.5 1356.5,-162.5"/>
<text text-anchor="middle" x="1422" y="-169.5" font-family="Helvetica,sans-Serif" font-size="10.00">src/unpacker/Unpacker.cc</text>
</a>
</g>
</g>
<!-- Node57&#45;&gt;Node93 -->
<g id="edge40" class="edge"><title>Node57&#45;&gt;Node93</title>
<path fill="none" stroke="midnightblue" d="M1370.8,-217.521C1383.96,-206.082 1401.38,-190.93 1412.13,-181.581"/>
<polygon fill="midnightblue" stroke="midnightblue" points="1368.14,-215.201 1362.89,-224.403 1372.73,-220.483 1368.14,-215.201"/>
</g>
<!-- Node94 -->
<g id="node38" class="node"><title>Node94</title>
<g id="a_node38"><a xlink:href="_unpacker_a2_geant_8cc.html" target="_top" xlink:title="src/unpacker/UnpackerA2Geant.cc">
<polygon fill="white" stroke="black" points="1506,-162.5 1506,-181.5 1676,-181.5 1676,-162.5 1506,-162.5"/>
<text text-anchor="middle" x="1591" y="-169.5" font-family="Helvetica,sans-Serif" font-size="10.00">src/unpacker/UnpackerA2Geant.cc</text>
</a>
</g>
</g>
<!-- Node57&#45;&gt;Node94 -->
<g id="edge41" class="edge"><title>Node57&#45;&gt;Node94</title>
<path fill="none" stroke="midnightblue" d="M1396.6,-222.008C1442.91,-210.334 1515.12,-192.129 1557.27,-181.503"/>
<polygon fill="midnightblue" stroke="midnightblue" points="1395.69,-218.629 1386.85,-224.467 1397.4,-225.416 1395.69,-218.629"/>
</g>
<!-- Node59 -->
<g id="node3" class="node"><title>Node59</title>
<g id="a_node3"><a xlink:href="_ant-fake_raw_8cc.html" target="_top" xlink:title="progs/Ant&#45;fakeRaw.cc">
<polygon fill="white" stroke="black" points="155,-89.5 155,-108.5 269,-108.5 269,-89.5 155,-89.5"/>
<text text-anchor="middle" x="212" y="-96.5" font-family="Helvetica,sans-Serif" font-size="10.00">progs/Ant&#45;fakeRaw.cc</text>
</a>
</g>
</g>
<!-- Node58&#45;&gt;Node59 -->
<g id="edge2" class="edge"><title>Node58&#45;&gt;Node59</title>
<path fill="none" stroke="midnightblue" d="M1221.19,-169.761C1029.59,-165.726 461.347,-151.371 279,-120 264.285,-117.468 248.243,-112.753 235.547,-108.536"/>
<polygon fill="midnightblue" stroke="midnightblue" points="1221.3,-173.264 1231.37,-169.973 1221.45,-166.266 1221.3,-173.264"/>
</g>
<!-- Node60 -->
<g id="node4" class="node"><title>Node60</title>
<g id="a_node4"><a xlink:href="_ant-info_8cc.html" target="_top" xlink:title="progs/Ant&#45;info.cc">
<polygon fill="white" stroke="black" points="287.5,-89.5 287.5,-108.5 378.5,-108.5 378.5,-89.5 287.5,-89.5"/>
<text text-anchor="middle" x="333" y="-96.5" font-family="Helvetica,sans-Serif" font-size="10.00">progs/Ant&#45;info.cc</text>
</a>
</g>
</g>
<!-- Node58&#45;&gt;Node60 -->
<g id="edge3" class="edge"><title>Node58&#45;&gt;Node60</title>
<path fill="none" stroke="midnightblue" d="M1221.13,-169.785C1043.73,-166.026 547.538,-152.802 388,-120 375.759,-117.483 362.584,-112.768 352.198,-108.548"/>
<polygon fill="midnightblue" stroke="midnightblue" points="1221.28,-173.289 1231.35,-169.998 1221.43,-166.29 1221.28,-173.289"/>
</g>
<!-- Node61 -->
<g id="node5" class="node"><title>Node61</title>
<g id="a_node5"><a xlink:href="_ant-make_tagg_eff_8cc.html" target="_top" xlink:title="progs/Ant&#45;makeTaggEff.cc">
<polygon fill="white" stroke="black" points="397,-89.5 397,-108.5 531,-108.5 531,-89.5 397,-89.5"/>
<text text-anchor="middle" x="464" y="-96.5" font-family="Helvetica,sans-Serif" font-size="10.00">progs/Ant&#45;makeTaggEff.cc</text>
</a>
</g>
</g>
<!-- Node58&#45;&gt;Node61 -->
<g id="edge4" class="edge"><title>Node58&#45;&gt;Node61</title>
<path fill="none" stroke="midnightblue" d="M1221.27,-170.604C1092.09,-168.93 790.462,-160.587 541,-120 524.505,-117.316 506.401,-112.701 491.894,-108.581"/>
<polygon fill="midnightblue" stroke="midnightblue" points="1221.34,-174.105 1231.38,-170.726 1221.43,-167.106 1221.34,-174.105"/>
</g>
<!-- Node62 -->
<g id="node6" class="node"><title>Node62</title>
<g id="a_node6"><a xlink:href="_ant-rawdump_8cc.html" target="_top" xlink:title="progs/Ant&#45;rawdump.cc">
<polygon fill="white" stroke="black" points="549.5,-89.5 549.5,-108.5 664.5,-108.5 664.5,-89.5 549.5,-89.5"/>
<text text-anchor="middle" x="607" y="-96.5" font-family="Helvetica,sans-Serif" font-size="10.00">progs/Ant&#45;rawdump.cc</text>
</a>
</g>
</g>
<!-- Node58&#45;&gt;Node62 -->
<g id="edge5" class="edge"><title>Node58&#45;&gt;Node62</title>
<path fill="none" stroke="midnightblue" d="M1221.29,-170.005C1109.53,-167.302 871.28,-157.262 674,-120 659.567,-117.274 643.809,-112.657 631.204,-108.545"/>
<polygon fill="midnightblue" stroke="midnightblue" points="1221.3,-173.506 1231.38,-170.237 1221.46,-166.508 1221.3,-173.506"/>
</g>
<!-- Node63 -->
<g id="node7" class="node"><title>Node63</title>
<g id="a_node7"><a xlink:href="_omega_eta_g__fit_8cc.html" target="_top" xlink:title="progs/OmegaEtaG_fit.cc">
<polygon fill="white" stroke="black" points="682.5,-89.5 682.5,-108.5 807.5,-108.5 807.5,-89.5 682.5,-89.5"/>
<text text-anchor="middle" x="745" y="-96.5" font-family="Helvetica,sans-Serif" font-size="10.00">progs/OmegaEtaG_fit.cc</text>
</a>
</g>
</g>
<!-- Node58&#45;&gt;Node63 -->
<g id="edge6" class="edge"><title>Node58&#45;&gt;Node63</title>
<path fill="none" stroke="midnightblue" d="M1221.13,-167.337C1130.58,-161.398 959.978,-147.46 817,-120 801.839,-117.088 785.215,-112.562 771.765,-108.551"/>
<polygon fill="midnightblue" stroke="midnightblue" points="1221.03,-170.838 1231.24,-167.988 1221.48,-163.852 1221.03,-170.838"/>
</g>
<!-- Node64 -->
<g id="node8" class="node"><title>Node64</title>
<g id="a_node8"><a xlink:href="_proton_vertex_test_8cc.html" target="_top" xlink:title="src/analysis/physics\l/scratch/wolfes/ProtonVertex\lTest.cc">
<polygon fill="white" stroke="black" points="825.5,-78.5 825.5,-119.5 968.5,-119.5 968.5,-78.5 825.5,-78.5"/>
<text text-anchor="start" x="833.5" y="-107.5" font-family="Helvetica,sans-Serif" font-size="10.00">src/analysis/physics</text>
<text text-anchor="start" x="833.5" y="-96.5" font-family="Helvetica,sans-Serif" font-size="10.00">/scratch/wolfes/ProtonVertex</text>
<text text-anchor="middle" x="897" y="-85.5" font-family="Helvetica,sans-Serif" font-size="10.00">Test.cc</text>
</a>
</g>
</g>
<!-- Node58&#45;&gt;Node64 -->
<g id="edge7" class="edge"><title>Node58&#45;&gt;Node64</title>
<path fill="none" stroke="midnightblue" d="M1221.18,-161.872C1158.9,-152.617 1061.58,-137.235 978,-120 975.021,-119.386 971.985,-118.738 968.923,-118.065"/>
<polygon fill="midnightblue" stroke="midnightblue" points="1220.85,-165.36 1231.25,-163.36 1221.87,-158.436 1220.85,-165.36"/>
</g>
<!-- Node58&#45;&gt;Node65 -->
<g id="edge8" class="edge"><title>Node58&#45;&gt;Node65</title>
<path fill="none" stroke="midnightblue" d="M1221.12,-169.873C1012.99,-165.93 355.858,-151.261 146,-120 128.993,-117.467 110.322,-112.751 95.5124,-108.534"/>
<polygon fill="midnightblue" stroke="midnightblue" points="1221.2,-173.375 1231.27,-170.064 1221.33,-166.377 1221.2,-173.375"/>
</g>
<!-- Node66 -->
<g id="node10" class="node"><title>Node66</title>
<g id="a_node10"><a xlink:href="_setup_8cc.html" target="_top" xlink:title="src/expconfig/setups\l/Setup.cc">
<polygon fill="white" stroke="black" points="986.5,-84 986.5,-114 1093.5,-114 1093.5,-84 986.5,-84"/>
<text text-anchor="start" x="994.5" y="-102" font-family="Helvetica,sans-Serif" font-size="10.00">src/expconfig/setups</text>
<text text-anchor="middle" x="1040" y="-91" font-family="Helvetica,sans-Serif" font-size="10.00">/Setup.cc</text>
</a>
</g>
</g>
<!-- Node58&#45;&gt;Node66 -->
<g id="edge9" class="edge"><title>Node58&#45;&gt;Node66</title>
<path fill="none" stroke="midnightblue" d="M1223.4,-154.301C1188.07,-144.585 1142.95,-131.934 1103,-120 1096.73,-118.128 1090.13,-116.098 1083.66,-114.073"/>
<polygon fill="midnightblue" stroke="midnightblue" points="1222.52,-157.689 1233.09,-156.96 1224.37,-150.939 1222.52,-157.689"/>
</g>
<!-- Node67 -->
<g id="node11" class="node"><title>Node67</title>
<g id="a_node11"><a xlink:href="_setup__2007___base_8h.html" target="_top" xlink:title="src/expconfig/setups\l/Setup_2007_Base.h">
<polygon fill="white" stroke="black" points="1111.5,-84 1111.5,-114 1218.5,-114 1218.5,-84 1111.5,-84"/>
<text text-anchor="start" x="1119.5" y="-102" font-family="Helvetica,sans-Serif" font-size="10.00">src/expconfig/setups</text>
<text text-anchor="middle" x="1165" y="-91" font-family="Helvetica,sans-Serif" font-size="10.00">/Setup_2007_Base.h</text>
</a>
</g>
</g>
<!-- Node58&#45;&gt;Node67 -->
<g id="edge10" class="edge"><title>Node58&#45;&gt;Node67</title>
<path fill="none" stroke="midnightblue" d="M1252.51,-151.777C1232.5,-139.939 1207.29,-125.02 1189.07,-114.241"/>
<polygon fill="midnightblue" stroke="midnightblue" points="1250.9,-154.893 1261.29,-156.973 1254.47,-148.868 1250.9,-154.893"/>
</g>
<!-- Node70 -->
<g id="node14" class="node"><title>Node70</title>
<g id="a_node14"><a xlink:href="_setup__2007___base_8cc.html" target="_top" xlink:title="src/expconfig/setups\l/Setup_2007_Base.cc">
<polygon fill="white" stroke="black" points="901.5,-6 901.5,-36 1014.5,-36 1014.5,-6 901.5,-6"/>
<text text-anchor="start" x="909.5" y="-24" font-family="Helvetica,sans-Serif" font-size="10.00">src/expconfig/setups</text>
<text text-anchor="middle" x="958" y="-13" font-family="Helvetica,sans-Serif" font-size="10.00">/Setup_2007_Base.cc</text>
</a>
</g>
</g>
<!-- Node58&#45;&gt;Node70 -->
<g id="edge14" class="edge"><title>Node58&#45;&gt;Node70</title>
<path fill="none" stroke="midnightblue" d="M1273.38,-147.864C1260.58,-123.308 1240.08,-86.8422 1227,-78 1151.08,-26.6907 1113.11,-63.3242 1024,-42 1016.78,-40.2725 1009.19,-38.2086 1001.82,-36.0727"/>
<polygon fill="midnightblue" stroke="midnightblue" points="1270.35,-149.627 1278.03,-156.921 1276.58,-146.427 1270.35,-149.627"/>
</g>
<!-- Node71 -->
<g id="node15" class="node"><title>Node71</title>
<g id="a_node15"><a xlink:href="_setup__2010__03___base_8cc.html" target="_top" xlink:title="src/expconfig/setups\l/Setup_2010_03_Base.cc">
<polygon fill="white" stroke="black" points="1033,-6 1033,-36 1161,-36 1161,-6 1033,-6"/>
<text text-anchor="start" x="1041" y="-24" font-family="Helvetica,sans-Serif" font-size="10.00">src/expconfig/setups</text>
<text text-anchor="middle" x="1097" y="-13" font-family="Helvetica,sans-Serif" font-size="10.00">/Setup_2010_03_Base.cc</text>
</a>
</g>
</g>
<!-- Node58&#45;&gt;Node71 -->
<g id="edge15" class="edge"><title>Node58&#45;&gt;Node71</title>
<path fill="none" stroke="midnightblue" d="M1284.86,-146.521C1283.44,-125.79 1278.19,-96.5613 1261,-78 1252.85,-69.1987 1191.19,-49.6262 1145.87,-36.1209"/>
<polygon fill="midnightblue" stroke="midnightblue" points="1281.37,-146.924 1285.3,-156.763 1288.36,-146.622 1281.37,-146.924"/>
</g>
<!-- Node72 -->
<g id="node16" class="node"><title>Node72</title>
<g id="a_node16"><a xlink:href="_setup__2010__03___base_8h.html" target="_top" xlink:title="src/expconfig/setups\l/Setup_2010_03_Base.h">
<polygon fill="white" stroke="black" points="1313.5,-84 1313.5,-114 1436.5,-114 1436.5,-84 1313.5,-84"/>
<text text-anchor="start" x="1321.5" y="-102" font-family="Helvetica,sans-Serif" font-size="10.00">src/expconfig/setups</text>
<text text-anchor="middle" x="1375" y="-91" font-family="Helvetica,sans-Serif" font-size="10.00">/Setup_2010_03_Base.h</text>
</a>
</g>
</g>
<!-- Node58&#45;&gt;Node72 -->
<g id="edge16" class="edge"><title>Node58&#45;&gt;Node72</title>
<path fill="none" stroke="midnightblue" d="M1311,-150.485C1325.73,-138.87 1343.78,-124.632 1356.95,-114.241"/>
<polygon fill="midnightblue" stroke="midnightblue" points="1308.46,-148.031 1302.78,-156.973 1312.8,-153.527 1308.46,-148.031"/>
</g>
<!-- Node74 -->
<g id="node18" class="node"><title>Node74</title>
<g id="a_node18"><a xlink:href="_setup__2012__12___compton_8cc.html" target="_top" xlink:title="src/expconfig/setups\l/Setup_2012_12_Compton.cc">
<polygon fill="white" stroke="black" points="1455,-84 1455,-114 1601,-114 1601,-84 1455,-84"/>
<text text-anchor="start" x="1463" y="-102" font-family="Helvetica,sans-Serif" font-size="10.00">src/expconfig/setups</text>
<text text-anchor="middle" x="1528" y="-91" font-family="Helvetica,sans-Serif" font-size="10.00">/Setup_2012_12_Compton.cc</text>
</a>
</g>
</g>
<!-- Node58&#45;&gt;Node74 -->
<g id="edge19" class="edge"><title>Node58&#45;&gt;Node74</title>
<path fill="none" stroke="midnightblue" d="M1342.76,-154.122C1384.52,-141.923 1440.28,-125.631 1479.68,-114.12"/>
<polygon fill="midnightblue" stroke="midnightblue" points="1341.63,-150.809 1333.01,-156.973 1343.59,-157.528 1341.63,-150.809"/>
</g>
<!-- Node75 -->
<g id="node19" class="node"><title>Node75</title>
<g id="a_node19"><a xlink:href="_setup__2014___e_p_t_8h.html" target="_top" xlink:title="src/expconfig/setups\l/Setup_2014_EPT.h">
<polygon fill="white" stroke="black" points="1619.5,-84 1619.5,-114 1726.5,-114 1726.5,-84 1619.5,-84"/>
<text text-anchor="start" x="1627.5" y="-102" font-family="Helvetica,sans-Serif" font-size="10.00">src/expconfig/setups</text>
<text text-anchor="middle" x="1673" y="-91" font-family="Helvetica,sans-Serif" font-size="10.00">/Setup_2014_EPT.h</text>
</a>
</g>
</g>
<!-- Node58&#45;&gt;Node75 -->
<g id="edge20" class="edge"><title>Node58&#45;&gt;Node75</title>
<path fill="none" stroke="midnightblue" d="M1348.59,-156.026C1465.33,-134.964 1498.48,-145.169 1610,-120 1617.28,-118.358 1624.92,-116.26 1632.27,-114.044"/>
<polygon fill="midnightblue" stroke="midnightblue" points="1347.74,-152.623 1338.54,-157.878 1349.01,-159.507 1347.74,-152.623"/>
</g>
<!-- Node80 -->
<g id="node24" class="node"><title>Node80</title>
<g id="a_node24"><a xlink:href="_setup__2015__01___pion_8cc.html" target="_top" xlink:title="src/expconfig/setups\l/Setup_2015_01_Pion.cc">
<polygon fill="white" stroke="black" points="1979.5,-6 1979.5,-36 2104.5,-36 2104.5,-6 1979.5,-6"/>
<text text-anchor="start" x="1987.5" y="-24" font-family="Helvetica,sans-Serif" font-size="10.00">src/expconfig/setups</text>
<text text-anchor="middle" x="2042" y="-13" font-family="Helvetica,sans-Serif" font-size="10.00">/Setup_2015_01_Pion.cc</text>
</a>
</g>
</g>
<!-- Node58&#45;&gt;Node80 -->
<g id="edge25" class="edge"><title>Node58&#45;&gt;Node80</title>
<path fill="none" stroke="midnightblue" d="M1348.67,-156.21C1448.38,-143.006 1660.16,-156.853 1735,-120 1757.85,-108.746 1751.67,-90.258 1774,-78 1851.64,-35.3801 1883.69,-61.8722 1970,-42 1977.71,-40.2244 1985.84,-38.1594 1993.74,-36.0438"/>
<polygon fill="midnightblue" stroke="midnightblue" points="1347.89,-152.787 1338.51,-157.717 1348.92,-159.711 1347.89,-152.787"/>
</g>
<!-- Node81 -->
<g id="node25" class="node"><title>Node81</title>
<g id="a_node25"><a xlink:href="_setup__2015__01___pion_8h.html" target="_top" xlink:title="src/expconfig/setups\l/Setup_2015_01_Pion.h">
<polygon fill="white" stroke="black" points="1783,-84 1783,-114 1903,-114 1903,-84 1783,-84"/>
<text text-anchor="start" x="1791" y="-102" font-family="Helvetica,sans-Serif" font-size="10.00">src/expconfig/setups</text>
<text text-anchor="middle" x="1843" y="-91" font-family="Helvetica,sans-Serif" font-size="10.00">/Setup_2015_01_Pion.h</text>
</a>
</g>
</g>
<!-- Node58&#45;&gt;Node81 -->
<g id="edge26" class="edge"><title>Node58&#45;&gt;Node81</title>
<path fill="none" stroke="midnightblue" d="M1348.65,-156.08C1535.23,-127.081 1587.31,-152.055 1769,-120 1777.78,-118.451 1787.03,-116.343 1795.91,-114.074"/>
<polygon fill="midnightblue" stroke="midnightblue" points="1347.84,-152.666 1338.51,-157.689 1348.93,-159.579 1347.84,-152.666"/>
</g>
<!-- Node82 -->
<g id="node26" class="node"><title>Node82</title>
<g id="a_node26"><a xlink:href="_setup__2017__03_8h.html" target="_top" xlink:title="src/expconfig/setups\l/Setup_2017_03.h">
<polygon fill="white" stroke="black" points="1921.5,-84 1921.5,-114 2028.5,-114 2028.5,-84 1921.5,-84"/>
<text text-anchor="start" x="1929.5" y="-102" font-family="Helvetica,sans-Serif" font-size="10.00">src/expconfig/setups</text>
<text text-anchor="middle" x="1975" y="-91" font-family="Helvetica,sans-Serif" font-size="10.00">/Setup_2017_03.h</text>
</a>
</g>
</g>
<!-- Node58&#45;&gt;Node82 -->
<g id="edge28" class="edge"><title>Node58&#45;&gt;Node82</title>
<path fill="none" stroke="midnightblue" d="M1348.91,-156.059C1597.8,-120.049 1667.72,-165.117 1911,-120 1918.9,-118.535 1927.19,-116.407 1935.08,-114.08"/>
<polygon fill="midnightblue" stroke="midnightblue" points="1348.22,-152.623 1338.84,-157.546 1349.24,-159.547 1348.22,-152.623"/>
</g>
<!-- Node84 -->
<g id="node28" class="node"><title>Node84</title>
<g id="a_node28"><a xlink:href="_setup__2017__05_8h.html" target="_top" xlink:title="src/expconfig/setups\l/Setup_2017_05.h">
<polygon fill="white" stroke="black" points="2046.5,-84 2046.5,-114 2153.5,-114 2153.5,-84 2046.5,-84"/>
<text text-anchor="start" x="2054.5" y="-102" font-family="Helvetica,sans-Serif" font-size="10.00">src/expconfig/setups</text>
<text text-anchor="middle" x="2100" y="-91" font-family="Helvetica,sans-Serif" font-size="10.00">/Setup_2017_05.h</text>
</a>
</g>
</g>
<!-- Node58&#45;&gt;Node84 -->
<g id="edge30" class="edge"><title>Node58&#45;&gt;Node84</title>
<path fill="none" stroke="midnightblue" d="M1348.83,-156.084C1653.34,-113.638 1738.54,-174.248 2037,-120 2044.9,-118.563 2053.19,-116.417 2061.07,-114.057"/>
<polygon fill="midnightblue" stroke="midnightblue" points="1348.24,-152.633 1338.83,-157.504 1349.23,-159.563 1348.24,-152.633"/>
</g>
<!-- Node86 -->
<g id="node30" class="node"><title>Node86</title>
<g id="a_node30"><a xlink:href="_setup__2017_plus___new_tagger___base_8h.html" target="_top" xlink:title="src/expconfig/setups\l/Setup_2017Plus_NewTagger\l_Base.h">
<polygon fill="white" stroke="black" points="2172,-78.5 2172,-119.5 2318,-119.5 2318,-78.5 2172,-78.5"/>
<text text-anchor="start" x="2180" y="-107.5" font-family="Helvetica,sans-Serif" font-size="10.00">src/expconfig/setups</text>
<text text-anchor="start" x="2180" y="-96.5" font-family="Helvetica,sans-Serif" font-size="10.00">/Setup_2017Plus_NewTagger</text>
<text text-anchor="middle" x="2245" y="-85.5" font-family="Helvetica,sans-Serif" font-size="10.00">_Base.h</text>
</a>
</g>
</g>
<!-- Node58&#45;&gt;Node86 -->
<g id="edge32" class="edge"><title>Node58&#45;&gt;Node86</title>
<path fill="none" stroke="midnightblue" d="M1349,-156.068C1708.46,-107.029 1806.75,-170.18 2162,-120 2165.23,-119.544 2168.52,-119.019 2171.83,-118.439"/>
<polygon fill="midnightblue" stroke="midnightblue" points="1348.25,-152.637 1338.83,-157.475 1349.21,-159.571 1348.25,-152.637"/>
</g>
<!-- Node90 -->
<g id="node34" class="node"><title>Node90</title>
<g id="a_node34"><a xlink:href="_setup___c_b_source_calib_8cc.html" target="_top" xlink:title="src/expconfig/setups\l/Setup_CBSourceCalib.cc">
<polygon fill="white" stroke="black" points="2336.5,-84 2336.5,-114 2467.5,-114 2467.5,-84 2336.5,-84"/>
<text text-anchor="start" x="2344.5" y="-102" font-family="Helvetica,sans-Serif" font-size="10.00">src/expconfig/setups</text>
<text text-anchor="middle" x="2402" y="-91" font-family="Helvetica,sans-Serif" font-size="10.00">/Setup_CBSourceCalib.cc</text>
</a>
</g>
</g>
<!-- Node58&#45;&gt;Node90 -->
<g id="edge36" class="edge"><title>Node58&#45;&gt;Node90</title>
<path fill="none" stroke="midnightblue" d="M1348.77,-156.107C1781.22,-98.6024 1899.66,-184.009 2327,-120 2336.46,-118.583 2346.44,-116.413 2355.93,-114.018"/>
<polygon fill="midnightblue" stroke="midnightblue" points="1348.27,-152.644 1338.82,-157.448 1349.2,-159.581 1348.27,-152.644"/>
</g>
<!-- Node91 -->
<g id="node35" class="node"><title>Node91</title>
<g id="a_node35"><a xlink:href="_setup_registry_8cc.html" target="_top" xlink:title="src/expconfig/setups\l/SetupRegistry.cc">
<polygon fill="white" stroke="black" points="2485.5,-84 2485.5,-114 2592.5,-114 2592.5,-84 2485.5,-84"/>
<text text-anchor="start" x="2493.5" y="-102" font-family="Helvetica,sans-Serif" font-size="10.00">src/expconfig/setups</text>
<text text-anchor="middle" x="2539" y="-91" font-family="Helvetica,sans-Serif" font-size="10.00">/SetupRegistry.cc</text>
</a>
</g>
</g>
<!-- Node58&#45;&gt;Node91 -->
<g id="edge37" class="edge"><title>Node58&#45;&gt;Node91</title>
<path fill="none" stroke="midnightblue" d="M1348.79,-156.112C1846.98,-91.0818 1984.87,-204.129 2476,-120 2484.03,-118.624 2492.45,-116.473 2500.43,-114.083"/>
<polygon fill="midnightblue" stroke="midnightblue" points="1348.28,-152.649 1338.82,-157.43 1349.19,-159.589 1348.28,-152.649"/>
</g>
<!-- Node92 -->
<g id="node36" class="node"><title>Node92</title>
<g id="a_node36"><a xlink:href="expconfig__helpers_8cc.html" target="_top" xlink:title="test/expconfig_helpers.cc">
<polygon fill="white" stroke="black" points="2611,-89.5 2611,-108.5 2739,-108.5 2739,-89.5 2611,-89.5"/>
<text text-anchor="middle" x="2675" y="-96.5" font-family="Helvetica,sans-Serif" font-size="10.00">test/expconfig_helpers.cc</text>
</a>
</g>
</g>
<!-- Node58&#45;&gt;Node92 -->
<g id="edge38" class="edge"><title>Node58&#45;&gt;Node92</title>
<path fill="none" stroke="midnightblue" d="M1349.06,-156.08C1902.17,-84.532 2053.2,-200.744 2601,-120 2617.33,-117.594 2635.2,-112.826 2649.29,-108.549"/>
<polygon fill="midnightblue" stroke="midnightblue" points="1348.28,-152.651 1338.82,-157.419 1349.19,-159.592 1348.28,-152.651"/>
</g>
<!-- Node68 -->
<g id="node12" class="node"><title>Node68</title>
<g id="a_node12"><a xlink:href="_setup__2007__06_8cc.html" target="_top" xlink:title="src/expconfig/setups\l/Setup_2007_06.cc">
<polygon fill="white" stroke="black" points="651.5,-6 651.5,-36 758.5,-36 758.5,-6 651.5,-6"/>
<text text-anchor="start" x="659.5" y="-24" font-family="Helvetica,sans-Serif" font-size="10.00">src/expconfig/setups</text>
<text text-anchor="middle" x="705" y="-13" font-family="Helvetica,sans-Serif" font-size="10.00">/Setup_2007_06.cc</text>
</a>
</g>
</g>
<!-- Node67&#45;&gt;Node68 -->
<g id="edge11" class="edge"><title>Node67&#45;&gt;Node68</title>
<path fill="none" stroke="midnightblue" d="M1115.29,-81.2127C1110.83,-80.0113 1106.35,-78.9152 1102,-78 955.895,-47.2582 914.105,-72.7418 768,-42 760.476,-40.4169 752.575,-38.2926 745.01,-36.0187"/>
<polygon fill="midnightblue" stroke="midnightblue" points="1114.41,-84.6023 1124.99,-83.9813 1116.33,-77.8711 1114.41,-84.6023"/>
</g>
<!-- Node69 -->
<g id="node13" class="node"><title>Node69</title>
<g id="a_node13"><a xlink:href="_setup__2007__07_8cc.html" target="_top" xlink:title="src/expconfig/setups\l/Setup_2007_07.cc">
<polygon fill="white" stroke="black" points="776.5,-6 776.5,-36 883.5,-36 883.5,-6 776.5,-6"/>
<text text-anchor="start" x="784.5" y="-24" font-family="Helvetica,sans-Serif" font-size="10.00">src/expconfig/setups</text>
<text text-anchor="middle" x="830" y="-13" font-family="Helvetica,sans-Serif" font-size="10.00">/Setup_2007_07.cc</text>
</a>
</g>
</g>
<!-- Node67&#45;&gt;Node69 -->
<g id="edge12" class="edge"><title>Node67&#45;&gt;Node69</title>
<path fill="none" stroke="midnightblue" d="M1113.75,-81.0921C1109.79,-79.9821 1105.84,-78.9359 1102,-78 1010.42,-55.6877 984.578,-64.3123 893,-42 885.976,-40.2886 878.594,-38.2084 871.455,-36.0444"/>
<polygon fill="midnightblue" stroke="midnightblue" points="1112.96,-84.5099 1123.55,-83.9556 1114.93,-77.7909 1112.96,-84.5099"/>
</g>
<!-- Node67&#45;&gt;Node70 -->
<g id="edge13" class="edge"><title>Node67&#45;&gt;Node70</title>
<path fill="none" stroke="midnightblue" d="M1117.04,-80.3918C1080.31,-66.9049 1030.31,-48.5488 996.244,-36.0413"/>
<polygon fill="midnightblue" stroke="midnightblue" points="1115.96,-83.722 1126.55,-83.8831 1118.37,-77.1509 1115.96,-83.722"/>
</g>
<!-- Node72&#45;&gt;Node71 -->
<g id="edge17" class="edge"><title>Node72&#45;&gt;Node71</title>
<path fill="none" stroke="midnightblue" d="M1313.82,-81.3008C1273.07,-70.174 1218.33,-55.2211 1170,-42 1163.03,-40.0929 1155.68,-38.0821 1148.45,-36.1001"/>
<polygon fill="midnightblue" stroke="midnightblue" points="1313.04,-84.7145 1323.61,-83.972 1314.88,-77.9616 1313.04,-84.7145"/>
</g>
<!-- Node73 -->
<g id="node17" class="node"><title>Node73</title>
<g id="a_node17"><a xlink:href="_setup__2010__09___compton_8cc.html" target="_top" xlink:title="src/expconfig/setups\l/Setup_2010_09_Compton.cc">
<polygon fill="white" stroke="black" points="1179,-6 1179,-36 1325,-36 1325,-6 1179,-6"/>
<text text-anchor="start" x="1187" y="-24" font-family="Helvetica,sans-Serif" font-size="10.00">src/expconfig/setups</text>
<text text-anchor="middle" x="1252" y="-13" font-family="Helvetica,sans-Serif" font-size="10.00">/Setup_2010_09_Compton.cc</text>
</a>
</g>
</g>
<!-- Node72&#45;&gt;Node73 -->
<g id="edge18" class="edge"><title>Node72&#45;&gt;Node73</title>
<path fill="none" stroke="midnightblue" d="M1343.39,-78.467C1321.91,-65.1993 1294.02,-47.9633 1274.72,-36.0413"/>
<polygon fill="midnightblue" stroke="midnightblue" points="1341.81,-81.6041 1352.15,-83.8831 1345.49,-75.6492 1341.81,-81.6041"/>
</g>
<!-- Node76 -->
<g id="node20" class="node"><title>Node76</title>
<g id="a_node20"><a xlink:href="_setup__2014__07___e_p_t___prod_8cc.html" target="_top" xlink:title="src/expconfig/setups\l/Setup_2014_07_EPT_Prod.cc">
<polygon fill="white" stroke="black" points="1343.5,-6 1343.5,-36 1494.5,-36 1494.5,-6 1343.5,-6"/>
<text text-anchor="start" x="1351.5" y="-24" font-family="Helvetica,sans-Serif" font-size="10.00">src/expconfig/setups</text>
<text text-anchor="middle" x="1419" y="-13" font-family="Helvetica,sans-Serif" font-size="10.00">/Setup_2014_07_EPT_Prod.cc</text>
</a>
</g>
</g>
<!-- Node75&#45;&gt;Node76 -->
<g id="edge21" class="edge"><title>Node75&#45;&gt;Node76</title>
<path fill="none" stroke="midnightblue" d="M1619.58,-80.9509C1616.34,-79.9451 1613.13,-78.9549 1610,-78 1561.91,-63.3196 1506.79,-47.2369 1468.16,-36.0881"/>
<polygon fill="midnightblue" stroke="midnightblue" points="1618.73,-84.3526 1629.32,-83.9952 1620.82,-77.6713 1618.73,-84.3526"/>
</g>
<!-- Node77 -->
<g id="node21" class="node"><title>Node77</title>
<g id="a_node21"><a xlink:href="_setup__2014__10___e_p_t___prod_8cc.html" target="_top" xlink:title="src/expconfig/setups\l/Setup_2014_10_EPT_Prod.cc">
<polygon fill="white" stroke="black" points="1512.5,-6 1512.5,-36 1663.5,-36 1663.5,-6 1512.5,-6"/>
<text text-anchor="start" x="1520.5" y="-24" font-family="Helvetica,sans-Serif" font-size="10.00">src/expconfig/setups</text>
<text text-anchor="middle" x="1588" y="-13" font-family="Helvetica,sans-Serif" font-size="10.00">/Setup_2014_10_EPT_Prod.cc</text>
</a>
</g>
</g>
<!-- Node75&#45;&gt;Node77 -->
<g id="edge22" class="edge"><title>Node75&#45;&gt;Node77</title>
<path fill="none" stroke="midnightblue" d="M1649.39,-76.8941C1634.9,-63.9322 1616.72,-47.6775 1603.92,-36.2309"/>
<polygon fill="midnightblue" stroke="midnightblue" points="1647.22,-79.6487 1657.01,-83.705 1651.89,-74.4304 1647.22,-79.6487"/>
</g>
<!-- Node78 -->
<g id="node22" class="node"><title>Node78</title>
<g id="a_node22"><a xlink:href="_setup__2014__12___e_p_t___prod_8cc.html" target="_top" xlink:title="src/expconfig/setups\l/Setup_2014_12_EPT_Prod.cc">
<polygon fill="white" stroke="black" points="1681.5,-6 1681.5,-36 1832.5,-36 1832.5,-6 1681.5,-6"/>
<text text-anchor="start" x="1689.5" y="-24" font-family="Helvetica,sans-Serif" font-size="10.00">src/expconfig/setups</text>
<text text-anchor="middle" x="1757" y="-13" font-family="Helvetica,sans-Serif" font-size="10.00">/Setup_2014_12_EPT_Prod.cc</text>
</a>
</g>
</g>
<!-- Node75&#45;&gt;Node78 -->
<g id="edge23" class="edge"><title>Node75&#45;&gt;Node78</title>
<path fill="none" stroke="midnightblue" d="M1696.33,-76.8941C1710.65,-63.9322 1728.62,-47.6775 1741.27,-36.2309"/>
<polygon fill="midnightblue" stroke="midnightblue" points="1693.87,-74.4004 1688.8,-83.705 1698.56,-79.5912 1693.87,-74.4004"/>
</g>
<!-- Node79 -->
<g id="node23" class="node"><title>Node79</title>
<g id="a_node23"><a xlink:href="_setup__2014___e_p_t_8cc.html" target="_top" xlink:title="src/expconfig/setups\l/Setup_2014_EPT.cc">
<polygon fill="white" stroke="black" points="1851,-6 1851,-36 1961,-36 1961,-6 1851,-6"/>
<text text-anchor="start" x="1859" y="-24" font-family="Helvetica,sans-Serif" font-size="10.00">src/expconfig/setups</text>
<text text-anchor="middle" x="1906" y="-13" font-family="Helvetica,sans-Serif" font-size="10.00">/Setup_2014_EPT.cc</text>
</a>
</g>
</g>
<!-- Node75&#45;&gt;Node79 -->
<g id="edge24" class="edge"><title>Node75&#45;&gt;Node79</title>
<path fill="none" stroke="midnightblue" d="M1725.65,-80.8256C1767.08,-67.3128 1824.09,-48.7164 1862.85,-36.0749"/>
<polygon fill="midnightblue" stroke="midnightblue" points="1724.43,-77.5433 1716.01,-83.9719 1726.6,-84.1982 1724.43,-77.5433"/>
</g>
<!-- Node81&#45;&gt;Node80 -->
<g id="edge27" class="edge"><title>Node81&#45;&gt;Node80</title>
<path fill="none" stroke="midnightblue" d="M1889.56,-80.2193C1924.83,-66.7488 1972.62,-48.4956 2005.23,-36.0413"/>
<polygon fill="midnightblue" stroke="midnightblue" points="1888.06,-77.0456 1879.96,-83.8831 1890.55,-83.5849 1888.06,-77.0456"/>
</g>
<!-- Node83 -->
<g id="node27" class="node"><title>Node83</title>
<g id="a_node27"><a xlink:href="_setup__2017__03_8cc.html" target="_top" xlink:title="src/expconfig/setups\l/Setup_2017_03.cc">
<polygon fill="white" stroke="black" points="2122.5,-6 2122.5,-36 2229.5,-36 2229.5,-6 2122.5,-6"/>
<text text-anchor="start" x="2130.5" y="-24" font-family="Helvetica,sans-Serif" font-size="10.00">src/expconfig/setups</text>
<text text-anchor="middle" x="2176" y="-13" font-family="Helvetica,sans-Serif" font-size="10.00">/Setup_2017_03.cc</text>
</a>
</g>
</g>
<!-- Node82&#45;&gt;Node83 -->
<g id="edge29" class="edge"><title>Node82&#45;&gt;Node83</title>
<path fill="none" stroke="midnightblue" d="M2022.03,-80.2193C2057.65,-66.7488 2105.93,-48.4956 2138.86,-36.0413"/>
<polygon fill="midnightblue" stroke="midnightblue" points="2020.45,-77.0725 2012.34,-83.8831 2022.93,-83.6201 2020.45,-77.0725"/>
</g>
<!-- Node85 -->
<g id="node29" class="node"><title>Node85</title>
<g id="a_node29"><a xlink:href="_setup__2017__05_8cc.html" target="_top" xlink:title="src/expconfig/setups\l/Setup_2017_05.cc">
<polygon fill="white" stroke="black" points="2247.5,-6 2247.5,-36 2354.5,-36 2354.5,-6 2247.5,-6"/>
<text text-anchor="start" x="2255.5" y="-24" font-family="Helvetica,sans-Serif" font-size="10.00">src/expconfig/setups</text>
<text text-anchor="middle" x="2301" y="-13" font-family="Helvetica,sans-Serif" font-size="10.00">/Setup_2017_05.cc</text>
</a>
</g>
</g>
<!-- Node84&#45;&gt;Node85 -->
<g id="edge31" class="edge"><title>Node84&#45;&gt;Node85</title>
<path fill="none" stroke="midnightblue" d="M2147.03,-80.2193C2182.65,-66.7488 2230.93,-48.4956 2263.86,-36.0413"/>
<polygon fill="midnightblue" stroke="midnightblue" points="2145.45,-77.0725 2137.34,-83.8831 2147.93,-83.6201 2145.45,-77.0725"/>
</g>
<!-- Node87 -->
<g id="node31" class="node"><title>Node87</title>
<g id="a_node31"><a xlink:href="_setup__2017__12_8cc.html" target="_top" xlink:title="src/expconfig/setups\l/Setup_2017_12.cc">
<polygon fill="white" stroke="black" points="2372.5,-6 2372.5,-36 2479.5,-36 2479.5,-6 2372.5,-6"/>
<text text-anchor="start" x="2380.5" y="-24" font-family="Helvetica,sans-Serif" font-size="10.00">src/expconfig/setups</text>
<text text-anchor="middle" x="2426" y="-13" font-family="Helvetica,sans-Serif" font-size="10.00">/Setup_2017_12.cc</text>
</a>
</g>
</g>
<!-- Node86&#45;&gt;Node87 -->
<g id="edge33" class="edge"><title>Node86&#45;&gt;Node87</title>
<path fill="none" stroke="midnightblue" d="M2301.1,-74.4456C2331.01,-61.8855 2366.81,-46.8516 2392.4,-36.1065"/>
<polygon fill="midnightblue" stroke="midnightblue" points="2299.48,-71.3295 2291.61,-78.4281 2302.19,-77.7837 2299.48,-71.3295"/>
</g>
<!-- Node88 -->
<g id="node32" class="node"><title>Node88</title>
<g id="a_node32"><a xlink:href="_setup__2017_plus___new_tagger___base_8cc.html" target="_top" xlink:title="src/expconfig/setups\l/Setup_2017Plus_NewTagger\l_Base.cc">
<polygon fill="white" stroke="black" points="2498,-0.5 2498,-41.5 2644,-41.5 2644,-0.5 2498,-0.5"/>
<text text-anchor="start" x="2506" y="-29.5" font-family="Helvetica,sans-Serif" font-size="10.00">src/expconfig/setups</text>
<text text-anchor="start" x="2506" y="-18.5" font-family="Helvetica,sans-Serif" font-size="10.00">/Setup_2017Plus_NewTagger</text>
<text text-anchor="middle" x="2571" y="-7.5" font-family="Helvetica,sans-Serif" font-size="10.00">_Base.cc</text>
</a>
</g>
</g>
<!-- Node86&#45;&gt;Node88 -->
<g id="edge34" class="edge"><title>Node86&#45;&gt;Node88</title>
<path fill="none" stroke="midnightblue" d="M2328.37,-77.9331C2400.63,-61.1857 2420.06,-57.8273 2488,-42 2491.18,-41.2601 2494.42,-40.4997 2497.69,-39.7278"/>
<polygon fill="midnightblue" stroke="midnightblue" points="2327.25,-74.5989 2318.31,-80.2722 2328.84,-81.4171 2327.25,-74.5989"/>
</g>
<!-- Node89 -->
<g id="node33" class="node"><title>Node89</title>
<g id="a_node33"><a xlink:href="_setup__2018__03_8cc.html" target="_top" xlink:title="src/expconfig/setups\l/Setup_2018_03.cc">
<polygon fill="white" stroke="black" points="2662.5,-6 2662.5,-36 2769.5,-36 2769.5,-6 2662.5,-6"/>
<text text-anchor="start" x="2670.5" y="-24" font-family="Helvetica,sans-Serif" font-size="10.00">src/expconfig/setups</text>
<text text-anchor="middle" x="2716" y="-13" font-family="Helvetica,sans-Serif" font-size="10.00">/Setup_2018_03.cc</text>
</a>
</g>
</g>
<!-- Node86&#45;&gt;Node89 -->
<g id="edge35" class="edge"><title>Node86&#45;&gt;Node89</title>
<path fill="none" stroke="midnightblue" d="M2328.35,-78.0839C2472.98,-53.7658 2514.02,-71.456 2653,-42 2660.52,-40.4058 2668.42,-38.2762 2675.99,-36.0005"/>
<polygon fill="midnightblue" stroke="midnightblue" points="2327.48,-74.6829 2318.22,-79.8278 2328.66,-81.5815 2327.48,-74.6829"/>
</g>
</g>
</svg>
