<?xml version="1.0" encoding="UTF-8" standalone="no"?>
<!DOCTYPE svg PUBLIC "-//W3C//DTD SVG 1.1//EN"
 "http://www.w3.org/Graphics/SVG/1.1/DTD/svg11.dtd">
<!-- Generated by graphviz version 2.36.0 (20140111.2315)
 -->
<!-- Title: src/calibration/modules/TAPS_ShortEnergy.h Pages: 1 -->
<svg width="1236pt" height="118pt"
 viewBox="0.00 0.00 1236.00 118.00" xmlns="http://www.w3.org/2000/svg" xmlns:xlink="http://www.w3.org/1999/xlink">
<g id="graph0" class="graph" transform="scale(1 1) rotate(0) translate(4 114)">
<title>src/calibration/modules/TAPS_ShortEnergy.h</title>
<polygon fill="white" stroke="none" points="-4,4 -4,-114 1232,-114 1232,4 -4,4"/>
<!-- Node52 -->
<g id="node1" class="node"><title>Node52</title>
<polygon fill="#bfbfbf" stroke="black" points="546.5,-79 546.5,-109 663.5,-109 663.5,-79 546.5,-79"/>
<text text-anchor="start" x="554.5" y="-97" font-family="Helvetica,sans-Serif" font-size="10.00">src/calibration/modules</text>
<text text-anchor="middle" x="605" y="-86" font-family="Helvetica,sans-Serif" font-size="10.00">/TAPS_ShortEnergy.h</text>
</g>
<!-- Node53 -->
<g id="node2" class="node"><title>Node53</title>
<g id="a_node2"><a xlink:href="calibration_2modules_2_t_a_p_s___short_energy_8cc.html" target="_top" xlink:title="src/calibration/modules\l/TAPS_ShortEnergy.cc">
<polygon fill="white" stroke="black" points="-0.5,-6 -0.5,-36 118.5,-36 118.5,-6 -0.5,-6"/>
<text text-anchor="start" x="7.5" y="-24" font-family="Helvetica,sans-Serif" font-size="10.00">src/calibration/modules</text>
<text text-anchor="middle" x="59" y="-13" font-family="Helvetica,sans-Serif" font-size="10.00">/TAPS_ShortEnergy.cc</text>
</a>
</g>
</g>
<!-- Node52&#45;&gt;Node53 -->
<g id="edge1" class="edge"><title>Node52&#45;&gt;Node53</title>
<path fill="none" stroke="midnightblue" d="M536.193,-89.5502C442.788,-83.985 270.99,-70.6148 127,-42 119.034,-40.417 110.656,-38.3208 102.607,-36.0814"/>
<polygon fill="midnightblue" stroke="midnightblue" points="536.174,-93.055 546.361,-90.1436 536.582,-86.0669 536.174,-93.055"/>
</g>
<!-- Node54 -->
<g id="node3" class="node"><title>Node54</title>
<g id="a_node3"><a xlink:href="_setup__2007___base_8cc.html" target="_top" xlink:title="src/expconfig/setups\l/Setup_2007_Base.cc">
<polygon fill="white" stroke="black" points="136.5,-6 136.5,-36 249.5,-36 249.5,-6 136.5,-6"/>
<text text-anchor="start" x="144.5" y="-24" font-family="Helvetica,sans-Serif" font-size="10.00">src/expconfig/setups</text>
<text text-anchor="middle" x="193" y="-13" font-family="Helvetica,sans-Serif" font-size="10.00">/Setup_2007_Base.cc</text>
</a>
</g>
</g>
<!-- Node52&#45;&gt;Node54 -->
<g id="edge2" class="edge"><title>Node52&#45;&gt;Node54</title>
<path fill="none" stroke="midnightblue" d="M536.309,-85.9087C466.096,-77.953 354.158,-63.3082 259,-42 251.523,-40.3256 243.659,-38.2384 236.069,-36.0495"/>
<polygon fill="midnightblue" stroke="midnightblue" points="536.031,-89.3994 546.358,-87.0339 536.81,-82.4428 536.031,-89.3994"/>
</g>
<!-- Node55 -->
<g id="node4" class="node"><title>Node55</title>
<g id="a_node4"><a xlink:href="_setup__2010__03___base_8cc.html" target="_top" xlink:title="src/expconfig/setups\l/Setup_2010_03_Base.cc">
<polygon fill="white" stroke="black" points="268,-6 268,-36 396,-36 396,-6 268,-6"/>
<text text-anchor="start" x="276" y="-24" font-family="Helvetica,sans-Serif" font-size="10.00">src/expconfig/setups</text>
<text text-anchor="middle" x="332" y="-13" font-family="Helvetica,sans-Serif" font-size="10.00">/Setup_2010_03_Base.cc</text>
</a>
</g>
</g>
<!-- Node52&#45;&gt;Node55 -->
<g id="edge3" class="edge"><title>Node52&#45;&gt;Node55</title>
<path fill="none" stroke="midnightblue" d="M538.726,-76.4137C499.745,-66.5797 449.521,-53.7742 405,-42 397.886,-40.1186 390.391,-38.1032 383.022,-36.1026"/>
<polygon fill="midnightblue" stroke="midnightblue" points="538.343,-79.9265 548.895,-78.976 540.054,-73.1386 538.343,-79.9265"/>
</g>
<!-- Node56 -->
<g id="node5" class="node"><title>Node56</title>
<g id="a_node5"><a xlink:href="_setup__2014___e_p_t_8cc.html" target="_top" xlink:title="src/expconfig/setups\l/Setup_2014_EPT.cc">
<polygon fill="white" stroke="black" points="414,-6 414,-36 524,-36 524,-6 414,-6"/>
<text text-anchor="start" x="422" y="-24" font-family="Helvetica,sans-Serif" font-size="10.00">src/expconfig/setups</text>
<text text-anchor="middle" x="469" y="-13" font-family="Helvetica,sans-Serif" font-size="10.00">/Setup_2014_EPT.cc</text>
</a>
</g>
</g>
<!-- Node52&#45;&gt;Node56 -->
<g id="edge4" class="edge"><title>Node52&#45;&gt;Node56</title>
<path fill="none" stroke="midnightblue" d="M569.094,-74.2549C546.277,-62.3433 517.205,-47.1661 496.279,-36.2412"/>
<polygon fill="midnightblue" stroke="midnightblue" points="567.646,-77.4474 578.131,-78.9727 570.886,-71.2421 567.646,-77.4474"/>
</g>
<!-- Node57 -->
<g id="node6" class="node"><title>Node57</title>
<g id="a_node6"><a xlink:href="_setup__2015__01___pion_8cc.html" target="_top" xlink:title="src/expconfig/setups\l/Setup_2015_01_Pion.cc">
<polygon fill="white" stroke="black" points="542.5,-6 542.5,-36 667.5,-36 667.5,-6 542.5,-6"/>
<text text-anchor="start" x="550.5" y="-24" font-family="Helvetica,sans-Serif" font-size="10.00">src/expconfig/setups</text>
<text text-anchor="middle" x="605" y="-13" font-family="Helvetica,sans-Serif" font-size="10.00">/Setup_2015_01_Pion.cc</text>
</a>
</g>
</g>
<!-- Node52&#45;&gt;Node57 -->
<g id="edge5" class="edge"><title>Node52&#45;&gt;Node57</title>
<path fill="none" stroke="midnightblue" d="M605,-68.8976C605,-58.1314 605,-45.8005 605,-36.4856"/>
<polygon fill="midnightblue" stroke="midnightblue" points="601.5,-68.9727 605,-78.9727 608.5,-68.9727 601.5,-68.9727"/>
</g>
<!-- Node58 -->
<g id="node7" class="node"><title>Node58</title>
<g id="a_node7"><a xlink:href="_setup__2017__03_8cc.html" target="_top" xlink:title="src/expconfig/setups\l/Setup_2017_03.cc">
<polygon fill="white" stroke="black" points="685.5,-6 685.5,-36 792.5,-36 792.5,-6 685.5,-6"/>
<text text-anchor="start" x="693.5" y="-24" font-family="Helvetica,sans-Serif" font-size="10.00">src/expconfig/setups</text>
<text text-anchor="middle" x="739" y="-13" font-family="Helvetica,sans-Serif" font-size="10.00">/Setup_2017_03.cc</text>
</a>
</g>
</g>
<!-- Node52&#45;&gt;Node58 -->
<g id="edge6" class="edge"><title>Node52&#45;&gt;Node58</title>
<path fill="none" stroke="midnightblue" d="M640.378,-74.2549C662.859,-62.3433 691.503,-47.1661 712.122,-36.2412"/>
<polygon fill="midnightblue" stroke="midnightblue" points="638.672,-71.198 631.474,-78.9727 641.949,-77.3834 638.672,-71.198"/>
</g>
<!-- Node59 -->
<g id="node8" class="node"><title>Node59</title>
<g id="a_node8"><a xlink:href="_setup__2017__05_8cc.html" target="_top" xlink:title="src/expconfig/setups\l/Setup_2017_05.cc">
<polygon fill="white" stroke="black" points="810.5,-6 810.5,-36 917.5,-36 917.5,-6 810.5,-6"/>
<text text-anchor="start" x="818.5" y="-24" font-family="Helvetica,sans-Serif" font-size="10.00">src/expconfig/setups</text>
<text text-anchor="middle" x="864" y="-13" font-family="Helvetica,sans-Serif" font-size="10.00">/Setup_2017_05.cc</text>
</a>
</g>
</g>
<!-- Node52&#45;&gt;Node59 -->
<g id="edge7" class="edge"><title>Node52&#45;&gt;Node59</title>
<path fill="none" stroke="midnightblue" d="M672.168,-76.4566C710.12,-66.8755 758.36,-54.3065 801,-42 807.395,-40.1544 814.126,-38.1185 820.712,-36.0732"/>
<polygon fill="midnightblue" stroke="midnightblue" points="671.095,-73.1173 662.251,-78.9512 672.803,-79.9058 671.095,-73.1173"/>
</g>
<!-- Node60 -->
<g id="node9" class="node"><title>Node60</title>
<g id="a_node9"><a xlink:href="_setup__2017_plus___new_tagger___base_8cc.html" target="_top" xlink:title="src/expconfig/setups\l/Setup_2017Plus_NewTagger\l_Base.cc">
<polygon fill="white" stroke="black" points="936,-0.5 936,-41.5 1082,-41.5 1082,-0.5 936,-0.5"/>
<text text-anchor="start" x="944" y="-29.5" font-family="Helvetica,sans-Serif" font-size="10.00">src/expconfig/setups</text>
<text text-anchor="start" x="944" y="-18.5" font-family="Helvetica,sans-Serif" font-size="10.00">/Setup_2017Plus_NewTagger</text>
<text text-anchor="middle" x="1009" y="-7.5" font-family="Helvetica,sans-Serif" font-size="10.00">_Base.cc</text>
</a>
</g>
</g>
<!-- Node52&#45;&gt;Node60 -->
<g id="edge8" class="edge"><title>Node52&#45;&gt;Node60</title>
<path fill="none" stroke="midnightblue" d="M673.679,-83.6891C738.865,-74.474 839.462,-59.2727 926,-42 929.198,-41.3617 932.459,-40.6855 935.749,-39.9824"/>
<polygon fill="midnightblue" stroke="midnightblue" points="672.944,-80.2579 663.528,-85.1161 673.918,-87.1898 672.944,-80.2579"/>
</g>
<!-- Node61 -->
<g id="node10" class="node"><title>Node61</title>
<g id="a_node10"><a xlink:href="expconfig__helpers_8cc.html" target="_top" xlink:title="test/expconfig_helpers.cc">
<polygon fill="white" stroke="black" points="1100,-11.5 1100,-30.5 1228,-30.5 1228,-11.5 1100,-11.5"/>
<text text-anchor="middle" x="1164" y="-18.5" font-family="Helvetica,sans-Serif" font-size="10.00">test/expconfig_helpers.cc</text>
</a>
</g>
</g>
<!-- Node52&#45;&gt;Node61 -->
<g id="edge9" class="edge"><title>Node52&#45;&gt;Node61</title>
<path fill="none" stroke="midnightblue" d="M673.816,-89.3171C768.452,-83.4503 943.787,-69.6992 1091,-42 1106.37,-39.1084 1123.22,-34.5835 1136.86,-30.5686"/>
<polygon fill="midnightblue" stroke="midnightblue" points="673.567,-85.8257 663.798,-89.9273 673.992,-92.8127 673.567,-85.8257"/>
</g>
</g>
</svg>
