<?xml version="1.0" encoding="UTF-8" standalone="no"?>
<!DOCTYPE svg PUBLIC "-//W3C//DTD SVG 1.1//EN"
 "http://www.w3.org/Graphics/SVG/1.1/DTD/svg11.dtd">
<!-- Generated by graphviz version 2.36.0 (20140111.2315)
 -->
<!-- Title: src/calibration/modules/TaggEff.h Pages: 1 -->
<svg width="1046pt" height="108pt"
 viewBox="0.00 0.00 1046.00 108.00" xmlns="http://www.w3.org/2000/svg" xmlns:xlink="http://www.w3.org/1999/xlink">
<g id="graph0" class="graph" transform="scale(1 1) rotate(0) translate(4 104)">
<title>src/calibration/modules/TaggEff.h</title>
<polygon fill="white" stroke="none" points="-4,4 -4,-104 1042,-104 1042,4 -4,4"/>
<!-- Node49 -->
<g id="node1" class="node"><title>Node49</title>
<polygon fill="#bfbfbf" stroke="black" points="487.5,-69 487.5,-99 604.5,-99 604.5,-69 487.5,-69"/>
<text text-anchor="start" x="495.5" y="-87" font-family="Helvetica,sans-Serif" font-size="10.00">src/calibration/modules</text>
<text text-anchor="middle" x="546" y="-76" font-family="Helvetica,sans-Serif" font-size="10.00">/TaggEff.h</text>
</g>
<!-- Node50 -->
<g id="node2" class="node"><title>Node50</title>
<g id="a_node2"><a xlink:href="_ant-make_tagg_eff_8cc.html" target="_top" xlink:title="progs/Ant&#45;makeTaggEff.cc">
<polygon fill="white" stroke="black" points="0,-6.5 0,-25.5 134,-25.5 134,-6.5 0,-6.5"/>
<text text-anchor="middle" x="67" y="-13.5" font-family="Helvetica,sans-Serif" font-size="10.00">progs/Ant&#45;makeTaggEff.cc</text>
</a>
</g>
</g>
<!-- Node49&#45;&gt;Node50 -->
<g id="edge1" class="edge"><title>Node49&#45;&gt;Node50</title>
<path fill="none" stroke="midnightblue" d="M477.428,-75.7806C397.068,-66.9829 260.002,-50.9265 143,-32 131.45,-30.1316 118.972,-27.8007 107.532,-25.5375"/>
<polygon fill="midnightblue" stroke="midnightblue" points="477.102,-79.2656 487.422,-76.8692 477.86,-72.3068 477.102,-79.2656"/>
</g>
<!-- Node51 -->
<g id="node3" class="node"><title>Node51</title>
<g id="a_node3"><a xlink:href="analysis_2slowcontrol_2processors_2_tagg_eff_8cc.html" target="_top" xlink:title="src/analysis/slowcontrol\l/processors/TaggEff.cc">
<polygon fill="white" stroke="black" points="152,-1 152,-31 274,-31 274,-1 152,-1"/>
<text text-anchor="start" x="160" y="-19" font-family="Helvetica,sans-Serif" font-size="10.00">src/analysis/slowcontrol</text>
<text text-anchor="middle" x="213" y="-8" font-family="Helvetica,sans-Serif" font-size="10.00">/processors/TaggEff.cc</text>
</a>
</g>
</g>
<!-- Node49&#45;&gt;Node51 -->
<g id="edge2" class="edge"><title>Node49&#45;&gt;Node51</title>
<path fill="none" stroke="midnightblue" d="M477.455,-70.0882C424.339,-59.9907 348.93,-45.4551 283,-32 280.077,-31.4035 277.087,-30.7871 274.069,-30.1596"/>
<polygon fill="midnightblue" stroke="midnightblue" points="476.961,-73.5569 487.439,-71.9837 478.267,-66.6798 476.961,-73.5569"/>
</g>
<!-- Node52 -->
<g id="node4" class="node"><title>Node52</title>
<g id="a_node4"><a xlink:href="calibration_2modules_2_tagg_eff_8cc.html" target="_top" xlink:title="src/calibration/modules\l/TaggEff.cc">
<polygon fill="white" stroke="black" points="292.5,-1 292.5,-31 409.5,-31 409.5,-1 292.5,-1"/>
<text text-anchor="start" x="300.5" y="-19" font-family="Helvetica,sans-Serif" font-size="10.00">src/calibration/modules</text>
<text text-anchor="middle" x="351" y="-8" font-family="Helvetica,sans-Serif" font-size="10.00">/TaggEff.cc</text>
</a>
</g>
</g>
<!-- Node49&#45;&gt;Node52 -->
<g id="edge3" class="edge"><title>Node49&#45;&gt;Node52</title>
<path fill="none" stroke="midnightblue" d="M494.566,-65.5916C462.677,-54.7984 422.251,-41.1157 392.428,-31.0218"/>
<polygon fill="midnightblue" stroke="midnightblue" points="493.573,-68.9506 504.168,-68.8413 495.818,-62.3201 493.573,-68.9506"/>
</g>
<!-- Node53 -->
<g id="node5" class="node"><title>Node53</title>
<g id="a_node5"><a xlink:href="_setup__2014___e_p_t_8cc.html" target="_top" xlink:title="src/expconfig/setups\l/Setup_2014_EPT.cc">
<polygon fill="white" stroke="black" points="428,-1 428,-31 538,-31 538,-1 428,-1"/>
<text text-anchor="start" x="436" y="-19" font-family="Helvetica,sans-Serif" font-size="10.00">src/expconfig/setups</text>
<text text-anchor="middle" x="483" y="-8" font-family="Helvetica,sans-Serif" font-size="10.00">/Setup_2014_EPT.cc</text>
</a>
</g>
</g>
<!-- Node49&#45;&gt;Node53 -->
<g id="edge4" class="edge"><title>Node49&#45;&gt;Node53</title>
<path fill="none" stroke="midnightblue" d="M525.185,-61.1939C515.799,-51.3605 504.976,-40.0228 496.643,-31.2931"/>
<polygon fill="midnightblue" stroke="midnightblue" points="522.893,-63.8621 532.33,-68.679 527.957,-59.0287 522.893,-63.8621"/>
</g>
<!-- Node54 -->
<g id="node6" class="node"><title>Node54</title>
<g id="a_node6"><a xlink:href="_setup__2017__03_8cc.html" target="_top" xlink:title="src/expconfig/setups\l/Setup_2017_03.cc">
<polygon fill="white" stroke="black" points="556.5,-1 556.5,-31 663.5,-31 663.5,-1 556.5,-1"/>
<text text-anchor="start" x="564.5" y="-19" font-family="Helvetica,sans-Serif" font-size="10.00">src/expconfig/setups</text>
<text text-anchor="middle" x="610" y="-8" font-family="Helvetica,sans-Serif" font-size="10.00">/Setup_2017_03.cc</text>
</a>
</g>
</g>
<!-- Node49&#45;&gt;Node54 -->
<g id="edge5" class="edge"><title>Node49&#45;&gt;Node54</title>
<path fill="none" stroke="midnightblue" d="M566.863,-61.4855C576.463,-51.5852 587.591,-40.1092 596.14,-31.2931"/>
<polygon fill="midnightblue" stroke="midnightblue" points="564.336,-59.0634 559.887,-68.679 569.361,-63.9365 564.336,-59.0634"/>
</g>
<!-- Node55 -->
<g id="node7" class="node"><title>Node55</title>
<g id="a_node7"><a xlink:href="_setup__2017__05_8cc.html" target="_top" xlink:title="src/expconfig/setups\l/Setup_2017_05.cc">
<polygon fill="white" stroke="black" points="681.5,-1 681.5,-31 788.5,-31 788.5,-1 681.5,-1"/>
<text text-anchor="start" x="689.5" y="-19" font-family="Helvetica,sans-Serif" font-size="10.00">src/expconfig/setups</text>
<text text-anchor="middle" x="735" y="-8" font-family="Helvetica,sans-Serif" font-size="10.00">/Setup_2017_05.cc</text>
</a>
</g>
</g>
<!-- Node49&#45;&gt;Node55 -->
<g id="edge6" class="edge"><title>Node49&#45;&gt;Node55</title>
<path fill="none" stroke="midnightblue" d="M596.251,-65.4519C627.097,-54.6805 666.066,-41.0722 694.847,-31.0218"/>
<polygon fill="midnightblue" stroke="midnightblue" points="594.832,-62.2401 586.545,-68.8413 597.14,-68.8488 594.832,-62.2401"/>
</g>
<!-- Node56 -->
<g id="node8" class="node"><title>Node56</title>
<g id="a_node8"><a xlink:href="_setup__2017__12_8cc.html" target="_top" xlink:title="src/expconfig/setups\l/Setup_2017_12.cc">
<polygon fill="white" stroke="black" points="806.5,-1 806.5,-31 913.5,-31 913.5,-1 806.5,-1"/>
<text text-anchor="start" x="814.5" y="-19" font-family="Helvetica,sans-Serif" font-size="10.00">src/expconfig/setups</text>
<text text-anchor="middle" x="860" y="-8" font-family="Helvetica,sans-Serif" font-size="10.00">/Setup_2017_12.cc</text>
</a>
</g>
</g>
<!-- Node49&#45;&gt;Node56 -->
<g id="edge7" class="edge"><title>Node49&#45;&gt;Node56</title>
<path fill="none" stroke="midnightblue" d="M614.527,-69.7155C665.058,-59.7643 735.428,-45.5815 797,-32 800.074,-31.3219 803.23,-30.6127 806.412,-29.8873"/>
<polygon fill="midnightblue" stroke="midnightblue" points="613.831,-66.2852 604.694,-71.6479 615.181,-73.1538 613.831,-66.2852"/>
</g>
<!-- Node57 -->
<g id="node9" class="node"><title>Node57</title>
<g id="a_node9"><a xlink:href="_setup__2018__03_8cc.html" target="_top" xlink:title="src/expconfig/setups\l/Setup_2018_03.cc">
<polygon fill="white" stroke="black" points="931.5,-1 931.5,-31 1038.5,-31 1038.5,-1 931.5,-1"/>
<text text-anchor="start" x="939.5" y="-19" font-family="Helvetica,sans-Serif" font-size="10.00">src/expconfig/setups</text>
<text text-anchor="middle" x="985" y="-8" font-family="Helvetica,sans-Serif" font-size="10.00">/Setup_2018_03.cc</text>
</a>
</g>
</g>
<!-- Node49&#45;&gt;Node57 -->
<g id="edge8" class="edge"><title>Node49&#45;&gt;Node57</title>
<path fill="none" stroke="midnightblue" d="M614.921,-75.7236C690.576,-67.2549 815.462,-51.8581 922,-32 925.095,-31.4231 928.266,-30.793 931.461,-30.1282"/>
<polygon fill="midnightblue" stroke="midnightblue" points="614.132,-72.2896 604.579,-76.8723 614.905,-79.2468 614.132,-72.2896"/>
</g>
</g>
</svg>
