<?xml version="1.0" encoding="UTF-8" standalone="no"?>
<!DOCTYPE svg PUBLIC "-//W3C//DTD SVG 1.1//EN"
 "http://www.w3.org/Graphics/SVG/1.1/DTD/svg11.dtd">
<!-- Generated by graphviz version 2.36.0 (20140111.2315)
 -->
<!-- Title: src/calibration/modules/CB_Energy.h Pages: 1 -->
<svg width="1384pt" height="118pt"
 viewBox="0.00 0.00 1384.00 118.00" xmlns="http://www.w3.org/2000/svg" xmlns:xlink="http://www.w3.org/1999/xlink">
<g id="graph0" class="graph" transform="scale(1 1) rotate(0) translate(4 114)">
<title>src/calibration/modules/CB_Energy.h</title>
<polygon fill="white" stroke="none" points="-4,4 -4,-114 1380,-114 1380,4 -4,4"/>
<!-- Node51 -->
<g id="node1" class="node"><title>Node51</title>
<polygon fill="#bfbfbf" stroke="black" points="611.5,-79 611.5,-109 728.5,-109 728.5,-79 611.5,-79"/>
<text text-anchor="start" x="619.5" y="-97" font-family="Helvetica,sans-Serif" font-size="10.00">src/calibration/modules</text>
<text text-anchor="middle" x="670" y="-86" font-family="Helvetica,sans-Serif" font-size="10.00">/CB_Energy.h</text>
</g>
<!-- Node52 -->
<g id="node2" class="node"><title>Node52</title>
<g id="a_node2"><a xlink:href="calibration_2modules_2_c_b___energy_8cc.html" target="_top" xlink:title="src/calibration/modules\l/CB_Energy.cc">
<polygon fill="white" stroke="black" points="-0.5,-6 -0.5,-36 116.5,-36 116.5,-6 -0.5,-6"/>
<text text-anchor="start" x="7.5" y="-24" font-family="Helvetica,sans-Serif" font-size="10.00">src/calibration/modules</text>
<text text-anchor="middle" x="58" y="-13" font-family="Helvetica,sans-Serif" font-size="10.00">/CB_Energy.cc</text>
</a>
</g>
</g>
<!-- Node51&#45;&gt;Node52 -->
<g id="edge1" class="edge"><title>Node51&#45;&gt;Node52</title>
<path fill="none" stroke="midnightblue" d="M601.343,-90.9027C497.405,-86.7568 294.283,-74.8544 125,-42 117.016,-40.4504 108.621,-38.342 100.579,-36.0734"/>
<polygon fill="midnightblue" stroke="midnightblue" points="601.263,-94.4021 611.391,-91.2915 601.534,-87.4074 601.263,-94.4021"/>
</g>
<!-- Node53 -->
<g id="node3" class="node"><title>Node53</title>
<g id="a_node3"><a xlink:href="_setup__2007___base_8cc.html" target="_top" xlink:title="src/expconfig/setups\l/Setup_2007_Base.cc">
<polygon fill="white" stroke="black" points="134.5,-6 134.5,-36 247.5,-36 247.5,-6 134.5,-6"/>
<text text-anchor="start" x="142.5" y="-24" font-family="Helvetica,sans-Serif" font-size="10.00">src/expconfig/setups</text>
<text text-anchor="middle" x="191" y="-13" font-family="Helvetica,sans-Serif" font-size="10.00">/Setup_2007_Base.cc</text>
</a>
</g>
</g>
<!-- Node51&#45;&gt;Node53 -->
<g id="edge2" class="edge"><title>Node51&#45;&gt;Node53</title>
<path fill="none" stroke="midnightblue" d="M601.344,-88.1428C518.903,-81.4802 376.756,-67.3436 257,-42 249.386,-40.3887 241.384,-38.3063 233.681,-36.0959"/>
<polygon fill="midnightblue" stroke="midnightblue" points="601.096,-91.6341 611.342,-88.9378 601.651,-84.6561 601.096,-91.6341"/>
</g>
<!-- Node54 -->
<g id="node4" class="node"><title>Node54</title>
<g id="a_node4"><a xlink:href="_setup__2010__03___base_8cc.html" target="_top" xlink:title="src/expconfig/setups\l/Setup_2010_03_Base.cc">
<polygon fill="white" stroke="black" points="266,-6 266,-36 394,-36 394,-6 266,-6"/>
<text text-anchor="start" x="274" y="-24" font-family="Helvetica,sans-Serif" font-size="10.00">src/expconfig/setups</text>
<text text-anchor="middle" x="330" y="-13" font-family="Helvetica,sans-Serif" font-size="10.00">/Setup_2010_03_Base.cc</text>
</a>
</g>
</g>
<!-- Node51&#45;&gt;Node54 -->
<g id="edge3" class="edge"><title>Node51&#45;&gt;Node54</title>
<path fill="none" stroke="midnightblue" d="M601.221,-81.3971C547.114,-71.9 469.939,-57.5375 403,-42 395.32,-40.2173 387.23,-38.1716 379.344,-36.0842"/>
<polygon fill="midnightblue" stroke="midnightblue" points="600.934,-84.8998 611.387,-83.1718 602.138,-78.0041 600.934,-84.8998"/>
</g>
<!-- Node55 -->
<g id="node5" class="node"><title>Node55</title>
<g id="a_node5"><a xlink:href="_setup__2014___e_p_t_8cc.html" target="_top" xlink:title="src/expconfig/setups\l/Setup_2014_EPT.cc">
<polygon fill="white" stroke="black" points="412,-6 412,-36 522,-36 522,-6 412,-6"/>
<text text-anchor="start" x="420" y="-24" font-family="Helvetica,sans-Serif" font-size="10.00">src/expconfig/setups</text>
<text text-anchor="middle" x="467" y="-13" font-family="Helvetica,sans-Serif" font-size="10.00">/Setup_2014_EPT.cc</text>
</a>
</g>
</g>
<!-- Node51&#45;&gt;Node55 -->
<g id="edge4" class="edge"><title>Node51&#45;&gt;Node55</title>
<path fill="none" stroke="midnightblue" d="M620.414,-75.657C585.687,-63.5112 539.867,-47.4854 507.37,-36.1195"/>
<polygon fill="midnightblue" stroke="midnightblue" points="619.299,-78.9749 629.894,-78.9727 621.61,-72.3674 619.299,-78.9749"/>
</g>
<!-- Node56 -->
<g id="node6" class="node"><title>Node56</title>
<g id="a_node6"><a xlink:href="_setup__2015__01___pion_8cc.html" target="_top" xlink:title="src/expconfig/setups\l/Setup_2015_01_Pion.cc">
<polygon fill="white" stroke="black" points="540.5,-6 540.5,-36 665.5,-36 665.5,-6 540.5,-6"/>
<text text-anchor="start" x="548.5" y="-24" font-family="Helvetica,sans-Serif" font-size="10.00">src/expconfig/setups</text>
<text text-anchor="middle" x="603" y="-13" font-family="Helvetica,sans-Serif" font-size="10.00">/Setup_2015_01_Pion.cc</text>
</a>
</g>
</g>
<!-- Node51&#45;&gt;Node56 -->
<g id="edge5" class="edge"><title>Node51&#45;&gt;Node56</title>
<path fill="none" stroke="midnightblue" d="M649.762,-71.5539C639.055,-60.2075 626.192,-46.5768 616.67,-36.4856"/>
<polygon fill="midnightblue" stroke="midnightblue" points="647.354,-74.1018 656.763,-78.9727 652.445,-69.2975 647.354,-74.1018"/>
</g>
<!-- Node57 -->
<g id="node7" class="node"><title>Node57</title>
<g id="a_node7"><a xlink:href="_setup__2017__03_8cc.html" target="_top" xlink:title="src/expconfig/setups\l/Setup_2017_03.cc">
<polygon fill="white" stroke="black" points="683.5,-6 683.5,-36 790.5,-36 790.5,-6 683.5,-6"/>
<text text-anchor="start" x="691.5" y="-24" font-family="Helvetica,sans-Serif" font-size="10.00">src/expconfig/setups</text>
<text text-anchor="middle" x="737" y="-13" font-family="Helvetica,sans-Serif" font-size="10.00">/Setup_2017_03.cc</text>
</a>
</g>
</g>
<!-- Node51&#45;&gt;Node57 -->
<g id="edge6" class="edge"><title>Node51&#45;&gt;Node57</title>
<path fill="none" stroke="midnightblue" d="M690.238,-71.5539C700.945,-60.2075 713.808,-46.5768 723.33,-36.4856"/>
<polygon fill="midnightblue" stroke="midnightblue" points="687.555,-69.2975 683.237,-78.9727 692.646,-74.1018 687.555,-69.2975"/>
</g>
<!-- Node58 -->
<g id="node8" class="node"><title>Node58</title>
<g id="a_node8"><a xlink:href="_setup__2017__05_8cc.html" target="_top" xlink:title="src/expconfig/setups\l/Setup_2017_05.cc">
<polygon fill="white" stroke="black" points="808.5,-6 808.5,-36 915.5,-36 915.5,-6 808.5,-6"/>
<text text-anchor="start" x="816.5" y="-24" font-family="Helvetica,sans-Serif" font-size="10.00">src/expconfig/setups</text>
<text text-anchor="middle" x="862" y="-13" font-family="Helvetica,sans-Serif" font-size="10.00">/Setup_2017_05.cc</text>
</a>
</g>
</g>
<!-- Node51&#45;&gt;Node58 -->
<g id="edge7" class="edge"><title>Node51&#45;&gt;Node58</title>
<path fill="none" stroke="midnightblue" d="M717.321,-75.501C750.114,-63.3743 793.213,-47.4369 823.818,-36.1195"/>
<polygon fill="midnightblue" stroke="midnightblue" points="716.098,-72.2215 707.933,-78.9727 718.526,-78.787 716.098,-72.2215"/>
</g>
<!-- Node59 -->
<g id="node9" class="node"><title>Node59</title>
<g id="a_node9"><a xlink:href="_setup__2017_plus___new_tagger___base_8cc.html" target="_top" xlink:title="src/expconfig/setups\l/Setup_2017Plus_NewTagger\l_Base.cc">
<polygon fill="white" stroke="black" points="934,-0.5 934,-41.5 1080,-41.5 1080,-0.5 934,-0.5"/>
<text text-anchor="start" x="942" y="-29.5" font-family="Helvetica,sans-Serif" font-size="10.00">src/expconfig/setups</text>
<text text-anchor="start" x="942" y="-18.5" font-family="Helvetica,sans-Serif" font-size="10.00">/Setup_2017Plus_NewTagger</text>
<text text-anchor="middle" x="1007" y="-7.5" font-family="Helvetica,sans-Serif" font-size="10.00">_Base.cc</text>
</a>
</g>
</g>
<!-- Node51&#45;&gt;Node59 -->
<g id="edge8" class="edge"><title>Node51&#45;&gt;Node59</title>
<path fill="none" stroke="midnightblue" d="M738.605,-79.9631C789.803,-70.0552 861.415,-55.8183 924,-42 927.184,-41.297 930.434,-40.5671 933.715,-39.8201"/>
<polygon fill="midnightblue" stroke="midnightblue" points="737.802,-76.5535 728.647,-81.8856 739.129,-83.4266 737.802,-76.5535"/>
</g>
<!-- Node60 -->
<g id="node10" class="node"><title>Node60</title>
<g id="a_node10"><a xlink:href="_setup___c_b_source_calib_8cc.html" target="_top" xlink:title="src/expconfig/setups\l/Setup_CBSourceCalib.cc">
<polygon fill="white" stroke="black" points="1098.5,-6 1098.5,-36 1229.5,-36 1229.5,-6 1098.5,-6"/>
<text text-anchor="start" x="1106.5" y="-24" font-family="Helvetica,sans-Serif" font-size="10.00">src/expconfig/setups</text>
<text text-anchor="middle" x="1164" y="-13" font-family="Helvetica,sans-Serif" font-size="10.00">/Setup_CBSourceCalib.cc</text>
</a>
</g>
</g>
<!-- Node51&#45;&gt;Node60 -->
<g id="edge9" class="edge"><title>Node51&#45;&gt;Node60</title>
<path fill="none" stroke="midnightblue" d="M738.804,-87.5904C822.198,-80.3531 966.749,-65.6207 1089,-42 1097.6,-40.3383 1106.67,-38.2311 1115.41,-36.0117"/>
<polygon fill="midnightblue" stroke="midnightblue" points="738.359,-84.1156 728.695,-88.457 738.957,-91.0901 738.359,-84.1156"/>
</g>
<!-- Node61 -->
<g id="node11" class="node"><title>Node61</title>
<g id="a_node11"><a xlink:href="expconfig__helpers_8cc.html" target="_top" xlink:title="test/expconfig_helpers.cc">
<polygon fill="white" stroke="black" points="1248,-11.5 1248,-30.5 1376,-30.5 1376,-11.5 1248,-11.5"/>
<text text-anchor="middle" x="1312" y="-18.5" font-family="Helvetica,sans-Serif" font-size="10.00">test/expconfig_helpers.cc</text>
</a>
</g>
</g>
<!-- Node51&#45;&gt;Node61 -->
<g id="edge10" class="edge"><title>Node51&#45;&gt;Node61</title>
<path fill="none" stroke="midnightblue" d="M738.544,-90.7026C845.811,-86.2433 1059.55,-73.8753 1238,-42 1253.72,-39.1919 1270.96,-34.6219 1284.85,-30.5587"/>
<polygon fill="midnightblue" stroke="midnightblue" points="738.35,-87.2075 728.5,-91.1099 738.634,-94.2018 738.35,-87.2075"/>
</g>
</g>
</svg>
