<?xml version="1.0" encoding="UTF-8" standalone="no"?>
<!DOCTYPE svg PUBLIC "-//W3C//DTD SVG 1.1//EN"
 "http://www.w3.org/Graphics/SVG/1.1/DTD/svg11.dtd">
<!-- Generated by graphviz version 2.36.0 (20140111.2315)
 -->
<!-- Title: src/calibration/modules/CB_TimeWalk.h Pages: 1 -->
<svg width="1234pt" height="118pt"
 viewBox="0.00 0.00 1234.00 118.00" xmlns="http://www.w3.org/2000/svg" xmlns:xlink="http://www.w3.org/1999/xlink">
<g id="graph0" class="graph" transform="scale(1 1) rotate(0) translate(4 114)">
<title>src/calibration/modules/CB_TimeWalk.h</title>
<polygon fill="white" stroke="none" points="-4,4 -4,-114 1230,-114 1230,4 -4,4"/>
<!-- Node49 -->
<g id="node1" class="node"><title>Node49</title>
<polygon fill="#bfbfbf" stroke="black" points="544.5,-79 544.5,-109 661.5,-109 661.5,-79 544.5,-79"/>
<text text-anchor="start" x="552.5" y="-97" font-family="Helvetica,sans-Serif" font-size="10.00">src/calibration/modules</text>
<text text-anchor="middle" x="603" y="-86" font-family="Helvetica,sans-Serif" font-size="10.00">/CB_TimeWalk.h</text>
</g>
<!-- Node50 -->
<g id="node2" class="node"><title>Node50</title>
<g id="a_node2"><a xlink:href="calibration_2modules_2_c_b___time_walk_8cc.html" target="_top" xlink:title="src/calibration/modules\l/CB_TimeWalk.cc">
<polygon fill="white" stroke="black" points="-0.5,-6 -0.5,-36 116.5,-36 116.5,-6 -0.5,-6"/>
<text text-anchor="start" x="7.5" y="-24" font-family="Helvetica,sans-Serif" font-size="10.00">src/calibration/modules</text>
<text text-anchor="middle" x="58" y="-13" font-family="Helvetica,sans-Serif" font-size="10.00">/CB_TimeWalk.cc</text>
</a>
</g>
</g>
<!-- Node49&#45;&gt;Node50 -->
<g id="edge1" class="edge"><title>Node49&#45;&gt;Node50</title>
<path fill="none" stroke="midnightblue" d="M534.176,-89.6355C440.751,-84.1668 268.932,-70.9053 125,-42 117.145,-40.4225 108.887,-38.3291 100.956,-36.0906"/>
<polygon fill="midnightblue" stroke="midnightblue" points="534.163,-93.1404 544.346,-90.2181 534.563,-86.1518 534.163,-93.1404"/>
</g>
<!-- Node51 -->
<g id="node3" class="node"><title>Node51</title>
<g id="a_node3"><a xlink:href="_setup__2007___base_8cc.html" target="_top" xlink:title="src/expconfig/setups\l/Setup_2007_Base.cc">
<polygon fill="white" stroke="black" points="134.5,-6 134.5,-36 247.5,-36 247.5,-6 134.5,-6"/>
<text text-anchor="start" x="142.5" y="-24" font-family="Helvetica,sans-Serif" font-size="10.00">src/expconfig/setups</text>
<text text-anchor="middle" x="191" y="-13" font-family="Helvetica,sans-Serif" font-size="10.00">/Setup_2007_Base.cc</text>
</a>
</g>
</g>
<!-- Node49&#45;&gt;Node51 -->
<g id="edge2" class="edge"><title>Node49&#45;&gt;Node51</title>
<path fill="none" stroke="midnightblue" d="M534.309,-85.9087C464.096,-77.953 352.158,-63.3082 257,-42 249.523,-40.3256 241.659,-38.2384 234.069,-36.0495"/>
<polygon fill="midnightblue" stroke="midnightblue" points="534.031,-89.3994 544.358,-87.0339 534.81,-82.4428 534.031,-89.3994"/>
</g>
<!-- Node52 -->
<g id="node4" class="node"><title>Node52</title>
<g id="a_node4"><a xlink:href="_setup__2010__03___base_8cc.html" target="_top" xlink:title="src/expconfig/setups\l/Setup_2010_03_Base.cc">
<polygon fill="white" stroke="black" points="266,-6 266,-36 394,-36 394,-6 266,-6"/>
<text text-anchor="start" x="274" y="-24" font-family="Helvetica,sans-Serif" font-size="10.00">src/expconfig/setups</text>
<text text-anchor="middle" x="330" y="-13" font-family="Helvetica,sans-Serif" font-size="10.00">/Setup_2010_03_Base.cc</text>
</a>
</g>
</g>
<!-- Node49&#45;&gt;Node52 -->
<g id="edge3" class="edge"><title>Node49&#45;&gt;Node52</title>
<path fill="none" stroke="midnightblue" d="M536.726,-76.4137C497.745,-66.5797 447.521,-53.7742 403,-42 395.886,-40.1186 388.391,-38.1032 381.022,-36.1026"/>
<polygon fill="midnightblue" stroke="midnightblue" points="536.343,-79.9265 546.895,-78.976 538.054,-73.1386 536.343,-79.9265"/>
</g>
<!-- Node53 -->
<g id="node5" class="node"><title>Node53</title>
<g id="a_node5"><a xlink:href="_setup__2014___e_p_t_8cc.html" target="_top" xlink:title="src/expconfig/setups\l/Setup_2014_EPT.cc">
<polygon fill="white" stroke="black" points="412,-6 412,-36 522,-36 522,-6 412,-6"/>
<text text-anchor="start" x="420" y="-24" font-family="Helvetica,sans-Serif" font-size="10.00">src/expconfig/setups</text>
<text text-anchor="middle" x="467" y="-13" font-family="Helvetica,sans-Serif" font-size="10.00">/Setup_2014_EPT.cc</text>
</a>
</g>
</g>
<!-- Node49&#45;&gt;Node53 -->
<g id="edge4" class="edge"><title>Node49&#45;&gt;Node53</title>
<path fill="none" stroke="midnightblue" d="M567.094,-74.2549C544.277,-62.3433 515.205,-47.1661 494.279,-36.2412"/>
<polygon fill="midnightblue" stroke="midnightblue" points="565.646,-77.4474 576.131,-78.9727 568.886,-71.2421 565.646,-77.4474"/>
</g>
<!-- Node54 -->
<g id="node6" class="node"><title>Node54</title>
<g id="a_node6"><a xlink:href="_setup__2015__01___pion_8cc.html" target="_top" xlink:title="src/expconfig/setups\l/Setup_2015_01_Pion.cc">
<polygon fill="white" stroke="black" points="540.5,-6 540.5,-36 665.5,-36 665.5,-6 540.5,-6"/>
<text text-anchor="start" x="548.5" y="-24" font-family="Helvetica,sans-Serif" font-size="10.00">src/expconfig/setups</text>
<text text-anchor="middle" x="603" y="-13" font-family="Helvetica,sans-Serif" font-size="10.00">/Setup_2015_01_Pion.cc</text>
</a>
</g>
</g>
<!-- Node49&#45;&gt;Node54 -->
<g id="edge5" class="edge"><title>Node49&#45;&gt;Node54</title>
<path fill="none" stroke="midnightblue" d="M603,-68.8976C603,-58.1314 603,-45.8005 603,-36.4856"/>
<polygon fill="midnightblue" stroke="midnightblue" points="599.5,-68.9727 603,-78.9727 606.5,-68.9727 599.5,-68.9727"/>
</g>
<!-- Node55 -->
<g id="node7" class="node"><title>Node55</title>
<g id="a_node7"><a xlink:href="_setup__2017__03_8cc.html" target="_top" xlink:title="src/expconfig/setups\l/Setup_2017_03.cc">
<polygon fill="white" stroke="black" points="683.5,-6 683.5,-36 790.5,-36 790.5,-6 683.5,-6"/>
<text text-anchor="start" x="691.5" y="-24" font-family="Helvetica,sans-Serif" font-size="10.00">src/expconfig/setups</text>
<text text-anchor="middle" x="737" y="-13" font-family="Helvetica,sans-Serif" font-size="10.00">/Setup_2017_03.cc</text>
</a>
</g>
</g>
<!-- Node49&#45;&gt;Node55 -->
<g id="edge6" class="edge"><title>Node49&#45;&gt;Node55</title>
<path fill="none" stroke="midnightblue" d="M638.378,-74.2549C660.859,-62.3433 689.503,-47.1661 710.122,-36.2412"/>
<polygon fill="midnightblue" stroke="midnightblue" points="636.672,-71.198 629.474,-78.9727 639.949,-77.3834 636.672,-71.198"/>
</g>
<!-- Node56 -->
<g id="node8" class="node"><title>Node56</title>
<g id="a_node8"><a xlink:href="_setup__2017__05_8cc.html" target="_top" xlink:title="src/expconfig/setups\l/Setup_2017_05.cc">
<polygon fill="white" stroke="black" points="808.5,-6 808.5,-36 915.5,-36 915.5,-6 808.5,-6"/>
<text text-anchor="start" x="816.5" y="-24" font-family="Helvetica,sans-Serif" font-size="10.00">src/expconfig/setups</text>
<text text-anchor="middle" x="862" y="-13" font-family="Helvetica,sans-Serif" font-size="10.00">/Setup_2017_05.cc</text>
</a>
</g>
</g>
<!-- Node49&#45;&gt;Node56 -->
<g id="edge7" class="edge"><title>Node49&#45;&gt;Node56</title>
<path fill="none" stroke="midnightblue" d="M670.168,-76.4566C708.12,-66.8755 756.36,-54.3065 799,-42 805.395,-40.1544 812.126,-38.1185 818.712,-36.0732"/>
<polygon fill="midnightblue" stroke="midnightblue" points="669.095,-73.1173 660.251,-78.9512 670.803,-79.9058 669.095,-73.1173"/>
</g>
<!-- Node57 -->
<g id="node9" class="node"><title>Node57</title>
<g id="a_node9"><a xlink:href="_setup__2017_plus___new_tagger___base_8cc.html" target="_top" xlink:title="src/expconfig/setups\l/Setup_2017Plus_NewTagger\l_Base.cc">
<polygon fill="white" stroke="black" points="934,-0.5 934,-41.5 1080,-41.5 1080,-0.5 934,-0.5"/>
<text text-anchor="start" x="942" y="-29.5" font-family="Helvetica,sans-Serif" font-size="10.00">src/expconfig/setups</text>
<text text-anchor="start" x="942" y="-18.5" font-family="Helvetica,sans-Serif" font-size="10.00">/Setup_2017Plus_NewTagger</text>
<text text-anchor="middle" x="1007" y="-7.5" font-family="Helvetica,sans-Serif" font-size="10.00">_Base.cc</text>
</a>
</g>
</g>
<!-- Node49&#45;&gt;Node57 -->
<g id="edge8" class="edge"><title>Node49&#45;&gt;Node57</title>
<path fill="none" stroke="midnightblue" d="M671.679,-83.6891C736.865,-74.474 837.462,-59.2727 924,-42 927.198,-41.3617 930.459,-40.6855 933.749,-39.9824"/>
<polygon fill="midnightblue" stroke="midnightblue" points="670.944,-80.2579 661.528,-85.1161 671.918,-87.1898 670.944,-80.2579"/>
</g>
<!-- Node58 -->
<g id="node10" class="node"><title>Node58</title>
<g id="a_node10"><a xlink:href="expconfig__helpers_8cc.html" target="_top" xlink:title="test/expconfig_helpers.cc">
<polygon fill="white" stroke="black" points="1098,-11.5 1098,-30.5 1226,-30.5 1226,-11.5 1098,-11.5"/>
<text text-anchor="middle" x="1162" y="-18.5" font-family="Helvetica,sans-Serif" font-size="10.00">test/expconfig_helpers.cc</text>
</a>
</g>
</g>
<!-- Node49&#45;&gt;Node58 -->
<g id="edge9" class="edge"><title>Node49&#45;&gt;Node58</title>
<path fill="none" stroke="midnightblue" d="M671.816,-89.3171C766.452,-83.4503 941.787,-69.6992 1089,-42 1104.37,-39.1084 1121.22,-34.5835 1134.86,-30.5686"/>
<polygon fill="midnightblue" stroke="midnightblue" points="671.567,-85.8257 661.798,-89.9273 671.992,-92.8127 671.567,-85.8257"/>
</g>
</g>
</svg>
