<?xml version="1.0" encoding="UTF-8" standalone="no"?>
<!DOCTYPE svg PUBLIC "-//W3C//DTD SVG 1.1//EN"
 "http://www.w3.org/Graphics/SVG/1.1/DTD/svg11.dtd">
<!-- Generated by graphviz version 2.36.0 (20140111.2315)
 -->
<!-- Title: src/calibration/modules/Time.h Pages: 1 -->
<svg width="1754pt" height="186pt"
 viewBox="0.00 0.00 1754.00 186.00" xmlns="http://www.w3.org/2000/svg" xmlns:xlink="http://www.w3.org/1999/xlink">
<g id="graph0" class="graph" transform="scale(1 1) rotate(0) translate(4 182)">
<title>src/calibration/modules/Time.h</title>
<polygon fill="white" stroke="none" points="-4,4 -4,-182 1750,-182 1750,4 -4,4"/>
<!-- Node53 -->
<g id="node1" class="node"><title>Node53</title>
<polygon fill="#bfbfbf" stroke="black" points="1062.5,-147 1062.5,-177 1179.5,-177 1179.5,-147 1062.5,-147"/>
<text text-anchor="start" x="1070.5" y="-165" font-family="Helvetica,sans-Serif" font-size="10.00">src/calibration/modules</text>
<text text-anchor="middle" x="1121" y="-154" font-family="Helvetica,sans-Serif" font-size="10.00">/Time.h</text>
</g>
<!-- Node54 -->
<g id="node2" class="node"><title>Node54</title>
<g id="a_node2"><a xlink:href="_new_tagger___time_8h.html" target="_top" xlink:title="src/calibration/modules\l/NewTagger_Time.h">
<polygon fill="white" stroke="black" points="192.5,-79 192.5,-109 309.5,-109 309.5,-79 192.5,-79"/>
<text text-anchor="start" x="200.5" y="-97" font-family="Helvetica,sans-Serif" font-size="10.00">src/calibration/modules</text>
<text text-anchor="middle" x="251" y="-86" font-family="Helvetica,sans-Serif" font-size="10.00">/NewTagger_Time.h</text>
</a>
</g>
</g>
<!-- Node53&#45;&gt;Node54 -->
<g id="edge1" class="edge"><title>Node53&#45;&gt;Node54</title>
<path fill="none" stroke="midnightblue" d="M1052.12,-155.775C885.879,-143.163 464.94,-111.23 309.687,-99.4521"/>
<polygon fill="midnightblue" stroke="midnightblue" points="1051.99,-159.275 1062.23,-156.541 1052.52,-152.295 1051.99,-159.275"/>
</g>
<!-- Node58 -->
<g id="node6" class="node"><title>Node58</title>
<g id="a_node6"><a xlink:href="_t_a_p_s___time_8h.html" target="_top" xlink:title="src/calibration/modules\l/TAPS_Time.h">
<polygon fill="white" stroke="black" points="927.5,-79 927.5,-109 1044.5,-109 1044.5,-79 927.5,-79"/>
<text text-anchor="start" x="935.5" y="-97" font-family="Helvetica,sans-Serif" font-size="10.00">src/calibration/modules</text>
<text text-anchor="middle" x="986" y="-86" font-family="Helvetica,sans-Serif" font-size="10.00">/TAPS_Time.h</text>
</a>
</g>
</g>
<!-- Node53&#45;&gt;Node58 -->
<g id="edge5" class="edge"><title>Node53&#45;&gt;Node58</title>
<path fill="none" stroke="midnightblue" d="M1082.83,-142.339C1061.27,-131.796 1034.74,-118.83 1014.91,-109.135"/>
<polygon fill="midnightblue" stroke="midnightblue" points="1081.52,-145.594 1092.04,-146.841 1084.59,-139.305 1081.52,-145.594"/>
</g>
<!-- Node60 -->
<g id="node8" class="node"><title>Node60</title>
<g id="a_node8"><a xlink:href="_setup__2007___base_8cc.html" target="_top" xlink:title="src/expconfig/setups\l/Setup_2007_Base.cc">
<polygon fill="white" stroke="black" points="384.5,-6 384.5,-36 497.5,-36 497.5,-6 384.5,-6"/>
<text text-anchor="start" x="392.5" y="-24" font-family="Helvetica,sans-Serif" font-size="10.00">src/expconfig/setups</text>
<text text-anchor="middle" x="441" y="-13" font-family="Helvetica,sans-Serif" font-size="10.00">/Setup_2007_Base.cc</text>
</a>
</g>
</g>
<!-- Node53&#45;&gt;Node60 -->
<g id="edge26" class="edge"><title>Node53&#45;&gt;Node60</title>
<path fill="none" stroke="midnightblue" d="M1052.24,-153.968C978.724,-145.844 858.95,-130.866 757,-110 643.77,-86.825 617.027,-74.1105 506,-42 499.535,-40.1302 492.727,-38.1016 486.048,-36.0775"/>
<polygon fill="midnightblue" stroke="midnightblue" points="1051.98,-157.46 1062.3,-155.068 1052.74,-150.501 1051.98,-157.46"/>
</g>
<!-- Node61 -->
<g id="node9" class="node"><title>Node61</title>
<g id="a_node9"><a xlink:href="_setup__2010__03___base_8cc.html" target="_top" xlink:title="src/expconfig/setups\l/Setup_2010_03_Base.cc">
<polygon fill="white" stroke="black" points="922,-6 922,-36 1050,-36 1050,-6 922,-6"/>
<text text-anchor="start" x="930" y="-24" font-family="Helvetica,sans-Serif" font-size="10.00">src/expconfig/setups</text>
<text text-anchor="middle" x="986" y="-13" font-family="Helvetica,sans-Serif" font-size="10.00">/Setup_2010_03_Base.cc</text>
</a>
</g>
</g>
<!-- Node53&#45;&gt;Node61 -->
<g id="edge27" class="edge"><title>Node53&#45;&gt;Node61</title>
<path fill="none" stroke="midnightblue" d="M1052.38,-152.818C1000.18,-145.017 934.585,-131.267 918,-110 897.697,-83.9649 934.858,-53.447 961.773,-36.0515"/>
<polygon fill="midnightblue" stroke="midnightblue" points="1051.89,-156.284 1062.29,-154.253 1052.9,-149.356 1051.89,-156.284"/>
</g>
<!-- Node62 -->
<g id="node10" class="node"><title>Node62</title>
<g id="a_node10"><a xlink:href="_setup__2014___e_p_t_8cc.html" target="_top" xlink:title="src/expconfig/setups\l/Setup_2014_EPT.cc">
<polygon fill="white" stroke="black" points="794,-6 794,-36 904,-36 904,-6 794,-6"/>
<text text-anchor="start" x="802" y="-24" font-family="Helvetica,sans-Serif" font-size="10.00">src/expconfig/setups</text>
<text text-anchor="middle" x="849" y="-13" font-family="Helvetica,sans-Serif" font-size="10.00">/Setup_2014_EPT.cc</text>
</a>
</g>
</g>
<!-- Node53&#45;&gt;Node62 -->
<g id="edge28" class="edge"><title>Node53&#45;&gt;Node62</title>
<path fill="none" stroke="midnightblue" d="M1052.31,-157.103C1008.09,-151.713 951.196,-139.131 909,-110 881.914,-91.3007 863.487,-56.0607 854.772,-36.3222"/>
<polygon fill="midnightblue" stroke="midnightblue" points="1052.08,-160.598 1062.4,-158.236 1052.86,-153.642 1052.08,-160.598"/>
</g>
<!-- Node63 -->
<g id="node11" class="node"><title>Node63</title>
<g id="a_node11"><a xlink:href="_setup__2015__01___pion_8cc.html" target="_top" xlink:title="src/expconfig/setups\l/Setup_2015_01_Pion.cc">
<polygon fill="white" stroke="black" points="515.5,-6 515.5,-36 640.5,-36 640.5,-6 515.5,-6"/>
<text text-anchor="start" x="523.5" y="-24" font-family="Helvetica,sans-Serif" font-size="10.00">src/expconfig/setups</text>
<text text-anchor="middle" x="578" y="-13" font-family="Helvetica,sans-Serif" font-size="10.00">/Setup_2015_01_Pion.cc</text>
</a>
</g>
</g>
<!-- Node53&#45;&gt;Node63 -->
<g id="edge29" class="edge"><title>Node53&#45;&gt;Node63</title>
<path fill="none" stroke="midnightblue" d="M1052.08,-148.311C1002.56,-138.808 934.362,-124.92 875,-110 783.988,-87.125 679.054,-54.5473 621.466,-36.1229"/>
<polygon fill="midnightblue" stroke="midnightblue" points="1051.56,-151.775 1062.03,-150.212 1052.87,-144.899 1051.56,-151.775"/>
</g>
<!-- Node64 -->
<g id="node12" class="node"><title>Node64</title>
<g id="a_node12"><a xlink:href="_setup__2017__03_8cc.html" target="_top" xlink:title="src/expconfig/setups\l/Setup_2017_03.cc">
<polygon fill="white" stroke="black" points="1504.5,-6 1504.5,-36 1611.5,-36 1611.5,-6 1504.5,-6"/>
<text text-anchor="start" x="1512.5" y="-24" font-family="Helvetica,sans-Serif" font-size="10.00">src/expconfig/setups</text>
<text text-anchor="middle" x="1558" y="-13" font-family="Helvetica,sans-Serif" font-size="10.00">/Setup_2017_03.cc</text>
</a>
</g>
</g>
<!-- Node53&#45;&gt;Node64 -->
<g id="edge30" class="edge"><title>Node53&#45;&gt;Node64</title>
<path fill="none" stroke="midnightblue" d="M1182.92,-144.013C1212.97,-135.076 1249.34,-123.231 1281,-110 1309.25,-98.1951 1313.32,-88.702 1342,-78 1407.45,-53.5803 1427.66,-60.5822 1495,-42 1501.53,-40.199 1508.39,-38.1659 1515.09,-36.1032"/>
<polygon fill="midnightblue" stroke="midnightblue" points="1181.59,-140.754 1172.98,-146.93 1183.56,-147.471 1181.59,-140.754"/>
</g>
<!-- Node65 -->
<g id="node13" class="node"><title>Node65</title>
<g id="a_node13"><a xlink:href="_setup__2017__05_8cc.html" target="_top" xlink:title="src/expconfig/setups\l/Setup_2017_05.cc">
<polygon fill="white" stroke="black" points="1068.5,-6 1068.5,-36 1175.5,-36 1175.5,-6 1068.5,-6"/>
<text text-anchor="start" x="1076.5" y="-24" font-family="Helvetica,sans-Serif" font-size="10.00">src/expconfig/setups</text>
<text text-anchor="middle" x="1122" y="-13" font-family="Helvetica,sans-Serif" font-size="10.00">/Setup_2017_05.cc</text>
</a>
</g>
</g>
<!-- Node53&#45;&gt;Node65 -->
<g id="edge31" class="edge"><title>Node53&#45;&gt;Node65</title>
<path fill="none" stroke="midnightblue" d="M1159.07,-141.175C1170.51,-133.151 1181.69,-122.734 1188,-110 1194.32,-97.2567 1193.98,-90.9061 1188,-78 1179.67,-59.9997 1162.38,-45.6736 1147.59,-36.0183"/>
<polygon fill="midnightblue" stroke="midnightblue" points="1156.82,-138.46 1150.34,-146.843 1160.64,-144.33 1156.82,-138.46"/>
</g>
<!-- Node66 -->
<g id="node14" class="node"><title>Node66</title>
<g id="a_node14"><a xlink:href="_setup__2017_plus___new_tagger___base_8cc.html" target="_top" xlink:title="src/expconfig/setups\l/Setup_2017Plus_NewTagger\l_Base.cc">
<polygon fill="white" stroke="black" points="1194,-0.5 1194,-41.5 1340,-41.5 1340,-0.5 1194,-0.5"/>
<text text-anchor="start" x="1202" y="-29.5" font-family="Helvetica,sans-Serif" font-size="10.00">src/expconfig/setups</text>
<text text-anchor="start" x="1202" y="-18.5" font-family="Helvetica,sans-Serif" font-size="10.00">/Setup_2017Plus_NewTagger</text>
<text text-anchor="middle" x="1267" y="-7.5" font-family="Helvetica,sans-Serif" font-size="10.00">_Base.cc</text>
</a>
</g>
</g>
<!-- Node53&#45;&gt;Node66 -->
<g id="edge32" class="edge"><title>Node53&#45;&gt;Node66</title>
<path fill="none" stroke="midnightblue" d="M1159.76,-141.904C1174.85,-133.38 1191.68,-122.441 1205,-110 1226.72,-89.7158 1245.37,-60.6817 1256.39,-41.5916"/>
<polygon fill="midnightblue" stroke="midnightblue" points="1157.73,-139.024 1150.63,-146.891 1161.09,-145.167 1157.73,-139.024"/>
</g>
<!-- Node67 -->
<g id="node15" class="node"><title>Node67</title>
<g id="a_node15"><a xlink:href="expconfig__helpers_8cc.html" target="_top" xlink:title="test/expconfig_helpers.cc">
<polygon fill="white" stroke="black" points="1358,-11.5 1358,-30.5 1486,-30.5 1486,-11.5 1358,-11.5"/>
<text text-anchor="middle" x="1422" y="-18.5" font-family="Helvetica,sans-Serif" font-size="10.00">test/expconfig_helpers.cc</text>
</a>
</g>
</g>
<!-- Node53&#45;&gt;Node67 -->
<g id="edge34" class="edge"><title>Node53&#45;&gt;Node67</title>
<path fill="none" stroke="midnightblue" d="M1161.04,-142.865C1182.42,-133.16 1209.16,-120.976 1233,-110 1295.79,-81.0847 1370.1,-46.3308 1403.78,-30.5464"/>
<polygon fill="midnightblue" stroke="midnightblue" points="1159.59,-139.68 1151.93,-146.999 1162.48,-146.054 1159.59,-139.68"/>
</g>
<!-- Node68 -->
<g id="node16" class="node"><title>Node68</title>
<g id="a_node16"><a xlink:href="_t_a_p_s_veto___time_8h.html" target="_top" xlink:title="src/calibration/modules\l/TAPSVeto_Time.h">
<polygon fill="white" stroke="black" points="1062.5,-79 1062.5,-109 1179.5,-109 1179.5,-79 1062.5,-79"/>
<text text-anchor="start" x="1070.5" y="-97" font-family="Helvetica,sans-Serif" font-size="10.00">src/calibration/modules</text>
<text text-anchor="middle" x="1121" y="-86" font-family="Helvetica,sans-Serif" font-size="10.00">/TAPSVeto_Time.h</text>
</a>
</g>
</g>
<!-- Node53&#45;&gt;Node68 -->
<g id="edge15" class="edge"><title>Node53&#45;&gt;Node68</title>
<path fill="none" stroke="midnightblue" d="M1121,-136.532C1121,-127.361 1121,-117.245 1121,-109.293"/>
<polygon fill="midnightblue" stroke="midnightblue" points="1117.5,-136.679 1121,-146.679 1124.5,-136.679 1117.5,-136.679"/>
</g>
<!-- Node70 -->
<g id="node18" class="node"><title>Node70</title>
<g id="a_node18"><a xlink:href="calibration_2modules_2_time_8cc.html" target="_top" xlink:title="src/calibration/modules\l/Time.cc">
<polygon fill="white" stroke="black" points="1350.5,-79 1350.5,-109 1467.5,-109 1467.5,-79 1350.5,-79"/>
<text text-anchor="start" x="1358.5" y="-97" font-family="Helvetica,sans-Serif" font-size="10.00">src/calibration/modules</text>
<text text-anchor="middle" x="1409" y="-86" font-family="Helvetica,sans-Serif" font-size="10.00">/Time.cc</text>
</a>
</g>
</g>
<!-- Node53&#45;&gt;Node70 -->
<g id="edge25" class="edge"><title>Node53&#45;&gt;Node70</title>
<path fill="none" stroke="midnightblue" d="M1189.52,-145.298C1238.55,-134.062 1303.85,-119.096 1350.45,-108.417"/>
<polygon fill="midnightblue" stroke="midnightblue" points="1188.59,-141.919 1179.63,-147.564 1190.16,-148.742 1188.59,-141.919"/>
</g>
<!-- Node71 -->
<g id="node19" class="node"><title>Node71</title>
<g id="a_node19"><a xlink:href="_setup___c_b_source_calib_8cc.html" target="_top" xlink:title="src/expconfig/setups\l/Setup_CBSourceCalib.cc">
<polygon fill="white" stroke="black" points="1485.5,-79 1485.5,-109 1616.5,-109 1616.5,-79 1485.5,-79"/>
<text text-anchor="start" x="1493.5" y="-97" font-family="Helvetica,sans-Serif" font-size="10.00">src/expconfig/setups</text>
<text text-anchor="middle" x="1551" y="-86" font-family="Helvetica,sans-Serif" font-size="10.00">/Setup_CBSourceCalib.cc</text>
</a>
</g>
</g>
<!-- Node53&#45;&gt;Node71 -->
<g id="edge33" class="edge"><title>Node53&#45;&gt;Node71</title>
<path fill="none" stroke="midnightblue" d="M1189.82,-152.248C1261.47,-142.871 1376.86,-127.022 1476,-110 1479.01,-109.483 1482.08,-108.938 1485.19,-108.374"/>
<polygon fill="midnightblue" stroke="midnightblue" points="1189.04,-148.82 1179.57,-153.584 1189.94,-155.762 1189.04,-148.82"/>
</g>
<!-- Node55 -->
<g id="node3" class="node"><title>Node55</title>
<g id="a_node3"><a xlink:href="_new_tagger___time_8cc.html" target="_top" xlink:title="src/calibration/modules\l/NewTagger_Time.cc">
<polygon fill="white" stroke="black" points="-0.5,-6 -0.5,-36 116.5,-36 116.5,-6 -0.5,-6"/>
<text text-anchor="start" x="7.5" y="-24" font-family="Helvetica,sans-Serif" font-size="10.00">src/calibration/modules</text>
<text text-anchor="middle" x="58" y="-13" font-family="Helvetica,sans-Serif" font-size="10.00">/NewTagger_Time.cc</text>
</a>
</g>
</g>
<!-- Node54&#45;&gt;Node55 -->
<g id="edge2" class="edge"><title>Node54&#45;&gt;Node55</title>
<path fill="none" stroke="midnightblue" d="M203.432,-75.501C170.468,-63.3743 127.145,-47.4369 96.3812,-36.1195"/>
<polygon fill="midnightblue" stroke="midnightblue" points="202.276,-78.8049 212.869,-78.9727 204.693,-72.2353 202.276,-78.8049"/>
</g>
<!-- Node56 -->
<g id="node4" class="node"><title>Node56</title>
<g id="a_node4"><a xlink:href="_setup__2017__12_8cc.html" target="_top" xlink:title="src/expconfig/setups\l/Setup_2017_12.cc">
<polygon fill="white" stroke="black" points="134.5,-6 134.5,-36 241.5,-36 241.5,-6 134.5,-6"/>
<text text-anchor="start" x="142.5" y="-24" font-family="Helvetica,sans-Serif" font-size="10.00">src/expconfig/setups</text>
<text text-anchor="middle" x="188" y="-13" font-family="Helvetica,sans-Serif" font-size="10.00">/Setup_2017_12.cc</text>
</a>
</g>
</g>
<!-- Node54&#45;&gt;Node56 -->
<g id="edge3" class="edge"><title>Node54&#45;&gt;Node56</title>
<path fill="none" stroke="midnightblue" d="M231.679,-71.226C221.67,-59.9457 209.721,-46.4798 200.853,-36.4856"/>
<polygon fill="midnightblue" stroke="midnightblue" points="229.298,-73.8158 238.553,-78.9727 234.534,-69.1698 229.298,-73.8158"/>
</g>
<!-- Node57 -->
<g id="node5" class="node"><title>Node57</title>
<g id="a_node5"><a xlink:href="_setup__2018__03_8cc.html" target="_top" xlink:title="src/expconfig/setups\l/Setup_2018_03.cc">
<polygon fill="white" stroke="black" points="259.5,-6 259.5,-36 366.5,-36 366.5,-6 259.5,-6"/>
<text text-anchor="start" x="267.5" y="-24" font-family="Helvetica,sans-Serif" font-size="10.00">src/expconfig/setups</text>
<text text-anchor="middle" x="313" y="-13" font-family="Helvetica,sans-Serif" font-size="10.00">/Setup_2018_03.cc</text>
</a>
</g>
</g>
<!-- Node54&#45;&gt;Node57 -->
<g id="edge4" class="edge"><title>Node54&#45;&gt;Node57</title>
<path fill="none" stroke="midnightblue" d="M270.014,-71.226C279.864,-59.9457 291.623,-46.4798 300.351,-36.4856"/>
<polygon fill="midnightblue" stroke="midnightblue" points="267.19,-69.1382 263.249,-78.9727 272.463,-73.7425 267.19,-69.1382"/>
</g>
<!-- Node59 -->
<g id="node7" class="node"><title>Node59</title>
<g id="a_node7"><a xlink:href="_t_a_p_s___time_8cc.html" target="_top" xlink:title="src/calibration/modules\l/TAPS_Time.cc">
<polygon fill="white" stroke="black" points="658.5,-6 658.5,-36 775.5,-36 775.5,-6 658.5,-6"/>
<text text-anchor="start" x="666.5" y="-24" font-family="Helvetica,sans-Serif" font-size="10.00">src/calibration/modules</text>
<text text-anchor="middle" x="717" y="-13" font-family="Helvetica,sans-Serif" font-size="10.00">/TAPS_Time.cc</text>
</a>
</g>
</g>
<!-- Node58&#45;&gt;Node59 -->
<g id="edge6" class="edge"><title>Node58&#45;&gt;Node59</title>
<path fill="none" stroke="midnightblue" d="M918.043,-76.4313C879.02,-66.7486 829.147,-54.0883 785,-42 778.116,-40.1151 770.861,-38.0576 763.756,-36.0026"/>
<polygon fill="midnightblue" stroke="midnightblue" points="917.685,-79.9481 928.233,-78.9532 919.366,-73.1532 917.685,-79.9481"/>
</g>
<!-- Node58&#45;&gt;Node60 -->
<g id="edge7" class="edge"><title>Node58&#45;&gt;Node60</title>
<path fill="none" stroke="midnightblue" d="M917.237,-89.8612C823.468,-84.6375 650.609,-71.6413 506,-42 498.251,-40.4115 490.105,-38.2846 482.302,-36.0099"/>
<polygon fill="midnightblue" stroke="midnightblue" points="917.268,-93.368 927.443,-90.4164 917.648,-86.3783 917.268,-93.368"/>
</g>
<!-- Node58&#45;&gt;Node61 -->
<g id="edge8" class="edge"><title>Node58&#45;&gt;Node61</title>
<path fill="none" stroke="midnightblue" d="M986,-68.8976C986,-58.1314 986,-45.8005 986,-36.4856"/>
<polygon fill="midnightblue" stroke="midnightblue" points="982.5,-68.9727 986,-78.9727 989.5,-68.9727 982.5,-68.9727"/>
</g>
<!-- Node58&#45;&gt;Node62 -->
<g id="edge9" class="edge"><title>Node58&#45;&gt;Node62</title>
<path fill="none" stroke="midnightblue" d="M949.83,-74.2549C926.846,-62.3433 897.56,-47.1661 876.479,-36.2412"/>
<polygon fill="midnightblue" stroke="midnightblue" points="948.444,-77.4788 958.933,-78.9727 951.665,-71.2639 948.444,-77.4788"/>
</g>
<!-- Node58&#45;&gt;Node63 -->
<g id="edge10" class="edge"><title>Node58&#45;&gt;Node63</title>
<path fill="none" stroke="midnightblue" d="M917.237,-85.1378C848.81,-76.7185 741.02,-61.8429 649,-42 641.113,-40.2994 632.809,-38.2245 624.769,-36.0626"/>
<polygon fill="midnightblue" stroke="midnightblue" points="917.106,-88.6477 927.456,-86.3832 917.953,-81.6991 917.106,-88.6477"/>
</g>
<!-- Node58&#45;&gt;Node64 -->
<g id="edge11" class="edge"><title>Node58&#45;&gt;Node64</title>
<path fill="none" stroke="midnightblue" d="M1054.73,-77.8737C1249.68,-49.4307 1304.83,-79.4296 1495,-42 1502.66,-40.4931 1510.69,-38.3756 1518.36,-36.0782"/>
<polygon fill="midnightblue" stroke="midnightblue" points="1054.11,-74.4274 1044.74,-79.3647 1055.15,-81.3507 1054.11,-74.4274"/>
</g>
<!-- Node58&#45;&gt;Node65 -->
<g id="edge12" class="edge"><title>Node58&#45;&gt;Node65</title>
<path fill="none" stroke="midnightblue" d="M1021.91,-74.2549C1044.72,-62.3433 1073.79,-47.1661 1094.72,-36.2412"/>
<polygon fill="midnightblue" stroke="midnightblue" points="1020.11,-71.2421 1012.87,-78.9727 1023.35,-77.4474 1020.11,-71.2421"/>
</g>
<!-- Node58&#45;&gt;Node66 -->
<g id="edge13" class="edge"><title>Node58&#45;&gt;Node66</title>
<path fill="none" stroke="midnightblue" d="M1051.23,-76.519C1093.86,-65.7479 1149.6,-51.6625 1193.75,-40.507"/>
<polygon fill="midnightblue" stroke="midnightblue" points="1050.35,-73.1295 1041.52,-78.9727 1052.07,-79.9163 1050.35,-73.1295"/>
</g>
<!-- Node58&#45;&gt;Node67 -->
<g id="edge14" class="edge"><title>Node58&#45;&gt;Node67</title>
<path fill="none" stroke="midnightblue" d="M1054.75,-77.8039C1185.38,-56.0633 1222.14,-66.9529 1349,-42 1364.21,-39.0073 1380.91,-34.5243 1394.49,-30.5606"/>
<polygon fill="midnightblue" stroke="midnightblue" points="1054.03,-74.3748 1044.76,-79.4984 1055.21,-81.2762 1054.03,-74.3748"/>
</g>
<!-- Node68&#45;&gt;Node60 -->
<g id="edge17" class="edge"><title>Node68&#45;&gt;Node60</title>
<path fill="none" stroke="midnightblue" d="M1052.32,-78.0788C809.953,-44.8057 742.332,-85.5204 506,-42 497.988,-40.5246 489.573,-38.3916 481.554,-36.0626"/>
<polygon fill="midnightblue" stroke="midnightblue" points="1052.11,-81.5837 1062.5,-79.5055 1053.08,-74.6514 1052.11,-81.5837"/>
</g>
<!-- Node68&#45;&gt;Node61 -->
<g id="edge18" class="edge"><title>Node68&#45;&gt;Node61</title>
<path fill="none" stroke="midnightblue" d="M1085.36,-74.2549C1062.71,-62.3433 1033.85,-47.1661 1013.08,-36.2412"/>
<polygon fill="midnightblue" stroke="midnightblue" points="1083.85,-77.4156 1094.33,-78.9727 1087.11,-71.2202 1083.85,-77.4156"/>
</g>
<!-- Node68&#45;&gt;Node62 -->
<g id="edge19" class="edge"><title>Node68&#45;&gt;Node62</title>
<path fill="none" stroke="midnightblue" d="M1052.65,-77.3761C1011.93,-67.7867 959.324,-54.9038 913,-42 906.384,-40.157 899.418,-38.1012 892.615,-36.0286"/>
<polygon fill="midnightblue" stroke="midnightblue" points="1051.93,-80.8031 1062.47,-79.6791 1053.53,-73.9881 1051.93,-80.8031"/>
</g>
<!-- Node68&#45;&gt;Node63 -->
<g id="edge20" class="edge"><title>Node68&#45;&gt;Node63</title>
<path fill="none" stroke="midnightblue" d="M1052.45,-78.0688C873.043,-51.3785 823.095,-73.9904 649,-42 640.561,-40.4494 631.676,-38.3404 623.157,-36.0717"/>
<polygon fill="midnightblue" stroke="midnightblue" points="1052.07,-81.5517 1062.48,-79.5927 1053.12,-74.631 1052.07,-81.5517"/>
</g>
<!-- Node68&#45;&gt;Node64 -->
<g id="edge21" class="edge"><title>Node68&#45;&gt;Node64</title>
<path fill="none" stroke="midnightblue" d="M1189.86,-87.1881C1265.38,-79.987 1389.83,-65.6806 1495,-42 1502.28,-40.3616 1509.92,-38.2658 1517.27,-36.0505"/>
<polygon fill="midnightblue" stroke="midnightblue" points="1189.16,-83.7379 1179.54,-88.1573 1189.82,-90.7072 1189.16,-83.7379"/>
</g>
<!-- Node68&#45;&gt;Node65 -->
<g id="edge22" class="edge"><title>Node68&#45;&gt;Node65</title>
<path fill="none" stroke="midnightblue" d="M1121.34,-68.8976C1121.49,-58.1314 1121.66,-45.8005 1121.8,-36.4856"/>
<polygon fill="midnightblue" stroke="midnightblue" points="1117.84,-68.9244 1121.2,-78.9727 1124.84,-69.023 1117.84,-68.9244"/>
</g>
<!-- Node68&#45;&gt;Node66 -->
<g id="edge23" class="edge"><title>Node68&#45;&gt;Node66</title>
<path fill="none" stroke="midnightblue" d="M1159.04,-74.5015C1179.89,-64.3623 1205.72,-51.801 1226.89,-41.5075"/>
<polygon fill="midnightblue" stroke="midnightblue" points="1157.31,-71.4518 1149.84,-78.9727 1160.37,-77.7469 1157.31,-71.4518"/>
</g>
<!-- Node68&#45;&gt;Node67 -->
<g id="edge24" class="edge"><title>Node68&#45;&gt;Node67</title>
<path fill="none" stroke="midnightblue" d="M1189.77,-78.5049C1235.12,-68.7285 1295.75,-55.2411 1349,-42 1363.16,-38.4799 1378.76,-34.2523 1391.89,-30.5926"/>
<polygon fill="midnightblue" stroke="midnightblue" points="1188.8,-75.1346 1179.75,-80.6577 1190.27,-81.9783 1188.8,-75.1346"/>
</g>
<!-- Node69 -->
<g id="node17" class="node"><title>Node69</title>
<g id="a_node17"><a xlink:href="_t_a_p_s_veto___time_8cc.html" target="_top" xlink:title="src/calibration/modules\l/TAPSVeto_Time.cc">
<polygon fill="white" stroke="black" points="1629.5,-6 1629.5,-36 1746.5,-36 1746.5,-6 1629.5,-6"/>
<text text-anchor="start" x="1637.5" y="-24" font-family="Helvetica,sans-Serif" font-size="10.00">src/calibration/modules</text>
<text text-anchor="middle" x="1688" y="-13" font-family="Helvetica,sans-Serif" font-size="10.00">/TAPSVeto_Time.cc</text>
</a>
</g>
</g>
<!-- Node68&#45;&gt;Node69 -->
<g id="edge16" class="edge"><title>Node68&#45;&gt;Node69</title>
<path fill="none" stroke="midnightblue" d="M1189.87,-87.5411C1306.84,-78.0059 1539.44,-57.8241 1620,-42 1628.09,-40.4109 1636.6,-38.2837 1644.76,-36.0089"/>
<polygon fill="midnightblue" stroke="midnightblue" points="1189.29,-84.0769 1179.61,-88.375 1189.86,-91.0539 1189.29,-84.0769"/>
</g>
</g>
</svg>
