<?xml version="1.0" encoding="UTF-8" standalone="no"?>
<!DOCTYPE svg PUBLIC "-//W3C//DTD SVG 1.1//EN"
 "http://www.w3.org/Graphics/SVG/1.1/DTD/svg11.dtd">
<!-- Generated by graphviz version 2.36.0 (20140111.2315)
 -->
<!-- Title: ant::analysis::physics::EtapProton Pages: 1 -->
<svg width="1370pt" height="302pt"
 viewBox="0.00 0.00 1370.00 302.00" xmlns="http://www.w3.org/2000/svg" xmlns:xlink="http://www.w3.org/1999/xlink">
<g id="graph0" class="graph" transform="scale(1 1) rotate(0) translate(4 298)">
<title>ant::analysis::physics::EtapProton</title>
<polygon fill="white" stroke="none" points="-4,4 -4,-298 1366,-298 1366,4 -4,4"/>
<!-- Node2 -->
<g id="node1" class="node"><title>Node2</title>
<polygon fill="#bfbfbf" stroke="black" points="1250,-101 1250,-131 1362,-131 1362,-101 1250,-101"/>
<text text-anchor="start" x="1258" y="-119" font-family="Helvetica,sans-Serif" font-size="10.00">ant::analysis::physics</text>
<text text-anchor="middle" x="1306" y="-108" font-family="Helvetica,sans-Serif" font-size="10.00">::EtapProton</text>
</g>
<!-- Node3 -->
<g id="node2" class="node"><title>Node3</title>
<g id="a_node2"><a xlink:href="classant_1_1analysis_1_1_physics.html" target="_top" xlink:title="ant::analysis::Physics">
<polygon fill="white" stroke="black" points="1018.5,-205.5 1018.5,-224.5 1131.5,-224.5 1131.5,-205.5 1018.5,-205.5"/>
<text text-anchor="middle" x="1075" y="-212.5" font-family="Helvetica,sans-Serif" font-size="10.00">ant::analysis::Physics</text>
</a>
</g>
</g>
<!-- Node3&#45;&gt;Node2 -->
<g id="edge1" class="edge"><title>Node3&#45;&gt;Node2</title>
<path fill="none" stroke="midnightblue" d="M1123.49,-202.634C1131.71,-200.258 1140.14,-197.672 1148,-195 1186.13,-182.034 1196.06,-179.187 1232,-161 1249.53,-152.126 1268.4,-140.439 1282.55,-131.2"/>
<polygon fill="midnightblue" stroke="midnightblue" points="1122.29,-199.336 1113.62,-205.419 1124.19,-206.073 1122.29,-199.336"/>
</g>
<!-- Node4 -->
<g id="node3" class="node"><title>Node4</title>
<g id="a_node3"><a xlink:href="classant_1_1analysis_1_1_histogram_factory.html" target="_top" xlink:title="ant::analysis::Histogram\lFactory">
<polygon fill="white" stroke="black" points="723.5,-200 723.5,-230 846.5,-230 846.5,-200 723.5,-200"/>
<text text-anchor="start" x="731.5" y="-218" font-family="Helvetica,sans-Serif" font-size="10.00">ant::analysis::Histogram</text>
<text text-anchor="middle" x="785" y="-207" font-family="Helvetica,sans-Serif" font-size="10.00">Factory</text>
</a>
</g>
</g>
<!-- Node4&#45;&gt;Node3 -->
<g id="edge2" class="edge"><title>Node4&#45;&gt;Node3</title>
<path fill="none" stroke="#9a32cd" stroke-dasharray="5,2" d="M856.771,-215C906.529,-215 972.182,-215 1018.24,-215"/>
<polygon fill="#9a32cd" stroke="#9a32cd" points="856.726,-211.5 846.725,-215 856.725,-218.5 856.726,-211.5"/>
<text text-anchor="middle" x="927" y="-218" font-family="Helvetica,sans-Serif" font-size="10.00"> HistFac</text>
</g>
<!-- Node5 -->
<g id="node4" class="node"><title>Node5</title>
<polygon fill="white" stroke="#bfbfbf" points="1014,-145.5 1014,-186.5 1136,-186.5 1136,-145.5 1014,-145.5"/>
<text text-anchor="start" x="1022" y="-174.5" font-family="Helvetica,sans-Serif" font-size="10.00">std::vector&lt; std::unique</text>
<text text-anchor="start" x="1022" y="-163.5" font-family="Helvetica,sans-Serif" font-size="10.00">_ptr&lt; ant::analysis::utils</text>
<text text-anchor="middle" x="1075" y="-152.5" font-family="Helvetica,sans-Serif" font-size="10.00">::KinFitter &gt; &gt;</text>
</g>
<!-- Node5&#45;&gt;Node2 -->
<g id="edge3" class="edge"><title>Node5&#45;&gt;Node2</title>
<path fill="none" stroke="#9a32cd" stroke-dasharray="5,2" d="M1146.3,-150.65C1179.62,-143.376 1218.83,-134.815 1249.94,-128.022"/>
<polygon fill="#9a32cd" stroke="#9a32cd" points="1145.19,-147.31 1136.17,-152.863 1146.68,-154.149 1145.19,-147.31"/>
<text text-anchor="middle" x="1199" y="-149" font-family="Helvetica,sans-Serif" font-size="10.00"> fitters</text>
</g>
<!-- Node6 -->
<g id="node5" class="node"><title>Node6</title>
<polygon fill="white" stroke="#bfbfbf" points="718,-151 718,-181 852,-181 852,-151 718,-151"/>
<text text-anchor="start" x="726" y="-169" font-family="Helvetica,sans-Serif" font-size="10.00">std::unique_ptr&lt; ant</text>
<text text-anchor="middle" x="785" y="-158" font-family="Helvetica,sans-Serif" font-size="10.00">::analysis::utils::KinFitter &gt;</text>
</g>
<!-- Node6&#45;&gt;Node5 -->
<g id="edge4" class="edge"><title>Node6&#45;&gt;Node5</title>
<path fill="none" stroke="#9a32cd" stroke-dasharray="5,2" d="M862.279,-166C909.62,-166 969.607,-166 1013.63,-166"/>
<polygon fill="#9a32cd" stroke="#9a32cd" points="862.073,-162.5 852.073,-166 862.073,-169.5 862.073,-162.5"/>
<text text-anchor="middle" x="927" y="-169" font-family="Helvetica,sans-Serif" font-size="10.00"> elements</text>
</g>
<!-- Node7 -->
<g id="node6" class="node"><title>Node7</title>
<g id="a_node6"><a xlink:href="classant_1_1analysis_1_1utils_1_1_kin_fitter.html" target="_top" xlink:title="ant::analysis::utils\l::KinFitter">
<polygon fill="white" stroke="black" points="478,-166 478,-196 574,-196 574,-166 478,-166"/>
<text text-anchor="start" x="486" y="-184" font-family="Helvetica,sans-Serif" font-size="10.00">ant::analysis::utils</text>
<text text-anchor="middle" x="526" y="-173" font-family="Helvetica,sans-Serif" font-size="10.00">::KinFitter</text>
</a>
</g>
</g>
<!-- Node7&#45;&gt;Node6 -->
<g id="edge5" class="edge"><title>Node7&#45;&gt;Node6</title>
<path fill="none" stroke="#9a32cd" stroke-dasharray="5,2" d="M584.148,-177.665C623.691,-175.357 676.433,-172.278 717.806,-169.863"/>
<polygon fill="#9a32cd" stroke="#9a32cd" points="583.917,-174.172 574.138,-178.249 584.325,-181.16 583.917,-174.172"/>
<text text-anchor="middle" x="648" y="-180" font-family="Helvetica,sans-Serif" font-size="10.00"> ptr</text>
</g>
<!-- Node8 -->
<g id="node7" class="node"><title>Node8</title>
<g id="a_node7"><a xlink:href="classant_1_1analysis_1_1utils_1_1_fitter.html" target="_top" xlink:title="ant::analysis::utils\l::Fitter">
<polygon fill="white" stroke="black" points="283,-264 283,-294 379,-294 379,-264 283,-264"/>
<text text-anchor="start" x="291" y="-282" font-family="Helvetica,sans-Serif" font-size="10.00">ant::analysis::utils</text>
<text text-anchor="middle" x="331" y="-271" font-family="Helvetica,sans-Serif" font-size="10.00">::Fitter</text>
</a>
</g>
</g>
<!-- Node8&#45;&gt;Node7 -->
<g id="edge6" class="edge"><title>Node8&#45;&gt;Node7</title>
<path fill="none" stroke="midnightblue" d="M380.146,-259.958C384.845,-257.988 389.527,-255.981 394,-254 421.989,-241.602 429.194,-238.783 456,-224 471.697,-215.343 488.801,-204.693 502.053,-196.158"/>
<polygon fill="midnightblue" stroke="midnightblue" points="378.439,-256.876 370.534,-263.931 381.113,-263.346 378.439,-256.876"/>
</g>
<!-- Node9 -->
<g id="node8" class="node"><title>Node9</title>
<g id="a_node8"><a xlink:href="structant_1_1analysis_1_1utils_1_1_kin_fitter_1_1_target__t.html" target="_top" xlink:title="ant::analysis::utils\l::KinFitter::Target_t">
<polygon fill="white" stroke="black" points="280.5,-215 280.5,-245 381.5,-245 381.5,-215 280.5,-215"/>
<text text-anchor="start" x="288.5" y="-233" font-family="Helvetica,sans-Serif" font-size="10.00">ant::analysis::utils</text>
<text text-anchor="middle" x="331" y="-222" font-family="Helvetica,sans-Serif" font-size="10.00">::KinFitter::Target_t</text>
</a>
</g>
</g>
<!-- Node9&#45;&gt;Node7 -->
<g id="edge7" class="edge"><title>Node9&#45;&gt;Node7</title>
<path fill="none" stroke="#9a32cd" stroke-dasharray="5,2" d="M391.671,-214.85C419.371,-207.818 451.835,-199.576 477.793,-192.985"/>
<polygon fill="#9a32cd" stroke="#9a32cd" points="390.533,-211.528 381.702,-217.381 392.256,-218.313 390.533,-211.528"/>
<text text-anchor="middle" x="434" y="-212" font-family="Helvetica,sans-Serif" font-size="10.00"> Target</text>
</g>
<!-- Node10 -->
<g id="node9" class="node"><title>Node10</title>
<g id="a_node9"><a xlink:href="structant_1_1analysis_1_1utils_1_1_kin_fitter_1_1_beam_e__t.html" target="_top" xlink:title="ant::analysis::utils\l::KinFitter::BeamE_t">
<polygon fill="white" stroke="black" points="278,-166 278,-196 384,-196 384,-166 278,-166"/>
<text text-anchor="start" x="286" y="-184" font-family="Helvetica,sans-Serif" font-size="10.00">ant::analysis::utils</text>
<text text-anchor="middle" x="331" y="-173" font-family="Helvetica,sans-Serif" font-size="10.00">::KinFitter::BeamE_t</text>
</a>
</g>
</g>
<!-- Node10&#45;&gt;Node7 -->
<g id="edge8" class="edge"><title>Node10&#45;&gt;Node7</title>
<path fill="none" stroke="#9a32cd" stroke-dasharray="5,2" d="M394.374,-181C421.426,-181 452.584,-181 477.684,-181"/>
<polygon fill="#9a32cd" stroke="#9a32cd" points="394.229,-177.5 384.229,-181 394.229,-184.5 394.229,-177.5"/>
<text text-anchor="middle" x="434" y="-184" font-family="Helvetica,sans-Serif" font-size="10.00"> BeamE</text>
</g>
<!-- Node11 -->
<g id="node10" class="node"><title>Node11</title>
<g id="a_node10"><a xlink:href="structant_1_1analysis_1_1utils_1_1_fitter_1_1_v___s___p__t.html" target="_top" xlink:title="ant::analysis::utils\l::Fitter::V_S_P_t">
<polygon fill="white" stroke="black" points="134,-166 134,-196 230,-196 230,-166 134,-166"/>
<text text-anchor="start" x="142" y="-184" font-family="Helvetica,sans-Serif" font-size="10.00">ant::analysis::utils</text>
<text text-anchor="middle" x="182" y="-173" font-family="Helvetica,sans-Serif" font-size="10.00">::Fitter::V_S_P_t</text>
</a>
</g>
</g>
<!-- Node11&#45;&gt;Node10 -->
<g id="edge9" class="edge"><title>Node11&#45;&gt;Node10</title>
<path fill="none" stroke="midnightblue" d="M240.504,-181C252.843,-181 265.814,-181 277.932,-181"/>
<polygon fill="midnightblue" stroke="midnightblue" points="240.321,-177.5 230.321,-181 240.321,-184.5 240.321,-177.5"/>
</g>
<!-- Node12 -->
<g id="node11" class="node"><title>Node12</title>
<g id="a_node11"><a xlink:href="structant_1_1analysis_1_1utils_1_1_fitter_1_1_v___s__t.html" target="_top" xlink:title="ant::analysis::utils\l::Fitter::V_S_t">
<polygon fill="white" stroke="black" points="0,-166 0,-196 96,-196 96,-166 0,-166"/>
<text text-anchor="start" x="8" y="-184" font-family="Helvetica,sans-Serif" font-size="10.00">ant::analysis::utils</text>
<text text-anchor="middle" x="48" y="-173" font-family="Helvetica,sans-Serif" font-size="10.00">::Fitter::V_S_t</text>
</a>
</g>
</g>
<!-- Node12&#45;&gt;Node11 -->
<g id="edge10" class="edge"><title>Node12&#45;&gt;Node11</title>
<path fill="none" stroke="midnightblue" d="M106.403,-181C115.484,-181 124.785,-181 133.604,-181"/>
<polygon fill="midnightblue" stroke="midnightblue" points="106.282,-177.5 96.2822,-181 106.282,-184.5 106.282,-177.5"/>
</g>
<!-- Node13 -->
<g id="node12" class="node"><title>Node13</title>
<polygon fill="white" stroke="#bfbfbf" points="268.5,-127.5 268.5,-146.5 393.5,-146.5 393.5,-127.5 268.5,-127.5"/>
<text text-anchor="middle" x="331" y="-134.5" font-family="Helvetica,sans-Serif" font-size="10.00">std::vector&lt; FitParticle &gt;</text>
</g>
<!-- Node13&#45;&gt;Node7 -->
<g id="edge11" class="edge"><title>Node13&#45;&gt;Node7</title>
<path fill="none" stroke="#9a32cd" stroke-dasharray="5,2" d="M383.9,-148.832C413.127,-155.495 449.352,-163.754 477.779,-170.235"/>
<polygon fill="#9a32cd" stroke="#9a32cd" points="384.406,-145.358 373.878,-146.547 382.85,-152.183 384.406,-145.358"/>
<text text-anchor="middle" x="434" y="-168" font-family="Helvetica,sans-Serif" font-size="10.00"> Photons</text>
</g>
<!-- Node14 -->
<g id="node13" class="node"><title>Node14</title>
<g id="a_node13"><a xlink:href="classant_1_1_piecewise_interval.html" target="_top" xlink:title="ant::PiecewiseInterval\l\&lt; unsigned \&gt;">
<polygon fill="white" stroke="black" points="870.5,-100 870.5,-130 983.5,-130 983.5,-100 870.5,-100"/>
<text text-anchor="start" x="878.5" y="-118" font-family="Helvetica,sans-Serif" font-size="10.00">ant::PiecewiseInterval</text>
<text text-anchor="middle" x="927" y="-107" font-family="Helvetica,sans-Serif" font-size="10.00">&lt; unsigned &gt;</text>
</a>
</g>
</g>
<!-- Node14&#45;&gt;Node2 -->
<g id="edge12" class="edge"><title>Node14&#45;&gt;Node2</title>
<path fill="none" stroke="#9a32cd" stroke-dasharray="5,2" d="M994.011,-115.175C1066.56,-115.368 1181.8,-115.673 1249.76,-115.853"/>
<polygon fill="#9a32cd" stroke="#9a32cd" points="993.637,-111.674 983.628,-115.148 993.618,-118.674 993.637,-111.674"/>
<text text-anchor="middle" x="1075" y="-119" font-family="Helvetica,sans-Serif" font-size="10.00"> multiplicities</text>
</g>
<!-- Node15 -->
<g id="node14" class="node"><title>Node15</title>
<g id="a_node14"><a xlink:title="STL class. ">
<polygon fill="white" stroke="#bfbfbf" points="596,-94 596,-124 700,-124 700,-94 596,-94"/>
<text text-anchor="start" x="604" y="-112" font-family="Helvetica,sans-Serif" font-size="10.00">std::vector&lt; interval</text>
<text text-anchor="middle" x="648" y="-101" font-family="Helvetica,sans-Serif" font-size="10.00">&lt; unsigned &gt; &gt;</text>
</a>
</g>
</g>
<!-- Node15&#45;&gt;Node14 -->
<g id="edge13" class="edge"><title>Node15&#45;&gt;Node14</title>
<path fill="none" stroke="midnightblue" d="M710.356,-110.329C758.208,-111.366 824.1,-112.793 870.415,-113.796"/>
<polygon fill="midnightblue" stroke="midnightblue" points="710.202,-106.825 700.129,-110.107 710.051,-113.823 710.202,-106.825"/>
</g>
<!-- Node16 -->
<g id="node15" class="node"><title>Node16</title>
<polygon fill="white" stroke="#bfbfbf" points="316.5,-74.5 316.5,-93.5 345.5,-93.5 345.5,-74.5 316.5,-74.5"/>
<text text-anchor="middle" x="331" y="-81.5" font-family="Helvetica,sans-Serif" font-size="10.00">T</text>
</g>
<!-- Node16&#45;&gt;Node15 -->
<g id="edge14" class="edge"><title>Node16&#45;&gt;Node15</title>
<path fill="none" stroke="#9a32cd" stroke-dasharray="5,2" d="M355.513,-85.8661C406.179,-89.8872 526.656,-99.4489 595.82,-104.938"/>
<polygon fill="#9a32cd" stroke="#9a32cd" points="355.781,-82.3764 345.535,-85.0742 355.227,-89.3545 355.781,-82.3764"/>
<text text-anchor="middle" x="434" y="-97" font-family="Helvetica,sans-Serif" font-size="10.00"> elements</text>
</g>
<!-- Node20 -->
<g id="node19" class="node"><title>Node20</title>
<g id="a_node19"><a xlink:title="STL class. ">
<polygon fill="white" stroke="#bfbfbf" points="474,-49 474,-79 578,-79 578,-49 474,-49"/>
<text text-anchor="start" x="482" y="-67" font-family="Helvetica,sans-Serif" font-size="10.00">std::vector&lt; interval</text>
<text text-anchor="middle" x="526" y="-56" font-family="Helvetica,sans-Serif" font-size="10.00">&lt; double &gt; &gt;</text>
</a>
</g>
</g>
<!-- Node16&#45;&gt;Node20 -->
<g id="edge19" class="edge"><title>Node16&#45;&gt;Node20</title>
<path fill="none" stroke="#9a32cd" stroke-dasharray="5,2" d="M355.618,-81.2489C371.542,-79.4172 393.026,-76.9907 412,-75 432.191,-72.8816 454.427,-70.6872 473.794,-68.8208"/>
<polygon fill="#9a32cd" stroke="#9a32cd" points="355.114,-77.7838 345.582,-82.4092 355.918,-84.7375 355.114,-77.7838"/>
<text text-anchor="middle" x="434" y="-78" font-family="Helvetica,sans-Serif" font-size="10.00"> elements</text>
</g>
<!-- Node17 -->
<g id="node16" class="node"><title>Node17</title>
<g id="a_node16"><a xlink:href="classant_1_1analysis_1_1utils_1_1_trigger_simulation.html" target="_top" xlink:title="ant::analysis::utils\l::TriggerSimulation">
<polygon fill="white" stroke="black" points="1026,-0 1026,-30 1124,-30 1124,-0 1026,-0"/>
<text text-anchor="start" x="1034" y="-18" font-family="Helvetica,sans-Serif" font-size="10.00">ant::analysis::utils</text>
<text text-anchor="middle" x="1075" y="-7" font-family="Helvetica,sans-Serif" font-size="10.00">::TriggerSimulation</text>
</a>
</g>
</g>
<!-- Node17&#45;&gt;Node2 -->
<g id="edge15" class="edge"><title>Node17&#45;&gt;Node2</title>
<path fill="none" stroke="#9a32cd" stroke-dasharray="5,2" d="M1134.25,-28.04C1164.35,-35.9767 1201.14,-47.5854 1232,-63 1252.6,-73.2876 1273.61,-89.2361 1287.77,-100.952"/>
<polygon fill="#9a32cd" stroke="#9a32cd" points="1134.88,-24.5866 1124.32,-25.489 1133.14,-31.3666 1134.88,-24.5866"/>
<text text-anchor="middle" x="1199" y="-66" font-family="Helvetica,sans-Serif" font-size="10.00"> triggersimu</text>
</g>
<!-- Node18 -->
<g id="node17" class="node"><title>Node18</title>
<g id="a_node17"><a xlink:href="classant_1_1analysis_1_1_prompt_random_1_1_switch.html" target="_top" xlink:title="ant::analysis::PromptRandom\l::Switch">
<polygon fill="white" stroke="black" points="1002,-49 1002,-79 1148,-79 1148,-49 1002,-49"/>
<text text-anchor="start" x="1010" y="-67" font-family="Helvetica,sans-Serif" font-size="10.00">ant::analysis::PromptRandom</text>
<text text-anchor="middle" x="1075" y="-56" font-family="Helvetica,sans-Serif" font-size="10.00">::Switch</text>
</a>
</g>
</g>
<!-- Node18&#45;&gt;Node2 -->
<g id="edge16" class="edge"><title>Node18&#45;&gt;Node2</title>
<path fill="none" stroke="#9a32cd" stroke-dasharray="5,2" d="M1158.44,-75.7583C1182.34,-79.8416 1208.35,-84.9449 1232,-91 1242.77,-93.758 1254.23,-97.3555 1264.8,-100.958"/>
<polygon fill="#9a32cd" stroke="#9a32cd" points="1158.79,-72.2671 1148.35,-74.071 1157.63,-79.1714 1158.79,-72.2671"/>
<text text-anchor="middle" x="1199" y="-94" font-family="Helvetica,sans-Serif" font-size="10.00"> promptrandom</text>
</g>
<!-- Node19 -->
<g id="node18" class="node"><title>Node19</title>
<g id="a_node18"><a xlink:href="classant_1_1_piecewise_interval.html" target="_top" xlink:title="ant::PiecewiseInterval\l\&lt; double \&gt;">
<polygon fill="white" stroke="black" points="728.5,-49 728.5,-79 841.5,-79 841.5,-49 728.5,-49"/>
<text text-anchor="start" x="736.5" y="-67" font-family="Helvetica,sans-Serif" font-size="10.00">ant::PiecewiseInterval</text>
<text text-anchor="middle" x="785" y="-56" font-family="Helvetica,sans-Serif" font-size="10.00">&lt; double &gt;</text>
</a>
</g>
</g>
<!-- Node19&#45;&gt;Node18 -->
<g id="edge17" class="edge"><title>Node19&#45;&gt;Node18</title>
<path fill="none" stroke="#9a32cd" stroke-dasharray="5,2" d="M851.725,-64C896.541,-64 955.89,-64 1001.99,-64"/>
<polygon fill="#9a32cd" stroke="#9a32cd" points="851.529,-60.5001 841.529,-64 851.529,-67.5001 851.529,-60.5001"/>
<text text-anchor="middle" x="927" y="-78" font-family="Helvetica,sans-Serif" font-size="10.00"> promptw</text>
<text text-anchor="middle" x="927" y="-67" font-family="Helvetica,sans-Serif" font-size="10.00">randomw</text>
</g>
<!-- Node20&#45;&gt;Node19 -->
<g id="edge18" class="edge"><title>Node20&#45;&gt;Node19</title>
<path fill="none" stroke="midnightblue" d="M588.294,-64C630.765,-64 686.866,-64 728.111,-64"/>
<polygon fill="midnightblue" stroke="midnightblue" points="588.082,-60.5001 578.082,-64 588.082,-67.5001 588.082,-60.5001"/>
</g>
</g>
</svg>
