<?xml version="1.0" encoding="UTF-8" standalone="no"?>
<!DOCTYPE svg PUBLIC "-//W3C//DTD SVG 1.1//EN"
 "http://www.w3.org/Graphics/SVG/1.1/DTD/svg11.dtd">
<!-- Generated by graphviz version 2.36.0 (20140111.2315)
 -->
<!-- Title: ant::analysis::physics::PID_Energy Pages: 1 -->
<svg width="1156pt" height="321pt"
 viewBox="0.00 0.00 1156.00 321.00" xmlns="http://www.w3.org/2000/svg" xmlns:xlink="http://www.w3.org/1999/xlink">
<g id="graph0" class="graph" transform="scale(1 1) rotate(0) translate(4 317)">
<title>ant::analysis::physics::PID_Energy</title>
<polygon fill="white" stroke="none" points="-4,4 -4,-317 1152,-317 1152,4 -4,4"/>
<!-- Node2 -->
<g id="node1" class="node"><title>Node2</title>
<polygon fill="#bfbfbf" stroke="black" points="1036,-142 1036,-172 1148,-172 1148,-142 1036,-142"/>
<text text-anchor="start" x="1044" y="-160" font-family="Helvetica,sans-Serif" font-size="10.00">ant::analysis::physics</text>
<text text-anchor="middle" x="1092" y="-149" font-family="Helvetica,sans-Serif" font-size="10.00">::PID_Energy</text>
</g>
<!-- Node3 -->
<g id="node2" class="node"><title>Node3</title>
<g id="a_node2"><a xlink:href="classant_1_1analysis_1_1_physics.html" target="_top" xlink:title="ant::analysis::Physics">
<polygon fill="white" stroke="black" points="772.5,-282.5 772.5,-301.5 885.5,-301.5 885.5,-282.5 772.5,-282.5"/>
<text text-anchor="middle" x="829" y="-289.5" font-family="Helvetica,sans-Serif" font-size="10.00">ant::analysis::Physics</text>
</a>
</g>
</g>
<!-- Node3&#45;&gt;Node2 -->
<g id="edge1" class="edge"><title>Node3&#45;&gt;Node2</title>
<path fill="none" stroke="midnightblue" d="M895.919,-296.272C934.205,-295.723 981.859,-289.585 1018,-267 1054.15,-244.407 1076.31,-196.576 1085.72,-172.108"/>
<polygon fill="midnightblue" stroke="midnightblue" points="895.887,-292.772 885.894,-296.293 895.902,-299.772 895.887,-292.772"/>
</g>
<!-- Node4 -->
<g id="node3" class="node"><title>Node4</title>
<g id="a_node3"><a xlink:href="classant_1_1analysis_1_1_histogram_factory.html" target="_top" xlink:title="ant::analysis::Histogram\lFactory">
<polygon fill="white" stroke="black" points="521.5,-277 521.5,-307 644.5,-307 644.5,-277 521.5,-277"/>
<text text-anchor="start" x="529.5" y="-295" font-family="Helvetica,sans-Serif" font-size="10.00">ant::analysis::Histogram</text>
<text text-anchor="middle" x="583" y="-284" font-family="Helvetica,sans-Serif" font-size="10.00">Factory</text>
</a>
</g>
</g>
<!-- Node4&#45;&gt;Node3 -->
<g id="edge2" class="edge"><title>Node4&#45;&gt;Node3</title>
<path fill="none" stroke="#9a32cd" stroke-dasharray="5,2" d="M654.944,-292C692.306,-292 737.463,-292 772.279,-292"/>
<polygon fill="#9a32cd" stroke="#9a32cd" points="654.628,-288.5 644.628,-292 654.628,-295.5 654.628,-288.5"/>
<text text-anchor="middle" x="694" y="-295" font-family="Helvetica,sans-Serif" font-size="10.00"> HistFac</text>
</g>
<!-- Node5 -->
<g id="node4" class="node"><title>Node5</title>
<polygon fill="white" stroke="#bfbfbf" points="765,-186 765,-216 893,-216 893,-186 765,-186"/>
<text text-anchor="start" x="773" y="-204" font-family="Helvetica,sans-Serif" font-size="10.00">std::vector&lt; ant::analysis</text>
<text text-anchor="middle" x="829" y="-193" font-family="Helvetica,sans-Serif" font-size="10.00">::utils::KinFitter &gt;</text>
</g>
<!-- Node5&#45;&gt;Node2 -->
<g id="edge3" class="edge"><title>Node5&#45;&gt;Node2</title>
<path fill="none" stroke="#9a32cd" stroke-dasharray="5,2" d="M903.31,-190.554C938.127,-185.372 980.281,-178.78 1018,-172 1023.73,-170.97 1029.7,-169.839 1035.65,-168.673"/>
<polygon fill="#9a32cd" stroke="#9a32cd" points="902.606,-187.12 893.226,-192.046 903.63,-194.045 902.606,-187.12"/>
<text text-anchor="middle" x="980" y="-188" font-family="Helvetica,sans-Serif" font-size="10.00"> kinfits</text>
</g>
<!-- Node6 -->
<g id="node5" class="node"><title>Node6</title>
<g id="a_node5"><a xlink:href="classant_1_1analysis_1_1utils_1_1_kin_fitter.html" target="_top" xlink:title="ant::analysis::utils\l::KinFitter">
<polygon fill="white" stroke="black" points="535,-217 535,-247 631,-247 631,-217 535,-217"/>
<text text-anchor="start" x="543" y="-235" font-family="Helvetica,sans-Serif" font-size="10.00">ant::analysis::utils</text>
<text text-anchor="middle" x="583" y="-224" font-family="Helvetica,sans-Serif" font-size="10.00">::KinFitter</text>
</a>
</g>
</g>
<!-- Node6&#45;&gt;Node2 -->
<g id="edge11" class="edge"><title>Node6&#45;&gt;Node2</title>
<path fill="none" stroke="#9a32cd" stroke-dasharray="5,2" d="M641.153,-235.436C709.041,-238.456 825.5,-240.289 924,-225 966.719,-218.369 978.118,-216.68 1018,-200 1036.05,-192.452 1055.05,-181.14 1069.14,-172.013"/>
<polygon fill="#9a32cd" stroke="#9a32cd" points="641.244,-231.936 631.091,-234.963 640.916,-238.929 641.244,-231.936"/>
<text text-anchor="middle" x="829" y="-240" font-family="Helvetica,sans-Serif" font-size="10.00"> kinfit</text>
</g>
<!-- Node6&#45;&gt;Node5 -->
<g id="edge4" class="edge"><title>Node6&#45;&gt;Node5</title>
<path fill="none" stroke="#9a32cd" stroke-dasharray="5,2" d="M641.199,-224.733C678.319,-220.017 726.715,-213.868 764.946,-209.011"/>
<polygon fill="#9a32cd" stroke="#9a32cd" points="640.525,-221.29 631.046,-226.023 641.407,-228.235 640.525,-221.29"/>
<text text-anchor="middle" x="694" y="-223" font-family="Helvetica,sans-Serif" font-size="10.00"> elements</text>
</g>
<!-- Node7 -->
<g id="node6" class="node"><title>Node7</title>
<g id="a_node6"><a xlink:href="classant_1_1analysis_1_1utils_1_1_fitter.html" target="_top" xlink:title="ant::analysis::utils\l::Fitter">
<polygon fill="white" stroke="black" points="325,-283 325,-313 421,-313 421,-283 325,-283"/>
<text text-anchor="start" x="333" y="-301" font-family="Helvetica,sans-Serif" font-size="10.00">ant::analysis::utils</text>
<text text-anchor="middle" x="373" y="-290" font-family="Helvetica,sans-Serif" font-size="10.00">::Fitter</text>
</a>
</g>
</g>
<!-- Node7&#45;&gt;Node6 -->
<g id="edge5" class="edge"><title>Node7&#45;&gt;Node6</title>
<path fill="none" stroke="midnightblue" d="M431.062,-279.894C463.714,-269.533 504.178,-256.693 534.988,-246.917"/>
<polygon fill="midnightblue" stroke="midnightblue" points="429.671,-276.663 421.198,-283.024 431.789,-283.335 429.671,-276.663"/>
</g>
<!-- Node8 -->
<g id="node7" class="node"><title>Node8</title>
<g id="a_node7"><a xlink:href="structant_1_1analysis_1_1utils_1_1_kin_fitter_1_1_target__t.html" target="_top" xlink:title="ant::analysis::utils\l::KinFitter::Target_t">
<polygon fill="white" stroke="black" points="322.5,-234 322.5,-264 423.5,-264 423.5,-234 322.5,-234"/>
<text text-anchor="start" x="330.5" y="-252" font-family="Helvetica,sans-Serif" font-size="10.00">ant::analysis::utils</text>
<text text-anchor="middle" x="373" y="-241" font-family="Helvetica,sans-Serif" font-size="10.00">::KinFitter::Target_t</text>
</a>
</g>
</g>
<!-- Node8&#45;&gt;Node6 -->
<g id="edge6" class="edge"><title>Node8&#45;&gt;Node6</title>
<path fill="none" stroke="#9a32cd" stroke-dasharray="5,2" d="M433.734,-244.118C465.892,-241.49 504.993,-238.294 534.966,-235.844"/>
<polygon fill="#9a32cd" stroke="#9a32cd" points="433.239,-240.647 423.557,-244.95 433.809,-247.623 433.239,-240.647"/>
<text text-anchor="middle" x="474" y="-245" font-family="Helvetica,sans-Serif" font-size="10.00"> Target</text>
</g>
<!-- Node9 -->
<g id="node8" class="node"><title>Node9</title>
<g id="a_node8"><a xlink:href="structant_1_1analysis_1_1utils_1_1_kin_fitter_1_1_beam_e__t.html" target="_top" xlink:title="ant::analysis::utils\l::KinFitter::BeamE_t">
<polygon fill="white" stroke="black" points="320,-185 320,-215 426,-215 426,-185 320,-185"/>
<text text-anchor="start" x="328" y="-203" font-family="Helvetica,sans-Serif" font-size="10.00">ant::analysis::utils</text>
<text text-anchor="middle" x="373" y="-192" font-family="Helvetica,sans-Serif" font-size="10.00">::KinFitter::BeamE_t</text>
</a>
</g>
</g>
<!-- Node9&#45;&gt;Node6 -->
<g id="edge7" class="edge"><title>Node9&#45;&gt;Node6</title>
<path fill="none" stroke="#9a32cd" stroke-dasharray="5,2" d="M436.238,-209.575C467.824,-214.434 505.572,-220.242 534.739,-224.729"/>
<polygon fill="#9a32cd" stroke="#9a32cd" points="436.635,-206.095 426.219,-208.034 435.57,-213.014 436.635,-206.095"/>
<text text-anchor="middle" x="474" y="-220" font-family="Helvetica,sans-Serif" font-size="10.00"> BeamE</text>
</g>
<!-- Node10 -->
<g id="node9" class="node"><title>Node10</title>
<g id="a_node9"><a xlink:href="structant_1_1analysis_1_1utils_1_1_fitter_1_1_v___s___p__t.html" target="_top" xlink:title="ant::analysis::utils\l::Fitter::V_S_P_t">
<polygon fill="white" stroke="black" points="134,-185 134,-215 230,-215 230,-185 134,-185"/>
<text text-anchor="start" x="142" y="-203" font-family="Helvetica,sans-Serif" font-size="10.00">ant::analysis::utils</text>
<text text-anchor="middle" x="182" y="-192" font-family="Helvetica,sans-Serif" font-size="10.00">::Fitter::V_S_P_t</text>
</a>
</g>
</g>
<!-- Node10&#45;&gt;Node9 -->
<g id="edge8" class="edge"><title>Node10&#45;&gt;Node9</title>
<path fill="none" stroke="midnightblue" d="M240.382,-200C265.641,-200 295.106,-200 319.746,-200"/>
<polygon fill="midnightblue" stroke="midnightblue" points="240.205,-196.5 230.205,-200 240.205,-203.5 240.205,-196.5"/>
</g>
<!-- Node11 -->
<g id="node10" class="node"><title>Node11</title>
<g id="a_node10"><a xlink:href="structant_1_1analysis_1_1utils_1_1_fitter_1_1_v___s__t.html" target="_top" xlink:title="ant::analysis::utils\l::Fitter::V_S_t">
<polygon fill="white" stroke="black" points="0,-185 0,-215 96,-215 96,-185 0,-185"/>
<text text-anchor="start" x="8" y="-203" font-family="Helvetica,sans-Serif" font-size="10.00">ant::analysis::utils</text>
<text text-anchor="middle" x="48" y="-192" font-family="Helvetica,sans-Serif" font-size="10.00">::Fitter::V_S_t</text>
</a>
</g>
</g>
<!-- Node11&#45;&gt;Node10 -->
<g id="edge9" class="edge"><title>Node11&#45;&gt;Node10</title>
<path fill="none" stroke="midnightblue" d="M106.403,-200C115.484,-200 124.785,-200 133.604,-200"/>
<polygon fill="midnightblue" stroke="midnightblue" points="106.282,-196.5 96.2822,-200 106.282,-203.5 106.282,-196.5"/>
</g>
<!-- Node12 -->
<g id="node11" class="node"><title>Node12</title>
<polygon fill="white" stroke="#bfbfbf" points="310.5,-146.5 310.5,-165.5 435.5,-165.5 435.5,-146.5 310.5,-146.5"/>
<text text-anchor="middle" x="373" y="-153.5" font-family="Helvetica,sans-Serif" font-size="10.00">std::vector&lt; FitParticle &gt;</text>
</g>
<!-- Node12&#45;&gt;Node6 -->
<g id="edge10" class="edge"><title>Node12&#45;&gt;Node6</title>
<path fill="none" stroke="#9a32cd" stroke-dasharray="5,2" d="M416.228,-168.477C422.871,-170.573 429.642,-172.788 436,-175 473.779,-188.143 516.311,-204.986 545.681,-216.947"/>
<polygon fill="#9a32cd" stroke="#9a32cd" points="417.236,-165.125 406.648,-165.505 415.162,-171.811 417.236,-165.125"/>
<text text-anchor="middle" x="474" y="-199" font-family="Helvetica,sans-Serif" font-size="10.00"> Photons</text>
</g>
<!-- Node13 -->
<g id="node12" class="node"><title>Node13</title>
<polygon fill="white" stroke="#bfbfbf" points="773.5,-147.5 773.5,-166.5 884.5,-166.5 884.5,-147.5 773.5,-147.5"/>
<text text-anchor="middle" x="829" y="-154.5" font-family="Helvetica,sans-Serif" font-size="10.00">std::vector&lt; TH2D *&gt;</text>
</g>
<!-- Node13&#45;&gt;Node2 -->
<g id="edge12" class="edge"><title>Node13&#45;&gt;Node2</title>
<path fill="none" stroke="#9a32cd" stroke-dasharray="5,2" d="M894.88,-157C938.26,-157 994.715,-157 1035.91,-157"/>
<polygon fill="#9a32cd" stroke="#9a32cd" points="894.714,-153.5 884.714,-157 894.714,-160.5 894.714,-153.5"/>
<text text-anchor="middle" x="980" y="-160" font-family="Helvetica,sans-Serif" font-size="10.00"> dEvE_combined</text>
</g>
<!-- Node14 -->
<g id="node13" class="node"><title>Node14</title>
<g id="a_node13"><a xlink:href="classant_1_1analysis_1_1utils_1_1_trigger_simulation.html" target="_top" xlink:title="ant::analysis::utils\l::TriggerSimulation">
<polygon fill="white" stroke="black" points="780,-98 780,-128 878,-128 878,-98 780,-98"/>
<text text-anchor="start" x="788" y="-116" font-family="Helvetica,sans-Serif" font-size="10.00">ant::analysis::utils</text>
<text text-anchor="middle" x="829" y="-105" font-family="Helvetica,sans-Serif" font-size="10.00">::TriggerSimulation</text>
</a>
</g>
</g>
<!-- Node14&#45;&gt;Node2 -->
<g id="edge13" class="edge"><title>Node14&#45;&gt;Node2</title>
<path fill="none" stroke="#9a32cd" stroke-dasharray="5,2" d="M888.176,-121.214C925.38,-126.654 974.622,-134.203 1018,-142 1023.73,-143.03 1029.7,-144.161 1035.65,-145.327"/>
<polygon fill="#9a32cd" stroke="#9a32cd" points="888.417,-117.712 878.017,-119.737 887.409,-124.639 888.417,-117.712"/>
<text text-anchor="middle" x="980" y="-145" font-family="Helvetica,sans-Serif" font-size="10.00"> triggersimu</text>
</g>
<!-- Node15 -->
<g id="node14" class="node"><title>Node15</title>
<g id="a_node14"><a xlink:href="classant_1_1analysis_1_1_prompt_random_1_1_switch.html" target="_top" xlink:title="ant::analysis::PromptRandom\l::Switch">
<polygon fill="white" stroke="black" points="756,-49 756,-79 902,-79 902,-49 756,-49"/>
<text text-anchor="start" x="764" y="-67" font-family="Helvetica,sans-Serif" font-size="10.00">ant::analysis::PromptRandom</text>
<text text-anchor="middle" x="829" y="-56" font-family="Helvetica,sans-Serif" font-size="10.00">::Switch</text>
</a>
</g>
</g>
<!-- Node15&#45;&gt;Node2 -->
<g id="edge14" class="edge"><title>Node15&#45;&gt;Node2</title>
<path fill="none" stroke="#9a32cd" stroke-dasharray="5,2" d="M911.846,-81.0652C945.436,-89.3781 984.276,-100.706 1018,-115 1035.5,-122.418 1054.05,-133.133 1068.07,-141.883"/>
<polygon fill="#9a32cd" stroke="#9a32cd" points="912.606,-77.648 902.063,-78.6916 910.955,-84.4507 912.606,-77.648"/>
<text text-anchor="middle" x="980" y="-118" font-family="Helvetica,sans-Serif" font-size="10.00"> promptrandom</text>
</g>
<!-- Node16 -->
<g id="node15" class="node"><title>Node16</title>
<g id="a_node15"><a xlink:href="classant_1_1_piecewise_interval.html" target="_top" xlink:title="ant::PiecewiseInterval\l\&lt; double \&gt;">
<polygon fill="white" stroke="black" points="526.5,-49 526.5,-79 639.5,-79 639.5,-49 526.5,-49"/>
<text text-anchor="start" x="534.5" y="-67" font-family="Helvetica,sans-Serif" font-size="10.00">ant::PiecewiseInterval</text>
<text text-anchor="middle" x="583" y="-56" font-family="Helvetica,sans-Serif" font-size="10.00">&lt; double &gt;</text>
</a>
</g>
</g>
<!-- Node16&#45;&gt;Node15 -->
<g id="edge15" class="edge"><title>Node16&#45;&gt;Node15</title>
<path fill="none" stroke="#9a32cd" stroke-dasharray="5,2" d="M650.042,-64C682.773,-64 722.364,-64 755.885,-64"/>
<polygon fill="#9a32cd" stroke="#9a32cd" points="649.673,-60.5001 639.673,-64 649.673,-67.5001 649.673,-60.5001"/>
<text text-anchor="middle" x="694" y="-78" font-family="Helvetica,sans-Serif" font-size="10.00"> promptw</text>
<text text-anchor="middle" x="694" y="-67" font-family="Helvetica,sans-Serif" font-size="10.00">randomw</text>
</g>
<!-- Node17 -->
<g id="node16" class="node"><title>Node17</title>
<g id="a_node16"><a xlink:title="STL class. ">
<polygon fill="white" stroke="#bfbfbf" points="321,-49 321,-79 425,-79 425,-49 321,-49"/>
<text text-anchor="start" x="329" y="-67" font-family="Helvetica,sans-Serif" font-size="10.00">std::vector&lt; interval</text>
<text text-anchor="middle" x="373" y="-56" font-family="Helvetica,sans-Serif" font-size="10.00">&lt; double &gt; &gt;</text>
</a>
</g>
</g>
<!-- Node17&#45;&gt;Node16 -->
<g id="edge16" class="edge"><title>Node17&#45;&gt;Node16</title>
<path fill="none" stroke="midnightblue" d="M435.493,-64C464.269,-64 498.289,-64 526.3,-64"/>
<polygon fill="midnightblue" stroke="midnightblue" points="435.149,-60.5001 425.149,-64 435.149,-67.5001 435.149,-60.5001"/>
</g>
<!-- Node18 -->
<g id="node17" class="node"><title>Node18</title>
<polygon fill="white" stroke="#bfbfbf" points="167.5,-54.5 167.5,-73.5 196.5,-73.5 196.5,-54.5 167.5,-54.5"/>
<text text-anchor="middle" x="182" y="-61.5" font-family="Helvetica,sans-Serif" font-size="10.00">T</text>
</g>
<!-- Node18&#45;&gt;Node17 -->
<g id="edge17" class="edge"><title>Node18&#45;&gt;Node17</title>
<path fill="none" stroke="#9a32cd" stroke-dasharray="5,2" d="M206.815,-64C235.331,-64 283.888,-64 320.998,-64"/>
<polygon fill="#9a32cd" stroke="#9a32cd" points="206.592,-60.5001 196.592,-64 206.592,-67.5001 206.592,-60.5001"/>
<text text-anchor="middle" x="270" y="-67" font-family="Helvetica,sans-Serif" font-size="10.00"> elements</text>
</g>
<!-- Node19 -->
<g id="node18" class="node"><title>Node19</title>
<polygon fill="white" stroke="#bfbfbf" points="734,-0 734,-30 924,-30 924,-0 734,-0"/>
<text text-anchor="start" x="742" y="-18" font-family="Helvetica,sans-Serif" font-size="10.00">std::vector&lt; ant::analysis</text>
<text text-anchor="middle" x="829" y="-7" font-family="Helvetica,sans-Serif" font-size="10.00">::physics::PID_Energy::PerChannel_t &gt;</text>
</g>
<!-- Node19&#45;&gt;Node2 -->
<g id="edge18" class="edge"><title>Node19&#45;&gt;Node2</title>
<path fill="none" stroke="#9a32cd" stroke-dasharray="5,2" d="M921.946,-32.7072C954.229,-41.8303 989.517,-55.3219 1018,-75 1044.66,-93.4177 1068.1,-123.535 1080.85,-141.691"/>
<polygon fill="#9a32cd" stroke="#9a32cd" points="922.602,-29.2587 912.034,-30.0142 920.766,-36.0138 922.602,-29.2587"/>
<text text-anchor="middle" x="980" y="-78" font-family="Helvetica,sans-Serif" font-size="10.00"> h_perChannel</text>
</g>
<!-- Node20 -->
<g id="node19" class="node"><title>Node20</title>
<g id="a_node19"><a xlink:href="structant_1_1analysis_1_1physics_1_1_p_i_d___energy_1_1_per_channel__t.html" target="_top" xlink:title="ant::analysis::physics\l::PID_Energy::PerChannel_t">
<polygon fill="white" stroke="black" points="512.5,-0 512.5,-30 653.5,-30 653.5,-0 512.5,-0"/>
<text text-anchor="start" x="520.5" y="-18" font-family="Helvetica,sans-Serif" font-size="10.00">ant::analysis::physics</text>
<text text-anchor="middle" x="583" y="-7" font-family="Helvetica,sans-Serif" font-size="10.00">::PID_Energy::PerChannel_t</text>
</a>
</g>
</g>
<!-- Node20&#45;&gt;Node19 -->
<g id="edge19" class="edge"><title>Node20&#45;&gt;Node19</title>
<path fill="none" stroke="#9a32cd" stroke-dasharray="5,2" d="M663.706,-15C686.073,-15 710.605,-15 733.733,-15"/>
<polygon fill="#9a32cd" stroke="#9a32cd" points="663.594,-11.5001 653.594,-15 663.594,-18.5001 663.594,-11.5001"/>
<text text-anchor="middle" x="694" y="-18" font-family="Helvetica,sans-Serif" font-size="10.00"> elements</text>
</g>
</g>
</svg>
