<?xml version="1.0" encoding="UTF-8" standalone="no"?>
<!DOCTYPE svg PUBLIC "-//W3C//DTD SVG 1.1//EN"
 "http://www.w3.org/Graphics/SVG/1.1/DTD/svg11.dtd">
<!-- Generated by graphviz version 2.36.0 (20140111.2315)
 -->
<!-- Title: ant::analysis::physics::TriggerSimulation Pages: 1 -->
<svg width="890pt" height="321pt"
 viewBox="0.00 0.00 890.00 321.00" xmlns="http://www.w3.org/2000/svg" xmlns:xlink="http://www.w3.org/1999/xlink">
<g id="graph0" class="graph" transform="scale(1 1) rotate(0) translate(4 317)">
<title>ant::analysis::physics::TriggerSimulation</title>
<polygon fill="white" stroke="none" points="-4,4 -4,-317 886,-317 886,4 -4,4"/>
<!-- Node2 -->
<g id="node1" class="node"><title>Node2</title>
<polygon fill="#bfbfbf" stroke="black" points="770,-98 770,-128 882,-128 882,-98 770,-98"/>
<text text-anchor="start" x="778" y="-116" font-family="Helvetica,sans-Serif" font-size="10.00">ant::analysis::physics</text>
<text text-anchor="middle" x="826" y="-105" font-family="Helvetica,sans-Serif" font-size="10.00">::TriggerSimulation</text>
</g>
<!-- Node3 -->
<g id="node2" class="node"><title>Node3</title>
<g id="a_node2"><a xlink:href="classant_1_1analysis_1_1_physics.html" target="_top" xlink:title="ant::analysis::Physics">
<polygon fill="white" stroke="black" points="538.5,-242.5 538.5,-261.5 651.5,-261.5 651.5,-242.5 538.5,-242.5"/>
<text text-anchor="middle" x="595" y="-249.5" font-family="Helvetica,sans-Serif" font-size="10.00">ant::analysis::Physics</text>
</a>
</g>
</g>
<!-- Node3&#45;&gt;Node2 -->
<g id="edge1" class="edge"><title>Node3&#45;&gt;Node2</title>
<path fill="none" stroke="midnightblue" d="M620.326,-237.234C664.131,-210.646 755.822,-154.99 800.066,-128.135"/>
<polygon fill="midnightblue" stroke="midnightblue" points="618.472,-234.265 611.74,-242.446 622.105,-240.249 618.472,-234.265"/>
</g>
<!-- Node4 -->
<g id="node3" class="node"><title>Node4</title>
<g id="a_node3"><a xlink:href="classant_1_1analysis_1_1_histogram_factory.html" target="_top" xlink:title="ant::analysis::Histogram\lFactory">
<polygon fill="white" stroke="black" points="319.5,-283 319.5,-313 442.5,-313 442.5,-283 319.5,-283"/>
<text text-anchor="start" x="327.5" y="-301" font-family="Helvetica,sans-Serif" font-size="10.00">ant::analysis::Histogram</text>
<text text-anchor="middle" x="381" y="-290" font-family="Helvetica,sans-Serif" font-size="10.00">Factory</text>
</a>
</g>
</g>
<!-- Node4&#45;&gt;Node3 -->
<g id="edge2" class="edge"><title>Node4&#45;&gt;Node3</title>
<path fill="none" stroke="#9a32cd" stroke-dasharray="5,2" d="M452.575,-282.686C484.793,-275.696 521.943,-267.635 550.082,-261.529"/>
<polygon fill="#9a32cd" stroke="#9a32cd" points="451.781,-279.277 442.751,-284.818 453.265,-286.118 451.781,-279.277"/>
<text text-anchor="middle" x="483" y="-283" font-family="Helvetica,sans-Serif" font-size="10.00"> HistFac</text>
</g>
<!-- Node5 -->
<g id="node4" class="node"><title>Node5</title>
<g id="a_node4"><a xlink:href="classant_1_1analysis_1_1utils_1_1_kin_fitter.html" target="_top" xlink:title="ant::analysis::utils\l::KinFitter">
<polygon fill="white" stroke="black" points="547,-147 547,-177 643,-177 643,-147 547,-147"/>
<text text-anchor="start" x="555" y="-165" font-family="Helvetica,sans-Serif" font-size="10.00">ant::analysis::utils</text>
<text text-anchor="middle" x="595" y="-154" font-family="Helvetica,sans-Serif" font-size="10.00">::KinFitter</text>
</a>
</g>
</g>
<!-- Node5&#45;&gt;Node2 -->
<g id="edge3" class="edge"><title>Node5&#45;&gt;Node2</title>
<path fill="none" stroke="#9a32cd" stroke-dasharray="5,2" d="M652.958,-149.812C688.667,-142.172 734.464,-132.372 769.828,-124.805"/>
<polygon fill="#9a32cd" stroke="#9a32cd" points="652.218,-146.392 643.171,-151.907 653.682,-153.237 652.218,-146.392"/>
<text text-anchor="middle" x="719" y="-145" font-family="Helvetica,sans-Serif" font-size="10.00"> fitter</text>
</g>
<!-- Node6 -->
<g id="node5" class="node"><title>Node6</title>
<g id="a_node5"><a xlink:href="classant_1_1analysis_1_1utils_1_1_fitter.html" target="_top" xlink:title="ant::analysis::utils\l::Fitter">
<polygon fill="white" stroke="black" points="333,-234 333,-264 429,-264 429,-234 333,-234"/>
<text text-anchor="start" x="341" y="-252" font-family="Helvetica,sans-Serif" font-size="10.00">ant::analysis::utils</text>
<text text-anchor="middle" x="381" y="-241" font-family="Helvetica,sans-Serif" font-size="10.00">::Fitter</text>
</a>
</g>
</g>
<!-- Node6&#45;&gt;Node5 -->
<g id="edge4" class="edge"><title>Node6&#45;&gt;Node5</title>
<path fill="none" stroke="midnightblue" d="M430.766,-230.251C453.15,-221.533 479.996,-210.92 504,-201 522.571,-193.326 543.143,-184.44 559.927,-177.09"/>
<polygon fill="midnightblue" stroke="midnightblue" points="429.2,-227.105 421.146,-233.989 431.735,-233.63 429.2,-227.105"/>
</g>
<!-- Node7 -->
<g id="node6" class="node"><title>Node7</title>
<g id="a_node6"><a xlink:href="structant_1_1analysis_1_1utils_1_1_kin_fitter_1_1_target__t.html" target="_top" xlink:title="ant::analysis::utils\l::KinFitter::Target_t">
<polygon fill="white" stroke="black" points="330.5,-185 330.5,-215 431.5,-215 431.5,-185 330.5,-185"/>
<text text-anchor="start" x="338.5" y="-203" font-family="Helvetica,sans-Serif" font-size="10.00">ant::analysis::utils</text>
<text text-anchor="middle" x="381" y="-192" font-family="Helvetica,sans-Serif" font-size="10.00">::KinFitter::Target_t</text>
</a>
</g>
</g>
<!-- Node7&#45;&gt;Node5 -->
<g id="edge5" class="edge"><title>Node7&#45;&gt;Node5</title>
<path fill="none" stroke="#9a32cd" stroke-dasharray="5,2" d="M441.761,-189.288C475.007,-183.329 515.801,-176.017 546.79,-170.462"/>
<polygon fill="#9a32cd" stroke="#9a32cd" points="440.93,-185.881 431.705,-191.091 442.165,-192.771 440.93,-185.881"/>
<text text-anchor="middle" x="483" y="-189" font-family="Helvetica,sans-Serif" font-size="10.00"> Target</text>
</g>
<!-- Node8 -->
<g id="node7" class="node"><title>Node8</title>
<g id="a_node7"><a xlink:href="structant_1_1analysis_1_1utils_1_1_kin_fitter_1_1_beam_e__t.html" target="_top" xlink:title="ant::analysis::utils\l::KinFitter::BeamE_t">
<polygon fill="white" stroke="black" points="328,-136 328,-166 434,-166 434,-136 328,-136"/>
<text text-anchor="start" x="336" y="-154" font-family="Helvetica,sans-Serif" font-size="10.00">ant::analysis::utils</text>
<text text-anchor="middle" x="381" y="-143" font-family="Helvetica,sans-Serif" font-size="10.00">::KinFitter::BeamE_t</text>
</a>
</g>
</g>
<!-- Node8&#45;&gt;Node5 -->
<g id="edge6" class="edge"><title>Node8&#45;&gt;Node5</title>
<path fill="none" stroke="#9a32cd" stroke-dasharray="5,2" d="M444.501,-154.243C477.223,-155.941 516.635,-157.986 546.776,-159.55"/>
<polygon fill="#9a32cd" stroke="#9a32cd" points="444.301,-150.728 434.133,-153.705 443.938,-157.719 444.301,-150.728"/>
<text text-anchor="middle" x="483" y="-161" font-family="Helvetica,sans-Serif" font-size="10.00"> BeamE</text>
</g>
<!-- Node9 -->
<g id="node8" class="node"><title>Node9</title>
<g id="a_node8"><a xlink:href="structant_1_1analysis_1_1utils_1_1_fitter_1_1_v___s___p__t.html" target="_top" xlink:title="ant::analysis::utils\l::Fitter::V_S_P_t">
<polygon fill="white" stroke="black" points="180,-136 180,-166 276,-166 276,-136 180,-136"/>
<text text-anchor="start" x="188" y="-154" font-family="Helvetica,sans-Serif" font-size="10.00">ant::analysis::utils</text>
<text text-anchor="middle" x="228" y="-143" font-family="Helvetica,sans-Serif" font-size="10.00">::Fitter::V_S_P_t</text>
</a>
</g>
</g>
<!-- Node9&#45;&gt;Node8 -->
<g id="edge7" class="edge"><title>Node9&#45;&gt;Node8</title>
<path fill="none" stroke="midnightblue" d="M286.547,-151C300.115,-151 314.504,-151 327.82,-151"/>
<polygon fill="midnightblue" stroke="midnightblue" points="286.363,-147.5 276.363,-151 286.363,-154.5 286.363,-147.5"/>
</g>
<!-- Node10 -->
<g id="node9" class="node"><title>Node10</title>
<g id="a_node9"><a xlink:href="structant_1_1analysis_1_1utils_1_1_fitter_1_1_v___s__t.html" target="_top" xlink:title="ant::analysis::utils\l::Fitter::V_S_t">
<polygon fill="white" stroke="black" points="0,-136 0,-166 96,-166 96,-136 0,-136"/>
<text text-anchor="start" x="8" y="-154" font-family="Helvetica,sans-Serif" font-size="10.00">ant::analysis::utils</text>
<text text-anchor="middle" x="48" y="-143" font-family="Helvetica,sans-Serif" font-size="10.00">::Fitter::V_S_t</text>
</a>
</g>
</g>
<!-- Node10&#45;&gt;Node9 -->
<g id="edge8" class="edge"><title>Node10&#45;&gt;Node9</title>
<path fill="none" stroke="midnightblue" d="M106.508,-151C130.216,-151 157.348,-151 179.855,-151"/>
<polygon fill="midnightblue" stroke="midnightblue" points="106.233,-147.5 96.2334,-151 106.233,-154.5 106.233,-147.5"/>
</g>
<!-- Node11 -->
<g id="node10" class="node"><title>Node11</title>
<polygon fill="white" stroke="#bfbfbf" points="318.5,-97.5 318.5,-116.5 443.5,-116.5 443.5,-97.5 318.5,-97.5"/>
<text text-anchor="middle" x="381" y="-104.5" font-family="Helvetica,sans-Serif" font-size="10.00">std::vector&lt; FitParticle &gt;</text>
</g>
<!-- Node11&#45;&gt;Node5 -->
<g id="edge9" class="edge"><title>Node11&#45;&gt;Node5</title>
<path fill="none" stroke="#9a32cd" stroke-dasharray="5,2" d="M428.906,-119.169C463.934,-128.256 511.613,-140.626 546.728,-149.736"/>
<polygon fill="#9a32cd" stroke="#9a32cd" points="429.486,-115.704 418.928,-116.58 427.728,-122.479 429.486,-115.704"/>
<text text-anchor="middle" x="483" y="-141" font-family="Helvetica,sans-Serif" font-size="10.00"> Photons</text>
</g>
<!-- Node12 -->
<g id="node11" class="node"><title>Node12</title>
<g id="a_node11"><a xlink:href="structant_1_1analysis_1_1physics_1_1_trigger_simulation_1_1_tree__t.html" target="_top" xlink:title="ant::analysis::physics\l::TriggerSimulation::Tree_t">
<polygon fill="white" stroke="black" points="529,-98 529,-128 661,-128 661,-98 529,-98"/>
<text text-anchor="start" x="537" y="-116" font-family="Helvetica,sans-Serif" font-size="10.00">ant::analysis::physics</text>
<text text-anchor="middle" x="595" y="-105" font-family="Helvetica,sans-Serif" font-size="10.00">::TriggerSimulation::Tree_t</text>
</a>
</g>
</g>
<!-- Node12&#45;&gt;Node2 -->
<g id="edge10" class="edge"><title>Node12&#45;&gt;Node2</title>
<path fill="none" stroke="#9a32cd" stroke-dasharray="5,2" d="M671.278,-113C703.459,-113 740.342,-113 769.912,-113"/>
<polygon fill="#9a32cd" stroke="#9a32cd" points="671.01,-109.5 661.01,-113 671.01,-116.5 671.01,-109.5"/>
<text text-anchor="middle" x="719" y="-116" font-family="Helvetica,sans-Serif" font-size="10.00"> t</text>
</g>
<!-- Node13 -->
<g id="node12" class="node"><title>Node13</title>
<g id="a_node12"><a xlink:href="classant_1_1_wrap_t_tree.html" target="_top" xlink:title="The WrapTTree struct simplifies TTree handling in physics classes. ">
<polygon fill="white" stroke="black" points="338.5,-59.5 338.5,-78.5 423.5,-78.5 423.5,-59.5 338.5,-59.5"/>
<text text-anchor="middle" x="381" y="-66.5" font-family="Helvetica,sans-Serif" font-size="10.00">ant::WrapTTree</text>
</a>
</g>
</g>
<!-- Node13&#45;&gt;Node12 -->
<g id="edge11" class="edge"><title>Node13&#45;&gt;Node12</title>
<path fill="none" stroke="midnightblue" d="M433.604,-73.7871C455.465,-76.3254 481.124,-79.9802 504,-85 519.504,-88.4021 536.18,-93.246 550.914,-97.9507"/>
<polygon fill="midnightblue" stroke="midnightblue" points="433.855,-70.2935 423.529,-72.6642 433.079,-77.2505 433.855,-70.2935"/>
</g>
<!-- Node14 -->
<g id="node13" class="node"><title>Node14</title>
<g id="a_node13"><a xlink:href="classant_1_1analysis_1_1utils_1_1_trigger_simulation.html" target="_top" xlink:title="ant::analysis::utils\l::TriggerSimulation">
<polygon fill="white" stroke="black" points="546,-49 546,-79 644,-79 644,-49 546,-49"/>
<text text-anchor="start" x="554" y="-67" font-family="Helvetica,sans-Serif" font-size="10.00">ant::analysis::utils</text>
<text text-anchor="middle" x="595" y="-56" font-family="Helvetica,sans-Serif" font-size="10.00">::TriggerSimulation</text>
</a>
</g>
</g>
<!-- Node14&#45;&gt;Node2 -->
<g id="edge12" class="edge"><title>Node14&#45;&gt;Node2</title>
<path fill="none" stroke="#9a32cd" stroke-dasharray="5,2" d="M654.223,-76.4582C689.737,-84.0573 734.866,-93.7136 769.812,-101.191"/>
<polygon fill="#9a32cd" stroke="#9a32cd" points="654.517,-72.9419 644.006,-74.272 653.052,-79.787 654.517,-72.9419"/>
<text text-anchor="middle" x="719" y="-101" font-family="Helvetica,sans-Serif" font-size="10.00"> triggersimu</text>
</g>
<!-- Node15 -->
<g id="node14" class="node"><title>Node15</title>
<g id="a_node14"><a xlink:href="classant_1_1analysis_1_1_prompt_random_1_1_switch.html" target="_top" xlink:title="ant::analysis::PromptRandom\l::Switch">
<polygon fill="white" stroke="black" points="522,-0 522,-30 668,-30 668,-0 522,-0"/>
<text text-anchor="start" x="530" y="-18" font-family="Helvetica,sans-Serif" font-size="10.00">ant::analysis::PromptRandom</text>
<text text-anchor="middle" x="595" y="-7" font-family="Helvetica,sans-Serif" font-size="10.00">::Switch</text>
</a>
</g>
</g>
<!-- Node15&#45;&gt;Node2 -->
<g id="edge13" class="edge"><title>Node15&#45;&gt;Node2</title>
<path fill="none" stroke="#9a32cd" stroke-dasharray="5,2" d="M651.267,-33.2235C656.927,-35.1493 662.584,-37.0986 668,-39 705.548,-52.1826 716.046,-52.9444 752,-70 769.276,-78.1953 787.831,-89.1558 801.911,-97.9598"/>
<polygon fill="#9a32cd" stroke="#9a32cd" points="652.375,-29.9037 641.781,-30.0174 650.134,-36.5352 652.375,-29.9037"/>
<text text-anchor="middle" x="719" y="-73" font-family="Helvetica,sans-Serif" font-size="10.00"> promptrandom</text>
</g>
<!-- Node16 -->
<g id="node15" class="node"><title>Node16</title>
<g id="a_node15"><a xlink:href="classant_1_1_piecewise_interval.html" target="_top" xlink:title="ant::PiecewiseInterval\l\&lt; double \&gt;">
<polygon fill="white" stroke="black" points="324.5,-0 324.5,-30 437.5,-30 437.5,-0 324.5,-0"/>
<text text-anchor="start" x="332.5" y="-18" font-family="Helvetica,sans-Serif" font-size="10.00">ant::PiecewiseInterval</text>
<text text-anchor="middle" x="381" y="-7" font-family="Helvetica,sans-Serif" font-size="10.00">&lt; double &gt;</text>
</a>
</g>
</g>
<!-- Node16&#45;&gt;Node15 -->
<g id="edge14" class="edge"><title>Node16&#45;&gt;Node15</title>
<path fill="none" stroke="#9a32cd" stroke-dasharray="5,2" d="M447.902,-15C471.379,-15 497.933,-15 521.903,-15"/>
<polygon fill="#9a32cd" stroke="#9a32cd" points="447.701,-11.5001 437.701,-15 447.7,-18.5001 447.701,-11.5001"/>
<text text-anchor="middle" x="483" y="-29" font-family="Helvetica,sans-Serif" font-size="10.00"> promptw</text>
<text text-anchor="middle" x="483" y="-18" font-family="Helvetica,sans-Serif" font-size="10.00">randomw</text>
</g>
<!-- Node17 -->
<g id="node16" class="node"><title>Node17</title>
<g id="a_node16"><a xlink:title="STL class. ">
<polygon fill="white" stroke="#bfbfbf" points="176,-0 176,-30 280,-30 280,-0 176,-0"/>
<text text-anchor="start" x="184" y="-18" font-family="Helvetica,sans-Serif" font-size="10.00">std::vector&lt; interval</text>
<text text-anchor="middle" x="228" y="-7" font-family="Helvetica,sans-Serif" font-size="10.00">&lt; double &gt; &gt;</text>
</a>
</g>
</g>
<!-- Node17&#45;&gt;Node16 -->
<g id="edge15" class="edge"><title>Node17&#45;&gt;Node16</title>
<path fill="none" stroke="midnightblue" d="M290.291,-15C301.529,-15 313.204,-15 324.269,-15"/>
<polygon fill="midnightblue" stroke="midnightblue" points="290.122,-11.5001 280.122,-15 290.122,-18.5001 290.122,-11.5001"/>
</g>
<!-- Node18 -->
<g id="node17" class="node"><title>Node18</title>
<polygon fill="white" stroke="#bfbfbf" points="33.5,-5.5 33.5,-24.5 62.5,-24.5 62.5,-5.5 33.5,-5.5"/>
<text text-anchor="middle" x="48" y="-12.5" font-family="Helvetica,sans-Serif" font-size="10.00">T</text>
</g>
<!-- Node18&#45;&gt;Node17 -->
<g id="edge16" class="edge"><title>Node18&#45;&gt;Node17</title>
<path fill="none" stroke="#9a32cd" stroke-dasharray="5,2" d="M72.7849,-15C98.9344,-15 141.733,-15 175.617,-15"/>
<polygon fill="#9a32cd" stroke="#9a32cd" points="72.6718,-11.5001 62.6718,-15 72.6718,-18.5001 72.6718,-11.5001"/>
<text text-anchor="middle" x="136" y="-18" font-family="Helvetica,sans-Serif" font-size="10.00"> elements</text>
</g>
</g>
</svg>
