<?xml version="1.0" encoding="UTF-8" standalone="no"?>
<!DOCTYPE svg PUBLIC "-//W3C//DTD SVG 1.1//EN"
 "http://www.w3.org/Graphics/SVG/1.1/DTD/svg11.dtd">
<!-- Generated by graphviz version 2.36.0 (20140111.2315)
 -->
<!-- Title: ant::analysis::physics::Etap2g Pages: 1 -->
<svg width="1436pt" height="548pt"
 viewBox="0.00 0.00 1436.00 548.28" xmlns="http://www.w3.org/2000/svg" xmlns:xlink="http://www.w3.org/1999/xlink">
<g id="graph0" class="graph" transform="scale(1 1) rotate(0) translate(4 544.275)">
<title>ant::analysis::physics::Etap2g</title>
<polygon fill="white" stroke="none" points="-4,4 -4,-544.275 1432,-544.275 1432,4 -4,4"/>
<!-- Node2 -->
<g id="node1" class="node"><title>Node2</title>
<polygon fill="#bfbfbf" stroke="black" points="1316,-244.275 1316,-274.275 1428,-274.275 1428,-244.275 1316,-244.275"/>
<text text-anchor="start" x="1324" y="-262.275" font-family="Helvetica,sans-Serif" font-size="10.00">ant::analysis::physics</text>
<text text-anchor="middle" x="1372" y="-251.275" font-family="Helvetica,sans-Serif" font-size="10.00">::Etap2g</text>
</g>
<!-- Node3 -->
<g id="node2" class="node"><title>Node3</title>
<g id="a_node2"><a xlink:href="classant_1_1analysis_1_1_physics.html" target="_top" xlink:title="ant::analysis::Physics">
<polygon fill="white" stroke="black" points="1084.5,-463.775 1084.5,-482.775 1197.5,-482.775 1197.5,-463.775 1084.5,-463.775"/>
<text text-anchor="middle" x="1141" y="-470.775" font-family="Helvetica,sans-Serif" font-size="10.00">ant::analysis::Physics</text>
</a>
</g>
</g>
<!-- Node3&#45;&gt;Node2 -->
<g id="edge1" class="edge"><title>Node3&#45;&gt;Node2</title>
<path fill="none" stroke="midnightblue" d="M1164.08,-457.392C1195.34,-434.456 1253.62,-390 1298,-346.275 1321.74,-322.889 1345.95,-292.465 1359.66,-274.487"/>
<polygon fill="midnightblue" stroke="midnightblue" points="1161.68,-454.815 1155.66,-463.533 1165.8,-460.472 1161.68,-454.815"/>
</g>
<!-- Node4 -->
<g id="node3" class="node"><title>Node4</title>
<g id="a_node3"><a xlink:href="classant_1_1analysis_1_1_histogram_factory.html" target="_top" xlink:title="ant::analysis::Histogram\lFactory">
<polygon fill="white" stroke="black" points="813.5,-510.275 813.5,-540.275 936.5,-540.275 936.5,-510.275 813.5,-510.275"/>
<text text-anchor="start" x="821.5" y="-528.275" font-family="Helvetica,sans-Serif" font-size="10.00">ant::analysis::Histogram</text>
<text text-anchor="middle" x="875" y="-517.275" font-family="Helvetica,sans-Serif" font-size="10.00">Factory</text>
</a>
</g>
</g>
<!-- Node4&#45;&gt;Node3 -->
<g id="edge2" class="edge"><title>Node4&#45;&gt;Node3</title>
<path fill="none" stroke="#9a32cd" stroke-dasharray="5,2" d="M946.444,-511.4C992.308,-502.366 1050.95,-490.816 1091.6,-482.808"/>
<polygon fill="#9a32cd" stroke="#9a32cd" points="945.702,-507.979 936.567,-513.346 947.055,-514.847 945.702,-507.979"/>
<text text-anchor="middle" x="1011" y="-509.275" font-family="Helvetica,sans-Serif" font-size="10.00"> HistFac</text>
</g>
<!-- Node5 -->
<g id="node4" class="node"><title>Node5</title>
<g id="a_node4"><a xlink:href="structant_1_1analysis_1_1physics_1_1_etap_dalitz_1_1_ref_tree__t.html" target="_top" xlink:title="ant::analysis::physics\l::EtapDalitz::RefTree_t">
<polygon fill="white" stroke="black" points="1082,-363.275 1082,-393.275 1200,-393.275 1200,-363.275 1082,-363.275"/>
<text text-anchor="start" x="1090" y="-381.275" font-family="Helvetica,sans-Serif" font-size="10.00">ant::analysis::physics</text>
<text text-anchor="middle" x="1141" y="-370.275" font-family="Helvetica,sans-Serif" font-size="10.00">::EtapDalitz::RefTree_t</text>
</a>
</g>
</g>
<!-- Node5&#45;&gt;Node2 -->
<g id="edge3" class="edge"><title>Node5&#45;&gt;Node2</title>
<path fill="none" stroke="#9a32cd" stroke-dasharray="5,2" d="M1179.95,-358.583C1211.55,-342.187 1257.71,-318.223 1298,-297.275 1312.45,-289.762 1328.51,-281.405 1341.88,-274.445"/>
<polygon fill="#9a32cd" stroke="#9a32cd" points="1178.31,-355.494 1171.04,-363.206 1181.53,-361.707 1178.31,-355.494"/>
<text text-anchor="middle" x="1265" y="-334.275" font-family="Helvetica,sans-Serif" font-size="10.00"> t</text>
</g>
<!-- Node6 -->
<g id="node5" class="node"><title>Node6</title>
<g id="a_node5"><a xlink:href="structant_1_1analysis_1_1physics_1_1_etap_dalitz_1_1common__tree.html" target="_top" xlink:title="ant::analysis::physics\l::EtapDalitz::common_tree">
<polygon fill="white" stroke="black" points="808,-461.275 808,-491.275 942,-491.275 942,-461.275 808,-461.275"/>
<text text-anchor="start" x="816" y="-479.275" font-family="Helvetica,sans-Serif" font-size="10.00">ant::analysis::physics</text>
<text text-anchor="middle" x="875" y="-468.275" font-family="Helvetica,sans-Serif" font-size="10.00">::EtapDalitz::common_tree</text>
</a>
</g>
</g>
<!-- Node6&#45;&gt;Node5 -->
<g id="edge4" class="edge"><title>Node6&#45;&gt;Node5</title>
<path fill="none" stroke="midnightblue" d="M933.854,-458.013C940.658,-455.783 947.492,-453.504 954,-451.275 996.965,-436.564 1007.73,-432.891 1050,-416.275 1068.47,-409.015 1088.85,-400.454 1105.55,-393.297"/>
<polygon fill="midnightblue" stroke="midnightblue" points="932.375,-454.814 923.949,-461.236 934.541,-461.471 932.375,-454.814"/>
</g>
<!-- Node7 -->
<g id="node6" class="node"><title>Node7</title>
<g id="a_node6"><a xlink:href="classant_1_1_wrap_t_tree.html" target="_top" xlink:title="The WrapTTree struct simplifies TTree handling in physics classes. ">
<polygon fill="white" stroke="black" points="610.5,-402.775 610.5,-421.775 695.5,-421.775 695.5,-402.775 610.5,-402.775"/>
<text text-anchor="middle" x="653" y="-409.775" font-family="Helvetica,sans-Serif" font-size="10.00">ant::WrapTTree</text>
</a>
</g>
</g>
<!-- Node7&#45;&gt;Node6 -->
<g id="edge5" class="edge"><title>Node7&#45;&gt;Node6</title>
<path fill="none" stroke="midnightblue" d="M696.638,-424.679C732.59,-435.138 784.151,-450.137 822.421,-461.271"/>
<polygon fill="midnightblue" stroke="midnightblue" points="697.516,-421.289 686.936,-421.857 695.561,-428.011 697.516,-421.289"/>
</g>
<!-- Node8 -->
<g id="node7" class="node"><title>Node8</title>
<g id="a_node7"><a xlink:href="structant_1_1analysis_1_1physics_1_1_etap_dalitz_1_1proton__tree.html" target="_top" xlink:title="ant::analysis::physics\l::EtapDalitz::proton_tree">
<polygon fill="white" stroke="black" points="813.5,-412.275 813.5,-442.275 936.5,-442.275 936.5,-412.275 813.5,-412.275"/>
<text text-anchor="start" x="821.5" y="-430.275" font-family="Helvetica,sans-Serif" font-size="10.00">ant::analysis::physics</text>
<text text-anchor="middle" x="875" y="-419.275" font-family="Helvetica,sans-Serif" font-size="10.00">::EtapDalitz::proton_tree</text>
</a>
</g>
</g>
<!-- Node7&#45;&gt;Node8 -->
<g id="edge7" class="edge"><title>Node7&#45;&gt;Node8</title>
<path fill="none" stroke="midnightblue" d="M705.757,-415.804C738.002,-418.003 779.631,-420.841 813.412,-423.144"/>
<polygon fill="midnightblue" stroke="midnightblue" points="705.854,-412.303 695.639,-415.114 705.378,-419.287 705.854,-412.303"/>
</g>
<!-- Node9 -->
<g id="node8" class="node"><title>Node9</title>
<g id="a_node8"><a xlink:href="structant_1_1analysis_1_1physics_1_1_etap_dalitz_1_1photon__tree.html" target="_top" xlink:title="ant::analysis::physics\l::EtapDalitz::photon_tree\&lt; 2 \&gt;">
<polygon fill="white" stroke="black" points="800.5,-363.275 800.5,-393.275 949.5,-393.275 949.5,-363.275 800.5,-363.275"/>
<text text-anchor="start" x="808.5" y="-381.275" font-family="Helvetica,sans-Serif" font-size="10.00">ant::analysis::physics</text>
<text text-anchor="middle" x="875" y="-370.275" font-family="Helvetica,sans-Serif" font-size="10.00">::EtapDalitz::photon_tree&lt; 2 &gt;</text>
</a>
</g>
</g>
<!-- Node7&#45;&gt;Node9 -->
<g id="edge9" class="edge"><title>Node7&#45;&gt;Node9</title>
<path fill="none" stroke="midnightblue" d="M705.695,-404.286C733.936,-399.922 769.387,-394.443 800.461,-389.641"/>
<polygon fill="midnightblue" stroke="midnightblue" points="704.987,-400.854 695.639,-405.84 706.056,-407.772 704.987,-400.854"/>
</g>
<!-- Node10 -->
<g id="node9" class="node"><title>Node10</title>
<g id="a_node9"><a xlink:href="structant_1_1analysis_1_1physics_1_1_etap_dalitz_1_1fit__tree.html" target="_top" xlink:title="ant::analysis::physics\l::EtapDalitz::fit_tree\&lt; 2 \&gt;">
<polygon fill="white" stroke="black" points="811,-314.275 811,-344.275 939,-344.275 939,-314.275 811,-314.275"/>
<text text-anchor="start" x="819" y="-332.275" font-family="Helvetica,sans-Serif" font-size="10.00">ant::analysis::physics</text>
<text text-anchor="middle" x="875" y="-321.275" font-family="Helvetica,sans-Serif" font-size="10.00">::EtapDalitz::fit_tree&lt; 2 &gt;</text>
</a>
</g>
</g>
<!-- Node7&#45;&gt;Node10 -->
<g id="edge11" class="edge"><title>Node7&#45;&gt;Node10</title>
<path fill="none" stroke="midnightblue" d="M684.828,-398.467C713.369,-385.923 757.137,-367.292 796,-353.275 804.53,-350.199 813.67,-347.161 822.582,-344.334"/>
<polygon fill="midnightblue" stroke="midnightblue" points="683.133,-395.389 675.401,-402.632 685.962,-401.792 683.133,-395.389"/>
</g>
<!-- Node8&#45;&gt;Node5 -->
<g id="edge6" class="edge"><title>Node8&#45;&gt;Node5</title>
<path fill="none" stroke="midnightblue" d="M946.529,-414.185C988.874,-406.325 1042.09,-396.449 1081.98,-389.044"/>
<polygon fill="midnightblue" stroke="midnightblue" points="945.76,-410.768 936.567,-416.034 947.038,-417.65 945.76,-410.768"/>
</g>
<!-- Node9&#45;&gt;Node5 -->
<g id="edge8" class="edge"><title>Node9&#45;&gt;Node5</title>
<path fill="none" stroke="midnightblue" d="M959.759,-378.275C999.527,-378.275 1046.07,-378.275 1081.9,-378.275"/>
<polygon fill="midnightblue" stroke="midnightblue" points="959.539,-374.775 949.539,-378.275 959.539,-381.775 959.539,-374.775"/>
</g>
<!-- Node10&#45;&gt;Node5 -->
<g id="edge10" class="edge"><title>Node10&#45;&gt;Node5</title>
<path fill="none" stroke="midnightblue" d="M949.095,-342.842C990.941,-350.609 1042.72,-360.22 1081.79,-367.472"/>
<polygon fill="midnightblue" stroke="midnightblue" points="949.705,-339.396 939.235,-341.012 948.428,-346.278 949.705,-339.396"/>
</g>
<!-- Node11 -->
<g id="node10" class="node"><title>Node11</title>
<g id="a_node10"><a xlink:href="classant_1_1analysis_1_1utils_1_1_tree_fitter.html" target="_top" xlink:title="ant::analysis::utils\l::TreeFitter">
<polygon fill="white" stroke="black" points="1093,-200.275 1093,-230.275 1189,-230.275 1189,-200.275 1093,-200.275"/>
<text text-anchor="start" x="1101" y="-218.275" font-family="Helvetica,sans-Serif" font-size="10.00">ant::analysis::utils</text>
<text text-anchor="middle" x="1141" y="-207.275" font-family="Helvetica,sans-Serif" font-size="10.00">::TreeFitter</text>
</a>
</g>
</g>
<!-- Node11&#45;&gt;Node2 -->
<g id="edge12" class="edge"><title>Node11&#45;&gt;Node2</title>
<path fill="none" stroke="#9a32cd" stroke-dasharray="5,2" d="M1199.42,-226.307C1235.06,-233.155 1280.62,-241.909 1315.83,-248.675"/>
<polygon fill="#9a32cd" stroke="#9a32cd" points="1199.65,-222.789 1189.17,-224.339 1198.33,-229.663 1199.65,-222.789"/>
<text text-anchor="middle" x="1265" y="-248.275" font-family="Helvetica,sans-Serif" font-size="10.00"> treefitter_etap</text>
</g>
<!-- Node12 -->
<g id="node11" class="node"><title>Node12</title>
<g id="a_node11"><a xlink:href="classant_1_1analysis_1_1utils_1_1_kin_fitter.html" target="_top" xlink:title="ant::analysis::utils\l::KinFitter">
<polygon fill="white" stroke="black" points="827,-265.275 827,-295.275 923,-295.275 923,-265.275 827,-265.275"/>
<text text-anchor="start" x="835" y="-283.275" font-family="Helvetica,sans-Serif" font-size="10.00">ant::analysis::utils</text>
<text text-anchor="middle" x="875" y="-272.275" font-family="Helvetica,sans-Serif" font-size="10.00">::KinFitter</text>
</a>
</g>
</g>
<!-- Node12&#45;&gt;Node2 -->
<g id="edge31" class="edge"><title>Node12&#45;&gt;Node2</title>
<path fill="none" stroke="#9a32cd" stroke-dasharray="5,2" d="M933.101,-277.853C1028.97,-273.786 1221.05,-265.637 1315.7,-261.622"/>
<polygon fill="#9a32cd" stroke="#9a32cd" points="932.857,-274.36 923.015,-278.281 933.154,-281.354 932.857,-274.36"/>
<text text-anchor="middle" x="1141" y="-275.275" font-family="Helvetica,sans-Serif" font-size="10.00"> kinfit</text>
</g>
<!-- Node12&#45;&gt;Node11 -->
<g id="edge13" class="edge"><title>Node12&#45;&gt;Node11</title>
<path fill="none" stroke="midnightblue" d="M933.41,-269.45C967.477,-262.684 1011.41,-253.358 1050,-243.275 1064.57,-239.47 1080.29,-234.783 1094.45,-230.34"/>
<polygon fill="midnightblue" stroke="midnightblue" points="932.306,-266.1 923.171,-271.466 933.658,-272.968 932.306,-266.1"/>
</g>
<!-- Node13 -->
<g id="node12" class="node"><title>Node13</title>
<g id="a_node12"><a xlink:href="classant_1_1analysis_1_1utils_1_1_fitter.html" target="_top" xlink:title="ant::analysis::utils\l::Fitter">
<polygon fill="white" stroke="black" points="605,-189.275 605,-219.275 701,-219.275 701,-189.275 605,-189.275"/>
<text text-anchor="start" x="613" y="-207.275" font-family="Helvetica,sans-Serif" font-size="10.00">ant::analysis::utils</text>
<text text-anchor="middle" x="653" y="-196.275" font-family="Helvetica,sans-Serif" font-size="10.00">::Fitter</text>
</a>
</g>
</g>
<!-- Node13&#45;&gt;Node12 -->
<g id="edge14" class="edge"><title>Node13&#45;&gt;Node12</title>
<path fill="none" stroke="midnightblue" d="M704.517,-222.899C731.572,-232.752 765.516,-244.919 796,-255.275 805.964,-258.66 816.685,-262.177 826.892,-265.467"/>
<polygon fill="midnightblue" stroke="midnightblue" points="705.474,-219.523 694.88,-219.382 703.074,-226.098 705.474,-219.523"/>
</g>
<!-- Node14 -->
<g id="node13" class="node"><title>Node14</title>
<g id="a_node13"><a xlink:href="structant_1_1analysis_1_1utils_1_1_kin_fitter_1_1_target__t.html" target="_top" xlink:title="ant::analysis::utils\l::KinFitter::Target_t">
<polygon fill="white" stroke="black" points="602.5,-326.275 602.5,-356.275 703.5,-356.275 703.5,-326.275 602.5,-326.275"/>
<text text-anchor="start" x="610.5" y="-344.275" font-family="Helvetica,sans-Serif" font-size="10.00">ant::analysis::utils</text>
<text text-anchor="middle" x="653" y="-333.275" font-family="Helvetica,sans-Serif" font-size="10.00">::KinFitter::Target_t</text>
</a>
</g>
</g>
<!-- Node14&#45;&gt;Node12 -->
<g id="edge15" class="edge"><title>Node14&#45;&gt;Node12</title>
<path fill="none" stroke="#9a32cd" stroke-dasharray="5,2" d="M713.428,-324.798C749.016,-314.93 793.631,-302.559 826.796,-293.364"/>
<polygon fill="#9a32cd" stroke="#9a32cd" points="712.348,-321.465 703.647,-327.51 714.218,-328.21 712.348,-321.465"/>
<text text-anchor="middle" x="756" y="-321.275" font-family="Helvetica,sans-Serif" font-size="10.00"> Target</text>
</g>
<!-- Node15 -->
<g id="node14" class="node"><title>Node15</title>
<g id="a_node14"><a xlink:href="structant_1_1analysis_1_1utils_1_1_kin_fitter_1_1_beam_e__t.html" target="_top" xlink:title="ant::analysis::utils\l::KinFitter::BeamE_t">
<polygon fill="white" stroke="black" points="600,-277.275 600,-307.275 706,-307.275 706,-277.275 600,-277.275"/>
<text text-anchor="start" x="608" y="-295.275" font-family="Helvetica,sans-Serif" font-size="10.00">ant::analysis::utils</text>
<text text-anchor="middle" x="653" y="-284.275" font-family="Helvetica,sans-Serif" font-size="10.00">::KinFitter::BeamE_t</text>
</a>
</g>
</g>
<!-- Node15&#45;&gt;Node12 -->
<g id="edge16" class="edge"><title>Node15&#45;&gt;Node12</title>
<path fill="none" stroke="#9a32cd" stroke-dasharray="5,2" d="M716.271,-288.879C751.348,-286.965 794.457,-284.614 826.737,-282.853"/>
<polygon fill="#9a32cd" stroke="#9a32cd" points="715.931,-285.392 706.137,-289.432 716.313,-292.382 715.931,-285.392"/>
<text text-anchor="middle" x="756" y="-291.275" font-family="Helvetica,sans-Serif" font-size="10.00"> BeamE</text>
</g>
<!-- Node16 -->
<g id="node15" class="node"><title>Node16</title>
<g id="a_node15"><a xlink:href="structant_1_1analysis_1_1utils_1_1_fitter_1_1_v___s___p__t.html" target="_top" xlink:title="ant::analysis::utils\l::Fitter::V_S_P_t">
<polygon fill="white" stroke="black" points="397,-277.275 397,-307.275 493,-307.275 493,-277.275 397,-277.275"/>
<text text-anchor="start" x="405" y="-295.275" font-family="Helvetica,sans-Serif" font-size="10.00">ant::analysis::utils</text>
<text text-anchor="middle" x="445" y="-284.275" font-family="Helvetica,sans-Serif" font-size="10.00">::Fitter::V_S_P_t</text>
</a>
</g>
</g>
<!-- Node16&#45;&gt;Node15 -->
<g id="edge17" class="edge"><title>Node16&#45;&gt;Node15</title>
<path fill="none" stroke="midnightblue" d="M503.391,-292.275C533.599,-292.275 570.365,-292.275 599.77,-292.275"/>
<polygon fill="midnightblue" stroke="midnightblue" points="503.002,-288.775 493.002,-292.275 503.002,-295.775 503.002,-288.775"/>
</g>
<!-- Node17 -->
<g id="node16" class="node"><title>Node17</title>
<g id="a_node16"><a xlink:href="structant_1_1analysis_1_1utils_1_1_fitter_1_1_v___s__t.html" target="_top" xlink:title="ant::analysis::utils\l::Fitter::V_S_t">
<polygon fill="white" stroke="black" points="199,-277.275 199,-307.275 295,-307.275 295,-277.275 199,-277.275"/>
<text text-anchor="start" x="207" y="-295.275" font-family="Helvetica,sans-Serif" font-size="10.00">ant::analysis::utils</text>
<text text-anchor="middle" x="247" y="-284.275" font-family="Helvetica,sans-Serif" font-size="10.00">::Fitter::V_S_t</text>
</a>
</g>
</g>
<!-- Node17&#45;&gt;Node16 -->
<g id="edge18" class="edge"><title>Node17&#45;&gt;Node16</title>
<path fill="none" stroke="midnightblue" d="M305.481,-292.275C334.597,-292.275 369.503,-292.275 396.991,-292.275"/>
<polygon fill="midnightblue" stroke="midnightblue" points="305.446,-288.775 295.446,-292.275 305.446,-295.775 305.446,-288.775"/>
</g>
<!-- Node18 -->
<g id="node17" class="node"><title>Node18</title>
<polygon fill="white" stroke="#bfbfbf" points="590.5,-238.775 590.5,-257.775 715.5,-257.775 715.5,-238.775 590.5,-238.775"/>
<text text-anchor="middle" x="653" y="-245.775" font-family="Helvetica,sans-Serif" font-size="10.00">std::vector&lt; FitParticle &gt;</text>
</g>
<!-- Node18&#45;&gt;Node12 -->
<g id="edge19" class="edge"><title>Node18&#45;&gt;Node12</title>
<path fill="none" stroke="#9a32cd" stroke-dasharray="5,2" d="M725.68,-258.702C758.843,-263.525 797.315,-269.121 826.766,-273.405"/>
<polygon fill="#9a32cd" stroke="#9a32cd" points="725.974,-255.208 715.575,-257.232 724.967,-262.135 725.974,-255.208"/>
<text text-anchor="middle" x="756" y="-269.275" font-family="Helvetica,sans-Serif" font-size="10.00"> Photons</text>
</g>
<!-- Node19 -->
<g id="node18" class="node"><title>Node19</title>
<polygon fill="white" stroke="#bfbfbf" points="822,-188.775 822,-207.775 928,-207.775 928,-188.775 822,-188.775"/>
<text text-anchor="middle" x="875" y="-195.775" font-family="Helvetica,sans-Serif" font-size="10.00">std::vector&lt; tree_t &gt;</text>
</g>
<!-- Node19&#45;&gt;Node11 -->
<g id="edge20" class="edge"><title>Node19&#45;&gt;Node11</title>
<path fill="none" stroke="#9a32cd" stroke-dasharray="5,2" d="M938.297,-196.073C971.52,-195.543 1013.06,-195.91 1050,-199.275 1063.91,-200.542 1078.89,-202.829 1092.56,-205.284"/>
<polygon fill="#9a32cd" stroke="#9a32cd" points="938.199,-192.574 928.267,-196.263 938.332,-199.572 938.199,-192.574"/>
<text text-anchor="middle" x="1011" y="-202.275" font-family="Helvetica,sans-Serif" font-size="10.00"> tree_leaves</text>
</g>
<!-- Node20 -->
<g id="node19" class="node"><title>Node20</title>
<polygon fill="white" stroke="#bfbfbf" points="802,-139.275 802,-169.275 948,-169.275 948,-139.275 802,-139.275"/>
<text text-anchor="start" x="810" y="-157.275" font-family="Helvetica,sans-Serif" font-size="10.00">std::list&lt; ant::analysis</text>
<text text-anchor="middle" x="875" y="-146.275" font-family="Helvetica,sans-Serif" font-size="10.00">::utils::TreeFitter::iteration_t &gt;</text>
</g>
<!-- Node20&#45;&gt;Node11 -->
<g id="edge21" class="edge"><title>Node20&#45;&gt;Node11</title>
<path fill="none" stroke="#9a32cd" stroke-dasharray="5,2" d="M958.482,-161.762C987.831,-165.81 1020.82,-171.967 1050,-181.275 1058.52,-183.994 1059.76,-186.801 1068,-190.275 1076.17,-193.719 1084.99,-197.072 1093.57,-200.147"/>
<polygon fill="#9a32cd" stroke="#9a32cd" points="958.637,-158.252 948.265,-160.416 957.723,-165.192 958.637,-158.252"/>
<text text-anchor="middle" x="1011" y="-184.275" font-family="Helvetica,sans-Serif" font-size="10.00"> iterations</text>
</g>
<!-- Node21 -->
<g id="node20" class="node"><title>Node21</title>
<g id="a_node20"><a xlink:href="structant_1_1analysis_1_1utils_1_1_tree_fitter_1_1iteration__t.html" target="_top" xlink:title="ant::analysis::utils\l::TreeFitter::iteration_t">
<polygon fill="white" stroke="black" points="596.5,-139.275 596.5,-169.275 709.5,-169.275 709.5,-139.275 596.5,-139.275"/>
<text text-anchor="start" x="604.5" y="-157.275" font-family="Helvetica,sans-Serif" font-size="10.00">ant::analysis::utils</text>
<text text-anchor="middle" x="653" y="-146.275" font-family="Helvetica,sans-Serif" font-size="10.00">::TreeFitter::iteration_t</text>
</a>
</g>
</g>
<!-- Node21&#45;&gt;Node20 -->
<g id="edge22" class="edge"><title>Node21&#45;&gt;Node20</title>
<path fill="none" stroke="#9a32cd" stroke-dasharray="5,2" d="M719.603,-154.275C745.501,-154.275 775.345,-154.275 801.85,-154.275"/>
<polygon fill="#9a32cd" stroke="#9a32cd" points="719.515,-150.775 709.515,-154.275 719.515,-157.775 719.515,-150.775"/>
<text text-anchor="middle" x="756" y="-157.275" font-family="Helvetica,sans-Serif" font-size="10.00"> elements</text>
</g>
<!-- Node22 -->
<g id="node21" class="node"><title>Node22</title>
<polygon fill="white" stroke="#bfbfbf" points="380.5,-133.775 380.5,-174.775 509.5,-174.775 509.5,-133.775 380.5,-133.775"/>
<text text-anchor="start" x="388.5" y="-162.775" font-family="Helvetica,sans-Serif" font-size="10.00">std::vector&lt; ant::analysis</text>
<text text-anchor="start" x="388.5" y="-151.775" font-family="Helvetica,sans-Serif" font-size="10.00">::utils::TreeFitter::iteration</text>
<text text-anchor="middle" x="445" y="-140.775" font-family="Helvetica,sans-Serif" font-size="10.00">_t::photon_t &gt;</text>
</g>
<!-- Node22&#45;&gt;Node21 -->
<g id="edge23" class="edge"><title>Node22&#45;&gt;Node21</title>
<path fill="none" stroke="#9a32cd" stroke-dasharray="5,2" d="M519.991,-154.275C545.111,-154.275 572.737,-154.275 596.195,-154.275"/>
<polygon fill="#9a32cd" stroke="#9a32cd" points="519.769,-150.775 509.769,-154.275 519.769,-157.775 519.769,-150.775"/>
<text text-anchor="middle" x="550" y="-157.275" font-family="Helvetica,sans-Serif" font-size="10.00"> Photons</text>
</g>
<!-- Node23 -->
<g id="node22" class="node"><title>Node23</title>
<g id="a_node22"><a xlink:href="structant_1_1analysis_1_1utils_1_1_tree_fitter_1_1iteration__t_1_1photon__t.html" target="_top" xlink:title="ant::analysis::utils\l::TreeFitter::iteration\l_t::photon_t">
<polygon fill="white" stroke="black" points="194.5,-133.775 194.5,-174.775 299.5,-174.775 299.5,-133.775 194.5,-133.775"/>
<text text-anchor="start" x="202.5" y="-162.775" font-family="Helvetica,sans-Serif" font-size="10.00">ant::analysis::utils</text>
<text text-anchor="start" x="202.5" y="-151.775" font-family="Helvetica,sans-Serif" font-size="10.00">::TreeFitter::iteration</text>
<text text-anchor="middle" x="247" y="-140.775" font-family="Helvetica,sans-Serif" font-size="10.00">_t::photon_t</text>
</a>
</g>
</g>
<!-- Node23&#45;&gt;Node22 -->
<g id="edge24" class="edge"><title>Node23&#45;&gt;Node22</title>
<path fill="none" stroke="#9a32cd" stroke-dasharray="5,2" d="M309.853,-154.275C332.333,-154.275 357.764,-154.275 380.393,-154.275"/>
<polygon fill="#9a32cd" stroke="#9a32cd" points="309.753,-150.775 299.753,-154.275 309.753,-157.775 309.753,-150.775"/>
<text text-anchor="middle" x="340" y="-157.275" font-family="Helvetica,sans-Serif" font-size="10.00"> elements</text>
</g>
<!-- Node24 -->
<g id="node23" class="node"><title>Node24</title>
<g id="a_node23"><a xlink:href="structant_1_1std__ext_1_1cc__shared__ptr.html" target="_top" xlink:title="ant::std_ext::cc_shared\l_ptr\&lt; TParticle \&gt;">
<polygon fill="white" stroke="black" points="0.5,-139.275 0.5,-169.275 119.5,-169.275 119.5,-139.275 0.5,-139.275"/>
<text text-anchor="start" x="8.5" y="-157.275" font-family="Helvetica,sans-Serif" font-size="10.00">ant::std_ext::cc_shared</text>
<text text-anchor="middle" x="60" y="-146.275" font-family="Helvetica,sans-Serif" font-size="10.00">_ptr&lt; TParticle &gt;</text>
</a>
</g>
</g>
<!-- Node24&#45;&gt;Node23 -->
<g id="edge25" class="edge"><title>Node24&#45;&gt;Node23</title>
<path fill="none" stroke="#9a32cd" stroke-dasharray="5,2" d="M129.57,-154.275C151.026,-154.275 174.326,-154.275 194.406,-154.275"/>
<polygon fill="#9a32cd" stroke="#9a32cd" points="129.535,-150.775 119.535,-154.275 129.535,-157.775 129.535,-150.775"/>
<text text-anchor="middle" x="157" y="-157.275" font-family="Helvetica,sans-Serif" font-size="10.00"> Particle</text>
</g>
<!-- Node25 -->
<g id="node24" class="node"><title>Node25</title>
<polygon fill="white" stroke="#bfbfbf" points="812,-90.2754 812,-120.275 938,-120.275 938,-90.2754 812,-90.2754"/>
<text text-anchor="start" x="820" y="-108.275" font-family="Helvetica,sans-Serif" font-size="10.00">std::vector&lt; std::function</text>
<text text-anchor="middle" x="875" y="-97.2754" font-family="Helvetica,sans-Serif" font-size="10.00">&lt; void()&gt; &gt;</text>
</g>
<!-- Node25&#45;&gt;Node11 -->
<g id="edge26" class="edge"><title>Node25&#45;&gt;Node11</title>
<path fill="none" stroke="#9a32cd" stroke-dasharray="5,2" d="M948.038,-109.039C982.259,-114.171 1021.75,-125.365 1050,-149.275 1065.19,-162.132 1053.38,-176.773 1068,-190.275 1075,-196.739 1083.76,-201.544 1092.73,-205.113"/>
<polygon fill="#9a32cd" stroke="#9a32cd" points="948.453,-105.564 938.074,-107.69 947.514,-112.5 948.453,-105.564"/>
<text text-anchor="middle" x="1011" y="-152.275" font-family="Helvetica,sans-Serif" font-size="10.00"> sum_daughters</text>
</g>
<!-- Node26 -->
<g id="node25" class="node"><title>Node26</title>
<polygon fill="white" stroke="#bfbfbf" points="805,-51.7754 805,-70.7754 945,-70.7754 945,-51.7754 805,-51.7754"/>
<text text-anchor="middle" x="875" y="-58.7754" font-family="Helvetica,sans-Serif" font-size="10.00">std::vector&lt; permutation_t &gt;</text>
</g>
<!-- Node26&#45;&gt;Node11 -->
<g id="edge27" class="edge"><title>Node26&#45;&gt;Node11</title>
<path fill="none" stroke="#9a32cd" stroke-dasharray="5,2" d="M955.489,-60.7845C988.896,-64.7563 1025.59,-75.2931 1050,-100.275 1078.51,-129.451 1041.19,-159.527 1068,-190.275 1074.52,-197.756 1083.4,-202.999 1092.7,-206.674"/>
<polygon fill="#9a32cd" stroke="#9a32cd" points="955.545,-57.2725 945.245,-59.7539 954.844,-64.2373 955.545,-57.2725"/>
<text text-anchor="middle" x="1011" y="-103.275" font-family="Helvetica,sans-Serif" font-size="10.00"> permutations</text>
</g>
<!-- Node27 -->
<g id="node26" class="node"><title>Node27</title>
<g id="a_node26"><a xlink:title="STL class. ">
<polygon fill="white" stroke="#bfbfbf" points="609.5,-51.7754 609.5,-70.7754 696.5,-70.7754 696.5,-51.7754 609.5,-51.7754"/>
<text text-anchor="middle" x="653" y="-58.7754" font-family="Helvetica,sans-Serif" font-size="10.00">std::vector&lt; T &gt;</text>
</a>
</g>
</g>
<!-- Node27&#45;&gt;Node26 -->
<g id="edge28" class="edge"><title>Node27&#45;&gt;Node26</title>
<path fill="none" stroke="#9a32cd" stroke-dasharray="5,2" d="M706.722,-61.2754C736.063,-61.2754 772.944,-61.2754 804.605,-61.2754"/>
<polygon fill="#9a32cd" stroke="#9a32cd" points="706.679,-57.7755 696.679,-61.2754 706.679,-64.7755 706.679,-57.7755"/>
<text text-anchor="middle" x="756" y="-64.2754" font-family="Helvetica,sans-Serif" font-size="10.00"> elements</text>
</g>
<!-- Node28 -->
<g id="node27" class="node"><title>Node28</title>
<polygon fill="white" stroke="#bfbfbf" points="430.5,-28.7754 430.5,-47.7754 459.5,-47.7754 459.5,-28.7754 430.5,-28.7754"/>
<text text-anchor="middle" x="445" y="-35.7754" font-family="Helvetica,sans-Serif" font-size="10.00">T</text>
</g>
<!-- Node28&#45;&gt;Node27 -->
<g id="edge29" class="edge"><title>Node28&#45;&gt;Node27</title>
<path fill="none" stroke="#9a32cd" stroke-dasharray="5,2" d="M469.881,-40.9417C503.935,-44.7438 566.99,-51.7839 609.223,-56.4993"/>
<polygon fill="#9a32cd" stroke="#9a32cd" points="469.843,-37.4158 459.516,-39.7844 469.066,-44.3725 469.843,-37.4158"/>
<text text-anchor="middle" x="550" y="-55.2754" font-family="Helvetica,sans-Serif" font-size="10.00"> elements</text>
</g>
<!-- Node33 -->
<g id="node32" class="node"><title>Node33</title>
<g id="a_node32"><a xlink:title="STL class. ">
<polygon fill="white" stroke="#bfbfbf" points="601,-2.27535 601,-32.2754 705,-32.2754 705,-2.27535 601,-2.27535"/>
<text text-anchor="start" x="609" y="-20.2754" font-family="Helvetica,sans-Serif" font-size="10.00">std::vector&lt; interval</text>
<text text-anchor="middle" x="653" y="-9.27535" font-family="Helvetica,sans-Serif" font-size="10.00">&lt; double &gt; &gt;</text>
</a>
</g>
</g>
<!-- Node28&#45;&gt;Node33 -->
<g id="edge36" class="edge"><title>Node28&#45;&gt;Node33</title>
<path fill="none" stroke="#9a32cd" stroke-dasharray="5,2" d="M469.803,-33.0582C486.103,-29.6986 508.258,-25.5485 528,-23.2754 551.874,-20.5265 578.474,-19.0339 600.897,-18.2248"/>
<polygon fill="#9a32cd" stroke="#9a32cd" points="468.615,-29.7319 459.556,-35.225 470.064,-36.5805 468.615,-29.7319"/>
<text text-anchor="middle" x="550" y="-26.2754" font-family="Helvetica,sans-Serif" font-size="10.00"> elements</text>
</g>
<!-- Node29 -->
<g id="node28" class="node"><title>Node29</title>
<polygon fill="white" stroke="#bfbfbf" points="796,-226.775 796,-245.775 954,-245.775 954,-226.775 796,-226.775"/>
<text text-anchor="middle" x="875" y="-233.775" font-family="Helvetica,sans-Serif" font-size="10.00">std::vector&lt; node_constraint_t &gt;</text>
</g>
<!-- Node29&#45;&gt;Node11 -->
<g id="edge30" class="edge"><title>Node29&#45;&gt;Node11</title>
<path fill="none" stroke="#9a32cd" stroke-dasharray="5,2" d="M964.314,-229.25C1007.23,-225.837 1057.09,-221.871 1092.7,-219.038"/>
<polygon fill="#9a32cd" stroke="#9a32cd" points="963.828,-225.778 954.137,-230.06 964.383,-232.756 963.828,-225.778"/>
<text text-anchor="middle" x="1011" y="-231.275" font-family="Helvetica,sans-Serif" font-size="10.00"> node_constraints</text>
</g>
<!-- Node30 -->
<g id="node29" class="node"><title>Node30</title>
<g id="a_node29"><a xlink:href="classant_1_1analysis_1_1utils_1_1_trigger_simulation.html" target="_top" xlink:title="ant::analysis::utils\l::TriggerSimulation">
<polygon fill="white" stroke="black" points="1092,-102.275 1092,-132.275 1190,-132.275 1190,-102.275 1092,-102.275"/>
<text text-anchor="start" x="1100" y="-120.275" font-family="Helvetica,sans-Serif" font-size="10.00">ant::analysis::utils</text>
<text text-anchor="middle" x="1141" y="-109.275" font-family="Helvetica,sans-Serif" font-size="10.00">::TriggerSimulation</text>
</a>
</g>
</g>
<!-- Node30&#45;&gt;Node2 -->
<g id="edge32" class="edge"><title>Node30&#45;&gt;Node2</title>
<path fill="none" stroke="#9a32cd" stroke-dasharray="5,2" d="M1199.87,-133.995C1230.83,-144.694 1268.54,-160.66 1298,-182.275 1322.65,-200.366 1346.03,-227.372 1359.42,-244.124"/>
<polygon fill="#9a32cd" stroke="#9a32cd" points="1200.67,-130.571 1190.07,-130.706 1198.44,-137.207 1200.67,-130.571"/>
<text text-anchor="middle" x="1265" y="-185.275" font-family="Helvetica,sans-Serif" font-size="10.00"> triggersimu</text>
</g>
<!-- Node31 -->
<g id="node30" class="node"><title>Node31</title>
<g id="a_node30"><a xlink:href="classant_1_1analysis_1_1_prompt_random_1_1_switch.html" target="_top" xlink:title="ant::analysis::PromptRandom\l::Switch">
<polygon fill="white" stroke="black" points="1068,-151.275 1068,-181.275 1214,-181.275 1214,-151.275 1068,-151.275"/>
<text text-anchor="start" x="1076" y="-169.275" font-family="Helvetica,sans-Serif" font-size="10.00">ant::analysis::PromptRandom</text>
<text text-anchor="middle" x="1141" y="-158.275" font-family="Helvetica,sans-Serif" font-size="10.00">::Switch</text>
</a>
</g>
</g>
<!-- Node31&#45;&gt;Node2 -->
<g id="edge33" class="edge"><title>Node31&#45;&gt;Node2</title>
<path fill="none" stroke="#9a32cd" stroke-dasharray="5,2" d="M1196.98,-184.533C1202.73,-186.463 1208.48,-188.404 1214,-190.275 1251.4,-202.965 1261.89,-203.284 1298,-219.275 1314.39,-226.531 1332.02,-236.142 1345.86,-244.125"/>
<polygon fill="#9a32cd" stroke="#9a32cd" points="1197.94,-181.165 1187.35,-181.309 1195.72,-187.803 1197.94,-181.165"/>
<text text-anchor="middle" x="1265" y="-222.275" font-family="Helvetica,sans-Serif" font-size="10.00"> promptrandom</text>
</g>
<!-- Node32 -->
<g id="node31" class="node"><title>Node32</title>
<g id="a_node31"><a xlink:href="classant_1_1_piecewise_interval.html" target="_top" xlink:title="ant::PiecewiseInterval\l\&lt; double \&gt;">
<polygon fill="white" stroke="black" points="818.5,-2.27535 818.5,-32.2754 931.5,-32.2754 931.5,-2.27535 818.5,-2.27535"/>
<text text-anchor="start" x="826.5" y="-20.2754" font-family="Helvetica,sans-Serif" font-size="10.00">ant::PiecewiseInterval</text>
<text text-anchor="middle" x="875" y="-9.27535" font-family="Helvetica,sans-Serif" font-size="10.00">&lt; double &gt;</text>
</a>
</g>
</g>
<!-- Node32&#45;&gt;Node31 -->
<g id="edge34" class="edge"><title>Node32&#45;&gt;Node31</title>
<path fill="none" stroke="#9a32cd" stroke-dasharray="5,2" d="M941.81,-1.83468C978.024,2.56221 1021.3,0.479193 1050,-25.2754 1088.83,-60.122 1034.58,-101.213 1068,-141.275 1071.22,-145.136 1075.07,-148.402 1079.3,-151.164"/>
<polygon fill="#9a32cd" stroke="#9a32cd" points="941.221,1.61711 931.801,-3.23238 942.189,-5.31562 941.221,1.61711"/>
<text text-anchor="middle" x="1011" y="-39.2754" font-family="Helvetica,sans-Serif" font-size="10.00"> promptw</text>
<text text-anchor="middle" x="1011" y="-28.2754" font-family="Helvetica,sans-Serif" font-size="10.00">randomw</text>
</g>
<!-- Node33&#45;&gt;Node32 -->
<g id="edge35" class="edge"><title>Node33&#45;&gt;Node32</title>
<path fill="none" stroke="midnightblue" d="M715.239,-17.2754C747.515,-17.2754 786.813,-17.2754 818.236,-17.2754"/>
<polygon fill="midnightblue" stroke="midnightblue" points="715.025,-13.7755 705.025,-17.2754 715.025,-20.7755 715.025,-13.7755"/>
</g>
</g>
</svg>
