<?xml version="1.0" encoding="UTF-8" standalone="no"?>
<!DOCTYPE svg PUBLIC "-//W3C//DTD SVG 1.1//EN"
 "http://www.w3.org/Graphics/SVG/1.1/DTD/svg11.dtd">
<!-- Generated by graphviz version 2.36.0 (20140111.2315)
 -->
<!-- Title: ant::analysis::physics::FindProton Pages: 1 -->
<svg width="890pt" height="303pt"
 viewBox="0.00 0.00 890.00 303.00" xmlns="http://www.w3.org/2000/svg" xmlns:xlink="http://www.w3.org/1999/xlink">
<g id="graph0" class="graph" transform="scale(1 1) rotate(0) translate(4 299)">
<title>ant::analysis::physics::FindProton</title>
<polygon fill="white" stroke="none" points="-4,4 -4,-299 886,-299 886,4 -4,4"/>
<!-- Node2 -->
<g id="node1" class="node"><title>Node2</title>
<polygon fill="#bfbfbf" stroke="black" points="770,-98 770,-128 882,-128 882,-98 770,-98"/>
<text text-anchor="start" x="778" y="-116" font-family="Helvetica,sans-Serif" font-size="10.00">ant::analysis::physics</text>
<text text-anchor="middle" x="826" y="-105" font-family="Helvetica,sans-Serif" font-size="10.00">::FindProton</text>
</g>
<!-- Node3 -->
<g id="node2" class="node"><title>Node3</title>
<g id="a_node2"><a xlink:href="classant_1_1analysis_1_1_physics.html" target="_top" xlink:title="ant::analysis::Physics">
<polygon fill="white" stroke="black" points="538.5,-242.5 538.5,-261.5 651.5,-261.5 651.5,-242.5 538.5,-242.5"/>
<text text-anchor="middle" x="595" y="-249.5" font-family="Helvetica,sans-Serif" font-size="10.00">ant::analysis::Physics</text>
</a>
</g>
</g>
<!-- Node3&#45;&gt;Node2 -->
<g id="edge1" class="edge"><title>Node3&#45;&gt;Node2</title>
<path fill="none" stroke="midnightblue" d="M620.326,-237.234C664.131,-210.646 755.822,-154.99 800.066,-128.135"/>
<polygon fill="midnightblue" stroke="midnightblue" points="618.472,-234.265 611.74,-242.446 622.105,-240.249 618.472,-234.265"/>
</g>
<!-- Node4 -->
<g id="node3" class="node"><title>Node4</title>
<g id="a_node3"><a xlink:href="classant_1_1analysis_1_1_histogram_factory.html" target="_top" xlink:title="ant::analysis::Histogram\lFactory">
<polygon fill="white" stroke="black" points="319.5,-265 319.5,-295 442.5,-295 442.5,-265 319.5,-265"/>
<text text-anchor="start" x="327.5" y="-283" font-family="Helvetica,sans-Serif" font-size="10.00">ant::analysis::Histogram</text>
<text text-anchor="middle" x="381" y="-272" font-family="Helvetica,sans-Serif" font-size="10.00">Factory</text>
</a>
</g>
</g>
<!-- Node4&#45;&gt;Node3 -->
<g id="edge2" class="edge"><title>Node4&#45;&gt;Node3</title>
<path fill="none" stroke="#9a32cd" stroke-dasharray="5,2" d="M452.825,-270.646C480.665,-266.969 512.155,-262.81 538.319,-259.354"/>
<polygon fill="#9a32cd" stroke="#9a32cd" points="452.206,-267.197 442.751,-271.976 453.123,-274.137 452.206,-267.197"/>
<text text-anchor="middle" x="483" y="-272" font-family="Helvetica,sans-Serif" font-size="10.00"> HistFac</text>
</g>
<!-- Node5 -->
<g id="node4" class="node"><title>Node5</title>
<g id="a_node4"><a xlink:href="classant_1_1analysis_1_1utils_1_1_kin_fitter.html" target="_top" xlink:title="ant::analysis::utils\l::KinFitter">
<polygon fill="white" stroke="black" points="547,-147 547,-177 643,-177 643,-147 547,-147"/>
<text text-anchor="start" x="555" y="-165" font-family="Helvetica,sans-Serif" font-size="10.00">ant::analysis::utils</text>
<text text-anchor="middle" x="595" y="-154" font-family="Helvetica,sans-Serif" font-size="10.00">::KinFitter</text>
</a>
</g>
</g>
<!-- Node5&#45;&gt;Node2 -->
<g id="edge3" class="edge"><title>Node5&#45;&gt;Node2</title>
<path fill="none" stroke="#9a32cd" stroke-dasharray="5,2" d="M652.958,-149.812C688.667,-142.172 734.464,-132.372 769.828,-124.805"/>
<polygon fill="#9a32cd" stroke="#9a32cd" points="652.218,-146.392 643.171,-151.907 653.682,-153.237 652.218,-146.392"/>
<text text-anchor="middle" x="719" y="-145" font-family="Helvetica,sans-Serif" font-size="10.00"> fitter</text>
</g>
<!-- Node6 -->
<g id="node5" class="node"><title>Node6</title>
<g id="a_node5"><a xlink:href="classant_1_1analysis_1_1utils_1_1_fitter.html" target="_top" xlink:title="ant::analysis::utils\l::Fitter">
<polygon fill="white" stroke="black" points="333,-216 333,-246 429,-246 429,-216 333,-216"/>
<text text-anchor="start" x="341" y="-234" font-family="Helvetica,sans-Serif" font-size="10.00">ant::analysis::utils</text>
<text text-anchor="middle" x="381" y="-223" font-family="Helvetica,sans-Serif" font-size="10.00">::Fitter</text>
</a>
</g>
</g>
<!-- Node6&#45;&gt;Node5 -->
<g id="edge4" class="edge"><title>Node6&#45;&gt;Node5</title>
<path fill="none" stroke="midnightblue" d="M438.12,-212.735C472.358,-201.591 515.59,-187.52 547.836,-177.025"/>
<polygon fill="midnightblue" stroke="midnightblue" points="436.688,-209.52 428.262,-215.943 438.855,-216.176 436.688,-209.52"/>
</g>
<!-- Node7 -->
<g id="node6" class="node"><title>Node7</title>
<g id="a_node6"><a xlink:href="structant_1_1analysis_1_1utils_1_1_kin_fitter_1_1_target__t.html" target="_top" xlink:title="ant::analysis::utils\l::KinFitter::Target_t">
<polygon fill="white" stroke="black" points="330.5,-167 330.5,-197 431.5,-197 431.5,-167 330.5,-167"/>
<text text-anchor="start" x="338.5" y="-185" font-family="Helvetica,sans-Serif" font-size="10.00">ant::analysis::utils</text>
<text text-anchor="middle" x="381" y="-174" font-family="Helvetica,sans-Serif" font-size="10.00">::KinFitter::Target_t</text>
</a>
</g>
</g>
<!-- Node7&#45;&gt;Node5 -->
<g id="edge5" class="edge"><title>Node7&#45;&gt;Node5</title>
<path fill="none" stroke="#9a32cd" stroke-dasharray="5,2" d="M441.761,-176.362C475.007,-173.226 515.801,-169.377 546.79,-166.454"/>
<polygon fill="#9a32cd" stroke="#9a32cd" points="441.332,-172.887 431.705,-177.311 441.989,-179.856 441.332,-172.887"/>
<text text-anchor="middle" x="483" y="-178" font-family="Helvetica,sans-Serif" font-size="10.00"> Target</text>
</g>
<!-- Node8 -->
<g id="node7" class="node"><title>Node8</title>
<g id="a_node7"><a xlink:href="structant_1_1analysis_1_1utils_1_1_kin_fitter_1_1_beam_e__t.html" target="_top" xlink:title="ant::analysis::utils\l::KinFitter::BeamE_t">
<polygon fill="white" stroke="black" points="328,-118 328,-148 434,-148 434,-118 328,-118"/>
<text text-anchor="start" x="336" y="-136" font-family="Helvetica,sans-Serif" font-size="10.00">ant::analysis::utils</text>
<text text-anchor="middle" x="381" y="-125" font-family="Helvetica,sans-Serif" font-size="10.00">::KinFitter::BeamE_t</text>
</a>
</g>
</g>
<!-- Node8&#45;&gt;Node5 -->
<g id="edge6" class="edge"><title>Node8&#45;&gt;Node5</title>
<path fill="none" stroke="#9a32cd" stroke-dasharray="5,2" d="M444.077,-141.492C476.881,-145.979 516.504,-151.399 546.776,-155.54"/>
<polygon fill="#9a32cd" stroke="#9a32cd" points="444.515,-138.019 434.133,-140.131 443.566,-144.954 444.515,-138.019"/>
<text text-anchor="middle" x="483" y="-153" font-family="Helvetica,sans-Serif" font-size="10.00"> BeamE</text>
</g>
<!-- Node9 -->
<g id="node8" class="node"><title>Node9</title>
<g id="a_node8"><a xlink:href="structant_1_1analysis_1_1utils_1_1_fitter_1_1_v___s___p__t.html" target="_top" xlink:title="ant::analysis::utils\l::Fitter::V_S_P_t">
<polygon fill="white" stroke="black" points="180,-118 180,-148 276,-148 276,-118 180,-118"/>
<text text-anchor="start" x="188" y="-136" font-family="Helvetica,sans-Serif" font-size="10.00">ant::analysis::utils</text>
<text text-anchor="middle" x="228" y="-125" font-family="Helvetica,sans-Serif" font-size="10.00">::Fitter::V_S_P_t</text>
</a>
</g>
</g>
<!-- Node9&#45;&gt;Node8 -->
<g id="edge7" class="edge"><title>Node9&#45;&gt;Node8</title>
<path fill="none" stroke="midnightblue" d="M286.547,-133C300.115,-133 314.504,-133 327.82,-133"/>
<polygon fill="midnightblue" stroke="midnightblue" points="286.363,-129.5 276.363,-133 286.363,-136.5 286.363,-129.5"/>
</g>
<!-- Node10 -->
<g id="node9" class="node"><title>Node10</title>
<g id="a_node9"><a xlink:href="structant_1_1analysis_1_1utils_1_1_fitter_1_1_v___s__t.html" target="_top" xlink:title="ant::analysis::utils\l::Fitter::V_S_t">
<polygon fill="white" stroke="black" points="0,-118 0,-148 96,-148 96,-118 0,-118"/>
<text text-anchor="start" x="8" y="-136" font-family="Helvetica,sans-Serif" font-size="10.00">ant::analysis::utils</text>
<text text-anchor="middle" x="48" y="-125" font-family="Helvetica,sans-Serif" font-size="10.00">::Fitter::V_S_t</text>
</a>
</g>
</g>
<!-- Node10&#45;&gt;Node9 -->
<g id="edge8" class="edge"><title>Node10&#45;&gt;Node9</title>
<path fill="none" stroke="midnightblue" d="M106.508,-133C130.216,-133 157.348,-133 179.855,-133"/>
<polygon fill="midnightblue" stroke="midnightblue" points="106.233,-129.5 96.2334,-133 106.233,-136.5 106.233,-129.5"/>
</g>
<!-- Node11 -->
<g id="node10" class="node"><title>Node11</title>
<polygon fill="white" stroke="#bfbfbf" points="318.5,-79.5 318.5,-98.5 443.5,-98.5 443.5,-79.5 318.5,-79.5"/>
<text text-anchor="middle" x="381" y="-86.5" font-family="Helvetica,sans-Serif" font-size="10.00">std::vector&lt; FitParticle &gt;</text>
</g>
<!-- Node11&#45;&gt;Node5 -->
<g id="edge9" class="edge"><title>Node11&#45;&gt;Node5</title>
<path fill="none" stroke="#9a32cd" stroke-dasharray="5,2" d="M423.964,-101.523C430.684,-103.625 437.548,-105.83 444,-108 470.921,-117.053 477.43,-119.963 504,-130 512.03,-133.033 513.944,-134.036 522,-137 530.941,-140.29 540.548,-143.706 549.739,-146.918"/>
<polygon fill="#9a32cd" stroke="#9a32cd" points="424.872,-98.1405 414.285,-98.5323 422.806,-104.829 424.872,-98.1405"/>
<text text-anchor="middle" x="483" y="-133" font-family="Helvetica,sans-Serif" font-size="10.00"> Photons</text>
</g>
<!-- Node12 -->
<g id="node11" class="node"><title>Node12</title>
<g id="a_node11"><a xlink:href="classant_1_1analysis_1_1utils_1_1_trigger_simulation.html" target="_top" xlink:title="ant::analysis::utils\l::TriggerSimulation">
<polygon fill="white" stroke="black" points="546,-98 546,-128 644,-128 644,-98 546,-98"/>
<text text-anchor="start" x="554" y="-116" font-family="Helvetica,sans-Serif" font-size="10.00">ant::analysis::utils</text>
<text text-anchor="middle" x="595" y="-105" font-family="Helvetica,sans-Serif" font-size="10.00">::TriggerSimulation</text>
</a>
</g>
</g>
<!-- Node12&#45;&gt;Node2 -->
<g id="edge10" class="edge"><title>Node12&#45;&gt;Node2</title>
<path fill="none" stroke="#9a32cd" stroke-dasharray="5,2" d="M654.223,-113C689.737,-113 734.866,-113 769.812,-113"/>
<polygon fill="#9a32cd" stroke="#9a32cd" points="654.006,-109.5 644.006,-113 654.006,-116.5 654.006,-109.5"/>
<text text-anchor="middle" x="719" y="-116" font-family="Helvetica,sans-Serif" font-size="10.00"> triggersimu</text>
</g>
<!-- Node13 -->
<g id="node12" class="node"><title>Node13</title>
<g id="a_node12"><a xlink:href="classant_1_1analysis_1_1_prompt_random_1_1_switch.html" target="_top" xlink:title="ant::analysis::PromptRandom\l::Switch">
<polygon fill="white" stroke="black" points="522,-49 522,-79 668,-79 668,-49 522,-49"/>
<text text-anchor="start" x="530" y="-67" font-family="Helvetica,sans-Serif" font-size="10.00">ant::analysis::PromptRandom</text>
<text text-anchor="middle" x="595" y="-56" font-family="Helvetica,sans-Serif" font-size="10.00">::Switch</text>
</a>
</g>
</g>
<!-- Node13&#45;&gt;Node2 -->
<g id="edge11" class="edge"><title>Node13&#45;&gt;Node2</title>
<path fill="none" stroke="#9a32cd" stroke-dasharray="5,2" d="M676.164,-81.1531C707.097,-87.7718 741.713,-95.1788 769.772,-101.183"/>
<polygon fill="#9a32cd" stroke="#9a32cd" points="676.775,-77.7045 666.264,-79.0346 675.31,-84.5496 676.775,-77.7045"/>
<text text-anchor="middle" x="719" y="-101" font-family="Helvetica,sans-Serif" font-size="10.00"> promptrandom</text>
</g>
<!-- Node14 -->
<g id="node13" class="node"><title>Node14</title>
<g id="a_node13"><a xlink:href="classant_1_1_piecewise_interval.html" target="_top" xlink:title="ant::PiecewiseInterval\l\&lt; double \&gt;">
<polygon fill="white" stroke="black" points="324.5,-30 324.5,-60 437.5,-60 437.5,-30 324.5,-30"/>
<text text-anchor="start" x="332.5" y="-48" font-family="Helvetica,sans-Serif" font-size="10.00">ant::PiecewiseInterval</text>
<text text-anchor="middle" x="381" y="-37" font-family="Helvetica,sans-Serif" font-size="10.00">&lt; double &gt;</text>
</a>
</g>
</g>
<!-- Node14&#45;&gt;Node13 -->
<g id="edge12" class="edge"><title>Node14&#45;&gt;Node13</title>
<path fill="none" stroke="#9a32cd" stroke-dasharray="5,2" d="M447.921,-43.264C466.128,-43.4032 485.863,-44.1289 504,-46 511.133,-46.7358 518.539,-47.7691 525.901,-48.9726"/>
<polygon fill="#9a32cd" stroke="#9a32cd" points="447.701,-39.7637 437.694,-43.2445 447.687,-46.7636 447.701,-39.7637"/>
<text text-anchor="middle" x="483" y="-60" font-family="Helvetica,sans-Serif" font-size="10.00"> promptw</text>
<text text-anchor="middle" x="483" y="-49" font-family="Helvetica,sans-Serif" font-size="10.00">randomw</text>
</g>
<!-- Node15 -->
<g id="node14" class="node"><title>Node15</title>
<g id="a_node14"><a xlink:title="STL class. ">
<polygon fill="white" stroke="#bfbfbf" points="176,-30 176,-60 280,-60 280,-30 176,-30"/>
<text text-anchor="start" x="184" y="-48" font-family="Helvetica,sans-Serif" font-size="10.00">std::vector&lt; interval</text>
<text text-anchor="middle" x="228" y="-37" font-family="Helvetica,sans-Serif" font-size="10.00">&lt; double &gt; &gt;</text>
</a>
</g>
</g>
<!-- Node15&#45;&gt;Node14 -->
<g id="edge13" class="edge"><title>Node15&#45;&gt;Node14</title>
<path fill="none" stroke="midnightblue" d="M290.291,-45C301.529,-45 313.204,-45 324.269,-45"/>
<polygon fill="midnightblue" stroke="midnightblue" points="290.122,-41.5001 280.122,-45 290.122,-48.5001 290.122,-41.5001"/>
</g>
<!-- Node16 -->
<g id="node15" class="node"><title>Node16</title>
<polygon fill="white" stroke="#bfbfbf" points="33.5,-35.5 33.5,-54.5 62.5,-54.5 62.5,-35.5 33.5,-35.5"/>
<text text-anchor="middle" x="48" y="-42.5" font-family="Helvetica,sans-Serif" font-size="10.00">T</text>
</g>
<!-- Node16&#45;&gt;Node15 -->
<g id="edge14" class="edge"><title>Node16&#45;&gt;Node15</title>
<path fill="none" stroke="#9a32cd" stroke-dasharray="5,2" d="M72.7849,-45C98.9344,-45 141.733,-45 175.617,-45"/>
<polygon fill="#9a32cd" stroke="#9a32cd" points="72.6718,-41.5001 62.6718,-45 72.6718,-48.5001 72.6718,-41.5001"/>
<text text-anchor="middle" x="136" y="-48" font-family="Helvetica,sans-Serif" font-size="10.00"> elements</text>
</g>
<!-- Node17 -->
<g id="node16" class="node"><title>Node17</title>
<g id="a_node16"><a xlink:href="structant_1_1analysis_1_1physics_1_1_find_proton_1_1branches__t.html" target="_top" xlink:title="ant::analysis::physics\l::FindProton::branches_t">
<polygon fill="white" stroke="black" points="533,-0 533,-30 657,-30 657,-0 533,-0"/>
<text text-anchor="start" x="541" y="-18" font-family="Helvetica,sans-Serif" font-size="10.00">ant::analysis::physics</text>
<text text-anchor="middle" x="595" y="-7" font-family="Helvetica,sans-Serif" font-size="10.00">::FindProton::branches_t</text>
</a>
</g>
</g>
<!-- Node17&#45;&gt;Node2 -->
<g id="edge15" class="edge"><title>Node17&#45;&gt;Node2</title>
<path fill="none" stroke="#9a32cd" stroke-dasharray="5,2" d="M651.267,-33.2235C656.927,-35.1493 662.584,-37.0986 668,-39 705.548,-52.1826 716.046,-52.9444 752,-70 769.276,-78.1953 787.831,-89.1558 801.911,-97.9598"/>
<polygon fill="#9a32cd" stroke="#9a32cd" points="652.375,-29.9037 641.781,-30.0174 650.134,-36.5352 652.375,-29.9037"/>
<text text-anchor="middle" x="719" y="-73" font-family="Helvetica,sans-Serif" font-size="10.00"> tree_branches</text>
</g>
</g>
</svg>
