<?xml version="1.0" encoding="UTF-8" standalone="no"?>
<!DOCTYPE svg PUBLIC "-//W3C//DTD SVG 1.1//EN"
 "http://www.w3.org/Graphics/SVG/1.1/DTD/svg11.dtd">
<!-- Generated by graphviz version 2.36.0 (20140111.2315)
 -->
<!-- Title: ant::analysis::physics::KinFitIMCheck Pages: 1 -->
<svg width="890pt" height="346pt"
 viewBox="0.00 0.00 890.00 346.00" xmlns="http://www.w3.org/2000/svg" xmlns:xlink="http://www.w3.org/1999/xlink">
<g id="graph0" class="graph" transform="scale(1 1) rotate(0) translate(4 342)">
<title>ant::analysis::physics::KinFitIMCheck</title>
<polygon fill="white" stroke="none" points="-4,4 -4,-342 886,-342 886,4 -4,4"/>
<!-- Node2 -->
<g id="node1" class="node"><title>Node2</title>
<polygon fill="#bfbfbf" stroke="black" points="770,-98 770,-128 882,-128 882,-98 770,-98"/>
<text text-anchor="start" x="778" y="-116" font-family="Helvetica,sans-Serif" font-size="10.00">ant::analysis::physics</text>
<text text-anchor="middle" x="826" y="-105" font-family="Helvetica,sans-Serif" font-size="10.00">::KinFitIMCheck</text>
</g>
<!-- Node3 -->
<g id="node2" class="node"><title>Node3</title>
<g id="a_node2"><a xlink:href="classant_1_1analysis_1_1_physics.html" target="_top" xlink:title="ant::analysis::Physics">
<polygon fill="white" stroke="black" points="538.5,-261.5 538.5,-280.5 651.5,-280.5 651.5,-261.5 538.5,-261.5"/>
<text text-anchor="middle" x="595" y="-268.5" font-family="Helvetica,sans-Serif" font-size="10.00">ant::analysis::Physics</text>
</a>
</g>
</g>
<!-- Node3&#45;&gt;Node2 -->
<g id="edge1" class="edge"><title>Node3&#45;&gt;Node2</title>
<path fill="none" stroke="midnightblue" d="M619.434,-255.602C650.108,-235.361 705.446,-198.551 752,-166 769.969,-153.435 790.117,-138.763 804.686,-128.045"/>
<polygon fill="midnightblue" stroke="midnightblue" points="617.168,-252.904 610.743,-261.329 621.019,-258.749 617.168,-252.904"/>
</g>
<!-- Node4 -->
<g id="node3" class="node"><title>Node4</title>
<g id="a_node3"><a xlink:href="classant_1_1analysis_1_1_histogram_factory.html" target="_top" xlink:title="ant::analysis::Histogram\lFactory">
<polygon fill="white" stroke="black" points="319.5,-308 319.5,-338 442.5,-338 442.5,-308 319.5,-308"/>
<text text-anchor="start" x="327.5" y="-326" font-family="Helvetica,sans-Serif" font-size="10.00">ant::analysis::Histogram</text>
<text text-anchor="middle" x="381" y="-315" font-family="Helvetica,sans-Serif" font-size="10.00">Factory</text>
</a>
</g>
</g>
<!-- Node4&#45;&gt;Node3 -->
<g id="edge2" class="edge"><title>Node4&#45;&gt;Node3</title>
<path fill="none" stroke="#9a32cd" stroke-dasharray="5,2" d="M452.672,-305.665C486.772,-297.301 526.38,-287.586 554.974,-280.572"/>
<polygon fill="#9a32cd" stroke="#9a32cd" points="451.629,-302.317 442.751,-308.099 453.297,-309.116 451.629,-302.317"/>
<text text-anchor="middle" x="483" y="-306" font-family="Helvetica,sans-Serif" font-size="10.00"> HistFac</text>
</g>
<!-- Node5 -->
<g id="node4" class="node"><title>Node5</title>
<g id="a_node4"><a xlink:href="classant_1_1analysis_1_1utils_1_1_kin_fitter.html" target="_top" xlink:title="ant::analysis::utils\l::KinFitter">
<polygon fill="white" stroke="black" points="547,-161 547,-191 643,-191 643,-161 547,-161"/>
<text text-anchor="start" x="555" y="-179" font-family="Helvetica,sans-Serif" font-size="10.00">ant::analysis::utils</text>
<text text-anchor="middle" x="595" y="-168" font-family="Helvetica,sans-Serif" font-size="10.00">::KinFitter</text>
</a>
</g>
</g>
<!-- Node5&#45;&gt;Node2 -->
<g id="edge3" class="edge"><title>Node5&#45;&gt;Node2</title>
<path fill="none" stroke="#9a32cd" stroke-dasharray="5,2" d="M652.994,-160.32C688.836,-150.46 734.832,-137.806 770.241,-128.065"/>
<polygon fill="#9a32cd" stroke="#9a32cd" points="651.885,-156.996 643.171,-163.023 653.741,-163.745 651.885,-156.996"/>
<text text-anchor="middle" x="719" y="-154" font-family="Helvetica,sans-Serif" font-size="10.00"> fitter</text>
</g>
<!-- Node6 -->
<g id="node5" class="node"><title>Node6</title>
<g id="a_node5"><a xlink:href="classant_1_1analysis_1_1utils_1_1_fitter.html" target="_top" xlink:title="ant::analysis::utils\l::Fitter">
<polygon fill="white" stroke="black" points="333,-259 333,-289 429,-289 429,-259 333,-259"/>
<text text-anchor="start" x="341" y="-277" font-family="Helvetica,sans-Serif" font-size="10.00">ant::analysis::utils</text>
<text text-anchor="middle" x="381" y="-266" font-family="Helvetica,sans-Serif" font-size="10.00">::Fitter</text>
</a>
</g>
</g>
<!-- Node6&#45;&gt;Node5 -->
<g id="edge4" class="edge"><title>Node6&#45;&gt;Node5</title>
<path fill="none" stroke="midnightblue" d="M429.513,-255.065C434.416,-253.044 439.316,-250.997 444,-249 470.899,-237.53 477.639,-234.658 504,-222 524.722,-212.049 547.803,-200.237 565.403,-191.074"/>
<polygon fill="midnightblue" stroke="midnightblue" points="428.065,-251.876 420.133,-258.9 430.714,-258.356 428.065,-251.876"/>
</g>
<!-- Node7 -->
<g id="node6" class="node"><title>Node7</title>
<g id="a_node6"><a xlink:href="structant_1_1analysis_1_1utils_1_1_kin_fitter_1_1_target__t.html" target="_top" xlink:title="ant::analysis::utils\l::KinFitter::Target_t">
<polygon fill="white" stroke="black" points="330.5,-210 330.5,-240 431.5,-240 431.5,-210 330.5,-210"/>
<text text-anchor="start" x="338.5" y="-228" font-family="Helvetica,sans-Serif" font-size="10.00">ant::analysis::utils</text>
<text text-anchor="middle" x="381" y="-217" font-family="Helvetica,sans-Serif" font-size="10.00">::KinFitter::Target_t</text>
</a>
</g>
</g>
<!-- Node7&#45;&gt;Node5 -->
<g id="edge5" class="edge"><title>Node7&#45;&gt;Node5</title>
<path fill="none" stroke="#9a32cd" stroke-dasharray="5,2" d="M441.761,-211.187C475.007,-203.503 515.801,-194.074 546.79,-186.912"/>
<polygon fill="#9a32cd" stroke="#9a32cd" points="440.66,-207.85 431.705,-213.512 442.236,-214.67 440.66,-207.85"/>
<text text-anchor="middle" x="483" y="-210" font-family="Helvetica,sans-Serif" font-size="10.00"> Target</text>
</g>
<!-- Node8 -->
<g id="node7" class="node"><title>Node8</title>
<g id="a_node7"><a xlink:href="structant_1_1analysis_1_1utils_1_1_kin_fitter_1_1_beam_e__t.html" target="_top" xlink:title="ant::analysis::utils\l::KinFitter::BeamE_t">
<polygon fill="white" stroke="black" points="328,-161 328,-191 434,-191 434,-161 328,-161"/>
<text text-anchor="start" x="336" y="-179" font-family="Helvetica,sans-Serif" font-size="10.00">ant::analysis::utils</text>
<text text-anchor="middle" x="381" y="-168" font-family="Helvetica,sans-Serif" font-size="10.00">::KinFitter::BeamE_t</text>
</a>
</g>
</g>
<!-- Node8&#45;&gt;Node5 -->
<g id="edge6" class="edge"><title>Node8&#45;&gt;Node5</title>
<path fill="none" stroke="#9a32cd" stroke-dasharray="5,2" d="M444.501,-176C477.223,-176 516.635,-176 546.776,-176"/>
<polygon fill="#9a32cd" stroke="#9a32cd" points="444.133,-172.5 434.133,-176 444.133,-179.5 444.133,-172.5"/>
<text text-anchor="middle" x="483" y="-179" font-family="Helvetica,sans-Serif" font-size="10.00"> BeamE</text>
</g>
<!-- Node9 -->
<g id="node8" class="node"><title>Node9</title>
<g id="a_node8"><a xlink:href="structant_1_1analysis_1_1utils_1_1_fitter_1_1_v___s___p__t.html" target="_top" xlink:title="ant::analysis::utils\l::Fitter::V_S_P_t">
<polygon fill="white" stroke="black" points="180,-161 180,-191 276,-191 276,-161 180,-161"/>
<text text-anchor="start" x="188" y="-179" font-family="Helvetica,sans-Serif" font-size="10.00">ant::analysis::utils</text>
<text text-anchor="middle" x="228" y="-168" font-family="Helvetica,sans-Serif" font-size="10.00">::Fitter::V_S_P_t</text>
</a>
</g>
</g>
<!-- Node9&#45;&gt;Node8 -->
<g id="edge7" class="edge"><title>Node9&#45;&gt;Node8</title>
<path fill="none" stroke="midnightblue" d="M286.547,-176C300.115,-176 314.504,-176 327.82,-176"/>
<polygon fill="midnightblue" stroke="midnightblue" points="286.363,-172.5 276.363,-176 286.363,-179.5 286.363,-172.5"/>
</g>
<!-- Node10 -->
<g id="node9" class="node"><title>Node10</title>
<g id="a_node9"><a xlink:href="structant_1_1analysis_1_1utils_1_1_fitter_1_1_v___s__t.html" target="_top" xlink:title="ant::analysis::utils\l::Fitter::V_S_t">
<polygon fill="white" stroke="black" points="0,-161 0,-191 96,-191 96,-161 0,-161"/>
<text text-anchor="start" x="8" y="-179" font-family="Helvetica,sans-Serif" font-size="10.00">ant::analysis::utils</text>
<text text-anchor="middle" x="48" y="-168" font-family="Helvetica,sans-Serif" font-size="10.00">::Fitter::V_S_t</text>
</a>
</g>
</g>
<!-- Node10&#45;&gt;Node9 -->
<g id="edge8" class="edge"><title>Node10&#45;&gt;Node9</title>
<path fill="none" stroke="midnightblue" d="M106.508,-176C130.216,-176 157.348,-176 179.855,-176"/>
<polygon fill="midnightblue" stroke="midnightblue" points="106.233,-172.5 96.2334,-176 106.233,-179.5 106.233,-172.5"/>
</g>
<!-- Node11 -->
<g id="node10" class="node"><title>Node11</title>
<polygon fill="white" stroke="#bfbfbf" points="318.5,-122.5 318.5,-141.5 443.5,-141.5 443.5,-122.5 318.5,-122.5"/>
<text text-anchor="middle" x="381" y="-129.5" font-family="Helvetica,sans-Serif" font-size="10.00">std::vector&lt; FitParticle &gt;</text>
</g>
<!-- Node11&#45;&gt;Node5 -->
<g id="edge9" class="edge"><title>Node11&#45;&gt;Node5</title>
<path fill="none" stroke="#9a32cd" stroke-dasharray="5,2" d="M438.225,-143.669C472.148,-150.71 514.87,-159.577 546.989,-166.243"/>
<polygon fill="#9a32cd" stroke="#9a32cd" points="438.503,-140.153 428.001,-141.547 437.081,-147.007 438.503,-140.153"/>
<text text-anchor="middle" x="483" y="-160" font-family="Helvetica,sans-Serif" font-size="10.00"> Photons</text>
</g>
<!-- Node12 -->
<g id="node11" class="node"><title>Node12</title>
<g id="a_node11"><a xlink:href="structant_1_1analysis_1_1physics_1_1_kin_fit_i_m_check_1_1_tree__t.html" target="_top" xlink:title="ant::analysis::physics\l::KinFitIMCheck::Tree_t">
<polygon fill="white" stroke="black" points="534,-98 534,-128 656,-128 656,-98 534,-98"/>
<text text-anchor="start" x="542" y="-116" font-family="Helvetica,sans-Serif" font-size="10.00">ant::analysis::physics</text>
<text text-anchor="middle" x="595" y="-105" font-family="Helvetica,sans-Serif" font-size="10.00">::KinFitIMCheck::Tree_t</text>
</a>
</g>
</g>
<!-- Node12&#45;&gt;Node2 -->
<g id="edge10" class="edge"><title>Node12&#45;&gt;Node2</title>
<path fill="none" stroke="#9a32cd" stroke-dasharray="5,2" d="M666.301,-113C699.616,-113 738.828,-113 769.939,-113"/>
<polygon fill="#9a32cd" stroke="#9a32cd" points="666.167,-109.5 656.167,-113 666.167,-116.5 666.167,-109.5"/>
<text text-anchor="middle" x="719" y="-116" font-family="Helvetica,sans-Serif" font-size="10.00"> t</text>
</g>
<!-- Node13 -->
<g id="node12" class="node"><title>Node13</title>
<g id="a_node12"><a xlink:href="classant_1_1_wrap_t_tree.html" target="_top" xlink:title="The WrapTTree struct simplifies TTree handling in physics classes. ">
<polygon fill="white" stroke="black" points="338.5,-84.5 338.5,-103.5 423.5,-103.5 423.5,-84.5 338.5,-84.5"/>
<text text-anchor="middle" x="381" y="-91.5" font-family="Helvetica,sans-Serif" font-size="10.00">ant::WrapTTree</text>
</a>
</g>
</g>
<!-- Node13&#45;&gt;Node12 -->
<g id="edge11" class="edge"><title>Node13&#45;&gt;Node12</title>
<path fill="none" stroke="midnightblue" d="M433.931,-98.6542C464.056,-101.354 502.137,-104.767 533.597,-107.587"/>
<polygon fill="midnightblue" stroke="midnightblue" points="433.904,-95.1378 423.631,-97.7311 433.279,-102.11 433.904,-95.1378"/>
</g>
<!-- Node14 -->
<g id="node13" class="node"><title>Node14</title>
<g id="a_node13"><a xlink:href="classant_1_1analysis_1_1_prompt_random_1_1_switch.html" target="_top" xlink:title="ant::analysis::PromptRandom\l::Switch">
<polygon fill="white" stroke="black" points="522,-49 522,-79 668,-79 668,-49 522,-49"/>
<text text-anchor="start" x="530" y="-67" font-family="Helvetica,sans-Serif" font-size="10.00">ant::analysis::PromptRandom</text>
<text text-anchor="middle" x="595" y="-56" font-family="Helvetica,sans-Serif" font-size="10.00">::Switch</text>
</a>
</g>
</g>
<!-- Node14&#45;&gt;Node2 -->
<g id="edge12" class="edge"><title>Node14&#45;&gt;Node2</title>
<path fill="none" stroke="#9a32cd" stroke-dasharray="5,2" d="M676.164,-81.1531C707.097,-87.7718 741.713,-95.1788 769.772,-101.183"/>
<polygon fill="#9a32cd" stroke="#9a32cd" points="676.775,-77.7045 666.264,-79.0346 675.31,-84.5496 676.775,-77.7045"/>
<text text-anchor="middle" x="719" y="-101" font-family="Helvetica,sans-Serif" font-size="10.00"> promptrandom</text>
</g>
<!-- Node15 -->
<g id="node14" class="node"><title>Node15</title>
<g id="a_node14"><a xlink:href="classant_1_1_piecewise_interval.html" target="_top" xlink:title="ant::PiecewiseInterval\l\&lt; double \&gt;">
<polygon fill="white" stroke="black" points="324.5,-35 324.5,-65 437.5,-65 437.5,-35 324.5,-35"/>
<text text-anchor="start" x="332.5" y="-53" font-family="Helvetica,sans-Serif" font-size="10.00">ant::PiecewiseInterval</text>
<text text-anchor="middle" x="381" y="-42" font-family="Helvetica,sans-Serif" font-size="10.00">&lt; double &gt;</text>
</a>
</g>
</g>
<!-- Node15&#45;&gt;Node14 -->
<g id="edge13" class="edge"><title>Node15&#45;&gt;Node14</title>
<path fill="none" stroke="#9a32cd" stroke-dasharray="5,2" d="M447.796,-54.3013C466.002,-55.4951 485.768,-56.7945 504,-58 509.781,-58.3823 515.772,-58.7794 521.79,-59.179"/>
<polygon fill="#9a32cd" stroke="#9a32cd" points="447.779,-50.7928 437.572,-53.6313 447.322,-57.7778 447.779,-50.7928"/>
<text text-anchor="middle" x="483" y="-72" font-family="Helvetica,sans-Serif" font-size="10.00"> promptw</text>
<text text-anchor="middle" x="483" y="-61" font-family="Helvetica,sans-Serif" font-size="10.00">randomw</text>
</g>
<!-- Node16 -->
<g id="node15" class="node"><title>Node16</title>
<g id="a_node15"><a xlink:title="STL class. ">
<polygon fill="white" stroke="#bfbfbf" points="176,-35 176,-65 280,-65 280,-35 176,-35"/>
<text text-anchor="start" x="184" y="-53" font-family="Helvetica,sans-Serif" font-size="10.00">std::vector&lt; interval</text>
<text text-anchor="middle" x="228" y="-42" font-family="Helvetica,sans-Serif" font-size="10.00">&lt; double &gt; &gt;</text>
</a>
</g>
</g>
<!-- Node16&#45;&gt;Node15 -->
<g id="edge14" class="edge"><title>Node16&#45;&gt;Node15</title>
<path fill="none" stroke="midnightblue" d="M290.291,-50C301.529,-50 313.204,-50 324.269,-50"/>
<polygon fill="midnightblue" stroke="midnightblue" points="290.122,-46.5001 280.122,-50 290.122,-53.5001 290.122,-46.5001"/>
</g>
<!-- Node17 -->
<g id="node16" class="node"><title>Node17</title>
<polygon fill="white" stroke="#bfbfbf" points="33.5,-40.5 33.5,-59.5 62.5,-59.5 62.5,-40.5 33.5,-40.5"/>
<text text-anchor="middle" x="48" y="-47.5" font-family="Helvetica,sans-Serif" font-size="10.00">T</text>
</g>
<!-- Node17&#45;&gt;Node16 -->
<g id="edge15" class="edge"><title>Node17&#45;&gt;Node16</title>
<path fill="none" stroke="#9a32cd" stroke-dasharray="5,2" d="M72.7849,-50C98.9344,-50 141.733,-50 175.617,-50"/>
<polygon fill="#9a32cd" stroke="#9a32cd" points="72.6718,-46.5001 62.6718,-50 72.6718,-53.5001 72.6718,-46.5001"/>
<text text-anchor="middle" x="136" y="-53" font-family="Helvetica,sans-Serif" font-size="10.00"> elements</text>
</g>
<!-- Node18 -->
<g id="node17" class="node"><title>Node18</title>
<g id="a_node17"><a xlink:href="classant_1_1analysis_1_1utils_1_1_trigger_simulation.html" target="_top" xlink:title="ant::analysis::utils\l::TriggerSimulation">
<polygon fill="white" stroke="black" points="546,-0 546,-30 644,-30 644,-0 546,-0"/>
<text text-anchor="start" x="554" y="-18" font-family="Helvetica,sans-Serif" font-size="10.00">ant::analysis::utils</text>
<text text-anchor="middle" x="595" y="-7" font-family="Helvetica,sans-Serif" font-size="10.00">::TriggerSimulation</text>
</a>
</g>
</g>
<!-- Node18&#45;&gt;Node2 -->
<g id="edge16" class="edge"><title>Node18&#45;&gt;Node2</title>
<path fill="none" stroke="#9a32cd" stroke-dasharray="5,2" d="M651.267,-33.2235C656.927,-35.1493 662.584,-37.0986 668,-39 705.548,-52.1826 716.046,-52.9444 752,-70 769.276,-78.1953 787.831,-89.1558 801.911,-97.9598"/>
<polygon fill="#9a32cd" stroke="#9a32cd" points="652.375,-29.9037 641.781,-30.0174 650.134,-36.5352 652.375,-29.9037"/>
<text text-anchor="middle" x="719" y="-73" font-family="Helvetica,sans-Serif" font-size="10.00"> triggersimu</text>
</g>
</g>
</svg>
