<?xml version="1.0" encoding="UTF-8" standalone="no"?>
<!DOCTYPE svg PUBLIC "-//W3C//DTD SVG 1.1//EN"
 "http://www.w3.org/Graphics/SVG/1.1/DTD/svg11.dtd">
<!-- Generated by graphviz version 2.36.0 (20140111.2315)
 -->
<!-- Title: ant::expconfig::Setup_traits Pages: 1 -->
<svg width="654pt" height="518pt"
 viewBox="0.00 0.00 654.00 518.00" xmlns="http://www.w3.org/2000/svg" xmlns:xlink="http://www.w3.org/1999/xlink">
<g id="graph0" class="graph" transform="scale(1 1) rotate(0) translate(4 514)">
<title>ant::expconfig::Setup_traits</title>
<polygon fill="white" stroke="none" points="-4,4 -4,-514 650,-514 650,4 -4,4"/>
<!-- Node0 -->
<g id="node1" class="node"><title>Node0</title>
<polygon fill="#bfbfbf" stroke="black" points="0,-210 0,-240 110,-240 110,-210 0,-210"/>
<text text-anchor="start" x="8" y="-228" font-family="Helvetica,sans-Serif" font-size="10.00">ant::expconfig::Setup</text>
<text text-anchor="middle" x="55" y="-217" font-family="Helvetica,sans-Serif" font-size="10.00">_traits</text>
</g>
<!-- Node1 -->
<g id="node2" class="node"><title>Node1</title>
<g id="a_node2"><a xlink:href="classant_1_1expconfig_1_1_setup.html" target="_top" xlink:title="The Setup class serves as a base class for all known beamtime setup configurations. ">
<polygon fill="white" stroke="black" points="146,-215.5 146,-234.5 256,-234.5 256,-215.5 146,-215.5"/>
<text text-anchor="middle" x="201" y="-222.5" font-family="Helvetica,sans-Serif" font-size="10.00">ant::expconfig::Setup</text>
</a>
</g>
</g>
<!-- Node0&#45;&gt;Node1 -->
<g id="edge1" class="edge"><title>Node0&#45;&gt;Node1</title>
<path fill="none" stroke="midnightblue" d="M120.27,-225C128.75,-225 137.375,-225 145.667,-225"/>
<polygon fill="midnightblue" stroke="midnightblue" points="120.03,-221.5 110.03,-225 120.03,-228.5 120.03,-221.5"/>
</g>
<!-- Node2 -->
<g id="node3" class="node"><title>Node2</title>
<g id="a_node3"><a xlink:href="classant_1_1expconfig_1_1setup_1_1_setup__2007___base.html" target="_top" xlink:title="Common base class for all Setups of the 2014 Ent Point Tagger beam times. ">
<polygon fill="white" stroke="black" points="327,-431 327,-461 435,-461 435,-431 327,-431"/>
<text text-anchor="start" x="335" y="-449" font-family="Helvetica,sans-Serif" font-size="10.00">ant::expconfig::setup</text>
<text text-anchor="middle" x="381" y="-438" font-family="Helvetica,sans-Serif" font-size="10.00">::Setup_2007_Base</text>
</a>
</g>
</g>
<!-- Node1&#45;&gt;Node2 -->
<g id="edge2" class="edge"><title>Node1&#45;&gt;Node2</title>
<path fill="none" stroke="midnightblue" d="M205.428,-244.872C213.314,-284.46 236.505,-373.439 292,-421 301.768,-429.372 314.165,-434.948 326.549,-438.661"/>
<polygon fill="midnightblue" stroke="midnightblue" points="208.839,-244.071 203.56,-234.885 201.959,-245.358 208.839,-244.071"/>
</g>
<!-- Node5 -->
<g id="node6" class="node"><title>Node5</title>
<g id="a_node6"><a xlink:href="classant_1_1expconfig_1_1setup_1_1_setup__2010__03___base.html" target="_top" xlink:title="ant::expconfig::setup\l::Setup_2010_03_Base">
<polygon fill="white" stroke="black" points="322,-382 322,-412 440,-412 440,-382 322,-382"/>
<text text-anchor="start" x="330" y="-400" font-family="Helvetica,sans-Serif" font-size="10.00">ant::expconfig::setup</text>
<text text-anchor="middle" x="381" y="-389" font-family="Helvetica,sans-Serif" font-size="10.00">::Setup_2010_03_Base</text>
</a>
</g>
</g>
<!-- Node1&#45;&gt;Node5 -->
<g id="edge5" class="edge"><title>Node1&#45;&gt;Node5</title>
<path fill="none" stroke="midnightblue" d="M208.55,-244.384C220.223,-275.958 247.646,-338.344 292,-372 300.73,-378.624 311.147,-383.494 321.707,-387.073"/>
<polygon fill="midnightblue" stroke="midnightblue" points="211.72,-242.851 205.076,-234.598 205.123,-245.192 211.72,-242.851"/>
</g>
<!-- Node7 -->
<g id="node8" class="node"><title>Node7</title>
<g id="a_node8"><a xlink:href="classant_1_1expconfig_1_1setup_1_1_setup__2012__12___compton.html" target="_top" xlink:title="ant::expconfig::setup\l::Setup_2012_12_Compton">
<polygon fill="white" stroke="black" points="313.5,-333 313.5,-363 448.5,-363 448.5,-333 313.5,-333"/>
<text text-anchor="start" x="321.5" y="-351" font-family="Helvetica,sans-Serif" font-size="10.00">ant::expconfig::setup</text>
<text text-anchor="middle" x="381" y="-340" font-family="Helvetica,sans-Serif" font-size="10.00">::Setup_2012_12_Compton</text>
</a>
</g>
</g>
<!-- Node1&#45;&gt;Node7 -->
<g id="edge7" class="edge"><title>Node1&#45;&gt;Node7</title>
<path fill="none" stroke="midnightblue" d="M213.92,-243.189C229.345,-265.296 258.275,-302.213 292,-323 298.625,-327.083 305.938,-330.52 313.433,-333.407"/>
<polygon fill="midnightblue" stroke="midnightblue" points="216.676,-241.017 208.162,-234.712 210.886,-244.95 216.676,-241.017"/>
</g>
<!-- Node8 -->
<g id="node9" class="node"><title>Node8</title>
<g id="a_node9"><a xlink:href="classant_1_1expconfig_1_1setup_1_1_setup__2014___e_p_t.html" target="_top" xlink:title="Common base class for all Setups of the 2014 Ent Point Tagger beam times. ">
<polygon fill="white" stroke="black" points="327,-284 327,-314 435,-314 435,-284 327,-284"/>
<text text-anchor="start" x="335" y="-302" font-family="Helvetica,sans-Serif" font-size="10.00">ant::expconfig::setup</text>
<text text-anchor="middle" x="381" y="-291" font-family="Helvetica,sans-Serif" font-size="10.00">::Setup_2014_EPT</text>
</a>
</g>
</g>
<!-- Node1&#45;&gt;Node8 -->
<g id="edge8" class="edge"><title>Node1&#45;&gt;Node8</title>
<path fill="none" stroke="midnightblue" d="M225.654,-239.768C243.404,-250.376 268.577,-264.435 292,-274 303.028,-278.503 315.147,-282.514 326.772,-285.933"/>
<polygon fill="midnightblue" stroke="midnightblue" points="227.462,-236.771 217.097,-234.577 223.831,-242.756 227.462,-236.771"/>
</g>
<!-- Node12 -->
<g id="node13" class="node"><title>Node12</title>
<g id="a_node13"><a xlink:href="classant_1_1expconfig_1_1setup_1_1_setup__2015__01___pion.html" target="_top" xlink:title="Ant Setup for Rare Pion Test Beamtime in January 2015 &amp; MC studies. ">
<polygon fill="white" stroke="black" points="323.5,-235 323.5,-265 438.5,-265 438.5,-235 323.5,-235"/>
<text text-anchor="start" x="331.5" y="-253" font-family="Helvetica,sans-Serif" font-size="10.00">ant::expconfig::setup</text>
<text text-anchor="middle" x="381" y="-242" font-family="Helvetica,sans-Serif" font-size="10.00">::Setup_2015_01_Pion</text>
</a>
</g>
</g>
<!-- Node1&#45;&gt;Node12 -->
<g id="edge12" class="edge"><title>Node1&#45;&gt;Node12</title>
<path fill="none" stroke="midnightblue" d="M266.288,-234.029C285.003,-236.658 305.3,-239.508 323.496,-242.064"/>
<polygon fill="midnightblue" stroke="midnightblue" points="266.763,-230.562 256.373,-232.637 265.789,-237.494 266.763,-230.562"/>
</g>
<!-- Node13 -->
<g id="node14" class="node"><title>Node13</title>
<g id="a_node14"><a xlink:href="classant_1_1expconfig_1_1setup_1_1_setup__2017__03.html" target="_top" xlink:title="Common base class for all Setups of the 2014 Ent Point Tagger beam times. ">
<polygon fill="white" stroke="black" points="327,-186 327,-216 435,-216 435,-186 327,-186"/>
<text text-anchor="start" x="335" y="-204" font-family="Helvetica,sans-Serif" font-size="10.00">ant::expconfig::setup</text>
<text text-anchor="middle" x="381" y="-193" font-family="Helvetica,sans-Serif" font-size="10.00">::Setup_2017_03</text>
</a>
</g>
</g>
<!-- Node1&#45;&gt;Node13 -->
<g id="edge13" class="edge"><title>Node1&#45;&gt;Node13</title>
<path fill="none" stroke="midnightblue" d="M266.55,-216.297C286.36,-213.626 307.922,-210.718 326.877,-208.163"/>
<polygon fill="midnightblue" stroke="midnightblue" points="265.816,-212.864 256.373,-217.669 266.751,-219.801 265.816,-212.864"/>
</g>
<!-- Node14 -->
<g id="node15" class="node"><title>Node14</title>
<g id="a_node15"><a xlink:href="classant_1_1expconfig_1_1setup_1_1_setup__2017__05.html" target="_top" xlink:title="Common base class for all Setups of the 2014 Ent Point Tagger beam times. ">
<polygon fill="white" stroke="black" points="327,-137 327,-167 435,-167 435,-137 327,-137"/>
<text text-anchor="start" x="335" y="-155" font-family="Helvetica,sans-Serif" font-size="10.00">ant::expconfig::setup</text>
<text text-anchor="middle" x="381" y="-144" font-family="Helvetica,sans-Serif" font-size="10.00">::Setup_2017_05</text>
</a>
</g>
</g>
<!-- Node1&#45;&gt;Node14 -->
<g id="edge14" class="edge"><title>Node1&#45;&gt;Node14</title>
<path fill="none" stroke="midnightblue" d="M226.504,-210.091C244.225,-199.772 268.998,-186.278 292,-177 303.047,-172.544 315.174,-168.554 326.801,-165.138"/>
<polygon fill="midnightblue" stroke="midnightblue" points="224.267,-207.348 217.441,-215.451 227.83,-213.373 224.267,-207.348"/>
</g>
<!-- Node15 -->
<g id="node16" class="node"><title>Node15</title>
<g id="a_node16"><a xlink:href="classant_1_1expconfig_1_1setup_1_1_setup__2017_plus___new_tagger___base.html" target="_top" xlink:title="Common base class for all Setups starting end of 2017 using the new Tagger. ">
<polygon fill="white" stroke="black" points="292.5,-88 292.5,-118 469.5,-118 469.5,-88 292.5,-88"/>
<text text-anchor="start" x="300.5" y="-106" font-family="Helvetica,sans-Serif" font-size="10.00">ant::expconfig::setup</text>
<text text-anchor="middle" x="381" y="-95" font-family="Helvetica,sans-Serif" font-size="10.00">::Setup_2017Plus_NewTagger_Base</text>
</a>
</g>
</g>
<!-- Node1&#45;&gt;Node15 -->
<g id="edge15" class="edge"><title>Node1&#45;&gt;Node15</title>
<path fill="none" stroke="midnightblue" d="M213.964,-207.001C229.433,-185.123 258.408,-148.586 292,-128 298.229,-124.183 305.061,-120.93 312.078,-118.162"/>
<polygon fill="midnightblue" stroke="midnightblue" points="210.976,-205.168 208.188,-215.39 216.742,-209.138 210.976,-205.168"/>
</g>
<!-- Node18 -->
<g id="node19" class="node"><title>Node18</title>
<g id="a_node19"><a xlink:href="classant_1_1expconfig_1_1setup_1_1_setup___c_b_source_calib.html" target="_top" xlink:title="ant::expconfig::setup\l::Setup_CBSourceCalib">
<polygon fill="white" stroke="black" points="320.5,-39 320.5,-69 441.5,-69 441.5,-39 320.5,-39"/>
<text text-anchor="start" x="328.5" y="-57" font-family="Helvetica,sans-Serif" font-size="10.00">ant::expconfig::setup</text>
<text text-anchor="middle" x="381" y="-46" font-family="Helvetica,sans-Serif" font-size="10.00">::Setup_CBSourceCalib</text>
</a>
</g>
</g>
<!-- Node1&#45;&gt;Node18 -->
<g id="edge18" class="edge"><title>Node1&#45;&gt;Node18</title>
<path fill="none" stroke="midnightblue" d="M208.588,-205.747C220.315,-174.386 247.814,-112.422 292,-79 300.36,-72.6764 310.259,-67.9517 320.347,-64.4218"/>
<polygon fill="midnightblue" stroke="midnightblue" points="205.183,-204.873 205.096,-215.467 211.771,-207.239 205.183,-204.873"/>
</g>
<!-- Node19 -->
<g id="node20" class="node"><title>Node19</title>
<g id="a_node20"><a xlink:href="struct_fake_setup.html" target="_top" xlink:title="Empty fake setup that always matches. Used in case no real setup exists. ">
<polygon fill="white" stroke="black" points="349,-0.5 349,-19.5 413,-19.5 413,-0.5 349,-0.5"/>
<text text-anchor="middle" x="381" y="-7.5" font-family="Helvetica,sans-Serif" font-size="10.00">FakeSetup</text>
</a>
</g>
</g>
<!-- Node1&#45;&gt;Node19 -->
<g id="edge19" class="edge"><title>Node1&#45;&gt;Node19</title>
<path fill="none" stroke="midnightblue" d="M205.145,-205.53C212.603,-165.965 235.187,-76.0298 292,-30 307.947,-17.0796 330.617,-12.1453 348.953,-10.4071"/>
<polygon fill="midnightblue" stroke="midnightblue" points="201.68,-205.025 203.393,-215.48 208.574,-206.239 201.68,-205.025"/>
</g>
<!-- Node3 -->
<g id="node4" class="node"><title>Node3</title>
<g id="a_node4"><a xlink:href="classant_1_1expconfig_1_1setup_1_1_setup__2007__06.html" target="_top" xlink:title="Ant Setup for the Juni 2007 beam time. ">
<polygon fill="white" stroke="black" points="522,-480 522,-510 630,-510 630,-480 522,-480"/>
<text text-anchor="start" x="530" y="-498" font-family="Helvetica,sans-Serif" font-size="10.00">ant::expconfig::setup</text>
<text text-anchor="middle" x="576" y="-487" font-family="Helvetica,sans-Serif" font-size="10.00">::Setup_2007_06</text>
</a>
</g>
</g>
<!-- Node2&#45;&gt;Node3 -->
<g id="edge3" class="edge"><title>Node2&#45;&gt;Node3</title>
<path fill="none" stroke="midnightblue" d="M444.958,-461.984C469.835,-468.3 498.109,-475.479 521.925,-481.525"/>
<polygon fill="midnightblue" stroke="midnightblue" points="445.803,-458.588 435.249,-459.519 444.08,-465.372 445.803,-458.588"/>
</g>
<!-- Node4 -->
<g id="node5" class="node"><title>Node4</title>
<g id="a_node5"><a xlink:href="classant_1_1expconfig_1_1setup_1_1_setup__2007__07.html" target="_top" xlink:title="Ant Setup for the July 2007 beam time. ">
<polygon fill="white" stroke="black" points="522,-431 522,-461 630,-461 630,-431 522,-431"/>
<text text-anchor="start" x="530" y="-449" font-family="Helvetica,sans-Serif" font-size="10.00">ant::expconfig::setup</text>
<text text-anchor="middle" x="576" y="-438" font-family="Helvetica,sans-Serif" font-size="10.00">::Setup_2007_07</text>
</a>
</g>
</g>
<!-- Node2&#45;&gt;Node4 -->
<g id="edge4" class="edge"><title>Node2&#45;&gt;Node4</title>
<path fill="none" stroke="midnightblue" d="M445.288,-446C470.085,-446 498.215,-446 521.925,-446"/>
<polygon fill="midnightblue" stroke="midnightblue" points="445.249,-442.5 435.249,-446 445.249,-449.5 445.249,-442.5"/>
</g>
<!-- Node6 -->
<g id="node7" class="node"><title>Node6</title>
<g id="a_node7"><a xlink:href="classant_1_1expconfig_1_1setup_1_1_setup__2010__09___compton.html" target="_top" xlink:title="Ant Setup for the September 2010 beam time. ">
<polygon fill="white" stroke="black" points="508.5,-382 508.5,-412 643.5,-412 643.5,-382 508.5,-382"/>
<text text-anchor="start" x="516.5" y="-400" font-family="Helvetica,sans-Serif" font-size="10.00">ant::expconfig::setup</text>
<text text-anchor="middle" x="576" y="-389" font-family="Helvetica,sans-Serif" font-size="10.00">::Setup_2010_09_Compton</text>
</a>
</g>
</g>
<!-- Node5&#45;&gt;Node6 -->
<g id="edge6" class="edge"><title>Node5&#45;&gt;Node6</title>
<path fill="none" stroke="midnightblue" d="M450.202,-397C469.133,-397 489.658,-397 508.491,-397"/>
<polygon fill="midnightblue" stroke="midnightblue" points="450.168,-393.5 440.168,-397 450.168,-400.5 450.168,-393.5"/>
</g>
<!-- Node9 -->
<g id="node10" class="node"><title>Node9</title>
<g id="a_node10"><a xlink:href="classant_1_1expconfig_1_1setup_1_1_setup__2014__07___e_p_t___prod.html" target="_top" xlink:title="Ant Setup for the July 2014 End Point Tagger beam time. ">
<polygon fill="white" stroke="black" points="506,-333 506,-363 646,-363 646,-333 506,-333"/>
<text text-anchor="start" x="514" y="-351" font-family="Helvetica,sans-Serif" font-size="10.00">ant::expconfig::setup</text>
<text text-anchor="middle" x="576" y="-340" font-family="Helvetica,sans-Serif" font-size="10.00">::Setup_2014_07_EPT_Prod</text>
</a>
</g>
</g>
<!-- Node8&#45;&gt;Node9 -->
<g id="edge9" class="edge"><title>Node8&#45;&gt;Node9</title>
<path fill="none" stroke="midnightblue" d="M445.138,-315.03C467.874,-320.802 493.428,-327.29 515.815,-332.974"/>
<polygon fill="midnightblue" stroke="midnightblue" points="445.803,-311.588 435.249,-312.519 444.08,-318.372 445.803,-311.588"/>
</g>
<!-- Node10 -->
<g id="node11" class="node"><title>Node10</title>
<g id="a_node11"><a xlink:href="classant_1_1expconfig_1_1setup_1_1_setup__2014__10___e_p_t___prod.html" target="_top" xlink:title="Ant Setup for the October 2014 End Point Tagger beam time. ">
<polygon fill="white" stroke="black" points="506,-284 506,-314 646,-314 646,-284 506,-284"/>
<text text-anchor="start" x="514" y="-302" font-family="Helvetica,sans-Serif" font-size="10.00">ant::expconfig::setup</text>
<text text-anchor="middle" x="576" y="-291" font-family="Helvetica,sans-Serif" font-size="10.00">::Setup_2014_10_EPT_Prod</text>
</a>
</g>
</g>
<!-- Node8&#45;&gt;Node10 -->
<g id="edge10" class="edge"><title>Node8&#45;&gt;Node10</title>
<path fill="none" stroke="midnightblue" d="M445.482,-299C464.865,-299 486.269,-299 506,-299"/>
<polygon fill="midnightblue" stroke="midnightblue" points="445.249,-295.5 435.249,-299 445.249,-302.5 445.249,-295.5"/>
</g>
<!-- Node11 -->
<g id="node12" class="node"><title>Node11</title>
<g id="a_node12"><a xlink:href="classant_1_1expconfig_1_1setup_1_1_setup__2014__12___e_p_t___prod.html" target="_top" xlink:title="Ant Setup for the December 2014 End Point Tagger beam time. ">
<polygon fill="white" stroke="black" points="506,-235 506,-265 646,-265 646,-235 506,-235"/>
<text text-anchor="start" x="514" y="-253" font-family="Helvetica,sans-Serif" font-size="10.00">ant::expconfig::setup</text>
<text text-anchor="middle" x="576" y="-242" font-family="Helvetica,sans-Serif" font-size="10.00">::Setup_2014_12_EPT_Prod</text>
</a>
</g>
</g>
<!-- Node8&#45;&gt;Node11 -->
<g id="edge11" class="edge"><title>Node8&#45;&gt;Node11</title>
<path fill="none" stroke="midnightblue" d="M445.138,-282.97C467.874,-277.198 493.428,-270.71 515.815,-265.026"/>
<polygon fill="midnightblue" stroke="midnightblue" points="444.08,-279.628 435.249,-285.481 445.803,-286.412 444.08,-279.628"/>
</g>
<!-- Node16 -->
<g id="node17" class="node"><title>Node16</title>
<g id="a_node17"><a xlink:href="classant_1_1expconfig_1_1setup_1_1_setup__2017__12.html" target="_top" xlink:title="Ant Setup for the December 2017 beamtime using the new Tagger. ">
<polygon fill="white" stroke="black" points="522,-112 522,-142 630,-142 630,-112 522,-112"/>
<text text-anchor="start" x="530" y="-130" font-family="Helvetica,sans-Serif" font-size="10.00">ant::expconfig::setup</text>
<text text-anchor="middle" x="576" y="-119" font-family="Helvetica,sans-Serif" font-size="10.00">::Setup_2017_12</text>
</a>
</g>
</g>
<!-- Node15&#45;&gt;Node16 -->
<g id="edge16" class="edge"><title>Node15&#45;&gt;Node16</title>
<path fill="none" stroke="midnightblue" d="M479.799,-115.162C494.333,-116.969 508.829,-118.771 521.965,-120.405"/>
<polygon fill="midnightblue" stroke="midnightblue" points="480.102,-111.672 469.747,-113.911 479.238,-118.619 480.102,-111.672"/>
</g>
<!-- Node17 -->
<g id="node18" class="node"><title>Node17</title>
<g id="a_node18"><a xlink:href="classant_1_1expconfig_1_1setup_1_1_setup__2018__03.html" target="_top" xlink:title="Ant Setup for the March 2018 beamtime using the new Tagger. ">
<polygon fill="white" stroke="black" points="522,-63 522,-93 630,-93 630,-63 522,-63"/>
<text text-anchor="start" x="530" y="-81" font-family="Helvetica,sans-Serif" font-size="10.00">ant::expconfig::setup</text>
<text text-anchor="middle" x="576" y="-70" font-family="Helvetica,sans-Serif" font-size="10.00">::Setup_2018_03</text>
</a>
</g>
</g>
<!-- Node15&#45;&gt;Node17 -->
<g id="edge17" class="edge"><title>Node15&#45;&gt;Node17</title>
<path fill="none" stroke="midnightblue" d="M479.799,-90.3317C494.333,-88.449 508.829,-86.5714 521.965,-84.8698"/>
<polygon fill="midnightblue" stroke="midnightblue" points="479.214,-86.8782 469.747,-91.6339 480.113,-93.8202 479.214,-86.8782"/>
</g>
</g>
</svg>
