<?xml version="1.0" encoding="UTF-8" standalone="no"?>
<!DOCTYPE svg PUBLIC "-//W3C//DTD SVG 1.1//EN"
 "http://www.w3.org/Graphics/SVG/1.1/DTD/svg11.dtd">
<!-- Generated by graphviz version 2.36.0 (20140111.2315)
 -->
<!-- Title: ant::UnpackerAcquConfig Pages: 1 -->
<svg width="710pt" height="1547pt"
 viewBox="0.00 0.00 710.00 1547.00" xmlns="http://www.w3.org/2000/svg" xmlns:xlink="http://www.w3.org/1999/xlink">
<g id="graph0" class="graph" transform="scale(1 1) rotate(0) translate(4 1543)">
<title>ant::UnpackerAcquConfig</title>
<polygon fill="white" stroke="none" points="-4,4 -4,-1543 706,-1543 706,4 -4,4"/>
<!-- Node0 -->
<g id="node1" class="node"><title>Node0</title>
<polygon fill="#bfbfbf" stroke="black" points="0.5,-1048.5 0.5,-1067.5 129.5,-1067.5 129.5,-1048.5 0.5,-1048.5"/>
<text text-anchor="middle" x="65" y="-1055.5" font-family="Helvetica,sans-Serif" font-size="10.00">ant::UnpackerAcquConfig</text>
</g>
<!-- Node1 -->
<g id="node2" class="node"><title>Node1</title>
<g id="a_node2"><a xlink:href="structant_1_1expconfig_1_1detector_1_1_c_b.html" target="_top" xlink:title="ant::expconfig::detector::CB">
<polygon fill="white" stroke="black" points="169,-1395.5 169,-1414.5 309,-1414.5 309,-1395.5 169,-1395.5"/>
<text text-anchor="middle" x="239" y="-1402.5" font-family="Helvetica,sans-Serif" font-size="10.00">ant::expconfig::detector::CB</text>
</a>
</g>
</g>
<!-- Node0&#45;&gt;Node1 -->
<g id="edge1" class="edge"><title>Node0&#45;&gt;Node1</title>
<path fill="none" stroke="midnightblue" d="M65.8823,-1077.8C66.6642,-1134.37 76.9006,-1298.17 166,-1385 170.46,-1389.35 175.778,-1392.77 181.477,-1395.45"/>
<polygon fill="midnightblue" stroke="midnightblue" points="69.3818,-1077.68 65.8326,-1067.7 62.3819,-1077.72 69.3818,-1077.68"/>
</g>
<!-- Node2 -->
<g id="node3" class="node"><title>Node2</title>
<g id="a_node3"><a xlink:href="structant_1_1expconfig_1_1detector_1_1_cherenkov.html" target="_top" xlink:title="ant::expconfig::detector\l::Cherenkov">
<polygon fill="white" stroke="black" points="179.5,-1346 179.5,-1376 298.5,-1376 298.5,-1346 179.5,-1346"/>
<text text-anchor="start" x="187.5" y="-1364" font-family="Helvetica,sans-Serif" font-size="10.00">ant::expconfig::detector</text>
<text text-anchor="middle" x="239" y="-1353" font-family="Helvetica,sans-Serif" font-size="10.00">::Cherenkov</text>
</a>
</g>
</g>
<!-- Node0&#45;&gt;Node2 -->
<g id="edge2" class="edge"><title>Node0&#45;&gt;Node2</title>
<path fill="none" stroke="midnightblue" d="M67.4216,-1077.88C72.0815,-1128.23 91.2272,-1262.05 166,-1336 169.951,-1339.91 174.544,-1343.21 179.462,-1345.99"/>
<polygon fill="midnightblue" stroke="midnightblue" points="70.8919,-1077.37 66.5769,-1067.7 63.9159,-1077.95 70.8919,-1077.37"/>
</g>
<!-- Node3 -->
<g id="node4" class="node"><title>Node3</title>
<g id="a_node4"><a xlink:href="structant_1_1expconfig_1_1detector_1_1_e_p_t.html" target="_top" xlink:title="ant::expconfig::detector::EPT">
<polygon fill="white" stroke="black" points="166.5,-1307.5 166.5,-1326.5 311.5,-1326.5 311.5,-1307.5 166.5,-1307.5"/>
<text text-anchor="middle" x="239" y="-1314.5" font-family="Helvetica,sans-Serif" font-size="10.00">ant::expconfig::detector::EPT</text>
</a>
</g>
</g>
<!-- Node0&#45;&gt;Node3 -->
<g id="edge3" class="edge"><title>Node0&#45;&gt;Node3</title>
<path fill="none" stroke="midnightblue" d="M68.3074,-1077.61C74.7671,-1123.42 97.3075,-1238.11 166,-1298 170.385,-1301.82 175.453,-1304.89 180.829,-1307.35"/>
<polygon fill="midnightblue" stroke="midnightblue" points="71.7559,-1076.98 66.9933,-1067.52 64.8146,-1077.89 71.7559,-1076.98"/>
</g>
<!-- Node5 -->
<g id="node6" class="node"><title>Node5</title>
<g id="a_node6"><a xlink:href="structant_1_1expconfig_1_1detector_1_1_p_i_d.html" target="_top" xlink:title="ant::expconfig::detector::PID">
<polygon fill="white" stroke="black" points="167.5,-1269.5 167.5,-1288.5 310.5,-1288.5 310.5,-1269.5 167.5,-1269.5"/>
<text text-anchor="middle" x="239" y="-1276.5" font-family="Helvetica,sans-Serif" font-size="10.00">ant::expconfig::detector::PID</text>
</a>
</g>
</g>
<!-- Node0&#45;&gt;Node5 -->
<g id="edge5" class="edge"><title>Node0&#45;&gt;Node5</title>
<path fill="none" stroke="midnightblue" d="M79.7557,-1075.67C114.316,-1120.08 203.918,-1235.21 230.475,-1269.33"/>
<polygon fill="midnightblue" stroke="midnightblue" points="82.5165,-1073.52 73.6126,-1067.78 76.9924,-1077.82 82.5165,-1073.52"/>
</g>
<!-- Node12 -->
<g id="node13" class="node"><title>Node12</title>
<g id="a_node13"><a xlink:href="structant_1_1expconfig_1_1detector_1_1_tagger.html" target="_top" xlink:title="ant::expconfig::detector\l::Tagger">
<polygon fill="white" stroke="black" points="179.5,-1043 179.5,-1073 298.5,-1073 298.5,-1043 179.5,-1043"/>
<text text-anchor="start" x="187.5" y="-1061" font-family="Helvetica,sans-Serif" font-size="10.00">ant::expconfig::detector</text>
<text text-anchor="middle" x="239" y="-1050" font-family="Helvetica,sans-Serif" font-size="10.00">::Tagger</text>
</a>
</g>
</g>
<!-- Node0&#45;&gt;Node12 -->
<g id="edge12" class="edge"><title>Node0&#45;&gt;Node12</title>
<path fill="none" stroke="midnightblue" d="M139.592,-1058C152.845,-1058 166.499,-1058 179.26,-1058"/>
<polygon fill="midnightblue" stroke="midnightblue" points="139.558,-1054.5 129.558,-1058 139.558,-1061.5 139.558,-1054.5"/>
</g>
<!-- Node19 -->
<g id="node20" class="node"><title>Node19</title>
<g id="a_node20"><a xlink:href="structant_1_1expconfig_1_1detector_1_1_t_a_p_s.html" target="_top" xlink:title="ant::expconfig::detector\l::TAPS">
<polygon fill="white" stroke="black" points="179.5,-848 179.5,-878 298.5,-878 298.5,-848 179.5,-848"/>
<text text-anchor="start" x="187.5" y="-866" font-family="Helvetica,sans-Serif" font-size="10.00">ant::expconfig::detector</text>
<text text-anchor="middle" x="239" y="-855" font-family="Helvetica,sans-Serif" font-size="10.00">::TAPS</text>
</a>
</g>
</g>
<!-- Node0&#45;&gt;Node19 -->
<g id="edge19" class="edge"><title>Node0&#45;&gt;Node19</title>
<path fill="none" stroke="midnightblue" d="M81.265,-1040.69C114.56,-1002.95 193.237,-913.749 224.678,-878.103"/>
<polygon fill="midnightblue" stroke="midnightblue" points="78.5197,-1038.52 74.5295,-1048.33 83.7693,-1043.15 78.5197,-1038.52"/>
</g>
<!-- Node23 -->
<g id="node24" class="node"><title>Node23</title>
<g id="a_node24"><a xlink:href="structant_1_1expconfig_1_1detector_1_1_t_a_p_s_veto.html" target="_top" xlink:title="ant::expconfig::detector\l::TAPSVeto">
<polygon fill="white" stroke="black" points="179.5,-676 179.5,-706 298.5,-706 298.5,-676 179.5,-676"/>
<text text-anchor="start" x="187.5" y="-694" font-family="Helvetica,sans-Serif" font-size="10.00">ant::expconfig::detector</text>
<text text-anchor="middle" x="239" y="-683" font-family="Helvetica,sans-Serif" font-size="10.00">::TAPSVeto</text>
</a>
</g>
</g>
<!-- Node0&#45;&gt;Node23 -->
<g id="edge23" class="edge"><title>Node0&#45;&gt;Node23</title>
<path fill="none" stroke="midnightblue" d="M74.4871,-1039C91.5389,-1000.92 131.297,-912.606 166,-839 189.03,-790.153 217.299,-732.763 230.519,-706.069"/>
<polygon fill="midnightblue" stroke="midnightblue" points="71.1914,-1037.8 70.3028,-1048.36 77.5812,-1040.66 71.1914,-1037.8"/>
</g>
<!-- Node28 -->
<g id="node29" class="node"><title>Node28</title>
<g id="a_node29"><a xlink:href="structant_1_1expconfig_1_1detector_1_1_trigger.html" target="_top" xlink:title="ant::expconfig::detector\l::Trigger">
<polygon fill="white" stroke="black" points="179.5,-529 179.5,-559 298.5,-559 298.5,-529 179.5,-529"/>
<text text-anchor="start" x="187.5" y="-547" font-family="Helvetica,sans-Serif" font-size="10.00">ant::expconfig::detector</text>
<text text-anchor="middle" x="239" y="-536" font-family="Helvetica,sans-Serif" font-size="10.00">::Trigger</text>
</a>
</g>
</g>
<!-- Node0&#45;&gt;Node28 -->
<g id="edge28" class="edge"><title>Node0&#45;&gt;Node28</title>
<path fill="none" stroke="midnightblue" d="M69.0442,-1038.24C78.4652,-979.803 109.936,-803.396 166,-667 182.933,-625.806 211.649,-581.732 227.208,-559.193"/>
<polygon fill="midnightblue" stroke="midnightblue" points="65.5572,-1037.88 67.4533,-1048.31 72.4714,-1038.97 65.5572,-1037.88"/>
</g>
<!-- Node31 -->
<g id="node32" class="node"><title>Node31</title>
<g id="a_node32"><a xlink:href="classant_1_1expconfig_1_1_setup.html" target="_top" xlink:title="The Setup class serves as a base class for all known beamtime setup configurations. ">
<polygon fill="white" stroke="black" points="184,-240.5 184,-259.5 294,-259.5 294,-240.5 184,-240.5"/>
<text text-anchor="middle" x="239" y="-247.5" font-family="Helvetica,sans-Serif" font-size="10.00">ant::expconfig::Setup</text>
</a>
</g>
</g>
<!-- Node0&#45;&gt;Node31 -->
<g id="edge31" class="edge"><title>Node0&#45;&gt;Node31</title>
<path fill="none" stroke="midnightblue" d="M69.1042,-1038.27C80.3343,-967.66 120.586,-721.017 166,-520 189.199,-417.315 224.802,-294.712 235.111,-259.74"/>
<polygon fill="midnightblue" stroke="midnightblue" points="65.6092,-1037.97 67.5026,-1048.39 72.5231,-1039.06 65.6092,-1037.97"/>
</g>
<!-- Node4 -->
<g id="node5" class="node"><title>Node4</title>
<g id="a_node5"><a xlink:href="structant_1_1expconfig_1_1detector_1_1_e_p_t__2014.html" target="_top" xlink:title="ant::expconfig::detector\l::EPT_2014">
<polygon fill="white" stroke="black" points="377.5,-1509 377.5,-1539 496.5,-1539 496.5,-1509 377.5,-1509"/>
<text text-anchor="start" x="385.5" y="-1527" font-family="Helvetica,sans-Serif" font-size="10.00">ant::expconfig::detector</text>
<text text-anchor="middle" x="437" y="-1516" font-family="Helvetica,sans-Serif" font-size="10.00">::EPT_2014</text>
</a>
</g>
</g>
<!-- Node3&#45;&gt;Node4 -->
<g id="edge4" class="edge"><title>Node3&#45;&gt;Node4</title>
<path fill="none" stroke="midnightblue" d="M306.158,-1331.83C308.243,-1333.39 310.203,-1335.11 312,-1337 362.773,-1390.5 297.384,-1445.35 348,-1499 355.848,-1507.32 366.242,-1512.93 377.129,-1516.71"/>
<polygon fill="midnightblue" stroke="midnightblue" points="307.922,-1328.8 297.568,-1326.56 304.262,-1334.77 307.922,-1328.8"/>
</g>
<!-- Node6 -->
<g id="node7" class="node"><title>Node6</title>
<g id="a_node7"><a xlink:href="structant_1_1expconfig_1_1detector_1_1_p_i_d__2004.html" target="_top" xlink:title="ant::expconfig::detector\l::PID_2004">
<polygon fill="white" stroke="black" points="377.5,-1460 377.5,-1490 496.5,-1490 496.5,-1460 377.5,-1460"/>
<text text-anchor="start" x="385.5" y="-1478" font-family="Helvetica,sans-Serif" font-size="10.00">ant::expconfig::detector</text>
<text text-anchor="middle" x="437" y="-1467" font-family="Helvetica,sans-Serif" font-size="10.00">::PID_2004</text>
</a>
</g>
</g>
<!-- Node5&#45;&gt;Node6 -->
<g id="edge6" class="edge"><title>Node5&#45;&gt;Node6</title>
<path fill="none" stroke="midnightblue" d="M307.962,-1294.34C309.378,-1295.48 310.728,-1296.7 312,-1298 360.462,-1347.71 300.007,-1399.84 348,-1450 355.905,-1458.26 366.325,-1463.86 377.219,-1467.63"/>
<polygon fill="midnightblue" stroke="midnightblue" points="309.515,-1291.17 299.222,-1288.66 305.703,-1297.04 309.515,-1291.17"/>
</g>
<!-- Node7 -->
<g id="node8" class="node"><title>Node7</title>
<g id="a_node8"><a xlink:href="structant_1_1expconfig_1_1detector_1_1_p_i_d__2007.html" target="_top" xlink:title="ant::expconfig::detector\l::PID_2007">
<polygon fill="white" stroke="black" points="377.5,-1411 377.5,-1441 496.5,-1441 496.5,-1411 377.5,-1411"/>
<text text-anchor="start" x="385.5" y="-1429" font-family="Helvetica,sans-Serif" font-size="10.00">ant::expconfig::detector</text>
<text text-anchor="middle" x="437" y="-1418" font-family="Helvetica,sans-Serif" font-size="10.00">::PID_2007</text>
</a>
</g>
</g>
<!-- Node5&#45;&gt;Node7 -->
<g id="edge7" class="edge"><title>Node5&#45;&gt;Node7</title>
<path fill="none" stroke="midnightblue" d="M306.592,-1293.66C308.493,-1294.99 310.303,-1296.43 312,-1298 347.605,-1330.92 312.706,-1367.74 348,-1401 356.207,-1408.73 366.631,-1414.1 377.41,-1417.82"/>
<polygon fill="midnightblue" stroke="midnightblue" points="308.168,-1290.53 297.758,-1288.56 304.669,-1296.59 308.168,-1290.53"/>
</g>
<!-- Node8 -->
<g id="node9" class="node"><title>Node8</title>
<g id="a_node9"><a xlink:href="structant_1_1expconfig_1_1detector_1_1_p_i_d__2009__05.html" target="_top" xlink:title="ant::expconfig::detector\l::PID_2009_05">
<polygon fill="white" stroke="black" points="377.5,-1362 377.5,-1392 496.5,-1392 496.5,-1362 377.5,-1362"/>
<text text-anchor="start" x="385.5" y="-1380" font-family="Helvetica,sans-Serif" font-size="10.00">ant::expconfig::detector</text>
<text text-anchor="middle" x="437" y="-1369" font-family="Helvetica,sans-Serif" font-size="10.00">::PID_2009_05</text>
</a>
</g>
</g>
<!-- Node5&#45;&gt;Node8 -->
<g id="edge8" class="edge"><title>Node5&#45;&gt;Node8</title>
<path fill="none" stroke="midnightblue" d="M303.3,-1292.72C306.343,-1294.29 309.265,-1296.05 312,-1298 335.469,-1314.77 324.689,-1335.01 348,-1352 356.728,-1358.36 367.028,-1363.11 377.45,-1366.65"/>
<polygon fill="midnightblue" stroke="midnightblue" points="304.434,-1289.39 293.875,-1288.52 301.585,-1295.79 304.434,-1289.39"/>
</g>
<!-- Node9 -->
<g id="node10" class="node"><title>Node9</title>
<g id="a_node10"><a xlink:href="structant_1_1expconfig_1_1detector_1_1_p_i_d__2009__06.html" target="_top" xlink:title="ant::expconfig::detector\l::PID_2009_06">
<polygon fill="white" stroke="black" points="377.5,-1313 377.5,-1343 496.5,-1343 496.5,-1313 377.5,-1313"/>
<text text-anchor="start" x="385.5" y="-1331" font-family="Helvetica,sans-Serif" font-size="10.00">ant::expconfig::detector</text>
<text text-anchor="middle" x="437" y="-1320" font-family="Helvetica,sans-Serif" font-size="10.00">::PID_2009_06</text>
</a>
</g>
</g>
<!-- Node5&#45;&gt;Node9 -->
<g id="edge9" class="edge"><title>Node5&#45;&gt;Node9</title>
<path fill="none" stroke="midnightblue" d="M288.22,-1291.05C315.156,-1297.79 348.924,-1306.23 377.379,-1313.34"/>
<polygon fill="midnightblue" stroke="midnightblue" points="288.806,-1287.59 278.256,-1288.56 287.109,-1294.38 288.806,-1287.59"/>
</g>
<!-- Node10 -->
<g id="node11" class="node"><title>Node10</title>
<g id="a_node11"><a xlink:href="structant_1_1expconfig_1_1detector_1_1_p_i_d__2009__07.html" target="_top" xlink:title="ant::expconfig::detector\l::PID_2009_07">
<polygon fill="white" stroke="black" points="377.5,-1264 377.5,-1294 496.5,-1294 496.5,-1264 377.5,-1264"/>
<text text-anchor="start" x="385.5" y="-1282" font-family="Helvetica,sans-Serif" font-size="10.00">ant::expconfig::detector</text>
<text text-anchor="middle" x="437" y="-1271" font-family="Helvetica,sans-Serif" font-size="10.00">::PID_2009_07</text>
</a>
</g>
</g>
<!-- Node5&#45;&gt;Node10 -->
<g id="edge10" class="edge"><title>Node5&#45;&gt;Node10</title>
<path fill="none" stroke="midnightblue" d="M320.853,-1279C339.76,-1279 359.546,-1279 377.277,-1279"/>
<polygon fill="midnightblue" stroke="midnightblue" points="320.761,-1275.5 310.76,-1279 320.76,-1282.5 320.761,-1275.5"/>
</g>
<!-- Node11 -->
<g id="node12" class="node"><title>Node11</title>
<g id="a_node12"><a xlink:href="structant_1_1expconfig_1_1detector_1_1_p_i_d__2014.html" target="_top" xlink:title="ant::expconfig::detector\l::PID_2014">
<polygon fill="white" stroke="black" points="377.5,-1215 377.5,-1245 496.5,-1245 496.5,-1215 377.5,-1215"/>
<text text-anchor="start" x="385.5" y="-1233" font-family="Helvetica,sans-Serif" font-size="10.00">ant::expconfig::detector</text>
<text text-anchor="middle" x="437" y="-1222" font-family="Helvetica,sans-Serif" font-size="10.00">::PID_2014</text>
</a>
</g>
</g>
<!-- Node5&#45;&gt;Node11 -->
<g id="edge11" class="edge"><title>Node5&#45;&gt;Node11</title>
<path fill="none" stroke="midnightblue" d="M288.22,-1266.95C315.156,-1260.21 348.924,-1251.77 377.379,-1244.66"/>
<polygon fill="midnightblue" stroke="midnightblue" points="287.109,-1263.62 278.256,-1269.44 288.806,-1270.41 287.109,-1263.62"/>
</g>
<!-- Node13 -->
<g id="node14" class="node"><title>Node13</title>
<g id="a_node14"><a xlink:href="structant_1_1expconfig_1_1detector_1_1_tagger__2007.html" target="_top" xlink:title="ant::expconfig::detector\l::Tagger_2007">
<polygon fill="white" stroke="black" points="377.5,-1166 377.5,-1196 496.5,-1196 496.5,-1166 377.5,-1166"/>
<text text-anchor="start" x="385.5" y="-1184" font-family="Helvetica,sans-Serif" font-size="10.00">ant::expconfig::detector</text>
<text text-anchor="middle" x="437" y="-1173" font-family="Helvetica,sans-Serif" font-size="10.00">::Tagger_2007</text>
</a>
</g>
</g>
<!-- Node12&#45;&gt;Node13 -->
<g id="edge13" class="edge"><title>Node12&#45;&gt;Node13</title>
<path fill="none" stroke="midnightblue" d="M259.448,-1080.95C279.491,-1103.21 312.711,-1136.41 348,-1156 357.026,-1161.01 367.141,-1165.09 377.211,-1168.39"/>
<polygon fill="midnightblue" stroke="midnightblue" points="261.924,-1078.47 252.68,-1073.29 256.678,-1083.11 261.924,-1078.47"/>
</g>
<!-- Node14 -->
<g id="node15" class="node"><title>Node14</title>
<g id="a_node15"><a xlink:href="structant_1_1expconfig_1_1detector_1_1_tagger__2010__03.html" target="_top" xlink:title="ant::expconfig::detector\l::Tagger_2010_03">
<polygon fill="white" stroke="black" points="377.5,-1117 377.5,-1147 496.5,-1147 496.5,-1117 377.5,-1117"/>
<text text-anchor="start" x="385.5" y="-1135" font-family="Helvetica,sans-Serif" font-size="10.00">ant::expconfig::detector</text>
<text text-anchor="middle" x="437" y="-1124" font-family="Helvetica,sans-Serif" font-size="10.00">::Tagger_2010_03</text>
</a>
</g>
</g>
<!-- Node12&#45;&gt;Node14 -->
<g id="edge14" class="edge"><title>Node12&#45;&gt;Node14</title>
<path fill="none" stroke="midnightblue" d="M279.417,-1077.59C299.623,-1087.2 324.803,-1098.5 348,-1107 357.693,-1110.55 368.137,-1113.91 378.325,-1116.95"/>
<polygon fill="midnightblue" stroke="midnightblue" points="280.748,-1074.35 270.218,-1073.18 277.717,-1080.66 280.748,-1074.35"/>
</g>
<!-- Node15 -->
<g id="node16" class="node"><title>Node15</title>
<g id="a_node16"><a xlink:href="structant_1_1expconfig_1_1detector_1_1_tagger__2015.html" target="_top" xlink:title="ant::expconfig::detector\l::Tagger_2015">
<polygon fill="white" stroke="black" points="377.5,-1068 377.5,-1098 496.5,-1098 496.5,-1068 377.5,-1068"/>
<text text-anchor="start" x="385.5" y="-1086" font-family="Helvetica,sans-Serif" font-size="10.00">ant::expconfig::detector</text>
<text text-anchor="middle" x="437" y="-1075" font-family="Helvetica,sans-Serif" font-size="10.00">::Tagger_2015</text>
</a>
</g>
</g>
<!-- Node12&#45;&gt;Node15 -->
<g id="edge15" class="edge"><title>Node12&#45;&gt;Node15</title>
<path fill="none" stroke="midnightblue" d="M308.671,-1066.76C331.106,-1069.62 355.8,-1072.77 377.422,-1075.53"/>
<polygon fill="midnightblue" stroke="midnightblue" points="308.903,-1063.26 298.541,-1065.47 308.018,-1070.2 308.903,-1063.26"/>
</g>
<!-- Node16 -->
<g id="node17" class="node"><title>Node16</title>
<g id="a_node17"><a xlink:href="structant_1_1expconfig_1_1detector_1_1_tagger__2016__06.html" target="_top" xlink:title="ant::expconfig::detector\l::Tagger_2016_06">
<polygon fill="white" stroke="black" points="377.5,-1019 377.5,-1049 496.5,-1049 496.5,-1019 377.5,-1019"/>
<text text-anchor="start" x="385.5" y="-1037" font-family="Helvetica,sans-Serif" font-size="10.00">ant::expconfig::detector</text>
<text text-anchor="middle" x="437" y="-1026" font-family="Helvetica,sans-Serif" font-size="10.00">::Tagger_2016_06</text>
</a>
</g>
</g>
<!-- Node12&#45;&gt;Node16 -->
<g id="edge16" class="edge"><title>Node12&#45;&gt;Node16</title>
<path fill="none" stroke="midnightblue" d="M308.671,-1049.59C331.106,-1046.84 355.8,-1043.82 377.422,-1041.17"/>
<polygon fill="midnightblue" stroke="midnightblue" points="308.041,-1046.14 298.541,-1050.83 308.892,-1053.09 308.041,-1046.14"/>
</g>
<!-- Node17 -->
<g id="node18" class="node"><title>Node17</title>
<g id="a_node18"><a xlink:href="structant_1_1expconfig_1_1detector_1_1_tagger__2017__12.html" target="_top" xlink:title="ant::expconfig::detector\l::Tagger_2017_12">
<polygon fill="white" stroke="black" points="377.5,-970 377.5,-1000 496.5,-1000 496.5,-970 377.5,-970"/>
<text text-anchor="start" x="385.5" y="-988" font-family="Helvetica,sans-Serif" font-size="10.00">ant::expconfig::detector</text>
<text text-anchor="middle" x="437" y="-977" font-family="Helvetica,sans-Serif" font-size="10.00">::Tagger_2017_12</text>
</a>
</g>
</g>
<!-- Node12&#45;&gt;Node17 -->
<g id="edge17" class="edge"><title>Node12&#45;&gt;Node17</title>
<path fill="none" stroke="midnightblue" d="M279.894,-1038.65C300.036,-1029.3 325.017,-1018.32 348,-1010 357.706,-1006.48 368.157,-1003.14 378.348,-1000.11"/>
<polygon fill="midnightblue" stroke="midnightblue" points="278.283,-1035.54 270.716,-1042.95 281.256,-1041.88 278.283,-1035.54"/>
</g>
<!-- Node18 -->
<g id="node19" class="node"><title>Node18</title>
<g id="a_node19"><a xlink:href="structant_1_1expconfig_1_1detector_1_1_tagger__2018__03.html" target="_top" xlink:title="ant::expconfig::detector\l::Tagger_2018_03">
<polygon fill="white" stroke="black" points="377.5,-921 377.5,-951 496.5,-951 496.5,-921 377.5,-921"/>
<text text-anchor="start" x="385.5" y="-939" font-family="Helvetica,sans-Serif" font-size="10.00">ant::expconfig::detector</text>
<text text-anchor="middle" x="437" y="-928" font-family="Helvetica,sans-Serif" font-size="10.00">::Tagger_2018_03</text>
</a>
</g>
</g>
<!-- Node12&#45;&gt;Node18 -->
<g id="edge18" class="edge"><title>Node12&#45;&gt;Node18</title>
<path fill="none" stroke="midnightblue" d="M259.496,-1035.29C279.576,-1013.27 312.824,-980.414 348,-961 357.038,-956.012 367.16,-951.945 377.233,-948.653"/>
<polygon fill="midnightblue" stroke="midnightblue" points="256.774,-1033.08 252.715,-1042.87 261.991,-1037.75 256.774,-1033.08"/>
</g>
<!-- Node20 -->
<g id="node21" class="node"><title>Node20</title>
<g id="a_node21"><a xlink:href="structant_1_1expconfig_1_1detector_1_1_t_a_p_s__2007.html" target="_top" xlink:title="ant::expconfig::detector\l::TAPS_2007">
<polygon fill="white" stroke="black" points="377.5,-872 377.5,-902 496.5,-902 496.5,-872 377.5,-872"/>
<text text-anchor="start" x="385.5" y="-890" font-family="Helvetica,sans-Serif" font-size="10.00">ant::expconfig::detector</text>
<text text-anchor="middle" x="437" y="-879" font-family="Helvetica,sans-Serif" font-size="10.00">::TAPS_2007</text>
</a>
</g>
</g>
<!-- Node19&#45;&gt;Node20 -->
<g id="edge20" class="edge"><title>Node19&#45;&gt;Node20</title>
<path fill="none" stroke="midnightblue" d="M308.671,-871.409C331.106,-874.156 355.8,-877.18 377.422,-879.827"/>
<polygon fill="midnightblue" stroke="midnightblue" points="308.892,-867.91 298.541,-870.168 308.041,-874.858 308.892,-867.91"/>
</g>
<!-- Node21 -->
<g id="node22" class="node"><title>Node21</title>
<g id="a_node22"><a xlink:href="structant_1_1expconfig_1_1detector_1_1_t_a_p_s__2009__03.html" target="_top" xlink:title="ant::expconfig::detector\l::TAPS_2009_03">
<polygon fill="white" stroke="black" points="377.5,-823 377.5,-853 496.5,-853 496.5,-823 377.5,-823"/>
<text text-anchor="start" x="385.5" y="-841" font-family="Helvetica,sans-Serif" font-size="10.00">ant::expconfig::detector</text>
<text text-anchor="middle" x="437" y="-830" font-family="Helvetica,sans-Serif" font-size="10.00">::TAPS_2009_03</text>
</a>
</g>
</g>
<!-- Node19&#45;&gt;Node21 -->
<g id="edge21" class="edge"><title>Node19&#45;&gt;Node21</title>
<path fill="none" stroke="midnightblue" d="M308.671,-854.241C331.106,-851.379 355.8,-848.23 377.422,-845.472"/>
<polygon fill="midnightblue" stroke="midnightblue" points="308.018,-850.796 298.541,-855.533 308.903,-857.74 308.018,-850.796"/>
</g>
<!-- Node22 -->
<g id="node23" class="node"><title>Node22</title>
<g id="a_node23"><a xlink:href="structant_1_1expconfig_1_1detector_1_1_t_a_p_s__2013__11.html" target="_top" xlink:title="ant::expconfig::detector\l::TAPS_2013_11">
<polygon fill="white" stroke="black" points="377.5,-774 377.5,-804 496.5,-804 496.5,-774 377.5,-774"/>
<text text-anchor="start" x="385.5" y="-792" font-family="Helvetica,sans-Serif" font-size="10.00">ant::expconfig::detector</text>
<text text-anchor="middle" x="437" y="-781" font-family="Helvetica,sans-Serif" font-size="10.00">::TAPS_2013_11</text>
</a>
</g>
</g>
<!-- Node19&#45;&gt;Node22 -->
<g id="edge22" class="edge"><title>Node19&#45;&gt;Node22</title>
<path fill="none" stroke="midnightblue" d="M279.417,-843.405C299.623,-833.801 324.803,-822.504 348,-814 357.693,-810.447 368.137,-807.086 378.325,-804.05"/>
<polygon fill="midnightblue" stroke="midnightblue" points="277.717,-840.339 270.218,-847.823 280.748,-846.649 277.717,-840.339"/>
</g>
<!-- Node24 -->
<g id="node25" class="node"><title>Node24</title>
<g id="a_node25"><a xlink:href="structant_1_1expconfig_1_1detector_1_1_t_a_p_s_veto__2007.html" target="_top" xlink:title="ant::expconfig::detector\l::TAPSVeto_2007">
<polygon fill="white" stroke="black" points="377.5,-725 377.5,-755 496.5,-755 496.5,-725 377.5,-725"/>
<text text-anchor="start" x="385.5" y="-743" font-family="Helvetica,sans-Serif" font-size="10.00">ant::expconfig::detector</text>
<text text-anchor="middle" x="437" y="-732" font-family="Helvetica,sans-Serif" font-size="10.00">::TAPSVeto_2007</text>
</a>
</g>
</g>
<!-- Node23&#45;&gt;Node24 -->
<g id="edge24" class="edge"><title>Node23&#45;&gt;Node24</title>
<path fill="none" stroke="midnightblue" d="M308.368,-708.092C330.884,-713.721 355.703,-719.926 377.422,-725.356"/>
<polygon fill="midnightblue" stroke="midnightblue" points="309.091,-704.665 298.541,-705.635 307.394,-711.456 309.091,-704.665"/>
</g>
<!-- Node25 -->
<g id="node26" class="node"><title>Node25</title>
<g id="a_node26"><a xlink:href="structant_1_1expconfig_1_1detector_1_1_t_a_p_s_veto__2009__03.html" target="_top" xlink:title="ant::expconfig::detector\l::TAPSVeto_2009_03">
<polygon fill="white" stroke="black" points="377.5,-676 377.5,-706 496.5,-706 496.5,-676 377.5,-676"/>
<text text-anchor="start" x="385.5" y="-694" font-family="Helvetica,sans-Serif" font-size="10.00">ant::expconfig::detector</text>
<text text-anchor="middle" x="437" y="-683" font-family="Helvetica,sans-Serif" font-size="10.00">::TAPSVeto_2009_03</text>
</a>
</g>
</g>
<!-- Node23&#45;&gt;Node25 -->
<g id="edge25" class="edge"><title>Node23&#45;&gt;Node25</title>
<path fill="none" stroke="midnightblue" d="M308.671,-691C331.106,-691 355.8,-691 377.422,-691"/>
<polygon fill="midnightblue" stroke="midnightblue" points="308.541,-687.5 298.541,-691 308.541,-694.5 308.541,-687.5"/>
</g>
<!-- Node26 -->
<g id="node27" class="node"><title>Node26</title>
<g id="a_node27"><a xlink:href="structant_1_1expconfig_1_1detector_1_1_t_a_p_s_veto__2013__11.html" target="_top" xlink:title="ant::expconfig::detector\l::TAPSVeto_2013_11">
<polygon fill="white" stroke="black" points="377.5,-627 377.5,-657 496.5,-657 496.5,-627 377.5,-627"/>
<text text-anchor="start" x="385.5" y="-645" font-family="Helvetica,sans-Serif" font-size="10.00">ant::expconfig::detector</text>
<text text-anchor="middle" x="437" y="-634" font-family="Helvetica,sans-Serif" font-size="10.00">::TAPSVeto_2013_11</text>
</a>
</g>
</g>
<!-- Node23&#45;&gt;Node26 -->
<g id="edge26" class="edge"><title>Node23&#45;&gt;Node26</title>
<path fill="none" stroke="midnightblue" d="M308.368,-673.908C330.884,-668.279 355.703,-662.074 377.422,-656.644"/>
<polygon fill="midnightblue" stroke="midnightblue" points="307.394,-670.544 298.541,-676.365 309.091,-677.335 307.394,-670.544"/>
</g>
<!-- Node27 -->
<g id="node28" class="node"><title>Node27</title>
<g id="a_node28"><a xlink:href="structant_1_1expconfig_1_1detector_1_1_t_a_p_s_veto__2014.html" target="_top" xlink:title="ant::expconfig::detector\l::TAPSVeto_2014">
<polygon fill="white" stroke="black" points="377.5,-578 377.5,-608 496.5,-608 496.5,-578 377.5,-578"/>
<text text-anchor="start" x="385.5" y="-596" font-family="Helvetica,sans-Serif" font-size="10.00">ant::expconfig::detector</text>
<text text-anchor="middle" x="437" y="-585" font-family="Helvetica,sans-Serif" font-size="10.00">::TAPSVeto_2014</text>
</a>
</g>
</g>
<!-- Node23&#45;&gt;Node27 -->
<g id="edge27" class="edge"><title>Node23&#45;&gt;Node27</title>
<path fill="none" stroke="midnightblue" d="M266.517,-669.545C287.544,-653.433 318.245,-631.848 348,-618 357.216,-613.711 367.323,-610.004 377.301,-606.856"/>
<polygon fill="midnightblue" stroke="midnightblue" points="264.147,-666.954 258.405,-675.858 268.446,-672.479 264.147,-666.954"/>
</g>
<!-- Node29 -->
<g id="node30" class="node"><title>Node29</title>
<g id="a_node30"><a xlink:href="structant_1_1expconfig_1_1detector_1_1_trigger__2007.html" target="_top" xlink:title="ant::expconfig::detector\l::Trigger_2007">
<polygon fill="white" stroke="black" points="377.5,-529 377.5,-559 496.5,-559 496.5,-529 377.5,-529"/>
<text text-anchor="start" x="385.5" y="-547" font-family="Helvetica,sans-Serif" font-size="10.00">ant::expconfig::detector</text>
<text text-anchor="middle" x="437" y="-536" font-family="Helvetica,sans-Serif" font-size="10.00">::Trigger_2007</text>
</a>
</g>
</g>
<!-- Node28&#45;&gt;Node29 -->
<g id="edge29" class="edge"><title>Node28&#45;&gt;Node29</title>
<path fill="none" stroke="midnightblue" d="M308.671,-544C331.106,-544 355.8,-544 377.422,-544"/>
<polygon fill="midnightblue" stroke="midnightblue" points="308.541,-540.5 298.541,-544 308.541,-547.5 308.541,-540.5"/>
</g>
<!-- Node30 -->
<g id="node31" class="node"><title>Node30</title>
<g id="a_node31"><a xlink:href="structant_1_1expconfig_1_1detector_1_1_trigger__2014.html" target="_top" xlink:title="ant::expconfig::detector\l::Trigger_2014">
<polygon fill="white" stroke="black" points="377.5,-480 377.5,-510 496.5,-510 496.5,-480 377.5,-480"/>
<text text-anchor="start" x="385.5" y="-498" font-family="Helvetica,sans-Serif" font-size="10.00">ant::expconfig::detector</text>
<text text-anchor="middle" x="437" y="-487" font-family="Helvetica,sans-Serif" font-size="10.00">::Trigger_2014</text>
</a>
</g>
</g>
<!-- Node28&#45;&gt;Node30 -->
<g id="edge30" class="edge"><title>Node28&#45;&gt;Node30</title>
<path fill="none" stroke="midnightblue" d="M308.368,-526.908C330.884,-521.279 355.703,-515.074 377.422,-509.644"/>
<polygon fill="midnightblue" stroke="midnightblue" points="307.394,-523.544 298.541,-529.365 309.091,-530.335 307.394,-523.544"/>
</g>
<!-- Node32 -->
<g id="node33" class="node"><title>Node32</title>
<g id="a_node33"><a xlink:href="classant_1_1expconfig_1_1setup_1_1_setup__2007___base.html" target="_top" xlink:title="Common base class for all Setups of the 2014 Ent Point Tagger beam times. ">
<polygon fill="white" stroke="black" points="383,-431 383,-461 491,-461 491,-431 383,-431"/>
<text text-anchor="start" x="391" y="-449" font-family="Helvetica,sans-Serif" font-size="10.00">ant::expconfig::setup</text>
<text text-anchor="middle" x="437" y="-438" font-family="Helvetica,sans-Serif" font-size="10.00">::Setup_2007_Base</text>
</a>
</g>
</g>
<!-- Node31&#45;&gt;Node32 -->
<g id="edge32" class="edge"><title>Node31&#45;&gt;Node32</title>
<path fill="none" stroke="midnightblue" d="M246.918,-269.583C260.531,-305.242 294.231,-380.788 348,-421 358.175,-428.61 370.584,-433.905 382.838,-437.589"/>
<polygon fill="midnightblue" stroke="midnightblue" points="250.083,-268.051 243.338,-259.88 243.516,-270.474 250.083,-268.051"/>
</g>
<!-- Node35 -->
<g id="node36" class="node"><title>Node35</title>
<g id="a_node36"><a xlink:href="classant_1_1expconfig_1_1setup_1_1_setup__2010__03___base.html" target="_top" xlink:title="ant::expconfig::setup\l::Setup_2010_03_Base">
<polygon fill="white" stroke="black" points="378,-382 378,-412 496,-412 496,-382 378,-382"/>
<text text-anchor="start" x="386" y="-400" font-family="Helvetica,sans-Serif" font-size="10.00">ant::expconfig::setup</text>
<text text-anchor="middle" x="437" y="-389" font-family="Helvetica,sans-Serif" font-size="10.00">::Setup_2010_03_Base</text>
</a>
</g>
</g>
<!-- Node31&#45;&gt;Node35 -->
<g id="edge35" class="edge"><title>Node31&#45;&gt;Node35</title>
<path fill="none" stroke="midnightblue" d="M251.277,-268.349C268.699,-295.151 304.71,-344.769 348,-372 357.007,-377.666 367.328,-382.078 377.657,-385.506"/>
<polygon fill="midnightblue" stroke="midnightblue" points="254.033,-266.16 245.72,-259.591 248.122,-269.91 254.033,-266.16"/>
</g>
<!-- Node37 -->
<g id="node38" class="node"><title>Node37</title>
<g id="a_node38"><a xlink:href="classant_1_1expconfig_1_1setup_1_1_setup__2012__12___compton.html" target="_top" xlink:title="ant::expconfig::setup\l::Setup_2012_12_Compton">
<polygon fill="white" stroke="black" points="369.5,-333 369.5,-363 504.5,-363 504.5,-333 369.5,-333"/>
<text text-anchor="start" x="377.5" y="-351" font-family="Helvetica,sans-Serif" font-size="10.00">ant::expconfig::setup</text>
<text text-anchor="middle" x="437" y="-340" font-family="Helvetica,sans-Serif" font-size="10.00">::Setup_2012_12_Compton</text>
</a>
</g>
</g>
<!-- Node31&#45;&gt;Node37 -->
<g id="edge37" class="edge"><title>Node31&#45;&gt;Node37</title>
<path fill="none" stroke="midnightblue" d="M259.594,-266.08C280.394,-282.445 314.786,-307.542 348,-323 356.064,-326.753 364.81,-330.06 373.555,-332.937"/>
<polygon fill="midnightblue" stroke="midnightblue" points="261.551,-263.164 251.555,-259.654 257.181,-268.632 261.551,-263.164"/>
</g>
<!-- Node38 -->
<g id="node39" class="node"><title>Node38</title>
<g id="a_node39"><a xlink:href="classant_1_1expconfig_1_1setup_1_1_setup__2014___e_p_t.html" target="_top" xlink:title="Common base class for all Setups of the 2014 Ent Point Tagger beam times. ">
<polygon fill="white" stroke="black" points="383,-284 383,-314 491,-314 491,-284 383,-284"/>
<text text-anchor="start" x="391" y="-302" font-family="Helvetica,sans-Serif" font-size="10.00">ant::expconfig::setup</text>
<text text-anchor="middle" x="437" y="-291" font-family="Helvetica,sans-Serif" font-size="10.00">::Setup_2014_EPT</text>
</a>
</g>
</g>
<!-- Node31&#45;&gt;Node38 -->
<g id="edge38" class="edge"><title>Node31&#45;&gt;Node38</title>
<path fill="none" stroke="midnightblue" d="M288.04,-262.01C316.685,-269.171 353.104,-278.276 382.641,-285.66"/>
<polygon fill="midnightblue" stroke="midnightblue" points="288.806,-258.594 278.256,-259.564 287.109,-265.385 288.806,-258.594"/>
</g>
<!-- Node42 -->
<g id="node43" class="node"><title>Node42</title>
<g id="a_node43"><a xlink:href="classant_1_1expconfig_1_1setup_1_1_setup__2015__01___pion.html" target="_top" xlink:title="Ant Setup for Rare Pion Test Beamtime in January 2015 &amp; MC studies. ">
<polygon fill="white" stroke="black" points="379.5,-235 379.5,-265 494.5,-265 494.5,-235 379.5,-235"/>
<text text-anchor="start" x="387.5" y="-253" font-family="Helvetica,sans-Serif" font-size="10.00">ant::expconfig::setup</text>
<text text-anchor="middle" x="437" y="-242" font-family="Helvetica,sans-Serif" font-size="10.00">::Setup_2015_01_Pion</text>
</a>
</g>
</g>
<!-- Node31&#45;&gt;Node42 -->
<g id="edge42" class="edge"><title>Node31&#45;&gt;Node42</title>
<path fill="none" stroke="midnightblue" d="M304.253,-250C328.493,-250 355.871,-250 379.364,-250"/>
<polygon fill="midnightblue" stroke="midnightblue" points="304.077,-246.5 294.077,-250 304.077,-253.5 304.077,-246.5"/>
</g>
<!-- Node43 -->
<g id="node44" class="node"><title>Node43</title>
<g id="a_node44"><a xlink:href="classant_1_1expconfig_1_1setup_1_1_setup__2017__03.html" target="_top" xlink:title="Common base class for all Setups of the 2014 Ent Point Tagger beam times. ">
<polygon fill="white" stroke="black" points="383,-186 383,-216 491,-216 491,-186 383,-186"/>
<text text-anchor="start" x="391" y="-204" font-family="Helvetica,sans-Serif" font-size="10.00">ant::expconfig::setup</text>
<text text-anchor="middle" x="437" y="-193" font-family="Helvetica,sans-Serif" font-size="10.00">::Setup_2017_03</text>
</a>
</g>
</g>
<!-- Node31&#45;&gt;Node43 -->
<g id="edge43" class="edge"><title>Node31&#45;&gt;Node43</title>
<path fill="none" stroke="midnightblue" d="M288.04,-237.99C316.685,-230.829 353.104,-221.724 382.641,-214.34"/>
<polygon fill="midnightblue" stroke="midnightblue" points="287.109,-234.615 278.256,-240.436 288.806,-241.406 287.109,-234.615"/>
</g>
<!-- Node44 -->
<g id="node45" class="node"><title>Node44</title>
<g id="a_node45"><a xlink:href="classant_1_1expconfig_1_1setup_1_1_setup__2017__05.html" target="_top" xlink:title="Common base class for all Setups of the 2014 Ent Point Tagger beam times. ">
<polygon fill="white" stroke="black" points="383,-137 383,-167 491,-167 491,-137 383,-137"/>
<text text-anchor="start" x="391" y="-155" font-family="Helvetica,sans-Serif" font-size="10.00">ant::expconfig::setup</text>
<text text-anchor="middle" x="437" y="-144" font-family="Helvetica,sans-Serif" font-size="10.00">::Setup_2017_05</text>
</a>
</g>
</g>
<!-- Node31&#45;&gt;Node44 -->
<g id="edge44" class="edge"><title>Node31&#45;&gt;Node44</title>
<path fill="none" stroke="midnightblue" d="M259.187,-233.882C279.893,-217.228 314.43,-191.538 348,-176 358.922,-170.945 371.115,-166.776 382.862,-163.413"/>
<polygon fill="midnightblue" stroke="midnightblue" points="256.729,-231.371 251.203,-240.41 261.16,-236.79 256.729,-231.371"/>
</g>
<!-- Node45 -->
<g id="node46" class="node"><title>Node45</title>
<g id="a_node46"><a xlink:href="classant_1_1expconfig_1_1setup_1_1_setup__2017_plus___new_tagger___base.html" target="_top" xlink:title="Common base class for all Setups starting end of 2017 using the new Tagger. ">
<polygon fill="white" stroke="black" points="348.5,-88 348.5,-118 525.5,-118 525.5,-88 348.5,-88"/>
<text text-anchor="start" x="356.5" y="-106" font-family="Helvetica,sans-Serif" font-size="10.00">ant::expconfig::setup</text>
<text text-anchor="middle" x="437" y="-95" font-family="Helvetica,sans-Serif" font-size="10.00">::Setup_2017Plus_NewTagger_Base</text>
</a>
</g>
</g>
<!-- Node31&#45;&gt;Node45 -->
<g id="edge45" class="edge"><title>Node31&#45;&gt;Node45</title>
<path fill="none" stroke="midnightblue" d="M250.975,-231.794C268.215,-204.779 304.231,-154.334 348,-127 353.507,-123.561 359.507,-120.608 365.701,-118.073"/>
<polygon fill="midnightblue" stroke="midnightblue" points="247.996,-229.958 245.679,-240.296 253.937,-233.659 247.996,-229.958"/>
</g>
<!-- Node48 -->
<g id="node49" class="node"><title>Node48</title>
<g id="a_node49"><a xlink:href="classant_1_1expconfig_1_1setup_1_1_setup___c_b_source_calib.html" target="_top" xlink:title="ant::expconfig::setup\l::Setup_CBSourceCalib">
<polygon fill="white" stroke="black" points="376.5,-39 376.5,-69 497.5,-69 497.5,-39 376.5,-39"/>
<text text-anchor="start" x="384.5" y="-57" font-family="Helvetica,sans-Serif" font-size="10.00">ant::expconfig::setup</text>
<text text-anchor="middle" x="437" y="-46" font-family="Helvetica,sans-Serif" font-size="10.00">::Setup_CBSourceCalib</text>
</a>
</g>
</g>
<!-- Node31&#45;&gt;Node48 -->
<g id="edge48" class="edge"><title>Node31&#45;&gt;Node48</title>
<path fill="none" stroke="midnightblue" d="M246.654,-230.757C260.019,-195.015 293.59,-118.357 348,-78 356.395,-71.7736 366.31,-67.1625 376.404,-63.7476"/>
<polygon fill="midnightblue" stroke="midnightblue" points="243.258,-229.856 243.154,-240.45 249.842,-232.233 243.258,-229.856"/>
</g>
<!-- Node49 -->
<g id="node50" class="node"><title>Node49</title>
<g id="a_node50"><a xlink:href="struct_fake_setup.html" target="_top" xlink:title="Empty fake setup that always matches. Used in case no real setup exists. ">
<polygon fill="white" stroke="black" points="405,-0.5 405,-19.5 469,-19.5 469,-0.5 405,-0.5"/>
<text text-anchor="middle" x="437" y="-7.5" font-family="Helvetica,sans-Serif" font-size="10.00">FakeSetup</text>
</a>
</g>
</g>
<!-- Node31&#45;&gt;Node49 -->
<g id="edge49" class="edge"><title>Node31&#45;&gt;Node49</title>
<path fill="none" stroke="midnightblue" d="M243.642,-230.215C252.771,-186.532 280.888,-81.5656 348,-29 363.996,-16.471 386.439,-11.7672 404.656,-10.172"/>
<polygon fill="midnightblue" stroke="midnightblue" points="240.183,-229.665 241.676,-240.154 247.05,-231.023 240.183,-229.665"/>
</g>
<!-- Node33 -->
<g id="node34" class="node"><title>Node33</title>
<g id="a_node34"><a xlink:href="classant_1_1expconfig_1_1setup_1_1_setup__2007__06.html" target="_top" xlink:title="Ant Setup for the Juni 2007 beam time. ">
<polygon fill="white" stroke="black" points="578,-480 578,-510 686,-510 686,-480 578,-480"/>
<text text-anchor="start" x="586" y="-498" font-family="Helvetica,sans-Serif" font-size="10.00">ant::expconfig::setup</text>
<text text-anchor="middle" x="632" y="-487" font-family="Helvetica,sans-Serif" font-size="10.00">::Setup_2007_06</text>
</a>
</g>
</g>
<!-- Node32&#45;&gt;Node33 -->
<g id="edge33" class="edge"><title>Node32&#45;&gt;Node33</title>
<path fill="none" stroke="midnightblue" d="M500.958,-461.984C525.835,-468.3 554.109,-475.479 577.925,-481.525"/>
<polygon fill="midnightblue" stroke="midnightblue" points="501.803,-458.588 491.249,-459.519 500.08,-465.372 501.803,-458.588"/>
</g>
<!-- Node34 -->
<g id="node35" class="node"><title>Node34</title>
<g id="a_node35"><a xlink:href="classant_1_1expconfig_1_1setup_1_1_setup__2007__07.html" target="_top" xlink:title="Ant Setup for the July 2007 beam time. ">
<polygon fill="white" stroke="black" points="578,-431 578,-461 686,-461 686,-431 578,-431"/>
<text text-anchor="start" x="586" y="-449" font-family="Helvetica,sans-Serif" font-size="10.00">ant::expconfig::setup</text>
<text text-anchor="middle" x="632" y="-438" font-family="Helvetica,sans-Serif" font-size="10.00">::Setup_2007_07</text>
</a>
</g>
</g>
<!-- Node32&#45;&gt;Node34 -->
<g id="edge34" class="edge"><title>Node32&#45;&gt;Node34</title>
<path fill="none" stroke="midnightblue" d="M501.288,-446C526.085,-446 554.215,-446 577.925,-446"/>
<polygon fill="midnightblue" stroke="midnightblue" points="501.249,-442.5 491.249,-446 501.249,-449.5 501.249,-442.5"/>
</g>
<!-- Node36 -->
<g id="node37" class="node"><title>Node36</title>
<g id="a_node37"><a xlink:href="classant_1_1expconfig_1_1setup_1_1_setup__2010__09___compton.html" target="_top" xlink:title="Ant Setup for the September 2010 beam time. ">
<polygon fill="white" stroke="black" points="564.5,-382 564.5,-412 699.5,-412 699.5,-382 564.5,-382"/>
<text text-anchor="start" x="572.5" y="-400" font-family="Helvetica,sans-Serif" font-size="10.00">ant::expconfig::setup</text>
<text text-anchor="middle" x="632" y="-389" font-family="Helvetica,sans-Serif" font-size="10.00">::Setup_2010_09_Compton</text>
</a>
</g>
</g>
<!-- Node35&#45;&gt;Node36 -->
<g id="edge36" class="edge"><title>Node35&#45;&gt;Node36</title>
<path fill="none" stroke="midnightblue" d="M506.202,-397C525.133,-397 545.658,-397 564.491,-397"/>
<polygon fill="midnightblue" stroke="midnightblue" points="506.168,-393.5 496.168,-397 506.168,-400.5 506.168,-393.5"/>
</g>
<!-- Node39 -->
<g id="node40" class="node"><title>Node39</title>
<g id="a_node40"><a xlink:href="classant_1_1expconfig_1_1setup_1_1_setup__2014__07___e_p_t___prod.html" target="_top" xlink:title="Ant Setup for the July 2014 End Point Tagger beam time. ">
<polygon fill="white" stroke="black" points="562,-333 562,-363 702,-363 702,-333 562,-333"/>
<text text-anchor="start" x="570" y="-351" font-family="Helvetica,sans-Serif" font-size="10.00">ant::expconfig::setup</text>
<text text-anchor="middle" x="632" y="-340" font-family="Helvetica,sans-Serif" font-size="10.00">::Setup_2014_07_EPT_Prod</text>
</a>
</g>
</g>
<!-- Node38&#45;&gt;Node39 -->
<g id="edge39" class="edge"><title>Node38&#45;&gt;Node39</title>
<path fill="none" stroke="midnightblue" d="M501.138,-315.03C523.874,-320.802 549.428,-327.29 571.815,-332.974"/>
<polygon fill="midnightblue" stroke="midnightblue" points="501.803,-311.588 491.249,-312.519 500.08,-318.372 501.803,-311.588"/>
</g>
<!-- Node40 -->
<g id="node41" class="node"><title>Node40</title>
<g id="a_node41"><a xlink:href="classant_1_1expconfig_1_1setup_1_1_setup__2014__10___e_p_t___prod.html" target="_top" xlink:title="Ant Setup for the October 2014 End Point Tagger beam time. ">
<polygon fill="white" stroke="black" points="562,-284 562,-314 702,-314 702,-284 562,-284"/>
<text text-anchor="start" x="570" y="-302" font-family="Helvetica,sans-Serif" font-size="10.00">ant::expconfig::setup</text>
<text text-anchor="middle" x="632" y="-291" font-family="Helvetica,sans-Serif" font-size="10.00">::Setup_2014_10_EPT_Prod</text>
</a>
</g>
</g>
<!-- Node38&#45;&gt;Node40 -->
<g id="edge40" class="edge"><title>Node38&#45;&gt;Node40</title>
<path fill="none" stroke="midnightblue" d="M501.482,-299C520.865,-299 542.269,-299 562,-299"/>
<polygon fill="midnightblue" stroke="midnightblue" points="501.249,-295.5 491.249,-299 501.249,-302.5 501.249,-295.5"/>
</g>
<!-- Node41 -->
<g id="node42" class="node"><title>Node41</title>
<g id="a_node42"><a xlink:href="classant_1_1expconfig_1_1setup_1_1_setup__2014__12___e_p_t___prod.html" target="_top" xlink:title="Ant Setup for the December 2014 End Point Tagger beam time. ">
<polygon fill="white" stroke="black" points="562,-235 562,-265 702,-265 702,-235 562,-235"/>
<text text-anchor="start" x="570" y="-253" font-family="Helvetica,sans-Serif" font-size="10.00">ant::expconfig::setup</text>
<text text-anchor="middle" x="632" y="-242" font-family="Helvetica,sans-Serif" font-size="10.00">::Setup_2014_12_EPT_Prod</text>
</a>
</g>
</g>
<!-- Node38&#45;&gt;Node41 -->
<g id="edge41" class="edge"><title>Node38&#45;&gt;Node41</title>
<path fill="none" stroke="midnightblue" d="M501.138,-282.97C523.874,-277.198 549.428,-270.71 571.815,-265.026"/>
<polygon fill="midnightblue" stroke="midnightblue" points="500.08,-279.628 491.249,-285.481 501.803,-286.412 500.08,-279.628"/>
</g>
<!-- Node46 -->
<g id="node47" class="node"><title>Node46</title>
<g id="a_node47"><a xlink:href="classant_1_1expconfig_1_1setup_1_1_setup__2017__12.html" target="_top" xlink:title="Ant Setup for the December 2017 beamtime using the new Tagger. ">
<polygon fill="white" stroke="black" points="578,-112 578,-142 686,-142 686,-112 578,-112"/>
<text text-anchor="start" x="586" y="-130" font-family="Helvetica,sans-Serif" font-size="10.00">ant::expconfig::setup</text>
<text text-anchor="middle" x="632" y="-119" font-family="Helvetica,sans-Serif" font-size="10.00">::Setup_2017_12</text>
</a>
</g>
</g>
<!-- Node45&#45;&gt;Node46 -->
<g id="edge46" class="edge"><title>Node45&#45;&gt;Node46</title>
<path fill="none" stroke="midnightblue" d="M535.799,-115.162C550.333,-116.969 564.829,-118.771 577.965,-120.405"/>
<polygon fill="midnightblue" stroke="midnightblue" points="536.102,-111.672 525.747,-113.911 535.238,-118.619 536.102,-111.672"/>
</g>
<!-- Node47 -->
<g id="node48" class="node"><title>Node47</title>
<g id="a_node48"><a xlink:href="classant_1_1expconfig_1_1setup_1_1_setup__2018__03.html" target="_top" xlink:title="Ant Setup for the March 2018 beamtime using the new Tagger. ">
<polygon fill="white" stroke="black" points="578,-63 578,-93 686,-93 686,-63 578,-63"/>
<text text-anchor="start" x="586" y="-81" font-family="Helvetica,sans-Serif" font-size="10.00">ant::expconfig::setup</text>
<text text-anchor="middle" x="632" y="-70" font-family="Helvetica,sans-Serif" font-size="10.00">::Setup_2018_03</text>
</a>
</g>
</g>
<!-- Node45&#45;&gt;Node47 -->
<g id="edge47" class="edge"><title>Node45&#45;&gt;Node47</title>
<path fill="none" stroke="midnightblue" d="M535.799,-90.3317C550.333,-88.449 564.829,-86.5714 577.965,-84.8698"/>
<polygon fill="midnightblue" stroke="midnightblue" points="535.214,-86.8782 525.747,-91.6339 536.113,-93.8202 535.214,-86.8782"/>
</g>
</g>
</svg>
