<?xml version="1.0" encoding="UTF-8" standalone="no"?>
<!DOCTYPE svg PUBLIC "-//W3C//DTD SVG 1.1//EN"
 "http://www.w3.org/Graphics/SVG/1.1/DTD/svg11.dtd">
<!-- Generated by graphviz version 2.36.0 (20140111.2315)
 -->
<!-- Title: ant::analysis::utils::KinFitter Pages: 1 -->
<svg width="574pt" height="175pt"
 viewBox="0.00 0.00 574.00 175.00" xmlns="http://www.w3.org/2000/svg" xmlns:xlink="http://www.w3.org/1999/xlink">
<g id="graph0" class="graph" transform="scale(1 1) rotate(0) translate(4 171)">
<title>ant::analysis::utils::KinFitter</title>
<polygon fill="white" stroke="none" points="-4,4 -4,-171 570,-171 570,4 -4,4"/>
<!-- Node3 -->
<g id="node1" class="node"><title>Node3</title>
<polygon fill="#bfbfbf" stroke="black" points="470,-67 470,-97 566,-97 566,-67 470,-67"/>
<text text-anchor="start" x="478" y="-85" font-family="Helvetica,sans-Serif" font-size="10.00">ant::analysis::utils</text>
<text text-anchor="middle" x="518" y="-74" font-family="Helvetica,sans-Serif" font-size="10.00">::KinFitter</text>
</g>
<!-- Node4 -->
<g id="node2" class="node"><title>Node4</title>
<g id="a_node2"><a xlink:href="classant_1_1analysis_1_1utils_1_1_fitter.html" target="_top" xlink:title="ant::analysis::utils\l::Fitter">
<polygon fill="white" stroke="black" points="283,-137 283,-167 379,-167 379,-137 283,-137"/>
<text text-anchor="start" x="291" y="-155" font-family="Helvetica,sans-Serif" font-size="10.00">ant::analysis::utils</text>
<text text-anchor="middle" x="331" y="-144" font-family="Helvetica,sans-Serif" font-size="10.00">::Fitter</text>
</a>
</g>
</g>
<!-- Node4&#45;&gt;Node3 -->
<g id="edge1" class="edge"><title>Node4&#45;&gt;Node3</title>
<path fill="none" stroke="midnightblue" d="M385.185,-133.58C406.097,-126.171 430.26,-117.404 452,-109 461.688,-105.255 472.108,-101.02 481.707,-97.0337"/>
<polygon fill="midnightblue" stroke="midnightblue" points="383.782,-130.364 375.516,-136.991 386.111,-136.965 383.782,-130.364"/>
</g>
<!-- Node5 -->
<g id="node3" class="node"><title>Node5</title>
<g id="a_node3"><a xlink:href="structant_1_1analysis_1_1utils_1_1_kin_fitter_1_1_target__t.html" target="_top" xlink:title="ant::analysis::utils\l::KinFitter::Target_t">
<polygon fill="white" stroke="black" points="280.5,-88 280.5,-118 381.5,-118 381.5,-88 280.5,-88"/>
<text text-anchor="start" x="288.5" y="-106" font-family="Helvetica,sans-Serif" font-size="10.00">ant::analysis::utils</text>
<text text-anchor="middle" x="331" y="-95" font-family="Helvetica,sans-Serif" font-size="10.00">::KinFitter::Target_t</text>
</a>
</g>
</g>
<!-- Node5&#45;&gt;Node3 -->
<g id="edge2" class="edge"><title>Node5&#45;&gt;Node3</title>
<path fill="none" stroke="#9a32cd" stroke-dasharray="5,2" d="M391.791,-96.2129C417.075,-93.3428 446.102,-90.0478 469.838,-87.3535"/>
<polygon fill="#9a32cd" stroke="#9a32cd" points="391.118,-92.7667 381.577,-97.3724 391.908,-99.7221 391.118,-92.7667"/>
<text text-anchor="middle" x="432" y="-97" font-family="Helvetica,sans-Serif" font-size="10.00"> Target</text>
</g>
<!-- Node6 -->
<g id="node4" class="node"><title>Node6</title>
<g id="a_node4"><a xlink:href="structant_1_1analysis_1_1utils_1_1_kin_fitter_1_1_beam_e__t.html" target="_top" xlink:title="ant::analysis::utils\l::KinFitter::BeamE_t">
<polygon fill="white" stroke="black" points="278,-39 278,-69 384,-69 384,-39 278,-39"/>
<text text-anchor="start" x="286" y="-57" font-family="Helvetica,sans-Serif" font-size="10.00">ant::analysis::utils</text>
<text text-anchor="middle" x="331" y="-46" font-family="Helvetica,sans-Serif" font-size="10.00">::KinFitter::BeamE_t</text>
</a>
</g>
</g>
<!-- Node6&#45;&gt;Node3 -->
<g id="edge3" class="edge"><title>Node6&#45;&gt;Node3</title>
<path fill="none" stroke="#9a32cd" stroke-dasharray="5,2" d="M394.038,-63.3896C418.766,-67.1321 446.763,-71.3696 469.789,-74.8546"/>
<polygon fill="#9a32cd" stroke="#9a32cd" points="394.436,-59.91 384.025,-61.8741 393.389,-66.8312 394.436,-59.91"/>
<text text-anchor="middle" x="432" y="-76" font-family="Helvetica,sans-Serif" font-size="10.00"> BeamE</text>
</g>
<!-- Node7 -->
<g id="node5" class="node"><title>Node7</title>
<g id="a_node5"><a xlink:href="structant_1_1analysis_1_1utils_1_1_fitter_1_1_v___s___p__t.html" target="_top" xlink:title="ant::analysis::utils\l::Fitter::V_S_P_t">
<polygon fill="white" stroke="black" points="134,-39 134,-69 230,-69 230,-39 134,-39"/>
<text text-anchor="start" x="142" y="-57" font-family="Helvetica,sans-Serif" font-size="10.00">ant::analysis::utils</text>
<text text-anchor="middle" x="182" y="-46" font-family="Helvetica,sans-Serif" font-size="10.00">::Fitter::V_S_P_t</text>
</a>
</g>
</g>
<!-- Node7&#45;&gt;Node6 -->
<g id="edge4" class="edge"><title>Node7&#45;&gt;Node6</title>
<path fill="none" stroke="midnightblue" d="M240.504,-54C252.843,-54 265.814,-54 277.932,-54"/>
<polygon fill="midnightblue" stroke="midnightblue" points="240.321,-50.5001 230.321,-54 240.321,-57.5001 240.321,-50.5001"/>
</g>
<!-- Node8 -->
<g id="node6" class="node"><title>Node8</title>
<g id="a_node6"><a xlink:href="structant_1_1analysis_1_1utils_1_1_fitter_1_1_v___s__t.html" target="_top" xlink:title="ant::analysis::utils\l::Fitter::V_S_t">
<polygon fill="white" stroke="black" points="0,-39 0,-69 96,-69 96,-39 0,-39"/>
<text text-anchor="start" x="8" y="-57" font-family="Helvetica,sans-Serif" font-size="10.00">ant::analysis::utils</text>
<text text-anchor="middle" x="48" y="-46" font-family="Helvetica,sans-Serif" font-size="10.00">::Fitter::V_S_t</text>
</a>
</g>
</g>
<!-- Node8&#45;&gt;Node7 -->
<g id="edge5" class="edge"><title>Node8&#45;&gt;Node7</title>
<path fill="none" stroke="midnightblue" d="M106.403,-54C115.484,-54 124.785,-54 133.604,-54"/>
<polygon fill="midnightblue" stroke="midnightblue" points="106.282,-50.5001 96.2822,-54 106.282,-57.5001 106.282,-50.5001"/>
</g>
<!-- Node9 -->
<g id="node7" class="node"><title>Node9</title>
<polygon fill="white" stroke="#bfbfbf" points="268.5,-0.5 268.5,-19.5 393.5,-19.5 393.5,-0.5 268.5,-0.5"/>
<text text-anchor="middle" x="331" y="-7.5" font-family="Helvetica,sans-Serif" font-size="10.00">std::vector&lt; FitParticle &gt;</text>
</g>
<!-- Node9&#45;&gt;Node3 -->
<g id="edge6" class="edge"><title>Node9&#45;&gt;Node3</title>
<path fill="none" stroke="#9a32cd" stroke-dasharray="5,2" d="M374.921,-22.6629C381.343,-24.6992 387.865,-26.8475 394,-29 425.705,-40.1241 460.806,-55.5763 485.369,-66.9264"/>
<polygon fill="#9a32cd" stroke="#9a32cd" points="375.569,-19.199 364.98,-19.5704 373.489,-25.8831 375.569,-19.199"/>
<text text-anchor="middle" x="432" y="-55" font-family="Helvetica,sans-Serif" font-size="10.00"> Photons</text>
</g>
</g>
</svg>
