<?xml version="1.0" encoding="UTF-8" standalone="no"?>
<!DOCTYPE svg PUBLIC "-//W3C//DTD SVG 1.1//EN"
 "http://www.w3.org/Graphics/SVG/1.1/DTD/svg11.dtd">
<!-- Generated by graphviz version 2.36.0 (20140111.2315)
 -->
<!-- Title: ant::analysis::physics::InterpolatedPulls Pages: 1 -->
<svg width="928pt" height="371pt"
 viewBox="0.00 0.00 928.00 371.00" xmlns="http://www.w3.org/2000/svg" xmlns:xlink="http://www.w3.org/1999/xlink">
<g id="graph0" class="graph" transform="scale(1 1) rotate(0) translate(4 367)">
<title>ant::analysis::physics::InterpolatedPulls</title>
<polygon fill="white" stroke="none" points="-4,4 -4,-367 924,-367 924,4 -4,4"/>
<!-- Node2 -->
<g id="node1" class="node"><title>Node2</title>
<polygon fill="#bfbfbf" stroke="black" points="808,-138 808,-168 920,-168 920,-138 808,-138"/>
<text text-anchor="start" x="816" y="-156" font-family="Helvetica,sans-Serif" font-size="10.00">ant::analysis::physics</text>
<text text-anchor="middle" x="864" y="-145" font-family="Helvetica,sans-Serif" font-size="10.00">::InterpolatedPulls</text>
</g>
<!-- Node3 -->
<g id="node2" class="node"><title>Node3</title>
<g id="a_node2"><a xlink:href="classant_1_1analysis_1_1_physics.html" target="_top" xlink:title="ant::analysis::Physics">
<polygon fill="white" stroke="black" points="576.5,-330.5 576.5,-349.5 689.5,-349.5 689.5,-330.5 576.5,-330.5"/>
<text text-anchor="middle" x="633" y="-337.5" font-family="Helvetica,sans-Serif" font-size="10.00">ant::analysis::Physics</text>
</a>
</g>
</g>
<!-- Node3&#45;&gt;Node2 -->
<g id="edge1" class="edge"><title>Node3&#45;&gt;Node2</title>
<path fill="none" stroke="midnightblue" d="M660.941,-325.453C674.62,-317.868 691.391,-308.261 706,-299 744.532,-274.574 756.386,-270.847 790,-240 814.696,-217.337 838.784,-186.408 852.181,-168.185"/>
<polygon fill="midnightblue" stroke="midnightblue" points="659.108,-322.467 652.031,-330.352 662.48,-328.601 659.108,-322.467"/>
</g>
<!-- Node4 -->
<g id="node3" class="node"><title>Node4</title>
<g id="a_node3"><a xlink:href="classant_1_1analysis_1_1_histogram_factory.html" target="_top" xlink:title="ant::analysis::Histogram\lFactory">
<polygon fill="white" stroke="black" points="329.5,-333 329.5,-363 452.5,-363 452.5,-333 329.5,-333"/>
<text text-anchor="start" x="337.5" y="-351" font-family="Helvetica,sans-Serif" font-size="10.00">ant::analysis::Histogram</text>
<text text-anchor="middle" x="391" y="-340" font-family="Helvetica,sans-Serif" font-size="10.00">Factory</text>
</a>
</g>
</g>
<!-- Node4&#45;&gt;Node3 -->
<g id="edge2" class="edge"><title>Node4&#45;&gt;Node3</title>
<path fill="none" stroke="#9a32cd" stroke-dasharray="5,2" d="M462.594,-345.647C498.897,-344.437 542.51,-342.983 576.393,-341.854"/>
<polygon fill="#9a32cd" stroke="#9a32cd" points="462.44,-342.15 452.562,-345.981 462.673,-349.146 462.44,-342.15"/>
<text text-anchor="middle" x="512" y="-347" font-family="Helvetica,sans-Serif" font-size="10.00"> HistFac</text>
</g>
<!-- Node5 -->
<g id="node4" class="node"><title>Node5</title>
<g id="a_node4"><a xlink:href="structant_1_1analysis_1_1physics_1_1_interpolated_pulls_1_1_tree__t.html" target="_top" xlink:title="ant::analysis::physics\l::InterpolatedPulls::Tree_t">
<polygon fill="white" stroke="black" points="568.5,-260 568.5,-290 697.5,-290 697.5,-260 568.5,-260"/>
<text text-anchor="start" x="576.5" y="-278" font-family="Helvetica,sans-Serif" font-size="10.00">ant::analysis::physics</text>
<text text-anchor="middle" x="633" y="-267" font-family="Helvetica,sans-Serif" font-size="10.00">::InterpolatedPulls::Tree_t</text>
</a>
</g>
</g>
<!-- Node5&#45;&gt;Node2 -->
<g id="edge3" class="edge"><title>Node5&#45;&gt;Node2</title>
<path fill="none" stroke="#9a32cd" stroke-dasharray="5,2" d="M671.55,-254.995C717.356,-230.592 793.746,-189.895 834.82,-168.013"/>
<polygon fill="#9a32cd" stroke="#9a32cd" points="669.72,-252.004 662.54,-259.795 673.011,-258.182 669.72,-252.004"/>
<text text-anchor="middle" x="757" y="-228" font-family="Helvetica,sans-Serif" font-size="10.00"> t</text>
</g>
<!-- Node6 -->
<g id="node5" class="node"><title>Node6</title>
<g id="a_node5"><a xlink:href="classant_1_1_wrap_t_tree.html" target="_top" xlink:title="The WrapTTree struct simplifies TTree handling in physics classes. ">
<polygon fill="white" stroke="black" points="348.5,-294.5 348.5,-313.5 433.5,-313.5 433.5,-294.5 348.5,-294.5"/>
<text text-anchor="middle" x="391" y="-301.5" font-family="Helvetica,sans-Serif" font-size="10.00">ant::WrapTTree</text>
</a>
</g>
</g>
<!-- Node6&#45;&gt;Node5 -->
<g id="edge4" class="edge"><title>Node6&#45;&gt;Node5</title>
<path fill="none" stroke="midnightblue" d="M443.489,-297.778C480.063,-293.359 529.406,-287.397 568.436,-282.681"/>
<polygon fill="midnightblue" stroke="midnightblue" points="443.039,-294.307 433.531,-298.982 443.878,-301.257 443.039,-294.307"/>
</g>
<!-- Node7 -->
<g id="node6" class="node"><title>Node7</title>
<g id="a_node6"><a xlink:href="classant_1_1analysis_1_1utils_1_1_kin_fitter.html" target="_top" xlink:title="ant::analysis::utils\l::KinFitter">
<polygon fill="white" stroke="black" points="585,-169 585,-199 681,-199 681,-169 585,-169"/>
<text text-anchor="start" x="593" y="-187" font-family="Helvetica,sans-Serif" font-size="10.00">ant::analysis::utils</text>
<text text-anchor="middle" x="633" y="-176" font-family="Helvetica,sans-Serif" font-size="10.00">::KinFitter</text>
</a>
</g>
</g>
<!-- Node7&#45;&gt;Node2 -->
<g id="edge5" class="edge"><title>Node7&#45;&gt;Node2</title>
<path fill="none" stroke="#9a32cd" stroke-dasharray="5,2" d="M691.417,-176.227C727.058,-171.403 772.615,-165.236 807.828,-160.469"/>
<polygon fill="#9a32cd" stroke="#9a32cd" points="690.611,-172.804 681.171,-177.614 691.55,-179.741 690.611,-172.804"/>
<text text-anchor="middle" x="757" y="-175" font-family="Helvetica,sans-Serif" font-size="10.00"> fitter</text>
</g>
<!-- Node8 -->
<g id="node7" class="node"><title>Node8</title>
<g id="a_node7"><a xlink:href="classant_1_1analysis_1_1utils_1_1_fitter.html" target="_top" xlink:title="ant::analysis::utils\l::Fitter">
<polygon fill="white" stroke="black" points="343,-245 343,-275 439,-275 439,-245 343,-245"/>
<text text-anchor="start" x="351" y="-263" font-family="Helvetica,sans-Serif" font-size="10.00">ant::analysis::utils</text>
<text text-anchor="middle" x="391" y="-252" font-family="Helvetica,sans-Serif" font-size="10.00">::Fitter</text>
</a>
</g>
</g>
<!-- Node8&#45;&gt;Node7 -->
<g id="edge6" class="edge"><title>Node8&#45;&gt;Node7</title>
<path fill="none" stroke="midnightblue" d="M448.84,-244.143C476.982,-236.085 511.401,-225.919 542,-216 558.091,-210.784 575.647,-204.644 590.946,-199.145"/>
<polygon fill="midnightblue" stroke="midnightblue" points="447.821,-240.794 439.164,-246.902 449.74,-247.526 447.821,-240.794"/>
</g>
<!-- Node9 -->
<g id="node8" class="node"><title>Node9</title>
<g id="a_node8"><a xlink:href="structant_1_1analysis_1_1utils_1_1_kin_fitter_1_1_target__t.html" target="_top" xlink:title="ant::analysis::utils\l::KinFitter::Target_t">
<polygon fill="white" stroke="black" points="340.5,-196 340.5,-226 441.5,-226 441.5,-196 340.5,-196"/>
<text text-anchor="start" x="348.5" y="-214" font-family="Helvetica,sans-Serif" font-size="10.00">ant::analysis::utils</text>
<text text-anchor="middle" x="391" y="-203" font-family="Helvetica,sans-Serif" font-size="10.00">::KinFitter::Target_t</text>
</a>
</g>
</g>
<!-- Node9&#45;&gt;Node7 -->
<g id="edge7" class="edge"><title>Node9&#45;&gt;Node7</title>
<path fill="none" stroke="#9a32cd" stroke-dasharray="5,2" d="M451.883,-204.263C492.966,-199.641 546.725,-193.593 584.785,-189.312"/>
<polygon fill="#9a32cd" stroke="#9a32cd" points="451.274,-200.809 441.728,-205.406 452.057,-207.766 451.274,-200.809"/>
<text text-anchor="middle" x="512" y="-204" font-family="Helvetica,sans-Serif" font-size="10.00"> Target</text>
</g>
<!-- Node10 -->
<g id="node9" class="node"><title>Node10</title>
<g id="a_node9"><a xlink:href="structant_1_1analysis_1_1utils_1_1_kin_fitter_1_1_beam_e__t.html" target="_top" xlink:title="ant::analysis::utils\l::KinFitter::BeamE_t">
<polygon fill="white" stroke="black" points="338,-147 338,-177 444,-177 444,-147 338,-147"/>
<text text-anchor="start" x="346" y="-165" font-family="Helvetica,sans-Serif" font-size="10.00">ant::analysis::utils</text>
<text text-anchor="middle" x="391" y="-154" font-family="Helvetica,sans-Serif" font-size="10.00">::KinFitter::BeamE_t</text>
</a>
</g>
</g>
<!-- Node10&#45;&gt;Node7 -->
<g id="edge8" class="edge"><title>Node10&#45;&gt;Node7</title>
<path fill="none" stroke="#9a32cd" stroke-dasharray="5,2" d="M454.185,-167.7C495.002,-171.442 547.545,-176.258 584.906,-179.683"/>
<polygon fill="#9a32cd" stroke="#9a32cd" points="454.354,-164.201 444.076,-166.774 453.715,-171.172 454.354,-164.201"/>
<text text-anchor="middle" x="512" y="-179" font-family="Helvetica,sans-Serif" font-size="10.00"> BeamE</text>
</g>
<!-- Node11 -->
<g id="node10" class="node"><title>Node11</title>
<g id="a_node10"><a xlink:href="structant_1_1analysis_1_1utils_1_1_fitter_1_1_v___s___p__t.html" target="_top" xlink:title="ant::analysis::utils\l::Fitter::V_S_P_t">
<polygon fill="white" stroke="black" points="180,-147 180,-177 276,-177 276,-147 180,-147"/>
<text text-anchor="start" x="188" y="-165" font-family="Helvetica,sans-Serif" font-size="10.00">ant::analysis::utils</text>
<text text-anchor="middle" x="228" y="-154" font-family="Helvetica,sans-Serif" font-size="10.00">::Fitter::V_S_P_t</text>
</a>
</g>
</g>
<!-- Node11&#45;&gt;Node10 -->
<g id="edge9" class="edge"><title>Node11&#45;&gt;Node10</title>
<path fill="none" stroke="midnightblue" d="M286.253,-162C303.075,-162 321.377,-162 337.861,-162"/>
<polygon fill="midnightblue" stroke="midnightblue" points="286.001,-158.5 276.001,-162 286.001,-165.5 286.001,-158.5"/>
</g>
<!-- Node12 -->
<g id="node11" class="node"><title>Node12</title>
<g id="a_node11"><a xlink:href="structant_1_1analysis_1_1utils_1_1_fitter_1_1_v___s__t.html" target="_top" xlink:title="ant::analysis::utils\l::Fitter::V_S_t">
<polygon fill="white" stroke="black" points="0,-147 0,-177 96,-177 96,-147 0,-147"/>
<text text-anchor="start" x="8" y="-165" font-family="Helvetica,sans-Serif" font-size="10.00">ant::analysis::utils</text>
<text text-anchor="middle" x="48" y="-154" font-family="Helvetica,sans-Serif" font-size="10.00">::Fitter::V_S_t</text>
</a>
</g>
</g>
<!-- Node12&#45;&gt;Node11 -->
<g id="edge10" class="edge"><title>Node12&#45;&gt;Node11</title>
<path fill="none" stroke="midnightblue" d="M106.508,-162C130.216,-162 157.348,-162 179.855,-162"/>
<polygon fill="midnightblue" stroke="midnightblue" points="106.233,-158.5 96.2334,-162 106.233,-165.5 106.233,-158.5"/>
</g>
<!-- Node13 -->
<g id="node12" class="node"><title>Node13</title>
<polygon fill="white" stroke="#bfbfbf" points="328.5,-108.5 328.5,-127.5 453.5,-127.5 453.5,-108.5 328.5,-108.5"/>
<text text-anchor="middle" x="391" y="-115.5" font-family="Helvetica,sans-Serif" font-size="10.00">std::vector&lt; FitParticle &gt;</text>
</g>
<!-- Node13&#45;&gt;Node7 -->
<g id="edge11" class="edge"><title>Node13&#45;&gt;Node7</title>
<path fill="none" stroke="#9a32cd" stroke-dasharray="5,2" d="M441.928,-129.939C471.19,-137.113 508.81,-146.64 542,-156 556.174,-159.997 571.506,-164.645 585.43,-168.991"/>
<polygon fill="#9a32cd" stroke="#9a32cd" points="442.492,-126.474 431.948,-127.504 440.833,-133.274 442.492,-126.474"/>
<text text-anchor="middle" x="512" y="-159" font-family="Helvetica,sans-Serif" font-size="10.00"> Photons</text>
</g>
<!-- Node14 -->
<g id="node13" class="node"><title>Node14</title>
<g id="a_node13"><a xlink:href="classant_1_1analysis_1_1utils_1_1_pulls_writer.html" target="_top" xlink:title="ant::analysis::utils\l::PullsWriter\&lt; ant::analysis\l::physics::InterpolatedPulls\l::Tree_t \&gt;">
<polygon fill="white" stroke="black" points="565.5,-98 565.5,-150 700.5,-150 700.5,-98 565.5,-98"/>
<text text-anchor="start" x="573.5" y="-138" font-family="Helvetica,sans-Serif" font-size="10.00">ant::analysis::utils</text>
<text text-anchor="start" x="573.5" y="-127" font-family="Helvetica,sans-Serif" font-size="10.00">::PullsWriter&lt; ant::analysis</text>
<text text-anchor="start" x="573.5" y="-116" font-family="Helvetica,sans-Serif" font-size="10.00">::physics::InterpolatedPulls</text>
<text text-anchor="middle" x="633" y="-105" font-family="Helvetica,sans-Serif" font-size="10.00">::Tree_t &gt;</text>
</a>
</g>
</g>
<!-- Node14&#45;&gt;Node2 -->
<g id="edge12" class="edge"><title>Node14&#45;&gt;Node2</title>
<path fill="none" stroke="#9a32cd" stroke-dasharray="5,2" d="M710.709,-133.714C742.536,-137.745 778.752,-142.331 807.879,-146.02"/>
<polygon fill="#9a32cd" stroke="#9a32cd" points="710.904,-130.211 700.544,-132.427 710.025,-137.156 710.904,-130.211"/>
<text text-anchor="middle" x="757" y="-147" font-family="Helvetica,sans-Serif" font-size="10.00"> pullswriter</text>
</g>
<!-- Node15 -->
<g id="node14" class="node"><title>Node15</title>
<g id="a_node14"><a xlink:href="structant_1_1analysis_1_1utils_1_1_pulls_writer_1_1_pull_tree__t.html" target="_top" xlink:title="ant::analysis::utils\l::PullsWriter\&lt; AddWrapTTree\l \&gt;::PullTree_t">
<polygon fill="white" stroke="black" points="318,-48.5 318,-89.5 464,-89.5 464,-48.5 318,-48.5"/>
<text text-anchor="start" x="326" y="-77.5" font-family="Helvetica,sans-Serif" font-size="10.00">ant::analysis::utils</text>
<text text-anchor="start" x="326" y="-66.5" font-family="Helvetica,sans-Serif" font-size="10.00">::PullsWriter&lt; AddWrapTTree</text>
<text text-anchor="middle" x="391" y="-55.5" font-family="Helvetica,sans-Serif" font-size="10.00"> &gt;::PullTree_t</text>
</a>
</g>
</g>
<!-- Node15&#45;&gt;Node14 -->
<g id="edge13" class="edge"><title>Node15&#45;&gt;Node14</title>
<path fill="none" stroke="#9a32cd" stroke-dasharray="5,2" d="M474.355,-58.3049C496.993,-58.3347 521.06,-61.2446 542,-70 552.438,-74.3644 550.822,-81.3848 560,-88 564.762,-91.4321 569.899,-94.707 575.16,-97.7839"/>
<polygon fill="#9a32cd" stroke="#9a32cd" points="474.008,-54.8103 464.07,-58.4832 474.13,-61.8092 474.008,-54.8103"/>
<text text-anchor="middle" x="512" y="-106" font-family="Helvetica,sans-Serif" font-size="10.00"> proton_cb</text>
<text text-anchor="middle" x="512" y="-95" font-family="Helvetica,sans-Serif" font-size="10.00">proton_taps</text>
<text text-anchor="middle" x="512" y="-84" font-family="Helvetica,sans-Serif" font-size="10.00">photons_taps</text>
<text text-anchor="middle" x="512" y="-73" font-family="Helvetica,sans-Serif" font-size="10.00">photons_cb</text>
</g>
<!-- Node16 -->
<g id="node15" class="node"><title>Node16</title>
<polygon fill="white" stroke="#bfbfbf" points="186.5,-59.5 186.5,-78.5 269.5,-78.5 269.5,-59.5 186.5,-59.5"/>
<text text-anchor="middle" x="228" y="-66.5" font-family="Helvetica,sans-Serif" font-size="10.00">AddWrapTTree</text>
</g>
<!-- Node16&#45;&gt;Node15 -->
<g id="edge14" class="edge"><title>Node16&#45;&gt;Node15</title>
<path fill="none" stroke="midnightblue" d="M279.897,-69C291.92,-69 304.967,-69 317.734,-69"/>
<polygon fill="midnightblue" stroke="midnightblue" points="279.627,-65.5001 269.627,-69 279.627,-72.5001 279.627,-65.5001"/>
</g>
<!-- Node17 -->
<g id="node16" class="node"><title>Node17</title>
<g id="a_node16"><a xlink:href="classant_1_1analysis_1_1_prompt_random_1_1_switch.html" target="_top" xlink:title="ant::analysis::PromptRandom\l::Switch">
<polygon fill="white" stroke="black" points="560,-49 560,-79 706,-79 706,-49 560,-49"/>
<text text-anchor="start" x="568" y="-67" font-family="Helvetica,sans-Serif" font-size="10.00">ant::analysis::PromptRandom</text>
<text text-anchor="middle" x="633" y="-56" font-family="Helvetica,sans-Serif" font-size="10.00">::Switch</text>
</a>
</g>
</g>
<!-- Node17&#45;&gt;Node2 -->
<g id="edge15" class="edge"><title>Node17&#45;&gt;Node2</title>
<path fill="none" stroke="#9a32cd" stroke-dasharray="5,2" d="M689.965,-82.3341C695.397,-84.2099 700.813,-86.1182 706,-88 743.706,-101.68 752.958,-105.612 790,-121 802.907,-126.362 816.992,-132.474 829.317,-137.909"/>
<polygon fill="#9a32cd" stroke="#9a32cd" points="690.811,-78.9246 680.216,-79.0054 688.549,-85.549 690.811,-78.9246"/>
<text text-anchor="middle" x="757" y="-124" font-family="Helvetica,sans-Serif" font-size="10.00"> promptrandom</text>
</g>
<!-- Node18 -->
<g id="node17" class="node"><title>Node18</title>
<g id="a_node17"><a xlink:href="classant_1_1_piecewise_interval.html" target="_top" xlink:title="ant::PiecewiseInterval\l\&lt; double \&gt;">
<polygon fill="white" stroke="black" points="334.5,-0 334.5,-30 447.5,-30 447.5,-0 334.5,-0"/>
<text text-anchor="start" x="342.5" y="-18" font-family="Helvetica,sans-Serif" font-size="10.00">ant::PiecewiseInterval</text>
<text text-anchor="middle" x="391" y="-7" font-family="Helvetica,sans-Serif" font-size="10.00">&lt; double &gt;</text>
</a>
</g>
</g>
<!-- Node18&#45;&gt;Node17 -->
<g id="edge16" class="edge"><title>Node18&#45;&gt;Node17</title>
<path fill="none" stroke="#9a32cd" stroke-dasharray="5,2" d="M457.888,-11.1028C484.742,-11.6119 515.614,-14.9533 542,-25 551.472,-28.6063 551.094,-34.1623 560,-39 566.86,-42.7265 574.382,-46.0633 581.897,-48.9919"/>
<polygon fill="#9a32cd" stroke="#9a32cd" points="457.832,-7.60248 447.81,-11.0383 457.788,-14.6023 457.832,-7.60248"/>
<text text-anchor="middle" x="512" y="-39" font-family="Helvetica,sans-Serif" font-size="10.00"> promptw</text>
<text text-anchor="middle" x="512" y="-28" font-family="Helvetica,sans-Serif" font-size="10.00">randomw</text>
</g>
<!-- Node19 -->
<g id="node18" class="node"><title>Node19</title>
<g id="a_node18"><a xlink:title="STL class. ">
<polygon fill="white" stroke="#bfbfbf" points="176,-0 176,-30 280,-30 280,-0 176,-0"/>
<text text-anchor="start" x="184" y="-18" font-family="Helvetica,sans-Serif" font-size="10.00">std::vector&lt; interval</text>
<text text-anchor="middle" x="228" y="-7" font-family="Helvetica,sans-Serif" font-size="10.00">&lt; double &gt; &gt;</text>
</a>
</g>
</g>
<!-- Node19&#45;&gt;Node18 -->
<g id="edge17" class="edge"><title>Node19&#45;&gt;Node18</title>
<path fill="none" stroke="midnightblue" d="M290.674,-15C305.05,-15 320.275,-15 334.372,-15"/>
<polygon fill="midnightblue" stroke="midnightblue" points="290.384,-11.5001 280.384,-15 290.384,-18.5001 290.384,-11.5001"/>
</g>
<!-- Node20 -->
<g id="node19" class="node"><title>Node20</title>
<polygon fill="white" stroke="#bfbfbf" points="33.5,-5.5 33.5,-24.5 62.5,-24.5 62.5,-5.5 33.5,-5.5"/>
<text text-anchor="middle" x="48" y="-12.5" font-family="Helvetica,sans-Serif" font-size="10.00">T</text>
</g>
<!-- Node20&#45;&gt;Node19 -->
<g id="edge18" class="edge"><title>Node20&#45;&gt;Node19</title>
<path fill="none" stroke="#9a32cd" stroke-dasharray="5,2" d="M72.7849,-15C98.9344,-15 141.733,-15 175.617,-15"/>
<polygon fill="#9a32cd" stroke="#9a32cd" points="72.6718,-11.5001 62.6718,-15 72.6718,-18.5001 72.6718,-11.5001"/>
<text text-anchor="middle" x="136" y="-18" font-family="Helvetica,sans-Serif" font-size="10.00"> elements</text>
</g>
<!-- Node21 -->
<g id="node20" class="node"><title>Node21</title>
<g id="a_node20"><a xlink:href="classant_1_1analysis_1_1utils_1_1_trigger_simulation.html" target="_top" xlink:title="ant::analysis::utils\l::TriggerSimulation">
<polygon fill="white" stroke="black" points="584,-0 584,-30 682,-30 682,-0 584,-0"/>
<text text-anchor="start" x="592" y="-18" font-family="Helvetica,sans-Serif" font-size="10.00">ant::analysis::utils</text>
<text text-anchor="middle" x="633" y="-7" font-family="Helvetica,sans-Serif" font-size="10.00">::TriggerSimulation</text>
</a>
</g>
</g>
<!-- Node21&#45;&gt;Node2 -->
<g id="edge19" class="edge"><title>Node21&#45;&gt;Node2</title>
<path fill="none" stroke="#9a32cd" stroke-dasharray="5,2" d="M692.106,-33.5717C696.837,-35.3252 701.519,-37.1438 706,-39 744.563,-54.9732 756.055,-56.7111 790,-81 813.452,-97.7807 836.456,-122.156 850.187,-137.794"/>
<polygon fill="#9a32cd" stroke="#9a32cd" points="692.968,-30.1621 682.373,-30.0727 690.6,-36.7494 692.968,-30.1621"/>
<text text-anchor="middle" x="757" y="-84" font-family="Helvetica,sans-Serif" font-size="10.00"> triggersimu</text>
</g>
</g>
</svg>
