<?xml version="1.0" encoding="UTF-8" standalone="no"?>
<!DOCTYPE svg PUBLIC "-//W3C//DTD SVG 1.1//EN"
 "http://www.w3.org/Graphics/SVG/1.1/DTD/svg11.dtd">
<!-- Generated by graphviz version 2.36.0 (20140111.2315)
 -->
<!-- Title: ant::UnpackerA2GeantConfig Pages: 1 -->
<svg width="690pt" height="518pt"
 viewBox="0.00 0.00 690.00 518.00" xmlns="http://www.w3.org/2000/svg" xmlns:xlink="http://www.w3.org/1999/xlink">
<g id="graph0" class="graph" transform="scale(1 1) rotate(0) translate(4 514)">
<title>ant::UnpackerA2GeantConfig</title>
<polygon fill="white" stroke="none" points="-4,4 -4,-514 686,-514 686,4 -4,4"/>
<!-- Node0 -->
<g id="node1" class="node"><title>Node0</title>
<polygon fill="#bfbfbf" stroke="black" points="0.5,-215.5 0.5,-234.5 145.5,-234.5 145.5,-215.5 0.5,-215.5"/>
<text text-anchor="middle" x="73" y="-222.5" font-family="Helvetica,sans-Serif" font-size="10.00">ant::UnpackerA2GeantConfig</text>
</g>
<!-- Node1 -->
<g id="node2" class="node"><title>Node1</title>
<g id="a_node2"><a xlink:href="classant_1_1expconfig_1_1_setup.html" target="_top" xlink:title="The Setup class serves as a base class for all known beamtime setup configurations. ">
<polygon fill="white" stroke="black" points="182,-215.5 182,-234.5 292,-234.5 292,-215.5 182,-215.5"/>
<text text-anchor="middle" x="237" y="-222.5" font-family="Helvetica,sans-Serif" font-size="10.00">ant::expconfig::Setup</text>
</a>
</g>
</g>
<!-- Node0&#45;&gt;Node1 -->
<g id="edge1" class="edge"><title>Node0&#45;&gt;Node1</title>
<path fill="none" stroke="midnightblue" d="M155.582,-225C164.504,-225 173.417,-225 181.887,-225"/>
<polygon fill="midnightblue" stroke="midnightblue" points="155.527,-221.5 145.527,-225 155.527,-228.5 155.527,-221.5"/>
</g>
<!-- Node2 -->
<g id="node3" class="node"><title>Node2</title>
<g id="a_node3"><a xlink:href="classant_1_1expconfig_1_1setup_1_1_setup__2007___base.html" target="_top" xlink:title="Common base class for all Setups of the 2014 Ent Point Tagger beam times. ">
<polygon fill="white" stroke="black" points="363,-431 363,-461 471,-461 471,-431 363,-431"/>
<text text-anchor="start" x="371" y="-449" font-family="Helvetica,sans-Serif" font-size="10.00">ant::expconfig::setup</text>
<text text-anchor="middle" x="417" y="-438" font-family="Helvetica,sans-Serif" font-size="10.00">::Setup_2007_Base</text>
</a>
</g>
</g>
<!-- Node1&#45;&gt;Node2 -->
<g id="edge2" class="edge"><title>Node1&#45;&gt;Node2</title>
<path fill="none" stroke="midnightblue" d="M241.428,-244.872C249.314,-284.46 272.505,-373.439 328,-421 337.768,-429.372 350.165,-434.948 362.549,-438.661"/>
<polygon fill="midnightblue" stroke="midnightblue" points="244.839,-244.071 239.56,-234.885 237.959,-245.358 244.839,-244.071"/>
</g>
<!-- Node5 -->
<g id="node6" class="node"><title>Node5</title>
<g id="a_node6"><a xlink:href="classant_1_1expconfig_1_1setup_1_1_setup__2010__03___base.html" target="_top" xlink:title="ant::expconfig::setup\l::Setup_2010_03_Base">
<polygon fill="white" stroke="black" points="358,-382 358,-412 476,-412 476,-382 358,-382"/>
<text text-anchor="start" x="366" y="-400" font-family="Helvetica,sans-Serif" font-size="10.00">ant::expconfig::setup</text>
<text text-anchor="middle" x="417" y="-389" font-family="Helvetica,sans-Serif" font-size="10.00">::Setup_2010_03_Base</text>
</a>
</g>
</g>
<!-- Node1&#45;&gt;Node5 -->
<g id="edge5" class="edge"><title>Node1&#45;&gt;Node5</title>
<path fill="none" stroke="midnightblue" d="M244.55,-244.384C256.223,-275.958 283.646,-338.344 328,-372 336.73,-378.624 347.147,-383.494 357.707,-387.073"/>
<polygon fill="midnightblue" stroke="midnightblue" points="247.72,-242.851 241.076,-234.598 241.123,-245.192 247.72,-242.851"/>
</g>
<!-- Node7 -->
<g id="node8" class="node"><title>Node7</title>
<g id="a_node8"><a xlink:href="classant_1_1expconfig_1_1setup_1_1_setup__2012__12___compton.html" target="_top" xlink:title="ant::expconfig::setup\l::Setup_2012_12_Compton">
<polygon fill="white" stroke="black" points="349.5,-333 349.5,-363 484.5,-363 484.5,-333 349.5,-333"/>
<text text-anchor="start" x="357.5" y="-351" font-family="Helvetica,sans-Serif" font-size="10.00">ant::expconfig::setup</text>
<text text-anchor="middle" x="417" y="-340" font-family="Helvetica,sans-Serif" font-size="10.00">::Setup_2012_12_Compton</text>
</a>
</g>
</g>
<!-- Node1&#45;&gt;Node7 -->
<g id="edge7" class="edge"><title>Node1&#45;&gt;Node7</title>
<path fill="none" stroke="midnightblue" d="M249.92,-243.189C265.345,-265.296 294.275,-302.213 328,-323 334.625,-327.083 341.938,-330.52 349.433,-333.407"/>
<polygon fill="midnightblue" stroke="midnightblue" points="252.676,-241.017 244.162,-234.712 246.886,-244.95 252.676,-241.017"/>
</g>
<!-- Node8 -->
<g id="node9" class="node"><title>Node8</title>
<g id="a_node9"><a xlink:href="classant_1_1expconfig_1_1setup_1_1_setup__2014___e_p_t.html" target="_top" xlink:title="Common base class for all Setups of the 2014 Ent Point Tagger beam times. ">
<polygon fill="white" stroke="black" points="363,-284 363,-314 471,-314 471,-284 363,-284"/>
<text text-anchor="start" x="371" y="-302" font-family="Helvetica,sans-Serif" font-size="10.00">ant::expconfig::setup</text>
<text text-anchor="middle" x="417" y="-291" font-family="Helvetica,sans-Serif" font-size="10.00">::Setup_2014_EPT</text>
</a>
</g>
</g>
<!-- Node1&#45;&gt;Node8 -->
<g id="edge8" class="edge"><title>Node1&#45;&gt;Node8</title>
<path fill="none" stroke="midnightblue" d="M261.654,-239.768C279.404,-250.376 304.577,-264.435 328,-274 339.028,-278.503 351.147,-282.514 362.772,-285.933"/>
<polygon fill="midnightblue" stroke="midnightblue" points="263.462,-236.771 253.097,-234.577 259.831,-242.756 263.462,-236.771"/>
</g>
<!-- Node12 -->
<g id="node13" class="node"><title>Node12</title>
<g id="a_node13"><a xlink:href="classant_1_1expconfig_1_1setup_1_1_setup__2015__01___pion.html" target="_top" xlink:title="Ant Setup for Rare Pion Test Beamtime in January 2015 &amp; MC studies. ">
<polygon fill="white" stroke="black" points="359.5,-235 359.5,-265 474.5,-265 474.5,-235 359.5,-235"/>
<text text-anchor="start" x="367.5" y="-253" font-family="Helvetica,sans-Serif" font-size="10.00">ant::expconfig::setup</text>
<text text-anchor="middle" x="417" y="-242" font-family="Helvetica,sans-Serif" font-size="10.00">::Setup_2015_01_Pion</text>
</a>
</g>
</g>
<!-- Node1&#45;&gt;Node12 -->
<g id="edge12" class="edge"><title>Node1&#45;&gt;Node12</title>
<path fill="none" stroke="midnightblue" d="M302.288,-234.029C321.003,-236.658 341.3,-239.508 359.496,-242.064"/>
<polygon fill="midnightblue" stroke="midnightblue" points="302.763,-230.562 292.373,-232.637 301.789,-237.494 302.763,-230.562"/>
</g>
<!-- Node13 -->
<g id="node14" class="node"><title>Node13</title>
<g id="a_node14"><a xlink:href="classant_1_1expconfig_1_1setup_1_1_setup__2017__03.html" target="_top" xlink:title="Common base class for all Setups of the 2014 Ent Point Tagger beam times. ">
<polygon fill="white" stroke="black" points="363,-186 363,-216 471,-216 471,-186 363,-186"/>
<text text-anchor="start" x="371" y="-204" font-family="Helvetica,sans-Serif" font-size="10.00">ant::expconfig::setup</text>
<text text-anchor="middle" x="417" y="-193" font-family="Helvetica,sans-Serif" font-size="10.00">::Setup_2017_03</text>
</a>
</g>
</g>
<!-- Node1&#45;&gt;Node13 -->
<g id="edge13" class="edge"><title>Node1&#45;&gt;Node13</title>
<path fill="none" stroke="midnightblue" d="M302.55,-216.297C322.36,-213.626 343.922,-210.718 362.877,-208.163"/>
<polygon fill="midnightblue" stroke="midnightblue" points="301.816,-212.864 292.373,-217.669 302.751,-219.801 301.816,-212.864"/>
</g>
<!-- Node14 -->
<g id="node15" class="node"><title>Node14</title>
<g id="a_node15"><a xlink:href="classant_1_1expconfig_1_1setup_1_1_setup__2017__05.html" target="_top" xlink:title="Common base class for all Setups of the 2014 Ent Point Tagger beam times. ">
<polygon fill="white" stroke="black" points="363,-137 363,-167 471,-167 471,-137 363,-137"/>
<text text-anchor="start" x="371" y="-155" font-family="Helvetica,sans-Serif" font-size="10.00">ant::expconfig::setup</text>
<text text-anchor="middle" x="417" y="-144" font-family="Helvetica,sans-Serif" font-size="10.00">::Setup_2017_05</text>
</a>
</g>
</g>
<!-- Node1&#45;&gt;Node14 -->
<g id="edge14" class="edge"><title>Node1&#45;&gt;Node14</title>
<path fill="none" stroke="midnightblue" d="M262.504,-210.091C280.225,-199.772 304.998,-186.278 328,-177 339.047,-172.544 351.174,-168.554 362.801,-165.138"/>
<polygon fill="midnightblue" stroke="midnightblue" points="260.267,-207.348 253.441,-215.451 263.83,-213.373 260.267,-207.348"/>
</g>
<!-- Node15 -->
<g id="node16" class="node"><title>Node15</title>
<g id="a_node16"><a xlink:href="classant_1_1expconfig_1_1setup_1_1_setup__2017_plus___new_tagger___base.html" target="_top" xlink:title="Common base class for all Setups starting end of 2017 using the new Tagger. ">
<polygon fill="white" stroke="black" points="328.5,-88 328.5,-118 505.5,-118 505.5,-88 328.5,-88"/>
<text text-anchor="start" x="336.5" y="-106" font-family="Helvetica,sans-Serif" font-size="10.00">ant::expconfig::setup</text>
<text text-anchor="middle" x="417" y="-95" font-family="Helvetica,sans-Serif" font-size="10.00">::Setup_2017Plus_NewTagger_Base</text>
</a>
</g>
</g>
<!-- Node1&#45;&gt;Node15 -->
<g id="edge15" class="edge"><title>Node1&#45;&gt;Node15</title>
<path fill="none" stroke="midnightblue" d="M249.964,-207.001C265.433,-185.123 294.408,-148.586 328,-128 334.229,-124.183 341.061,-120.93 348.078,-118.162"/>
<polygon fill="midnightblue" stroke="midnightblue" points="246.976,-205.168 244.188,-215.39 252.742,-209.138 246.976,-205.168"/>
</g>
<!-- Node18 -->
<g id="node19" class="node"><title>Node18</title>
<g id="a_node19"><a xlink:href="classant_1_1expconfig_1_1setup_1_1_setup___c_b_source_calib.html" target="_top" xlink:title="ant::expconfig::setup\l::Setup_CBSourceCalib">
<polygon fill="white" stroke="black" points="356.5,-39 356.5,-69 477.5,-69 477.5,-39 356.5,-39"/>
<text text-anchor="start" x="364.5" y="-57" font-family="Helvetica,sans-Serif" font-size="10.00">ant::expconfig::setup</text>
<text text-anchor="middle" x="417" y="-46" font-family="Helvetica,sans-Serif" font-size="10.00">::Setup_CBSourceCalib</text>
</a>
</g>
</g>
<!-- Node1&#45;&gt;Node18 -->
<g id="edge18" class="edge"><title>Node1&#45;&gt;Node18</title>
<path fill="none" stroke="midnightblue" d="M244.588,-205.747C256.315,-174.386 283.814,-112.422 328,-79 336.36,-72.6764 346.259,-67.9517 356.347,-64.4218"/>
<polygon fill="midnightblue" stroke="midnightblue" points="241.183,-204.873 241.096,-215.467 247.771,-207.239 241.183,-204.873"/>
</g>
<!-- Node19 -->
<g id="node20" class="node"><title>Node19</title>
<g id="a_node20"><a xlink:href="struct_fake_setup.html" target="_top" xlink:title="Empty fake setup that always matches. Used in case no real setup exists. ">
<polygon fill="white" stroke="black" points="385,-0.5 385,-19.5 449,-19.5 449,-0.5 385,-0.5"/>
<text text-anchor="middle" x="417" y="-7.5" font-family="Helvetica,sans-Serif" font-size="10.00">FakeSetup</text>
</a>
</g>
</g>
<!-- Node1&#45;&gt;Node19 -->
<g id="edge19" class="edge"><title>Node1&#45;&gt;Node19</title>
<path fill="none" stroke="midnightblue" d="M241.145,-205.53C248.603,-165.965 271.187,-76.0298 328,-30 343.947,-17.0796 366.617,-12.1453 384.953,-10.4071"/>
<polygon fill="midnightblue" stroke="midnightblue" points="237.68,-205.025 239.393,-215.48 244.574,-206.239 237.68,-205.025"/>
</g>
<!-- Node3 -->
<g id="node4" class="node"><title>Node3</title>
<g id="a_node4"><a xlink:href="classant_1_1expconfig_1_1setup_1_1_setup__2007__06.html" target="_top" xlink:title="Ant Setup for the Juni 2007 beam time. ">
<polygon fill="white" stroke="black" points="558,-480 558,-510 666,-510 666,-480 558,-480"/>
<text text-anchor="start" x="566" y="-498" font-family="Helvetica,sans-Serif" font-size="10.00">ant::expconfig::setup</text>
<text text-anchor="middle" x="612" y="-487" font-family="Helvetica,sans-Serif" font-size="10.00">::Setup_2007_06</text>
</a>
</g>
</g>
<!-- Node2&#45;&gt;Node3 -->
<g id="edge3" class="edge"><title>Node2&#45;&gt;Node3</title>
<path fill="none" stroke="midnightblue" d="M480.958,-461.984C505.835,-468.3 534.109,-475.479 557.925,-481.525"/>
<polygon fill="midnightblue" stroke="midnightblue" points="481.803,-458.588 471.249,-459.519 480.08,-465.372 481.803,-458.588"/>
</g>
<!-- Node4 -->
<g id="node5" class="node"><title>Node4</title>
<g id="a_node5"><a xlink:href="classant_1_1expconfig_1_1setup_1_1_setup__2007__07.html" target="_top" xlink:title="Ant Setup for the July 2007 beam time. ">
<polygon fill="white" stroke="black" points="558,-431 558,-461 666,-461 666,-431 558,-431"/>
<text text-anchor="start" x="566" y="-449" font-family="Helvetica,sans-Serif" font-size="10.00">ant::expconfig::setup</text>
<text text-anchor="middle" x="612" y="-438" font-family="Helvetica,sans-Serif" font-size="10.00">::Setup_2007_07</text>
</a>
</g>
</g>
<!-- Node2&#45;&gt;Node4 -->
<g id="edge4" class="edge"><title>Node2&#45;&gt;Node4</title>
<path fill="none" stroke="midnightblue" d="M481.288,-446C506.085,-446 534.215,-446 557.925,-446"/>
<polygon fill="midnightblue" stroke="midnightblue" points="481.249,-442.5 471.249,-446 481.249,-449.5 481.249,-442.5"/>
</g>
<!-- Node6 -->
<g id="node7" class="node"><title>Node6</title>
<g id="a_node7"><a xlink:href="classant_1_1expconfig_1_1setup_1_1_setup__2010__09___compton.html" target="_top" xlink:title="Ant Setup for the September 2010 beam time. ">
<polygon fill="white" stroke="black" points="544.5,-382 544.5,-412 679.5,-412 679.5,-382 544.5,-382"/>
<text text-anchor="start" x="552.5" y="-400" font-family="Helvetica,sans-Serif" font-size="10.00">ant::expconfig::setup</text>
<text text-anchor="middle" x="612" y="-389" font-family="Helvetica,sans-Serif" font-size="10.00">::Setup_2010_09_Compton</text>
</a>
</g>
</g>
<!-- Node5&#45;&gt;Node6 -->
<g id="edge6" class="edge"><title>Node5&#45;&gt;Node6</title>
<path fill="none" stroke="midnightblue" d="M486.202,-397C505.133,-397 525.658,-397 544.491,-397"/>
<polygon fill="midnightblue" stroke="midnightblue" points="486.168,-393.5 476.168,-397 486.168,-400.5 486.168,-393.5"/>
</g>
<!-- Node9 -->
<g id="node10" class="node"><title>Node9</title>
<g id="a_node10"><a xlink:href="classant_1_1expconfig_1_1setup_1_1_setup__2014__07___e_p_t___prod.html" target="_top" xlink:title="Ant Setup for the July 2014 End Point Tagger beam time. ">
<polygon fill="white" stroke="black" points="542,-333 542,-363 682,-363 682,-333 542,-333"/>
<text text-anchor="start" x="550" y="-351" font-family="Helvetica,sans-Serif" font-size="10.00">ant::expconfig::setup</text>
<text text-anchor="middle" x="612" y="-340" font-family="Helvetica,sans-Serif" font-size="10.00">::Setup_2014_07_EPT_Prod</text>
</a>
</g>
</g>
<!-- Node8&#45;&gt;Node9 -->
<g id="edge9" class="edge"><title>Node8&#45;&gt;Node9</title>
<path fill="none" stroke="midnightblue" d="M481.138,-315.03C503.874,-320.802 529.428,-327.29 551.815,-332.974"/>
<polygon fill="midnightblue" stroke="midnightblue" points="481.803,-311.588 471.249,-312.519 480.08,-318.372 481.803,-311.588"/>
</g>
<!-- Node10 -->
<g id="node11" class="node"><title>Node10</title>
<g id="a_node11"><a xlink:href="classant_1_1expconfig_1_1setup_1_1_setup__2014__10___e_p_t___prod.html" target="_top" xlink:title="Ant Setup for the October 2014 End Point Tagger beam time. ">
<polygon fill="white" stroke="black" points="542,-284 542,-314 682,-314 682,-284 542,-284"/>
<text text-anchor="start" x="550" y="-302" font-family="Helvetica,sans-Serif" font-size="10.00">ant::expconfig::setup</text>
<text text-anchor="middle" x="612" y="-291" font-family="Helvetica,sans-Serif" font-size="10.00">::Setup_2014_10_EPT_Prod</text>
</a>
</g>
</g>
<!-- Node8&#45;&gt;Node10 -->
<g id="edge10" class="edge"><title>Node8&#45;&gt;Node10</title>
<path fill="none" stroke="midnightblue" d="M481.482,-299C500.865,-299 522.269,-299 542,-299"/>
<polygon fill="midnightblue" stroke="midnightblue" points="481.249,-295.5 471.249,-299 481.249,-302.5 481.249,-295.5"/>
</g>
<!-- Node11 -->
<g id="node12" class="node"><title>Node11</title>
<g id="a_node12"><a xlink:href="classant_1_1expconfig_1_1setup_1_1_setup__2014__12___e_p_t___prod.html" target="_top" xlink:title="Ant Setup for the December 2014 End Point Tagger beam time. ">
<polygon fill="white" stroke="black" points="542,-235 542,-265 682,-265 682,-235 542,-235"/>
<text text-anchor="start" x="550" y="-253" font-family="Helvetica,sans-Serif" font-size="10.00">ant::expconfig::setup</text>
<text text-anchor="middle" x="612" y="-242" font-family="Helvetica,sans-Serif" font-size="10.00">::Setup_2014_12_EPT_Prod</text>
</a>
</g>
</g>
<!-- Node8&#45;&gt;Node11 -->
<g id="edge11" class="edge"><title>Node8&#45;&gt;Node11</title>
<path fill="none" stroke="midnightblue" d="M481.138,-282.97C503.874,-277.198 529.428,-270.71 551.815,-265.026"/>
<polygon fill="midnightblue" stroke="midnightblue" points="480.08,-279.628 471.249,-285.481 481.803,-286.412 480.08,-279.628"/>
</g>
<!-- Node16 -->
<g id="node17" class="node"><title>Node16</title>
<g id="a_node17"><a xlink:href="classant_1_1expconfig_1_1setup_1_1_setup__2017__12.html" target="_top" xlink:title="Ant Setup for the December 2017 beamtime using the new Tagger. ">
<polygon fill="white" stroke="black" points="558,-112 558,-142 666,-142 666,-112 558,-112"/>
<text text-anchor="start" x="566" y="-130" font-family="Helvetica,sans-Serif" font-size="10.00">ant::expconfig::setup</text>
<text text-anchor="middle" x="612" y="-119" font-family="Helvetica,sans-Serif" font-size="10.00">::Setup_2017_12</text>
</a>
</g>
</g>
<!-- Node15&#45;&gt;Node16 -->
<g id="edge16" class="edge"><title>Node15&#45;&gt;Node16</title>
<path fill="none" stroke="midnightblue" d="M515.799,-115.162C530.333,-116.969 544.829,-118.771 557.965,-120.405"/>
<polygon fill="midnightblue" stroke="midnightblue" points="516.102,-111.672 505.747,-113.911 515.238,-118.619 516.102,-111.672"/>
</g>
<!-- Node17 -->
<g id="node18" class="node"><title>Node17</title>
<g id="a_node18"><a xlink:href="classant_1_1expconfig_1_1setup_1_1_setup__2018__03.html" target="_top" xlink:title="Ant Setup for the March 2018 beamtime using the new Tagger. ">
<polygon fill="white" stroke="black" points="558,-63 558,-93 666,-93 666,-63 558,-63"/>
<text text-anchor="start" x="566" y="-81" font-family="Helvetica,sans-Serif" font-size="10.00">ant::expconfig::setup</text>
<text text-anchor="middle" x="612" y="-70" font-family="Helvetica,sans-Serif" font-size="10.00">::Setup_2018_03</text>
</a>
</g>
</g>
<!-- Node15&#45;&gt;Node17 -->
<g id="edge17" class="edge"><title>Node15&#45;&gt;Node17</title>
<path fill="none" stroke="midnightblue" d="M515.799,-90.3317C530.333,-88.449 544.829,-86.5714 557.965,-84.8698"/>
<polygon fill="midnightblue" stroke="midnightblue" points="515.214,-86.8782 505.747,-91.6339 516.113,-93.8202 515.214,-86.8782"/>
</g>
</g>
</svg>
