<?xml version="1.0" encoding="UTF-8" standalone="no"?>
<!DOCTYPE svg PUBLIC "-//W3C//DTD SVG 1.1//EN"
 "http://www.w3.org/Graphics/SVG/1.1/DTD/svg11.dtd">
<!-- Generated by graphviz version 2.36.0 (20140111.2315)
 -->
<!-- Title: ant::analysis::physics::JustPi0 Pages: 1 -->
<svg width="2210pt" height="481pt"
 viewBox="0.00 0.00 2210.00 481.00" xmlns="http://www.w3.org/2000/svg" xmlns:xlink="http://www.w3.org/1999/xlink">
<g id="graph0" class="graph" transform="scale(1 1) rotate(0) translate(4 477)">
<title>ant::analysis::physics::JustPi0</title>
<polygon fill="white" stroke="none" points="-4,4 -4,-477 2206,-477 2206,4 -4,4"/>
<!-- Node2 -->
<g id="node1" class="node"><title>Node2</title>
<polygon fill="#bfbfbf" stroke="black" points="2090,-168 2090,-198 2202,-198 2202,-168 2090,-168"/>
<text text-anchor="start" x="2098" y="-186" font-family="Helvetica,sans-Serif" font-size="10.00">ant::analysis::physics</text>
<text text-anchor="middle" x="2146" y="-175" font-family="Helvetica,sans-Serif" font-size="10.00">::JustPi0</text>
</g>
<!-- Node3 -->
<g id="node2" class="node"><title>Node3</title>
<g id="a_node2"><a xlink:href="classant_1_1analysis_1_1_physics.html" target="_top" xlink:title="ant::analysis::Physics">
<polygon fill="white" stroke="black" points="1560.5,-393.5 1560.5,-412.5 1673.5,-412.5 1673.5,-393.5 1560.5,-393.5"/>
<text text-anchor="middle" x="1617" y="-400.5" font-family="Helvetica,sans-Serif" font-size="10.00">ant::analysis::Physics</text>
</a>
</g>
</g>
<!-- Node3&#45;&gt;Node2 -->
<g id="edge1" class="edge"><title>Node3&#45;&gt;Node2</title>
<path fill="none" stroke="midnightblue" d="M1650.46,-389.451C1743.64,-350.549 2011.56,-238.707 2109.01,-198.025"/>
<polygon fill="midnightblue" stroke="midnightblue" points="1648.86,-386.323 1640.98,-393.405 1651.56,-392.783 1648.86,-386.323"/>
</g>
<!-- Node4 -->
<g id="node3" class="node"><title>Node4</title>
<g id="a_node3"><a xlink:href="classant_1_1analysis_1_1_histogram_factory.html" target="_top" xlink:title="ant::analysis::Histogram\lFactory">
<polygon fill="white" stroke="black" points="1181.5,-418 1181.5,-448 1304.5,-448 1304.5,-418 1181.5,-418"/>
<text text-anchor="start" x="1189.5" y="-436" font-family="Helvetica,sans-Serif" font-size="10.00">ant::analysis::Histogram</text>
<text text-anchor="middle" x="1243" y="-425" font-family="Helvetica,sans-Serif" font-size="10.00">Factory</text>
</a>
</g>
</g>
<!-- Node4&#45;&gt;Node3 -->
<g id="edge2" class="edge"><title>Node4&#45;&gt;Node3</title>
<path fill="none" stroke="#9a32cd" stroke-dasharray="5,2" d="M1315.04,-428.782C1344.98,-426.892 1380.2,-424.521 1412,-422 1462.17,-418.022 1519.21,-412.636 1560.19,-408.615"/>
<polygon fill="#9a32cd" stroke="#9a32cd" points="1314.44,-425.313 1304.68,-429.43 1314.88,-432.299 1314.44,-425.313"/>
<text text-anchor="middle" x="1376" y="-429" font-family="Helvetica,sans-Serif" font-size="10.00"> HistFac</text>
</g>
<!-- Node7 -->
<g id="node6" class="node"><title>Node7</title>
<g id="a_node6"><a xlink:href="structant_1_1analysis_1_1physics_1_1_just_pi0_1_1_multi_pi0.html" target="_top" xlink:title="ant::analysis::physics\l::JustPi0::MultiPi0">
<polygon fill="white" stroke="black" points="1430,-168 1430,-198 1542,-198 1542,-168 1430,-168"/>
<text text-anchor="start" x="1438" y="-186" font-family="Helvetica,sans-Serif" font-size="10.00">ant::analysis::physics</text>
<text text-anchor="middle" x="1486" y="-175" font-family="Helvetica,sans-Serif" font-size="10.00">::JustPi0::MultiPi0</text>
</a>
</g>
</g>
<!-- Node4&#45;&gt;Node7 -->
<g id="edge36" class="edge"><title>Node4&#45;&gt;Node7</title>
<path fill="none" stroke="#9a32cd" stroke-dasharray="5,2" d="M1314.79,-415.62C1358.95,-404.516 1408.14,-391.557 1412,-388 1468.78,-335.609 1481.43,-236.105 1484.22,-198.19"/>
<polygon fill="#9a32cd" stroke="#9a32cd" points="1313.73,-412.278 1304.88,-418.102 1315.43,-419.068 1313.73,-412.278"/>
<text text-anchor="middle" x="1376" y="-412" font-family="Helvetica,sans-Serif" font-size="10.00"> HistFac</text>
</g>
<!-- Node5 -->
<g id="node4" class="node"><title>Node5</title>
<polygon fill="white" stroke="#bfbfbf" points="1876.5,-162.5 1876.5,-203.5 2013.5,-203.5 2013.5,-162.5 1876.5,-162.5"/>
<text text-anchor="start" x="1884.5" y="-191.5" font-family="Helvetica,sans-Serif" font-size="10.00">std::vector&lt; std::unique</text>
<text text-anchor="start" x="1884.5" y="-180.5" font-family="Helvetica,sans-Serif" font-size="10.00">_ptr&lt; ant::analysis::physics</text>
<text text-anchor="middle" x="1945" y="-169.5" font-family="Helvetica,sans-Serif" font-size="10.00">::JustPi0::MultiPi0 &gt; &gt;</text>
</g>
<!-- Node5&#45;&gt;Node2 -->
<g id="edge3" class="edge"><title>Node5&#45;&gt;Node2</title>
<path fill="none" stroke="#9a32cd" stroke-dasharray="5,2" d="M2023.67,-183C2045.73,-183 2069.31,-183 2089.75,-183"/>
<polygon fill="#9a32cd" stroke="#9a32cd" points="2023.65,-179.5 2013.65,-183 2023.65,-186.5 2023.65,-179.5"/>
<text text-anchor="middle" x="2052" y="-186" font-family="Helvetica,sans-Serif" font-size="10.00"> multiPi0</text>
</g>
<!-- Node6 -->
<g id="node5" class="node"><title>Node6</title>
<polygon fill="white" stroke="#bfbfbf" points="1692,-162.5 1692,-203.5 1796,-203.5 1796,-162.5 1692,-162.5"/>
<text text-anchor="start" x="1700" y="-191.5" font-family="Helvetica,sans-Serif" font-size="10.00">std::unique_ptr&lt; ant</text>
<text text-anchor="start" x="1700" y="-180.5" font-family="Helvetica,sans-Serif" font-size="10.00">::analysis::physics::</text>
<text text-anchor="middle" x="1744" y="-169.5" font-family="Helvetica,sans-Serif" font-size="10.00">JustPi0::MultiPi0 &gt;</text>
</g>
<!-- Node6&#45;&gt;Node5 -->
<g id="edge4" class="edge"><title>Node6&#45;&gt;Node5</title>
<path fill="none" stroke="#9a32cd" stroke-dasharray="5,2" d="M1806.53,-183C1828.67,-183 1853.77,-183 1876.41,-183"/>
<polygon fill="#9a32cd" stroke="#9a32cd" points="1806.25,-179.5 1796.25,-183 1806.25,-186.5 1806.25,-179.5"/>
<text text-anchor="middle" x="1836" y="-186" font-family="Helvetica,sans-Serif" font-size="10.00"> elements</text>
</g>
<!-- Node7&#45;&gt;Node6 -->
<g id="edge5" class="edge"><title>Node7&#45;&gt;Node6</title>
<path fill="none" stroke="#9a32cd" stroke-dasharray="5,2" d="M1552.39,-183C1595.7,-183 1651.71,-183 1691.78,-183"/>
<polygon fill="#9a32cd" stroke="#9a32cd" points="1552.23,-179.5 1542.23,-183 1552.23,-186.5 1552.23,-179.5"/>
<text text-anchor="middle" x="1617" y="-186" font-family="Helvetica,sans-Serif" font-size="10.00"> ptr</text>
</g>
<!-- Node8 -->
<g id="node7" class="node"><title>Node8</title>
<polygon fill="white" stroke="#bfbfbf" points="1170,-145.5 1170,-186.5 1316,-186.5 1316,-145.5 1170,-145.5"/>
<text text-anchor="start" x="1178" y="-174.5" font-family="Helvetica,sans-Serif" font-size="10.00">std::vector&lt; std::pair</text>
<text text-anchor="start" x="1178" y="-163.5" font-family="Helvetica,sans-Serif" font-size="10.00">&lt; utils::TreeFitter::tree</text>
<text text-anchor="middle" x="1243" y="-152.5" font-family="Helvetica,sans-Serif" font-size="10.00">_t, utils::TreeFitter::tree_t &gt; &gt;</text>
</g>
<!-- Node8&#45;&gt;Node7 -->
<g id="edge6" class="edge"><title>Node8&#45;&gt;Node7</title>
<path fill="none" stroke="#9a32cd" stroke-dasharray="5,2" d="M1326.43,-163.053C1353.74,-162.992 1384.24,-163.91 1412,-167 1417.8,-167.646 1423.82,-168.559 1429.8,-169.626"/>
<polygon fill="#9a32cd" stroke="#9a32cd" points="1326.11,-159.555 1316.14,-163.122 1326.16,-166.555 1326.11,-159.555"/>
<text text-anchor="middle" x="1376" y="-170" font-family="Helvetica,sans-Serif" font-size="10.00"> pions</text>
</g>
<!-- Node9 -->
<g id="node8" class="node"><title>Node9</title>
<g id="a_node8"><a xlink:href="structant_1_1analysis_1_1_prompt_random_1_1_hist1.html" target="_top" xlink:title="ant::analysis::PromptRandom\l::Hist1">
<polygon fill="white" stroke="black" points="1170,-205 1170,-235 1316,-235 1316,-205 1170,-205"/>
<text text-anchor="start" x="1178" y="-223" font-family="Helvetica,sans-Serif" font-size="10.00">ant::analysis::PromptRandom</text>
<text text-anchor="middle" x="1243" y="-212" font-family="Helvetica,sans-Serif" font-size="10.00">::Hist1</text>
</a>
</g>
</g>
<!-- Node9&#45;&gt;Node7 -->
<g id="edge7" class="edge"><title>Node9&#45;&gt;Node7</title>
<path fill="none" stroke="#9a32cd" stroke-dasharray="5,2" d="M1326.36,-203.301C1330.97,-202.491 1335.54,-201.717 1340,-201 1369.55,-196.247 1402.67,-192.052 1429.78,-188.909"/>
<polygon fill="#9a32cd" stroke="#9a32cd" points="1325.46,-199.907 1316.24,-205.125 1326.7,-206.796 1325.46,-199.907"/>
<text text-anchor="middle" x="1376" y="-248" font-family="Helvetica,sans-Serif" font-size="10.00"> h_missingmass</text>
<text text-anchor="middle" x="1376" y="-237" font-family="Helvetica,sans-Serif" font-size="10.00">h_fitprobability</text>
<text text-anchor="middle" x="1376" y="-226" font-family="Helvetica,sans-Serif" font-size="10.00">IM_2g_fitted</text>
<text text-anchor="middle" x="1376" y="-215" font-family="Helvetica,sans-Serif" font-size="10.00">IM_2g_byMM</text>
<text text-anchor="middle" x="1376" y="-204" font-family="Helvetica,sans-Serif" font-size="10.00">IM_2g_byFit</text>
</g>
<!-- Node10 -->
<g id="node9" class="node"><title>Node10</title>
<g id="a_node9"><a xlink:href="classant_1_1analysis_1_1_prompt_random_1_1_switch.html" target="_top" xlink:title="ant::analysis::PromptRandom\l::Switch">
<polygon fill="white" stroke="black" points="898,-101 898,-131 1044,-131 1044,-101 898,-101"/>
<text text-anchor="start" x="906" y="-119" font-family="Helvetica,sans-Serif" font-size="10.00">ant::analysis::PromptRandom</text>
<text text-anchor="middle" x="971" y="-108" font-family="Helvetica,sans-Serif" font-size="10.00">::Switch</text>
</a>
</g>
</g>
<!-- Node10&#45;&gt;Node7 -->
<g id="edge34" class="edge"><title>Node10&#45;&gt;Node7</title>
<path fill="none" stroke="#9a32cd" stroke-dasharray="5,2" d="M1054.36,-110.852C1125.77,-108.109 1231.58,-108.192 1322,-125 1368.81,-133.7 1420.14,-153.861 1452.45,-167.955"/>
<polygon fill="#9a32cd" stroke="#9a32cd" points="1053.93,-107.366 1044.08,-111.275 1054.22,-114.36 1053.93,-107.366"/>
<text text-anchor="middle" x="1243" y="-128" font-family="Helvetica,sans-Serif" font-size="10.00"> promptrandom</text>
</g>
<!-- Node10&#45;&gt;Node9 -->
<g id="edge8" class="edge"><title>Node10&#45;&gt;Node9</title>
<path fill="none" stroke="#9a32cd" stroke-dasharray="5,2" d="M1054,-128.403C1095.39,-135.312 1138.46,-143.753 1146,-150 1162.59,-163.738 1148.24,-180.313 1164,-195 1168.16,-198.878 1172.93,-202.155 1178,-204.923"/>
<polygon fill="#9a32cd" stroke="#9a32cd" points="1054.53,-124.944 1044.09,-126.773 1053.39,-131.851 1054.53,-124.944"/>
<text text-anchor="middle" x="1107" y="-153" font-family="Helvetica,sans-Serif" font-size="10.00"> d</text>
</g>
<!-- Node11 -->
<g id="node10" class="node"><title>Node11</title>
<g id="a_node10"><a xlink:href="classant_1_1_piecewise_interval.html" target="_top" xlink:title="ant::PiecewiseInterval\l\&lt; double \&gt;">
<polygon fill="white" stroke="black" points="596.5,-101 596.5,-131 709.5,-131 709.5,-101 596.5,-101"/>
<text text-anchor="start" x="604.5" y="-119" font-family="Helvetica,sans-Serif" font-size="10.00">ant::PiecewiseInterval</text>
<text text-anchor="middle" x="653" y="-108" font-family="Helvetica,sans-Serif" font-size="10.00">&lt; double &gt;</text>
</a>
</g>
</g>
<!-- Node11&#45;&gt;Node10 -->
<g id="edge9" class="edge"><title>Node11&#45;&gt;Node10</title>
<path fill="none" stroke="#9a32cd" stroke-dasharray="5,2" d="M719.88,-116C771.866,-116 844.299,-116 897.844,-116"/>
<polygon fill="#9a32cd" stroke="#9a32cd" points="719.767,-112.5 709.767,-116 719.767,-119.5 719.767,-112.5"/>
<text text-anchor="middle" x="804" y="-130" font-family="Helvetica,sans-Serif" font-size="10.00"> promptw</text>
<text text-anchor="middle" x="804" y="-119" font-family="Helvetica,sans-Serif" font-size="10.00">randomw</text>
</g>
<!-- Node12 -->
<g id="node11" class="node"><title>Node12</title>
<g id="a_node11"><a xlink:title="STL class. ">
<polygon fill="white" stroke="#bfbfbf" points="393,-101 393,-131 497,-131 497,-101 393,-101"/>
<text text-anchor="start" x="401" y="-119" font-family="Helvetica,sans-Serif" font-size="10.00">std::vector&lt; interval</text>
<text text-anchor="middle" x="445" y="-108" font-family="Helvetica,sans-Serif" font-size="10.00">&lt; double &gt; &gt;</text>
</a>
</g>
</g>
<!-- Node12&#45;&gt;Node11 -->
<g id="edge10" class="edge"><title>Node12&#45;&gt;Node11</title>
<path fill="none" stroke="midnightblue" d="M507.346,-116C535.593,-116 568.867,-116 596.376,-116"/>
<polygon fill="midnightblue" stroke="midnightblue" points="507.186,-112.5 497.186,-116 507.186,-119.5 507.186,-112.5"/>
</g>
<!-- Node13 -->
<g id="node12" class="node"><title>Node13</title>
<polygon fill="white" stroke="#bfbfbf" points="232.5,-128.5 232.5,-147.5 261.5,-147.5 261.5,-128.5 232.5,-128.5"/>
<text text-anchor="middle" x="247" y="-135.5" font-family="Helvetica,sans-Serif" font-size="10.00">T</text>
</g>
<!-- Node13&#45;&gt;Node12 -->
<g id="edge11" class="edge"><title>Node13&#45;&gt;Node12</title>
<path fill="none" stroke="#9a32cd" stroke-dasharray="5,2" d="M271.449,-131.546C284.954,-128.106 302.31,-124.149 318,-122 342.518,-118.641 369.941,-117.079 392.927,-116.381"/>
<polygon fill="#9a32cd" stroke="#9a32cd" points="270.33,-128.222 261.55,-134.151 272.111,-134.991 270.33,-128.222"/>
<text text-anchor="middle" x="340" y="-125" font-family="Helvetica,sans-Serif" font-size="10.00"> elements</text>
</g>
<!-- Node32 -->
<g id="node31" class="node"><title>Node32</title>
<g id="a_node31"><a xlink:title="STL class. ">
<polygon fill="white" stroke="#bfbfbf" points="401.5,-150.5 401.5,-169.5 488.5,-169.5 488.5,-150.5 401.5,-150.5"/>
<text text-anchor="middle" x="445" y="-157.5" font-family="Helvetica,sans-Serif" font-size="10.00">std::vector&lt; T &gt;</text>
</a>
</g>
</g>
<!-- Node13&#45;&gt;Node32 -->
<g id="edge31" class="edge"><title>Node13&#45;&gt;Node32</title>
<path fill="none" stroke="#9a32cd" stroke-dasharray="5,2" d="M272.028,-140.697C304.192,-144.307 361.777,-150.771 401.388,-155.217"/>
<polygon fill="#9a32cd" stroke="#9a32cd" points="272.11,-137.184 261.782,-139.547 271.329,-144.141 272.11,-137.184"/>
<text text-anchor="middle" x="340" y="-154" font-family="Helvetica,sans-Serif" font-size="10.00"> elements</text>
</g>
<!-- Node14 -->
<g id="node13" class="node"><title>Node14</title>
<g id="a_node13"><a xlink:href="structant_1_1analysis_1_1physics_1_1_just_pi0_1_1_multi_pi0_1_1_multi_pi0_tree.html" target="_top" xlink:title="ant::analysis::physics\l::JustPi0::MultiPi0::MultiPi0Tree">
<polygon fill="white" stroke="black" points="1164,-49 1164,-79 1322,-79 1322,-49 1164,-49"/>
<text text-anchor="start" x="1172" y="-67" font-family="Helvetica,sans-Serif" font-size="10.00">ant::analysis::physics</text>
<text text-anchor="middle" x="1243" y="-56" font-family="Helvetica,sans-Serif" font-size="10.00">::JustPi0::MultiPi0::MultiPi0Tree</text>
</a>
</g>
</g>
<!-- Node14&#45;&gt;Node7 -->
<g id="edge12" class="edge"><title>Node14&#45;&gt;Node7</title>
<path fill="none" stroke="#9a32cd" stroke-dasharray="5,2" d="M1332.28,-65.9502C1359.3,-69.673 1388.15,-77.0367 1412,-91 1443.32,-109.338 1466.38,-146.653 1477.52,-167.689"/>
<polygon fill="#9a32cd" stroke="#9a32cd" points="1332.39,-62.4366 1322.03,-64.6955 1331.54,-69.3847 1332.39,-62.4366"/>
<text text-anchor="middle" x="1376" y="-94" font-family="Helvetica,sans-Serif" font-size="10.00"> t</text>
</g>
<!-- Node15 -->
<g id="node14" class="node"><title>Node15</title>
<g id="a_node14"><a xlink:href="classant_1_1_wrap_t_tree.html" target="_top" xlink:title="The WrapTTree struct simplifies TTree handling in physics classes. ">
<polygon fill="white" stroke="black" points="928.5,-54.5 928.5,-73.5 1013.5,-73.5 1013.5,-54.5 928.5,-54.5"/>
<text text-anchor="middle" x="971" y="-61.5" font-family="Helvetica,sans-Serif" font-size="10.00">ant::WrapTTree</text>
</a>
</g>
</g>
<!-- Node15&#45;&gt;Node14 -->
<g id="edge13" class="edge"><title>Node15&#45;&gt;Node14</title>
<path fill="none" stroke="midnightblue" d="M1023.84,-64C1063.52,-64 1118.89,-64 1163.92,-64"/>
<polygon fill="midnightblue" stroke="midnightblue" points="1023.6,-60.5001 1013.6,-64 1023.6,-67.5001 1023.6,-60.5001"/>
</g>
<!-- Node16 -->
<g id="node15" class="node"><title>Node16</title>
<g id="a_node15"><a xlink:href="classant_1_1analysis_1_1utils_1_1_tree_fitter.html" target="_top" xlink:title="ant::analysis::utils\l::TreeFitter">
<polygon fill="white" stroke="black" points="1195,-263 1195,-293 1291,-293 1291,-263 1195,-263"/>
<text text-anchor="start" x="1203" y="-281" font-family="Helvetica,sans-Serif" font-size="10.00">ant::analysis::utils</text>
<text text-anchor="middle" x="1243" y="-270" font-family="Helvetica,sans-Serif" font-size="10.00">::TreeFitter</text>
</a>
</g>
</g>
<!-- Node16&#45;&gt;Node7 -->
<g id="edge14" class="edge"><title>Node16&#45;&gt;Node7</title>
<path fill="none" stroke="#9a32cd" stroke-dasharray="5,2" d="M1301.42,-279.529C1335.18,-278.277 1377.8,-272.849 1412,-256 1439.01,-242.692 1462.01,-215.412 1474.63,-198.23"/>
<polygon fill="#9a32cd" stroke="#9a32cd" points="1301.15,-276.035 1291.25,-279.792 1301.33,-283.033 1301.15,-276.035"/>
<text text-anchor="middle" x="1376" y="-280" font-family="Helvetica,sans-Serif" font-size="10.00"> treefitter</text>
</g>
<!-- Node17 -->
<g id="node16" class="node"><title>Node17</title>
<g id="a_node16"><a xlink:href="classant_1_1analysis_1_1utils_1_1_kin_fitter.html" target="_top" xlink:title="ant::analysis::utils\l::KinFitter">
<polygon fill="white" stroke="black" points="923,-372 923,-402 1019,-402 1019,-372 923,-372"/>
<text text-anchor="start" x="931" y="-390" font-family="Helvetica,sans-Serif" font-size="10.00">ant::analysis::utils</text>
<text text-anchor="middle" x="971" y="-379" font-family="Helvetica,sans-Serif" font-size="10.00">::KinFitter</text>
</a>
</g>
</g>
<!-- Node17&#45;&gt;Node7 -->
<g id="edge33" class="edge"><title>Node17&#45;&gt;Node7</title>
<path fill="none" stroke="#9a32cd" stroke-dasharray="5,2" d="M1029.48,-388.529C1119.43,-388.086 1295.21,-375.514 1412,-292 1446.09,-267.625 1468.89,-221.979 1479.01,-198.232"/>
<polygon fill="#9a32cd" stroke="#9a32cd" points="1029.21,-385.029 1019.21,-388.528 1029.21,-392.029 1029.21,-385.029"/>
<text text-anchor="middle" x="1243" y="-381" font-family="Helvetica,sans-Serif" font-size="10.00"> fitter</text>
</g>
<!-- Node17&#45;&gt;Node16 -->
<g id="edge15" class="edge"><title>Node17&#45;&gt;Node16</title>
<path fill="none" stroke="midnightblue" d="M1029.25,-374.191C1063.84,-365.488 1108.36,-352.55 1146,-336 1173.09,-324.085 1201.86,-305.872 1220.76,-293.04"/>
<polygon fill="midnightblue" stroke="midnightblue" points="1028.19,-370.849 1019.32,-376.644 1029.86,-377.645 1028.19,-370.849"/>
</g>
<!-- Node18 -->
<g id="node17" class="node"><title>Node18</title>
<g id="a_node17"><a xlink:href="classant_1_1analysis_1_1utils_1_1_fitter.html" target="_top" xlink:title="ant::analysis::utils\l::Fitter">
<polygon fill="white" stroke="black" points="605,-306 605,-336 701,-336 701,-306 605,-306"/>
<text text-anchor="start" x="613" y="-324" font-family="Helvetica,sans-Serif" font-size="10.00">ant::analysis::utils</text>
<text text-anchor="middle" x="653" y="-313" font-family="Helvetica,sans-Serif" font-size="10.00">::Fitter</text>
</a>
</g>
</g>
<!-- Node18&#45;&gt;Node17 -->
<g id="edge16" class="edge"><title>Node18&#45;&gt;Node17</title>
<path fill="none" stroke="midnightblue" d="M711.321,-332.01C755.771,-340.658 818.882,-353.175 874,-365 889.882,-368.407 907.197,-372.316 922.694,-375.883"/>
<polygon fill="midnightblue" stroke="midnightblue" points="711.769,-328.532 701.286,-330.062 710.435,-335.403 711.769,-328.532"/>
</g>
<!-- Node19 -->
<g id="node18" class="node"><title>Node19</title>
<g id="a_node18"><a xlink:href="structant_1_1analysis_1_1utils_1_1_kin_fitter_1_1_target__t.html" target="_top" xlink:title="ant::analysis::utils\l::KinFitter::Target_t">
<polygon fill="white" stroke="black" points="602.5,-394 602.5,-424 703.5,-424 703.5,-394 602.5,-394"/>
<text text-anchor="start" x="610.5" y="-412" font-family="Helvetica,sans-Serif" font-size="10.00">ant::analysis::utils</text>
<text text-anchor="middle" x="653" y="-401" font-family="Helvetica,sans-Serif" font-size="10.00">::KinFitter::Target_t</text>
</a>
</g>
</g>
<!-- Node19&#45;&gt;Node17 -->
<g id="edge17" class="edge"><title>Node19&#45;&gt;Node17</title>
<path fill="none" stroke="#9a32cd" stroke-dasharray="5,2" d="M713.922,-404.828C774.615,-400.603 867.25,-394.153 922.888,-390.28"/>
<polygon fill="#9a32cd" stroke="#9a32cd" points="713.455,-401.352 703.723,-405.538 713.942,-408.335 713.455,-401.352"/>
<text text-anchor="middle" x="804" y="-406" font-family="Helvetica,sans-Serif" font-size="10.00"> Target</text>
</g>
<!-- Node20 -->
<g id="node19" class="node"><title>Node20</title>
<g id="a_node19"><a xlink:href="structant_1_1analysis_1_1utils_1_1_kin_fitter_1_1_beam_e__t.html" target="_top" xlink:title="ant::analysis::utils\l::KinFitter::BeamE_t">
<polygon fill="white" stroke="black" points="600,-443 600,-473 706,-473 706,-443 600,-443"/>
<text text-anchor="start" x="608" y="-461" font-family="Helvetica,sans-Serif" font-size="10.00">ant::analysis::utils</text>
<text text-anchor="middle" x="653" y="-450" font-family="Helvetica,sans-Serif" font-size="10.00">::KinFitter::BeamE_t</text>
</a>
</g>
</g>
<!-- Node20&#45;&gt;Node17 -->
<g id="edge18" class="edge"><title>Node20&#45;&gt;Node17</title>
<path fill="none" stroke="#9a32cd" stroke-dasharray="5,2" d="M716.466,-448.904C760.761,-441.905 821.43,-431.205 874,-418 891.666,-413.562 910.822,-407.614 927.342,-402.115"/>
<polygon fill="#9a32cd" stroke="#9a32cd" points="715.764,-445.471 706.424,-450.471 716.844,-452.387 715.764,-445.471"/>
<text text-anchor="middle" x="804" y="-448" font-family="Helvetica,sans-Serif" font-size="10.00"> BeamE</text>
</g>
<!-- Node21 -->
<g id="node20" class="node"><title>Node21</title>
<g id="a_node20"><a xlink:href="structant_1_1analysis_1_1utils_1_1_fitter_1_1_v___s___p__t.html" target="_top" xlink:title="ant::analysis::utils\l::Fitter::V_S_P_t">
<polygon fill="white" stroke="black" points="397,-443 397,-473 493,-473 493,-443 397,-443"/>
<text text-anchor="start" x="405" y="-461" font-family="Helvetica,sans-Serif" font-size="10.00">ant::analysis::utils</text>
<text text-anchor="middle" x="445" y="-450" font-family="Helvetica,sans-Serif" font-size="10.00">::Fitter::V_S_P_t</text>
</a>
</g>
</g>
<!-- Node21&#45;&gt;Node20 -->
<g id="edge19" class="edge"><title>Node21&#45;&gt;Node20</title>
<path fill="none" stroke="midnightblue" d="M503.391,-458C533.599,-458 570.365,-458 599.77,-458"/>
<polygon fill="midnightblue" stroke="midnightblue" points="503.002,-454.5 493.002,-458 503.002,-461.5 503.002,-454.5"/>
</g>
<!-- Node22 -->
<g id="node21" class="node"><title>Node22</title>
<g id="a_node21"><a xlink:href="structant_1_1analysis_1_1utils_1_1_fitter_1_1_v___s__t.html" target="_top" xlink:title="ant::analysis::utils\l::Fitter::V_S_t">
<polygon fill="white" stroke="black" points="199,-443 199,-473 295,-473 295,-443 199,-443"/>
<text text-anchor="start" x="207" y="-461" font-family="Helvetica,sans-Serif" font-size="10.00">ant::analysis::utils</text>
<text text-anchor="middle" x="247" y="-450" font-family="Helvetica,sans-Serif" font-size="10.00">::Fitter::V_S_t</text>
</a>
</g>
</g>
<!-- Node22&#45;&gt;Node21 -->
<g id="edge20" class="edge"><title>Node22&#45;&gt;Node21</title>
<path fill="none" stroke="midnightblue" d="M305.481,-458C334.597,-458 369.503,-458 396.991,-458"/>
<polygon fill="midnightblue" stroke="midnightblue" points="305.446,-454.5 295.446,-458 305.446,-461.5 305.446,-454.5"/>
</g>
<!-- Node23 -->
<g id="node22" class="node"><title>Node23</title>
<polygon fill="white" stroke="#bfbfbf" points="590.5,-355.5 590.5,-374.5 715.5,-374.5 715.5,-355.5 590.5,-355.5"/>
<text text-anchor="middle" x="653" y="-362.5" font-family="Helvetica,sans-Serif" font-size="10.00">std::vector&lt; FitParticle &gt;</text>
</g>
<!-- Node23&#45;&gt;Node17 -->
<g id="edge21" class="edge"><title>Node23&#45;&gt;Node17</title>
<path fill="none" stroke="#9a32cd" stroke-dasharray="5,2" d="M725.75,-369.21C768.76,-371.822 824.53,-375.365 874,-379 889.845,-380.164 907.151,-381.566 922.651,-382.869"/>
<polygon fill="#9a32cd" stroke="#9a32cd" points="725.855,-365.71 715.662,-368.6 725.432,-372.697 725.855,-365.71"/>
<text text-anchor="middle" x="804" y="-382" font-family="Helvetica,sans-Serif" font-size="10.00"> Photons</text>
</g>
<!-- Node24 -->
<g id="node23" class="node"><title>Node24</title>
<polygon fill="white" stroke="#bfbfbf" points="918,-199.5 918,-218.5 1024,-218.5 1024,-199.5 918,-199.5"/>
<text text-anchor="middle" x="971" y="-206.5" font-family="Helvetica,sans-Serif" font-size="10.00">std::vector&lt; tree_t &gt;</text>
</g>
<!-- Node24&#45;&gt;Node16 -->
<g id="edge22" class="edge"><title>Node24&#45;&gt;Node16</title>
<path fill="none" stroke="#9a32cd" stroke-dasharray="5,2" d="M1034.31,-219.318C1067.7,-225.403 1109.39,-233.891 1146,-244 1165.09,-249.271 1185.85,-256.438 1203.17,-262.833"/>
<polygon fill="#9a32cd" stroke="#9a32cd" points="1034.69,-215.831 1024.23,-217.508 1033.45,-222.72 1034.69,-215.831"/>
<text text-anchor="middle" x="1107" y="-247" font-family="Helvetica,sans-Serif" font-size="10.00"> tree_leaves</text>
</g>
<!-- Node25 -->
<g id="node24" class="node"><title>Node25</title>
<polygon fill="white" stroke="#bfbfbf" points="898,-150 898,-180 1044,-180 1044,-150 898,-150"/>
<text text-anchor="start" x="906" y="-168" font-family="Helvetica,sans-Serif" font-size="10.00">std::list&lt; ant::analysis</text>
<text text-anchor="middle" x="971" y="-157" font-family="Helvetica,sans-Serif" font-size="10.00">::utils::TreeFitter::iteration_t &gt;</text>
</g>
<!-- Node25&#45;&gt;Node16 -->
<g id="edge23" class="edge"><title>Node25&#45;&gt;Node16</title>
<path fill="none" stroke="#9a32cd" stroke-dasharray="5,2" d="M1054.22,-173.519C1085.47,-180.071 1119.81,-191.63 1146,-212 1158.88,-222.019 1151.89,-233.061 1164,-244 1172.88,-252.022 1183.95,-258.371 1194.93,-263.303"/>
<polygon fill="#9a32cd" stroke="#9a32cd" points="1054.68,-170.043 1044.2,-171.562 1053.34,-176.913 1054.68,-170.043"/>
<text text-anchor="middle" x="1107" y="-215" font-family="Helvetica,sans-Serif" font-size="10.00"> iterations</text>
</g>
<!-- Node26 -->
<g id="node25" class="node"><title>Node26</title>
<g id="a_node25"><a xlink:href="structant_1_1analysis_1_1utils_1_1_tree_fitter_1_1iteration__t.html" target="_top" xlink:title="ant::analysis::utils\l::TreeFitter::iteration_t">
<polygon fill="white" stroke="black" points="596.5,-192 596.5,-222 709.5,-222 709.5,-192 596.5,-192"/>
<text text-anchor="start" x="604.5" y="-210" font-family="Helvetica,sans-Serif" font-size="10.00">ant::analysis::utils</text>
<text text-anchor="middle" x="653" y="-199" font-family="Helvetica,sans-Serif" font-size="10.00">::TreeFitter::iteration_t</text>
</a>
</g>
</g>
<!-- Node26&#45;&gt;Node25 -->
<g id="edge24" class="edge"><title>Node26&#45;&gt;Node25</title>
<path fill="none" stroke="#9a32cd" stroke-dasharray="5,2" d="M719.88,-198.244C771.866,-191.334 844.299,-181.707 897.844,-174.59"/>
<polygon fill="#9a32cd" stroke="#9a32cd" points="719.219,-194.801 709.767,-199.588 720.141,-201.74 719.219,-194.801"/>
<text text-anchor="middle" x="804" y="-199" font-family="Helvetica,sans-Serif" font-size="10.00"> elements</text>
</g>
<!-- Node27 -->
<g id="node26" class="node"><title>Node27</title>
<polygon fill="white" stroke="#bfbfbf" points="380.5,-188.5 380.5,-229.5 509.5,-229.5 509.5,-188.5 380.5,-188.5"/>
<text text-anchor="start" x="388.5" y="-217.5" font-family="Helvetica,sans-Serif" font-size="10.00">std::vector&lt; ant::analysis</text>
<text text-anchor="start" x="388.5" y="-206.5" font-family="Helvetica,sans-Serif" font-size="10.00">::utils::TreeFitter::iteration</text>
<text text-anchor="middle" x="445" y="-195.5" font-family="Helvetica,sans-Serif" font-size="10.00">_t::photon_t &gt;</text>
</g>
<!-- Node27&#45;&gt;Node26 -->
<g id="edge25" class="edge"><title>Node27&#45;&gt;Node26</title>
<path fill="none" stroke="#9a32cd" stroke-dasharray="5,2" d="M519.991,-208.282C545.111,-208.038 572.737,-207.77 596.195,-207.542"/>
<polygon fill="#9a32cd" stroke="#9a32cd" points="519.734,-204.784 509.769,-208.381 519.802,-211.784 519.734,-204.784"/>
<text text-anchor="middle" x="550" y="-212" font-family="Helvetica,sans-Serif" font-size="10.00"> Photons</text>
</g>
<!-- Node28 -->
<g id="node27" class="node"><title>Node28</title>
<g id="a_node27"><a xlink:href="structant_1_1analysis_1_1utils_1_1_tree_fitter_1_1iteration__t_1_1photon__t.html" target="_top" xlink:title="ant::analysis::utils\l::TreeFitter::iteration\l_t::photon_t">
<polygon fill="white" stroke="black" points="194.5,-188.5 194.5,-229.5 299.5,-229.5 299.5,-188.5 194.5,-188.5"/>
<text text-anchor="start" x="202.5" y="-217.5" font-family="Helvetica,sans-Serif" font-size="10.00">ant::analysis::utils</text>
<text text-anchor="start" x="202.5" y="-206.5" font-family="Helvetica,sans-Serif" font-size="10.00">::TreeFitter::iteration</text>
<text text-anchor="middle" x="247" y="-195.5" font-family="Helvetica,sans-Serif" font-size="10.00">_t::photon_t</text>
</a>
</g>
</g>
<!-- Node28&#45;&gt;Node27 -->
<g id="edge26" class="edge"><title>Node28&#45;&gt;Node27</title>
<path fill="none" stroke="#9a32cd" stroke-dasharray="5,2" d="M309.853,-209C332.333,-209 357.764,-209 380.393,-209"/>
<polygon fill="#9a32cd" stroke="#9a32cd" points="309.753,-205.5 299.753,-209 309.753,-212.5 309.753,-205.5"/>
<text text-anchor="middle" x="340" y="-212" font-family="Helvetica,sans-Serif" font-size="10.00"> elements</text>
</g>
<!-- Node29 -->
<g id="node28" class="node"><title>Node29</title>
<g id="a_node28"><a xlink:href="structant_1_1std__ext_1_1cc__shared__ptr.html" target="_top" xlink:title="ant::std_ext::cc_shared\l_ptr\&lt; TParticle \&gt;">
<polygon fill="white" stroke="black" points="0.5,-194 0.5,-224 119.5,-224 119.5,-194 0.5,-194"/>
<text text-anchor="start" x="8.5" y="-212" font-family="Helvetica,sans-Serif" font-size="10.00">ant::std_ext::cc_shared</text>
<text text-anchor="middle" x="60" y="-201" font-family="Helvetica,sans-Serif" font-size="10.00">_ptr&lt; TParticle &gt;</text>
</a>
</g>
</g>
<!-- Node29&#45;&gt;Node28 -->
<g id="edge27" class="edge"><title>Node29&#45;&gt;Node28</title>
<path fill="none" stroke="#9a32cd" stroke-dasharray="5,2" d="M129.57,-209C151.026,-209 174.326,-209 194.406,-209"/>
<polygon fill="#9a32cd" stroke="#9a32cd" points="129.535,-205.5 119.535,-209 129.535,-212.5 129.535,-205.5"/>
<text text-anchor="middle" x="157" y="-212" font-family="Helvetica,sans-Serif" font-size="10.00"> Particle</text>
</g>
<!-- Node30 -->
<g id="node29" class="node"><title>Node30</title>
<polygon fill="white" stroke="#bfbfbf" points="908,-323 908,-353 1034,-353 1034,-323 908,-323"/>
<text text-anchor="start" x="916" y="-341" font-family="Helvetica,sans-Serif" font-size="10.00">std::vector&lt; std::function</text>
<text text-anchor="middle" x="971" y="-330" font-family="Helvetica,sans-Serif" font-size="10.00">&lt; void()&gt; &gt;</text>
</g>
<!-- Node30&#45;&gt;Node16 -->
<g id="edge28" class="edge"><title>Node30&#45;&gt;Node16</title>
<path fill="none" stroke="#9a32cd" stroke-dasharray="5,2" d="M1044.21,-325.087C1075.6,-319.166 1112.73,-311.746 1146,-304 1161.98,-300.281 1179.32,-295.741 1194.81,-291.503"/>
<polygon fill="#9a32cd" stroke="#9a32cd" points="1043.42,-321.674 1034.24,-326.955 1044.71,-328.555 1043.42,-321.674"/>
<text text-anchor="middle" x="1107" y="-324" font-family="Helvetica,sans-Serif" font-size="10.00"> sum_daughters</text>
</g>
<!-- Node31 -->
<g id="node30" class="node"><title>Node31</title>
<polygon fill="white" stroke="#bfbfbf" points="734,-245.5 734,-264.5 874,-264.5 874,-245.5 734,-245.5"/>
<text text-anchor="middle" x="804" y="-252.5" font-family="Helvetica,sans-Serif" font-size="10.00">std::vector&lt; permutation_t &gt;</text>
</g>
<!-- Node31&#45;&gt;Node16 -->
<g id="edge29" class="edge"><title>Node31&#45;&gt;Node16</title>
<path fill="none" stroke="#9a32cd" stroke-dasharray="5,2" d="M884.341,-265.206C886.923,-265.482 889.482,-265.748 892,-266 970.045,-273.811 989.618,-276.109 1068,-279 1102.64,-280.278 1111.33,-279.181 1146,-279 1161.83,-278.918 1179.14,-278.759 1194.64,-278.591"/>
<polygon fill="#9a32cd" stroke="#9a32cd" points="884.62,-261.715 874.295,-264.092 883.848,-268.673 884.62,-261.715"/>
<text text-anchor="middle" x="971" y="-282" font-family="Helvetica,sans-Serif" font-size="10.00"> permutations</text>
</g>
<!-- Node32&#45;&gt;Node31 -->
<g id="edge30" class="edge"><title>Node32&#45;&gt;Node31</title>
<path fill="none" stroke="#9a32cd" stroke-dasharray="5,2" d="M498.899,-151.042C556.656,-144.107 649.74,-141.53 716,-182 728.946,-189.907 723.339,-200.208 734,-211 748.378,-225.554 768.413,-237.657 783.191,-245.461"/>
<polygon fill="#9a32cd" stroke="#9a32cd" points="498.362,-147.582 488.891,-152.329 499.256,-154.524 498.362,-147.582"/>
<text text-anchor="middle" x="550" y="-152" font-family="Helvetica,sans-Serif" font-size="10.00"> elements</text>
</g>
<!-- Node33 -->
<g id="node32" class="node"><title>Node33</title>
<polygon fill="white" stroke="#bfbfbf" points="892,-237.5 892,-256.5 1050,-256.5 1050,-237.5 892,-237.5"/>
<text text-anchor="middle" x="971" y="-244.5" font-family="Helvetica,sans-Serif" font-size="10.00">std::vector&lt; node_constraint_t &gt;</text>
</g>
<!-- Node33&#45;&gt;Node16 -->
<g id="edge32" class="edge"><title>Node33&#45;&gt;Node16</title>
<path fill="none" stroke="#9a32cd" stroke-dasharray="5,2" d="M1060.14,-257.12C1105.05,-262.276 1157.87,-268.34 1194.97,-272.6"/>
<polygon fill="#9a32cd" stroke="#9a32cd" points="1060.43,-253.63 1050.1,-255.966 1059.63,-260.584 1060.43,-253.63"/>
<text text-anchor="middle" x="1107" y="-270" font-family="Helvetica,sans-Serif" font-size="10.00"> node_constraints</text>
</g>
<!-- Node34 -->
<g id="node33" class="node"><title>Node34</title>
<g id="a_node33"><a xlink:href="classant_1_1analysis_1_1utils_1_1_trigger_simulation.html" target="_top" xlink:title="ant::analysis::utils\l::TriggerSimulation">
<polygon fill="white" stroke="black" points="1194,-0 1194,-30 1292,-30 1292,-0 1194,-0"/>
<text text-anchor="start" x="1202" y="-18" font-family="Helvetica,sans-Serif" font-size="10.00">ant::analysis::utils</text>
<text text-anchor="middle" x="1243" y="-7" font-family="Helvetica,sans-Serif" font-size="10.00">::TriggerSimulation</text>
</a>
</g>
</g>
<!-- Node34&#45;&gt;Node2 -->
<g id="edge37" class="edge"><title>Node34&#45;&gt;Node2</title>
<path fill="none" stroke="#9a32cd" stroke-dasharray="5,2" d="M1302.07,-15.3759C1350.88,-15.6595 1422.5,-16 1485,-16 1485,-16 1485,-16 1946,-16 2040.04,-16 2112.9,-126.777 2136.7,-167.885"/>
<polygon fill="#9a32cd" stroke="#9a32cd" points="1302.03,-11.8757 1292.01,-15.3164 1301.99,-18.8756 1302.03,-11.8757"/>
<text text-anchor="middle" x="1744" y="-19" font-family="Helvetica,sans-Serif" font-size="10.00"> triggersimu</text>
</g>
<!-- Node34&#45;&gt;Node7 -->
<g id="edge35" class="edge"><title>Node34&#45;&gt;Node7</title>
<path fill="none" stroke="#9a32cd" stroke-dasharray="5,2" d="M1302.22,-25.7574C1347.12,-34.4528 1403.03,-46.3104 1412,-53 1451.63,-82.5562 1472.76,-140.374 1480.94,-167.83"/>
<polygon fill="#9a32cd" stroke="#9a32cd" points="1302.73,-22.2912 1292.25,-23.8424 1301.41,-29.1656 1302.73,-22.2912"/>
<text text-anchor="middle" x="1376" y="-56" font-family="Helvetica,sans-Serif" font-size="10.00"> triggersimu</text>
</g>
</g>
</svg>
