<?xml version="1.0" encoding="UTF-8" standalone="no"?>
<!DOCTYPE svg PUBLIC "-//W3C//DTD SVG 1.1//EN"
 "http://www.w3.org/Graphics/SVG/1.1/DTD/svg11.dtd">
<!-- Generated by graphviz version 2.36.0 (20140111.2315)
 -->
<!-- Title: ant::expconfig::Setup Pages: 1 -->
<svg width="690pt" height="519pt"
 viewBox="0.00 0.00 690.00 519.00" xmlns="http://www.w3.org/2000/svg" xmlns:xlink="http://www.w3.org/1999/xlink">
<g id="graph0" class="graph" transform="scale(1 1) rotate(0) translate(4 515)">
<title>ant::expconfig::Setup</title>
<polygon fill="white" stroke="none" points="-4,4 -4,-515 686,-515 686,4 -4,4"/>
<!-- Node0 -->
<g id="node1" class="node"><title>Node0</title>
<polygon fill="#bfbfbf" stroke="black" points="182,-215.5 182,-234.5 292,-234.5 292,-215.5 182,-215.5"/>
<text text-anchor="middle" x="237" y="-222.5" font-family="Helvetica,sans-Serif" font-size="10.00">ant::expconfig::Setup</text>
</g>
<!-- Node4 -->
<g id="node5" class="node"><title>Node4</title>
<g id="a_node5"><a xlink:href="classant_1_1expconfig_1_1setup_1_1_setup__2007___base.html" target="_top" xlink:title="Common base class for all Setups of the 2014 Ent Point Tagger beam times. ">
<polygon fill="white" stroke="black" points="363,-431 363,-461 471,-461 471,-431 363,-431"/>
<text text-anchor="start" x="371" y="-449" font-family="Helvetica,sans-Serif" font-size="10.00">ant::expconfig::setup</text>
<text text-anchor="middle" x="417" y="-438" font-family="Helvetica,sans-Serif" font-size="10.00">::Setup_2007_Base</text>
</a>
</g>
</g>
<!-- Node0&#45;&gt;Node4 -->
<g id="edge4" class="edge"><title>Node0&#45;&gt;Node4</title>
<path fill="none" stroke="midnightblue" d="M241.428,-244.872C249.314,-284.46 272.505,-373.439 328,-421 337.768,-429.372 350.165,-434.948 362.549,-438.661"/>
<polygon fill="midnightblue" stroke="midnightblue" points="244.839,-244.071 239.56,-234.885 237.959,-245.358 244.839,-244.071"/>
</g>
<!-- Node7 -->
<g id="node8" class="node"><title>Node7</title>
<g id="a_node8"><a xlink:href="classant_1_1expconfig_1_1setup_1_1_setup__2010__03___base.html" target="_top" xlink:title="ant::expconfig::setup\l::Setup_2010_03_Base">
<polygon fill="white" stroke="black" points="358,-382 358,-412 476,-412 476,-382 358,-382"/>
<text text-anchor="start" x="366" y="-400" font-family="Helvetica,sans-Serif" font-size="10.00">ant::expconfig::setup</text>
<text text-anchor="middle" x="417" y="-389" font-family="Helvetica,sans-Serif" font-size="10.00">::Setup_2010_03_Base</text>
</a>
</g>
</g>
<!-- Node0&#45;&gt;Node7 -->
<g id="edge7" class="edge"><title>Node0&#45;&gt;Node7</title>
<path fill="none" stroke="midnightblue" d="M244.55,-244.384C256.223,-275.958 283.646,-338.344 328,-372 336.73,-378.624 347.147,-383.494 357.707,-387.073"/>
<polygon fill="midnightblue" stroke="midnightblue" points="247.72,-242.851 241.076,-234.598 241.123,-245.192 247.72,-242.851"/>
</g>
<!-- Node9 -->
<g id="node10" class="node"><title>Node9</title>
<g id="a_node10"><a xlink:href="classant_1_1expconfig_1_1setup_1_1_setup__2012__12___compton.html" target="_top" xlink:title="ant::expconfig::setup\l::Setup_2012_12_Compton">
<polygon fill="white" stroke="black" points="349.5,-333 349.5,-363 484.5,-363 484.5,-333 349.5,-333"/>
<text text-anchor="start" x="357.5" y="-351" font-family="Helvetica,sans-Serif" font-size="10.00">ant::expconfig::setup</text>
<text text-anchor="middle" x="417" y="-340" font-family="Helvetica,sans-Serif" font-size="10.00">::Setup_2012_12_Compton</text>
</a>
</g>
</g>
<!-- Node0&#45;&gt;Node9 -->
<g id="edge9" class="edge"><title>Node0&#45;&gt;Node9</title>
<path fill="none" stroke="midnightblue" d="M249.92,-243.189C265.345,-265.296 294.275,-302.213 328,-323 334.625,-327.083 341.938,-330.52 349.433,-333.407"/>
<polygon fill="midnightblue" stroke="midnightblue" points="252.676,-241.017 244.162,-234.712 246.886,-244.95 252.676,-241.017"/>
</g>
<!-- Node10 -->
<g id="node11" class="node"><title>Node10</title>
<g id="a_node11"><a xlink:href="classant_1_1expconfig_1_1setup_1_1_setup__2014___e_p_t.html" target="_top" xlink:title="Common base class for all Setups of the 2014 Ent Point Tagger beam times. ">
<polygon fill="white" stroke="black" points="363,-284 363,-314 471,-314 471,-284 363,-284"/>
<text text-anchor="start" x="371" y="-302" font-family="Helvetica,sans-Serif" font-size="10.00">ant::expconfig::setup</text>
<text text-anchor="middle" x="417" y="-291" font-family="Helvetica,sans-Serif" font-size="10.00">::Setup_2014_EPT</text>
</a>
</g>
</g>
<!-- Node0&#45;&gt;Node10 -->
<g id="edge10" class="edge"><title>Node0&#45;&gt;Node10</title>
<path fill="none" stroke="midnightblue" d="M261.654,-239.768C279.404,-250.376 304.577,-264.435 328,-274 339.028,-278.503 351.147,-282.514 362.772,-285.933"/>
<polygon fill="midnightblue" stroke="midnightblue" points="263.462,-236.771 253.097,-234.577 259.831,-242.756 263.462,-236.771"/>
</g>
<!-- Node14 -->
<g id="node15" class="node"><title>Node14</title>
<g id="a_node15"><a xlink:href="classant_1_1expconfig_1_1setup_1_1_setup__2015__01___pion.html" target="_top" xlink:title="Ant Setup for Rare Pion Test Beamtime in January 2015 &amp; MC studies. ">
<polygon fill="white" stroke="black" points="359.5,-235 359.5,-265 474.5,-265 474.5,-235 359.5,-235"/>
<text text-anchor="start" x="367.5" y="-253" font-family="Helvetica,sans-Serif" font-size="10.00">ant::expconfig::setup</text>
<text text-anchor="middle" x="417" y="-242" font-family="Helvetica,sans-Serif" font-size="10.00">::Setup_2015_01_Pion</text>
</a>
</g>
</g>
<!-- Node0&#45;&gt;Node14 -->
<g id="edge14" class="edge"><title>Node0&#45;&gt;Node14</title>
<path fill="none" stroke="midnightblue" d="M302.288,-234.029C321.003,-236.658 341.3,-239.508 359.496,-242.064"/>
<polygon fill="midnightblue" stroke="midnightblue" points="302.763,-230.562 292.373,-232.637 301.789,-237.494 302.763,-230.562"/>
</g>
<!-- Node15 -->
<g id="node16" class="node"><title>Node15</title>
<g id="a_node16"><a xlink:href="classant_1_1expconfig_1_1setup_1_1_setup__2017__03.html" target="_top" xlink:title="Common base class for all Setups of the 2014 Ent Point Tagger beam times. ">
<polygon fill="white" stroke="black" points="363,-186 363,-216 471,-216 471,-186 363,-186"/>
<text text-anchor="start" x="371" y="-204" font-family="Helvetica,sans-Serif" font-size="10.00">ant::expconfig::setup</text>
<text text-anchor="middle" x="417" y="-193" font-family="Helvetica,sans-Serif" font-size="10.00">::Setup_2017_03</text>
</a>
</g>
</g>
<!-- Node0&#45;&gt;Node15 -->
<g id="edge15" class="edge"><title>Node0&#45;&gt;Node15</title>
<path fill="none" stroke="midnightblue" d="M302.55,-216.297C322.36,-213.626 343.922,-210.718 362.877,-208.163"/>
<polygon fill="midnightblue" stroke="midnightblue" points="301.816,-212.864 292.373,-217.669 302.751,-219.801 301.816,-212.864"/>
</g>
<!-- Node16 -->
<g id="node17" class="node"><title>Node16</title>
<g id="a_node17"><a xlink:href="classant_1_1expconfig_1_1setup_1_1_setup__2017__05.html" target="_top" xlink:title="Common base class for all Setups of the 2014 Ent Point Tagger beam times. ">
<polygon fill="white" stroke="black" points="363,-137 363,-167 471,-167 471,-137 363,-137"/>
<text text-anchor="start" x="371" y="-155" font-family="Helvetica,sans-Serif" font-size="10.00">ant::expconfig::setup</text>
<text text-anchor="middle" x="417" y="-144" font-family="Helvetica,sans-Serif" font-size="10.00">::Setup_2017_05</text>
</a>
</g>
</g>
<!-- Node0&#45;&gt;Node16 -->
<g id="edge16" class="edge"><title>Node0&#45;&gt;Node16</title>
<path fill="none" stroke="midnightblue" d="M261.624,-210.159C279.36,-199.514 304.527,-185.441 328,-176 339.019,-171.568 351.135,-167.673 362.759,-164.381"/>
<polygon fill="midnightblue" stroke="midnightblue" points="259.792,-207.177 253.075,-215.371 263.436,-213.154 259.792,-207.177"/>
</g>
<!-- Node17 -->
<g id="node18" class="node"><title>Node17</title>
<g id="a_node18"><a xlink:href="classant_1_1expconfig_1_1setup_1_1_setup__2017_plus___new_tagger___base.html" target="_top" xlink:title="Common base class for all Setups starting end of 2017 using the new Tagger. ">
<polygon fill="white" stroke="black" points="328.5,-88 328.5,-118 505.5,-118 505.5,-88 328.5,-88"/>
<text text-anchor="start" x="336.5" y="-106" font-family="Helvetica,sans-Serif" font-size="10.00">ant::expconfig::setup</text>
<text text-anchor="middle" x="417" y="-95" font-family="Helvetica,sans-Serif" font-size="10.00">::Setup_2017Plus_NewTagger_Base</text>
</a>
</g>
</g>
<!-- Node0&#45;&gt;Node17 -->
<g id="edge17" class="edge"><title>Node0&#45;&gt;Node17</title>
<path fill="none" stroke="midnightblue" d="M249.885,-206.753C265.273,-184.587 294.166,-147.609 328,-127 333.68,-123.54 339.865,-120.57 346.237,-118.021"/>
<polygon fill="midnightblue" stroke="midnightblue" points="246.839,-205.009 244.142,-215.255 252.64,-208.927 246.839,-205.009"/>
</g>
<!-- Node20 -->
<g id="node21" class="node"><title>Node20</title>
<g id="a_node21"><a xlink:href="classant_1_1expconfig_1_1setup_1_1_setup___c_b_source_calib.html" target="_top" xlink:title="ant::expconfig::setup\l::Setup_CBSourceCalib">
<polygon fill="white" stroke="black" points="356.5,-39 356.5,-69 477.5,-69 477.5,-39 356.5,-39"/>
<text text-anchor="start" x="364.5" y="-57" font-family="Helvetica,sans-Serif" font-size="10.00">ant::expconfig::setup</text>
<text text-anchor="middle" x="417" y="-46" font-family="Helvetica,sans-Serif" font-size="10.00">::Setup_CBSourceCalib</text>
</a>
</g>
</g>
<!-- Node0&#45;&gt;Node20 -->
<g id="edge20" class="edge"><title>Node0&#45;&gt;Node20</title>
<path fill="none" stroke="midnightblue" d="M244.511,-205.564C256.127,-173.914 283.469,-111.422 328,-78 336.359,-71.7262 346.257,-67.0922 356.345,-63.6693"/>
<polygon fill="midnightblue" stroke="midnightblue" points="241.076,-204.78 241.055,-215.375 247.679,-207.105 241.076,-204.78"/>
</g>
<!-- Node21 -->
<g id="node22" class="node"><title>Node21</title>
<g id="a_node22"><a xlink:href="struct_fake_setup.html" target="_top" xlink:title="Empty fake setup that always matches. Used in case no real setup exists. ">
<polygon fill="white" stroke="black" points="385,-0.5 385,-19.5 449,-19.5 449,-0.5 385,-0.5"/>
<text text-anchor="middle" x="417" y="-7.5" font-family="Helvetica,sans-Serif" font-size="10.00">FakeSetup</text>
</a>
</g>
</g>
<!-- Node0&#45;&gt;Node21 -->
<g id="edge21" class="edge"><title>Node0&#45;&gt;Node21</title>
<path fill="none" stroke="midnightblue" d="M241.072,-205.382C248.395,-165.524 270.742,-74.9705 328,-29 343.966,-16.1814 366.635,-11.5066 384.966,-9.99751"/>
<polygon fill="midnightblue" stroke="midnightblue" points="237.593,-204.959 239.356,-215.406 244.493,-206.14 237.593,-204.959"/>
</g>
<!-- Node1 -->
<g id="node2" class="node"><title>Node1</title>
<g id="a_node2"><a xlink:href="classant_1_1expconfig_1_1_setup__traits.html" target="_top" xlink:title="The Setup_traits class is the interface to the &quot;static&quot; experimental information. ...">
<polygon fill="white" stroke="black" points="18,-254 18,-284 128,-284 128,-254 18,-254"/>
<text text-anchor="start" x="26" y="-272" font-family="Helvetica,sans-Serif" font-size="10.00">ant::expconfig::Setup</text>
<text text-anchor="middle" x="73" y="-261" font-family="Helvetica,sans-Serif" font-size="10.00">_traits</text>
</a>
</g>
</g>
<!-- Node1&#45;&gt;Node0 -->
<g id="edge1" class="edge"><title>Node1&#45;&gt;Node0</title>
<path fill="none" stroke="midnightblue" d="M138.078,-251.596C159.455,-245.79 182.479,-239.537 200.827,-234.553"/>
<polygon fill="midnightblue" stroke="midnightblue" points="137.127,-248.227 128.394,-254.226 138.962,-254.983 137.127,-248.227"/>
</g>
<!-- Node2 -->
<g id="node3" class="node"><title>Node2</title>
<g id="a_node3"><a xlink:href="classant_1_1_unpacker_acqu_config.html" target="_top" xlink:title="ant::UnpackerAcquConfig">
<polygon fill="white" stroke="black" points="8.5,-215.5 8.5,-234.5 137.5,-234.5 137.5,-215.5 8.5,-215.5"/>
<text text-anchor="middle" x="73" y="-222.5" font-family="Helvetica,sans-Serif" font-size="10.00">ant::UnpackerAcquConfig</text>
</a>
</g>
</g>
<!-- Node2&#45;&gt;Node0 -->
<g id="edge2" class="edge"><title>Node2&#45;&gt;Node0</title>
<path fill="none" stroke="midnightblue" d="M147.602,-225C159.113,-225 170.824,-225 181.797,-225"/>
<polygon fill="midnightblue" stroke="midnightblue" points="147.562,-221.5 137.562,-225 147.562,-228.5 147.562,-221.5"/>
</g>
<!-- Node3 -->
<g id="node4" class="node"><title>Node3</title>
<g id="a_node4"><a xlink:href="classant_1_1_unpacker_a2_geant_config.html" target="_top" xlink:title="The UnpackerA2GeantConfig class provides stuff the A2Geant unpacker needs. ">
<polygon fill="white" stroke="black" points="0.5,-177.5 0.5,-196.5 145.5,-196.5 145.5,-177.5 0.5,-177.5"/>
<text text-anchor="middle" x="73" y="-184.5" font-family="Helvetica,sans-Serif" font-size="10.00">ant::UnpackerA2GeantConfig</text>
</a>
</g>
</g>
<!-- Node3&#45;&gt;Node0 -->
<g id="edge3" class="edge"><title>Node3&#45;&gt;Node0</title>
<path fill="none" stroke="midnightblue" d="M124.715,-198.896C147.486,-204.237 173.987,-210.454 195.415,-215.48"/>
<polygon fill="midnightblue" stroke="midnightblue" points="125.415,-195.465 114.879,-196.589 123.816,-202.28 125.415,-195.465"/>
</g>
<!-- Node5 -->
<g id="node6" class="node"><title>Node5</title>
<g id="a_node6"><a xlink:href="classant_1_1expconfig_1_1setup_1_1_setup__2007__06.html" target="_top" xlink:title="Ant Setup for the Juni 2007 beam time. ">
<polygon fill="white" stroke="black" points="558,-480 558,-510 666,-510 666,-480 558,-480"/>
<text text-anchor="start" x="566" y="-498" font-family="Helvetica,sans-Serif" font-size="10.00">ant::expconfig::setup</text>
<text text-anchor="middle" x="612" y="-487" font-family="Helvetica,sans-Serif" font-size="10.00">::Setup_2007_06</text>
</a>
</g>
</g>
<!-- Node4&#45;&gt;Node5 -->
<g id="edge5" class="edge"><title>Node4&#45;&gt;Node5</title>
<path fill="none" stroke="midnightblue" d="M480.958,-461.984C505.835,-468.3 534.109,-475.479 557.925,-481.525"/>
<polygon fill="midnightblue" stroke="midnightblue" points="481.803,-458.588 471.249,-459.519 480.08,-465.372 481.803,-458.588"/>
</g>
<!-- Node6 -->
<g id="node7" class="node"><title>Node6</title>
<g id="a_node7"><a xlink:href="classant_1_1expconfig_1_1setup_1_1_setup__2007__07.html" target="_top" xlink:title="Ant Setup for the July 2007 beam time. ">
<polygon fill="white" stroke="black" points="558,-431 558,-461 666,-461 666,-431 558,-431"/>
<text text-anchor="start" x="566" y="-449" font-family="Helvetica,sans-Serif" font-size="10.00">ant::expconfig::setup</text>
<text text-anchor="middle" x="612" y="-438" font-family="Helvetica,sans-Serif" font-size="10.00">::Setup_2007_07</text>
</a>
</g>
</g>
<!-- Node4&#45;&gt;Node6 -->
<g id="edge6" class="edge"><title>Node4&#45;&gt;Node6</title>
<path fill="none" stroke="midnightblue" d="M481.288,-446C506.085,-446 534.215,-446 557.925,-446"/>
<polygon fill="midnightblue" stroke="midnightblue" points="481.249,-442.5 471.249,-446 481.249,-449.5 481.249,-442.5"/>
</g>
<!-- Node8 -->
<g id="node9" class="node"><title>Node8</title>
<g id="a_node9"><a xlink:href="classant_1_1expconfig_1_1setup_1_1_setup__2010__09___compton.html" target="_top" xlink:title="Ant Setup for the September 2010 beam time. ">
<polygon fill="white" stroke="black" points="544.5,-382 544.5,-412 679.5,-412 679.5,-382 544.5,-382"/>
<text text-anchor="start" x="552.5" y="-400" font-family="Helvetica,sans-Serif" font-size="10.00">ant::expconfig::setup</text>
<text text-anchor="middle" x="612" y="-389" font-family="Helvetica,sans-Serif" font-size="10.00">::Setup_2010_09_Compton</text>
</a>
</g>
</g>
<!-- Node7&#45;&gt;Node8 -->
<g id="edge8" class="edge"><title>Node7&#45;&gt;Node8</title>
<path fill="none" stroke="midnightblue" d="M486.202,-397C505.133,-397 525.658,-397 544.491,-397"/>
<polygon fill="midnightblue" stroke="midnightblue" points="486.168,-393.5 476.168,-397 486.168,-400.5 486.168,-393.5"/>
</g>
<!-- Node11 -->
<g id="node12" class="node"><title>Node11</title>
<g id="a_node12"><a xlink:href="classant_1_1expconfig_1_1setup_1_1_setup__2014__07___e_p_t___prod.html" target="_top" xlink:title="Ant Setup for the July 2014 End Point Tagger beam time. ">
<polygon fill="white" stroke="black" points="542,-333 542,-363 682,-363 682,-333 542,-333"/>
<text text-anchor="start" x="550" y="-351" font-family="Helvetica,sans-Serif" font-size="10.00">ant::expconfig::setup</text>
<text text-anchor="middle" x="612" y="-340" font-family="Helvetica,sans-Serif" font-size="10.00">::Setup_2014_07_EPT_Prod</text>
</a>
</g>
</g>
<!-- Node10&#45;&gt;Node11 -->
<g id="edge11" class="edge"><title>Node10&#45;&gt;Node11</title>
<path fill="none" stroke="midnightblue" d="M481.138,-315.03C503.874,-320.802 529.428,-327.29 551.815,-332.974"/>
<polygon fill="midnightblue" stroke="midnightblue" points="481.803,-311.588 471.249,-312.519 480.08,-318.372 481.803,-311.588"/>
</g>
<!-- Node12 -->
<g id="node13" class="node"><title>Node12</title>
<g id="a_node13"><a xlink:href="classant_1_1expconfig_1_1setup_1_1_setup__2014__10___e_p_t___prod.html" target="_top" xlink:title="Ant Setup for the October 2014 End Point Tagger beam time. ">
<polygon fill="white" stroke="black" points="542,-284 542,-314 682,-314 682,-284 542,-284"/>
<text text-anchor="start" x="550" y="-302" font-family="Helvetica,sans-Serif" font-size="10.00">ant::expconfig::setup</text>
<text text-anchor="middle" x="612" y="-291" font-family="Helvetica,sans-Serif" font-size="10.00">::Setup_2014_10_EPT_Prod</text>
</a>
</g>
</g>
<!-- Node10&#45;&gt;Node12 -->
<g id="edge12" class="edge"><title>Node10&#45;&gt;Node12</title>
<path fill="none" stroke="midnightblue" d="M481.482,-299C500.865,-299 522.269,-299 542,-299"/>
<polygon fill="midnightblue" stroke="midnightblue" points="481.249,-295.5 471.249,-299 481.249,-302.5 481.249,-295.5"/>
</g>
<!-- Node13 -->
<g id="node14" class="node"><title>Node13</title>
<g id="a_node14"><a xlink:href="classant_1_1expconfig_1_1setup_1_1_setup__2014__12___e_p_t___prod.html" target="_top" xlink:title="Ant Setup for the December 2014 End Point Tagger beam time. ">
<polygon fill="white" stroke="black" points="542,-235 542,-265 682,-265 682,-235 542,-235"/>
<text text-anchor="start" x="550" y="-253" font-family="Helvetica,sans-Serif" font-size="10.00">ant::expconfig::setup</text>
<text text-anchor="middle" x="612" y="-242" font-family="Helvetica,sans-Serif" font-size="10.00">::Setup_2014_12_EPT_Prod</text>
</a>
</g>
</g>
<!-- Node10&#45;&gt;Node13 -->
<g id="edge13" class="edge"><title>Node10&#45;&gt;Node13</title>
<path fill="none" stroke="midnightblue" d="M481.138,-282.97C503.874,-277.198 529.428,-270.71 551.815,-265.026"/>
<polygon fill="midnightblue" stroke="midnightblue" points="480.08,-279.628 471.249,-285.481 481.803,-286.412 480.08,-279.628"/>
</g>
<!-- Node18 -->
<g id="node19" class="node"><title>Node18</title>
<g id="a_node19"><a xlink:href="classant_1_1expconfig_1_1setup_1_1_setup__2017__12.html" target="_top" xlink:title="Ant Setup for the December 2017 beamtime using the new Tagger. ">
<polygon fill="white" stroke="black" points="558,-113 558,-143 666,-143 666,-113 558,-113"/>
<text text-anchor="start" x="566" y="-131" font-family="Helvetica,sans-Serif" font-size="10.00">ant::expconfig::setup</text>
<text text-anchor="middle" x="612" y="-120" font-family="Helvetica,sans-Serif" font-size="10.00">::Setup_2017_12</text>
</a>
</g>
</g>
<!-- Node17&#45;&gt;Node18 -->
<g id="edge18" class="edge"><title>Node17&#45;&gt;Node18</title>
<path fill="none" stroke="midnightblue" d="M515.799,-115.668C530.333,-117.551 544.829,-119.429 557.965,-121.13"/>
<polygon fill="midnightblue" stroke="midnightblue" points="516.113,-112.18 505.747,-114.366 515.214,-119.122 516.113,-112.18"/>
</g>
<!-- Node19 -->
<g id="node20" class="node"><title>Node19</title>
<g id="a_node20"><a xlink:href="classant_1_1expconfig_1_1setup_1_1_setup__2018__03.html" target="_top" xlink:title="Ant Setup for the March 2018 beamtime using the new Tagger. ">
<polygon fill="white" stroke="black" points="558,-64 558,-94 666,-94 666,-64 558,-64"/>
<text text-anchor="start" x="566" y="-82" font-family="Helvetica,sans-Serif" font-size="10.00">ant::expconfig::setup</text>
<text text-anchor="middle" x="612" y="-71" font-family="Helvetica,sans-Serif" font-size="10.00">::Setup_2018_03</text>
</a>
</g>
</g>
<!-- Node17&#45;&gt;Node19 -->
<g id="edge19" class="edge"><title>Node17&#45;&gt;Node19</title>
<path fill="none" stroke="midnightblue" d="M515.799,-90.8385C530.333,-89.0311 544.829,-87.2286 557.965,-85.595"/>
<polygon fill="midnightblue" stroke="midnightblue" points="515.238,-87.3812 505.747,-92.0885 516.102,-94.3277 515.238,-87.3812"/>
</g>
</g>
</svg>
