<?xml version="1.0" encoding="UTF-8" standalone="no"?>
<!DOCTYPE svg PUBLIC "-//W3C//DTD SVG 1.1//EN"
 "http://www.w3.org/Graphics/SVG/1.1/DTD/svg11.dtd">
<!-- Generated by graphviz version 2.36.0 (20140111.2315)
 -->
<!-- Title: ant::analysis::physics::JustParticles Pages: 1 -->
<svg width="1370pt" height="351pt"
 viewBox="0.00 0.00 1370.00 351.00" xmlns="http://www.w3.org/2000/svg" xmlns:xlink="http://www.w3.org/1999/xlink">
<g id="graph0" class="graph" transform="scale(1 1) rotate(0) translate(4 347)">
<title>ant::analysis::physics::JustParticles</title>
<polygon fill="white" stroke="none" points="-4,4 -4,-347 1366,-347 1366,4 -4,4"/>
<!-- Node2 -->
<g id="node1" class="node"><title>Node2</title>
<polygon fill="#bfbfbf" stroke="black" points="1250,-130 1250,-160 1362,-160 1362,-130 1250,-130"/>
<text text-anchor="start" x="1258" y="-148" font-family="Helvetica,sans-Serif" font-size="10.00">ant::analysis::physics</text>
<text text-anchor="middle" x="1306" y="-137" font-family="Helvetica,sans-Serif" font-size="10.00">::JustParticles</text>
</g>
<!-- Node3 -->
<g id="node2" class="node"><title>Node3</title>
<g id="a_node2"><a xlink:href="classant_1_1analysis_1_1_physics.html" target="_top" xlink:title="ant::analysis::Physics">
<polygon fill="white" stroke="black" points="1018.5,-254.5 1018.5,-273.5 1131.5,-273.5 1131.5,-254.5 1018.5,-254.5"/>
<text text-anchor="middle" x="1075" y="-261.5" font-family="Helvetica,sans-Serif" font-size="10.00">ant::analysis::Physics</text>
</a>
</g>
</g>
<!-- Node3&#45;&gt;Node2 -->
<g id="edge1" class="edge"><title>Node3&#45;&gt;Node2</title>
<path fill="none" stroke="midnightblue" d="M1132.24,-251.989C1163.2,-243.769 1201.43,-230.883 1232,-212 1255.42,-197.537 1278.08,-174.981 1291.78,-160.098"/>
<polygon fill="midnightblue" stroke="midnightblue" points="1131.28,-248.622 1122.47,-254.496 1133.02,-255.403 1131.28,-248.622"/>
</g>
<!-- Node4 -->
<g id="node3" class="node"><title>Node4</title>
<g id="a_node3"><a xlink:href="classant_1_1analysis_1_1_histogram_factory.html" target="_top" xlink:title="ant::analysis::Histogram\lFactory">
<polygon fill="white" stroke="black" points="723.5,-249 723.5,-279 846.5,-279 846.5,-249 723.5,-249"/>
<text text-anchor="start" x="731.5" y="-267" font-family="Helvetica,sans-Serif" font-size="10.00">ant::analysis::Histogram</text>
<text text-anchor="middle" x="785" y="-256" font-family="Helvetica,sans-Serif" font-size="10.00">Factory</text>
</a>
</g>
</g>
<!-- Node4&#45;&gt;Node3 -->
<g id="edge2" class="edge"><title>Node4&#45;&gt;Node3</title>
<path fill="none" stroke="#9a32cd" stroke-dasharray="5,2" d="M856.771,-264C906.529,-264 972.182,-264 1018.24,-264"/>
<polygon fill="#9a32cd" stroke="#9a32cd" points="856.726,-260.5 846.725,-264 856.725,-267.5 856.726,-260.5"/>
<text text-anchor="middle" x="927" y="-267" font-family="Helvetica,sans-Serif" font-size="10.00"> HistFac</text>
</g>
<!-- Node5 -->
<g id="node4" class="node"><title>Node5</title>
<polygon fill="white" stroke="#bfbfbf" points="1014,-194.5 1014,-235.5 1136,-235.5 1136,-194.5 1014,-194.5"/>
<text text-anchor="start" x="1022" y="-223.5" font-family="Helvetica,sans-Serif" font-size="10.00">std::vector&lt; std::unique</text>
<text text-anchor="start" x="1022" y="-212.5" font-family="Helvetica,sans-Serif" font-size="10.00">_ptr&lt; ant::analysis::utils</text>
<text text-anchor="middle" x="1075" y="-201.5" font-family="Helvetica,sans-Serif" font-size="10.00">::KinFitter &gt; &gt;</text>
</g>
<!-- Node5&#45;&gt;Node2 -->
<g id="edge3" class="edge"><title>Node5&#45;&gt;Node2</title>
<path fill="none" stroke="#9a32cd" stroke-dasharray="5,2" d="M1145.92,-202.126C1173.14,-196.27 1204.38,-188.503 1232,-179 1246.94,-173.861 1262.91,-166.634 1276.1,-160.164"/>
<polygon fill="#9a32cd" stroke="#9a32cd" points="1145.15,-198.711 1136.08,-204.196 1146.59,-205.561 1145.15,-198.711"/>
<text text-anchor="middle" x="1199" y="-200" font-family="Helvetica,sans-Serif" font-size="10.00"> fitters</text>
</g>
<!-- Node6 -->
<g id="node5" class="node"><title>Node6</title>
<polygon fill="white" stroke="#bfbfbf" points="718,-200 718,-230 852,-230 852,-200 718,-200"/>
<text text-anchor="start" x="726" y="-218" font-family="Helvetica,sans-Serif" font-size="10.00">std::unique_ptr&lt; ant</text>
<text text-anchor="middle" x="785" y="-207" font-family="Helvetica,sans-Serif" font-size="10.00">::analysis::utils::KinFitter &gt;</text>
</g>
<!-- Node6&#45;&gt;Node5 -->
<g id="edge4" class="edge"><title>Node6&#45;&gt;Node5</title>
<path fill="none" stroke="#9a32cd" stroke-dasharray="5,2" d="M862.279,-215C909.62,-215 969.607,-215 1013.63,-215"/>
<polygon fill="#9a32cd" stroke="#9a32cd" points="862.073,-211.5 852.073,-215 862.073,-218.5 862.073,-211.5"/>
<text text-anchor="middle" x="927" y="-218" font-family="Helvetica,sans-Serif" font-size="10.00"> elements</text>
</g>
<!-- Node7 -->
<g id="node6" class="node"><title>Node7</title>
<g id="a_node6"><a xlink:href="classant_1_1analysis_1_1utils_1_1_kin_fitter.html" target="_top" xlink:title="ant::analysis::utils\l::KinFitter">
<polygon fill="white" stroke="black" points="478,-215 478,-245 574,-245 574,-215 478,-215"/>
<text text-anchor="start" x="486" y="-233" font-family="Helvetica,sans-Serif" font-size="10.00">ant::analysis::utils</text>
<text text-anchor="middle" x="526" y="-222" font-family="Helvetica,sans-Serif" font-size="10.00">::KinFitter</text>
</a>
</g>
</g>
<!-- Node7&#45;&gt;Node6 -->
<g id="edge5" class="edge"><title>Node7&#45;&gt;Node6</title>
<path fill="none" stroke="#9a32cd" stroke-dasharray="5,2" d="M584.148,-226.665C623.691,-224.357 676.433,-221.278 717.806,-218.863"/>
<polygon fill="#9a32cd" stroke="#9a32cd" points="583.917,-223.172 574.138,-227.249 584.325,-230.16 583.917,-223.172"/>
<text text-anchor="middle" x="648" y="-229" font-family="Helvetica,sans-Serif" font-size="10.00"> ptr</text>
</g>
<!-- Node8 -->
<g id="node7" class="node"><title>Node8</title>
<g id="a_node7"><a xlink:href="classant_1_1analysis_1_1utils_1_1_fitter.html" target="_top" xlink:title="ant::analysis::utils\l::Fitter">
<polygon fill="white" stroke="black" points="283,-313 283,-343 379,-343 379,-313 283,-313"/>
<text text-anchor="start" x="291" y="-331" font-family="Helvetica,sans-Serif" font-size="10.00">ant::analysis::utils</text>
<text text-anchor="middle" x="331" y="-320" font-family="Helvetica,sans-Serif" font-size="10.00">::Fitter</text>
</a>
</g>
</g>
<!-- Node8&#45;&gt;Node7 -->
<g id="edge6" class="edge"><title>Node8&#45;&gt;Node7</title>
<path fill="none" stroke="midnightblue" d="M380.146,-308.958C384.845,-306.988 389.527,-304.981 394,-303 421.989,-290.602 429.194,-287.783 456,-273 471.697,-264.343 488.801,-253.693 502.053,-245.158"/>
<polygon fill="midnightblue" stroke="midnightblue" points="378.439,-305.876 370.534,-312.931 381.113,-312.346 378.439,-305.876"/>
</g>
<!-- Node9 -->
<g id="node8" class="node"><title>Node9</title>
<g id="a_node8"><a xlink:href="structant_1_1analysis_1_1utils_1_1_kin_fitter_1_1_target__t.html" target="_top" xlink:title="ant::analysis::utils\l::KinFitter::Target_t">
<polygon fill="white" stroke="black" points="280.5,-264 280.5,-294 381.5,-294 381.5,-264 280.5,-264"/>
<text text-anchor="start" x="288.5" y="-282" font-family="Helvetica,sans-Serif" font-size="10.00">ant::analysis::utils</text>
<text text-anchor="middle" x="331" y="-271" font-family="Helvetica,sans-Serif" font-size="10.00">::KinFitter::Target_t</text>
</a>
</g>
</g>
<!-- Node9&#45;&gt;Node7 -->
<g id="edge7" class="edge"><title>Node9&#45;&gt;Node7</title>
<path fill="none" stroke="#9a32cd" stroke-dasharray="5,2" d="M391.671,-263.85C419.371,-256.818 451.835,-248.576 477.793,-241.985"/>
<polygon fill="#9a32cd" stroke="#9a32cd" points="390.533,-260.528 381.702,-266.381 392.256,-267.313 390.533,-260.528"/>
<text text-anchor="middle" x="434" y="-261" font-family="Helvetica,sans-Serif" font-size="10.00"> Target</text>
</g>
<!-- Node10 -->
<g id="node9" class="node"><title>Node10</title>
<g id="a_node9"><a xlink:href="structant_1_1analysis_1_1utils_1_1_kin_fitter_1_1_beam_e__t.html" target="_top" xlink:title="ant::analysis::utils\l::KinFitter::BeamE_t">
<polygon fill="white" stroke="black" points="278,-215 278,-245 384,-245 384,-215 278,-215"/>
<text text-anchor="start" x="286" y="-233" font-family="Helvetica,sans-Serif" font-size="10.00">ant::analysis::utils</text>
<text text-anchor="middle" x="331" y="-222" font-family="Helvetica,sans-Serif" font-size="10.00">::KinFitter::BeamE_t</text>
</a>
</g>
</g>
<!-- Node10&#45;&gt;Node7 -->
<g id="edge8" class="edge"><title>Node10&#45;&gt;Node7</title>
<path fill="none" stroke="#9a32cd" stroke-dasharray="5,2" d="M394.374,-230C421.426,-230 452.584,-230 477.684,-230"/>
<polygon fill="#9a32cd" stroke="#9a32cd" points="394.229,-226.5 384.229,-230 394.229,-233.5 394.229,-226.5"/>
<text text-anchor="middle" x="434" y="-233" font-family="Helvetica,sans-Serif" font-size="10.00"> BeamE</text>
</g>
<!-- Node11 -->
<g id="node10" class="node"><title>Node11</title>
<g id="a_node10"><a xlink:href="structant_1_1analysis_1_1utils_1_1_fitter_1_1_v___s___p__t.html" target="_top" xlink:title="ant::analysis::utils\l::Fitter::V_S_P_t">
<polygon fill="white" stroke="black" points="134,-215 134,-245 230,-245 230,-215 134,-215"/>
<text text-anchor="start" x="142" y="-233" font-family="Helvetica,sans-Serif" font-size="10.00">ant::analysis::utils</text>
<text text-anchor="middle" x="182" y="-222" font-family="Helvetica,sans-Serif" font-size="10.00">::Fitter::V_S_P_t</text>
</a>
</g>
</g>
<!-- Node11&#45;&gt;Node10 -->
<g id="edge9" class="edge"><title>Node11&#45;&gt;Node10</title>
<path fill="none" stroke="midnightblue" d="M240.504,-230C252.843,-230 265.814,-230 277.932,-230"/>
<polygon fill="midnightblue" stroke="midnightblue" points="240.321,-226.5 230.321,-230 240.321,-233.5 240.321,-226.5"/>
</g>
<!-- Node12 -->
<g id="node11" class="node"><title>Node12</title>
<g id="a_node11"><a xlink:href="structant_1_1analysis_1_1utils_1_1_fitter_1_1_v___s__t.html" target="_top" xlink:title="ant::analysis::utils\l::Fitter::V_S_t">
<polygon fill="white" stroke="black" points="0,-215 0,-245 96,-245 96,-215 0,-215"/>
<text text-anchor="start" x="8" y="-233" font-family="Helvetica,sans-Serif" font-size="10.00">ant::analysis::utils</text>
<text text-anchor="middle" x="48" y="-222" font-family="Helvetica,sans-Serif" font-size="10.00">::Fitter::V_S_t</text>
</a>
</g>
</g>
<!-- Node12&#45;&gt;Node11 -->
<g id="edge10" class="edge"><title>Node12&#45;&gt;Node11</title>
<path fill="none" stroke="midnightblue" d="M106.403,-230C115.484,-230 124.785,-230 133.604,-230"/>
<polygon fill="midnightblue" stroke="midnightblue" points="106.282,-226.5 96.2822,-230 106.282,-233.5 106.282,-226.5"/>
</g>
<!-- Node13 -->
<g id="node12" class="node"><title>Node13</title>
<polygon fill="white" stroke="#bfbfbf" points="268.5,-176.5 268.5,-195.5 393.5,-195.5 393.5,-176.5 268.5,-176.5"/>
<text text-anchor="middle" x="331" y="-183.5" font-family="Helvetica,sans-Serif" font-size="10.00">std::vector&lt; FitParticle &gt;</text>
</g>
<!-- Node13&#45;&gt;Node7 -->
<g id="edge11" class="edge"><title>Node13&#45;&gt;Node7</title>
<path fill="none" stroke="#9a32cd" stroke-dasharray="5,2" d="M383.9,-197.832C413.127,-204.495 449.352,-212.754 477.779,-219.235"/>
<polygon fill="#9a32cd" stroke="#9a32cd" points="384.406,-194.358 373.878,-195.547 382.85,-201.183 384.406,-194.358"/>
<text text-anchor="middle" x="434" y="-217" font-family="Helvetica,sans-Serif" font-size="10.00"> Photons</text>
</g>
<!-- Node14 -->
<g id="node13" class="node"><title>Node14</title>
<g id="a_node13"><a xlink:href="classant_1_1_piecewise_interval.html" target="_top" xlink:title="ant::PiecewiseInterval\l\&lt; unsigned \&gt;">
<polygon fill="white" stroke="black" points="870.5,-149 870.5,-179 983.5,-179 983.5,-149 870.5,-149"/>
<text text-anchor="start" x="878.5" y="-167" font-family="Helvetica,sans-Serif" font-size="10.00">ant::PiecewiseInterval</text>
<text text-anchor="middle" x="927" y="-156" font-family="Helvetica,sans-Serif" font-size="10.00">&lt; unsigned &gt;</text>
</a>
</g>
</g>
<!-- Node14&#45;&gt;Node2 -->
<g id="edge12" class="edge"><title>Node14&#45;&gt;Node2</title>
<path fill="none" stroke="#9a32cd" stroke-dasharray="5,2" d="M994.123,-161.381C1055.72,-158.841 1150.1,-154.69 1232,-150 1237.71,-149.673 1243.66,-149.307 1249.61,-148.925"/>
<polygon fill="#9a32cd" stroke="#9a32cd" points="993.619,-157.899 983.77,-161.806 993.905,-164.893 993.619,-157.899"/>
<text text-anchor="middle" x="1075" y="-164" font-family="Helvetica,sans-Serif" font-size="10.00"> multiplicities</text>
</g>
<!-- Node15 -->
<g id="node14" class="node"><title>Node15</title>
<g id="a_node14"><a xlink:title="STL class. ">
<polygon fill="white" stroke="#bfbfbf" points="596,-143 596,-173 700,-173 700,-143 596,-143"/>
<text text-anchor="start" x="604" y="-161" font-family="Helvetica,sans-Serif" font-size="10.00">std::vector&lt; interval</text>
<text text-anchor="middle" x="648" y="-150" font-family="Helvetica,sans-Serif" font-size="10.00">&lt; unsigned &gt; &gt;</text>
</a>
</g>
</g>
<!-- Node15&#45;&gt;Node14 -->
<g id="edge13" class="edge"><title>Node15&#45;&gt;Node14</title>
<path fill="none" stroke="midnightblue" d="M710.356,-159.329C758.208,-160.366 824.1,-161.793 870.415,-162.796"/>
<polygon fill="midnightblue" stroke="midnightblue" points="710.202,-155.825 700.129,-159.107 710.051,-162.823 710.202,-155.825"/>
</g>
<!-- Node16 -->
<g id="node15" class="node"><title>Node16</title>
<polygon fill="white" stroke="#bfbfbf" points="316.5,-123.5 316.5,-142.5 345.5,-142.5 345.5,-123.5 316.5,-123.5"/>
<text text-anchor="middle" x="331" y="-130.5" font-family="Helvetica,sans-Serif" font-size="10.00">T</text>
</g>
<!-- Node16&#45;&gt;Node15 -->
<g id="edge14" class="edge"><title>Node16&#45;&gt;Node15</title>
<path fill="none" stroke="#9a32cd" stroke-dasharray="5,2" d="M355.513,-134.866C406.179,-138.887 526.656,-148.449 595.82,-153.938"/>
<polygon fill="#9a32cd" stroke="#9a32cd" points="355.781,-131.376 345.535,-134.074 355.227,-138.355 355.781,-131.376"/>
<text text-anchor="middle" x="434" y="-146" font-family="Helvetica,sans-Serif" font-size="10.00"> elements</text>
</g>
<!-- Node22 -->
<g id="node21" class="node"><title>Node22</title>
<g id="a_node21"><a xlink:title="STL class. ">
<polygon fill="white" stroke="#bfbfbf" points="474,-98 474,-128 578,-128 578,-98 474,-98"/>
<text text-anchor="start" x="482" y="-116" font-family="Helvetica,sans-Serif" font-size="10.00">std::vector&lt; interval</text>
<text text-anchor="middle" x="526" y="-105" font-family="Helvetica,sans-Serif" font-size="10.00">&lt; double &gt; &gt;</text>
</a>
</g>
</g>
<!-- Node16&#45;&gt;Node22 -->
<g id="edge21" class="edge"><title>Node16&#45;&gt;Node22</title>
<path fill="none" stroke="#9a32cd" stroke-dasharray="5,2" d="M355.618,-130.249C371.542,-128.417 393.026,-125.991 412,-124 432.191,-121.882 454.427,-119.687 473.794,-117.821"/>
<polygon fill="#9a32cd" stroke="#9a32cd" points="355.114,-126.784 345.582,-131.409 355.918,-133.737 355.114,-126.784"/>
<text text-anchor="middle" x="434" y="-127" font-family="Helvetica,sans-Serif" font-size="10.00"> elements</text>
</g>
<!-- Node17 -->
<g id="node16" class="node"><title>Node17</title>
<g id="a_node16"><a xlink:href="structant_1_1analysis_1_1physics_1_1_just_particles_1_1_tree__t.html" target="_top" xlink:title="ant::analysis::physics\l::JustParticles::Tree_t">
<polygon fill="white" stroke="black" points="1018.5,-49 1018.5,-79 1131.5,-79 1131.5,-49 1018.5,-49"/>
<text text-anchor="start" x="1026.5" y="-67" font-family="Helvetica,sans-Serif" font-size="10.00">ant::analysis::physics</text>
<text text-anchor="middle" x="1075" y="-56" font-family="Helvetica,sans-Serif" font-size="10.00">::JustParticles::Tree_t</text>
</a>
</g>
</g>
<!-- Node17&#45;&gt;Node2 -->
<g id="edge15" class="edge"><title>Node17&#45;&gt;Node2</title>
<path fill="none" stroke="#9a32cd" stroke-dasharray="5,2" d="M1140.51,-81.8623C1168.85,-90.2186 1202.36,-100.793 1232,-112 1246.05,-117.313 1261.24,-124.016 1274.1,-129.992"/>
<polygon fill="#9a32cd" stroke="#9a32cd" points="1141.3,-78.4453 1130.72,-79.0017 1139.33,-85.1646 1141.3,-78.4453"/>
<text text-anchor="middle" x="1199" y="-115" font-family="Helvetica,sans-Serif" font-size="10.00"> t</text>
</g>
<!-- Node18 -->
<g id="node17" class="node"><title>Node18</title>
<g id="a_node17"><a xlink:href="classant_1_1_wrap_t_tree.html" target="_top" xlink:title="The WrapTTree struct simplifies TTree handling in physics classes. ">
<polygon fill="white" stroke="black" points="742.5,-54.5 742.5,-73.5 827.5,-73.5 827.5,-54.5 742.5,-54.5"/>
<text text-anchor="middle" x="785" y="-61.5" font-family="Helvetica,sans-Serif" font-size="10.00">ant::WrapTTree</text>
</a>
</g>
</g>
<!-- Node18&#45;&gt;Node17 -->
<g id="edge16" class="edge"><title>Node18&#45;&gt;Node17</title>
<path fill="none" stroke="midnightblue" d="M837.697,-64C888.608,-64 966.127,-64 1018.36,-64"/>
<polygon fill="midnightblue" stroke="midnightblue" points="837.57,-60.5001 827.57,-64 837.57,-67.5001 837.57,-60.5001"/>
</g>
<!-- Node19 -->
<g id="node18" class="node"><title>Node19</title>
<g id="a_node18"><a xlink:href="classant_1_1analysis_1_1utils_1_1_trigger_simulation.html" target="_top" xlink:title="ant::analysis::utils\l::TriggerSimulation">
<polygon fill="white" stroke="black" points="1026,-0 1026,-30 1124,-30 1124,-0 1026,-0"/>
<text text-anchor="start" x="1034" y="-18" font-family="Helvetica,sans-Serif" font-size="10.00">ant::analysis::utils</text>
<text text-anchor="middle" x="1075" y="-7" font-family="Helvetica,sans-Serif" font-size="10.00">::TriggerSimulation</text>
</a>
</g>
</g>
<!-- Node19&#45;&gt;Node2 -->
<g id="edge17" class="edge"><title>Node19&#45;&gt;Node2</title>
<path fill="none" stroke="#9a32cd" stroke-dasharray="5,2" d="M1133.98,-31.1143C1164.65,-41.2121 1202.05,-56.1167 1232,-76 1255.39,-91.5291 1278.23,-114.817 1291.97,-129.962"/>
<polygon fill="#9a32cd" stroke="#9a32cd" points="1134.86,-27.7232 1124.27,-28.0045 1132.73,-34.3893 1134.86,-27.7232"/>
<text text-anchor="middle" x="1199" y="-79" font-family="Helvetica,sans-Serif" font-size="10.00"> triggersimu</text>
</g>
<!-- Node20 -->
<g id="node19" class="node"><title>Node20</title>
<g id="a_node19"><a xlink:href="classant_1_1analysis_1_1_prompt_random_1_1_switch.html" target="_top" xlink:title="ant::analysis::PromptRandom\l::Switch">
<polygon fill="white" stroke="black" points="1002,-98 1002,-128 1148,-128 1148,-98 1002,-98"/>
<text text-anchor="start" x="1010" y="-116" font-family="Helvetica,sans-Serif" font-size="10.00">ant::analysis::PromptRandom</text>
<text text-anchor="middle" x="1075" y="-105" font-family="Helvetica,sans-Serif" font-size="10.00">::Switch</text>
</a>
</g>
</g>
<!-- Node20&#45;&gt;Node2 -->
<g id="edge18" class="edge"><title>Node20&#45;&gt;Node2</title>
<path fill="none" stroke="#9a32cd" stroke-dasharray="5,2" d="M1158.32,-124.504C1188.76,-128.756 1222.49,-133.47 1249.93,-137.304"/>
<polygon fill="#9a32cd" stroke="#9a32cd" points="1158.53,-120.999 1148.14,-123.081 1157.56,-127.931 1158.53,-120.999"/>
<text text-anchor="middle" x="1199" y="-138" font-family="Helvetica,sans-Serif" font-size="10.00"> promptrandom</text>
</g>
<!-- Node21 -->
<g id="node20" class="node"><title>Node21</title>
<g id="a_node20"><a xlink:href="classant_1_1_piecewise_interval.html" target="_top" xlink:title="ant::PiecewiseInterval\l\&lt; double \&gt;">
<polygon fill="white" stroke="black" points="728.5,-98 728.5,-128 841.5,-128 841.5,-98 728.5,-98"/>
<text text-anchor="start" x="736.5" y="-116" font-family="Helvetica,sans-Serif" font-size="10.00">ant::PiecewiseInterval</text>
<text text-anchor="middle" x="785" y="-105" font-family="Helvetica,sans-Serif" font-size="10.00">&lt; double &gt;</text>
</a>
</g>
</g>
<!-- Node21&#45;&gt;Node20 -->
<g id="edge19" class="edge"><title>Node21&#45;&gt;Node20</title>
<path fill="none" stroke="#9a32cd" stroke-dasharray="5,2" d="M851.725,-113C896.541,-113 955.89,-113 1001.99,-113"/>
<polygon fill="#9a32cd" stroke="#9a32cd" points="851.529,-109.5 841.529,-113 851.529,-116.5 851.529,-109.5"/>
<text text-anchor="middle" x="927" y="-127" font-family="Helvetica,sans-Serif" font-size="10.00"> promptw</text>
<text text-anchor="middle" x="927" y="-116" font-family="Helvetica,sans-Serif" font-size="10.00">randomw</text>
</g>
<!-- Node22&#45;&gt;Node21 -->
<g id="edge20" class="edge"><title>Node22&#45;&gt;Node21</title>
<path fill="none" stroke="midnightblue" d="M588.294,-113C630.765,-113 686.866,-113 728.111,-113"/>
<polygon fill="midnightblue" stroke="midnightblue" points="588.082,-109.5 578.082,-113 588.082,-116.5 588.082,-109.5"/>
</g>
</g>
</svg>
