<?xml version="1.0" encoding="UTF-8" standalone="no"?>
<!DOCTYPE svg PUBLIC "-//W3C//DTD SVG 1.1//EN"
 "http://www.w3.org/Graphics/SVG/1.1/DTD/svg11.dtd">
<!-- Generated by graphviz version 2.36.0 (20140111.2315)
 -->
<!-- Title: src/analysis/physics/scratch Pages: 1 -->
<svg width="802pt" height="555pt"
 viewBox="0.00 0.00 802.00 555.00" xmlns="http://www.w3.org/2000/svg" xmlns:xlink="http://www.w3.org/1999/xlink">
<g id="graph0" class="graph" transform="scale(1 1) rotate(0) translate(4 551)">
<title>src/analysis/physics/scratch</title>
<polygon fill="white" stroke="none" points="-4,4 -4,-551 798,-551 798,4 -4,4"/>
<g id="clust1" class="cluster"><title>clusterdir_a21a804d6482c442bcd1b39e4dfcc179</title>
<g id="a_clust1"><a xlink:href="dir_a21a804d6482c442bcd1b39e4dfcc179.html" target="_top" xlink:title="physics">
<polygon fill="#ddddee" stroke="black" points="235,-416 235,-503 609,-503 609,-416 235,-416"/>
<text text-anchor="middle" x="422" y="-491" font-family="Helvetica,sans-Serif" font-size="10.00">physics</text>
</a>
</g>
</g>
<g id="clust2" class="cluster"><title>clusterdir_15cb7383784026d829002226dc1288d7</title>
<g id="a_clust2"><a xlink:href="dir_15cb7383784026d829002226dc1288d7.html" target="_top">
<polygon fill="#eeeeff" stroke="black" points="243,-424 243,-476 601,-476 601,-424 243,-424"/>
</a>
</g>
</g>
<!-- dir_15cb7383784026d829002226dc1288d7 -->
<g id="node1" class="node"><title>dir_15cb7383784026d829002226dc1288d7</title>
<text text-anchor="middle" x="566" y="-447.5" font-family="Helvetica,sans-Serif" font-size="10.00">scratch</text>
</g>
<!-- dir_c0012d398dc023eb3dc9a68dc92160cd -->
<g id="node2" class="node"><title>dir_c0012d398dc023eb3dc9a68dc92160cd</title>
<g id="a_node2"><a xlink:href="dir_c0012d398dc023eb3dc9a68dc92160cd.html" target="_top" xlink:title="collicott">
<polygon fill="white" stroke="black" points="521,-468 467,-468 467,-432 521,-432 521,-468"/>
<text text-anchor="middle" x="494" y="-447.5" font-family="Helvetica,sans-Serif" font-size="10.00">collicott</text>
</a>
</g>
</g>
<!-- dir_0a0aa297e888439a92fbcfd5e567f128 -->
<g id="node6" class="node"><title>dir_0a0aa297e888439a92fbcfd5e567f128</title>
<g id="a_node6"><a xlink:href="dir_0a0aa297e888439a92fbcfd5e567f128.html" target="_top" xlink:title="utils">
<polygon fill="white" stroke="red" points="348,-396 294,-396 294,-360 348,-360 348,-396"/>
<text text-anchor="middle" x="321" y="-375.5" font-family="Helvetica,sans-Serif" font-size="10.00">utils</text>
</a>
</g>
</g>
<!-- dir_c0012d398dc023eb3dc9a68dc92160cd&#45;&gt;dir_0a0aa297e888439a92fbcfd5e567f128 -->
<g id="edge42" class="edge"><title>dir_c0012d398dc023eb3dc9a68dc92160cd&#45;&gt;dir_0a0aa297e888439a92fbcfd5e567f128</title>
<path fill="none" stroke="black" d="M478.946,-431.825C472.974,-425.985 465.696,-419.945 458,-416 419.216,-396.119 403.646,-408.847 362,-396 360.573,-395.56 359.128,-395.089 357.674,-394.595"/>
<polygon fill="black" stroke="black" points="358.679,-391.235 348.085,-391.065 356.261,-397.804 358.679,-391.235"/>
<g id="a_edge42&#45;headlabel"><a xlink:href="dir_000028_000034.html" target="_top" xlink:title="8">
<text text-anchor="middle" x="363.033" y="-387.312" font-family="Helvetica,sans-Serif" font-size="10.00">8</text>
</a>
</g>
</g>
<!-- dir_0af1587c8378955de40f48b4bd1869f0 -->
<g id="node7" class="node"><title>dir_0af1587c8378955de40f48b4bd1869f0</title>
<g id="a_node7"><a xlink:href="dir_0af1587c8378955de40f48b4bd1869f0.html" target="_top" xlink:title="base">
<polygon fill="white" stroke="red" points="385,-36 331,-36 331,-0 385,-0 385,-36"/>
<text text-anchor="middle" x="358" y="-15.5" font-family="Helvetica,sans-Serif" font-size="10.00">base</text>
</a>
</g>
</g>
<!-- dir_c0012d398dc023eb3dc9a68dc92160cd&#45;&gt;dir_0af1587c8378955de40f48b4bd1869f0 -->
<g id="edge43" class="edge"><title>dir_c0012d398dc023eb3dc9a68dc92160cd&#45;&gt;dir_0af1587c8378955de40f48b4bd1869f0</title>
<path fill="none" stroke="black" d="M508.575,-431.906C514.596,-425.929 522.031,-419.775 530,-416 586.405,-389.279 624.232,-439.489 669,-396 749.73,-317.577 716.722,-254.232 694,-144 686.966,-109.877 690.349,-93.5844 663,-72 621.985,-39.6296 467.327,-25.857 395.316,-21.1049"/>
<polygon fill="black" stroke="black" points="395.516,-17.6107 385.314,-20.4681 395.071,-24.5965 395.516,-17.6107"/>
<g id="a_edge43&#45;headlabel"><a xlink:href="dir_000028_000018.html" target="_top" xlink:title="11">
<text text-anchor="middle" x="399.284" y="-12.5054" font-family="Helvetica,sans-Serif" font-size="10.00">11</text>
</a>
</g>
</g>
<!-- dir_c4f4646ab0f4a2967be5b6215a500c22 -->
<g id="node10" class="node"><title>dir_c4f4646ab0f4a2967be5b6215a500c22</title>
<g id="a_node10"><a xlink:href="dir_c4f4646ab0f4a2967be5b6215a500c22.html" target="_top" xlink:title="expconfig">
<polygon fill="white" stroke="red" points="387.25,-180 328.75,-180 328.75,-144 387.25,-144 387.25,-180"/>
<text text-anchor="middle" x="358" y="-159.5" font-family="Helvetica,sans-Serif" font-size="10.00">expconfig</text>
</a>
</g>
</g>
<!-- dir_c0012d398dc023eb3dc9a68dc92160cd&#45;&gt;dir_c4f4646ab0f4a2967be5b6215a500c22 -->
<g id="edge44" class="edge"><title>dir_c0012d398dc023eb3dc9a68dc92160cd&#45;&gt;dir_c4f4646ab0f4a2967be5b6215a500c22</title>
<path fill="none" stroke="black" d="M487.915,-431.81C473.722,-392.489 436.394,-293.411 394,-216 388.924,-206.732 382.658,-197.044 376.784,-188.524"/>
<polygon fill="black" stroke="black" points="379.493,-186.291 370.871,-180.134 373.771,-190.324 379.493,-186.291"/>
<g id="a_edge44&#45;headlabel"><a xlink:href="dir_000028_000038.html" target="_top" xlink:title="3">
<text text-anchor="middle" x="383.884" y="-185.094" font-family="Helvetica,sans-Serif" font-size="10.00">3</text>
</a>
</g>
</g>
<!-- dir_8f68c37b22d514b4289e3a1255795d80 -->
<g id="node11" class="node"><title>dir_8f68c37b22d514b4289e3a1255795d80</title>
<g id="a_node11"><a xlink:href="dir_8f68c37b22d514b4289e3a1255795d80.html" target="_top" xlink:title="plot">
<polygon fill="none" stroke="black" points="227,-324 173,-324 173,-288 227,-288 227,-324"/>
<text text-anchor="middle" x="200" y="-303.5" font-family="Helvetica,sans-Serif" font-size="10.00">plot</text>
</a>
</g>
</g>
<!-- dir_c0012d398dc023eb3dc9a68dc92160cd&#45;&gt;dir_8f68c37b22d514b4289e3a1255795d80 -->
<g id="edge45" class="edge"><title>dir_c0012d398dc023eb3dc9a68dc92160cd&#45;&gt;dir_8f68c37b22d514b4289e3a1255795d80</title>
<path fill="none" stroke="black" d="M476.766,-431.676C471.039,-426.344 464.467,-420.657 458,-416 416.349,-386.006 403.951,-380.737 357,-360 317.107,-342.38 269.407,-327.043 237.135,-317.464"/>
<polygon fill="black" stroke="black" points="237.81,-314.014 227.229,-314.56 235.841,-320.732 237.81,-314.014"/>
<g id="a_edge45&#45;headlabel"><a xlink:href="dir_000028_000035.html" target="_top" xlink:title="7">
<text text-anchor="middle" x="242.058" y="-309.801" font-family="Helvetica,sans-Serif" font-size="10.00">7</text>
</a>
</g>
</g>
<!-- dir_f7cc278301683119f8719a92f4ffdd26 -->
<g id="node13" class="node"><title>dir_f7cc278301683119f8719a92f4ffdd26</title>
<g id="a_node13"><a xlink:href="dir_f7cc278301683119f8719a92f4ffdd26.html" target="_top" xlink:title="slowcontrol">
<polygon fill="white" stroke="red" points="660,-396 594,-396 594,-360 660,-360 660,-396"/>
<text text-anchor="middle" x="627" y="-375.5" font-family="Helvetica,sans-Serif" font-size="10.00">slowcontrol</text>
</a>
</g>
</g>
<!-- dir_c0012d398dc023eb3dc9a68dc92160cd&#45;&gt;dir_f7cc278301683119f8719a92f4ffdd26 -->
<g id="edge46" class="edge"><title>dir_c0012d398dc023eb3dc9a68dc92160cd&#45;&gt;dir_f7cc278301683119f8719a92f4ffdd26</title>
<path fill="none" stroke="black" d="M510.133,-431.794C515.998,-426.225 522.93,-420.365 530,-416 535.055,-412.879 560.628,-403.16 584.247,-394.466"/>
<polygon fill="black" stroke="black" points="585.654,-397.678 593.839,-390.951 583.245,-391.106 585.654,-397.678"/>
<g id="a_edge46&#45;headlabel"><a xlink:href="dir_000028_000011.html" target="_top" xlink:title="2">
<text text-anchor="middle" x="583.255" y="-399.081" font-family="Helvetica,sans-Serif" font-size="10.00">2</text>
</a>
</g>
</g>
<!-- dir_716105908d65503d9b432afdeae049d0 -->
<g id="node3" class="node"><title>dir_716105908d65503d9b432afdeae049d0</title>
<g id="a_node3"><a xlink:href="dir_716105908d65503d9b432afdeae049d0.html" target="_top" xlink:title="lheijken">
<polygon fill="white" stroke="black" points="377,-468 323,-468 323,-432 377,-432 377,-468"/>
<text text-anchor="middle" x="350" y="-447.5" font-family="Helvetica,sans-Serif" font-size="10.00">lheijken</text>
</a>
</g>
</g>
<!-- dir_716105908d65503d9b432afdeae049d0&#45;&gt;dir_0a0aa297e888439a92fbcfd5e567f128 -->
<g id="edge9" class="edge"><title>dir_716105908d65503d9b432afdeae049d0&#45;&gt;dir_0a0aa297e888439a92fbcfd5e567f128</title>
<path fill="none" stroke="black" d="M342.831,-431.697C339.565,-423.813 335.626,-414.304 331.998,-405.546"/>
<polygon fill="black" stroke="black" points="335.147,-404.003 328.086,-396.104 328.68,-406.683 335.147,-404.003"/>
<g id="a_edge9&#45;headlabel"><a xlink:href="dir_000029_000034.html" target="_top" xlink:title="8">
<text text-anchor="middle" x="339.146" y="-403.738" font-family="Helvetica,sans-Serif" font-size="10.00">8</text>
</a>
</g>
</g>
<!-- dir_716105908d65503d9b432afdeae049d0&#45;&gt;dir_0af1587c8378955de40f48b4bd1869f0 -->
<g id="edge10" class="edge"><title>dir_716105908d65503d9b432afdeae049d0&#45;&gt;dir_0af1587c8378955de40f48b4bd1869f0</title>
<path fill="none" stroke="black" d="M334.937,-431.842C328.964,-426.005 321.688,-419.961 314,-416 276.031,-396.436 256.196,-418.678 220,-396 144.372,-348.617 100,-324.245 100,-235 100,-235 100,-235 100,-161 100,-61.3447 249.564,-31.1231 320.941,-22.3745"/>
<polygon fill="black" stroke="black" points="321.342,-25.8516 330.877,-21.2339 320.543,-18.8973 321.342,-25.8516"/>
<g id="a_edge10&#45;headlabel"><a xlink:href="dir_000029_000018.html" target="_top" xlink:title="10">
<text text-anchor="middle" x="318.094" y="-26.5822" font-family="Helvetica,sans-Serif" font-size="10.00">10</text>
</a>
</g>
</g>
<!-- dir_716105908d65503d9b432afdeae049d0&#45;&gt;dir_c4f4646ab0f4a2967be5b6215a500c22 -->
<g id="edge11" class="edge"><title>dir_716105908d65503d9b432afdeae049d0&#45;&gt;dir_c4f4646ab0f4a2967be5b6215a500c22</title>
<path fill="none" stroke="black" d="M352.752,-431.864C354.292,-421.51 356.083,-408.031 357,-396 363.081,-316.22 361.509,-295.997 360,-216 359.843,-207.678 359.548,-198.626 359.231,-190.396"/>
<polygon fill="black" stroke="black" points="362.719,-190.029 358.813,-180.181 355.725,-190.316 362.719,-190.029"/>
<g id="a_edge11&#45;headlabel"><a xlink:href="dir_000029_000038.html" target="_top" xlink:title="3">
<text text-anchor="middle" x="365.703" y="-191.005" font-family="Helvetica,sans-Serif" font-size="10.00">3</text>
</a>
</g>
</g>
<!-- dir_716105908d65503d9b432afdeae049d0&#45;&gt;dir_8f68c37b22d514b4289e3a1255795d80 -->
<g id="edge12" class="edge"><title>dir_716105908d65503d9b432afdeae049d0&#45;&gt;dir_8f68c37b22d514b4289e3a1255795d80</title>
<path fill="none" stroke="black" d="M334.352,-431.923C328.424,-426.232 321.328,-420.264 314,-416 288.975,-401.438 274.568,-414.139 252,-396 231.834,-379.792 217.861,-353.505 209.517,-333.693"/>
<polygon fill="black" stroke="black" points="212.721,-332.279 205.768,-324.286 206.219,-334.871 212.721,-332.279"/>
<g id="a_edge12&#45;headlabel"><a xlink:href="dir_000029_000035.html" target="_top" xlink:title="4">
<text text-anchor="middle" x="216.69" y="-332.067" font-family="Helvetica,sans-Serif" font-size="10.00">4</text>
</a>
</g>
</g>
<!-- dir_716105908d65503d9b432afdeae049d0&#45;&gt;dir_f7cc278301683119f8719a92f4ffdd26 -->
<g id="edge13" class="edge"><title>dir_716105908d65503d9b432afdeae049d0&#45;&gt;dir_f7cc278301683119f8719a92f4ffdd26</title>
<path fill="none" stroke="black" d="M364.594,-431.946C370.617,-425.974 378.049,-419.813 386,-416 449.963,-385.327 533.456,-378.957 583.501,-378.215"/>
<polygon fill="black" stroke="black" points="583.681,-381.714 593.654,-378.136 583.627,-374.714 583.681,-381.714"/>
<g id="a_edge13&#45;headlabel"><a xlink:href="dir_000029_000011.html" target="_top" xlink:title="1">
<text text-anchor="middle" x="580.109" y="-382.081" font-family="Helvetica,sans-Serif" font-size="10.00">1</text>
</a>
</g>
</g>
<!-- dir_374139fad1b6159fdced03a3e933469f -->
<g id="node4" class="node"><title>dir_374139fad1b6159fdced03a3e933469f</title>
<g id="a_node4"><a xlink:href="dir_374139fad1b6159fdced03a3e933469f.html" target="_top" xlink:title="sobotzik">
<polygon fill="white" stroke="black" points="305,-468 251,-468 251,-432 305,-432 305,-468"/>
<text text-anchor="middle" x="278" y="-447.5" font-family="Helvetica,sans-Serif" font-size="10.00">sobotzik</text>
</a>
</g>
</g>
<!-- dir_374139fad1b6159fdced03a3e933469f&#45;&gt;dir_0a0aa297e888439a92fbcfd5e567f128 -->
<g id="edge1" class="edge"><title>dir_374139fad1b6159fdced03a3e933469f&#45;&gt;dir_0a0aa297e888439a92fbcfd5e567f128</title>
<path fill="none" stroke="black" d="M288.629,-431.697C293.628,-423.559 299.691,-413.689 305.212,-404.701"/>
<polygon fill="black" stroke="black" points="308.241,-406.457 310.493,-396.104 302.277,-402.793 308.241,-406.457"/>
<g id="a_edge1&#45;headlabel"><a xlink:href="dir_000030_000034.html" target="_top" xlink:title="3">
<text text-anchor="middle" x="308.779" y="-408.506" font-family="Helvetica,sans-Serif" font-size="10.00">3</text>
</a>
</g>
</g>
<!-- dir_374139fad1b6159fdced03a3e933469f&#45;&gt;dir_0af1587c8378955de40f48b4bd1869f0 -->
<g id="edge2" class="edge"><title>dir_374139fad1b6159fdced03a3e933469f&#45;&gt;dir_0af1587c8378955de40f48b4bd1869f0</title>
<path fill="none" stroke="black" d="M250.838,-447.679C180.886,-442.674 0,-418.914 0,-307 0,-307 0,-307 0,-161 0,-96.7213 55.7994,-99.2844 114,-72 182.563,-39.8578 271.166,-26.9032 320.536,-21.9163"/>
<polygon fill="black" stroke="black" points="321.124,-25.3762 330.747,-20.9428 320.46,-18.4078 321.124,-25.3762"/>
<g id="a_edge2&#45;headlabel"><a xlink:href="dir_000030_000018.html" target="_top" xlink:title="2">
<text text-anchor="middle" x="317.815" y="-26.0437" font-family="Helvetica,sans-Serif" font-size="10.00">2</text>
</a>
</g>
</g>
<!-- dir_ebac6f698c8ed4b70faacb8ef35cbe0d -->
<g id="node9" class="node"><title>dir_ebac6f698c8ed4b70faacb8ef35cbe0d</title>
<g id="a_node9"><a xlink:href="dir_ebac6f698c8ed4b70faacb8ef35cbe0d.html" target="_top" xlink:title="root&#45;addons">
<polygon fill="white" stroke="red" points="234,-252 166,-252 166,-216 234,-216 234,-252"/>
<text text-anchor="middle" x="200" y="-231.5" font-family="Helvetica,sans-Serif" font-size="10.00">root&#45;addons</text>
</a>
</g>
</g>
<!-- dir_374139fad1b6159fdced03a3e933469f&#45;&gt;dir_ebac6f698c8ed4b70faacb8ef35cbe0d -->
<g id="edge3" class="edge"><title>dir_374139fad1b6159fdced03a3e933469f&#45;&gt;dir_ebac6f698c8ed4b70faacb8ef35cbe0d</title>
<path fill="none" stroke="black" d="M250.8,-435.527C234.181,-426.228 213.421,-412.57 199,-396 175.641,-369.161 171.981,-358.674 164,-324 160.411,-308.408 159.297,-303.293 164,-288 167.009,-278.215 172.507,-268.616 178.316,-260.334"/>
<polygon fill="black" stroke="black" points="181.195,-262.328 184.39,-252.226 175.593,-258.131 181.195,-262.328"/>
<g id="a_edge3&#45;headlabel"><a xlink:href="dir_000030_000022.html" target="_top" xlink:title="1">
<text text-anchor="middle" x="181.312" y="-264.407" font-family="Helvetica,sans-Serif" font-size="10.00">1</text>
</a>
</g>
</g>
<!-- dir_374139fad1b6159fdced03a3e933469f&#45;&gt;dir_8f68c37b22d514b4289e3a1255795d80 -->
<g id="edge4" class="edge"><title>dir_374139fad1b6159fdced03a3e933469f&#45;&gt;dir_8f68c37b22d514b4289e3a1255795d80</title>
<path fill="none" stroke="black" d="M250.91,-433.21C237.652,-424.049 222.708,-411.295 214,-396 203.326,-377.252 200.09,-352.87 199.375,-334.368"/>
<polygon fill="black" stroke="black" points="202.873,-334.182 199.209,-324.241 195.874,-334.297 202.873,-334.182"/>
<g id="a_edge4&#45;headlabel"><a xlink:href="dir_000030_000035.html" target="_top" xlink:title="1">
<text text-anchor="middle" x="205.771" y="-335.229" font-family="Helvetica,sans-Serif" font-size="10.00">1</text>
</a>
</g>
</g>
<!-- dir_dd6dc6d8f56905e70717c35413470cc3 -->
<g id="node5" class="node"><title>dir_dd6dc6d8f56905e70717c35413470cc3</title>
<g id="a_node5"><a xlink:href="dir_dd6dc6d8f56905e70717c35413470cc3.html" target="_top" xlink:title="wolfes">
<polygon fill="white" stroke="red" points="449,-468 395,-468 395,-432 449,-432 449,-468"/>
<text text-anchor="middle" x="422" y="-447.5" font-family="Helvetica,sans-Serif" font-size="10.00">wolfes</text>
</a>
</g>
</g>
<!-- dir_dd6dc6d8f56905e70717c35413470cc3&#45;&gt;dir_0a0aa297e888439a92fbcfd5e567f128 -->
<g id="edge15" class="edge"><title>dir_dd6dc6d8f56905e70717c35413470cc3&#45;&gt;dir_0a0aa297e888439a92fbcfd5e567f128</title>
<path fill="none" stroke="black" d="M404.735,-431.719C399.006,-426.39 392.441,-420.694 386,-416 377.013,-409.452 366.766,-403.144 357.107,-397.649"/>
<polygon fill="black" stroke="black" points="358.529,-394.436 348.086,-392.648 355.135,-400.558 358.529,-394.436"/>
<g id="a_edge15&#45;headlabel"><a xlink:href="dir_000006_000034.html" target="_top" xlink:title="3">
<text text-anchor="middle" x="363.05" y="-391.196" font-family="Helvetica,sans-Serif" font-size="10.00">3</text>
</a>
</g>
</g>
<!-- dir_dd6dc6d8f56905e70717c35413470cc3&#45;&gt;dir_0af1587c8378955de40f48b4bd1869f0 -->
<g id="edge16" class="edge"><title>dir_dd6dc6d8f56905e70717c35413470cc3&#45;&gt;dir_0af1587c8378955de40f48b4bd1869f0</title>
<path fill="none" stroke="black" d="M429.881,-431.684C454.292,-375.254 522.874,-193.324 452,-72 439.681,-50.9127 415.535,-37.5586 394.801,-29.5298"/>
<polygon fill="black" stroke="black" points="395.861,-26.1919 385.267,-26.1064 393.496,-32.7801 395.861,-26.1919"/>
<g id="a_edge16&#45;headlabel"><a xlink:href="dir_000006_000018.html" target="_top" xlink:title="6">
<text text-anchor="middle" x="400.204" y="-22.2344" font-family="Helvetica,sans-Serif" font-size="10.00">6</text>
</a>
</g>
</g>
<!-- dir_c44c95bf3b41c3321c6014770d618ac8 -->
<g id="node8" class="node"><title>dir_c44c95bf3b41c3321c6014770d618ac8</title>
<g id="a_node8"><a xlink:href="dir_c44c95bf3b41c3321c6014770d618ac8.html" target="_top" xlink:title="tree">
<polygon fill="none" stroke="black" points="443,-108 389,-108 389,-72 443,-72 443,-108"/>
<text text-anchor="middle" x="416" y="-87.5" font-family="Helvetica,sans-Serif" font-size="10.00">tree</text>
</a>
</g>
</g>
<!-- dir_dd6dc6d8f56905e70717c35413470cc3&#45;&gt;dir_c44c95bf3b41c3321c6014770d618ac8 -->
<g id="edge17" class="edge"><title>dir_dd6dc6d8f56905e70717c35413470cc3&#45;&gt;dir_c44c95bf3b41c3321c6014770d618ac8</title>
<path fill="none" stroke="black" d="M422.813,-431.819C423.262,-421.448 423.774,-407.968 424,-396 424.302,-380.003 424.238,-375.998 424,-360 422.686,-271.616 418.945,-166.95 417.082,-118.341"/>
<polygon fill="black" stroke="black" points="420.577,-118.162 416.693,-108.305 413.583,-118.433 420.577,-118.162"/>
<g id="a_edge17&#45;headlabel"><a xlink:href="dir_000006_000058.html" target="_top" xlink:title="3">
<text text-anchor="middle" x="423.554" y="-119.144" font-family="Helvetica,sans-Serif" font-size="10.00">3</text>
</a>
</g>
</g>
<!-- dir_dd6dc6d8f56905e70717c35413470cc3&#45;&gt;dir_c4f4646ab0f4a2967be5b6215a500c22 -->
<g id="edge18" class="edge"><title>dir_dd6dc6d8f56905e70717c35413470cc3&#45;&gt;dir_c4f4646ab0f4a2967be5b6215a500c22</title>
<path fill="none" stroke="black" d="M419.222,-431.895C412.785,-393.155 395.796,-295.869 375,-216 372.75,-207.357 369.908,-198.047 367.196,-189.678"/>
<polygon fill="black" stroke="black" points="370.471,-188.433 364,-180.044 363.827,-190.638 370.471,-188.433"/>
<g id="a_edge18&#45;headlabel"><a xlink:href="dir_000006_000038.html" target="_top" xlink:title="4">
<text text-anchor="middle" x="374.298" y="-188.451" font-family="Helvetica,sans-Serif" font-size="10.00">4</text>
</a>
</g>
</g>
<!-- dir_dd6dc6d8f56905e70717c35413470cc3&#45;&gt;dir_8f68c37b22d514b4289e3a1255795d80 -->
<g id="edge19" class="edge"><title>dir_dd6dc6d8f56905e70717c35413470cc3&#45;&gt;dir_8f68c37b22d514b4289e3a1255795d80</title>
<path fill="none" stroke="black" d="M406.967,-431.783C400.998,-425.939 393.715,-419.907 386,-416 345.175,-395.328 324.889,-418.426 285,-396 266.08,-385.363 266.936,-375.749 252,-360 242.991,-350.501 232.946,-340.197 224.105,-331.222"/>
<polygon fill="black" stroke="black" points="226.529,-328.695 217.01,-324.042 221.549,-333.616 226.529,-328.695"/>
<g id="a_edge19&#45;headlabel"><a xlink:href="dir_000006_000035.html" target="_top" xlink:title="1">
<text text-anchor="middle" x="231.075" y="-326.757" font-family="Helvetica,sans-Serif" font-size="10.00">1</text>
</a>
</g>
</g>
<!-- dir_e884bea2662087624c49c4b98ba4353a -->
<g id="node12" class="node"><title>dir_e884bea2662087624c49c4b98ba4353a</title>
<g id="a_node12"><a xlink:href="dir_e884bea2662087624c49c4b98ba4353a.html" target="_top" xlink:title="production">
<polygon fill="none" stroke="black" points="524.5,-547 463.5,-547 463.5,-511 524.5,-511 524.5,-547"/>
<text text-anchor="middle" x="494" y="-526.5" font-family="Helvetica,sans-Serif" font-size="10.00">production</text>
</a>
</g>
</g>
<!-- dir_dd6dc6d8f56905e70717c35413470cc3&#45;&gt;dir_e884bea2662087624c49c4b98ba4353a -->
<g id="edge20" class="edge"><title>dir_dd6dc6d8f56905e70717c35413470cc3&#45;&gt;dir_e884bea2662087624c49c4b98ba4353a</title>
<path fill="none" stroke="black" d="M423.943,-468.08C429.227,-478.829 438.604,-492.589 449,-503 450.835,-504.837 452.82,-506.629 454.905,-508.355"/>
<polygon fill="black" stroke="black" points="453.219,-511.464 463.327,-514.64 457.405,-505.854 453.219,-511.464"/>
<g id="a_edge20&#45;headlabel"><a xlink:href="dir_000006_000027.html" target="_top" xlink:title="1">
<text text-anchor="middle" x="448.64" y="-509.09" font-family="Helvetica,sans-Serif" font-size="10.00">1</text>
</a>
</g>
</g>
<!-- dir_0a0aa297e888439a92fbcfd5e567f128&#45;&gt;dir_0af1587c8378955de40f48b4bd1869f0 -->
<g id="edge5" class="edge"><title>dir_0a0aa297e888439a92fbcfd5e567f128&#45;&gt;dir_0af1587c8378955de40f48b4bd1869f0</title>
<path fill="none" stroke="black" d="M319.005,-359.911C314.889,-321.204 306.812,-223.983 319,-144 324.327,-109.038 337.582,-70.4083 347.162,-45.4787"/>
<polygon fill="black" stroke="black" points="350.486,-46.5876 350.882,-36.0001 343.97,-44.0301 350.486,-46.5876"/>
<g id="a_edge5&#45;headlabel"><a xlink:href="dir_000034_000018.html" target="_top" xlink:title="60">
<text text-anchor="middle" x="351.816" y="-48.471" font-family="Helvetica,sans-Serif" font-size="10.00">60</text>
</a>
</g>
</g>
<!-- dir_0a0aa297e888439a92fbcfd5e567f128&#45;&gt;dir_c44c95bf3b41c3321c6014770d618ac8 -->
<g id="edge6" class="edge"><title>dir_0a0aa297e888439a92fbcfd5e567f128&#45;&gt;dir_c44c95bf3b41c3321c6014770d618ac8</title>
<path fill="none" stroke="black" d="M330.672,-359.645C336.146,-349.443 342.896,-336.193 348,-324 374.051,-261.771 377.915,-244.993 396,-180 401.696,-159.532 406.914,-136.074 410.592,-118.382"/>
<polygon fill="black" stroke="black" points="414.101,-118.687 412.673,-108.189 407.243,-117.287 414.101,-118.687"/>
<g id="a_edge6&#45;headlabel"><a xlink:href="dir_000034_000058.html" target="_top" xlink:title="19">
<text text-anchor="middle" x="416.164" y="-120.277" font-family="Helvetica,sans-Serif" font-size="10.00">19</text>
</a>
</g>
</g>
<!-- dir_0a0aa297e888439a92fbcfd5e567f128&#45;&gt;dir_c4f4646ab0f4a2967be5b6215a500c22 -->
<g id="edge7" class="edge"><title>dir_0a0aa297e888439a92fbcfd5e567f128&#45;&gt;dir_c4f4646ab0f4a2967be5b6215a500c22</title>
<path fill="none" stroke="black" d="M323.965,-359.849C330.379,-322.753 345.584,-234.81 353.314,-190.103"/>
<polygon fill="black" stroke="black" points="356.766,-190.683 355.021,-180.232 349.868,-189.49 356.766,-190.683"/>
<g id="a_edge7&#45;headlabel"><a xlink:href="dir_000034_000038.html" target="_top" xlink:title="19">
<text text-anchor="middle" x="358.951" y="-192.208" font-family="Helvetica,sans-Serif" font-size="10.00">19</text>
</a>
</g>
</g>
<!-- dir_0a0aa297e888439a92fbcfd5e567f128&#45;&gt;dir_8f68c37b22d514b4289e3a1255795d80 -->
<g id="edge8" class="edge"><title>dir_0a0aa297e888439a92fbcfd5e567f128&#45;&gt;dir_8f68c37b22d514b4289e3a1255795d80</title>
<path fill="none" stroke="black" d="M293.845,-361.291C276.72,-351.383 254.411,-338.477 235.841,-327.734"/>
<polygon fill="black" stroke="black" points="237.473,-324.635 227.064,-322.657 233.967,-330.694 237.473,-324.635"/>
<g id="a_edge8&#45;headlabel"><a xlink:href="dir_000034_000035.html" target="_top" xlink:title="2">
<text text-anchor="middle" x="242.006" y="-321.477" font-family="Helvetica,sans-Serif" font-size="10.00">2</text>
</a>
</g>
</g>
<!-- dir_c44c95bf3b41c3321c6014770d618ac8&#45;&gt;dir_0af1587c8378955de40f48b4bd1869f0 -->
<g id="edge14" class="edge"><title>dir_c44c95bf3b41c3321c6014770d618ac8&#45;&gt;dir_0af1587c8378955de40f48b4bd1869f0</title>
<path fill="none" stroke="black" d="M401.663,-71.6966C394.709,-63.3046 386.23,-53.0705 378.599,-43.8613"/>
<polygon fill="black" stroke="black" points="381.247,-41.5715 372.172,-36.1043 375.857,-46.0376 381.247,-41.5715"/>
<g id="a_edge14&#45;headlabel"><a xlink:href="dir_000058_000018.html" target="_top" xlink:title="25">
<text text-anchor="middle" x="385.727" y="-40.0279" font-family="Helvetica,sans-Serif" font-size="10.00">25</text>
</a>
</g>
</g>
<!-- dir_ebac6f698c8ed4b70faacb8ef35cbe0d&#45;&gt;dir_0a0aa297e888439a92fbcfd5e567f128 -->
<g id="edge21" class="edge"><title>dir_ebac6f698c8ed4b70faacb8ef35cbe0d&#45;&gt;dir_0a0aa297e888439a92fbcfd5e567f128</title>
<path fill="none" stroke="black" d="M214.647,-252.189C235.844,-277.065 275.201,-323.252 299.636,-351.929"/>
<polygon fill="black" stroke="black" points="297.255,-354.53 306.405,-359.871 302.583,-349.99 297.255,-354.53"/>
<g id="a_edge21&#45;headlabel"><a xlink:href="dir_000022_000034.html" target="_top" xlink:title="6">
<text text-anchor="middle" x="292.762" y="-351.136" font-family="Helvetica,sans-Serif" font-size="10.00">6</text>
</a>
</g>
</g>
<!-- dir_ebac6f698c8ed4b70faacb8ef35cbe0d&#45;&gt;dir_0af1587c8378955de40f48b4bd1869f0 -->
<g id="edge22" class="edge"><title>dir_ebac6f698c8ed4b70faacb8ef35cbe0d&#45;&gt;dir_0af1587c8378955de40f48b4bd1869f0</title>
<path fill="none" stroke="black" d="M200.689,-215.836C202.838,-183.874 211.677,-114.623 248,-72 266.768,-49.9767 296.796,-36.371 320.739,-28.4677"/>
<polygon fill="black" stroke="black" points="322.06,-31.7227 330.578,-25.4217 319.99,-25.0358 322.06,-31.7227"/>
<g id="a_edge22&#45;headlabel"><a xlink:href="dir_000022_000018.html" target="_top" xlink:title="65">
<text text-anchor="middle" x="319.466" y="-32.9979" font-family="Helvetica,sans-Serif" font-size="10.00">65</text>
</a>
</g>
</g>
<!-- dir_ebac6f698c8ed4b70faacb8ef35cbe0d&#45;&gt;dir_c44c95bf3b41c3321c6014770d618ac8 -->
<g id="edge23" class="edge"><title>dir_ebac6f698c8ed4b70faacb8ef35cbe0d&#45;&gt;dir_c44c95bf3b41c3321c6014770d618ac8</title>
<path fill="none" stroke="black" d="M220.844,-215.98C244.105,-197.332 283.188,-167.011 319,-144 338.474,-131.487 361.131,-119 379.649,-109.291"/>
<polygon fill="black" stroke="black" points="381.381,-112.335 388.644,-104.622 378.156,-106.122 381.381,-112.335"/>
<g id="a_edge23&#45;headlabel"><a xlink:href="dir_000022_000058.html" target="_top" xlink:title="11">
<text text-anchor="middle" x="379.499" y="-114.011" font-family="Helvetica,sans-Serif" font-size="10.00">11</text>
</a>
</g>
</g>
<!-- dir_ebac6f698c8ed4b70faacb8ef35cbe0d&#45;&gt;dir_c4f4646ab0f4a2967be5b6215a500c22 -->
<g id="edge24" class="edge"><title>dir_ebac6f698c8ed4b70faacb8ef35cbe0d&#45;&gt;dir_c4f4646ab0f4a2967be5b6215a500c22</title>
<path fill="none" stroke="black" d="M234.284,-217.811C259.342,-206.709 293.35,-191.642 319.369,-180.115"/>
<polygon fill="black" stroke="black" points="320.837,-183.293 328.562,-176.042 318.002,-176.893 320.837,-183.293"/>
<g id="a_edge24&#45;headlabel"><a xlink:href="dir_000022_000038.html" target="_top" xlink:title="6">
<text text-anchor="middle" x="318.701" y="-184.845" font-family="Helvetica,sans-Serif" font-size="10.00">6</text>
</a>
</g>
</g>
<!-- dir_ebac6f698c8ed4b70faacb8ef35cbe0d&#45;&gt;dir_8f68c37b22d514b4289e3a1255795d80 -->
<g id="edge25" class="edge"><title>dir_ebac6f698c8ed4b70faacb8ef35cbe0d&#45;&gt;dir_8f68c37b22d514b4289e3a1255795d80</title>
<path fill="none" stroke="black" d="M205.895,-252.104C206.701,-259.791 206.937,-269.054 206.604,-277.665"/>
<polygon fill="black" stroke="black" points="203.109,-277.48 205.916,-287.697 210.092,-277.96 203.109,-277.48"/>
<g id="a_edge25&#45;headlabel"><a xlink:href="dir_000022_000035.html" target="_top" xlink:title="23">
<text text-anchor="middle" x="200.522" y="-271.2" font-family="Helvetica,sans-Serif" font-size="10.00">23</text>
</a>
</g>
</g>
<!-- dir_c4f4646ab0f4a2967be5b6215a500c22&#45;&gt;dir_0af1587c8378955de40f48b4bd1869f0 -->
<g id="edge26" class="edge"><title>dir_c4f4646ab0f4a2967be5b6215a500c22&#45;&gt;dir_0af1587c8378955de40f48b4bd1869f0</title>
<path fill="none" stroke="black" d="M358,-143.871C358,-119.67 358,-75.2108 358,-46.3932"/>
<polygon fill="black" stroke="black" points="361.5,-46.1892 358,-36.1893 354.5,-46.1893 361.5,-46.1892"/>
<g id="a_edge26&#45;headlabel"><a xlink:href="dir_000038_000018.html" target="_top" xlink:title="37">
<text text-anchor="middle" x="364.339" y="-47.2839" font-family="Helvetica,sans-Serif" font-size="10.00">37</text>
</a>
</g>
</g>
<!-- dir_c4f4646ab0f4a2967be5b6215a500c22&#45;&gt;dir_c44c95bf3b41c3321c6014770d618ac8 -->
<g id="edge27" class="edge"><title>dir_c4f4646ab0f4a2967be5b6215a500c22&#45;&gt;dir_c44c95bf3b41c3321c6014770d618ac8</title>
<path fill="none" stroke="black" d="M372.337,-143.697C379.291,-135.305 387.77,-125.07 395.401,-115.861"/>
<polygon fill="black" stroke="black" points="398.143,-118.038 401.828,-108.104 392.753,-113.571 398.143,-118.038"/>
<g id="a_edge27&#45;headlabel"><a xlink:href="dir_000038_000058.html" target="_top" xlink:title="10">
<text text-anchor="middle" x="398.036" y="-120.117" font-family="Helvetica,sans-Serif" font-size="10.00">10</text>
</a>
</g>
</g>
<!-- dir_8f68c37b22d514b4289e3a1255795d80&#45;&gt;dir_0af1587c8378955de40f48b4bd1869f0 -->
<g id="edge28" class="edge"><title>dir_8f68c37b22d514b4289e3a1255795d80&#45;&gt;dir_0af1587c8378955de40f48b4bd1869f0</title>
<path fill="none" stroke="black" d="M180.961,-287.837C171.824,-278.3 161.832,-265.624 157,-252 151.652,-236.92 153.633,-231.642 157,-216 171.775,-147.354 171.065,-120.334 222,-72 249.378,-46.0206 290.933,-32.3308 320.902,-25.4243"/>
<polygon fill="black" stroke="black" points="321.938,-28.7816 330.977,-23.2552 320.464,-21.9384 321.938,-28.7816"/>
<g id="a_edge28&#45;headlabel"><a xlink:href="dir_000035_000018.html" target="_top" xlink:title="10">
<text text-anchor="middle" x="319.021" y="-29.8137" font-family="Helvetica,sans-Serif" font-size="10.00">10</text>
</a>
</g>
</g>
<!-- dir_8f68c37b22d514b4289e3a1255795d80&#45;&gt;dir_ebac6f698c8ed4b70faacb8ef35cbe0d -->
<g id="edge29" class="edge"><title>dir_8f68c37b22d514b4289e3a1255795d80&#45;&gt;dir_ebac6f698c8ed4b70faacb8ef35cbe0d</title>
<path fill="none" stroke="black" d="M194.084,-287.697C193.289,-279.983 193.062,-270.712 193.405,-262.112"/>
<polygon fill="black" stroke="black" points="196.898,-262.324 194.105,-252.104 189.915,-261.836 196.898,-262.324"/>
<g id="a_edge29&#45;headlabel"><a xlink:href="dir_000035_000022.html" target="_top" xlink:title="1">
<text text-anchor="middle" x="199.48" y="-263.608" font-family="Helvetica,sans-Serif" font-size="10.00">1</text>
</a>
</g>
</g>
<!-- dir_8f68c37b22d514b4289e3a1255795d80&#45;&gt;dir_c4f4646ab0f4a2967be5b6215a500c22 -->
<g id="edge30" class="edge"><title>dir_8f68c37b22d514b4289e3a1255795d80&#45;&gt;dir_c4f4646ab0f4a2967be5b6215a500c22</title>
<path fill="none" stroke="black" d="M219.058,-287.871C247.054,-262.711 299.414,-215.654 331.25,-187.042"/>
<polygon fill="black" stroke="black" points="333.776,-189.477 338.874,-180.189 329.097,-184.271 333.776,-189.477"/>
<g id="a_edge30&#45;headlabel"><a xlink:href="dir_000035_000038.html" target="_top" xlink:title="1">
<text text-anchor="middle" x="333" y="-191.491" font-family="Helvetica,sans-Serif" font-size="10.00">1</text>
</a>
</g>
</g>
<!-- dir_e884bea2662087624c49c4b98ba4353a&#45;&gt;dir_15cb7383784026d829002226dc1288d7 -->
<g id="edge33" class="edge"><title>dir_e884bea2662087624c49c4b98ba4353a&#45;&gt;dir_15cb7383784026d829002226dc1288d7</title>
<path fill="none" stroke="black" d="M521.194,-510.718C524.3,-508.286 527.312,-505.692 530,-503 537.797,-495.191 545.021,-485.5 550.919,-476.607"/>
<polygon fill="black" stroke="black" points="553.93,-478.395 556.348,-468.08 548.025,-474.635 553.93,-478.395"/>
<g id="a_edge33&#45;headlabel"><a xlink:href="dir_000027_000005.html" target="_top" xlink:title="4">
<text text-anchor="middle" x="554.395" y="-480.452" font-family="Helvetica,sans-Serif" font-size="10.00">4</text>
</a>
</g>
</g>
<!-- dir_e884bea2662087624c49c4b98ba4353a&#45;&gt;dir_dd6dc6d8f56905e70717c35413470cc3 -->
<g id="edge35" class="edge"><title>dir_e884bea2662087624c49c4b98ba4353a&#45;&gt;dir_dd6dc6d8f56905e70717c35413470cc3</title>
<path fill="none" stroke="black" d="M475.739,-510.718C472.7,-508.286 469.688,-505.692 467,-503 459.121,-495.11 451.829,-485.298 445.335,-476.329"/>
<polygon fill="black" stroke="black" points="448.061,-474.126 439.361,-468.08 442.392,-478.232 448.061,-474.126"/>
<g id="a_edge35&#45;headlabel"><a xlink:href="dir_000027_000006.html" target="_top" xlink:title="4">
<text text-anchor="middle" x="452.469" y="-472.872" font-family="Helvetica,sans-Serif" font-size="10.00">4</text>
</a>
</g>
</g>
<!-- dir_e884bea2662087624c49c4b98ba4353a&#45;&gt;dir_0a0aa297e888439a92fbcfd5e567f128 -->
<g id="edge31" class="edge"><title>dir_e884bea2662087624c49c4b98ba4353a&#45;&gt;dir_0a0aa297e888439a92fbcfd5e567f128</title>
<path fill="none" stroke="black" d="M463.429,-527.258C398.975,-525.377 253.828,-519.353 239,-503 213.027,-474.356 218.022,-448.481 239,-416 249.058,-400.426 267.419,-391.34 284.22,-386.074"/>
<polygon fill="black" stroke="black" points="285.161,-389.445 293.858,-383.394 283.286,-382.701 285.161,-389.445"/>
<g id="a_edge31&#45;headlabel"><a xlink:href="dir_000027_000034.html" target="_top" xlink:title="24">
<text text-anchor="middle" x="282.459" y="-390.643" font-family="Helvetica,sans-Serif" font-size="10.00">24</text>
</a>
</g>
</g>
<!-- dir_e884bea2662087624c49c4b98ba4353a&#45;&gt;dir_0af1587c8378955de40f48b4bd1869f0 -->
<g id="edge32" class="edge"><title>dir_e884bea2662087624c49c4b98ba4353a&#45;&gt;dir_0af1587c8378955de40f48b4bd1869f0</title>
<path fill="none" stroke="black" d="M524.574,-525.951C567.799,-522.665 644.27,-515.303 669,-503 739.062,-468.144 794,-457.254 794,-379 794,-379 794,-379 794,-161 794,-100.163 745.221,-97.5307 690,-72 590.836,-26.1525 459.202,-19.0149 395.587,-18.491"/>
<polygon fill="black" stroke="black" points="395.26,-14.9901 385.249,-18.4602 395.239,-21.9901 395.26,-14.9901"/>
<g id="a_edge32&#45;headlabel"><a xlink:href="dir_000027_000018.html" target="_top" xlink:title="15">
<text text-anchor="middle" x="398.863" y="-9.66142" font-family="Helvetica,sans-Serif" font-size="10.00">15</text>
</a>
</g>
</g>
<!-- dir_e884bea2662087624c49c4b98ba4353a&#45;&gt;dir_c44c95bf3b41c3321c6014770d618ac8 -->
<g id="edge34" class="edge"><title>dir_e884bea2662087624c49c4b98ba4353a&#45;&gt;dir_c44c95bf3b41c3321c6014770d618ac8</title>
<path fill="none" stroke="black" d="M524.623,-526.017C560.259,-523.112 616.239,-516.507 632,-503 681.848,-460.281 681.492,-424.449 669,-360 648.906,-256.326 651.291,-211.408 570,-144 536.171,-115.949 486.656,-102.423 452.97,-96.1248"/>
<polygon fill="black" stroke="black" points="453.511,-92.6665 443.058,-94.3942 452.307,-99.5622 453.511,-92.6665"/>
<g id="a_edge34&#45;headlabel"><a xlink:href="dir_000027_000058.html" target="_top" xlink:title="3">
<text text-anchor="middle" x="457.541" y="-87.9878" font-family="Helvetica,sans-Serif" font-size="10.00">3</text>
</a>
</g>
</g>
<!-- dir_e884bea2662087624c49c4b98ba4353a&#45;&gt;dir_c4f4646ab0f4a2967be5b6215a500c22 -->
<g id="edge36" class="edge"><title>dir_e884bea2662087624c49c4b98ba4353a&#45;&gt;dir_c4f4646ab0f4a2967be5b6215a500c22</title>
<path fill="none" stroke="black" d="M463.351,-527.964C394.849,-527.498 231.399,-524.132 181,-503 103.421,-470.472 38,-463.122 38,-379 38,-379 38,-379 38,-305 38,-183.64 232.672,-165.208 318.34,-162.972"/>
<polygon fill="black" stroke="black" points="318.54,-166.469 328.469,-162.771 318.401,-159.471 318.54,-166.469"/>
<g id="a_edge36&#45;headlabel"><a xlink:href="dir_000027_000038.html" target="_top" xlink:title="9">
<text text-anchor="middle" x="315.003" y="-166.879" font-family="Helvetica,sans-Serif" font-size="10.00">9</text>
</a>
</g>
</g>
<!-- dir_e884bea2662087624c49c4b98ba4353a&#45;&gt;dir_8f68c37b22d514b4289e3a1255795d80 -->
<g id="edge37" class="edge"><title>dir_e884bea2662087624c49c4b98ba4353a&#45;&gt;dir_8f68c37b22d514b4289e3a1255795d80</title>
<path fill="none" stroke="black" d="M463.468,-527.291C395.401,-525.422 235.788,-519.33 218,-503 171.375,-460.196 182.797,-376.724 192.676,-333.843"/>
<polygon fill="black" stroke="black" points="196.081,-334.654 195.055,-324.109 189.281,-332.992 196.081,-334.654"/>
<g id="a_edge37&#45;headlabel"><a xlink:href="dir_000027_000035.html" target="_top" xlink:title="8">
<text text-anchor="middle" x="197.985" y="-336.32" font-family="Helvetica,sans-Serif" font-size="10.00">8</text>
</a>
</g>
</g>
<!-- dir_e884bea2662087624c49c4b98ba4353a&#45;&gt;dir_f7cc278301683119f8719a92f4ffdd26 -->
<g id="edge38" class="edge"><title>dir_e884bea2662087624c49c4b98ba4353a&#45;&gt;dir_f7cc278301683119f8719a92f4ffdd26</title>
<path fill="none" stroke="black" d="M524.516,-524.911C553.455,-521.337 594.085,-514.428 605,-503 629.53,-477.317 631.788,-434.302 630.162,-406.291"/>
<polygon fill="black" stroke="black" points="633.626,-405.699 629.352,-396.005 626.648,-406.249 633.626,-405.699"/>
<g id="a_edge38&#45;headlabel"><a xlink:href="dir_000027_000011.html" target="_top" xlink:title="3">
<text text-anchor="middle" x="636.739" y="-406.56" font-family="Helvetica,sans-Serif" font-size="10.00">3</text>
</a>
</g>
</g>
<!-- dir_f7cc278301683119f8719a92f4ffdd26&#45;&gt;dir_0af1587c8378955de40f48b4bd1869f0 -->
<g id="edge39" class="edge"><title>dir_f7cc278301683119f8719a92f4ffdd26&#45;&gt;dir_0af1587c8378955de40f48b4bd1869f0</title>
<path fill="none" stroke="black" d="M637.982,-359.841C653.506,-333.892 680,-282.628 680,-235 680,-235 680,-235 680,-161 680,-37.8117 480.257,-20.5851 395.408,-18.8247"/>
<polygon fill="black" stroke="black" points="395.226,-15.3218 385.176,-18.6766 395.124,-22.3211 395.226,-15.3218"/>
<g id="a_edge39&#45;headlabel"><a xlink:href="dir_000011_000018.html" target="_top" xlink:title="13">
<text text-anchor="middle" x="398.861" y="-10.0347" font-family="Helvetica,sans-Serif" font-size="10.00">13</text>
</a>
</g>
</g>
<!-- dir_f7cc278301683119f8719a92f4ffdd26&#45;&gt;dir_c44c95bf3b41c3321c6014770d618ac8 -->
<g id="edge40" class="edge"><title>dir_f7cc278301683119f8719a92f4ffdd26&#45;&gt;dir_c44c95bf3b41c3321c6014770d618ac8</title>
<path fill="none" stroke="black" d="M625.533,-359.812C621.016,-317.382 603.637,-206.585 542,-144 517.826,-119.454 480.55,-105.703 452.806,-98.3979"/>
<polygon fill="black" stroke="black" points="453.605,-94.9902 443.058,-95.99 451.927,-101.786 453.605,-94.9902"/>
<g id="a_edge40&#45;headlabel"><a xlink:href="dir_000011_000058.html" target="_top" xlink:title="6">
<text text-anchor="middle" x="457.776" y="-90.5957" font-family="Helvetica,sans-Serif" font-size="10.00">6</text>
</a>
</g>
</g>
<!-- dir_f7cc278301683119f8719a92f4ffdd26&#45;&gt;dir_c4f4646ab0f4a2967be5b6215a500c22 -->
<g id="edge41" class="edge"><title>dir_f7cc278301683119f8719a92f4ffdd26&#45;&gt;dir_c4f4646ab0f4a2967be5b6215a500c22</title>
<path fill="none" stroke="black" d="M618.261,-359.847C600.844,-327.283 558.722,-256.177 504,-216 472.071,-192.557 428.713,-178.567 397.555,-170.901"/>
<polygon fill="black" stroke="black" points="398.025,-167.416 387.49,-168.538 396.426,-174.231 398.025,-167.416"/>
<g id="a_edge41&#45;headlabel"><a xlink:href="dir_000011_000038.html" target="_top" xlink:title="12">
<text text-anchor="middle" x="402.173" y="-162.973" font-family="Helvetica,sans-Serif" font-size="10.00">12</text>
</a>
</g>
</g>
</g>
</svg>
