<?xml version="1.0" encoding="UTF-8" standalone="no"?>
<!DOCTYPE svg PUBLIC "-//W3C//DTD SVG 1.1//EN"
 "http://www.w3.org/Graphics/SVG/1.1/DTD/svg11.dtd">
<!-- Generated by graphviz version 2.36.0 (20140111.2315)
 -->
<!-- Title: src/analysis/physics/etaprime/etaprime_dalitz.h Pages: 1 -->
<svg width="368pt" height="118pt"
 viewBox="0.00 0.00 368.00 118.00" xmlns="http://www.w3.org/2000/svg" xmlns:xlink="http://www.w3.org/1999/xlink">
<g id="graph0" class="graph" transform="scale(1 1) rotate(0) translate(4 114)">
<title>src/analysis/physics/etaprime/etaprime_dalitz.h</title>
<polygon fill="white" stroke="none" points="-4,4 -4,-114 364,-114 364,4 -4,4"/>
<!-- Node107 -->
<g id="node1" class="node"><title>Node107</title>
<polygon fill="#bfbfbf" stroke="black" points="82,-79 82,-109 216,-109 216,-79 82,-79"/>
<text text-anchor="start" x="90" y="-97" font-family="Helvetica,sans-Serif" font-size="10.00">src/analysis/physics</text>
<text text-anchor="middle" x="149" y="-86" font-family="Helvetica,sans-Serif" font-size="10.00">/etaprime/etaprime_dalitz.h</text>
</g>
<!-- Node108 -->
<g id="node2" class="node"><title>Node108</title>
<g id="a_node2"><a xlink:href="_p_c_a_8cc.html" target="_top" xlink:title="Tool to perform a Principal Component Analysis, based on ROOTs TPrincipal class, to create principal ...">
<polygon fill="white" stroke="black" points="0,-11.5 0,-30.5 78,-30.5 78,-11.5 0,-11.5"/>
<text text-anchor="middle" x="39" y="-18.5" font-family="Helvetica,sans-Serif" font-size="10.00">progs/PCA.cc</text>
</a>
</g>
</g>
<!-- Node107&#45;&gt;Node108 -->
<g id="edge1" class="edge"><title>Node107&#45;&gt;Node108</title>
<path fill="none" stroke="midnightblue" d="M118.704,-73.4455C96.9762,-59.421 68.755,-41.2055 52.3816,-30.6372"/>
<polygon fill="midnightblue" stroke="midnightblue" points="116.968,-76.4903 127.268,-78.9727 120.764,-70.609 116.968,-76.4903"/>
</g>
<!-- Node109 -->
<g id="node3" class="node"><title>Node109</title>
<g id="a_node3"><a xlink:href="_etap_dalitz__plot_8cc.html" target="_top" xlink:title="src/analysis/physics\l/etaprime/EtapDalitz\l_plot.cc">
<polygon fill="white" stroke="black" points="96,-0.5 96,-41.5 202,-41.5 202,-0.5 96,-0.5"/>
<text text-anchor="start" x="104" y="-29.5" font-family="Helvetica,sans-Serif" font-size="10.00">src/analysis/physics</text>
<text text-anchor="start" x="104" y="-18.5" font-family="Helvetica,sans-Serif" font-size="10.00">/etaprime/EtapDalitz</text>
<text text-anchor="middle" x="149" y="-7.5" font-family="Helvetica,sans-Serif" font-size="10.00">_plot.cc</text>
</a>
</g>
</g>
<!-- Node107&#45;&gt;Node109 -->
<g id="edge2" class="edge"><title>Node107&#45;&gt;Node109</title>
<path fill="none" stroke="midnightblue" d="M149,-68.8534C149,-59.9872 149,-50.065 149,-41.642"/>
<polygon fill="midnightblue" stroke="midnightblue" points="145.5,-68.9727 149,-78.9727 152.5,-68.9727 145.5,-68.9727"/>
</g>
<!-- Node110 -->
<g id="node4" class="node"><title>Node110</title>
<g id="a_node4"><a xlink:href="etaprime__dalitz_8cc.html" target="_top" xlink:title="src/analysis/physics\l/etaprime/etaprime_dalitz.cc">
<polygon fill="white" stroke="black" points="220,-6 220,-36 360,-36 360,-6 220,-6"/>
<text text-anchor="start" x="228" y="-24" font-family="Helvetica,sans-Serif" font-size="10.00">src/analysis/physics</text>
<text text-anchor="middle" x="290" y="-13" font-family="Helvetica,sans-Serif" font-size="10.00">/etaprime/etaprime_dalitz.cc</text>
</a>
</g>
</g>
<!-- Node107&#45;&gt;Node110 -->
<g id="edge3" class="edge"><title>Node107&#45;&gt;Node110</title>
<path fill="none" stroke="midnightblue" d="M185.911,-74.4135C209.613,-62.4783 239.926,-47.2147 261.718,-36.2412"/>
<polygon fill="midnightblue" stroke="midnightblue" points="184.215,-71.3491 176.857,-78.9727 187.363,-77.6012 184.215,-71.3491"/>
</g>
</g>
</svg>
