<?xml version="1.0" encoding="UTF-8" standalone="no"?>
<!DOCTYPE svg PUBLIC "-//W3C//DTD SVG 1.1//EN"
 "http://www.w3.org/Graphics/SVG/1.1/DTD/svg11.dtd">
<!-- Generated by graphviz version 2.36.0 (20140111.2315)
 -->
<!-- Title: src/expconfig/detectors/Trigger.h Pages: 1 -->
<svg width="3067pt" height="332pt"
 viewBox="0.00 0.00 3067.00 332.00" xmlns="http://www.w3.org/2000/svg" xmlns:xlink="http://www.w3.org/1999/xlink">
<g id="graph0" class="graph" transform="scale(1 1) rotate(0) translate(4 328)">
<title>src/expconfig/detectors/Trigger.h</title>
<polygon fill="white" stroke="none" points="-4,4 -4,-328 3063,-328 3063,4 -4,4"/>
<!-- Node56 -->
<g id="node1" class="node"><title>Node56</title>
<polygon fill="#bfbfbf" stroke="black" points="1443.5,-293 1443.5,-323 1562.5,-323 1562.5,-293 1443.5,-293"/>
<text text-anchor="start" x="1451.5" y="-311" font-family="Helvetica,sans-Serif" font-size="10.00">src/expconfig/detectors</text>
<text text-anchor="middle" x="1503" y="-300" font-family="Helvetica,sans-Serif" font-size="10.00">/Trigger.h</text>
</g>
<!-- Node57 -->
<g id="node2" class="node"><title>Node57</title>
<g id="a_node2"><a xlink:href="_goat_reader_8cc.html" target="_top" xlink:title="src/analysis/input\l/goat/GoatReader.cc">
<polygon fill="white" stroke="black" points="190.5,-220 190.5,-250 297.5,-250 297.5,-220 190.5,-220"/>
<text text-anchor="start" x="198.5" y="-238" font-family="Helvetica,sans-Serif" font-size="10.00">src/analysis/input</text>
<text text-anchor="middle" x="244" y="-227" font-family="Helvetica,sans-Serif" font-size="10.00">/goat/GoatReader.cc</text>
</a>
</g>
</g>
<!-- Node56&#45;&gt;Node57 -->
<g id="edge1" class="edge"><title>Node56&#45;&gt;Node57</title>
<path fill="none" stroke="midnightblue" d="M1433.01,-306.488C1211.03,-304.475 524.546,-295.162 306,-256 298.096,-254.584 289.807,-252.414 281.955,-250.019"/>
<polygon fill="midnightblue" stroke="midnightblue" points="1433.2,-309.989 1443.23,-306.578 1433.26,-302.99 1433.2,-309.989"/>
</g>
<!-- Node58 -->
<g id="node3" class="node"><title>Node58</title>
<g id="a_node3"><a xlink:href="analysis_2physics_2calibration_2_c_b___source_calib_8cc.html" target="_top" xlink:title="src/analysis/physics\l/calibration/CB_SourceCalib.cc">
<polygon fill="white" stroke="black" points="315.5,-220 315.5,-250 468.5,-250 468.5,-220 315.5,-220"/>
<text text-anchor="start" x="323.5" y="-238" font-family="Helvetica,sans-Serif" font-size="10.00">src/analysis/physics</text>
<text text-anchor="middle" x="392" y="-227" font-family="Helvetica,sans-Serif" font-size="10.00">/calibration/CB_SourceCalib.cc</text>
</a>
</g>
</g>
<!-- Node56&#45;&gt;Node58 -->
<g id="edge2" class="edge"><title>Node56&#45;&gt;Node58</title>
<path fill="none" stroke="midnightblue" d="M1433.35,-307.809C1267.16,-308.811 834.682,-305.939 478,-256 467.525,-254.533 456.449,-252.404 445.857,-250.077"/>
<polygon fill="midnightblue" stroke="midnightblue" points="1433.46,-311.308 1443.43,-307.741 1433.41,-304.308 1433.46,-311.308"/>
</g>
<!-- Node59 -->
<g id="node4" class="node"><title>Node59</title>
<g id="a_node4"><a xlink:href="_beampolmon_8h.html" target="_top" xlink:title="src/analysis/slowcontrol\l/processors/Beampolmon.h">
<polygon fill="white" stroke="black" points="487,-220 487,-250 623,-250 623,-220 487,-220"/>
<text text-anchor="start" x="495" y="-238" font-family="Helvetica,sans-Serif" font-size="10.00">src/analysis/slowcontrol</text>
<text text-anchor="middle" x="555" y="-227" font-family="Helvetica,sans-Serif" font-size="10.00">/processors/Beampolmon.h</text>
</a>
</g>
</g>
<!-- Node56&#45;&gt;Node59 -->
<g id="edge3" class="edge"><title>Node56&#45;&gt;Node59</title>
<path fill="none" stroke="midnightblue" d="M1432.92,-307.444C1284.46,-307.389 927.714,-301.983 633,-256 623.469,-254.513 613.41,-252.375 603.799,-250.044"/>
<polygon fill="midnightblue" stroke="midnightblue" points="1433.25,-310.944 1443.25,-307.439 1433.24,-303.944 1433.25,-310.944"/>
</g>
<!-- Node73 -->
<g id="node18" class="node"><title>Node73</title>
<g id="a_node18"><a xlink:href="_e_p_t___scalers_8h.html" target="_top" xlink:title="src/analysis/slowcontrol\l/processors/EPT_Scalers.h">
<polygon fill="white" stroke="black" points="641.5,-220 641.5,-250 778.5,-250 778.5,-220 641.5,-220"/>
<text text-anchor="start" x="649.5" y="-238" font-family="Helvetica,sans-Serif" font-size="10.00">src/analysis/slowcontrol</text>
<text text-anchor="middle" x="710" y="-227" font-family="Helvetica,sans-Serif" font-size="10.00">/processors/EPT_Scalers.h</text>
</a>
</g>
</g>
<!-- Node56&#45;&gt;Node73 -->
<g id="edge18" class="edge"><title>Node56&#45;&gt;Node73</title>
<path fill="none" stroke="midnightblue" d="M1433.16,-306.174C1304.65,-303.735 1022.41,-294.095 788,-256 778.617,-254.475 768.715,-252.349 759.232,-250.049"/>
<polygon fill="midnightblue" stroke="midnightblue" points="1433.2,-309.675 1443.26,-306.357 1433.32,-302.676 1433.2,-309.675"/>
</g>
<!-- Node74 -->
<g id="node19" class="node"><title>Node74</title>
<g id="a_node19"><a xlink:href="_exp_trigger_8h.html" target="_top" xlink:title="src/analysis/slowcontrol\l/processors/ExpTrigger.h">
<polygon fill="white" stroke="black" points="962,-220 962,-250 1088,-250 1088,-220 962,-220"/>
<text text-anchor="start" x="970" y="-238" font-family="Helvetica,sans-Serif" font-size="10.00">src/analysis/slowcontrol</text>
<text text-anchor="middle" x="1025" y="-227" font-family="Helvetica,sans-Serif" font-size="10.00">/processors/ExpTrigger.h</text>
</a>
</g>
</g>
<!-- Node56&#45;&gt;Node74 -->
<g id="edge20" class="edge"><title>Node56&#45;&gt;Node74</title>
<path fill="none" stroke="midnightblue" d="M1433.28,-301.361C1352.01,-294.069 1213.89,-279.446 1097,-256 1088.73,-254.342 1080.02,-252.236 1071.62,-250.017"/>
<polygon fill="midnightblue" stroke="midnightblue" points="1433.12,-304.861 1443.39,-302.257 1433.74,-297.888 1433.12,-304.861"/>
</g>
<!-- Node76 -->
<g id="node21" class="node"><title>Node76</title>
<g id="a_node21"><a xlink:href="processors_2_pair_spec_8h.html" target="_top" xlink:title="src/analysis/slowcontrol\l/processors/PairSpec.h">
<polygon fill="white" stroke="black" points="1106,-220 1106,-250 1228,-250 1228,-220 1106,-220"/>
<text text-anchor="start" x="1114" y="-238" font-family="Helvetica,sans-Serif" font-size="10.00">src/analysis/slowcontrol</text>
<text text-anchor="middle" x="1167" y="-227" font-family="Helvetica,sans-Serif" font-size="10.00">/processors/PairSpec.h</text>
</a>
</g>
</g>
<!-- Node56&#45;&gt;Node76 -->
<g id="edge23" class="edge"><title>Node56&#45;&gt;Node76</title>
<path fill="none" stroke="midnightblue" d="M1433.41,-295.264C1379.76,-285.817 1303.85,-271.583 1238,-256 1230.4,-254.201 1222.39,-252.124 1214.6,-250.003"/>
<polygon fill="midnightblue" stroke="midnightblue" points="1433.04,-298.752 1443.49,-297.029 1434.25,-291.857 1433.04,-298.752"/>
</g>
<!-- Node78 -->
<g id="node23" class="node"><title>Node78</title>
<g id="a_node23"><a xlink:href="_tagger___scalers_8h.html" target="_top" xlink:title="src/analysis/slowcontrol\l/processors/Tagger_Scalers.h">
<polygon fill="white" stroke="black" points="796.5,-220 796.5,-250 943.5,-250 943.5,-220 796.5,-220"/>
<text text-anchor="start" x="804.5" y="-238" font-family="Helvetica,sans-Serif" font-size="10.00">src/analysis/slowcontrol</text>
<text text-anchor="middle" x="870" y="-227" font-family="Helvetica,sans-Serif" font-size="10.00">/processors/Tagger_Scalers.h</text>
</a>
</g>
</g>
<!-- Node56&#45;&gt;Node78 -->
<g id="edge26" class="edge"><title>Node56&#45;&gt;Node78</title>
<path fill="none" stroke="midnightblue" d="M1433.08,-303.747C1328.21,-298.141 1124.2,-284.413 953,-256 943.349,-254.398 933.158,-252.293 923.346,-250.051"/>
<polygon fill="midnightblue" stroke="midnightblue" points="1433.06,-307.251 1443.23,-304.281 1433.42,-300.26 1433.06,-307.251"/>
</g>
<!-- Node79 -->
<g id="node24" class="node"><title>Node79</title>
<g id="a_node24"><a xlink:href="expconfig_2detectors_2_trigger_8cc.html" target="_top" xlink:title="src/expconfig/detectors\l/Trigger.cc">
<polygon fill="white" stroke="black" points="1246.5,-220 1246.5,-250 1365.5,-250 1365.5,-220 1246.5,-220"/>
<text text-anchor="start" x="1254.5" y="-238" font-family="Helvetica,sans-Serif" font-size="10.00">src/expconfig/detectors</text>
<text text-anchor="middle" x="1306" y="-227" font-family="Helvetica,sans-Serif" font-size="10.00">/Trigger.cc</text>
</a>
</g>
</g>
<!-- Node56&#45;&gt;Node79 -->
<g id="edge28" class="edge"><title>Node56&#45;&gt;Node79</title>
<path fill="none" stroke="midnightblue" d="M1454.45,-289.501C1420.8,-277.374 1376.58,-261.437 1345.18,-250.12"/>
<polygon fill="midnightblue" stroke="midnightblue" points="1453.48,-292.875 1464.08,-292.973 1455.86,-286.289 1453.48,-292.875"/>
</g>
<!-- Node80 -->
<g id="node25" class="node"><title>Node80</title>
<g id="a_node25"><a xlink:href="_setup__2007___base_8h.html" target="_top" xlink:title="src/expconfig/setups\l/Setup_2007_Base.h">
<polygon fill="white" stroke="black" points="1383.5,-220 1383.5,-250 1490.5,-250 1490.5,-220 1383.5,-220"/>
<text text-anchor="start" x="1391.5" y="-238" font-family="Helvetica,sans-Serif" font-size="10.00">src/expconfig/setups</text>
<text text-anchor="middle" x="1437" y="-227" font-family="Helvetica,sans-Serif" font-size="10.00">/Setup_2007_Base.h</text>
</a>
</g>
</g>
<!-- Node56&#45;&gt;Node80 -->
<g id="edge29" class="edge"><title>Node56&#45;&gt;Node80</title>
<path fill="none" stroke="midnightblue" d="M1483.06,-285.554C1472.52,-274.207 1459.85,-260.577 1450.47,-250.486"/>
<polygon fill="midnightblue" stroke="midnightblue" points="1480.59,-288.031 1489.96,-292.973 1485.72,-283.265 1480.59,-288.031"/>
</g>
<!-- Node84 -->
<g id="node29" class="node"><title>Node84</title>
<g id="a_node29"><a xlink:href="_setup__2010__03___base_8h.html" target="_top" xlink:title="src/expconfig/setups\l/Setup_2010_03_Base.h">
<polygon fill="white" stroke="black" points="1508.5,-220 1508.5,-250 1631.5,-250 1631.5,-220 1508.5,-220"/>
<text text-anchor="start" x="1516.5" y="-238" font-family="Helvetica,sans-Serif" font-size="10.00">src/expconfig/setups</text>
<text text-anchor="middle" x="1570" y="-227" font-family="Helvetica,sans-Serif" font-size="10.00">/Setup_2010_03_Base.h</text>
</a>
</g>
</g>
<!-- Node56&#45;&gt;Node84 -->
<g id="edge33" class="edge"><title>Node56&#45;&gt;Node84</title>
<path fill="none" stroke="midnightblue" d="M1523.24,-285.554C1533.95,-274.207 1546.81,-260.577 1556.33,-250.486"/>
<polygon fill="midnightblue" stroke="midnightblue" points="1520.55,-283.298 1516.24,-292.973 1525.65,-288.102 1520.55,-283.298"/>
</g>
<!-- Node87 -->
<g id="node32" class="node"><title>Node87</title>
<g id="a_node32"><a xlink:href="_setup__2014___e_p_t_8h.html" target="_top" xlink:title="src/expconfig/setups\l/Setup_2014_EPT.h">
<polygon fill="white" stroke="black" points="1798.5,-220 1798.5,-250 1905.5,-250 1905.5,-220 1798.5,-220"/>
<text text-anchor="start" x="1806.5" y="-238" font-family="Helvetica,sans-Serif" font-size="10.00">src/expconfig/setups</text>
<text text-anchor="middle" x="1852" y="-227" font-family="Helvetica,sans-Serif" font-size="10.00">/Setup_2014_EPT.h</text>
</a>
</g>
</g>
<!-- Node56&#45;&gt;Node87 -->
<g id="edge36" class="edge"><title>Node56&#45;&gt;Node87</title>
<path fill="none" stroke="midnightblue" d="M1572.57,-292.847C1639.03,-279.326 1737.8,-259.232 1798.37,-246.91"/>
<polygon fill="midnightblue" stroke="midnightblue" points="1571.7,-289.452 1562.6,-294.875 1573.1,-296.311 1571.7,-289.452"/>
</g>
<!-- Node92 -->
<g id="node37" class="node"><title>Node92</title>
<g id="a_node37"><a xlink:href="_setup__2015__01___pion_8cc.html" target="_top" xlink:title="src/expconfig/setups\l/Setup_2015_01_Pion.cc">
<polygon fill="white" stroke="black" points="1923.5,-220 1923.5,-250 2048.5,-250 2048.5,-220 1923.5,-220"/>
<text text-anchor="start" x="1931.5" y="-238" font-family="Helvetica,sans-Serif" font-size="10.00">src/expconfig/setups</text>
<text text-anchor="middle" x="1986" y="-227" font-family="Helvetica,sans-Serif" font-size="10.00">/Setup_2015_01_Pion.cc</text>
</a>
</g>
</g>
<!-- Node56&#45;&gt;Node92 -->
<g id="edge41" class="edge"><title>Node56&#45;&gt;Node92</title>
<path fill="none" stroke="midnightblue" d="M1572.62,-301.515C1654.77,-294.317 1795.21,-279.733 1914,-256 1922.27,-254.348 1930.98,-252.245 1939.38,-250.028"/>
<polygon fill="midnightblue" stroke="midnightblue" points="1572.32,-298.028 1562.65,-302.377 1572.92,-305.002 1572.32,-298.028"/>
</g>
<!-- Node93 -->
<g id="node38" class="node"><title>Node93</title>
<g id="a_node38"><a xlink:href="_setup__2017__03_8h.html" target="_top" xlink:title="src/expconfig/setups\l/Setup_2017_03.h">
<polygon fill="white" stroke="black" points="2066.5,-220 2066.5,-250 2173.5,-250 2173.5,-220 2066.5,-220"/>
<text text-anchor="start" x="2074.5" y="-238" font-family="Helvetica,sans-Serif" font-size="10.00">src/expconfig/setups</text>
<text text-anchor="middle" x="2120" y="-227" font-family="Helvetica,sans-Serif" font-size="10.00">/Setup_2017_03.h</text>
</a>
</g>
</g>
<!-- Node56&#45;&gt;Node93 -->
<g id="edge42" class="edge"><title>Node56&#45;&gt;Node93</title>
<path fill="none" stroke="midnightblue" d="M1572.87,-305.385C1678.62,-301.861 1885.21,-290.751 2057,-256 2064.65,-254.453 2072.68,-252.316 2080.35,-250.013"/>
<polygon fill="midnightblue" stroke="midnightblue" points="1572.52,-301.894 1562.64,-305.712 1572.75,-308.89 1572.52,-301.894"/>
</g>
<!-- Node95 -->
<g id="node40" class="node"><title>Node95</title>
<g id="a_node40"><a xlink:href="_setup__2017__05_8h.html" target="_top" xlink:title="src/expconfig/setups\l/Setup_2017_05.h">
<polygon fill="white" stroke="black" points="2191.5,-220 2191.5,-250 2298.5,-250 2298.5,-220 2191.5,-220"/>
<text text-anchor="start" x="2199.5" y="-238" font-family="Helvetica,sans-Serif" font-size="10.00">src/expconfig/setups</text>
<text text-anchor="middle" x="2245" y="-227" font-family="Helvetica,sans-Serif" font-size="10.00">/Setup_2017_05.h</text>
</a>
</g>
</g>
<!-- Node56&#45;&gt;Node95 -->
<g id="edge44" class="edge"><title>Node56&#45;&gt;Node95</title>
<path fill="none" stroke="midnightblue" d="M1572.75,-307.076C1696.58,-306.035 1962.44,-298.496 2182,-256 2189.77,-254.495 2197.93,-252.349 2205.71,-250.016"/>
<polygon fill="midnightblue" stroke="midnightblue" points="1572.62,-303.576 1562.65,-307.149 1572.67,-310.576 1572.62,-303.576"/>
</g>
<!-- Node97 -->
<g id="node42" class="node"><title>Node97</title>
<g id="a_node42"><a xlink:href="_setup__2017_plus___new_tagger___base_8h.html" target="_top" xlink:title="src/expconfig/setups\l/Setup_2017Plus_NewTagger\l_Base.h">
<polygon fill="white" stroke="black" points="2317,-214.5 2317,-255.5 2463,-255.5 2463,-214.5 2317,-214.5"/>
<text text-anchor="start" x="2325" y="-243.5" font-family="Helvetica,sans-Serif" font-size="10.00">src/expconfig/setups</text>
<text text-anchor="start" x="2325" y="-232.5" font-family="Helvetica,sans-Serif" font-size="10.00">/Setup_2017Plus_NewTagger</text>
<text text-anchor="middle" x="2390" y="-221.5" font-family="Helvetica,sans-Serif" font-size="10.00">_Base.h</text>
</a>
</g>
</g>
<!-- Node56&#45;&gt;Node97 -->
<g id="edge46" class="edge"><title>Node56&#45;&gt;Node97</title>
<path fill="none" stroke="midnightblue" d="M1572.79,-306.624C1712.82,-304.98 2037.67,-296.679 2307,-256 2310.22,-255.513 2313.51,-254.962 2316.82,-254.362"/>
<polygon fill="midnightblue" stroke="midnightblue" points="1572.59,-303.126 1562.63,-306.736 1572.67,-310.126 1572.59,-303.126"/>
</g>
<!-- Node101 -->
<g id="node46" class="node"><title>Node101</title>
<g id="a_node46"><a xlink:href="_setup___c_b_source_calib_8cc.html" target="_top" xlink:title="src/expconfig/setups\l/Setup_CBSourceCalib.cc">
<polygon fill="white" stroke="black" points="2481.5,-220 2481.5,-250 2612.5,-250 2612.5,-220 2481.5,-220"/>
<text text-anchor="start" x="2489.5" y="-238" font-family="Helvetica,sans-Serif" font-size="10.00">src/expconfig/setups</text>
<text text-anchor="middle" x="2547" y="-227" font-family="Helvetica,sans-Serif" font-size="10.00">/Setup_CBSourceCalib.cc</text>
</a>
</g>
</g>
<!-- Node56&#45;&gt;Node101 -->
<g id="edge50" class="edge"><title>Node56&#45;&gt;Node101</title>
<path fill="none" stroke="midnightblue" d="M1573.02,-305.207C1765.29,-299.98 2298.6,-283.378 2472,-256 2481.32,-254.529 2491.15,-252.367 2500.51,-250.002"/>
<polygon fill="midnightblue" stroke="midnightblue" points="1572.66,-301.715 1562.76,-305.483 1572.85,-308.712 1572.66,-301.715"/>
</g>
<!-- Node102 -->
<g id="node47" class="node"><title>Node102</title>
<g id="a_node47"><a xlink:href="_test_trigger_patterns_8cc.html" target="_top" xlink:title="test/expconfig/TestTrigger\lPatterns.cc">
<polygon fill="white" stroke="black" points="2630.5,-220 2630.5,-250 2761.5,-250 2761.5,-220 2630.5,-220"/>
<text text-anchor="start" x="2638.5" y="-238" font-family="Helvetica,sans-Serif" font-size="10.00">test/expconfig/TestTrigger</text>
<text text-anchor="middle" x="2696" y="-227" font-family="Helvetica,sans-Serif" font-size="10.00">Patterns.cc</text>
</a>
</g>
</g>
<!-- Node56&#45;&gt;Node102 -->
<g id="edge51" class="edge"><title>Node56&#45;&gt;Node102</title>
<path fill="none" stroke="midnightblue" d="M1572.61,-305.783C1784.15,-301.775 2417.43,-287.412 2621,-256 2630.32,-254.561 2640.15,-252.414 2649.52,-250.054"/>
<polygon fill="midnightblue" stroke="midnightblue" points="1572.49,-302.285 1562.56,-305.972 1572.62,-309.283 1572.49,-302.285"/>
</g>
<!-- Node103 -->
<g id="node48" class="node"><title>Node103</title>
<g id="a_node48"><a xlink:href="expconfig__helpers_8cc.html" target="_top" xlink:title="test/expconfig_helpers.cc">
<polygon fill="white" stroke="black" points="2780,-225.5 2780,-244.5 2908,-244.5 2908,-225.5 2780,-225.5"/>
<text text-anchor="middle" x="2844" y="-232.5" font-family="Helvetica,sans-Serif" font-size="10.00">test/expconfig_helpers.cc</text>
</a>
</g>
</g>
<!-- Node56&#45;&gt;Node103 -->
<g id="edge52" class="edge"><title>Node56&#45;&gt;Node103</title>
<path fill="none" stroke="midnightblue" d="M1573.05,-306.242C1803.46,-303.425 2536.4,-291.806 2770,-256 2786.18,-253.52 2803.9,-248.806 2817.93,-244.577"/>
<polygon fill="midnightblue" stroke="midnightblue" points="1572.74,-302.745 1562.78,-306.366 1572.83,-309.745 1572.74,-302.745"/>
</g>
<!-- Node60 -->
<g id="node5" class="node"><title>Node60</title>
<g id="a_node5"><a xlink:href="_beampolmon_8cc.html" target="_top" xlink:title="src/analysis/slowcontrol\l/processors/Beampolmon.cc">
<polygon fill="white" stroke="black" points="484.5,-142 484.5,-172 625.5,-172 625.5,-142 484.5,-142"/>
<text text-anchor="start" x="492.5" y="-160" font-family="Helvetica,sans-Serif" font-size="10.00">src/analysis/slowcontrol</text>
<text text-anchor="middle" x="555" y="-149" font-family="Helvetica,sans-Serif" font-size="10.00">/processors/Beampolmon.cc</text>
</a>
</g>
</g>
<!-- Node59&#45;&gt;Node60 -->
<g id="edge4" class="edge"><title>Node59&#45;&gt;Node60</title>
<path fill="none" stroke="midnightblue" d="M555,-209.59C555,-197.257 555,-182.724 555,-172.231"/>
<polygon fill="midnightblue" stroke="midnightblue" points="551.5,-209.705 555,-219.705 558.5,-209.705 551.5,-209.705"/>
</g>
<!-- Node61 -->
<g id="node6" class="node"><title>Node61</title>
<g id="a_node6"><a xlink:href="_slow_control_processors_8h.html" target="_top" xlink:title="src/analysis/slowcontrol\l/SlowControlProcessors.h">
<polygon fill="white" stroke="black" points="643.5,-142 643.5,-172 774.5,-172 774.5,-142 643.5,-142"/>
<text text-anchor="start" x="651.5" y="-160" font-family="Helvetica,sans-Serif" font-size="10.00">src/analysis/slowcontrol</text>
<text text-anchor="middle" x="709" y="-149" font-family="Helvetica,sans-Serif" font-size="10.00">/SlowControlProcessors.h</text>
</a>
</g>
</g>
<!-- Node59&#45;&gt;Node61 -->
<g id="edge5" class="edge"><title>Node59&#45;&gt;Node61</title>
<path fill="none" stroke="midnightblue" d="M592.792,-215.349C619.9,-201.971 655.851,-184.229 680.548,-172.041"/>
<polygon fill="midnightblue" stroke="midnightblue" points="591.024,-212.319 583.605,-219.883 594.122,-218.596 591.024,-212.319"/>
</g>
<!-- Node62 -->
<g id="node7" class="node"><title>Node62</title>
<g id="a_node7"><a xlink:href="_slow_control_manager_8h.html" target="_top" xlink:title="src/analysis/slowcontrol\l/SlowControlManager.h">
<polygon fill="white" stroke="black" points="148,-69 148,-99 270,-99 270,-69 148,-69"/>
<text text-anchor="start" x="156" y="-87" font-family="Helvetica,sans-Serif" font-size="10.00">src/analysis/slowcontrol</text>
<text text-anchor="middle" x="209" y="-76" font-family="Helvetica,sans-Serif" font-size="10.00">/SlowControlManager.h</text>
</a>
</g>
</g>
<!-- Node61&#45;&gt;Node62 -->
<g id="edge6" class="edge"><title>Node61&#45;&gt;Node62</title>
<path fill="none" stroke="midnightblue" d="M650.491,-139.501C644.941,-138.207 639.38,-137.012 634,-136 492.48,-109.374 454.825,-118.379 312,-100 298.468,-98.2587 283.959,-96.2399 270.227,-94.2586"/>
<polygon fill="midnightblue" stroke="midnightblue" points="649.882,-142.954 660.426,-141.918 651.537,-136.153 649.882,-142.954"/>
</g>
<!-- Node65 -->
<g id="node10" class="node"><title>Node65</title>
<g id="a_node10"><a xlink:href="_test_slow_control_manager_8cc.html" target="_top" xlink:title="test/analysis/TestSlowControl\lManager.cc">
<polygon fill="white" stroke="black" points="266,-1 266,-31 414,-31 414,-1 266,-1"/>
<text text-anchor="start" x="274" y="-19" font-family="Helvetica,sans-Serif" font-size="10.00">test/analysis/TestSlowControl</text>
<text text-anchor="middle" x="340" y="-8" font-family="Helvetica,sans-Serif" font-size="10.00">Manager.cc</text>
</a>
</g>
</g>
<!-- Node61&#45;&gt;Node65 -->
<g id="edge17" class="edge"><title>Node61&#45;&gt;Node65</title>
<path fill="none" stroke="midnightblue" d="M650.221,-139.512C644.76,-138.226 639.291,-137.03 634,-136 570.474,-123.633 389.281,-147.198 345,-100 327.715,-81.5762 331.725,-49.5553 335.994,-31.1365"/>
<polygon fill="midnightblue" stroke="midnightblue" points="649.459,-142.929 660.004,-141.906 651.123,-136.129 649.459,-142.929"/>
</g>
<!-- Node66 -->
<g id="node11" class="node"><title>Node66</title>
<g id="a_node11"><a xlink:href="_slow_control_processors_8cc.html" target="_top" xlink:title="src/analysis/slowcontrol\l/SlowControlProcessors.cc">
<polygon fill="white" stroke="black" points="354,-69 354,-99 490,-99 490,-69 354,-69"/>
<text text-anchor="start" x="362" y="-87" font-family="Helvetica,sans-Serif" font-size="10.00">src/analysis/slowcontrol</text>
<text text-anchor="middle" x="422" y="-76" font-family="Helvetica,sans-Serif" font-size="10.00">/SlowControlProcessors.cc</text>
</a>
</g>
</g>
<!-- Node61&#45;&gt;Node66 -->
<g id="edge10" class="edge"><title>Node61&#45;&gt;Node66</title>
<path fill="none" stroke="midnightblue" d="M647.211,-139.395C642.744,-138.233 638.304,-137.092 634,-136 582.812,-123.02 524.459,-109.042 481.95,-99.0083"/>
<polygon fill="midnightblue" stroke="midnightblue" points="646.436,-142.81 656.996,-141.956 648.208,-136.038 646.436,-142.81"/>
</g>
<!-- Node67 -->
<g id="node12" class="node"><title>Node67</title>
<g id="a_node12"><a xlink:href="_beam_8cc.html" target="_top" xlink:title="src/analysis/slowcontrol\l/variables/Beam.cc">
<polygon fill="white" stroke="black" points="508,-69 508,-99 630,-99 630,-69 508,-69"/>
<text text-anchor="start" x="516" y="-87" font-family="Helvetica,sans-Serif" font-size="10.00">src/analysis/slowcontrol</text>
<text text-anchor="middle" x="569" y="-76" font-family="Helvetica,sans-Serif" font-size="10.00">/variables/Beam.cc</text>
</a>
</g>
</g>
<!-- Node61&#45;&gt;Node67 -->
<g id="edge11" class="edge"><title>Node61&#45;&gt;Node67</title>
<path fill="none" stroke="midnightblue" d="M672.351,-137.414C648.816,-125.478 618.719,-110.215 597.081,-99.2412"/>
<polygon fill="midnightblue" stroke="midnightblue" points="670.839,-140.571 681.341,-141.973 674.005,-134.328 670.839,-140.571"/>
</g>
<!-- Node68 -->
<g id="node13" class="node"><title>Node68</title>
<g id="a_node13"><a xlink:href="_clocks_8cc.html" target="_top" xlink:title="src/analysis/slowcontrol\l/variables/Clocks.cc">
<polygon fill="white" stroke="black" points="648,-69 648,-99 770,-99 770,-69 648,-69"/>
<text text-anchor="start" x="656" y="-87" font-family="Helvetica,sans-Serif" font-size="10.00">src/analysis/slowcontrol</text>
<text text-anchor="middle" x="709" y="-76" font-family="Helvetica,sans-Serif" font-size="10.00">/variables/Clocks.cc</text>
</a>
</g>
</g>
<!-- Node61&#45;&gt;Node68 -->
<g id="edge12" class="edge"><title>Node61&#45;&gt;Node68</title>
<path fill="none" stroke="midnightblue" d="M709,-131.898C709,-121.131 709,-108.801 709,-99.4856"/>
<polygon fill="midnightblue" stroke="midnightblue" points="705.5,-131.973 709,-141.973 712.5,-131.973 705.5,-131.973"/>
</g>
<!-- Node69 -->
<g id="node14" class="node"><title>Node69</title>
<g id="a_node14"><a xlink:href="variables_2_pair_spec_8cc.html" target="_top" xlink:title="src/analysis/slowcontrol\l/variables/Pairspec.cc">
<polygon fill="white" stroke="black" points="788,-69 788,-99 910,-99 910,-69 788,-69"/>
<text text-anchor="start" x="796" y="-87" font-family="Helvetica,sans-Serif" font-size="10.00">src/analysis/slowcontrol</text>
<text text-anchor="middle" x="849" y="-76" font-family="Helvetica,sans-Serif" font-size="10.00">/variables/Pairspec.cc</text>
</a>
</g>
</g>
<!-- Node61&#45;&gt;Node69 -->
<g id="edge13" class="edge"><title>Node61&#45;&gt;Node69</title>
<path fill="none" stroke="midnightblue" d="M745.649,-137.414C769.184,-125.478 799.281,-110.215 820.919,-99.2412"/>
<polygon fill="midnightblue" stroke="midnightblue" points="743.995,-134.328 736.659,-141.973 747.161,-140.571 743.995,-134.328"/>
</g>
<!-- Node70 -->
<g id="node15" class="node"><title>Node70</title>
<g id="a_node15"><a xlink:href="analysis_2slowcontrol_2variables_2_tagg_eff_8cc.html" target="_top" xlink:title="src/analysis/slowcontrol\l/variables/TaggEff.cc">
<polygon fill="white" stroke="black" points="928,-69 928,-99 1050,-99 1050,-69 928,-69"/>
<text text-anchor="start" x="936" y="-87" font-family="Helvetica,sans-Serif" font-size="10.00">src/analysis/slowcontrol</text>
<text text-anchor="middle" x="989" y="-76" font-family="Helvetica,sans-Serif" font-size="10.00">/variables/TaggEff.cc</text>
</a>
</g>
</g>
<!-- Node61&#45;&gt;Node70 -->
<g id="edge14" class="edge"><title>Node61&#45;&gt;Node70</title>
<path fill="none" stroke="midnightblue" d="M771.389,-139.278C775.655,-138.161 779.889,-137.059 784,-136 833.721,-123.187 890.369,-109.135 931.498,-99.032"/>
<polygon fill="midnightblue" stroke="midnightblue" points="770.203,-135.971 761.423,-141.901 771.984,-142.74 770.203,-135.971"/>
</g>
<!-- Node71 -->
<g id="node16" class="node"><title>Node71</title>
<g id="a_node16"><a xlink:href="_tagger_scalers_8cc.html" target="_top" xlink:title="src/analysis/slowcontrol\l/variables/TaggerScalers.cc">
<polygon fill="white" stroke="black" points="1068,-69 1068,-99 1206,-99 1206,-69 1068,-69"/>
<text text-anchor="start" x="1076" y="-87" font-family="Helvetica,sans-Serif" font-size="10.00">src/analysis/slowcontrol</text>
<text text-anchor="middle" x="1137" y="-76" font-family="Helvetica,sans-Serif" font-size="10.00">/variables/TaggerScalers.cc</text>
</a>
</g>
</g>
<!-- Node61&#45;&gt;Node71 -->
<g id="edge15" class="edge"><title>Node61&#45;&gt;Node71</title>
<path fill="none" stroke="midnightblue" d="M767.786,-139.547C773.246,-138.254 778.712,-137.047 784,-136 904.92,-112.069 937.311,-119.648 1059,-100 1061.86,-99.5384 1064.77,-99.0516 1067.72,-98.5469"/>
<polygon fill="midnightblue" stroke="midnightblue" points="766.88,-136.166 758.004,-141.951 768.551,-142.963 766.88,-136.166"/>
</g>
<!-- Node72 -->
<g id="node17" class="node"><title>Node72</title>
<g id="a_node17"><a xlink:href="analysis_2slowcontrol_2variables_2_trigger_8cc.html" target="_top" xlink:title="src/analysis/slowcontrol\l/variables/Trigger.cc">
<polygon fill="white" stroke="black" points="1224,-69 1224,-99 1346,-99 1346,-69 1224,-69"/>
<text text-anchor="start" x="1232" y="-87" font-family="Helvetica,sans-Serif" font-size="10.00">src/analysis/slowcontrol</text>
<text text-anchor="middle" x="1285" y="-76" font-family="Helvetica,sans-Serif" font-size="10.00">/variables/Trigger.cc</text>
</a>
</g>
</g>
<!-- Node61&#45;&gt;Node72 -->
<g id="edge16" class="edge"><title>Node61&#45;&gt;Node72</title>
<path fill="none" stroke="midnightblue" d="M766.538,-139.555C772.405,-138.21 778.301,-136.99 784,-136 973.387,-103.107 1024.86,-128.196 1215,-100 1217.83,-99.5807 1220.71,-99.1157 1223.62,-98.6165"/>
<polygon fill="midnightblue" stroke="midnightblue" points="765.633,-136.173 756.731,-141.919 767.273,-142.978 765.633,-136.173"/>
</g>
<!-- Node63 -->
<g id="node8" class="node"><title>Node63</title>
<g id="a_node8"><a xlink:href="_physics_manager_8cc.html" target="_top" xlink:title="src/analysis/physics\l/PhysicsManager.cc">
<polygon fill="white" stroke="black" points="142,-1 142,-31 248,-31 248,-1 142,-1"/>
<text text-anchor="start" x="150" y="-19" font-family="Helvetica,sans-Serif" font-size="10.00">src/analysis/physics</text>
<text text-anchor="middle" x="195" y="-8" font-family="Helvetica,sans-Serif" font-size="10.00">/PhysicsManager.cc</text>
</a>
</g>
</g>
<!-- Node62&#45;&gt;Node63 -->
<g id="edge7" class="edge"><title>Node62&#45;&gt;Node63</title>
<path fill="none" stroke="midnightblue" d="M203.873,-58.8309C201.911,-49.5807 199.737,-39.3313 198.032,-31.2931"/>
<polygon fill="midnightblue" stroke="midnightblue" points="200.463,-59.6229 205.962,-68.679 207.311,-58.1703 200.463,-59.6229"/>
</g>
<!-- Node64 -->
<g id="node9" class="node"><title>Node64</title>
<g id="a_node9"><a xlink:href="_slow_control_manager_8cc.html" target="_top" xlink:title="src/analysis/slowcontrol\l/SlowControlManager.cc">
<polygon fill="white" stroke="black" points="0,-1 0,-31 124,-31 124,-1 0,-1"/>
<text text-anchor="start" x="8" y="-19" font-family="Helvetica,sans-Serif" font-size="10.00">src/analysis/slowcontrol</text>
<text text-anchor="middle" x="62" y="-8" font-family="Helvetica,sans-Serif" font-size="10.00">/SlowControlManager.cc</text>
</a>
</g>
</g>
<!-- Node62&#45;&gt;Node64 -->
<g id="edge8" class="edge"><title>Node62&#45;&gt;Node64</title>
<path fill="none" stroke="midnightblue" d="M168.034,-64.6069C144.356,-53.976 115.034,-40.8112 93.2304,-31.0218"/>
<polygon fill="midnightblue" stroke="midnightblue" points="166.909,-67.9383 177.465,-68.8413 169.776,-61.5524 166.909,-67.9383"/>
</g>
<!-- Node62&#45;&gt;Node65 -->
<g id="edge9" class="edge"><title>Node62&#45;&gt;Node65</title>
<path fill="none" stroke="midnightblue" d="M246.04,-64.3388C266.965,-53.7964 292.7,-40.8303 311.944,-31.1352"/>
<polygon fill="midnightblue" stroke="midnightblue" points="244.459,-61.2162 237.103,-68.8413 247.608,-67.4676 244.459,-61.2162"/>
</g>
<!-- Node73&#45;&gt;Node61 -->
<g id="edge19" class="edge"><title>Node73&#45;&gt;Node61</title>
<path fill="none" stroke="midnightblue" d="M709.679,-209.59C709.517,-197.257 709.325,-182.724 709.187,-172.231"/>
<polygon fill="midnightblue" stroke="midnightblue" points="706.181,-209.752 709.812,-219.705 713.18,-209.66 706.181,-209.752"/>
</g>
<!-- Node74&#45;&gt;Node61 -->
<g id="edge22" class="edge"><title>Node74&#45;&gt;Node61</title>
<path fill="none" stroke="midnightblue" d="M965.357,-217.365C960.845,-216.196 956.355,-215.062 952,-214 877.813,-195.904 858.248,-195.843 784,-178 776.269,-176.142 768.118,-174.078 760.151,-172.002"/>
<polygon fill="midnightblue" stroke="midnightblue" points="964.665,-220.801 975.226,-219.961 966.446,-214.032 964.665,-220.801"/>
</g>
<!-- Node75 -->
<g id="node20" class="node"><title>Node75</title>
<g id="a_node20"><a xlink:href="_exp_trigger_8cc.html" target="_top" xlink:title="src/analysis/slowcontrol\l/processors/ExpTrigger.cc">
<polygon fill="white" stroke="black" points="792.5,-142 792.5,-172 923.5,-172 923.5,-142 792.5,-142"/>
<text text-anchor="start" x="800.5" y="-160" font-family="Helvetica,sans-Serif" font-size="10.00">src/analysis/slowcontrol</text>
<text text-anchor="middle" x="858" y="-149" font-family="Helvetica,sans-Serif" font-size="10.00">/processors/ExpTrigger.cc</text>
</a>
</g>
</g>
<!-- Node74&#45;&gt;Node75 -->
<g id="edge21" class="edge"><title>Node74&#45;&gt;Node75</title>
<path fill="none" stroke="midnightblue" d="M984.786,-215.699C955.303,-202.282 915.87,-184.336 888.854,-172.041"/>
<polygon fill="midnightblue" stroke="midnightblue" points="983.428,-218.927 993.98,-219.883 986.328,-212.555 983.428,-218.927"/>
</g>
<!-- Node76&#45;&gt;Node61 -->
<g id="edge25" class="edge"><title>Node76&#45;&gt;Node61</title>
<path fill="none" stroke="midnightblue" d="M1112.27,-217.44C1107.13,-216.166 1101.99,-214.992 1097,-214 959.664,-186.674 921.572,-204.11 784,-178 775.394,-176.367 766.324,-174.274 757.579,-172.059"/>
<polygon fill="midnightblue" stroke="midnightblue" points="1111.52,-220.862 1122.08,-219.993 1113.28,-214.088 1111.52,-220.862"/>
</g>
<!-- Node77 -->
<g id="node22" class="node"><title>Node77</title>
<g id="a_node22"><a xlink:href="processors_2_pair_spec_8cc.html" target="_top" xlink:title="src/analysis/slowcontrol\l/processors/PairSpec.cc">
<polygon fill="white" stroke="black" points="942,-142 942,-172 1066,-172 1066,-142 942,-142"/>
<text text-anchor="start" x="950" y="-160" font-family="Helvetica,sans-Serif" font-size="10.00">src/analysis/slowcontrol</text>
<text text-anchor="middle" x="1004" y="-149" font-family="Helvetica,sans-Serif" font-size="10.00">/processors/PairSpec.cc</text>
</a>
</g>
</g>
<!-- Node76&#45;&gt;Node77 -->
<g id="edge24" class="edge"><title>Node76&#45;&gt;Node77</title>
<path fill="none" stroke="midnightblue" d="M1127.37,-215.524C1098.64,-202.126 1060.37,-184.283 1034.11,-172.041"/>
<polygon fill="midnightblue" stroke="midnightblue" points="1126.18,-218.829 1136.72,-219.883 1129.14,-212.485 1126.18,-218.829"/>
</g>
<!-- Node78&#45;&gt;Node61 -->
<g id="edge27" class="edge"><title>Node78&#45;&gt;Node61</title>
<path fill="none" stroke="midnightblue" d="M830.861,-215.524C802.478,-202.126 764.678,-184.283 738.745,-172.041"/>
<polygon fill="midnightblue" stroke="midnightblue" points="829.557,-218.779 840.094,-219.883 832.545,-212.449 829.557,-218.779"/>
</g>
<!-- Node81 -->
<g id="node26" class="node"><title>Node81</title>
<g id="a_node26"><a xlink:href="_setup__2007__06_8cc.html" target="_top" xlink:title="src/expconfig/setups\l/Setup_2007_06.cc">
<polygon fill="white" stroke="black" points="1084.5,-142 1084.5,-172 1191.5,-172 1191.5,-142 1084.5,-142"/>
<text text-anchor="start" x="1092.5" y="-160" font-family="Helvetica,sans-Serif" font-size="10.00">src/expconfig/setups</text>
<text text-anchor="middle" x="1138" y="-149" font-family="Helvetica,sans-Serif" font-size="10.00">/Setup_2007_06.cc</text>
</a>
</g>
</g>
<!-- Node80&#45;&gt;Node81 -->
<g id="edge30" class="edge"><title>Node80&#45;&gt;Node81</title>
<path fill="none" stroke="midnightblue" d="M1385.01,-217.038C1381.29,-215.967 1377.6,-214.943 1374,-214 1298.03,-194.092 1276.97,-197.908 1201,-178 1194.23,-176.226 1187.11,-174.161 1180.19,-172.046"/>
<polygon fill="midnightblue" stroke="midnightblue" points="1384.23,-220.458 1394.81,-219.954 1386.23,-213.749 1384.23,-220.458"/>
</g>
<!-- Node82 -->
<g id="node27" class="node"><title>Node82</title>
<g id="a_node27"><a xlink:href="_setup__2007__07_8cc.html" target="_top" xlink:title="src/expconfig/setups\l/Setup_2007_07.cc">
<polygon fill="white" stroke="black" points="1209.5,-142 1209.5,-172 1316.5,-172 1316.5,-142 1209.5,-142"/>
<text text-anchor="start" x="1217.5" y="-160" font-family="Helvetica,sans-Serif" font-size="10.00">src/expconfig/setups</text>
<text text-anchor="middle" x="1263" y="-149" font-family="Helvetica,sans-Serif" font-size="10.00">/Setup_2007_07.cc</text>
</a>
</g>
</g>
<!-- Node80&#45;&gt;Node82 -->
<g id="edge31" class="edge"><title>Node80&#45;&gt;Node82</title>
<path fill="none" stroke="midnightblue" d="M1395.5,-215.873C1364.74,-202.437 1323.42,-184.389 1295.15,-172.041"/>
<polygon fill="midnightblue" stroke="midnightblue" points="1394.11,-219.088 1404.68,-219.883 1396.92,-212.673 1394.11,-219.088"/>
</g>
<!-- Node83 -->
<g id="node28" class="node"><title>Node83</title>
<g id="a_node28"><a xlink:href="_setup__2007___base_8cc.html" target="_top" xlink:title="src/expconfig/setups\l/Setup_2007_Base.cc">
<polygon fill="white" stroke="black" points="1334.5,-142 1334.5,-172 1447.5,-172 1447.5,-142 1334.5,-142"/>
<text text-anchor="start" x="1342.5" y="-160" font-family="Helvetica,sans-Serif" font-size="10.00">src/expconfig/setups</text>
<text text-anchor="middle" x="1391" y="-149" font-family="Helvetica,sans-Serif" font-size="10.00">/Setup_2007_Base.cc</text>
</a>
</g>
</g>
<!-- Node80&#45;&gt;Node83 -->
<g id="edge32" class="edge"><title>Node80&#45;&gt;Node83</title>
<path fill="none" stroke="midnightblue" d="M1423.12,-211.074C1415.48,-198.437 1406.22,-183.148 1399.61,-172.231"/>
<polygon fill="midnightblue" stroke="midnightblue" points="1420.18,-212.962 1428.35,-219.705 1426.16,-209.338 1420.18,-212.962"/>
</g>
<!-- Node85 -->
<g id="node30" class="node"><title>Node85</title>
<g id="a_node30"><a xlink:href="_setup__2010__03___base_8cc.html" target="_top" xlink:title="src/expconfig/setups\l/Setup_2010_03_Base.cc">
<polygon fill="white" stroke="black" points="1466,-142 1466,-172 1594,-172 1594,-142 1466,-142"/>
<text text-anchor="start" x="1474" y="-160" font-family="Helvetica,sans-Serif" font-size="10.00">src/expconfig/setups</text>
<text text-anchor="middle" x="1530" y="-149" font-family="Helvetica,sans-Serif" font-size="10.00">/Setup_2010_03_Base.cc</text>
</a>
</g>
</g>
<!-- Node84&#45;&gt;Node85 -->
<g id="edge34" class="edge"><title>Node84&#45;&gt;Node85</title>
<path fill="none" stroke="midnightblue" d="M1557.74,-210.705C1551.13,-198.141 1543.18,-183.042 1537.49,-172.231"/>
<polygon fill="midnightblue" stroke="midnightblue" points="1554.72,-212.486 1562.48,-219.705 1560.92,-209.226 1554.72,-212.486"/>
</g>
<!-- Node86 -->
<g id="node31" class="node"><title>Node86</title>
<g id="a_node31"><a xlink:href="_setup__2010__09___compton_8cc.html" target="_top" xlink:title="src/expconfig/setups\l/Setup_2010_09_Compton.cc">
<polygon fill="white" stroke="black" points="1612,-142 1612,-172 1758,-172 1758,-142 1612,-142"/>
<text text-anchor="start" x="1620" y="-160" font-family="Helvetica,sans-Serif" font-size="10.00">src/expconfig/setups</text>
<text text-anchor="middle" x="1685" y="-149" font-family="Helvetica,sans-Serif" font-size="10.00">/Setup_2010_09_Compton.cc</text>
</a>
</g>
</g>
<!-- Node84&#45;&gt;Node86 -->
<g id="edge35" class="edge"><title>Node84&#45;&gt;Node86</title>
<path fill="none" stroke="midnightblue" d="M1599.83,-214.289C1619.87,-201.046 1645.79,-183.91 1663.75,-172.041"/>
<polygon fill="midnightblue" stroke="midnightblue" points="1597.77,-211.45 1591.36,-219.883 1601.63,-217.29 1597.77,-211.45"/>
</g>
<!-- Node88 -->
<g id="node33" class="node"><title>Node88</title>
<g id="a_node33"><a xlink:href="_setup__2014__07___e_p_t___prod_8cc.html" target="_top" xlink:title="src/expconfig/setups\l/Setup_2014_07_EPT_Prod.cc">
<polygon fill="white" stroke="black" points="2074.5,-142 2074.5,-172 2225.5,-172 2225.5,-142 2074.5,-142"/>
<text text-anchor="start" x="2082.5" y="-160" font-family="Helvetica,sans-Serif" font-size="10.00">src/expconfig/setups</text>
<text text-anchor="middle" x="2150" y="-149" font-family="Helvetica,sans-Serif" font-size="10.00">/Setup_2014_07_EPT_Prod.cc</text>
</a>
</g>
</g>
<!-- Node87&#45;&gt;Node88 -->
<g id="edge37" class="edge"><title>Node87&#45;&gt;Node88</title>
<path fill="none" stroke="midnightblue" d="M1904.71,-216.954C1908.18,-215.927 1911.64,-214.933 1915,-214 1923.56,-211.624 2023.81,-187.845 2090.57,-172.046"/>
<polygon fill="midnightblue" stroke="midnightblue" points="1903.47,-213.671 1894.91,-219.913 1905.5,-220.371 1903.47,-213.671"/>
</g>
<!-- Node89 -->
<g id="node34" class="node"><title>Node89</title>
<g id="a_node34"><a xlink:href="_setup__2014__10___e_p_t___prod_8cc.html" target="_top" xlink:title="src/expconfig/setups\l/Setup_2014_10_EPT_Prod.cc">
<polygon fill="white" stroke="black" points="2243.5,-142 2243.5,-172 2394.5,-172 2394.5,-142 2243.5,-142"/>
<text text-anchor="start" x="2251.5" y="-160" font-family="Helvetica,sans-Serif" font-size="10.00">src/expconfig/setups</text>
<text text-anchor="middle" x="2319" y="-149" font-family="Helvetica,sans-Serif" font-size="10.00">/Setup_2014_10_EPT_Prod.cc</text>
</a>
</g>
</g>
<!-- Node87&#45;&gt;Node89 -->
<g id="edge38" class="edge"><title>Node87&#45;&gt;Node89</title>
<path fill="none" stroke="midnightblue" d="M1902.27,-217.086C1906.55,-215.938 1910.83,-214.888 1915,-214 2054.55,-184.273 2093.42,-202.382 2234,-178 2243.56,-176.342 2253.65,-174.263 2263.41,-172.077"/>
<polygon fill="midnightblue" stroke="midnightblue" points="1901.01,-213.805 1892.36,-219.91 1902.93,-220.538 1901.01,-213.805"/>
</g>
<!-- Node90 -->
<g id="node35" class="node"><title>Node90</title>
<g id="a_node35"><a xlink:href="_setup__2014__12___e_p_t___prod_8cc.html" target="_top" xlink:title="src/expconfig/setups\l/Setup_2014_12_EPT_Prod.cc">
<polygon fill="white" stroke="black" points="1776.5,-142 1776.5,-172 1927.5,-172 1927.5,-142 1776.5,-142"/>
<text text-anchor="start" x="1784.5" y="-160" font-family="Helvetica,sans-Serif" font-size="10.00">src/expconfig/setups</text>
<text text-anchor="middle" x="1852" y="-149" font-family="Helvetica,sans-Serif" font-size="10.00">/Setup_2014_12_EPT_Prod.cc</text>
</a>
</g>
</g>
<!-- Node87&#45;&gt;Node90 -->
<g id="edge39" class="edge"><title>Node87&#45;&gt;Node90</title>
<path fill="none" stroke="midnightblue" d="M1852,-209.59C1852,-197.257 1852,-182.724 1852,-172.231"/>
<polygon fill="midnightblue" stroke="midnightblue" points="1848.5,-209.705 1852,-219.705 1855.5,-209.705 1848.5,-209.705"/>
</g>
<!-- Node91 -->
<g id="node36" class="node"><title>Node91</title>
<g id="a_node36"><a xlink:href="_setup__2014___e_p_t_8cc.html" target="_top" xlink:title="src/expconfig/setups\l/Setup_2014_EPT.cc">
<polygon fill="white" stroke="black" points="1946,-142 1946,-172 2056,-172 2056,-142 1946,-142"/>
<text text-anchor="start" x="1954" y="-160" font-family="Helvetica,sans-Serif" font-size="10.00">src/expconfig/setups</text>
<text text-anchor="middle" x="2001" y="-149" font-family="Helvetica,sans-Serif" font-size="10.00">/Setup_2014_EPT.cc</text>
</a>
</g>
</g>
<!-- Node87&#45;&gt;Node91 -->
<g id="edge40" class="edge"><title>Node87&#45;&gt;Node91</title>
<path fill="none" stroke="midnightblue" d="M1888.91,-215.174C1915.1,-201.817 1949.68,-184.176 1973.47,-172.041"/>
<polygon fill="midnightblue" stroke="midnightblue" points="1886.99,-212.221 1879.68,-219.883 1890.18,-218.457 1886.99,-212.221"/>
</g>
<!-- Node94 -->
<g id="node39" class="node"><title>Node94</title>
<g id="a_node39"><a xlink:href="_setup__2017__03_8cc.html" target="_top" xlink:title="src/expconfig/setups\l/Setup_2017_03.cc">
<polygon fill="white" stroke="black" points="2412.5,-142 2412.5,-172 2519.5,-172 2519.5,-142 2412.5,-142"/>
<text text-anchor="start" x="2420.5" y="-160" font-family="Helvetica,sans-Serif" font-size="10.00">src/expconfig/setups</text>
<text text-anchor="middle" x="2466" y="-149" font-family="Helvetica,sans-Serif" font-size="10.00">/Setup_2017_03.cc</text>
</a>
</g>
</g>
<!-- Node93&#45;&gt;Node94 -->
<g id="edge43" class="edge"><title>Node93&#45;&gt;Node94</title>
<path fill="none" stroke="midnightblue" d="M2171.24,-217.056C2175.2,-215.954 2179.15,-214.92 2183,-214 2279.36,-190.95 2306.64,-201.05 2403,-178 2410.03,-176.318 2417.42,-174.253 2424.56,-172.095"/>
<polygon fill="midnightblue" stroke="midnightblue" points="2170.07,-213.753 2161.44,-219.905 2172.02,-220.475 2170.07,-213.753"/>
</g>
<!-- Node96 -->
<g id="node41" class="node"><title>Node96</title>
<g id="a_node41"><a xlink:href="_setup__2017__05_8cc.html" target="_top" xlink:title="src/expconfig/setups\l/Setup_2017_05.cc">
<polygon fill="white" stroke="black" points="2537.5,-142 2537.5,-172 2644.5,-172 2644.5,-142 2537.5,-142"/>
<text text-anchor="start" x="2545.5" y="-160" font-family="Helvetica,sans-Serif" font-size="10.00">src/expconfig/setups</text>
<text text-anchor="middle" x="2591" y="-149" font-family="Helvetica,sans-Serif" font-size="10.00">/Setup_2017_05.cc</text>
</a>
</g>
</g>
<!-- Node95&#45;&gt;Node96 -->
<g id="edge45" class="edge"><title>Node95&#45;&gt;Node96</title>
<path fill="none" stroke="midnightblue" d="M2296.24,-217.056C2300.2,-215.954 2304.15,-214.92 2308,-214 2404.36,-190.95 2431.64,-201.05 2528,-178 2535.03,-176.318 2542.42,-174.253 2549.56,-172.095"/>
<polygon fill="midnightblue" stroke="midnightblue" points="2295.07,-213.753 2286.44,-219.905 2297.02,-220.475 2295.07,-213.753"/>
</g>
<!-- Node98 -->
<g id="node43" class="node"><title>Node98</title>
<g id="a_node43"><a xlink:href="_setup__2017__12_8cc.html" target="_top" xlink:title="src/expconfig/setups\l/Setup_2017_12.cc">
<polygon fill="white" stroke="black" points="2662.5,-142 2662.5,-172 2769.5,-172 2769.5,-142 2662.5,-142"/>
<text text-anchor="start" x="2670.5" y="-160" font-family="Helvetica,sans-Serif" font-size="10.00">src/expconfig/setups</text>
<text text-anchor="middle" x="2716" y="-149" font-family="Helvetica,sans-Serif" font-size="10.00">/Setup_2017_12.cc</text>
</a>
</g>
</g>
<!-- Node97&#45;&gt;Node98 -->
<g id="edge47" class="edge"><title>Node97&#45;&gt;Node98</title>
<path fill="none" stroke="midnightblue" d="M2473.46,-213.961C2554.43,-196.558 2577.09,-197.578 2653,-178 2659.78,-176.252 2666.9,-174.201 2673.82,-172.092"/>
<polygon fill="midnightblue" stroke="midnightblue" points="2472.31,-210.628 2463.28,-216.177 2473.8,-217.468 2472.31,-210.628"/>
</g>
<!-- Node99 -->
<g id="node44" class="node"><title>Node99</title>
<g id="a_node44"><a xlink:href="_setup__2017_plus___new_tagger___base_8cc.html" target="_top" xlink:title="src/expconfig/setups\l/Setup_2017Plus_NewTagger\l_Base.cc">
<polygon fill="white" stroke="black" points="2788,-136.5 2788,-177.5 2934,-177.5 2934,-136.5 2788,-136.5"/>
<text text-anchor="start" x="2796" y="-165.5" font-family="Helvetica,sans-Serif" font-size="10.00">src/expconfig/setups</text>
<text text-anchor="start" x="2796" y="-154.5" font-family="Helvetica,sans-Serif" font-size="10.00">/Setup_2017Plus_NewTagger</text>
<text text-anchor="middle" x="2861" y="-143.5" font-family="Helvetica,sans-Serif" font-size="10.00">_Base.cc</text>
</a>
</g>
</g>
<!-- Node97&#45;&gt;Node99 -->
<g id="edge48" class="edge"><title>Node97&#45;&gt;Node99</title>
<path fill="none" stroke="midnightblue" d="M2473.18,-214.098C2609.12,-190.515 2646.78,-201.467 2778,-178 2781.21,-177.426 2784.48,-176.803 2787.78,-176.143"/>
<polygon fill="midnightblue" stroke="midnightblue" points="2472.46,-210.671 2463.22,-215.857 2473.68,-217.565 2472.46,-210.671"/>
</g>
<!-- Node100 -->
<g id="node45" class="node"><title>Node100</title>
<g id="a_node45"><a xlink:href="_setup__2018__03_8cc.html" target="_top" xlink:title="src/expconfig/setups\l/Setup_2018_03.cc">
<polygon fill="white" stroke="black" points="2952.5,-142 2952.5,-172 3059.5,-172 3059.5,-142 2952.5,-142"/>
<text text-anchor="start" x="2960.5" y="-160" font-family="Helvetica,sans-Serif" font-size="10.00">src/expconfig/setups</text>
<text text-anchor="middle" x="3006" y="-149" font-family="Helvetica,sans-Serif" font-size="10.00">/Setup_2018_03.cc</text>
</a>
</g>
</g>
<!-- Node97&#45;&gt;Node100 -->
<g id="edge49" class="edge"><title>Node97&#45;&gt;Node100</title>
<path fill="none" stroke="midnightblue" d="M2473.24,-214.133C2681.77,-182.482 2740.56,-217.337 2943,-178 2950.77,-176.49 2958.93,-174.341 2966.71,-172.007"/>
<polygon fill="midnightblue" stroke="midnightblue" points="2472.54,-210.7 2463.19,-215.691 2473.61,-217.617 2472.54,-210.7"/>
</g>
</g>
</svg>
