<?xml version="1.0" encoding="UTF-8" standalone="no"?>
<!DOCTYPE svg PUBLIC "-//W3C//DTD SVG 1.1//EN"
 "http://www.w3.org/Graphics/SVG/1.1/DTD/svg11.dtd">
<!-- Generated by graphviz version 2.36.0 (20140111.2315)
 -->
<!-- Title: src/root&#45;addons/analysis_codes/hadd.cc Pages: 1 -->
<svg width="1603pt" height="320pt"
 viewBox="0.00 0.00 1603.00 320.00" xmlns="http://www.w3.org/2000/svg" xmlns:xlink="http://www.w3.org/1999/xlink">
<g id="graph0" class="graph" transform="scale(1 1) rotate(0) translate(4 316)">
<title>src/root&#45;addons/analysis_codes/hadd.cc</title>
<polygon fill="white" stroke="none" points="-4,4 -4,-316 1599,-316 1599,4 -4,4"/>
<!-- Node0 -->
<g id="node1" class="node"><title>Node0</title>
<polygon fill="#bfbfbf" stroke="black" points="1089.5,-281 1089.5,-311 1212.5,-311 1212.5,-281 1089.5,-281"/>
<text text-anchor="start" x="1097.5" y="-299" font-family="Helvetica,sans-Serif" font-size="10.00">src/root&#45;addons/analysis</text>
<text text-anchor="middle" x="1151" y="-288" font-family="Helvetica,sans-Serif" font-size="10.00">_codes/hadd.cc</text>
</g>
<!-- Node1 -->
<g id="node2" class="node"><title>Node1</title>
<g id="a_node2"><a xlink:href="hadd_8h.html" target="_top" xlink:title="hadd.h">
<polygon fill="white" stroke="black" points="158,-224.5 158,-243.5 204,-243.5 204,-224.5 158,-224.5"/>
<text text-anchor="middle" x="181" y="-231.5" font-family="Helvetica,sans-Serif" font-size="10.00">hadd.h</text>
</a>
</g>
</g>
<!-- Node0&#45;&gt;Node1 -->
<g id="edge1" class="edge"><title>Node0&#45;&gt;Node1</title>
<path fill="none" stroke="midnightblue" d="M1089.22,-291.178C903.759,-279.707 355.97,-245.823 214.597,-237.078"/>
<polygon fill="midnightblue" stroke="midnightblue" points="214.586,-233.571 204.389,-236.447 214.154,-240.558 214.586,-233.571"/>
</g>
<!-- Node2 -->
<g id="node3" class="node"><title>Node2</title>
<polygon fill="white" stroke="#bfbfbf" points="-0.5,-168.5 -0.5,-187.5 70.5,-187.5 70.5,-168.5 -0.5,-168.5"/>
<text text-anchor="middle" x="35" y="-175.5" font-family="Helvetica,sans-Serif" font-size="10.00">TDirectory.h</text>
</g>
<!-- Node0&#45;&gt;Node2 -->
<g id="edge69" class="edge"><title>Node0&#45;&gt;Node2</title>
<path fill="none" stroke="midnightblue" d="M1089.42,-295.583C899.774,-296.795 326.629,-295.95 149,-244 112.838,-233.424 75.8234,-209.387 54.1488,-193.694"/>
<polygon fill="midnightblue" stroke="midnightblue" points="55.9647,-190.683 45.846,-187.543 51.7976,-196.308 55.9647,-190.683"/>
</g>
<!-- Node5 -->
<g id="node6" class="node"><title>Node5</title>
<g id="a_node6"><a xlink:href="hstack_8h.html" target="_top" xlink:title="hstack.h">
<polygon fill="white" stroke="black" points="436,-224.5 436,-243.5 490,-243.5 490,-224.5 436,-224.5"/>
<text text-anchor="middle" x="463" y="-231.5" font-family="Helvetica,sans-Serif" font-size="10.00">hstack.h</text>
</a>
</g>
</g>
<!-- Node0&#45;&gt;Node5 -->
<g id="edge5" class="edge"><title>Node0&#45;&gt;Node5</title>
<path fill="none" stroke="midnightblue" d="M1089.34,-289.623C949.71,-277.446 612.774,-248.062 500.276,-238.251"/>
<polygon fill="midnightblue" stroke="midnightblue" points="500.37,-234.746 490.104,-237.364 499.762,-241.719 500.37,-234.746"/>
</g>
<!-- Node15 -->
<g id="node16" class="node"><title>Node15</title>
<polygon fill="white" stroke="#bfbfbf" points="687,-0.5 687,-19.5 743,-19.5 743,-0.5 687,-0.5"/>
<text text-anchor="middle" x="715" y="-7.5" font-family="Helvetica,sans-Serif" font-size="10.00">algorithm</text>
</g>
<!-- Node0&#45;&gt;Node15 -->
<g id="edge76" class="edge"><title>Node0&#45;&gt;Node15</title>
<path fill="none" stroke="midnightblue" d="M1089.27,-289.584C1038.71,-283.404 966.277,-270.485 908,-244 819.307,-203.693 811.694,-169.431 733,-112 710.589,-95.6442 694.764,-100.634 682,-76 673.417,-59.4361 685.66,-40.3965 697.591,-27.224"/>
<polygon fill="midnightblue" stroke="midnightblue" points="700.305,-29.4539 704.79,-19.8551 695.298,-24.5621 700.305,-29.4539"/>
</g>
<!-- Node25 -->
<g id="node26" class="node"><title>Node25</title>
<g id="a_node26"><a xlink:href="_t_ant_header_8h.html" target="_top" xlink:title="tree/TAntHeader.h">
<polygon fill="white" stroke="black" points="1057.5,-224.5 1057.5,-243.5 1154.5,-243.5 1154.5,-224.5 1057.5,-224.5"/>
<text text-anchor="middle" x="1106" y="-231.5" font-family="Helvetica,sans-Serif" font-size="10.00">tree/TAntHeader.h</text>
</a>
</g>
</g>
<!-- Node0&#45;&gt;Node25 -->
<g id="edge41" class="edge"><title>Node0&#45;&gt;Node25</title>
<path fill="none" stroke="midnightblue" d="M1140.34,-280.781C1133.86,-272.152 1125.57,-261.088 1118.75,-251.999"/>
<polygon fill="midnightblue" stroke="midnightblue" points="1121.35,-249.631 1112.55,-243.731 1115.75,-253.831 1121.35,-249.631"/>
</g>
<!-- Node36 -->
<g id="node37" class="node"><title>Node36</title>
<g id="a_node37"><a xlink:href="_progress_counter_8h.html" target="_top" xlink:title="base/ProgressCounter.h">
<polygon fill="white" stroke="black" points="917,-224.5 917,-243.5 1039,-243.5 1039,-224.5 917,-224.5"/>
<text text-anchor="middle" x="978" y="-231.5" font-family="Helvetica,sans-Serif" font-size="10.00">base/ProgressCounter.h</text>
</a>
</g>
</g>
<!-- Node0&#45;&gt;Node36 -->
<g id="edge61" class="edge"><title>Node0&#45;&gt;Node36</title>
<path fill="none" stroke="midnightblue" d="M1110.44,-280.933C1080.51,-270.553 1040.25,-256.589 1012,-246.792"/>
<polygon fill="midnightblue" stroke="midnightblue" points="1013.14,-243.483 1002.54,-243.513 1010.85,-250.096 1013.14,-243.483"/>
</g>
<!-- Node39 -->
<g id="node40" class="node"><title>Node39</title>
<polygon fill="white" stroke="#bfbfbf" points="1172.5,-224.5 1172.5,-243.5 1219.5,-243.5 1219.5,-224.5 1172.5,-224.5"/>
<text text-anchor="middle" x="1196" y="-231.5" font-family="Helvetica,sans-Serif" font-size="10.00">TFile.h</text>
</g>
<!-- Node0&#45;&gt;Node39 -->
<g id="edge70" class="edge"><title>Node0&#45;&gt;Node39</title>
<path fill="none" stroke="midnightblue" d="M1161.66,-280.781C1168.14,-272.152 1176.43,-261.088 1183.25,-251.999"/>
<polygon fill="midnightblue" stroke="midnightblue" points="1186.25,-253.831 1189.45,-243.731 1180.65,-249.631 1186.25,-253.831"/>
</g>
<!-- Node40 -->
<g id="node41" class="node"><title>Node40</title>
<polygon fill="white" stroke="#bfbfbf" points="1237.5,-224.5 1237.5,-243.5 1284.5,-243.5 1284.5,-224.5 1237.5,-224.5"/>
<text text-anchor="middle" x="1261" y="-231.5" font-family="Helvetica,sans-Serif" font-size="10.00">TList.h</text>
</g>
<!-- Node0&#45;&gt;Node40 -->
<g id="edge71" class="edge"><title>Node0&#45;&gt;Node40</title>
<path fill="none" stroke="midnightblue" d="M1176.79,-280.933C1194.69,-271.171 1218.39,-258.24 1236.09,-248.586"/>
<polygon fill="midnightblue" stroke="midnightblue" points="1238.13,-251.461 1245.23,-243.6 1234.78,-245.316 1238.13,-251.461"/>
</g>
<!-- Node41 -->
<g id="node42" class="node"><title>Node41</title>
<polygon fill="white" stroke="#bfbfbf" points="1303,-224.5 1303,-243.5 1351,-243.5 1351,-224.5 1303,-224.5"/>
<text text-anchor="middle" x="1327" y="-231.5" font-family="Helvetica,sans-Serif" font-size="10.00">TKey.h</text>
</g>
<!-- Node0&#45;&gt;Node41 -->
<g id="edge72" class="edge"><title>Node0&#45;&gt;Node41</title>
<path fill="none" stroke="midnightblue" d="M1192.26,-280.933C1222.98,-270.46 1264.41,-256.338 1293.18,-246.529"/>
<polygon fill="midnightblue" stroke="midnightblue" points="1294.46,-249.792 1302.79,-243.253 1292.2,-243.167 1294.46,-249.792"/>
</g>
<!-- Node42 -->
<g id="node43" class="node"><title>Node42</title>
<polygon fill="white" stroke="#bfbfbf" points="1369,-224.5 1369,-243.5 1425,-243.5 1425,-224.5 1369,-224.5"/>
<text text-anchor="middle" x="1397" y="-231.5" font-family="Helvetica,sans-Serif" font-size="10.00">TClass.h</text>
</g>
<!-- Node0&#45;&gt;Node42 -->
<g id="edge73" class="edge"><title>Node0&#45;&gt;Node42</title>
<path fill="none" stroke="midnightblue" d="M1208.68,-280.933C1255.05,-269.621 1318.89,-254.052 1359.04,-244.259"/>
<polygon fill="midnightblue" stroke="midnightblue" points="1360.07,-247.61 1368.96,-241.84 1358.41,-240.809 1360.07,-247.61"/>
</g>
<!-- Node43 -->
<g id="node44" class="node"><title>Node43</title>
<polygon fill="white" stroke="#bfbfbf" points="1443,-224.5 1443,-243.5 1487,-243.5 1487,-224.5 1443,-224.5"/>
<text text-anchor="middle" x="1465" y="-231.5" font-family="Helvetica,sans-Serif" font-size="10.00">TH1.h</text>
</g>
<!-- Node0&#45;&gt;Node43 -->
<g id="edge74" class="edge"><title>Node0&#45;&gt;Node43</title>
<path fill="none" stroke="midnightblue" d="M1212.68,-285.581C1267.8,-276.77 1350.93,-262.517 1432.72,-243.864"/>
<polygon fill="midnightblue" stroke="midnightblue" points="1433.73,-247.223 1442.69,-241.567 1432.16,-240.402 1433.73,-247.223"/>
</g>
<!-- Node44 -->
<g id="node45" class="node"><title>Node44</title>
<polygon fill="white" stroke="#bfbfbf" points="1505,-224.5 1505,-243.5 1595,-243.5 1595,-224.5 1505,-224.5"/>
<text text-anchor="middle" x="1550" y="-231.5" font-family="Helvetica,sans-Serif" font-size="10.00">TFileMergeInfo.h</text>
</g>
<!-- Node0&#45;&gt;Node44 -->
<g id="edge75" class="edge"><title>Node0&#45;&gt;Node44</title>
<path fill="none" stroke="midnightblue" d="M1212.56,-286.157C1281.42,-276.2 1396.27,-259.395 1495,-244 1495.1,-243.984 1495.2,-243.968 1495.31,-243.952"/>
<polygon fill="midnightblue" stroke="midnightblue" points="1495.65,-247.441 1504.99,-242.422 1494.56,-240.526 1495.65,-247.441"/>
</g>
<!-- Node1&#45;&gt;Node2 -->
<g id="edge2" class="edge"><title>Node1&#45;&gt;Node2</title>
<path fill="none" stroke="midnightblue" d="M157.866,-224.444C133.518,-215.438 94.9929,-201.189 67.577,-191.049"/>
<polygon fill="midnightblue" stroke="midnightblue" points="68.6191,-187.703 58.0259,-187.516 66.1908,-194.268 68.6191,-187.703"/>
</g>
<!-- Node3 -->
<g id="node4" class="node"><title>Node3</title>
<polygon fill="white" stroke="#bfbfbf" points="327,-112.5 327,-131.5 379,-131.5 379,-112.5 327,-112.5"/>
<text text-anchor="middle" x="353" y="-119.5" font-family="Helvetica,sans-Serif" font-size="10.00">memory</text>
</g>
<!-- Node1&#45;&gt;Node3 -->
<g id="edge3" class="edge"><title>Node1&#45;&gt;Node3</title>
<path fill="none" stroke="midnightblue" d="M185.775,-224.161C193.664,-210.335 210.686,-183.566 232,-168 257.453,-149.412 291.454,-137.666 316.931,-130.855"/>
<polygon fill="midnightblue" stroke="midnightblue" points="318.101,-134.169 326.932,-128.316 316.378,-127.385 318.101,-134.169"/>
</g>
<!-- Node4 -->
<g id="node5" class="node"><title>Node4</title>
<polygon fill="white" stroke="#bfbfbf" points="178,-0.5 178,-19.5 222,-19.5 222,-0.5 178,-0.5"/>
<text text-anchor="middle" x="200" y="-7.5" font-family="Helvetica,sans-Serif" font-size="10.00">vector</text>
</g>
<!-- Node1&#45;&gt;Node4 -->
<g id="edge4" class="edge"><title>Node1&#45;&gt;Node4</title>
<path fill="none" stroke="midnightblue" d="M162.611,-224.471C148.899,-216.997 131.185,-204.71 123,-188 97.1932,-135.314 93.801,-106.884 123,-56 132.727,-39.0483 151.582,-27.8731 168.199,-20.8991"/>
<polygon fill="midnightblue" stroke="midnightblue" points="169.562,-24.1247 177.638,-17.2665 167.048,-17.5918 169.562,-24.1247"/>
</g>
<!-- Node5&#45;&gt;Node3 -->
<g id="edge39" class="edge"><title>Node5&#45;&gt;Node3</title>
<path fill="none" stroke="midnightblue" d="M443.478,-224.351C427.611,-216.584 405.41,-203.957 390,-188 376.918,-174.453 366.784,-155.394 360.455,-141.415"/>
<polygon fill="midnightblue" stroke="midnightblue" points="363.53,-139.704 356.372,-131.892 357.096,-142.462 363.53,-139.704"/>
</g>
<!-- Node5&#45;&gt;Node4 -->
<g id="edge9" class="edge"><title>Node5&#45;&gt;Node4</title>
<path fill="none" stroke="midnightblue" d="M435.822,-231.777C378.871,-228.631 249.808,-218.26 220,-188 177.898,-145.259 188.122,-65.6468 195.543,-29.594"/>
<polygon fill="midnightblue" stroke="midnightblue" points="199.029,-30.0425 197.784,-19.521 192.196,-28.5222 199.029,-30.0425"/>
</g>
<!-- Node6 -->
<g id="node7" class="node"><title>Node6</title>
<polygon fill="white" stroke="#bfbfbf" points="591,-112.5 591,-131.5 647,-131.5 647,-112.5 591,-112.5"/>
<text text-anchor="middle" x="619" y="-119.5" font-family="Helvetica,sans-Serif" font-size="10.00">Rtypes.h</text>
</g>
<!-- Node5&#45;&gt;Node6 -->
<g id="edge6" class="edge"><title>Node5&#45;&gt;Node6</title>
<path fill="none" stroke="midnightblue" d="M477.618,-224.45C492.362,-215.691 515.65,-201.484 535,-188 558.319,-171.751 584.008,-151.506 600.76,-137.967"/>
<polygon fill="midnightblue" stroke="midnightblue" points="603.095,-140.579 608.646,-131.555 598.679,-135.148 603.095,-140.579"/>
</g>
<!-- Node7 -->
<g id="node8" class="node"><title>Node7</title>
<polygon fill="white" stroke="#bfbfbf" points="241,-168.5 241,-187.5 305,-187.5 305,-168.5 241,-168.5"/>
<text text-anchor="middle" x="273" y="-175.5" font-family="Helvetica,sans-Serif" font-size="10.00">THStack.h</text>
</g>
<!-- Node5&#45;&gt;Node7 -->
<g id="edge7" class="edge"><title>Node5&#45;&gt;Node7</title>
<path fill="none" stroke="midnightblue" d="M435.778,-225.263C403.607,-216.12 349.798,-200.827 312.915,-190.344"/>
<polygon fill="midnightblue" stroke="midnightblue" points="313.569,-186.892 302.993,-187.524 311.655,-193.625 313.569,-186.892"/>
</g>
<!-- Node8 -->
<g id="node9" class="node"><title>Node8</title>
<polygon fill="white" stroke="#bfbfbf" points="863.5,-0.5 863.5,-19.5 904.5,-19.5 904.5,-0.5 863.5,-0.5"/>
<text text-anchor="middle" x="884" y="-7.5" font-family="Helvetica,sans-Serif" font-size="10.00">string</text>
</g>
<!-- Node5&#45;&gt;Node8 -->
<g id="edge8" class="edge"><title>Node5&#45;&gt;Node8</title>
<path fill="none" stroke="midnightblue" d="M490.222,-231.45C555.77,-227.331 720.456,-214.564 768,-188 824.732,-156.302 830.145,-132.643 862,-76 870.212,-61.3974 876.041,-43.224 879.626,-29.8092"/>
<polygon fill="midnightblue" stroke="midnightblue" points="883.088,-30.3927 882.114,-19.8427 876.296,-28.6976 883.088,-30.3927"/>
</g>
<!-- Node9 -->
<g id="node10" class="node"><title>Node9</title>
<g id="a_node10"><a xlink:href="_root_draw_8h.html" target="_top" xlink:title="analysis/plot/RootDraw.h">
<polygon fill="white" stroke="black" points="399.5,-168.5 399.5,-187.5 526.5,-187.5 526.5,-168.5 399.5,-168.5"/>
<text text-anchor="middle" x="463" y="-175.5" font-family="Helvetica,sans-Serif" font-size="10.00">analysis/plot/RootDraw.h</text>
</a>
</g>
</g>
<!-- Node5&#45;&gt;Node9 -->
<g id="edge10" class="edge"><title>Node5&#45;&gt;Node9</title>
<path fill="none" stroke="midnightblue" d="M463,-224.083C463,-217.006 463,-206.861 463,-197.986"/>
<polygon fill="midnightblue" stroke="midnightblue" points="466.5,-197.751 463,-187.751 459.5,-197.751 466.5,-197.751"/>
</g>
<!-- Node13 -->
<g id="node14" class="node"><title>Node13</title>
<g id="a_node14"><a xlink:href="interval_8h.html" target="_top" xlink:title="base/interval.h">
<polygon fill="white" stroke="black" points="371,-56.5 371,-75.5 451,-75.5 451,-56.5 371,-56.5"/>
<text text-anchor="middle" x="411" y="-63.5" font-family="Helvetica,sans-Serif" font-size="10.00">base/interval.h</text>
</a>
</g>
</g>
<!-- Node5&#45;&gt;Node13 -->
<g id="edge34" class="edge"><title>Node5&#45;&gt;Node13</title>
<path fill="none" stroke="midnightblue" d="M435.903,-224.467C399.859,-211.36 338.323,-182.355 318,-132 307.501,-105.988 337.459,-88.8019 366.113,-78.6719"/>
<polygon fill="midnightblue" stroke="midnightblue" points="367.319,-81.9597 375.72,-75.5044 365.127,-75.3116 367.319,-81.9597"/>
</g>
<!-- Node22 -->
<g id="node23" class="node"><title>Node22</title>
<g id="a_node23"><a xlink:href="_hist_style_8h.html" target="_top" xlink:title="analysis/plot/HistStyle.h">
<polygon fill="white" stroke="black" points="636.5,-168.5 636.5,-187.5 759.5,-187.5 759.5,-168.5 636.5,-168.5"/>
<text text-anchor="middle" x="698" y="-175.5" font-family="Helvetica,sans-Serif" font-size="10.00">analysis/plot/HistStyle.h</text>
</a>
</g>
</g>
<!-- Node5&#45;&gt;Node22 -->
<g id="edge30" class="edge"><title>Node5&#45;&gt;Node22</title>
<path fill="none" stroke="midnightblue" d="M490.417,-226.7C529.754,-217.661 602.752,-200.887 650.854,-189.834"/>
<polygon fill="midnightblue" stroke="midnightblue" points="651.757,-193.217 660.719,-187.567 650.189,-186.395 651.757,-193.217"/>
</g>
<!-- Node23 -->
<g id="node24" class="node"><title>Node23</title>
<g id="a_node24"><a xlink:href="base_2std__ext_2math_8h.html" target="_top" xlink:title="base/std_ext/math.h">
<polygon fill="white" stroke="black" points="247,-56.5 247,-75.5 353,-75.5 353,-56.5 247,-56.5"/>
<text text-anchor="middle" x="300" y="-63.5" font-family="Helvetica,sans-Serif" font-size="10.00">base/std_ext/math.h</text>
</a>
</g>
</g>
<!-- Node5&#45;&gt;Node23 -->
<g id="edge35" class="edge"><title>Node5&#45;&gt;Node23</title>
<path fill="none" stroke="midnightblue" d="M435.924,-231.88C380.59,-228.964 257.593,-219.059 232,-188 203.688,-153.64 251.663,-105.85 280.556,-81.9126"/>
<polygon fill="midnightblue" stroke="midnightblue" points="282.862,-84.5501 288.463,-75.5571 278.476,-79.0941 282.862,-84.5501"/>
</g>
<!-- Node24 -->
<g id="node25" class="node"><title>Node24</title>
<polygon fill="white" stroke="#bfbfbf" points="583.5,-168.5 583.5,-187.5 618.5,-187.5 618.5,-168.5 583.5,-168.5"/>
<text text-anchor="middle" x="601" y="-175.5" font-family="Helvetica,sans-Serif" font-size="10.00">map</text>
</g>
<!-- Node5&#45;&gt;Node24 -->
<g id="edge40" class="edge"><title>Node5&#45;&gt;Node24</title>
<path fill="none" stroke="midnightblue" d="M484.867,-224.444C508.886,-215.045 547.503,-199.934 573.544,-189.744"/>
<polygon fill="midnightblue" stroke="midnightblue" points="575.148,-192.874 583.185,-185.971 572.597,-186.356 575.148,-192.874"/>
</g>
<!-- Node9&#45;&gt;Node3 -->
<g id="edge14" class="edge"><title>Node9&#45;&gt;Node3</title>
<path fill="none" stroke="midnightblue" d="M445.327,-168.324C427.606,-159.625 400.097,-146.12 379.712,-136.113"/>
<polygon fill="midnightblue" stroke="midnightblue" points="381.149,-132.919 370.63,-131.655 378.064,-139.203 381.149,-132.919"/>
</g>
<!-- Node9&#45;&gt;Node4 -->
<g id="edge13" class="edge"><title>Node9&#45;&gt;Node4</title>
<path fill="none" stroke="midnightblue" d="M455.685,-168.271C443.295,-154.097 416.714,-126.234 388,-112 318.025,-77.3127 272.184,-130.25 216,-76 203.73,-64.1523 200.27,-44.5253 199.551,-29.9328"/>
<polygon fill="midnightblue" stroke="midnightblue" points="203.047,-29.5183 199.447,-19.5541 196.048,-29.5889 203.047,-29.5183"/>
</g>
<!-- Node9&#45;&gt;Node6 -->
<g id="edge29" class="edge"><title>Node9&#45;&gt;Node6</title>
<path fill="none" stroke="midnightblue" d="M487.719,-168.444C513.848,-159.399 555.259,-145.064 584.576,-134.916"/>
<polygon fill="midnightblue" stroke="midnightblue" points="586.092,-138.095 594.397,-131.516 583.802,-131.48 586.092,-138.095"/>
</g>
<!-- Node9&#45;&gt;Node8 -->
<g id="edge11" class="edge"><title>Node9&#45;&gt;Node8</title>
<path fill="none" stroke="midnightblue" d="M478.2,-168.319C507.779,-151.481 571.139,-115.707 582,-112 678.257,-79.1424 715.665,-118.655 808,-76 832.736,-64.5732 855.705,-42.7285 869.778,-27.5335"/>
<polygon fill="midnightblue" stroke="midnightblue" points="872.567,-29.6665 876.636,-19.8843 867.355,-24.9937 872.567,-29.6665"/>
</g>
<!-- Node10 -->
<g id="node11" class="node"><title>Node10</title>
<polygon fill="white" stroke="#bfbfbf" points="857.5,-112.5 857.5,-131.5 886.5,-131.5 886.5,-112.5 857.5,-112.5"/>
<text text-anchor="middle" x="872" y="-119.5" font-family="Helvetica,sans-Serif" font-size="10.00">list</text>
</g>
<!-- Node9&#45;&gt;Node10 -->
<g id="edge12" class="edge"><title>Node9&#45;&gt;Node10</title>
<path fill="none" stroke="midnightblue" d="M526.906,-168.562C618.89,-156.418 784.429,-134.562 847.07,-126.292"/>
<polygon fill="midnightblue" stroke="midnightblue" points="847.746,-129.733 857.202,-124.954 846.83,-122.793 847.746,-129.733"/>
</g>
<!-- Node11 -->
<g id="node12" class="node"><title>Node11</title>
<polygon fill="white" stroke="#bfbfbf" points="665.5,-112.5 665.5,-131.5 724.5,-131.5 724.5,-112.5 665.5,-112.5"/>
<text text-anchor="middle" x="695" y="-119.5" font-family="Helvetica,sans-Serif" font-size="10.00">functional</text>
</g>
<!-- Node9&#45;&gt;Node11 -->
<g id="edge15" class="edge"><title>Node9&#45;&gt;Node11</title>
<path fill="none" stroke="midnightblue" d="M499.761,-168.444C542.226,-158.56 611.828,-142.359 655.443,-132.207"/>
<polygon fill="midnightblue" stroke="midnightblue" points="656.458,-135.565 665.404,-129.889 654.871,-128.747 656.458,-135.565"/>
</g>
<!-- Node12 -->
<g id="node13" class="node"><title>Node12</title>
<g id="a_node13"><a xlink:href="_bin_settings_8h.html" target="_top" xlink:title="base/BinSettings.h">
<polygon fill="white" stroke="black" points="435.5,-112.5 435.5,-131.5 534.5,-131.5 534.5,-112.5 435.5,-112.5"/>
<text text-anchor="middle" x="485" y="-119.5" font-family="Helvetica,sans-Serif" font-size="10.00">base/BinSettings.h</text>
</a>
</g>
</g>
<!-- Node9&#45;&gt;Node12 -->
<g id="edge16" class="edge"><title>Node9&#45;&gt;Node12</title>
<path fill="none" stroke="midnightblue" d="M466.633,-168.083C469.612,-160.77 473.926,-150.181 477.625,-141.103"/>
<polygon fill="midnightblue" stroke="midnightblue" points="480.903,-142.333 481.435,-131.751 474.42,-139.691 480.903,-142.333"/>
</g>
<!-- Node12&#45;&gt;Node4 -->
<g id="edge25" class="edge"><title>Node12&#45;&gt;Node4</title>
<path fill="none" stroke="midnightblue" d="M435.323,-113.039C365.544,-101.699 246.055,-81.6418 238,-76 221.975,-64.7762 211.699,-44.4581 205.927,-29.5163"/>
<polygon fill="midnightblue" stroke="midnightblue" points="209.126,-28.0628 202.503,-19.7934 202.524,-30.3882 209.126,-28.0628"/>
</g>
<!-- Node12&#45;&gt;Node13 -->
<g id="edge17" class="edge"><title>Node12&#45;&gt;Node13</title>
<path fill="none" stroke="midnightblue" d="M473.111,-112.324C461.85,-104.107 444.713,-91.6017 431.291,-81.8069"/>
<polygon fill="midnightblue" stroke="midnightblue" points="433.247,-78.9014 423.106,-75.8339 429.12,-84.5559 433.247,-78.9014"/>
</g>
<!-- Node16 -->
<g id="node17" class="node"><title>Node16</title>
<polygon fill="white" stroke="#bfbfbf" points="539.5,-0.5 539.5,-19.5 598.5,-19.5 598.5,-0.5 539.5,-0.5"/>
<text text-anchor="middle" x="569" y="-7.5" font-family="Helvetica,sans-Serif" font-size="10.00">stdexcept</text>
</g>
<!-- Node12&#45;&gt;Node16 -->
<g id="edge26" class="edge"><title>Node12&#45;&gt;Node16</title>
<path fill="none" stroke="midnightblue" d="M517.083,-112.427C535.401,-105.718 556.874,-94.3653 568,-76 576.398,-62.1376 575.689,-43.3731 573.447,-29.5688"/>
<polygon fill="midnightblue" stroke="midnightblue" points="576.875,-28.8599 571.466,-19.7499 570.013,-30.2446 576.875,-28.8599"/>
</g>
<!-- Node18 -->
<g id="node19" class="node"><title>Node18</title>
<polygon fill="white" stroke="#bfbfbf" points="454.5,-0.5 454.5,-19.5 503.5,-19.5 503.5,-0.5 454.5,-0.5"/>
<text text-anchor="middle" x="479" y="-7.5" font-family="Helvetica,sans-Serif" font-size="10.00">istream</text>
</g>
<!-- Node12&#45;&gt;Node18 -->
<g id="edge27" class="edge"><title>Node12&#45;&gt;Node18</title>
<path fill="none" stroke="midnightblue" d="M484.529,-112.368C483.561,-94.617 481.327,-53.6664 480.014,-29.5974"/>
<polygon fill="midnightblue" stroke="midnightblue" points="483.508,-29.3859 479.469,-19.5914 476.519,-29.7672 483.508,-29.3859"/>
</g>
<!-- Node21 -->
<g id="node22" class="node"><title>Node21</title>
<polygon fill="white" stroke="#bfbfbf" points="507,-56.5 507,-75.5 559,-75.5 559,-56.5 507,-56.5"/>
<text text-anchor="middle" x="533" y="-63.5" font-family="Helvetica,sans-Serif" font-size="10.00">ostream</text>
</g>
<!-- Node12&#45;&gt;Node21 -->
<g id="edge28" class="edge"><title>Node12&#45;&gt;Node21</title>
<path fill="none" stroke="midnightblue" d="M492.926,-112.083C499.846,-104.298 510.065,-92.8015 518.452,-83.3665"/>
<polygon fill="midnightblue" stroke="midnightblue" points="521.194,-85.5505 525.221,-75.7511 515.962,-80.8999 521.194,-85.5505"/>
</g>
<!-- Node14 -->
<g id="node15" class="node"><title>Node14</title>
<g id="a_node15"><a xlink:href="types_8h.html" target="_top" xlink:title="types.h">
<polygon fill="white" stroke="black" points="387.5,-0.5 387.5,-19.5 436.5,-19.5 436.5,-0.5 387.5,-0.5"/>
<text text-anchor="middle" x="412" y="-7.5" font-family="Helvetica,sans-Serif" font-size="10.00">types.h</text>
</a>
</g>
</g>
<!-- Node13&#45;&gt;Node14 -->
<g id="edge18" class="edge"><title>Node13&#45;&gt;Node14</title>
<path fill="none" stroke="midnightblue" d="M411.165,-56.083C411.296,-49.0059 411.484,-38.8611 411.648,-29.9865"/>
<polygon fill="midnightblue" stroke="midnightblue" points="415.152,-29.8142 411.838,-19.7511 408.153,-29.6845 415.152,-29.8142"/>
</g>
<!-- Node13&#45;&gt;Node15 -->
<g id="edge19" class="edge"><title>Node13&#45;&gt;Node15</title>
<path fill="none" stroke="midnightblue" d="M451.425,-59.1096C501.924,-51.5482 591.176,-37.5172 676.875,-20.1153"/>
<polygon fill="midnightblue" stroke="midnightblue" points="677.671,-23.5249 686.765,-18.0885 676.266,-16.6674 677.671,-23.5249"/>
</g>
<!-- Node13&#45;&gt;Node16 -->
<g id="edge20" class="edge"><title>Node13&#45;&gt;Node16</title>
<path fill="none" stroke="midnightblue" d="M436.036,-56.4435C462.616,-47.3591 504.809,-32.9388 534.523,-22.7831"/>
<polygon fill="midnightblue" stroke="midnightblue" points="535.751,-26.0625 544.082,-19.5164 533.487,-19.4386 535.751,-26.0625"/>
</g>
<!-- Node17 -->
<g id="node18" class="node"><title>Node17</title>
<polygon fill="white" stroke="#bfbfbf" points="267,-0.5 267,-19.5 307,-19.5 307,-0.5 267,-0.5"/>
<text text-anchor="middle" x="287" y="-7.5" font-family="Helvetica,sans-Serif" font-size="10.00">limits</text>
</g>
<!-- Node13&#45;&gt;Node17 -->
<g id="edge21" class="edge"><title>Node13&#45;&gt;Node17</title>
<path fill="none" stroke="midnightblue" d="M391.352,-56.4435C371.035,-47.5961 339.097,-33.6875 315.902,-23.5865"/>
<polygon fill="midnightblue" stroke="midnightblue" points="317.122,-20.3002 306.556,-19.5164 314.327,-26.7181 317.122,-20.3002"/>
</g>
<!-- Node13&#45;&gt;Node18 -->
<g id="edge22" class="edge"><title>Node13&#45;&gt;Node18</title>
<path fill="none" stroke="midnightblue" d="M421.925,-56.324C432.175,-48.1849 447.721,-35.8395 460.001,-26.0874"/>
<polygon fill="midnightblue" stroke="midnightblue" points="462.221,-28.7937 467.876,-19.8339 457.868,-23.3119 462.221,-28.7937"/>
</g>
<!-- Node19 -->
<g id="node20" class="node"><title>Node19</title>
<polygon fill="white" stroke="#bfbfbf" points="617,-0.5 617,-19.5 669,-19.5 669,-0.5 617,-0.5"/>
<text text-anchor="middle" x="643" y="-7.5" font-family="Helvetica,sans-Serif" font-size="10.00">sstream</text>
</g>
<!-- Node13&#45;&gt;Node19 -->
<g id="edge23" class="edge"><title>Node13&#45;&gt;Node19</title>
<path fill="none" stroke="midnightblue" d="M449.359,-56.423C486.901,-47.9776 545.959,-34.5564 606.878,-19.9919"/>
<polygon fill="midnightblue" stroke="midnightblue" points="607.76,-23.3798 616.668,-17.6452 606.128,-16.5727 607.76,-23.3798"/>
</g>
<!-- Node20 -->
<g id="node21" class="node"><title>Node20</title>
<polygon fill="white" stroke="#bfbfbf" points="325,-0.5 325,-19.5 369,-19.5 369,-0.5 325,-0.5"/>
<text text-anchor="middle" x="347" y="-7.5" font-family="Helvetica,sans-Serif" font-size="10.00">cmath</text>
</g>
<!-- Node13&#45;&gt;Node20 -->
<g id="edge24" class="edge"><title>Node13&#45;&gt;Node20</title>
<path fill="none" stroke="midnightblue" d="M400.717,-56.324C391.164,-48.2631 376.72,-36.0765 365.216,-26.3695"/>
<polygon fill="midnightblue" stroke="midnightblue" points="367.37,-23.6076 357.47,-19.8339 362.856,-28.9577 367.37,-23.6076"/>
</g>
<!-- Node22&#45;&gt;Node6 -->
<g id="edge31" class="edge"><title>Node22&#45;&gt;Node6</title>
<path fill="none" stroke="midnightblue" d="M685.307,-168.324C673.099,-159.979 654.422,-147.212 639.997,-137.352"/>
<polygon fill="midnightblue" stroke="midnightblue" points="641.892,-134.408 631.661,-131.655 637.942,-140.187 641.892,-134.408"/>
</g>
<!-- Node22&#45;&gt;Node8 -->
<g id="edge32" class="edge"><title>Node22&#45;&gt;Node8</title>
<path fill="none" stroke="midnightblue" d="M714.039,-168.34C742.121,-152.635 801.004,-117.235 841,-76 854.797,-61.7761 866.881,-42.5536 874.696,-28.7069"/>
<polygon fill="midnightblue" stroke="midnightblue" points="877.881,-30.1778 879.596,-19.7228 871.735,-26.826 877.881,-30.1778"/>
</g>
<!-- Node22&#45;&gt;Node11 -->
<g id="edge33" class="edge"><title>Node22&#45;&gt;Node11</title>
<path fill="none" stroke="midnightblue" d="M697.505,-168.083C697.111,-161.006 696.548,-150.861 696.055,-141.986"/>
<polygon fill="midnightblue" stroke="midnightblue" points="699.536,-141.542 695.486,-131.751 692.546,-141.93 699.536,-141.542"/>
</g>
<!-- Node23&#45;&gt;Node4 -->
<g id="edge38" class="edge"><title>Node23&#45;&gt;Node4</title>
<path fill="none" stroke="midnightblue" d="M283.933,-56.324C268.042,-47.7428 243.493,-34.486 225.042,-24.5224"/>
<polygon fill="midnightblue" stroke="midnightblue" points="226.489,-21.3264 216.027,-19.6545 223.163,-27.4857 226.489,-21.3264"/>
</g>
<!-- Node23&#45;&gt;Node17 -->
<g id="edge37" class="edge"><title>Node23&#45;&gt;Node17</title>
<path fill="none" stroke="midnightblue" d="M297.853,-56.083C296.131,-48.9272 293.653,-38.6353 291.5,-29.6911"/>
<polygon fill="midnightblue" stroke="midnightblue" points="294.85,-28.6541 289.107,-19.7511 288.045,-30.2925 294.85,-28.6541"/>
</g>
<!-- Node23&#45;&gt;Node20 -->
<g id="edge36" class="edge"><title>Node23&#45;&gt;Node20</title>
<path fill="none" stroke="midnightblue" d="M307.761,-56.083C314.537,-48.2982 324.543,-36.8015 332.755,-27.3665"/>
<polygon fill="midnightblue" stroke="midnightblue" points="335.458,-29.592 339.383,-19.7511 330.178,-24.9963 335.458,-29.592"/>
</g>
<!-- Node25&#45;&gt;Node8 -->
<g id="edge60" class="edge"><title>Node25&#45;&gt;Node8</title>
<path fill="none" stroke="midnightblue" d="M1154.58,-224.71C1256.41,-206.269 1479.74,-159.704 1441,-112 1373.92,-29.3889 1021.73,-14.2688 914.808,-11.5707"/>
<polygon fill="midnightblue" stroke="midnightblue" points="914.76,-8.06875 904.681,-11.3345 914.597,-15.0668 914.76,-8.06875"/>
</g>
<!-- Node26 -->
<g id="node27" class="node"><title>Node26</title>
<g id="a_node27"><a xlink:href="_t_i_d_8h.html" target="_top" xlink:title="TID.h">
<polygon fill="white" stroke="black" points="1226.5,-168.5 1226.5,-187.5 1267.5,-187.5 1267.5,-168.5 1226.5,-168.5"/>
<text text-anchor="middle" x="1247" y="-175.5" font-family="Helvetica,sans-Serif" font-size="10.00">TID.h</text>
</a>
</g>
</g>
<!-- Node25&#45;&gt;Node26 -->
<g id="edge42" class="edge"><title>Node25&#45;&gt;Node26</title>
<path fill="none" stroke="midnightblue" d="M1128.34,-224.444C1152.17,-215.319 1190.05,-200.813 1216.58,-190.65"/>
<polygon fill="midnightblue" stroke="midnightblue" points="1218.05,-193.833 1226.14,-186.988 1215.55,-187.296 1218.05,-193.833"/>
</g>
<!-- Node35 -->
<g id="node36" class="node"><title>Node35</title>
<polygon fill="white" stroke="#bfbfbf" points="1146,-168.5 1146,-187.5 1208,-187.5 1208,-168.5 1146,-168.5"/>
<text text-anchor="middle" x="1177" y="-175.5" font-family="Helvetica,sans-Serif" font-size="10.00">TNamed.h</text>
</g>
<!-- Node25&#45;&gt;Node35 -->
<g id="edge59" class="edge"><title>Node25&#45;&gt;Node35</title>
<path fill="none" stroke="midnightblue" d="M1117.41,-224.324C1128.11,-216.185 1144.34,-203.839 1157.16,-194.087"/>
<polygon fill="midnightblue" stroke="midnightblue" points="1159.54,-196.673 1165.39,-187.834 1155.31,-191.102 1159.54,-196.673"/>
</g>
<!-- Node26&#45;&gt;Node6 -->
<g id="edge43" class="edge"><title>Node26&#45;&gt;Node6</title>
<path fill="none" stroke="midnightblue" d="M1226.47,-170.361C1223.01,-169.436 1219.42,-168.599 1216,-168 973.575,-125.543 904.368,-168.454 657.184,-131.899"/>
<polygon fill="midnightblue" stroke="midnightblue" points="657.591,-128.421 647.181,-130.391 656.547,-135.343 657.591,-128.421"/>
</g>
<!-- Node26&#45;&gt;Node10 -->
<g id="edge56" class="edge"><title>Node26&#45;&gt;Node10</title>
<path fill="none" stroke="midnightblue" d="M1226.44,-170.507C1222.98,-169.565 1219.41,-168.684 1216,-168 1077.85,-140.258 1038.89,-161.01 901,-132 899.517,-131.688 898.001,-131.333 896.479,-130.947"/>
<polygon fill="midnightblue" stroke="midnightblue" points="897.19,-127.51 886.613,-128.119 895.261,-134.239 897.19,-127.51"/>
</g>
<!-- Node26&#45;&gt;Node16 -->
<g id="edge55" class="edge"><title>Node26&#45;&gt;Node16</title>
<path fill="none" stroke="midnightblue" d="M1226.41,-170.679C1222.95,-169.716 1219.38,-168.784 1216,-168 1180.73,-159.829 930.683,-118.128 895,-112 800.376,-95.7499 772.361,-108.444 682,-76 647.147,-63.4859 610.684,-40.4146 588.907,-25.394"/>
<polygon fill="midnightblue" stroke="midnightblue" points="590.716,-22.3874 580.521,-19.5037 586.692,-28.1156 590.716,-22.3874"/>
</g>
<!-- Node27 -->
<g id="node28" class="node"><title>Node27</title>
<g id="a_node28"><a xlink:href="base_2std__ext_2_time_8h.html" target="_top" xlink:title="base/std_ext/time.h">
<polygon fill="white" stroke="black" points="1022.5,-112.5 1022.5,-131.5 1125.5,-131.5 1125.5,-112.5 1022.5,-112.5"/>
<text text-anchor="middle" x="1074" y="-119.5" font-family="Helvetica,sans-Serif" font-size="10.00">base/std_ext/time.h</text>
</a>
</g>
</g>
<!-- Node26&#45;&gt;Node27 -->
<g id="edge44" class="edge"><title>Node26&#45;&gt;Node27</title>
<path fill="none" stroke="midnightblue" d="M1226.48,-170.593C1198.13,-161.745 1146.5,-145.63 1111.25,-134.626"/>
<polygon fill="midnightblue" stroke="midnightblue" points="1111.91,-131.167 1101.32,-131.529 1109.83,-137.849 1111.91,-131.167"/>
</g>
<!-- Node30 -->
<g id="node31" class="node"><title>Node30</title>
<polygon fill="white" stroke="#bfbfbf" points="1124.5,-56.5 1124.5,-75.5 1165.5,-75.5 1165.5,-56.5 1124.5,-56.5"/>
<text text-anchor="middle" x="1145" y="-63.5" font-family="Helvetica,sans-Serif" font-size="10.00">ctime</text>
</g>
<!-- Node26&#45;&gt;Node30 -->
<g id="edge58" class="edge"><title>Node26&#45;&gt;Node30</title>
<path fill="none" stroke="midnightblue" d="M1226.4,-168.698C1210.05,-161.211 1187.6,-148.795 1173,-132 1161.42,-118.683 1154.02,-99.8518 1149.76,-85.8841"/>
<polygon fill="midnightblue" stroke="midnightblue" points="1153.04,-84.6202 1146.99,-75.9231 1146.3,-86.4952 1153.04,-84.6202"/>
</g>
<!-- Node31 -->
<g id="node32" class="node"><title>Node31</title>
<polygon fill="white" stroke="#bfbfbf" points="1182,-112.5 1182,-131.5 1244,-131.5 1244,-112.5 1182,-112.5"/>
<text text-anchor="middle" x="1213" y="-119.5" font-family="Helvetica,sans-Serif" font-size="10.00">type_traits</text>
</g>
<!-- Node26&#45;&gt;Node31 -->
<g id="edge52" class="edge"><title>Node26&#45;&gt;Node31</title>
<path fill="none" stroke="midnightblue" d="M1241.39,-168.083C1236.63,-160.534 1229.68,-149.495 1223.85,-140.23"/>
<polygon fill="midnightblue" stroke="midnightblue" points="1226.8,-138.349 1218.51,-131.751 1220.88,-142.078 1226.8,-138.349"/>
</g>
<!-- Node32 -->
<g id="node33" class="node"><title>Node32</title>
<polygon fill="white" stroke="#bfbfbf" points="1262,-112.5 1262,-131.5 1300,-131.5 1300,-112.5 1262,-112.5"/>
<text text-anchor="middle" x="1281" y="-119.5" font-family="Helvetica,sans-Serif" font-size="10.00">tuple</text>
</g>
<!-- Node26&#45;&gt;Node32 -->
<g id="edge53" class="edge"><title>Node26&#45;&gt;Node32</title>
<path fill="none" stroke="midnightblue" d="M1252.61,-168.083C1257.37,-160.534 1264.32,-149.495 1270.15,-140.23"/>
<polygon fill="midnightblue" stroke="midnightblue" points="1273.12,-142.078 1275.49,-131.751 1267.2,-138.349 1273.12,-142.078"/>
</g>
<!-- Node33 -->
<g id="node34" class="node"><title>Node33</title>
<polygon fill="white" stroke="#bfbfbf" points="1318,-112.5 1318,-131.5 1364,-131.5 1364,-112.5 1318,-112.5"/>
<text text-anchor="middle" x="1341" y="-119.5" font-family="Helvetica,sans-Serif" font-size="10.00">cstdint</text>
</g>
<!-- Node26&#45;&gt;Node33 -->
<g id="edge54" class="edge"><title>Node26&#45;&gt;Node33</title>
<path fill="none" stroke="midnightblue" d="M1262.1,-168.324C1276.9,-159.822 1299.69,-146.729 1316.98,-136.797"/>
<polygon fill="midnightblue" stroke="midnightblue" points="1319.01,-139.671 1325.93,-131.655 1315.52,-133.601 1319.01,-139.671"/>
</g>
<!-- Node34 -->
<g id="node35" class="node"><title>Node34</title>
<polygon fill="white" stroke="#bfbfbf" points="1382,-112.5 1382,-131.5 1432,-131.5 1432,-112.5 1382,-112.5"/>
<text text-anchor="middle" x="1407" y="-119.5" font-family="Helvetica,sans-Serif" font-size="10.00">iomanip</text>
</g>
<!-- Node26&#45;&gt;Node34 -->
<g id="edge57" class="edge"><title>Node26&#45;&gt;Node34</title>
<path fill="none" stroke="midnightblue" d="M1267.59,-170.051C1293.94,-161.158 1339.99,-145.615 1371.92,-134.839"/>
<polygon fill="midnightblue" stroke="midnightblue" points="1373.39,-138.037 1381.75,-131.522 1371.15,-131.404 1373.39,-138.037"/>
</g>
<!-- Node28 -->
<g id="node29" class="node"><title>Node28</title>
<g id="a_node29"><a xlink:href="string_8h.html" target="_top" xlink:title="base/std_ext/string.h">
<polygon fill="white" stroke="black" points="691,-56.5 691,-75.5 799,-75.5 799,-56.5 691,-56.5"/>
<text text-anchor="middle" x="745" y="-63.5" font-family="Helvetica,sans-Serif" font-size="10.00">base/std_ext/string.h</text>
</a>
</g>
</g>
<!-- Node27&#45;&gt;Node28 -->
<g id="edge45" class="edge"><title>Node27&#45;&gt;Node28</title>
<path fill="none" stroke="midnightblue" d="M1022.23,-112.503C963.95,-102.937 869.293,-87.4006 807.085,-77.1902"/>
<polygon fill="midnightblue" stroke="midnightblue" points="807.444,-73.7024 797.009,-75.5364 806.31,-80.61 807.444,-73.7024"/>
</g>
<!-- Node29 -->
<g id="node30" class="node"><title>Node29</title>
<polygon fill="white" stroke="#bfbfbf" points="1051,-56.5 1051,-75.5 1097,-75.5 1097,-56.5 1051,-56.5"/>
<text text-anchor="middle" x="1074" y="-63.5" font-family="Helvetica,sans-Serif" font-size="10.00">cstring</text>
</g>
<!-- Node27&#45;&gt;Node29 -->
<g id="edge50" class="edge"><title>Node27&#45;&gt;Node29</title>
<path fill="none" stroke="midnightblue" d="M1074,-112.083C1074,-105.006 1074,-94.8611 1074,-85.9865"/>
<polygon fill="midnightblue" stroke="midnightblue" points="1077.5,-85.751 1074,-75.7511 1070.5,-85.7511 1077.5,-85.751"/>
</g>
<!-- Node27&#45;&gt;Node30 -->
<g id="edge51" class="edge"><title>Node27&#45;&gt;Node30</title>
<path fill="none" stroke="midnightblue" d="M1085.41,-112.324C1096.11,-104.185 1112.34,-91.8395 1125.16,-82.0874"/>
<polygon fill="midnightblue" stroke="midnightblue" points="1127.54,-84.6734 1133.39,-75.8339 1123.31,-79.1018 1127.54,-84.6734"/>
</g>
<!-- Node28&#45;&gt;Node4 -->
<g id="edge49" class="edge"><title>Node28&#45;&gt;Node4</title>
<path fill="none" stroke="midnightblue" d="M690.833,-61.094C600.799,-54.3554 414.736,-39.3832 258,-20 249.681,-18.9712 240.719,-17.6742 232.386,-16.3876"/>
<polygon fill="midnightblue" stroke="midnightblue" points="232.689,-12.8919 222.264,-14.7845 231.594,-19.8058 232.689,-12.8919"/>
</g>
<!-- Node28&#45;&gt;Node8 -->
<g id="edge46" class="edge"><title>Node28&#45;&gt;Node8</title>
<path fill="none" stroke="midnightblue" d="M767.025,-56.4435C790.511,-47.3194 827.853,-32.8125 854.012,-22.6501"/>
<polygon fill="midnightblue" stroke="midnightblue" points="855.384,-25.8721 863.437,-18.9883 852.849,-19.3471 855.384,-25.8721"/>
</g>
<!-- Node28&#45;&gt;Node15 -->
<g id="edge48" class="edge"><title>Node28&#45;&gt;Node15</title>
<path fill="none" stroke="midnightblue" d="M740.046,-56.083C735.896,-48.6127 729.847,-37.7244 724.733,-28.5199"/>
<polygon fill="midnightblue" stroke="midnightblue" points="727.778,-26.7929 719.862,-19.7511 721.659,-30.1924 727.778,-26.7929"/>
</g>
<!-- Node28&#45;&gt;Node19 -->
<g id="edge47" class="edge"><title>Node28&#45;&gt;Node19</title>
<path fill="none" stroke="midnightblue" d="M728.612,-56.324C712.329,-47.7034 687.133,-34.3643 668.284,-24.3855"/>
<polygon fill="midnightblue" stroke="midnightblue" points="669.823,-21.2402 659.347,-19.6545 666.548,-27.4267 669.823,-21.2402"/>
</g>
<!-- Node36&#45;&gt;Node8 -->
<g id="edge67" class="edge"><title>Node36&#45;&gt;Node8</title>
<path fill="none" stroke="midnightblue" d="M1031.59,-224.495C1072.61,-215.466 1119.02,-198.217 1099,-168 1076.34,-133.798 1048.43,-154.315 1014,-132 966.579,-101.263 920.425,-52.5165 898.03,-27.3029"/>
<polygon fill="midnightblue" stroke="midnightblue" points="900.603,-24.9276 891.379,-19.7144 895.338,-29.5416 900.603,-24.9276"/>
</g>
<!-- Node36&#45;&gt;Node10 -->
<g id="edge68" class="edge"><title>Node36&#45;&gt;Node10</title>
<path fill="none" stroke="midnightblue" d="M984.709,-224.221C993.974,-210.942 1008.23,-185.451 996,-168 993.009,-163.733 931.576,-142.782 896.325,-131.031"/>
<polygon fill="midnightblue" stroke="midnightblue" points="897.327,-127.675 886.733,-127.845 895.12,-134.319 897.327,-127.675"/>
</g>
<!-- Node36&#45;&gt;Node11 -->
<g id="edge66" class="edge"><title>Node36&#45;&gt;Node11</title>
<path fill="none" stroke="midnightblue" d="M955.793,-224.368C905.784,-204.93 784.208,-157.674 726.459,-135.228"/>
<polygon fill="midnightblue" stroke="midnightblue" points="727.692,-131.952 717.103,-131.591 725.156,-138.477 727.692,-131.952"/>
</g>
<!-- Node37 -->
<g id="node38" class="node"><title>Node37</title>
<g id="a_node38"><a xlink:href="memory_8h.html" target="_top" xlink:title="std_ext/memory.h">
<polygon fill="white" stroke="black" points="892.5,-168.5 892.5,-187.5 987.5,-187.5 987.5,-168.5 892.5,-168.5"/>
<text text-anchor="middle" x="940" y="-175.5" font-family="Helvetica,sans-Serif" font-size="10.00">std_ext/memory.h</text>
</a>
</g>
</g>
<!-- Node36&#45;&gt;Node37 -->
<g id="edge62" class="edge"><title>Node36&#45;&gt;Node37</title>
<path fill="none" stroke="midnightblue" d="M971.725,-224.083C966.358,-216.455 958.482,-205.264 951.921,-195.941"/>
<polygon fill="midnightblue" stroke="midnightblue" points="954.775,-193.915 946.158,-187.751 949.051,-197.943 954.775,-193.915"/>
</g>
<!-- Node38 -->
<g id="node39" class="node"><title>Node38</title>
<polygon fill="white" stroke="#bfbfbf" points="1044,-168.5 1044,-187.5 1090,-187.5 1090,-168.5 1044,-168.5"/>
<text text-anchor="middle" x="1067" y="-175.5" font-family="Helvetica,sans-Serif" font-size="10.00">chrono</text>
</g>
<!-- Node36&#45;&gt;Node38 -->
<g id="edge65" class="edge"><title>Node36&#45;&gt;Node38</title>
<path fill="none" stroke="midnightblue" d="M992.299,-224.324C1006.18,-215.9 1027.49,-202.971 1043.8,-193.074"/>
<polygon fill="midnightblue" stroke="midnightblue" points="1046,-195.834 1052.74,-187.655 1042.37,-189.85 1046,-195.834"/>
</g>
<!-- Node37&#45;&gt;Node3 -->
<g id="edge63" class="edge"><title>Node37&#45;&gt;Node3</title>
<path fill="none" stroke="midnightblue" d="M892.467,-173.403C801.706,-166.41 597.487,-150.072 426,-132 414.138,-130.75 401.214,-129.214 389.582,-127.767"/>
<polygon fill="midnightblue" stroke="midnightblue" points="389.689,-124.253 379.33,-126.474 388.813,-131.198 389.689,-124.253"/>
</g>
<!-- Node37&#45;&gt;Node10 -->
<g id="edge64" class="edge"><title>Node37&#45;&gt;Node10</title>
<path fill="none" stroke="midnightblue" d="M929.075,-168.324C918.825,-160.185 903.279,-147.839 890.999,-138.087"/>
<polygon fill="midnightblue" stroke="midnightblue" points="893.132,-135.312 883.124,-131.834 888.779,-140.794 893.132,-135.312"/>
</g>
</g>
</svg>
