<?xml version="1.0" encoding="UTF-8" standalone="no"?>
<!DOCTYPE svg PUBLIC "-//W3C//DTD SVG 1.1//EN"
 "http://www.w3.org/Graphics/SVG/1.1/DTD/svg11.dtd">
<!-- Generated by graphviz version 2.36.0 (20140111.2315)
 -->
<!-- Title: src/root&#45;addons/analysis_codes/hstack.cc Pages: 1 -->
<svg width="2912pt" height="320pt"
 viewBox="0.00 0.00 2911.79 320.00" xmlns="http://www.w3.org/2000/svg" xmlns:xlink="http://www.w3.org/1999/xlink">
<g id="graph0" class="graph" transform="scale(1 1) rotate(0) translate(4 316)">
<title>src/root&#45;addons/analysis_codes/hstack.cc</title>
<polygon fill="white" stroke="none" points="-4,4 -4,-316 2907.79,-316 2907.79,4 -4,4"/>
<!-- Node0 -->
<g id="node1" class="node"><title>Node0</title>
<polygon fill="#bfbfbf" stroke="black" points="1807.29,-281 1807.29,-311 1930.29,-311 1930.29,-281 1807.29,-281"/>
<text text-anchor="start" x="1815.29" y="-299" font-family="Helvetica,sans-Serif" font-size="10.00">src/root&#45;addons/analysis</text>
<text text-anchor="middle" x="1868.79" y="-288" font-family="Helvetica,sans-Serif" font-size="10.00">_codes/hstack.cc</text>
</g>
<!-- Node1 -->
<g id="node2" class="node"><title>Node1</title>
<g id="a_node2"><a xlink:href="hstack_8h.html" target="_top" xlink:title="hstack.h">
<polygon fill="white" stroke="black" points="484.793,-224.5 484.793,-243.5 538.793,-243.5 538.793,-224.5 484.793,-224.5"/>
<text text-anchor="middle" x="511.793" y="-231.5" font-family="Helvetica,sans-Serif" font-size="10.00">hstack.h</text>
</a>
</g>
</g>
<!-- Node0&#45;&gt;Node1 -->
<g id="edge1" class="edge"><title>Node0&#45;&gt;Node1</title>
<path fill="none" stroke="midnightblue" d="M1806.96,-292.266C1571.72,-281.865 736.409,-244.931 549.206,-236.654"/>
<polygon fill="midnightblue" stroke="midnightblue" points="549.191,-233.15 539.046,-236.205 548.881,-240.143 549.191,-233.15"/>
</g>
<!-- Node7 -->
<g id="node8" class="node"><title>Node7</title>
<polygon fill="white" stroke="#bfbfbf" points="44.2933,-112.5 44.2933,-131.5 73.2933,-131.5 73.2933,-112.5 44.2933,-112.5"/>
<text text-anchor="middle" x="58.7933" y="-119.5" font-family="Helvetica,sans-Serif" font-size="10.00">list</text>
</g>
<!-- Node0&#45;&gt;Node7 -->
<g id="edge71" class="edge"><title>Node0&#45;&gt;Node7</title>
<path fill="none" stroke="midnightblue" d="M1807.18,-294.102C1557.74,-290.292 622.199,-274.246 327.793,-244 182.859,-229.11 98.6053,-299.476 4.79326,-188 -10.3475,-170.008 14.6389,-149.066 35.4406,-135.92"/>
<polygon fill="midnightblue" stroke="midnightblue" points="37.4821,-138.777 44.2569,-130.631 33.881,-132.774 37.4821,-138.777"/>
</g>
<!-- Node23 -->
<g id="node24" class="node"><title>Node23</title>
<g id="a_node24"><a xlink:href="string_8h.html" target="_top" xlink:title="base/std_ext/string.h">
<polygon fill="white" stroke="black" points="803.793,-168.5 803.793,-187.5 911.793,-187.5 911.793,-168.5 803.793,-168.5"/>
<text text-anchor="middle" x="857.793" y="-175.5" font-family="Helvetica,sans-Serif" font-size="10.00">base/std_ext/string.h</text>
</a>
</g>
</g>
<!-- Node0&#45;&gt;Node23 -->
<g id="edge37" class="edge"><title>Node0&#45;&gt;Node23</title>
<path fill="none" stroke="midnightblue" d="M1807.04,-295.837C1672.47,-296.617 1343.12,-292.852 1072.79,-244 1006.15,-231.956 930.972,-206.336 889.516,-191.105"/>
<polygon fill="midnightblue" stroke="midnightblue" points="890.566,-187.761 879.973,-187.563 888.13,-194.324 890.566,-187.761"/>
</g>
<!-- Node24 -->
<g id="node25" class="node"><title>Node24</title>
<g id="a_node25"><a xlink:href="memory_8h.html" target="_top" xlink:title="base/std_ext/memory.h">
<polygon fill="white" stroke="black" points="14.2933,-168.5 14.2933,-187.5 133.293,-187.5 133.293,-168.5 14.2933,-168.5"/>
<text text-anchor="middle" x="73.7933" y="-175.5" font-family="Helvetica,sans-Serif" font-size="10.00">base/std_ext/memory.h</text>
</a>
</g>
</g>
<!-- Node0&#45;&gt;Node24 -->
<g id="edge42" class="edge"><title>Node0&#45;&gt;Node24</title>
<path fill="none" stroke="midnightblue" d="M1807.17,-295.457C1611.73,-296.325 988.461,-294.636 475.793,-244 349.208,-231.497 201.986,-204.462 125.662,-189.497"/>
<polygon fill="midnightblue" stroke="midnightblue" points="126.307,-186.057 115.819,-187.557 124.953,-192.925 126.307,-186.057"/>
</g>
<!-- Node25 -->
<g id="node26" class="node"><title>Node25</title>
<g id="a_node26"><a xlink:href="container_8h.html" target="_top" xlink:title="base/std_ext/container.h">
<polygon fill="white" stroke="black" points="929.793,-168.5 929.793,-187.5 1053.79,-187.5 1053.79,-168.5 929.793,-168.5"/>
<text text-anchor="middle" x="991.793" y="-175.5" font-family="Helvetica,sans-Serif" font-size="10.00">base/std_ext/container.h</text>
</a>
</g>
</g>
<!-- Node0&#45;&gt;Node25 -->
<g id="edge45" class="edge"><title>Node0&#45;&gt;Node25</title>
<path fill="none" stroke="midnightblue" d="M1807.1,-293.588C1653.98,-289.626 1259.75,-276.494 1132.79,-244 1088.88,-232.76 1041.81,-208.237 1014.69,-192.734"/>
<polygon fill="midnightblue" stroke="midnightblue" points="1016.37,-189.661 1005.96,-187.662 1012.85,-195.713 1016.37,-189.661"/>
</g>
<!-- Node27 -->
<g id="node28" class="node"><title>Node27</title>
<g id="a_node28"><a xlink:href="_logger_8h.html" target="_top" xlink:title="base/Logger.h">
<polygon fill="white" stroke="black" points="1141.79,-224.5 1141.79,-243.5 1219.79,-243.5 1219.79,-224.5 1141.79,-224.5"/>
<text text-anchor="middle" x="1180.79" y="-231.5" font-family="Helvetica,sans-Serif" font-size="10.00">base/Logger.h</text>
</a>
</g>
</g>
<!-- Node0&#45;&gt;Node27 -->
<g id="edge50" class="edge"><title>Node0&#45;&gt;Node27</title>
<path fill="none" stroke="midnightblue" d="M1807.13,-289.623C1672.21,-277.856 1353.05,-250.023 1230.19,-239.308"/>
<polygon fill="midnightblue" stroke="midnightblue" points="1230.22,-235.798 1219.96,-238.416 1229.62,-242.771 1230.22,-235.798"/>
</g>
<!-- Node29 -->
<g id="node30" class="node"><title>Node29</title>
<g id="a_node30"><a xlink:href="stream___t_buffer_8h.html" target="_top" xlink:title="tree/stream_TBuffer.h">
<polygon fill="white" stroke="black" points="1380.79,-224.5 1380.79,-243.5 1492.79,-243.5 1492.79,-224.5 1380.79,-224.5"/>
<text text-anchor="middle" x="1436.79" y="-231.5" font-family="Helvetica,sans-Serif" font-size="10.00">tree/stream_TBuffer.h</text>
</a>
</g>
</g>
<!-- Node0&#45;&gt;Node29 -->
<g id="edge52" class="edge"><title>Node0&#45;&gt;Node29</title>
<path fill="none" stroke="midnightblue" d="M1806.9,-286.403C1726.27,-275.205 1585.87,-255.705 1503.12,-244.212"/>
<polygon fill="midnightblue" stroke="midnightblue" points="1503.46,-240.726 1493.08,-242.817 1502.5,-247.66 1503.46,-240.726"/>
</g>
<!-- Node40 -->
<g id="node41" class="node"><title>Node40</title>
<polygon fill="white" stroke="#bfbfbf" points="1511.29,-224.5 1511.29,-243.5 1578.29,-243.5 1578.29,-224.5 1511.29,-224.5"/>
<text text-anchor="middle" x="1544.79" y="-231.5" font-family="Helvetica,sans-Serif" font-size="10.00">TBrowser.h</text>
</g>
<!-- Node0&#45;&gt;Node40 -->
<g id="edge63" class="edge"><title>Node0&#45;&gt;Node40</title>
<path fill="none" stroke="midnightblue" d="M1807.03,-284.281C1752.27,-274.664 1669.84,-259.919 1588.49,-244.095"/>
<polygon fill="midnightblue" stroke="midnightblue" points="1589.06,-240.641 1578.58,-242.16 1587.72,-247.511 1589.06,-240.641"/>
</g>
<!-- Node41 -->
<g id="node42" class="node"><title>Node41</title>
<polygon fill="white" stroke="#bfbfbf" points="1596.79,-224.5 1596.79,-243.5 1644.79,-243.5 1644.79,-224.5 1596.79,-224.5"/>
<text text-anchor="middle" x="1620.79" y="-231.5" font-family="Helvetica,sans-Serif" font-size="10.00">TPad.h</text>
</g>
<!-- Node0&#45;&gt;Node41 -->
<g id="edge64" class="edge"><title>Node0&#45;&gt;Node41</title>
<path fill="none" stroke="midnightblue" d="M1807.03,-280.925C1766.34,-271.518 1711.65,-258.627 1654.8,-244.199"/>
<polygon fill="midnightblue" stroke="midnightblue" points="1655.47,-240.757 1644.92,-241.68 1653.75,-247.541 1655.47,-240.757"/>
</g>
<!-- Node42 -->
<g id="node43" class="node"><title>Node42</title>
<polygon fill="white" stroke="#bfbfbf" points="1662.79,-224.5 1662.79,-243.5 1724.79,-243.5 1724.79,-224.5 1662.79,-224.5"/>
<text text-anchor="middle" x="1693.79" y="-231.5" font-family="Helvetica,sans-Serif" font-size="10.00">TLegend.h</text>
</g>
<!-- Node0&#45;&gt;Node42 -->
<g id="edge65" class="edge"><title>Node0&#45;&gt;Node42</title>
<path fill="none" stroke="midnightblue" d="M1827.76,-280.933C1797.49,-270.553 1756.76,-256.589 1728.19,-246.792"/>
<polygon fill="midnightblue" stroke="midnightblue" points="1729.22,-243.445 1718.62,-243.513 1726.95,-250.067 1729.22,-243.445"/>
</g>
<!-- Node43 -->
<g id="node44" class="node"><title>Node43</title>
<polygon fill="white" stroke="#bfbfbf" points="1742.79,-224.5 1742.79,-243.5 1828.79,-243.5 1828.79,-224.5 1742.79,-224.5"/>
<text text-anchor="middle" x="1785.79" y="-231.5" font-family="Helvetica,sans-Serif" font-size="10.00">TLegendEntry.h</text>
</g>
<!-- Node0&#45;&gt;Node43 -->
<g id="edge66" class="edge"><title>Node0&#45;&gt;Node43</title>
<path fill="none" stroke="midnightblue" d="M1849.12,-280.781C1836.19,-271.433 1819.31,-259.227 1806.23,-249.77"/>
<polygon fill="midnightblue" stroke="midnightblue" points="1808.03,-246.753 1797.87,-243.731 1803.92,-252.426 1808.03,-246.753"/>
</g>
<!-- Node44 -->
<g id="node45" class="node"><title>Node44</title>
<polygon fill="white" stroke="#bfbfbf" points="1846.79,-224.5 1846.79,-243.5 1890.79,-243.5 1890.79,-224.5 1846.79,-224.5"/>
<text text-anchor="middle" x="1868.79" y="-231.5" font-family="Helvetica,sans-Serif" font-size="10.00">TH1.h</text>
</g>
<!-- Node0&#45;&gt;Node44 -->
<g id="edge67" class="edge"><title>Node0&#45;&gt;Node44</title>
<path fill="none" stroke="midnightblue" d="M1868.79,-280.781C1868.79,-272.781 1868.79,-262.689 1868.79,-254.017"/>
<polygon fill="midnightblue" stroke="midnightblue" points="1872.29,-253.73 1868.79,-243.731 1865.29,-253.731 1872.29,-253.73"/>
</g>
<!-- Node45 -->
<g id="node46" class="node"><title>Node45</title>
<polygon fill="white" stroke="#bfbfbf" points="1909.29,-224.5 1909.29,-243.5 1980.29,-243.5 1980.29,-224.5 1909.29,-224.5"/>
<text text-anchor="middle" x="1944.79" y="-231.5" font-family="Helvetica,sans-Serif" font-size="10.00">TDirectory.h</text>
</g>
<!-- Node0&#45;&gt;Node45 -->
<g id="edge68" class="edge"><title>Node0&#45;&gt;Node45</title>
<path fill="none" stroke="midnightblue" d="M1886.8,-280.781C1898.53,-271.523 1913.81,-259.462 1925.74,-250.044"/>
<polygon fill="midnightblue" stroke="midnightblue" points="1928.05,-252.674 1933.73,-243.731 1923.72,-247.18 1928.05,-252.674"/>
</g>
<!-- Node46 -->
<g id="node47" class="node"><title>Node46</title>
<polygon fill="white" stroke="#bfbfbf" points="1998.29,-224.5 1998.29,-243.5 2071.29,-243.5 2071.29,-224.5 1998.29,-224.5"/>
<text text-anchor="middle" x="2034.79" y="-231.5" font-family="Helvetica,sans-Serif" font-size="10.00">TPaveText.h</text>
</g>
<!-- Node0&#45;&gt;Node46 -->
<g id="edge69" class="edge"><title>Node0&#45;&gt;Node46</title>
<path fill="none" stroke="midnightblue" d="M1907.71,-280.933C1936.22,-270.629 1974.5,-256.794 2001.57,-247.008"/>
<polygon fill="midnightblue" stroke="midnightblue" points="2002.79,-250.291 2011,-243.6 2000.41,-243.708 2002.79,-250.291"/>
</g>
<!-- Node47 -->
<g id="node48" class="node"><title>Node47</title>
<polygon fill="white" stroke="#bfbfbf" points="2089.79,-224.5 2089.79,-243.5 2185.79,-243.5 2185.79,-224.5 2089.79,-224.5"/>
<text text-anchor="middle" x="2137.79" y="-231.5" font-family="Helvetica,sans-Serif" font-size="10.00">cereal/access.hpp</text>
</g>
<!-- Node0&#45;&gt;Node47 -->
<g id="edge70" class="edge"><title>Node0&#45;&gt;Node47</title>
<path fill="none" stroke="midnightblue" d="M1930.51,-281.235C1978.86,-270.45 2045.17,-255.66 2089.65,-245.739"/>
<polygon fill="midnightblue" stroke="midnightblue" points="2090.63,-249.106 2099.63,-243.513 2089.1,-242.274 2090.63,-249.106"/>
</g>
<!-- Node48 -->
<g id="node49" class="node"><title>Node48</title>
<polygon fill="white" stroke="#bfbfbf" points="2203.79,-224.5 2203.79,-243.5 2253.79,-243.5 2253.79,-224.5 2203.79,-224.5"/>
<text text-anchor="middle" x="2228.79" y="-231.5" font-family="Helvetica,sans-Serif" font-size="10.00">iomanip</text>
</g>
<!-- Node0&#45;&gt;Node48 -->
<g id="edge72" class="edge"><title>Node0&#45;&gt;Node48</title>
<path fill="none" stroke="midnightblue" d="M1930.42,-287.296C1994.05,-278.906 2096.34,-264.206 2193.61,-244.07"/>
<polygon fill="midnightblue" stroke="midnightblue" points="2194.54,-247.451 2203.61,-241.977 2193.11,-240.6 2194.54,-247.451"/>
</g>
<!-- Node49 -->
<g id="node50" class="node"><title>Node49</title>
<polygon fill="white" stroke="#bfbfbf" points="2271.79,-224.5 2271.79,-243.5 2337.79,-243.5 2337.79,-224.5 2271.79,-224.5"/>
<text text-anchor="middle" x="2304.79" y="-231.5" font-family="Helvetica,sans-Serif" font-size="10.00">TGFrame.h</text>
</g>
<!-- Node0&#45;&gt;Node49 -->
<g id="edge73" class="edge"><title>Node0&#45;&gt;Node49</title>
<path fill="none" stroke="midnightblue" d="M1930.45,-288.61C2006.15,-280.409 2138.65,-264.905 2261.42,-244.122"/>
<polygon fill="midnightblue" stroke="midnightblue" points="2262.1,-247.556 2271.37,-242.422 2260.92,-240.656 2262.1,-247.556"/>
</g>
<!-- Node50 -->
<g id="node51" class="node"><title>Node50</title>
<polygon fill="white" stroke="#bfbfbf" points="2355.79,-224.5 2355.79,-243.5 2447.79,-243.5 2447.79,-224.5 2355.79,-224.5"/>
<text text-anchor="middle" x="2401.79" y="-231.5" font-family="Helvetica,sans-Serif" font-size="10.00">TGTableLayout.h</text>
</g>
<!-- Node0&#45;&gt;Node50 -->
<g id="edge74" class="edge"><title>Node0&#45;&gt;Node50</title>
<path fill="none" stroke="midnightblue" d="M1930.42,-289.535C2019.64,-281.378 2190.19,-264.863 2345.41,-244.122"/>
<polygon fill="midnightblue" stroke="midnightblue" points="2346.16,-247.552 2355.61,-242.75 2345.23,-240.614 2346.16,-247.552"/>
</g>
<!-- Node51 -->
<g id="node52" class="node"><title>Node51</title>
<polygon fill="white" stroke="#bfbfbf" points="2465.79,-224.5 2465.79,-243.5 2527.79,-243.5 2527.79,-224.5 2465.79,-224.5"/>
<text text-anchor="middle" x="2496.79" y="-231.5" font-family="Helvetica,sans-Serif" font-size="10.00">TGLabel.h</text>
</g>
<!-- Node0&#45;&gt;Node51 -->
<g id="edge75" class="edge"><title>Node0&#45;&gt;Node51</title>
<path fill="none" stroke="midnightblue" d="M1930.49,-292.388C2036.16,-287.316 2258.64,-274.023 2455.48,-244.012"/>
<polygon fill="midnightblue" stroke="midnightblue" points="2456.08,-247.461 2465.43,-242.477 2455.01,-240.543 2456.08,-247.461"/>
</g>
<!-- Node52 -->
<g id="node53" class="node"><title>Node52</title>
<polygon fill="white" stroke="#bfbfbf" points="2546.29,-224.5 2546.29,-243.5 2613.29,-243.5 2613.29,-224.5 2546.29,-224.5"/>
<text text-anchor="middle" x="2579.79" y="-231.5" font-family="Helvetica,sans-Serif" font-size="10.00">TGButton.h</text>
</g>
<!-- Node0&#45;&gt;Node52 -->
<g id="edge76" class="edge"><title>Node0&#45;&gt;Node52</title>
<path fill="none" stroke="midnightblue" d="M1930.68,-292.862C2048.81,-288.208 2314.39,-274.984 2535.79,-244 2535.9,-243.985 2536.01,-243.97 2536.11,-243.955"/>
<polygon fill="midnightblue" stroke="midnightblue" points="2536.92,-247.369 2546.24,-242.316 2535.81,-240.459 2536.92,-247.369"/>
</g>
<!-- Node53 -->
<g id="node54" class="node"><title>Node53</title>
<polygon fill="white" stroke="#bfbfbf" points="2631.79,-224.5 2631.79,-243.5 2727.79,-243.5 2727.79,-224.5 2631.79,-224.5"/>
<text text-anchor="middle" x="2679.79" y="-231.5" font-family="Helvetica,sans-Serif" font-size="10.00">TGNumberEntry.h</text>
</g>
<!-- Node0&#45;&gt;Node53 -->
<g id="edge77" class="edge"><title>Node0&#45;&gt;Node53</title>
<path fill="none" stroke="midnightblue" d="M1930.45,-292.629C2059.19,-287.28 2365.9,-272.466 2621.79,-244 2621.89,-243.989 2622,-243.977 2622.1,-243.966"/>
<polygon fill="midnightblue" stroke="midnightblue" points="2622.23,-247.476 2631.73,-242.785 2621.38,-240.528 2622.23,-247.476"/>
</g>
<!-- Node54 -->
<g id="node55" class="node"><title>Node54</title>
<polygon fill="white" stroke="#bfbfbf" points="2746.29,-224.5 2746.29,-243.5 2833.29,-243.5 2833.29,-224.5 2746.29,-224.5"/>
<text text-anchor="middle" x="2789.79" y="-231.5" font-family="Helvetica,sans-Serif" font-size="10.00">TGComboBox.h</text>
</g>
<!-- Node0&#45;&gt;Node54 -->
<g id="edge78" class="edge"><title>Node0&#45;&gt;Node54</title>
<path fill="none" stroke="midnightblue" d="M1930.56,-293.693C2071.53,-290.207 2427.93,-278.559 2736.15,-243.932"/>
<polygon fill="midnightblue" stroke="midnightblue" points="2736.63,-247.4 2746.17,-242.796 2735.84,-240.445 2736.63,-247.4"/>
</g>
<!-- Node55 -->
<g id="node56" class="node"><title>Node55</title>
<polygon fill="white" stroke="#bfbfbf" points="2851.29,-224.5 2851.29,-243.5 2904.29,-243.5 2904.29,-224.5 2851.29,-224.5"/>
<text text-anchor="middle" x="2877.79" y="-231.5" font-family="Helvetica,sans-Serif" font-size="10.00">TExec.h</text>
</g>
<!-- Node0&#45;&gt;Node55 -->
<g id="edge79" class="edge"><title>Node0&#45;&gt;Node55</title>
<path fill="none" stroke="midnightblue" d="M1930.41,-293.324C2112.26,-288.136 2645.58,-271.125 2841.01,-243.742"/>
<polygon fill="midnightblue" stroke="midnightblue" points="2841.78,-247.167 2851.17,-242.262 2840.77,-240.24 2841.78,-247.167"/>
</g>
<!-- Node2 -->
<g id="node3" class="node"><title>Node2</title>
<polygon fill="white" stroke="#bfbfbf" points="393.793,-112.5 393.793,-131.5 449.793,-131.5 449.793,-112.5 393.793,-112.5"/>
<text text-anchor="middle" x="421.793" y="-119.5" font-family="Helvetica,sans-Serif" font-size="10.00">Rtypes.h</text>
</g>
<!-- Node1&#45;&gt;Node2 -->
<g id="edge2" class="edge"><title>Node1&#45;&gt;Node2</title>
<path fill="none" stroke="midnightblue" d="M490.501,-224.492C474.605,-217.099 453.517,-204.908 440.793,-188 430.741,-174.643 425.994,-156.071 423.76,-142.199"/>
<polygon fill="midnightblue" stroke="midnightblue" points="427.177,-141.331 422.413,-131.868 420.235,-142.237 427.177,-141.331"/>
</g>
<!-- Node3 -->
<g id="node4" class="node"><title>Node3</title>
<polygon fill="white" stroke="#bfbfbf" points="683.793,-168.5 683.793,-187.5 747.793,-187.5 747.793,-168.5 683.793,-168.5"/>
<text text-anchor="middle" x="715.793" y="-175.5" font-family="Helvetica,sans-Serif" font-size="10.00">THStack.h</text>
</g>
<!-- Node1&#45;&gt;Node3 -->
<g id="edge3" class="edge"><title>Node1&#45;&gt;Node3</title>
<path fill="none" stroke="midnightblue" d="M538.883,-225.829C573.354,-216.705 633.264,-200.846 673.707,-190.141"/>
<polygon fill="midnightblue" stroke="midnightblue" points="674.77,-193.48 683.542,-187.537 672.979,-186.713 674.77,-193.48"/>
</g>
<!-- Node4 -->
<g id="node5" class="node"><title>Node4</title>
<polygon fill="white" stroke="#bfbfbf" points="545.293,-112.5 545.293,-131.5 586.293,-131.5 586.293,-112.5 545.293,-112.5"/>
<text text-anchor="middle" x="565.793" y="-119.5" font-family="Helvetica,sans-Serif" font-size="10.00">string</text>
</g>
<!-- Node1&#45;&gt;Node4 -->
<g id="edge4" class="edge"><title>Node1&#45;&gt;Node4</title>
<path fill="none" stroke="midnightblue" d="M536.263,-224.438C552.36,-217.378 572.17,-205.626 581.793,-188 589.949,-173.061 583.537,-153.942 576.556,-140.314"/>
<polygon fill="midnightblue" stroke="midnightblue" points="579.541,-138.482 571.572,-131.5 573.447,-141.928 579.541,-138.482"/>
</g>
<!-- Node5 -->
<g id="node6" class="node"><title>Node5</title>
<polygon fill="white" stroke="#bfbfbf" points="519.793,-56.5 519.793,-75.5 563.793,-75.5 563.793,-56.5 519.793,-56.5"/>
<text text-anchor="middle" x="541.793" y="-63.5" font-family="Helvetica,sans-Serif" font-size="10.00">vector</text>
</g>
<!-- Node1&#45;&gt;Node5 -->
<g id="edge5" class="edge"><title>Node1&#45;&gt;Node5</title>
<path fill="none" stroke="midnightblue" d="M484.489,-230.159C421.717,-223.355 271.385,-205.392 256.793,-188 251.08,-181.19 252.266,-175.65 256.793,-168 283.43,-122.988 441.282,-86.8542 509.934,-73.05"/>
<polygon fill="midnightblue" stroke="midnightblue" points="510.642,-76.4779 519.772,-71.1024 509.282,-69.6111 510.642,-76.4779"/>
</g>
<!-- Node6 -->
<g id="node7" class="node"><title>Node6</title>
<g id="a_node7"><a xlink:href="_root_draw_8h.html" target="_top" xlink:title="analysis/plot/RootDraw.h">
<polygon fill="white" stroke="black" points="266.293,-168.5 266.293,-187.5 393.293,-187.5 393.293,-168.5 266.293,-168.5"/>
<text text-anchor="middle" x="329.793" y="-175.5" font-family="Helvetica,sans-Serif" font-size="10.00">analysis/plot/RootDraw.h</text>
</a>
</g>
</g>
<!-- Node1&#45;&gt;Node6 -->
<g id="edge6" class="edge"><title>Node1&#45;&gt;Node6</title>
<path fill="none" stroke="midnightblue" d="M484.546,-224.916C453.769,-215.784 403.441,-200.851 368.573,-190.506"/>
<polygon fill="midnightblue" stroke="midnightblue" points="369.316,-187.076 358.733,-187.587 367.324,-193.786 369.316,-187.076"/>
</g>
<!-- Node8 -->
<g id="node9" class="node"><title>Node8</title>
<polygon fill="white" stroke="#bfbfbf" points="91.7933,-112.5 91.7933,-131.5 143.793,-131.5 143.793,-112.5 91.7933,-112.5"/>
<text text-anchor="middle" x="117.793" y="-119.5" font-family="Helvetica,sans-Serif" font-size="10.00">memory</text>
</g>
<!-- Node1&#45;&gt;Node8 -->
<g id="edge35" class="edge"><title>Node1&#45;&gt;Node8</title>
<path fill="none" stroke="midnightblue" d="M484.412,-231.387C415.851,-227.006 238.525,-213.473 185.793,-188 162.928,-176.955 142.754,-155.349 130.436,-140.085"/>
<polygon fill="midnightblue" stroke="midnightblue" points="133.026,-137.713 124.13,-131.958 127.495,-142.005 133.026,-137.713"/>
</g>
<!-- Node11 -->
<g id="node12" class="node"><title>Node11</title>
<g id="a_node12"><a xlink:href="interval_8h.html" target="_top" xlink:title="base/interval.h">
<polygon fill="white" stroke="black" points="384.793,-56.5 384.793,-75.5 464.793,-75.5 464.793,-56.5 384.793,-56.5"/>
<text text-anchor="middle" x="424.793" y="-63.5" font-family="Helvetica,sans-Serif" font-size="10.00">base/interval.h</text>
</a>
</g>
</g>
<!-- Node1&#45;&gt;Node11 -->
<g id="edge30" class="edge"><title>Node1&#45;&gt;Node11</title>
<path fill="none" stroke="midnightblue" d="M484.695,-230.315C420.789,-223.711 264.889,-205.909 249.793,-188 220.341,-153.058 268.769,-135.427 304.793,-112 327.969,-96.9285 356.916,-85.8865 380.573,-78.5128"/>
<polygon fill="midnightblue" stroke="midnightblue" points="381.784,-81.8037 390.355,-75.5762 379.771,-75.0993 381.784,-81.8037"/>
</g>
<!-- Node20 -->
<g id="node21" class="node"><title>Node20</title>
<g id="a_node21"><a xlink:href="_hist_style_8h.html" target="_top" xlink:title="analysis/plot/HistStyle.h">
<polygon fill="white" stroke="black" points="450.293,-168.5 450.293,-187.5 573.293,-187.5 573.293,-168.5 450.293,-168.5"/>
<text text-anchor="middle" x="511.793" y="-175.5" font-family="Helvetica,sans-Serif" font-size="10.00">analysis/plot/HistStyle.h</text>
</a>
</g>
</g>
<!-- Node1&#45;&gt;Node20 -->
<g id="edge26" class="edge"><title>Node1&#45;&gt;Node20</title>
<path fill="none" stroke="midnightblue" d="M511.793,-224.083C511.793,-217.006 511.793,-206.861 511.793,-197.986"/>
<polygon fill="midnightblue" stroke="midnightblue" points="515.293,-197.751 511.793,-187.751 508.293,-197.751 515.293,-197.751"/>
</g>
<!-- Node21 -->
<g id="node22" class="node"><title>Node21</title>
<g id="a_node22"><a xlink:href="base_2std__ext_2math_8h.html" target="_top" xlink:title="base/std_ext/math.h">
<polygon fill="white" stroke="black" points="680.793,-112.5 680.793,-131.5 786.793,-131.5 786.793,-112.5 680.793,-112.5"/>
<text text-anchor="middle" x="733.793" y="-119.5" font-family="Helvetica,sans-Serif" font-size="10.00">base/std_ext/math.h</text>
</a>
</g>
</g>
<!-- Node1&#45;&gt;Node21 -->
<g id="edge31" class="edge"><title>Node1&#45;&gt;Node21</title>
<path fill="none" stroke="midnightblue" d="M539.163,-232.2C597.151,-229.87 729.321,-220.978 756.793,-188 768.468,-173.986 758.096,-153.626 747.787,-139.44"/>
<polygon fill="midnightblue" stroke="midnightblue" points="750.498,-137.226 741.573,-131.517 744.99,-141.546 750.498,-137.226"/>
</g>
<!-- Node22 -->
<g id="node23" class="node"><title>Node22</title>
<polygon fill="white" stroke="#bfbfbf" points="630.293,-168.5 630.293,-187.5 665.293,-187.5 665.293,-168.5 630.293,-168.5"/>
<text text-anchor="middle" x="647.793" y="-175.5" font-family="Helvetica,sans-Serif" font-size="10.00">map</text>
</g>
<!-- Node1&#45;&gt;Node22 -->
<g id="edge36" class="edge"><title>Node1&#45;&gt;Node22</title>
<path fill="none" stroke="midnightblue" d="M533.343,-224.444C557.014,-215.045 595.072,-199.934 620.735,-189.744"/>
<polygon fill="midnightblue" stroke="midnightblue" points="622.234,-192.914 630.237,-185.971 619.651,-186.408 622.234,-192.914"/>
</g>
<!-- Node6&#45;&gt;Node2 -->
<g id="edge25" class="edge"><title>Node6&#45;&gt;Node2</title>
<path fill="none" stroke="midnightblue" d="M344.575,-168.324C359.06,-159.822 381.366,-146.729 398.286,-136.797"/>
<polygon fill="midnightblue" stroke="midnightblue" points="400.196,-139.735 407.049,-131.655 396.653,-133.698 400.196,-139.735"/>
</g>
<!-- Node6&#45;&gt;Node4 -->
<g id="edge7" class="edge"><title>Node6&#45;&gt;Node4</title>
<path fill="none" stroke="midnightblue" d="M373.425,-168.477C413.154,-160.49 473.624,-147.775 535.29,-131.968"/>
<polygon fill="midnightblue" stroke="midnightblue" points="536.39,-135.299 545.195,-129.405 534.637,-128.522 536.39,-135.299"/>
</g>
<!-- Node6&#45;&gt;Node5 -->
<g id="edge9" class="edge"><title>Node6&#45;&gt;Node5</title>
<path fill="none" stroke="midnightblue" d="M334.702,-168.426C343.131,-154.476 361.702,-126.926 384.793,-112 423.363,-87.0686 475.975,-75.6715 509.42,-70.6626"/>
<polygon fill="midnightblue" stroke="midnightblue" points="510.141,-74.0962 519.564,-69.2518 509.177,-67.1629 510.141,-74.0962"/>
</g>
<!-- Node6&#45;&gt;Node7 -->
<g id="edge8" class="edge"><title>Node6&#45;&gt;Node7</title>
<path fill="none" stroke="midnightblue" d="M266.149,-168.599C218.205,-161.544 150.811,-150.081 83.3334,-131.704"/>
<polygon fill="midnightblue" stroke="midnightblue" points="83.9512,-128.244 73.3795,-128.943 82.0797,-134.989 83.9512,-128.244"/>
</g>
<!-- Node6&#45;&gt;Node8 -->
<g id="edge10" class="edge"><title>Node6&#45;&gt;Node8</title>
<path fill="none" stroke="midnightblue" d="M296.184,-168.484C262.592,-159.966 209.194,-146.41 154.102,-132.33"/>
<polygon fill="midnightblue" stroke="midnightblue" points="154.72,-128.875 144.165,-129.789 152.986,-135.657 154.72,-128.875"/>
</g>
<!-- Node9 -->
<g id="node10" class="node"><title>Node9</title>
<polygon fill="white" stroke="#bfbfbf" points="468.293,-112.5 468.293,-131.5 527.293,-131.5 527.293,-112.5 468.293,-112.5"/>
<text text-anchor="middle" x="497.793" y="-119.5" font-family="Helvetica,sans-Serif" font-size="10.00">functional</text>
</g>
<!-- Node6&#45;&gt;Node9 -->
<g id="edge11" class="edge"><title>Node6&#45;&gt;Node9</title>
<path fill="none" stroke="midnightblue" d="M356.413,-168.444C384.799,-159.32 429.93,-144.813 461.546,-134.651"/>
<polygon fill="midnightblue" stroke="midnightblue" points="462.848,-137.909 471.298,-131.516 460.706,-131.244 462.848,-137.909"/>
</g>
<!-- Node10 -->
<g id="node11" class="node"><title>Node10</title>
<g id="a_node11"><a xlink:href="_bin_settings_8h.html" target="_top" xlink:title="base/BinSettings.h">
<polygon fill="white" stroke="black" points="162.293,-112.5 162.293,-131.5 261.293,-131.5 261.293,-112.5 162.293,-112.5"/>
<text text-anchor="middle" x="211.793" y="-119.5" font-family="Helvetica,sans-Serif" font-size="10.00">base/BinSettings.h</text>
</a>
</g>
</g>
<!-- Node6&#45;&gt;Node10 -->
<g id="edge12" class="edge"><title>Node6&#45;&gt;Node10</title>
<path fill="none" stroke="midnightblue" d="M311.096,-168.444C291.849,-159.636 261.641,-145.812 239.593,-135.722"/>
<polygon fill="midnightblue" stroke="midnightblue" points="240.953,-132.495 230.403,-131.516 238.04,-138.86 240.953,-132.495"/>
</g>
<!-- Node10&#45;&gt;Node5 -->
<g id="edge21" class="edge"><title>Node10&#45;&gt;Node5</title>
<path fill="none" stroke="midnightblue" d="M261.555,-112.857C330.205,-101.624 452.012,-81.6914 509.74,-72.2451"/>
<polygon fill="midnightblue" stroke="midnightblue" points="510.442,-75.6768 519.746,-70.6078 509.312,-68.7687 510.442,-75.6768"/>
</g>
<!-- Node10&#45;&gt;Node11 -->
<g id="edge13" class="edge"><title>Node10&#45;&gt;Node11</title>
<path fill="none" stroke="midnightblue" d="M245.544,-112.444C282.312,-103.122 341.239,-88.1828 381.415,-77.9972"/>
<polygon fill="midnightblue" stroke="midnightblue" points="382.367,-81.3666 391.201,-75.5164 380.647,-74.5813 382.367,-81.3666"/>
</g>
<!-- Node14 -->
<g id="node15" class="node"><title>Node14</title>
<polygon fill="white" stroke="#bfbfbf" points="201.293,-0.5 201.293,-19.5 260.293,-19.5 260.293,-0.5 201.293,-0.5"/>
<text text-anchor="middle" x="230.793" y="-7.5" font-family="Helvetica,sans-Serif" font-size="10.00">stdexcept</text>
</g>
<!-- Node10&#45;&gt;Node14 -->
<g id="edge22" class="edge"><title>Node10&#45;&gt;Node14</title>
<path fill="none" stroke="midnightblue" d="M213.284,-112.368C216.35,-94.617 223.424,-53.6664 227.581,-29.5974"/>
<polygon fill="midnightblue" stroke="midnightblue" points="231.056,-30.0413 229.309,-19.5914 224.158,-28.8498 231.056,-30.0413"/>
</g>
<!-- Node16 -->
<g id="node17" class="node"><title>Node16</title>
<polygon fill="white" stroke="#bfbfbf" points="315.293,-0.5 315.293,-19.5 364.293,-19.5 364.293,-0.5 315.293,-0.5"/>
<text text-anchor="middle" x="339.793" y="-7.5" font-family="Helvetica,sans-Serif" font-size="10.00">istream</text>
</g>
<!-- Node10&#45;&gt;Node16 -->
<g id="edge23" class="edge"><title>Node10&#45;&gt;Node16</title>
<path fill="none" stroke="midnightblue" d="M218.126,-112.299C227.986,-99.1218 248.04,-73.7621 268.793,-56 282.891,-43.9345 300.499,-32.7534 314.653,-24.5546"/>
<polygon fill="midnightblue" stroke="midnightblue" points="316.402,-27.5867 323.384,-19.6181 312.956,-21.4933 316.402,-27.5867"/>
</g>
<!-- Node19 -->
<g id="node20" class="node"><title>Node19</title>
<polygon fill="white" stroke="#bfbfbf" points="277.793,-56.5 277.793,-75.5 329.793,-75.5 329.793,-56.5 277.793,-56.5"/>
<text text-anchor="middle" x="303.793" y="-63.5" font-family="Helvetica,sans-Serif" font-size="10.00">ostream</text>
</g>
<!-- Node10&#45;&gt;Node19 -->
<g id="edge24" class="edge"><title>Node10&#45;&gt;Node19</title>
<path fill="none" stroke="midnightblue" d="M226.575,-112.324C241.06,-103.822 263.366,-90.7288 280.286,-80.7975"/>
<polygon fill="midnightblue" stroke="midnightblue" points="282.196,-83.735 289.049,-75.6545 278.653,-77.6981 282.196,-83.735"/>
</g>
<!-- Node12 -->
<g id="node13" class="node"><title>Node12</title>
<g id="a_node13"><a xlink:href="types_8h.html" target="_top" xlink:title="types.h">
<polygon fill="white" stroke="black" points="400.293,-0.5 400.293,-19.5 449.293,-19.5 449.293,-0.5 400.293,-0.5"/>
<text text-anchor="middle" x="424.793" y="-7.5" font-family="Helvetica,sans-Serif" font-size="10.00">types.h</text>
</a>
</g>
</g>
<!-- Node11&#45;&gt;Node12 -->
<g id="edge14" class="edge"><title>Node11&#45;&gt;Node12</title>
<path fill="none" stroke="midnightblue" d="M424.793,-56.083C424.793,-49.0059 424.793,-38.8611 424.793,-29.9865"/>
<polygon fill="midnightblue" stroke="midnightblue" points="428.293,-29.751 424.793,-19.7511 421.293,-29.7511 428.293,-29.751"/>
</g>
<!-- Node13 -->
<g id="node14" class="node"><title>Node13</title>
<polygon fill="white" stroke="#bfbfbf" points="829.793,-0.5 829.793,-19.5 885.793,-19.5 885.793,-0.5 829.793,-0.5"/>
<text text-anchor="middle" x="857.793" y="-7.5" font-family="Helvetica,sans-Serif" font-size="10.00">algorithm</text>
</g>
<!-- Node11&#45;&gt;Node13 -->
<g id="edge15" class="edge"><title>Node11&#45;&gt;Node13</title>
<path fill="none" stroke="midnightblue" d="M464.811,-60.6569C533.446,-53.1053 677.994,-36.7528 799.793,-20 806.153,-19.1252 812.895,-18.136 819.446,-17.1415"/>
<polygon fill="midnightblue" stroke="midnightblue" points="820.152,-20.5741 829.502,-15.5903 819.085,-13.656 820.152,-20.5741"/>
</g>
<!-- Node11&#45;&gt;Node14 -->
<g id="edge16" class="edge"><title>Node11&#45;&gt;Node14</title>
<path fill="none" stroke="midnightblue" d="M394.053,-56.4435C360.556,-47.1196 306.865,-32.1746 270.272,-21.9889"/>
<polygon fill="midnightblue" stroke="midnightblue" points="271.007,-18.5606 260.435,-19.2508 269.13,-25.3042 271.007,-18.5606"/>
</g>
<!-- Node15 -->
<g id="node16" class="node"><title>Node15</title>
<polygon fill="white" stroke="#bfbfbf" points="489.793,-0.5 489.793,-19.5 529.793,-19.5 529.793,-0.5 489.793,-0.5"/>
<text text-anchor="middle" x="509.793" y="-7.5" font-family="Helvetica,sans-Serif" font-size="10.00">limits</text>
</g>
<!-- Node11&#45;&gt;Node15 -->
<g id="edge17" class="edge"><title>Node11&#45;&gt;Node15</title>
<path fill="none" stroke="midnightblue" d="M438.45,-56.324C451.71,-47.9002 472.061,-34.9709 487.64,-25.0741"/>
<polygon fill="midnightblue" stroke="midnightblue" points="489.607,-27.9711 496.17,-19.6545 485.853,-22.0626 489.607,-27.9711"/>
</g>
<!-- Node11&#45;&gt;Node16 -->
<g id="edge18" class="edge"><title>Node11&#45;&gt;Node16</title>
<path fill="none" stroke="midnightblue" d="M411.137,-56.324C397.877,-47.9002 377.525,-34.9709 361.947,-25.0741"/>
<polygon fill="midnightblue" stroke="midnightblue" points="363.734,-22.0626 353.416,-19.6545 359.98,-27.9711 363.734,-22.0626"/>
</g>
<!-- Node17 -->
<g id="node18" class="node"><title>Node17</title>
<polygon fill="white" stroke="#bfbfbf" points="738.793,-0.5 738.793,-19.5 790.793,-19.5 790.793,-0.5 738.793,-0.5"/>
<text text-anchor="middle" x="764.793" y="-7.5" font-family="Helvetica,sans-Serif" font-size="10.00">sstream</text>
</g>
<!-- Node11&#45;&gt;Node17 -->
<g id="edge19" class="edge"><title>Node11&#45;&gt;Node17</title>
<path fill="none" stroke="midnightblue" d="M464.795,-58.6467C531.475,-48.0565 664.339,-26.9545 728.482,-16.7671"/>
<polygon fill="midnightblue" stroke="midnightblue" points="729.205,-20.1963 738.532,-15.1709 728.107,-13.2829 729.205,-20.1963"/>
</g>
<!-- Node18 -->
<g id="node19" class="node"><title>Node18</title>
<polygon fill="white" stroke="#bfbfbf" points="633.793,-0.5 633.793,-19.5 677.793,-19.5 677.793,-0.5 633.793,-0.5"/>
<text text-anchor="middle" x="655.793" y="-7.5" font-family="Helvetica,sans-Serif" font-size="10.00">cmath</text>
</g>
<!-- Node11&#45;&gt;Node18 -->
<g id="edge20" class="edge"><title>Node11&#45;&gt;Node18</title>
<path fill="none" stroke="midnightblue" d="M461.396,-56.4435C506.174,-45.9759 581.258,-28.4239 623.818,-18.4748"/>
<polygon fill="midnightblue" stroke="midnightblue" points="624.706,-21.8617 633.646,-16.1772 623.112,-15.0454 624.706,-21.8617"/>
</g>
<!-- Node20&#45;&gt;Node2 -->
<g id="edge27" class="edge"><title>Node20&#45;&gt;Node2</title>
<path fill="none" stroke="midnightblue" d="M497.333,-168.324C483.294,-159.9 461.745,-146.971 445.25,-137.074"/>
<polygon fill="midnightblue" stroke="midnightblue" points="446.593,-133.798 436.217,-131.655 442.992,-139.801 446.593,-133.798"/>
</g>
<!-- Node20&#45;&gt;Node4 -->
<g id="edge28" class="edge"><title>Node20&#45;&gt;Node4</title>
<path fill="none" stroke="midnightblue" d="M520.71,-168.083C528.574,-160.22 540.224,-148.569 549.712,-139.081"/>
<polygon fill="midnightblue" stroke="midnightblue" points="552.446,-141.297 557.042,-131.751 547.496,-136.347 552.446,-141.297"/>
</g>
<!-- Node20&#45;&gt;Node9 -->
<g id="edge29" class="edge"><title>Node20&#45;&gt;Node9</title>
<path fill="none" stroke="midnightblue" d="M509.481,-168.083C507.626,-160.927 504.958,-150.635 502.639,-141.691"/>
<polygon fill="midnightblue" stroke="midnightblue" points="505.96,-140.553 500.062,-131.751 499.184,-142.309 505.96,-140.553"/>
</g>
<!-- Node21&#45;&gt;Node5 -->
<g id="edge34" class="edge"><title>Node21&#45;&gt;Node5</title>
<path fill="none" stroke="midnightblue" d="M703.37,-112.444C668.05,-102.51 610.045,-86.1958 573.987,-76.0544"/>
<polygon fill="midnightblue" stroke="midnightblue" points="574.567,-72.582 563.993,-73.2437 572.672,-79.3205 574.567,-72.582"/>
</g>
<!-- Node21&#45;&gt;Node15 -->
<g id="edge33" class="edge"><title>Node21&#45;&gt;Node15</title>
<path fill="none" stroke="midnightblue" d="M716.216,-112.368C677.124,-93.1711 582.78,-46.8418 536.417,-24.074"/>
<polygon fill="midnightblue" stroke="midnightblue" points="537.807,-20.8577 527.289,-19.5914 534.722,-27.141 537.807,-20.8577"/>
</g>
<!-- Node21&#45;&gt;Node18 -->
<g id="edge32" class="edge"><title>Node21&#45;&gt;Node18</title>
<path fill="none" stroke="midnightblue" d="M727.755,-112.115C719.189,-99.5489 702.971,-75.8958 688.793,-56 682.104,-46.6137 674.506,-36.233 668.287,-27.8092"/>
<polygon fill="midnightblue" stroke="midnightblue" points="670.954,-25.5291 662.19,-19.5762 665.329,-29.6953 670.954,-25.5291"/>
</g>
<!-- Node23&#45;&gt;Node4 -->
<g id="edge38" class="edge"><title>Node23&#45;&gt;Node4</title>
<path fill="none" stroke="midnightblue" d="M803.405,-168.745C751.221,-160.526 670.309,-147 600.793,-132 599.337,-131.686 597.849,-131.352 596.349,-131.006"/>
<polygon fill="midnightblue" stroke="midnightblue" points="597.002,-127.563 586.458,-128.6 595.347,-134.364 597.002,-127.563"/>
</g>
<!-- Node23&#45;&gt;Node5 -->
<g id="edge41" class="edge"><title>Node23&#45;&gt;Node5</title>
<path fill="none" stroke="midnightblue" d="M803.414,-171.752C758.016,-165.994 692.32,-154.411 638.793,-132 608.769,-119.429 578.247,-97.0557 559.665,-82.1224"/>
<polygon fill="midnightblue" stroke="midnightblue" points="561.734,-79.2931 551.783,-75.6557 557.294,-84.7047 561.734,-79.2931"/>
</g>
<!-- Node23&#45;&gt;Node13 -->
<g id="edge40" class="edge"><title>Node23&#45;&gt;Node13</title>
<path fill="none" stroke="midnightblue" d="M857.793,-168.075C857.793,-141.945 857.793,-65.2106 857.793,-29.577"/>
<polygon fill="midnightblue" stroke="midnightblue" points="861.293,-29.5681 857.793,-19.5681 854.293,-29.5681 861.293,-29.5681"/>
</g>
<!-- Node23&#45;&gt;Node17 -->
<g id="edge39" class="edge"><title>Node23&#45;&gt;Node17</title>
<path fill="none" stroke="midnightblue" d="M852.793,-168.075C838.027,-141.719 794.418,-63.878 774.688,-28.6608"/>
<polygon fill="midnightblue" stroke="midnightblue" points="777.535,-26.5816 769.593,-19.5681 771.428,-30.003 777.535,-26.5816"/>
</g>
<!-- Node24&#45;&gt;Node7 -->
<g id="edge44" class="edge"><title>Node24&#45;&gt;Node7</title>
<path fill="none" stroke="midnightblue" d="M71.3163,-168.083C69.3068,-160.849 66.4068,-150.409 63.9035,-141.397"/>
<polygon fill="midnightblue" stroke="midnightblue" points="67.2729,-140.449 61.2241,-131.751 60.5283,-142.323 67.2729,-140.449"/>
</g>
<!-- Node24&#45;&gt;Node8 -->
<g id="edge43" class="edge"><title>Node24&#45;&gt;Node8</title>
<path fill="none" stroke="midnightblue" d="M81.059,-168.083C87.3381,-160.377 96.5809,-149.033 104.224,-139.653"/>
<polygon fill="midnightblue" stroke="midnightblue" points="107.059,-141.714 110.663,-131.751 101.633,-137.293 107.059,-141.714"/>
</g>
<!-- Node25&#45;&gt;Node4 -->
<g id="edge49" class="edge"><title>Node25&#45;&gt;Node4</title>
<path fill="none" stroke="midnightblue" d="M929.393,-169.09C836.819,-157.355 666.541,-135.771 596.809,-126.932"/>
<polygon fill="midnightblue" stroke="midnightblue" points="596.869,-123.411 586.508,-125.626 595.988,-130.356 596.869,-123.411"/>
</g>
<!-- Node25&#45;&gt;Node5 -->
<g id="edge46" class="edge"><title>Node25&#45;&gt;Node5</title>
<path fill="none" stroke="midnightblue" d="M929.706,-168.844C840.111,-156.991 683.901,-135.981 671.793,-132 654.035,-126.162 651.433,-120.518 634.793,-112 612.903,-100.795 587.786,-88.6848 569.176,-79.853"/>
<polygon fill="midnightblue" stroke="midnightblue" points="570.626,-76.6669 560.089,-75.5555 567.633,-82.9949 570.626,-76.6669"/>
</g>
<!-- Node25&#45;&gt;Node13 -->
<g id="edge47" class="edge"><title>Node25&#45;&gt;Node13</title>
<path fill="none" stroke="midnightblue" d="M990.662,-168.375C988.628,-155.298 983.428,-130.066 971.793,-112 947.717,-74.614 906.077,-42.7612 880.339,-25.3056"/>
<polygon fill="midnightblue" stroke="midnightblue" points="882.222,-22.3547 871.953,-19.7463 878.354,-28.1891 882.222,-22.3547"/>
</g>
<!-- Node26 -->
<g id="node27" class="node"><title>Node26</title>
<polygon fill="white" stroke="#bfbfbf" points="912.293,-112.5 912.293,-131.5 963.293,-131.5 963.293,-112.5 912.293,-112.5"/>
<text text-anchor="middle" x="937.793" y="-119.5" font-family="Helvetica,sans-Serif" font-size="10.00">numeric</text>
</g>
<!-- Node25&#45;&gt;Node26 -->
<g id="edge48" class="edge"><title>Node25&#45;&gt;Node26</title>
<path fill="none" stroke="midnightblue" d="M982.876,-168.083C975.013,-160.22 963.362,-148.569 953.875,-139.081"/>
<polygon fill="midnightblue" stroke="midnightblue" points="956.09,-136.347 946.544,-131.751 951.141,-141.297 956.09,-136.347"/>
</g>
<!-- Node28 -->
<g id="node29" class="node"><title>Node28</title>
<polygon fill="white" stroke="#bfbfbf" points="1071.29,-168.5 1071.29,-187.5 1160.29,-187.5 1160.29,-168.5 1071.29,-168.5"/>
<text text-anchor="middle" x="1115.79" y="-175.5" font-family="Helvetica,sans-Serif" font-size="10.00">easylogging++.h</text>
</g>
<!-- Node27&#45;&gt;Node28 -->
<g id="edge51" class="edge"><title>Node27&#45;&gt;Node28</title>
<path fill="none" stroke="midnightblue" d="M1170.35,-224.324C1160.65,-216.263 1145.98,-204.077 1134.29,-194.369"/>
<polygon fill="midnightblue" stroke="midnightblue" points="1136.36,-191.532 1126.43,-187.834 1131.88,-196.916 1136.36,-191.532"/>
</g>
<!-- Node30 -->
<g id="node31" class="node"><title>Node30</title>
<polygon fill="white" stroke="#bfbfbf" points="1178.29,-168.5 1178.29,-187.5 1269.29,-187.5 1269.29,-168.5 1178.29,-168.5"/>
<text text-anchor="middle" x="1223.79" y="-175.5" font-family="Helvetica,sans-Serif" font-size="10.00">cereal/cereal.hpp</text>
</g>
<!-- Node29&#45;&gt;Node30 -->
<g id="edge53" class="edge"><title>Node29&#45;&gt;Node30</title>
<path fill="none" stroke="midnightblue" d="M1403.04,-224.444C1366.27,-215.122 1307.35,-200.183 1267.17,-189.997"/>
<polygon fill="midnightblue" stroke="midnightblue" points="1267.94,-186.581 1257.39,-187.516 1266.22,-193.367 1267.94,-186.581"/>
</g>
<!-- Node31 -->
<g id="node32" class="node"><title>Node31</title>
<polygon fill="white" stroke="#bfbfbf" points="1287.79,-168.5 1287.79,-187.5 1431.79,-187.5 1431.79,-168.5 1287.79,-168.5"/>
<text text-anchor="middle" x="1359.79" y="-175.5" font-family="Helvetica,sans-Serif" font-size="10.00">cereal/types/polymorphic.hpp</text>
</g>
<!-- Node29&#45;&gt;Node31 -->
<g id="edge54" class="edge"><title>Node29&#45;&gt;Node31</title>
<path fill="none" stroke="midnightblue" d="M1424.42,-224.324C1412.63,-216.058 1394.66,-203.453 1380.66,-193.632"/>
<polygon fill="midnightblue" stroke="midnightblue" points="1382.33,-190.531 1372.13,-187.655 1378.31,-196.262 1382.33,-190.531"/>
</g>
<!-- Node32 -->
<g id="node33" class="node"><title>Node32</title>
<polygon fill="white" stroke="#bfbfbf" points="1450.29,-168.5 1450.29,-187.5 1577.29,-187.5 1577.29,-168.5 1450.29,-168.5"/>
<text text-anchor="middle" x="1513.79" y="-175.5" font-family="Helvetica,sans-Serif" font-size="10.00">cereal/types/memory.hpp</text>
</g>
<!-- Node29&#45;&gt;Node32 -->
<g id="edge55" class="edge"><title>Node29&#45;&gt;Node32</title>
<path fill="none" stroke="midnightblue" d="M1449.16,-224.324C1460.95,-216.058 1478.93,-203.453 1492.93,-193.632"/>
<polygon fill="midnightblue" stroke="midnightblue" points="1495.27,-196.262 1501.45,-187.655 1491.26,-190.531 1495.27,-196.262"/>
</g>
<!-- Node33 -->
<g id="node34" class="node"><title>Node33</title>
<polygon fill="white" stroke="#bfbfbf" points="1595.79,-168.5 1595.79,-187.5 1711.79,-187.5 1711.79,-168.5 1595.79,-168.5"/>
<text text-anchor="middle" x="1653.79" y="-175.5" font-family="Helvetica,sans-Serif" font-size="10.00">cereal/types/string.hpp</text>
</g>
<!-- Node29&#45;&gt;Node33 -->
<g id="edge56" class="edge"><title>Node29&#45;&gt;Node33</title>
<path fill="none" stroke="midnightblue" d="M1471.18,-224.444C1508.72,-215.102 1568.92,-200.119 1609.86,-189.933"/>
<polygon fill="midnightblue" stroke="midnightblue" points="1610.71,-193.328 1619.57,-187.516 1609.02,-186.535 1610.71,-193.328"/>
</g>
<!-- Node34 -->
<g id="node35" class="node"><title>Node34</title>
<polygon fill="white" stroke="#bfbfbf" points="1730.29,-168.5 1730.29,-187.5 1849.29,-187.5 1849.29,-168.5 1730.29,-168.5"/>
<text text-anchor="middle" x="1789.79" y="-175.5" font-family="Helvetica,sans-Serif" font-size="10.00">cereal/types/vector.hpp</text>
</g>
<!-- Node29&#45;&gt;Node34 -->
<g id="edge57" class="edge"><title>Node29&#45;&gt;Node34</title>
<path fill="none" stroke="midnightblue" d="M1492.73,-224.444C1555.6,-214.826 1657.57,-199.228 1724.16,-189.041"/>
<polygon fill="midnightblue" stroke="midnightblue" points="1724.77,-192.488 1734.12,-187.516 1723.71,-185.569 1724.77,-192.488"/>
</g>
<!-- Node35 -->
<g id="node36" class="node"><title>Node35</title>
<polygon fill="white" stroke="#bfbfbf" points="1867.79,-168.5 1867.79,-187.5 1971.79,-187.5 1971.79,-168.5 1867.79,-168.5"/>
<text text-anchor="middle" x="1919.79" y="-175.5" font-family="Helvetica,sans-Serif" font-size="10.00">cereal/types/list.hpp</text>
</g>
<!-- Node29&#45;&gt;Node35 -->
<g id="edge58" class="edge"><title>Node29&#45;&gt;Node35</title>
<path fill="none" stroke="midnightblue" d="M1492.8,-225.112C1495.84,-224.726 1498.85,-224.352 1501.79,-224 1659.69,-205.091 1699.96,-207.427 1857.79,-188 1857.89,-187.988 1858,-187.975 1858.1,-187.963"/>
<polygon fill="midnightblue" stroke="midnightblue" points="1858.25,-191.472 1867.72,-186.726 1857.36,-184.529 1858.25,-191.472"/>
</g>
<!-- Node36 -->
<g id="node37" class="node"><title>Node36</title>
<polygon fill="white" stroke="#bfbfbf" points="1990.29,-168.5 1990.29,-187.5 2121.29,-187.5 2121.29,-168.5 1990.29,-168.5"/>
<text text-anchor="middle" x="2055.79" y="-175.5" font-family="Helvetica,sans-Serif" font-size="10.00">cereal/archives/binary.hpp</text>
</g>
<!-- Node29&#45;&gt;Node36 -->
<g id="edge59" class="edge"><title>Node29&#45;&gt;Node36</title>
<path fill="none" stroke="midnightblue" d="M1493.14,-224.979C1496.06,-224.631 1498.96,-224.302 1501.79,-224 1710.76,-201.702 1766.58,-208.5 1979.69,-188.062"/>
<polygon fill="midnightblue" stroke="midnightblue" points="1980.34,-191.515 1989.96,-187.067 1979.67,-184.547 1980.34,-191.515"/>
</g>
<!-- Node37 -->
<g id="node38" class="node"><title>Node37</title>
<polygon fill="white" stroke="#bfbfbf" points="2139.79,-168.5 2139.79,-187.5 2255.79,-187.5 2255.79,-168.5 2139.79,-168.5"/>
<text text-anchor="middle" x="2197.79" y="-175.5" font-family="Helvetica,sans-Serif" font-size="10.00">cereal/types/bitset.hpp</text>
</g>
<!-- Node29&#45;&gt;Node37 -->
<g id="edge60" class="edge"><title>Node29&#45;&gt;Node37</title>
<path fill="none" stroke="midnightblue" d="M1493.13,-224.917C1496.06,-224.586 1498.96,-224.277 1501.79,-224 1776.78,-197.125 1849.77,-213.954 2129.55,-187.937"/>
<polygon fill="midnightblue" stroke="midnightblue" points="2129.96,-191.414 2139.59,-186.993 2129.3,-184.444 2129.96,-191.414"/>
</g>
<!-- Node38 -->
<g id="node39" class="node"><title>Node38</title>
<polygon fill="white" stroke="#bfbfbf" points="2274.29,-168.5 2274.29,-187.5 2331.29,-187.5 2331.29,-168.5 2274.29,-168.5"/>
<text text-anchor="middle" x="2302.79" y="-175.5" font-family="Helvetica,sans-Serif" font-size="10.00">TBuffer.h</text>
</g>
<!-- Node29&#45;&gt;Node38 -->
<g id="edge61" class="edge"><title>Node29&#45;&gt;Node38</title>
<path fill="none" stroke="midnightblue" d="M1493.13,-224.883C1496.06,-224.56 1498.96,-224.263 1501.79,-224 1839.39,-192.718 1927.93,-234.305 2263.79,-188 2263.9,-187.986 2264,-187.971 2264.1,-187.957"/>
<polygon fill="midnightblue" stroke="midnightblue" points="2264.67,-191.41 2273.94,-186.267 2263.49,-184.511 2264.67,-191.41"/>
</g>
<!-- Node39 -->
<g id="node40" class="node"><title>Node39</title>
<polygon fill="white" stroke="#bfbfbf" points="2349.79,-168.5 2349.79,-187.5 2409.79,-187.5 2409.79,-168.5 2349.79,-168.5"/>
<text text-anchor="middle" x="2379.79" y="-175.5" font-family="Helvetica,sans-Serif" font-size="10.00">streambuf</text>
</g>
<!-- Node29&#45;&gt;Node39 -->
<g id="edge62" class="edge"><title>Node29&#45;&gt;Node39</title>
<path fill="none" stroke="midnightblue" d="M1493.13,-224.868C1496.05,-224.549 1498.96,-224.257 1501.79,-224 1873.06,-190.398 1970.25,-237.111 2339.79,-188 2339.89,-187.987 2340,-187.973 2340.1,-187.959"/>
<polygon fill="midnightblue" stroke="midnightblue" points="2340.46,-191.447 2349.76,-186.362 2339.32,-184.541 2340.46,-191.447"/>
</g>
</g>
</svg>
