<?xml version="1.0" encoding="UTF-8" standalone="no"?>
<!DOCTYPE svg PUBLIC "-//W3C//DTD SVG 1.1//EN"
 "http://www.w3.org/Graphics/SVG/1.1/DTD/svg11.dtd">
<!-- Generated by graphviz version 2.36.0 (20140111.2315)
 -->
<!-- Title: src/root&#45;addons/analysis_codes/hstack.h Pages: 1 -->
<svg width="674pt" height="264pt"
 viewBox="0.00 0.00 674.00 264.00" xmlns="http://www.w3.org/2000/svg" xmlns:xlink="http://www.w3.org/1999/xlink">
<g id="graph0" class="graph" transform="scale(1 1) rotate(0) translate(4 260)">
<title>src/root&#45;addons/analysis_codes/hstack.h</title>
<polygon fill="white" stroke="none" points="-4,4 -4,-260 670,-260 670,4 -4,4"/>
<!-- Node0 -->
<g id="node1" class="node"><title>Node0</title>
<polygon fill="#bfbfbf" stroke="black" points="329.5,-225 329.5,-255 452.5,-255 452.5,-225 329.5,-225"/>
<text text-anchor="start" x="337.5" y="-243" font-family="Helvetica,sans-Serif" font-size="10.00">src/root&#45;addons/analysis</text>
<text text-anchor="middle" x="391" y="-232" font-family="Helvetica,sans-Serif" font-size="10.00">_codes/hstack.h</text>
</g>
<!-- Node1 -->
<g id="node2" class="node"><title>Node1</title>
<polygon fill="white" stroke="#bfbfbf" points="0,-112.5 0,-131.5 56,-131.5 56,-112.5 0,-112.5"/>
<text text-anchor="middle" x="28" y="-119.5" font-family="Helvetica,sans-Serif" font-size="10.00">Rtypes.h</text>
</g>
<!-- Node0&#45;&gt;Node1 -->
<g id="edge1" class="edge"><title>Node0&#45;&gt;Node1</title>
<path fill="none" stroke="midnightblue" d="M329.416,-235.141C226.97,-228.088 30.6828,-211.636 10,-188 -1.63881,-174.699 6.70415,-154.487 15.5124,-140.137"/>
<polygon fill="midnightblue" stroke="midnightblue" points="18.5146,-141.944 21.1625,-131.685 12.6952,-138.053 18.5146,-141.944"/>
</g>
<!-- Node2 -->
<g id="node3" class="node"><title>Node2</title>
<polygon fill="white" stroke="#bfbfbf" points="19,-168.5 19,-187.5 83,-187.5 83,-168.5 19,-168.5"/>
<text text-anchor="middle" x="51" y="-175.5" font-family="Helvetica,sans-Serif" font-size="10.00">THStack.h</text>
</g>
<!-- Node0&#45;&gt;Node2 -->
<g id="edge2" class="edge"><title>Node0&#45;&gt;Node2</title>
<path fill="none" stroke="midnightblue" d="M329.286,-229.345C270.908,-220.014 180.609,-205.072 93.0347,-188.132"/>
<polygon fill="midnightblue" stroke="midnightblue" points="93.6835,-184.692 83.1992,-186.218 92.3468,-191.564 93.6835,-184.692"/>
</g>
<!-- Node3 -->
<g id="node4" class="node"><title>Node3</title>
<polygon fill="white" stroke="#bfbfbf" points="74.5,-112.5 74.5,-131.5 115.5,-131.5 115.5,-112.5 74.5,-112.5"/>
<text text-anchor="middle" x="95" y="-119.5" font-family="Helvetica,sans-Serif" font-size="10.00">string</text>
</g>
<!-- Node0&#45;&gt;Node3 -->
<g id="edge3" class="edge"><title>Node0&#45;&gt;Node3</title>
<path fill="none" stroke="midnightblue" d="M356.611,-225C332.694,-215.083 300.174,-201.242 272,-188 254.371,-179.714 250.983,-175.488 233,-168 222.899,-163.794 162.991,-144.584 125.503,-132.664"/>
<polygon fill="midnightblue" stroke="midnightblue" points="126.175,-129.205 115.584,-129.513 124.056,-135.876 126.175,-129.205"/>
</g>
<!-- Node4 -->
<g id="node5" class="node"><title>Node4</title>
<polygon fill="white" stroke="#bfbfbf" points="503,-56.5 503,-75.5 547,-75.5 547,-56.5 503,-56.5"/>
<text text-anchor="middle" x="525" y="-63.5" font-family="Helvetica,sans-Serif" font-size="10.00">vector</text>
</g>
<!-- Node0&#45;&gt;Node4 -->
<g id="edge4" class="edge"><title>Node0&#45;&gt;Node4</title>
<path fill="none" stroke="midnightblue" d="M418.193,-224.822C433.424,-215.845 451.924,-203.095 465,-188 492.148,-156.66 510.419,-110.883 519.124,-85.5669"/>
<polygon fill="midnightblue" stroke="midnightblue" points="522.542,-86.3785 522.357,-75.7852 515.895,-84.1813 522.542,-86.3785"/>
</g>
<!-- Node5 -->
<g id="node6" class="node"><title>Node5</title>
<g id="a_node6"><a xlink:href="_root_draw_8h.html" target="_top" xlink:title="analysis/plot/RootDraw.h">
<polygon fill="white" stroke="black" points="281.5,-168.5 281.5,-187.5 408.5,-187.5 408.5,-168.5 281.5,-168.5"/>
<text text-anchor="middle" x="345" y="-175.5" font-family="Helvetica,sans-Serif" font-size="10.00">analysis/plot/RootDraw.h</text>
</a>
</g>
</g>
<!-- Node0&#45;&gt;Node5 -->
<g id="edge5" class="edge"><title>Node0&#45;&gt;Node5</title>
<path fill="none" stroke="midnightblue" d="M380.099,-224.781C373.414,-216.062 364.824,-204.857 357.815,-195.715"/>
<polygon fill="midnightblue" stroke="midnightblue" points="360.555,-193.537 351.693,-187.731 355,-197.796 360.555,-193.537"/>
</g>
<!-- Node7 -->
<g id="node8" class="node"><title>Node7</title>
<polygon fill="white" stroke="#bfbfbf" points="414,-112.5 414,-131.5 466,-131.5 466,-112.5 414,-112.5"/>
<text text-anchor="middle" x="440" y="-119.5" font-family="Helvetica,sans-Serif" font-size="10.00">memory</text>
</g>
<!-- Node0&#45;&gt;Node7 -->
<g id="edge34" class="edge"><title>Node0&#45;&gt;Node7</title>
<path fill="none" stroke="midnightblue" d="M398.794,-224.95C404.247,-214.838 411.508,-200.784 417,-188 423.645,-172.534 429.93,-154.445 434.245,-141.283"/>
<polygon fill="midnightblue" stroke="midnightblue" points="437.645,-142.142 437.371,-131.55 430.98,-140.001 437.645,-142.142"/>
</g>
<!-- Node10 -->
<g id="node11" class="node"><title>Node10</title>
<g id="a_node11"><a xlink:href="interval_8h.html" target="_top" xlink:title="base/interval.h">
<polygon fill="white" stroke="black" points="399,-56.5 399,-75.5 479,-75.5 479,-56.5 399,-56.5"/>
<text text-anchor="middle" x="439" y="-63.5" font-family="Helvetica,sans-Serif" font-size="10.00">base/interval.h</text>
</a>
</g>
</g>
<!-- Node0&#45;&gt;Node10 -->
<g id="edge29" class="edge"><title>Node0&#45;&gt;Node10</title>
<path fill="none" stroke="midnightblue" d="M407.832,-224.82C428.554,-206.094 462.531,-170.908 475,-132 477.713,-123.535 477.942,-120.388 475,-112 471.215,-101.209 463.633,-91.084 456.4,-83.1808"/>
<polygon fill="midnightblue" stroke="midnightblue" points="458.667,-80.4943 449.162,-75.8145 453.674,-85.4005 458.667,-80.4943"/>
</g>
<!-- Node19 -->
<g id="node20" class="node"><title>Node19</title>
<g id="a_node20"><a xlink:href="_hist_style_8h.html" target="_top" xlink:title="analysis/plot/HistStyle.h">
<polygon fill="white" stroke="black" points="101.5,-168.5 101.5,-187.5 224.5,-187.5 224.5,-168.5 101.5,-168.5"/>
<text text-anchor="middle" x="163" y="-175.5" font-family="Helvetica,sans-Serif" font-size="10.00">analysis/plot/HistStyle.h</text>
</a>
</g>
</g>
<!-- Node0&#45;&gt;Node19 -->
<g id="edge25" class="edge"><title>Node0&#45;&gt;Node19</title>
<path fill="none" stroke="midnightblue" d="M337.544,-224.933C297.24,-214.326 242.713,-199.977 205.392,-190.156"/>
<polygon fill="midnightblue" stroke="midnightblue" points="205.91,-186.673 195.348,-187.513 204.128,-193.442 205.91,-186.673"/>
</g>
<!-- Node20 -->
<g id="node21" class="node"><title>Node20</title>
<g id="a_node21"><a xlink:href="base_2std__ext_2math_8h.html" target="_top" xlink:title="base/std_ext/math.h">
<polygon fill="white" stroke="black" points="560,-112.5 560,-131.5 666,-131.5 666,-112.5 560,-112.5"/>
<text text-anchor="middle" x="613" y="-119.5" font-family="Helvetica,sans-Serif" font-size="10.00">base/std_ext/math.h</text>
</a>
</g>
</g>
<!-- Node0&#45;&gt;Node20 -->
<g id="edge30" class="edge"><title>Node0&#45;&gt;Node20</title>
<path fill="none" stroke="midnightblue" d="M452.63,-225.602C482.232,-217.49 517.398,-205.303 546,-188 567.328,-175.097 587.214,-154.234 599.691,-139.635"/>
<polygon fill="midnightblue" stroke="midnightblue" points="602.443,-141.8 606.136,-131.87 597.056,-137.329 602.443,-141.8"/>
</g>
<!-- Node21 -->
<g id="node22" class="node"><title>Node21</title>
<polygon fill="white" stroke="#bfbfbf" points="598.5,-168.5 598.5,-187.5 633.5,-187.5 633.5,-168.5 598.5,-168.5"/>
<text text-anchor="middle" x="616" y="-175.5" font-family="Helvetica,sans-Serif" font-size="10.00">map</text>
</g>
<!-- Node0&#45;&gt;Node21 -->
<g id="edge35" class="edge"><title>Node0&#45;&gt;Node21</title>
<path fill="none" stroke="midnightblue" d="M445.136,-224.939C483.857,-214.822 537.19,-200.767 584,-188 585.462,-187.601 586.96,-187.19 588.472,-186.772"/>
<polygon fill="midnightblue" stroke="midnightblue" points="589.716,-190.059 598.409,-184.002 587.836,-183.316 589.716,-190.059"/>
</g>
<!-- Node5&#45;&gt;Node1 -->
<g id="edge24" class="edge"><title>Node5&#45;&gt;Node1</title>
<path fill="none" stroke="midnightblue" d="M283.021,-168.479C228.448,-160.649 146.617,-148.117 66.4985,-132.175"/>
<polygon fill="midnightblue" stroke="midnightblue" points="66.7239,-128.65 56.2303,-130.111 65.3443,-135.513 66.7239,-128.65"/>
</g>
<!-- Node5&#45;&gt;Node3 -->
<g id="edge6" class="edge"><title>Node5&#45;&gt;Node3</title>
<path fill="none" stroke="midnightblue" d="M295.961,-168.471C253.161,-160.699 189.221,-148.304 125.355,-132.163"/>
<polygon fill="midnightblue" stroke="midnightblue" points="126.078,-128.735 115.523,-129.647 124.343,-135.517 126.078,-128.735"/>
</g>
<!-- Node5&#45;&gt;Node4 -->
<g id="edge8" class="edge"><title>Node5&#45;&gt;Node4</title>
<path fill="none" stroke="midnightblue" d="M343.914,-168.148C342.741,-154.303 342.672,-127.509 357,-112 359.35,-109.456 444.68,-87.4304 492.801,-75.1646"/>
<polygon fill="midnightblue" stroke="midnightblue" points="493.917,-78.4921 502.745,-72.6338 492.19,-71.7084 493.917,-78.4921"/>
</g>
<!-- Node6 -->
<g id="node7" class="node"><title>Node6</title>
<polygon fill="white" stroke="#bfbfbf" points="366.5,-112.5 366.5,-131.5 395.5,-131.5 395.5,-112.5 366.5,-112.5"/>
<text text-anchor="middle" x="381" y="-119.5" font-family="Helvetica,sans-Serif" font-size="10.00">list</text>
</g>
<!-- Node5&#45;&gt;Node6 -->
<g id="edge7" class="edge"><title>Node5&#45;&gt;Node6</title>
<path fill="none" stroke="midnightblue" d="M350.945,-168.083C355.977,-160.534 363.337,-149.495 369.513,-140.23"/>
<polygon fill="midnightblue" stroke="midnightblue" points="372.531,-142.013 375.166,-131.751 366.707,-138.13 372.531,-142.013"/>
</g>
<!-- Node5&#45;&gt;Node7 -->
<g id="edge9" class="edge"><title>Node5&#45;&gt;Node7</title>
<path fill="none" stroke="midnightblue" d="M360.263,-168.324C375.221,-159.822 398.255,-146.729 415.727,-136.797"/>
<polygon fill="midnightblue" stroke="midnightblue" points="417.81,-139.639 424.774,-131.655 414.351,-133.553 417.81,-139.639"/>
</g>
<!-- Node8 -->
<g id="node9" class="node"><title>Node8</title>
<polygon fill="white" stroke="#bfbfbf" points="133.5,-112.5 133.5,-131.5 192.5,-131.5 192.5,-112.5 133.5,-112.5"/>
<text text-anchor="middle" x="163" y="-119.5" font-family="Helvetica,sans-Serif" font-size="10.00">functional</text>
</g>
<!-- Node5&#45;&gt;Node8 -->
<g id="edge10" class="edge"><title>Node5&#45;&gt;Node8</title>
<path fill="none" stroke="midnightblue" d="M316.162,-168.444C285.144,-159.241 235.671,-144.562 201.382,-134.388"/>
<polygon fill="midnightblue" stroke="midnightblue" points="202.286,-131.006 191.704,-131.516 200.295,-137.716 202.286,-131.006"/>
</g>
<!-- Node9 -->
<g id="node10" class="node"><title>Node9</title>
<g id="a_node10"><a xlink:href="_bin_settings_8h.html" target="_top" xlink:title="base/BinSettings.h">
<polygon fill="white" stroke="black" points="210.5,-112.5 210.5,-131.5 309.5,-131.5 309.5,-112.5 210.5,-112.5"/>
<text text-anchor="middle" x="260" y="-119.5" font-family="Helvetica,sans-Serif" font-size="10.00">base/BinSettings.h</text>
</a>
</g>
</g>
<!-- Node5&#45;&gt;Node9 -->
<g id="edge11" class="edge"><title>Node5&#45;&gt;Node9</title>
<path fill="none" stroke="midnightblue" d="M331.343,-168.324C318.084,-159.9 297.732,-146.971 282.154,-137.074"/>
<polygon fill="midnightblue" stroke="midnightblue" points="283.94,-134.063 273.623,-131.655 280.187,-139.971 283.94,-134.063"/>
</g>
<!-- Node9&#45;&gt;Node4 -->
<g id="edge20" class="edge"><title>Node9&#45;&gt;Node4</title>
<path fill="none" stroke="midnightblue" d="M306.411,-112.456C352.57,-103.813 425.349,-89.7954 488,-76 489.493,-75.6712 491.018,-75.3284 492.558,-74.9768"/>
<polygon fill="midnightblue" stroke="midnightblue" points="493.799,-78.2804 502.732,-72.5836 492.196,-71.4664 493.799,-78.2804"/>
</g>
<!-- Node9&#45;&gt;Node10 -->
<g id="edge12" class="edge"><title>Node9&#45;&gt;Node10</title>
<path fill="none" stroke="midnightblue" d="M288.363,-112.444C318.738,-103.28 367.11,-88.6876 400.816,-78.5192"/>
<polygon fill="midnightblue" stroke="midnightblue" points="402.207,-81.7555 410.77,-75.5164 400.185,-75.0538 402.207,-81.7555"/>
</g>
<!-- Node13 -->
<g id="node14" class="node"><title>Node13</title>
<polygon fill="white" stroke="#bfbfbf" points="199.5,-0.5 199.5,-19.5 258.5,-19.5 258.5,-0.5 199.5,-0.5"/>
<text text-anchor="middle" x="229" y="-7.5" font-family="Helvetica,sans-Serif" font-size="10.00">stdexcept</text>
</g>
<!-- Node9&#45;&gt;Node13 -->
<g id="edge21" class="edge"><title>Node9&#45;&gt;Node13</title>
<path fill="none" stroke="midnightblue" d="M257.567,-112.368C252.542,-94.5366 240.92,-53.2953 234.149,-29.2717"/>
<polygon fill="midnightblue" stroke="midnightblue" points="237.503,-28.2671 231.421,-19.5914 230.765,-30.1659 237.503,-28.2671"/>
</g>
<!-- Node15 -->
<g id="node16" class="node"><title>Node15</title>
<polygon fill="white" stroke="#bfbfbf" points="276.5,-0.5 276.5,-19.5 325.5,-19.5 325.5,-0.5 276.5,-0.5"/>
<text text-anchor="middle" x="301" y="-7.5" font-family="Helvetica,sans-Serif" font-size="10.00">istream</text>
</g>
<!-- Node9&#45;&gt;Node15 -->
<g id="edge22" class="edge"><title>Node9&#45;&gt;Node15</title>
<path fill="none" stroke="midnightblue" d="M263.217,-112.368C269.864,-94.5366 285.235,-53.2953 294.19,-29.2717"/>
<polygon fill="midnightblue" stroke="midnightblue" points="297.585,-30.1841 297.798,-19.5914 291.026,-27.7393 297.585,-30.1841"/>
</g>
<!-- Node18 -->
<g id="node19" class="node"><title>Node18</title>
<polygon fill="white" stroke="#bfbfbf" points="180,-56.5 180,-75.5 232,-75.5 232,-56.5 180,-56.5"/>
<text text-anchor="middle" x="206" y="-63.5" font-family="Helvetica,sans-Serif" font-size="10.00">ostream</text>
</g>
<!-- Node9&#45;&gt;Node18 -->
<g id="edge23" class="edge"><title>Node9&#45;&gt;Node18</title>
<path fill="none" stroke="midnightblue" d="M251.083,-112.083C243.22,-104.22 231.569,-92.5688 222.081,-83.0813"/>
<polygon fill="midnightblue" stroke="midnightblue" points="224.297,-80.3473 214.751,-75.7511 219.347,-85.2971 224.297,-80.3473"/>
</g>
<!-- Node11 -->
<g id="node12" class="node"><title>Node11</title>
<g id="a_node12"><a xlink:href="types_8h.html" target="_top" xlink:title="types.h">
<polygon fill="white" stroke="black" points="343.5,-0.5 343.5,-19.5 392.5,-19.5 392.5,-0.5 343.5,-0.5"/>
<text text-anchor="middle" x="368" y="-7.5" font-family="Helvetica,sans-Serif" font-size="10.00">types.h</text>
</a>
</g>
</g>
<!-- Node10&#45;&gt;Node11 -->
<g id="edge13" class="edge"><title>Node10&#45;&gt;Node11</title>
<path fill="none" stroke="midnightblue" d="M427.593,-56.324C416.891,-48.1849 400.659,-35.8395 387.837,-26.0874"/>
<polygon fill="midnightblue" stroke="midnightblue" points="389.693,-23.1018 379.615,-19.8339 385.456,-28.6734 389.693,-23.1018"/>
</g>
<!-- Node12 -->
<g id="node13" class="node"><title>Node12</title>
<polygon fill="white" stroke="#bfbfbf" points="411,-0.5 411,-19.5 467,-19.5 467,-0.5 411,-0.5"/>
<text text-anchor="middle" x="439" y="-7.5" font-family="Helvetica,sans-Serif" font-size="10.00">algorithm</text>
</g>
<!-- Node10&#45;&gt;Node12 -->
<g id="edge14" class="edge"><title>Node10&#45;&gt;Node12</title>
<path fill="none" stroke="midnightblue" d="M439,-56.083C439,-49.0059 439,-38.8611 439,-29.9865"/>
<polygon fill="midnightblue" stroke="midnightblue" points="442.5,-29.751 439,-19.7511 435.5,-29.7511 442.5,-29.751"/>
</g>
<!-- Node10&#45;&gt;Node13 -->
<g id="edge15" class="edge"><title>Node10&#45;&gt;Node13</title>
<path fill="none" stroke="midnightblue" d="M405.725,-56.4435C368.488,-46.8683 308.197,-31.365 268.573,-21.1759"/>
<polygon fill="midnightblue" stroke="midnightblue" points="269.281,-17.7441 258.724,-18.6433 267.537,-24.5235 269.281,-17.7441"/>
</g>
<!-- Node14 -->
<g id="node15" class="node"><title>Node14</title>
<polygon fill="white" stroke="#bfbfbf" points="617,-0.5 617,-19.5 657,-19.5 657,-0.5 617,-0.5"/>
<text text-anchor="middle" x="637" y="-7.5" font-family="Helvetica,sans-Serif" font-size="10.00">limits</text>
</g>
<!-- Node10&#45;&gt;Node14 -->
<g id="edge16" class="edge"><title>Node10&#45;&gt;Node14</title>
<path fill="none" stroke="midnightblue" d="M471.915,-56.4927C505.843,-47.6511 560.234,-33.2751 607,-20 607.098,-19.9722 607.196,-19.9442 607.295,-19.9163"/>
<polygon fill="midnightblue" stroke="midnightblue" points="608.067,-23.3368 616.691,-17.1819 606.111,-16.6156 608.067,-23.3368"/>
</g>
<!-- Node10&#45;&gt;Node15 -->
<g id="edge17" class="edge"><title>Node10&#45;&gt;Node15</title>
<path fill="none" stroke="midnightblue" d="M417.133,-56.4435C394.221,-47.4776 358.025,-33.314 332.134,-23.1827"/>
<polygon fill="midnightblue" stroke="midnightblue" points="333.352,-19.9011 322.764,-19.5164 330.801,-26.4198 333.352,-19.9011"/>
</g>
<!-- Node16 -->
<g id="node17" class="node"><title>Node16</title>
<polygon fill="white" stroke="#bfbfbf" points="485,-0.5 485,-19.5 537,-19.5 537,-0.5 485,-0.5"/>
<text text-anchor="middle" x="511" y="-7.5" font-family="Helvetica,sans-Serif" font-size="10.00">sstream</text>
</g>
<!-- Node10&#45;&gt;Node16 -->
<g id="edge18" class="edge"><title>Node10&#45;&gt;Node16</title>
<path fill="none" stroke="midnightblue" d="M450.568,-56.324C461.42,-48.1849 477.881,-35.8395 490.883,-26.0874"/>
<polygon fill="midnightblue" stroke="midnightblue" points="493.321,-28.6339 499.221,-19.8339 489.121,-23.0339 493.321,-28.6339"/>
</g>
<!-- Node17 -->
<g id="node18" class="node"><title>Node17</title>
<polygon fill="white" stroke="#bfbfbf" points="555,-0.5 555,-19.5 599,-19.5 599,-0.5 555,-0.5"/>
<text text-anchor="middle" x="577" y="-7.5" font-family="Helvetica,sans-Serif" font-size="10.00">cmath</text>
</g>
<!-- Node10&#45;&gt;Node17 -->
<g id="edge19" class="edge"><title>Node10&#45;&gt;Node17</title>
<path fill="none" stroke="midnightblue" d="M460.867,-56.4435C483.779,-47.4776 519.975,-33.314 545.866,-23.1827"/>
<polygon fill="midnightblue" stroke="midnightblue" points="547.199,-26.4198 555.236,-19.5164 544.648,-19.9011 547.199,-26.4198"/>
</g>
<!-- Node19&#45;&gt;Node1 -->
<g id="edge26" class="edge"><title>Node19&#45;&gt;Node1</title>
<path fill="none" stroke="midnightblue" d="M141.609,-168.444C119.293,-159.517 84.0968,-145.439 58.792,-135.317"/>
<polygon fill="midnightblue" stroke="midnightblue" points="59.8757,-131.981 49.2911,-131.516 57.276,-138.48 59.8757,-131.981"/>
</g>
<!-- Node19&#45;&gt;Node3 -->
<g id="edge27" class="edge"><title>Node19&#45;&gt;Node3</title>
<path fill="none" stroke="midnightblue" d="M152.075,-168.324C141.825,-160.185 126.279,-147.839 113.999,-138.087"/>
<polygon fill="midnightblue" stroke="midnightblue" points="116.132,-135.312 106.124,-131.834 111.779,-140.794 116.132,-135.312"/>
</g>
<!-- Node19&#45;&gt;Node8 -->
<g id="edge28" class="edge"><title>Node19&#45;&gt;Node8</title>
<path fill="none" stroke="midnightblue" d="M163,-168.083C163,-161.006 163,-150.861 163,-141.986"/>
<polygon fill="midnightblue" stroke="midnightblue" points="166.5,-141.751 163,-131.751 159.5,-141.751 166.5,-141.751"/>
</g>
<!-- Node20&#45;&gt;Node4 -->
<g id="edge33" class="edge"><title>Node20&#45;&gt;Node4</title>
<path fill="none" stroke="midnightblue" d="M598.861,-112.324C585.134,-103.9 564.064,-90.9709 547.936,-81.0741"/>
<polygon fill="midnightblue" stroke="midnightblue" points="549.457,-77.9016 539.104,-75.6545 545.796,-83.8678 549.457,-77.9016"/>
</g>
<!-- Node20&#45;&gt;Node14 -->
<g id="edge32" class="edge"><title>Node20&#45;&gt;Node14</title>
<path fill="none" stroke="midnightblue" d="M614.883,-112.368C618.756,-94.617 627.691,-53.6664 632.942,-29.5974"/>
<polygon fill="midnightblue" stroke="midnightblue" points="636.413,-30.1077 635.126,-19.5914 629.574,-28.6155 636.413,-30.1077"/>
</g>
<!-- Node20&#45;&gt;Node17 -->
<g id="edge31" class="edge"><title>Node20&#45;&gt;Node17</title>
<path fill="none" stroke="midnightblue" d="M610.175,-112.368C604.339,-94.5366 590.842,-53.2953 582.98,-29.2717"/>
<polygon fill="midnightblue" stroke="midnightblue" points="586.249,-28.0067 579.812,-19.5914 579.596,-30.1841 586.249,-28.0067"/>
</g>
</g>
</svg>
