<?xml version="1.0" encoding="UTF-8" standalone="no"?>
<!DOCTYPE svg PUBLIC "-//W3C//DTD SVG 1.1//EN"
 "http://www.w3.org/Graphics/SVG/1.1/DTD/svg11.dtd">
<!-- Generated by graphviz version 2.36.0 (20140111.2315)
 -->
<!-- Title: src/root&#45;addons/analysis_codes/hstack.h Pages: 1 -->
<svg width="1846pt" height="186pt"
 viewBox="0.00 0.00 1846.00 186.00" xmlns="http://www.w3.org/2000/svg" xmlns:xlink="http://www.w3.org/1999/xlink">
<g id="graph0" class="graph" transform="scale(1 1) rotate(0) translate(4 182)">
<title>src/root&#45;addons/analysis_codes/hstack.h</title>
<polygon fill="white" stroke="none" points="-4,4 -4,-182 1842,-182 1842,4 -4,4"/>
<!-- Node22 -->
<g id="node1" class="node"><title>Node22</title>
<polygon fill="#bfbfbf" stroke="black" points="653.5,-147 653.5,-177 776.5,-177 776.5,-147 653.5,-147"/>
<text text-anchor="start" x="661.5" y="-165" font-family="Helvetica,sans-Serif" font-size="10.00">src/root&#45;addons/analysis</text>
<text text-anchor="middle" x="715" y="-154" font-family="Helvetica,sans-Serif" font-size="10.00">_codes/hstack.h</text>
</g>
<!-- Node23 -->
<g id="node2" class="node"><title>Node23</title>
<g id="a_node2"><a xlink:href="_ant-mcdatabase-viewer_8cc.html" target="_top" xlink:title="progs/Ant&#45;mcdatabase\l&#45;viewer.cc">
<polygon fill="white" stroke="black" points="-0.5,-79 -0.5,-109 114.5,-109 114.5,-79 -0.5,-79"/>
<text text-anchor="start" x="7.5" y="-97" font-family="Helvetica,sans-Serif" font-size="10.00">progs/Ant&#45;mcdatabase</text>
<text text-anchor="middle" x="57" y="-86" font-family="Helvetica,sans-Serif" font-size="10.00">&#45;viewer.cc</text>
</a>
</g>
</g>
<!-- Node22&#45;&gt;Node23 -->
<g id="edge1" class="edge"><title>Node22&#45;&gt;Node23</title>
<path fill="none" stroke="midnightblue" d="M643.296,-157.92C531.726,-152.428 310.047,-138.721 124,-110 120.937,-109.527 117.805,-108.996 114.65,-108.422"/>
<polygon fill="midnightblue" stroke="midnightblue" points="643.261,-161.422 653.418,-158.41 643.6,-154.43 643.261,-161.422"/>
</g>
<!-- Node24 -->
<g id="node3" class="node"><title>Node24</title>
<g id="a_node3"><a xlink:href="process_etap_tree_8cc.html" target="_top" xlink:title="progs/processEtapTree.cc">
<polygon fill="white" stroke="black" points="132.5,-84.5 132.5,-103.5 263.5,-103.5 263.5,-84.5 132.5,-84.5"/>
<text text-anchor="middle" x="198" y="-91.5" font-family="Helvetica,sans-Serif" font-size="10.00">progs/processEtapTree.cc</text>
</a>
</g>
</g>
<!-- Node22&#45;&gt;Node24 -->
<g id="edge2" class="edge"><title>Node22&#45;&gt;Node24</title>
<path fill="none" stroke="midnightblue" d="M643.188,-154.552C555.532,-146.258 402.917,-130.451 273,-110 261.457,-108.183 248.987,-105.843 237.592,-103.554"/>
<polygon fill="midnightblue" stroke="midnightblue" points="643.005,-158.05 653.289,-155.501 643.66,-151.081 643.005,-158.05"/>
</g>
<!-- Node25 -->
<g id="node4" class="node"><title>Node25</title>
<g id="a_node4"><a xlink:href="_m_c_clustering_check_8h.html" target="_top" xlink:title="src/analysis/physics\l/check/MCClusteringCheck.h">
<polygon fill="white" stroke="black" points="282,-79 282,-109 428,-109 428,-79 282,-79"/>
<text text-anchor="start" x="290" y="-97" font-family="Helvetica,sans-Serif" font-size="10.00">src/analysis/physics</text>
<text text-anchor="middle" x="355" y="-86" font-family="Helvetica,sans-Serif" font-size="10.00">/check/MCClusteringCheck.h</text>
</a>
</g>
</g>
<!-- Node22&#45;&gt;Node25 -->
<g id="edge3" class="edge"><title>Node22&#45;&gt;Node25</title>
<path fill="none" stroke="midnightblue" d="M642.965,-147.794C580.615,-136.363 490.853,-119.906 428.172,-108.415"/>
<polygon fill="midnightblue" stroke="midnightblue" points="642.647,-151.293 653.114,-149.654 643.909,-144.408 642.647,-151.293"/>
</g>
<!-- Node27 -->
<g id="node6" class="node"><title>Node27</title>
<g id="a_node6"><a xlink:href="_m_c_reconstruct_check_8cc.html" target="_top" xlink:title="src/analysis/physics\l/check/MCReconstructCheck.cc">
<polygon fill="white" stroke="black" points="446,-79 446,-109 606,-109 606,-79 446,-79"/>
<text text-anchor="start" x="454" y="-97" font-family="Helvetica,sans-Serif" font-size="10.00">src/analysis/physics</text>
<text text-anchor="middle" x="526" y="-86" font-family="Helvetica,sans-Serif" font-size="10.00">/check/MCReconstructCheck.cc</text>
</a>
</g>
</g>
<!-- Node22&#45;&gt;Node27 -->
<g id="edge5" class="edge"><title>Node22&#45;&gt;Node27</title>
<path fill="none" stroke="midnightblue" d="M664.749,-143.452C633.903,-132.68 594.934,-119.072 566.153,-109.022"/>
<polygon fill="midnightblue" stroke="midnightblue" points="663.86,-146.849 674.455,-146.841 666.168,-140.24 663.86,-146.849"/>
</g>
<!-- Node28 -->
<g id="node7" class="node"><title>Node28</title>
<g id="a_node7"><a xlink:href="_omega___eta_g_8cc.html" target="_top" xlink:title="src/analysis/physics\l/omega/Omega_EtaG.cc">
<polygon fill="white" stroke="black" points="188.5,-6 188.5,-36 313.5,-36 313.5,-6 188.5,-6"/>
<text text-anchor="start" x="196.5" y="-24" font-family="Helvetica,sans-Serif" font-size="10.00">src/analysis/physics</text>
<text text-anchor="middle" x="251" y="-13" font-family="Helvetica,sans-Serif" font-size="10.00">/omega/Omega_EtaG.cc</text>
</a>
</g>
</g>
<!-- Node22&#45;&gt;Node28 -->
<g id="edge6" class="edge"><title>Node22&#45;&gt;Node28</title>
<path fill="none" stroke="midnightblue" d="M690.045,-140.583C678.714,-131.283 665.155,-120.116 653,-110 636.029,-95.8754 635.238,-86.827 615,-78 495.144,-25.7242 451.236,-67.5688 323,-42 314.73,-40.3511 306.018,-38.2501 297.622,-36.033"/>
<polygon fill="midnightblue" stroke="midnightblue" points="687.899,-143.348 697.851,-146.982 692.337,-137.935 687.899,-143.348"/>
</g>
<!-- Node29 -->
<g id="node8" class="node"><title>Node29</title>
<g id="a_node8"><a xlink:href="pi0eta_8cc.html" target="_top" xlink:title="src/analysis/physics\l/omega/pi0eta.cc">
<polygon fill="white" stroke="black" points="662,-79 662,-109 768,-109 768,-79 662,-79"/>
<text text-anchor="start" x="670" y="-97" font-family="Helvetica,sans-Serif" font-size="10.00">src/analysis/physics</text>
<text text-anchor="middle" x="715" y="-86" font-family="Helvetica,sans-Serif" font-size="10.00">/omega/pi0eta.cc</text>
</a>
</g>
</g>
<!-- Node22&#45;&gt;Node29 -->
<g id="edge7" class="edge"><title>Node22&#45;&gt;Node29</title>
<path fill="none" stroke="midnightblue" d="M715,-136.532C715,-127.361 715,-117.245 715,-109.293"/>
<polygon fill="midnightblue" stroke="midnightblue" points="711.5,-136.679 715,-146.679 718.5,-136.679 711.5,-136.679"/>
</g>
<!-- Node30 -->
<g id="node9" class="node"><title>Node30</title>
<g id="a_node9"><a xlink:href="_cut_tree_8h.html" target="_top" xlink:title="src/analysis/plot/CutTree.h">
<polygon fill="white" stroke="black" points="786,-84.5 786,-103.5 920,-103.5 920,-84.5 786,-84.5"/>
<text text-anchor="middle" x="853" y="-91.5" font-family="Helvetica,sans-Serif" font-size="10.00">src/analysis/plot/CutTree.h</text>
</a>
</g>
</g>
<!-- Node22&#45;&gt;Node30 -->
<g id="edge8" class="edge"><title>Node22&#45;&gt;Node30</title>
<path fill="none" stroke="midnightblue" d="M753.656,-142.512C780.228,-129.804 814.298,-113.51 834.847,-103.682"/>
<polygon fill="midnightblue" stroke="midnightblue" points="752.116,-139.369 744.604,-146.841 755.136,-145.684 752.116,-139.369"/>
</g>
<!-- Node41 -->
<g id="node20" class="node"><title>Node41</title>
<g id="a_node20"><a xlink:href="hadd_8cc.html" target="_top" xlink:title="src/root&#45;addons/analysis\l_codes/hadd.cc">
<polygon fill="white" stroke="black" points="938.5,-79 938.5,-109 1061.5,-109 1061.5,-79 938.5,-79"/>
<text text-anchor="start" x="946.5" y="-97" font-family="Helvetica,sans-Serif" font-size="10.00">src/root&#45;addons/analysis</text>
<text text-anchor="middle" x="1000" y="-86" font-family="Helvetica,sans-Serif" font-size="10.00">_codes/hadd.cc</text>
</a>
</g>
</g>
<!-- Node22&#45;&gt;Node41 -->
<g id="edge20" class="edge"><title>Node22&#45;&gt;Node41</title>
<path fill="none" stroke="midnightblue" d="M785.636,-144.642C832.843,-133.71 894.302,-119.477 939.303,-109.056"/>
<polygon fill="midnightblue" stroke="midnightblue" points="784.743,-141.256 775.79,-146.922 786.322,-148.076 784.743,-141.256"/>
</g>
<!-- Node42 -->
<g id="node21" class="node"><title>Node42</title>
<g id="a_node21"><a xlink:href="hstack_8cc.html" target="_top" xlink:title="src/root&#45;addons/analysis\l_codes/hstack.cc">
<polygon fill="white" stroke="black" points="1079.5,-79 1079.5,-109 1202.5,-109 1202.5,-79 1079.5,-79"/>
<text text-anchor="start" x="1087.5" y="-97" font-family="Helvetica,sans-Serif" font-size="10.00">src/root&#45;addons/analysis</text>
<text text-anchor="middle" x="1141" y="-86" font-family="Helvetica,sans-Serif" font-size="10.00">_codes/hstack.cc</text>
</a>
</g>
</g>
<!-- Node22&#45;&gt;Node42 -->
<g id="edge21" class="edge"><title>Node22&#45;&gt;Node42</title>
<path fill="none" stroke="midnightblue" d="M787.059,-152.055C858.939,-142.802 972.414,-127.299 1070,-110 1073.1,-109.45 1076.27,-108.865 1079.47,-108.256"/>
<polygon fill="midnightblue" stroke="midnightblue" points="786.237,-148.632 776.763,-153.375 787.127,-155.575 786.237,-148.632"/>
</g>
<!-- Node43 -->
<g id="node22" class="node"><title>Node43</title>
<g id="a_node22"><a xlink:href="_omega_8cc.html" target="_top" xlink:title="src/root&#45;addons/analysis\l_codes/Omega.cc">
<polygon fill="white" stroke="black" points="1220.5,-79 1220.5,-109 1343.5,-109 1343.5,-79 1220.5,-79"/>
<text text-anchor="start" x="1228.5" y="-97" font-family="Helvetica,sans-Serif" font-size="10.00">src/root&#45;addons/analysis</text>
<text text-anchor="middle" x="1282" y="-86" font-family="Helvetica,sans-Serif" font-size="10.00">_codes/Omega.cc</text>
</a>
</g>
</g>
<!-- Node22&#45;&gt;Node43 -->
<g id="edge22" class="edge"><title>Node22&#45;&gt;Node43</title>
<path fill="none" stroke="midnightblue" d="M786.997,-155.998C883.781,-148.726 1061.03,-133.485 1211,-110 1214.11,-109.513 1217.29,-108.978 1220.5,-108.409"/>
<polygon fill="midnightblue" stroke="midnightblue" points="786.456,-152.528 776.743,-156.761 786.976,-159.509 786.456,-152.528"/>
</g>
<!-- Node44 -->
<g id="node23" class="node"><title>Node44</title>
<g id="a_node23"><a xlink:href="pi0_8cc.html" target="_top" xlink:title="src/root&#45;addons/analysis\l_codes/pi0.cc">
<polygon fill="white" stroke="black" points="1361.5,-79 1361.5,-109 1484.5,-109 1484.5,-79 1361.5,-79"/>
<text text-anchor="start" x="1369.5" y="-97" font-family="Helvetica,sans-Serif" font-size="10.00">src/root&#45;addons/analysis</text>
<text text-anchor="middle" x="1423" y="-86" font-family="Helvetica,sans-Serif" font-size="10.00">_codes/pi0.cc</text>
</a>
</g>
</g>
<!-- Node22&#45;&gt;Node44 -->
<g id="edge23" class="edge"><title>Node22&#45;&gt;Node44</title>
<path fill="none" stroke="midnightblue" d="M786.809,-158.256C905.122,-153.063 1148.23,-139.558 1352,-110 1354.99,-109.566 1358.05,-109.081 1361.13,-108.56"/>
<polygon fill="midnightblue" stroke="midnightblue" points="786.626,-154.761 776.786,-158.689 786.928,-161.754 786.626,-154.761"/>
</g>
<!-- Node26 -->
<g id="node5" class="node"><title>Node26</title>
<g id="a_node5"><a xlink:href="_m_c_clustering_check_8cc.html" target="_top" xlink:title="src/analysis/physics\l/check/MCClusteringCheck.cc">
<polygon fill="white" stroke="black" points="19.5,-6 19.5,-36 170.5,-36 170.5,-6 19.5,-6"/>
<text text-anchor="start" x="27.5" y="-24" font-family="Helvetica,sans-Serif" font-size="10.00">src/analysis/physics</text>
<text text-anchor="middle" x="95" y="-13" font-family="Helvetica,sans-Serif" font-size="10.00">/check/MCClusteringCheck.cc</text>
</a>
</g>
</g>
<!-- Node25&#45;&gt;Node26 -->
<g id="edge4" class="edge"><title>Node25&#45;&gt;Node26</title>
<path fill="none" stroke="midnightblue" d="M293.759,-76.2764C249.024,-64.0605 189.038,-47.6797 146.705,-36.1195"/>
<polygon fill="midnightblue" stroke="midnightblue" points="293.064,-79.7147 303.632,-78.9727 294.908,-72.9619 293.064,-79.7147"/>
</g>
<!-- Node30&#45;&gt;Node28 -->
<g id="edge13" class="edge"><title>Node30&#45;&gt;Node28</title>
<path fill="none" stroke="midnightblue" d="M803.481,-82.4977C794.371,-80.8097 784.922,-79.2195 776,-78 575.893,-50.647 521.879,-77.1892 323,-42 314.313,-40.463 305.161,-38.3313 296.404,-36.0295"/>
<polygon fill="midnightblue" stroke="midnightblue" points="803.095,-85.9873 813.575,-84.4305 804.412,-79.1122 803.095,-85.9873"/>
</g>
<!-- Node31 -->
<g id="node10" class="node"><title>Node31</title>
<g id="a_node10"><a xlink:href="_p_i_d_efficiency_check_8cc.html" target="_top" xlink:title="src/analysis/physics\l/check/PIDEfficiencyCheck.cc">
<polygon fill="white" stroke="black" points="332,-6 332,-36 484,-36 484,-6 332,-6"/>
<text text-anchor="start" x="340" y="-24" font-family="Helvetica,sans-Serif" font-size="10.00">src/analysis/physics</text>
<text text-anchor="middle" x="408" y="-13" font-family="Helvetica,sans-Serif" font-size="10.00">/check/PIDEfficiencyCheck.cc</text>
</a>
</g>
</g>
<!-- Node30&#45;&gt;Node31 -->
<g id="edge9" class="edge"><title>Node30&#45;&gt;Node31</title>
<path fill="none" stroke="midnightblue" d="M801.944,-82.5679C793.303,-80.9417 784.408,-79.3542 776,-78 651.257,-57.9095 618.36,-64.3388 494,-42 484.495,-40.2926 474.46,-38.2143 464.731,-36.0511"/>
<polygon fill="midnightblue" stroke="midnightblue" points="801.449,-86.0365 811.929,-84.483 802.767,-79.1618 801.449,-86.0365"/>
</g>
<!-- Node32 -->
<g id="node11" class="node"><title>Node32</title>
<g id="a_node11"><a xlink:href="_meson_dalitz_decays__plot_8cc.html" target="_top" xlink:title="src/analysis/physics\l/common/MesonDalitzDecays\l_plot.cc">
<polygon fill="white" stroke="black" points="502.5,-0.5 502.5,-41.5 651.5,-41.5 651.5,-0.5 502.5,-0.5"/>
<text text-anchor="start" x="510.5" y="-29.5" font-family="Helvetica,sans-Serif" font-size="10.00">src/analysis/physics</text>
<text text-anchor="start" x="510.5" y="-18.5" font-family="Helvetica,sans-Serif" font-size="10.00">/common/MesonDalitzDecays</text>
<text text-anchor="middle" x="577" y="-7.5" font-family="Helvetica,sans-Serif" font-size="10.00">_plot.cc</text>
</a>
</g>
</g>
<!-- Node30&#45;&gt;Node32 -->
<g id="edge10" class="edge"><title>Node30&#45;&gt;Node32</title>
<path fill="none" stroke="midnightblue" d="M810.014,-81.9421C767.779,-71.0772 702.466,-54.2758 651.723,-41.2222"/>
<polygon fill="midnightblue" stroke="midnightblue" points="809.151,-85.334 819.708,-84.4357 810.895,-78.5547 809.151,-85.334"/>
</g>
<!-- Node33 -->
<g id="node12" class="node"><title>Node33</title>
<g id="a_node12"><a xlink:href="_etap_dalitz__plot_8cc.html" target="_top" xlink:title="src/analysis/physics\l/etaprime/EtapDalitz\l_plot.cc">
<polygon fill="white" stroke="black" points="669,-0.5 669,-41.5 775,-41.5 775,-0.5 669,-0.5"/>
<text text-anchor="start" x="677" y="-29.5" font-family="Helvetica,sans-Serif" font-size="10.00">src/analysis/physics</text>
<text text-anchor="start" x="677" y="-18.5" font-family="Helvetica,sans-Serif" font-size="10.00">/etaprime/EtapDalitz</text>
<text text-anchor="middle" x="722" y="-7.5" font-family="Helvetica,sans-Serif" font-size="10.00">_plot.cc</text>
</a>
</g>
</g>
<!-- Node30&#45;&gt;Node33 -->
<g id="edge11" class="edge"><title>Node30&#45;&gt;Node33</title>
<path fill="none" stroke="midnightblue" d="M828.206,-79.5621C808.421,-68.8387 780.426,-53.6658 758.144,-41.5897"/>
<polygon fill="midnightblue" stroke="midnightblue" points="826.739,-82.7478 837.198,-84.4357 830.074,-76.5936 826.739,-82.7478"/>
</g>
<!-- Node34 -->
<g id="node13" class="node"><title>Node34</title>
<g id="a_node13"><a xlink:href="_etap_omega_g__plot_8cc.html" target="_top" xlink:title="src/analysis/physics\l/etaprime/EtapOmegaG\l_plot.cc">
<polygon fill="white" stroke="black" points="793.5,-0.5 793.5,-41.5 912.5,-41.5 912.5,-0.5 793.5,-0.5"/>
<text text-anchor="start" x="801.5" y="-29.5" font-family="Helvetica,sans-Serif" font-size="10.00">src/analysis/physics</text>
<text text-anchor="start" x="801.5" y="-18.5" font-family="Helvetica,sans-Serif" font-size="10.00">/etaprime/EtapOmegaG</text>
<text text-anchor="middle" x="853" y="-7.5" font-family="Helvetica,sans-Serif" font-size="10.00">_plot.cc</text>
</a>
</g>
</g>
<!-- Node30&#45;&gt;Node34 -->
<g id="edge12" class="edge"><title>Node30&#45;&gt;Node34</title>
<path fill="none" stroke="midnightblue" d="M853,-74.1418C853,-64.0662 853,-51.679 853,-41.5067"/>
<polygon fill="midnightblue" stroke="midnightblue" points="849.5,-74.294 853,-84.294 856.5,-74.294 849.5,-74.294"/>
</g>
<!-- Node35 -->
<g id="node14" class="node"><title>Node35</title>
<g id="a_node14"><a xlink:href="sigma_plus_8cc.html" target="_top" xlink:title="src/analysis/physics\l/production/sigmaPlus.cc">
<polygon fill="white" stroke="black" points="930.5,-6 930.5,-36 1057.5,-36 1057.5,-6 930.5,-6"/>
<text text-anchor="start" x="938.5" y="-24" font-family="Helvetica,sans-Serif" font-size="10.00">src/analysis/physics</text>
<text text-anchor="middle" x="994" y="-13" font-family="Helvetica,sans-Serif" font-size="10.00">/production/sigmaPlus.cc</text>
</a>
</g>
</g>
<!-- Node30&#45;&gt;Node35 -->
<g id="edge14" class="edge"><title>Node30&#45;&gt;Node35</title>
<path fill="none" stroke="midnightblue" d="M879.134,-79.8402C903.813,-67.4131 940.712,-48.8331 965.988,-36.1052"/>
<polygon fill="midnightblue" stroke="midnightblue" points="877.365,-76.8122 870.008,-84.4357 880.514,-83.0643 877.365,-76.8122"/>
</g>
<!-- Node36 -->
<g id="node15" class="node"><title>Node36</title>
<g id="a_node15"><a xlink:href="sigma_plus_plots_8cc.html" target="_top" xlink:title="src/analysis/physics\l/production/sigmaPlusPlots.cc">
<polygon fill="white" stroke="black" points="1075.5,-6 1075.5,-36 1224.5,-36 1224.5,-6 1075.5,-6"/>
<text text-anchor="start" x="1083.5" y="-24" font-family="Helvetica,sans-Serif" font-size="10.00">src/analysis/physics</text>
<text text-anchor="middle" x="1150" y="-13" font-family="Helvetica,sans-Serif" font-size="10.00">/production/sigmaPlusPlots.cc</text>
</a>
</g>
</g>
<!-- Node30&#45;&gt;Node36 -->
<g id="edge15" class="edge"><title>Node30&#45;&gt;Node36</title>
<path fill="none" stroke="midnightblue" d="M898.712,-82.0722C950.411,-69.7131 1034.74,-49.5542 1091.27,-36.0387"/>
<polygon fill="midnightblue" stroke="midnightblue" points="897.737,-78.7065 888.825,-84.4357 899.365,-85.5147 897.737,-78.7065"/>
</g>
<!-- Node37 -->
<g id="node16" class="node"><title>Node37</title>
<g id="a_node16"><a xlink:href="single_pi0_plots_8cc.html" target="_top" xlink:title="src/analysis/physics\l/production/singlePi0Plots.cc">
<polygon fill="white" stroke="black" points="1242.5,-6 1242.5,-36 1385.5,-36 1385.5,-6 1242.5,-6"/>
<text text-anchor="start" x="1250.5" y="-24" font-family="Helvetica,sans-Serif" font-size="10.00">src/analysis/physics</text>
<text text-anchor="middle" x="1314" y="-13" font-family="Helvetica,sans-Serif" font-size="10.00">/production/singlePi0Plots.cc</text>
</a>
</g>
</g>
<!-- Node30&#45;&gt;Node37 -->
<g id="edge16" class="edge"><title>Node30&#45;&gt;Node37</title>
<path fill="none" stroke="midnightblue" d="M903.748,-82.5609C912.484,-80.9224 921.489,-79.3326 930,-78 1063.98,-57.0202 1099.58,-66.3008 1233,-42 1242.12,-40.3388 1251.74,-38.2583 1261.05,-36.0718"/>
<polygon fill="midnightblue" stroke="midnightblue" points="902.824,-79.1743 893.661,-84.4943 904.141,-86.0491 902.824,-79.1743"/>
</g>
<!-- Node38 -->
<g id="node17" class="node"><title>Node38</title>
<g id="a_node17"><a xlink:href="triple_pi0_8cc.html" target="_top" xlink:title="src/analysis/physics\l/production/triplePi0.cc">
<polygon fill="white" stroke="black" points="1404,-6 1404,-36 1520,-36 1520,-6 1404,-6"/>
<text text-anchor="start" x="1412" y="-24" font-family="Helvetica,sans-Serif" font-size="10.00">src/analysis/physics</text>
<text text-anchor="middle" x="1462" y="-13" font-family="Helvetica,sans-Serif" font-size="10.00">/production/triplePi0.cc</text>
</a>
</g>
</g>
<!-- Node30&#45;&gt;Node38 -->
<g id="edge17" class="edge"><title>Node30&#45;&gt;Node38</title>
<path fill="none" stroke="midnightblue" d="M901.92,-82.5946C911.214,-80.8668 920.882,-79.2377 930,-78 1134.96,-50.1788 1190.56,-79.3851 1394,-42 1402.23,-40.4876 1410.89,-38.3675 1419.16,-36.0693"/>
<polygon fill="midnightblue" stroke="midnightblue" points="901.188,-79.1712 892.027,-84.4943 902.508,-86.0457 901.188,-79.1712"/>
</g>
<!-- Node39 -->
<g id="node18" class="node"><title>Node39</title>
<g id="a_node18"><a xlink:href="triple_pi0_plots_8cc.html" target="_top" xlink:title="src/analysis/physics\l/production/triplePi0Plots.cc">
<polygon fill="white" stroke="black" points="1538.5,-6 1538.5,-36 1677.5,-36 1677.5,-6 1538.5,-6"/>
<text text-anchor="start" x="1546.5" y="-24" font-family="Helvetica,sans-Serif" font-size="10.00">src/analysis/physics</text>
<text text-anchor="middle" x="1608" y="-13" font-family="Helvetica,sans-Serif" font-size="10.00">/production/triplePi0Plots.cc</text>
</a>
</g>
</g>
<!-- Node30&#45;&gt;Node39 -->
<g id="edge18" class="edge"><title>Node30&#45;&gt;Node39</title>
<path fill="none" stroke="midnightblue" d="M901.601,-82.5223C910.988,-80.7853 920.772,-79.1713 930,-78 1194.14,-44.4709 1264.83,-82.4613 1528,-42 1537.76,-40.4989 1548.08,-38.354 1557.93,-36.0215"/>
<polygon fill="midnightblue" stroke="midnightblue" points="900.776,-79.1167 891.615,-84.4404 902.096,-85.9911 900.776,-79.1167"/>
</g>
<!-- Node40 -->
<g id="node19" class="node"><title>Node40</title>
<g id="a_node19"><a xlink:href="physics_2tunings_2_trigger_simulation_8cc.html" target="_top" xlink:title="src/analysis/physics\l/tunings/TriggerSimulation.cc">
<polygon fill="white" stroke="black" points="1695.5,-6 1695.5,-36 1838.5,-36 1838.5,-6 1695.5,-6"/>
<text text-anchor="start" x="1703.5" y="-24" font-family="Helvetica,sans-Serif" font-size="10.00">src/analysis/physics</text>
<text text-anchor="middle" x="1767" y="-13" font-family="Helvetica,sans-Serif" font-size="10.00">/tunings/TriggerSimulation.cc</text>
</a>
</g>
</g>
<!-- Node30&#45;&gt;Node40 -->
<g id="edge19" class="edge"><title>Node30&#45;&gt;Node40</title>
<path fill="none" stroke="midnightblue" d="M901.286,-82.4847C910.767,-80.7345 920.666,-79.1254 930,-78 1263.96,-37.7347 1353.14,-90.547 1686,-42 1696.03,-40.5367 1706.64,-38.3782 1716.75,-36.0142"/>
<polygon fill="midnightblue" stroke="midnightblue" points="900.369,-79.097 891.21,-84.423 901.691,-85.971 900.369,-79.097"/>
</g>
</g>
</svg>
