<?xml version="1.0" encoding="UTF-8" standalone="no"?>
<!DOCTYPE svg PUBLIC "-//W3C//DTD SVG 1.1//EN"
 "http://www.w3.org/Graphics/SVG/1.1/DTD/svg11.dtd">
<!-- Generated by graphviz version 2.36.0 (20140111.2315)
 -->
<!-- Title: Graphical Class Hierarchy Pages: 1 -->
<svg width="478pt" height="474pt"
 viewBox="0.00 0.00 478.00 474.00" xmlns="http://www.w3.org/2000/svg" xmlns:xlink="http://www.w3.org/1999/xlink">
<g id="graph0" class="graph" transform="scale(1 1) rotate(0) translate(4 470)">
<title>Graphical Class Hierarchy</title>
<polygon fill="white" stroke="none" points="-4,4 -4,-470 474,-470 474,4 -4,4"/>
<!-- Node0 -->
<g id="node1" class="node"><title>Node0</title>
<g id="a_node1"><a xlink:href="classant_1_1analysis_1_1_plotter.html" target="_top" xlink:title="ant::analysis::Plotter">
<polygon fill="white" stroke="black" points="0.5,-190.5 0.5,-209.5 107.5,-209.5 107.5,-190.5 0.5,-190.5"/>
<text text-anchor="middle" x="54" y="-197.5" font-family="Helvetica,sans-Serif" font-size="10.00">ant::analysis::Plotter</text>
</a>
</g>
</g>
<!-- Node1 -->
<g id="node2" class="node"><title>Node1</title>
<g id="a_node2"><a xlink:href="classant_1_1analysis_1_1physics_1_1_tree_plotter_base__t.html" target="_top" xlink:title="ant::analysis::physics\l::TreePlotterBase_t\&lt; WrapTree \&gt;">
<polygon fill="white" stroke="black" points="144,-381 144,-411 306,-411 306,-381 144,-381"/>
<text text-anchor="start" x="152" y="-399" font-family="Helvetica,sans-Serif" font-size="10.00">ant::analysis::physics</text>
<text text-anchor="middle" x="225" y="-388" font-family="Helvetica,sans-Serif" font-size="10.00">::TreePlotterBase_t&lt; WrapTree &gt;</text>
</a>
</g>
</g>
<!-- Node0&#45;&gt;Node1 -->
<g id="edge1" class="edge"><title>Node0&#45;&gt;Node1</title>
<path fill="none" stroke="midnightblue" d="M59.912,-219.877C69.7266,-255.452 95.1365,-330.101 144,-371 148.575,-374.829 153.737,-378.073 159.179,-380.821"/>
<polygon fill="midnightblue" stroke="midnightblue" points="63.1889,-218.575 57.2635,-209.792 56.4184,-220.353 63.1889,-218.575"/>
</g>
<!-- Node5 -->
<g id="node6" class="node"><title>Node5</title>
<g id="a_node6"><a xlink:href="struct_etap_dalitz__plot.html" target="_top" xlink:title="EtapDalitz_plot\&lt; Hist_t \&gt;">
<polygon fill="white" stroke="black" points="161,-342.5 161,-361.5 289,-361.5 289,-342.5 161,-342.5"/>
<text text-anchor="middle" x="225" y="-349.5" font-family="Helvetica,sans-Serif" font-size="10.00">EtapDalitz_plot&lt; Hist_t &gt;</text>
</a>
</g>
</g>
<!-- Node0&#45;&gt;Node5 -->
<g id="edge5" class="edge"><title>Node0&#45;&gt;Node5</title>
<path fill="none" stroke="midnightblue" d="M62.3029,-218.976C74.5652,-248.21 102.136,-303.919 144,-333 149.628,-336.909 155.957,-340.02 162.528,-342.495"/>
<polygon fill="midnightblue" stroke="midnightblue" points="65.4677,-217.466 58.4797,-209.502 58.9763,-220.085 65.4677,-217.466"/>
</g>
<!-- Node6 -->
<g id="node7" class="node"><title>Node6</title>
<g id="a_node7"><a xlink:href="struct_etap_omega_g__plot.html" target="_top" xlink:title="EtapOmegaG_plot">
<polygon fill="white" stroke="black" points="176.5,-304.5 176.5,-323.5 273.5,-323.5 273.5,-304.5 176.5,-304.5"/>
<text text-anchor="middle" x="225" y="-311.5" font-family="Helvetica,sans-Serif" font-size="10.00">EtapOmegaG_plot</text>
</a>
</g>
</g>
<!-- Node0&#45;&gt;Node6 -->
<g id="edge6" class="edge"><title>Node0&#45;&gt;Node6</title>
<path fill="none" stroke="midnightblue" d="M66.73,-217.862C81.9236,-239.527 110.472,-275.554 144,-295 153.755,-300.658 165.108,-304.633 176.144,-307.426"/>
<polygon fill="midnightblue" stroke="midnightblue" points="69.5857,-215.838 61.0605,-209.547 63.8021,-219.781 69.5857,-215.838"/>
</g>
<!-- Node9 -->
<g id="node10" class="node"><title>Node9</title>
<g id="a_node10"><a xlink:href="struct_meson_dalitz_decays__plot.html" target="_top" xlink:title="MesonDalitzDecays_plot">
<polygon fill="white" stroke="black" points="162,-266.5 162,-285.5 288,-285.5 288,-266.5 162,-266.5"/>
<text text-anchor="middle" x="225" y="-273.5" font-family="Helvetica,sans-Serif" font-size="10.00">MesonDalitzDecays_plot</text>
</a>
</g>
</g>
<!-- Node0&#45;&gt;Node9 -->
<g id="edge9" class="edge"><title>Node0&#45;&gt;Node9</title>
<path fill="none" stroke="midnightblue" d="M75.1527,-215.726C92.5072,-228.555 118.686,-246.255 144,-257 152.936,-260.793 162.769,-263.911 172.392,-266.446"/>
<polygon fill="midnightblue" stroke="midnightblue" points="77.0238,-212.753 66.9331,-209.524 72.8075,-218.341 77.0238,-212.753"/>
</g>
<!-- Node10 -->
<g id="node11" class="node"><title>Node10</title>
<g id="a_node11"><a xlink:href="class_omega_eta_g___plot.html" target="_top" xlink:title="Plot Class for the Omega_EtaG analysis. ">
<polygon fill="white" stroke="black" points="178.5,-228.5 178.5,-247.5 271.5,-247.5 271.5,-228.5 178.5,-228.5"/>
<text text-anchor="middle" x="225" y="-235.5" font-family="Helvetica,sans-Serif" font-size="10.00">OmegaEtaG_Plot</text>
</a>
</g>
</g>
<!-- Node0&#45;&gt;Node10 -->
<g id="edge10" class="edge"><title>Node0&#45;&gt;Node10</title>
<path fill="none" stroke="midnightblue" d="M107.587,-211.824C131.413,-217.182 159.207,-223.431 181.661,-228.48"/>
<polygon fill="midnightblue" stroke="midnightblue" points="108.17,-208.368 97.6458,-209.589 106.634,-215.198 108.17,-208.368"/>
</g>
<!-- Node11 -->
<g id="node12" class="node"><title>Node11</title>
<g id="a_node12"><a xlink:href="struct_p_i_d_efficiency_check__plot.html" target="_top" xlink:title="PIDEfficiencyCheck_plot">
<polygon fill="white" stroke="black" points="161.5,-190.5 161.5,-209.5 288.5,-209.5 288.5,-190.5 161.5,-190.5"/>
<text text-anchor="middle" x="225" y="-197.5" font-family="Helvetica,sans-Serif" font-size="10.00">PIDEfficiencyCheck_plot</text>
</a>
</g>
</g>
<!-- Node0&#45;&gt;Node11 -->
<g id="edge11" class="edge"><title>Node0&#45;&gt;Node11</title>
<path fill="none" stroke="midnightblue" d="M117.746,-200C132.004,-200 147.149,-200 161.401,-200"/>
<polygon fill="midnightblue" stroke="midnightblue" points="117.546,-196.5 107.546,-200 117.546,-203.5 117.546,-196.5"/>
</g>
<!-- Node12 -->
<g id="node13" class="node"><title>Node12</title>
<g id="a_node13"><a xlink:href="classsigma_plus___final_plot.html" target="_top" xlink:title="sigmaPlus_FinalPlot">
<polygon fill="white" stroke="black" points="172,-152.5 172,-171.5 278,-171.5 278,-152.5 172,-152.5"/>
<text text-anchor="middle" x="225" y="-159.5" font-family="Helvetica,sans-Serif" font-size="10.00">sigmaPlus_FinalPlot</text>
</a>
</g>
</g>
<!-- Node0&#45;&gt;Node12 -->
<g id="edge12" class="edge"><title>Node0&#45;&gt;Node12</title>
<path fill="none" stroke="midnightblue" d="M107.587,-188.176C131.413,-182.818 159.207,-176.569 181.661,-171.52"/>
<polygon fill="midnightblue" stroke="midnightblue" points="106.634,-184.802 97.6458,-190.411 108.17,-191.632 106.634,-184.802"/>
</g>
<!-- Node13 -->
<g id="node14" class="node"><title>Node13</title>
<g id="a_node14"><a xlink:href="classsigma_plus___plot.html" target="_top" xlink:title="sigmaPlus_Plot">
<polygon fill="white" stroke="black" points="182.5,-114.5 182.5,-133.5 267.5,-133.5 267.5,-114.5 182.5,-114.5"/>
<text text-anchor="middle" x="225" y="-121.5" font-family="Helvetica,sans-Serif" font-size="10.00">sigmaPlus_Plot</text>
</a>
</g>
</g>
<!-- Node0&#45;&gt;Node13 -->
<g id="edge13" class="edge"><title>Node0&#45;&gt;Node13</title>
<path fill="none" stroke="midnightblue" d="M75.1527,-184.274C92.5072,-171.445 118.686,-153.745 144,-143 156.089,-137.869 169.821,-133.972 182.454,-131.084"/>
<polygon fill="midnightblue" stroke="midnightblue" points="72.8075,-181.659 66.9331,-190.476 77.0238,-187.247 72.8075,-181.659"/>
</g>
<!-- Node14 -->
<g id="node15" class="node"><title>Node14</title>
<g id="a_node15"><a xlink:href="classsingle_pi0___plot.html" target="_top" xlink:title="singlePi0_Plot">
<polygon fill="white" stroke="black" points="185.5,-76.5 185.5,-95.5 264.5,-95.5 264.5,-76.5 185.5,-76.5"/>
<text text-anchor="middle" x="225" y="-83.5" font-family="Helvetica,sans-Serif" font-size="10.00">singlePi0_Plot</text>
</a>
</g>
</g>
<!-- Node0&#45;&gt;Node14 -->
<g id="edge14" class="edge"><title>Node0&#45;&gt;Node14</title>
<path fill="none" stroke="midnightblue" d="M66.73,-182.138C81.9236,-160.473 110.472,-124.446 144,-105 156.472,-97.7662 171.555,-93.2829 185.248,-90.5057"/>
<polygon fill="midnightblue" stroke="midnightblue" points="63.8021,-180.219 61.0605,-190.453 69.5857,-184.162 63.8021,-180.219"/>
</g>
<!-- Node15 -->
<g id="node16" class="node"><title>Node15</title>
<g id="a_node16"><a xlink:href="struct_trigger_simulation__plot.html" target="_top" xlink:title="TriggerSimulation_plot">
<polygon fill="white" stroke="black" points="168.5,-38.5 168.5,-57.5 281.5,-57.5 281.5,-38.5 168.5,-38.5"/>
<text text-anchor="middle" x="225" y="-45.5" font-family="Helvetica,sans-Serif" font-size="10.00">TriggerSimulation_plot</text>
</a>
</g>
</g>
<!-- Node0&#45;&gt;Node15 -->
<g id="edge15" class="edge"><title>Node0&#45;&gt;Node15</title>
<path fill="none" stroke="midnightblue" d="M62.3029,-181.024C74.5652,-151.79 102.136,-96.0806 144,-67 151.269,-61.9507 159.709,-58.2327 168.328,-55.4973"/>
<polygon fill="midnightblue" stroke="midnightblue" points="58.9763,-179.915 58.4797,-190.498 65.4677,-182.534 58.9763,-179.915"/>
</g>
<!-- Node16 -->
<g id="node17" class="node"><title>Node16</title>
<g id="a_node17"><a xlink:href="classtriple_pi0___plot.html" target="_top" xlink:title="triplePi0_Plot">
<polygon fill="white" stroke="black" points="188,-0.5 188,-19.5 262,-19.5 262,-0.5 188,-0.5"/>
<text text-anchor="middle" x="225" y="-7.5" font-family="Helvetica,sans-Serif" font-size="10.00">triplePi0_Plot</text>
</a>
</g>
</g>
<!-- Node0&#45;&gt;Node16 -->
<g id="edge16" class="edge"><title>Node0&#45;&gt;Node16</title>
<path fill="none" stroke="midnightblue" d="M59.5048,-180.293C68.7775,-144.379 93.5028,-68.3568 144,-29 156.385,-19.347 172.898,-14.4816 187.703,-12.0716"/>
<polygon fill="midnightblue" stroke="midnightblue" points="55.9975,-179.902 57.0241,-190.447 62.7975,-181.564 55.9975,-179.902"/>
</g>
<!-- Node2 -->
<g id="node3" class="node"><title>Node2</title>
<g id="a_node3"><a xlink:href="classant_1_1analysis_1_1physics_1_1_detection_effciency_base__t.html" target="_top" xlink:title="ant::analysis::physics\l::DetectionEffciencyBase\l_t\&lt; WrapTree \&gt;">
<polygon fill="white" stroke="black" points="342,-424.5 342,-465.5 470,-465.5 470,-424.5 342,-424.5"/>
<text text-anchor="start" x="350" y="-453.5" font-family="Helvetica,sans-Serif" font-size="10.00">ant::analysis::physics</text>
<text text-anchor="start" x="350" y="-442.5" font-family="Helvetica,sans-Serif" font-size="10.00">::DetectionEffciencyBase</text>
<text text-anchor="middle" x="406" y="-431.5" font-family="Helvetica,sans-Serif" font-size="10.00">_t&lt; WrapTree &gt;</text>
</a>
</g>
</g>
<!-- Node1&#45;&gt;Node2 -->
<g id="edge2" class="edge"><title>Node1&#45;&gt;Node2</title>
<path fill="none" stroke="midnightblue" d="M291.269,-413.867C307.778,-418.386 325.476,-423.231 341.877,-427.72"/>
<polygon fill="midnightblue" stroke="midnightblue" points="291.736,-410.366 281.166,-411.101 289.888,-417.118 291.736,-410.366"/>
</g>
<!-- Node3 -->
<g id="node4" class="node"><title>Node3</title>
<g id="a_node4"><a xlink:href="classsigma_plus___test.html" target="_top" xlink:title="sigmaPlus_Test">
<polygon fill="white" stroke="black" points="362.5,-386.5 362.5,-405.5 449.5,-405.5 449.5,-386.5 362.5,-386.5"/>
<text text-anchor="middle" x="406" y="-393.5" font-family="Helvetica,sans-Serif" font-size="10.00">sigmaPlus_Test</text>
</a>
</g>
</g>
<!-- Node1&#45;&gt;Node3 -->
<g id="edge3" class="edge"><title>Node1&#45;&gt;Node3</title>
<path fill="none" stroke="midnightblue" d="M316.094,-396C332.207,-396 348.294,-396 362.267,-396"/>
<polygon fill="midnightblue" stroke="midnightblue" points="316.076,-392.5 306.076,-396 316.076,-399.5 316.076,-392.5"/>
</g>
<!-- Node4 -->
<g id="node5" class="node"><title>Node4</title>
<g id="a_node5"><a xlink:href="classtriple_pi0___test.html" target="_top" xlink:title="triplePi0_Test">
<polygon fill="white" stroke="black" points="367.5,-348.5 367.5,-367.5 444.5,-367.5 444.5,-348.5 367.5,-348.5"/>
<text text-anchor="middle" x="406" y="-355.5" font-family="Helvetica,sans-Serif" font-size="10.00">triplePi0_Test</text>
</a>
</g>
</g>
<!-- Node1&#45;&gt;Node4 -->
<g id="edge4" class="edge"><title>Node1&#45;&gt;Node4</title>
<path fill="none" stroke="midnightblue" d="M306.693,-378.87C327.773,-374.395 349.511,-369.78 367.169,-366.031"/>
<polygon fill="midnightblue" stroke="midnightblue" points="305.801,-375.481 296.746,-380.981 307.254,-382.328 305.801,-375.481"/>
</g>
<!-- Node7 -->
<g id="node8" class="node"><title>Node7</title>
<g id="a_node8"><a xlink:href="struct_etap_omega_g__plot___ref.html" target="_top" xlink:title="EtapOmegaG_plot_Ref">
<polygon fill="white" stroke="black" points="347,-307.5 347,-326.5 465,-326.5 465,-307.5 347,-307.5"/>
<text text-anchor="middle" x="406" y="-314.5" font-family="Helvetica,sans-Serif" font-size="10.00">EtapOmegaG_plot_Ref</text>
</a>
</g>
</g>
<!-- Node6&#45;&gt;Node7 -->
<g id="edge7" class="edge"><title>Node6&#45;&gt;Node7</title>
<path fill="none" stroke="midnightblue" d="M284.198,-314.975C304.226,-315.311 326.646,-315.687 346.683,-316.023"/>
<polygon fill="midnightblue" stroke="midnightblue" points="284.026,-311.472 273.969,-314.804 283.909,-318.471 284.026,-311.472"/>
</g>
<!-- Node8 -->
<g id="node9" class="node"><title>Node8</title>
<g id="a_node9"><a xlink:href="struct_etap_omega_g__plot___sig.html" target="_top" xlink:title="EtapOmegaG_plot_Sig">
<polygon fill="white" stroke="black" points="348,-269.5 348,-288.5 464,-288.5 464,-269.5 348,-269.5"/>
<text text-anchor="middle" x="406" y="-276.5" font-family="Helvetica,sans-Serif" font-size="10.00">EtapOmegaG_plot_Sig</text>
</a>
</g>
</g>
<!-- Node6&#45;&gt;Node8 -->
<g id="edge8" class="edge"><title>Node6&#45;&gt;Node8</title>
<path fill="none" stroke="midnightblue" d="M284.084,-302.643C307.405,-298.083 333.986,-292.885 356.276,-288.527"/>
<polygon fill="midnightblue" stroke="midnightblue" points="283.111,-299.267 273.969,-304.621 284.455,-306.137 283.111,-299.267"/>
</g>
</g>
</svg>
