<?xml version="1.0" encoding="UTF-8" standalone="no"?>
<!DOCTYPE svg PUBLIC "-//W3C//DTD SVG 1.1//EN"
 "http://www.w3.org/Graphics/SVG/1.1/DTD/svg11.dtd">
<!-- Generated by graphviz version 2.36.0 (20140111.2315)
 -->
<!-- Title: Graphical Class Hierarchy Pages: 1 -->
<svg width="268pt" height="648pt"
 viewBox="0.00 0.00 268.00 648.00" xmlns="http://www.w3.org/2000/svg" xmlns:xlink="http://www.w3.org/1999/xlink">
<g id="graph0" class="graph" transform="scale(1 1) rotate(0) translate(4 644)">
<title>Graphical Class Hierarchy</title>
<polygon fill="white" stroke="none" points="-4,4 -4,-644 264,-644 264,4 -4,4"/>
<!-- Node715 -->
<g id="node1" class="node"><title>Node715</title>
<g id="a_node1"><a xlink:title="STL class. ">
<polygon fill="white" stroke="#bfbfbf" points="0.5,-309.5 0.5,-328.5 73.5,-328.5 73.5,-309.5 0.5,-309.5"/>
<text text-anchor="middle" x="37" y="-316.5" font-family="Helvetica,sans-Serif" font-size="10.00">std::list&lt; T &gt;</text>
</a>
</g>
</g>
<!-- Node0 -->
<g id="node2" class="node"><title>Node0</title>
<g id="a_node2"><a xlink:href="structant_1_1analysis_1_1utils_1_1_proton_photon_combs_1_1_combinations__t.html" target="_top" xlink:title="The Combinations_t struct manages the available proton/photon combinations as a whole. ">
<polygon fill="white" stroke="black" points="125.5,-598.5 125.5,-639.5 244.5,-639.5 244.5,-598.5 125.5,-598.5"/>
<text text-anchor="start" x="133.5" y="-627.5" font-family="Helvetica,sans-Serif" font-size="10.00">ant::analysis::utils</text>
<text text-anchor="start" x="133.5" y="-616.5" font-family="Helvetica,sans-Serif" font-size="10.00">::ProtonPhotonCombs::</text>
<text text-anchor="middle" x="185" y="-605.5" font-family="Helvetica,sans-Serif" font-size="10.00">Combinations_t</text>
</a>
</g>
</g>
<!-- Node715&#45;&gt;Node0 -->
<g id="edge1" class="edge"><title>Node715&#45;&gt;Node0</title>
<path fill="none" stroke="midnightblue" d="M37.6771,-338.826C37.9497,-387.41 45.2356,-513.831 110,-588 114.306,-592.931 119.525,-597.097 125.177,-600.611"/>
<polygon fill="midnightblue" stroke="midnightblue" points="41.1775,-338.725 37.7208,-328.71 34.1776,-338.694 41.1775,-338.725"/>
</g>
<!-- Node717 -->
<g id="node3" class="node"><title>Node717</title>
<g id="a_node3"><a xlink:href="structant_1_1calibration_1_1gui_1_1_avg_buffer___savitzky_golay_1_1buffer__t.html" target="_top" xlink:title="ant::calibration::gui\l::AvgBuffer_SavitzkyGolay\l\&lt; AvgBufferItem \&gt;::buffer_t">
<polygon fill="white" stroke="black" points="116.5,-538.5 116.5,-579.5 253.5,-579.5 253.5,-538.5 116.5,-538.5"/>
<text text-anchor="start" x="124.5" y="-567.5" font-family="Helvetica,sans-Serif" font-size="10.00">ant::calibration::gui</text>
<text text-anchor="start" x="124.5" y="-556.5" font-family="Helvetica,sans-Serif" font-size="10.00">::AvgBuffer_SavitzkyGolay</text>
<text text-anchor="middle" x="185" y="-545.5" font-family="Helvetica,sans-Serif" font-size="10.00">&lt; AvgBufferItem &gt;::buffer_t</text>
</a>
</g>
</g>
<!-- Node715&#45;&gt;Node717 -->
<g id="edge2" class="edge"><title>Node715&#45;&gt;Node717</title>
<path fill="none" stroke="midnightblue" d="M39.4215,-338.831C43.3745,-379.684 57.9304,-473.993 110,-529 113.335,-532.524 117.142,-535.645 121.229,-538.407"/>
<polygon fill="midnightblue" stroke="midnightblue" points="42.9035,-338.469 38.5654,-328.803 35.9288,-339.065 42.9035,-338.469"/>
</g>
<!-- Node718 -->
<g id="node4" class="node"><title>Node718</title>
<g id="a_node4"><a xlink:href="class_dir_list.html" target="_top" xlink:title="DirList">
<polygon fill="white" stroke="black" points="162.5,-500.5 162.5,-519.5 207.5,-519.5 207.5,-500.5 162.5,-500.5"/>
<text text-anchor="middle" x="185" y="-507.5" font-family="Helvetica,sans-Serif" font-size="10.00">DirList</text>
</a>
</g>
</g>
<!-- Node715&#45;&gt;Node718 -->
<g id="edge3" class="edge"><title>Node715&#45;&gt;Node718</title>
<path fill="none" stroke="midnightblue" d="M40.6628,-338.985C46.5033,-374.732 63.8162,-449.647 110,-490 124.431,-502.609 146.041,-507.361 162.188,-509.106"/>
<polygon fill="midnightblue" stroke="midnightblue" points="44.0876,-338.221 39.1476,-328.848 37.1645,-339.256 44.0876,-338.221"/>
</g>
<!-- Node719 -->
<g id="node5" class="node"><title>Node719</title>
<g id="a_node5"><a xlink:href="struct_hist__t_1_1_hist_mgr.html" target="_top" xlink:title="Hist_t\&lt; Tree_t \&gt;::HistMgr\l\&lt; Hist \&gt;">
<polygon fill="white" stroke="black" points="120.5,-451 120.5,-481 249.5,-481 249.5,-451 120.5,-451"/>
<text text-anchor="start" x="128.5" y="-469" font-family="Helvetica,sans-Serif" font-size="10.00">Hist_t&lt; Tree_t &gt;::HistMgr</text>
<text text-anchor="middle" x="185" y="-458" font-family="Helvetica,sans-Serif" font-size="10.00">&lt; Hist &gt;</text>
</a>
</g>
</g>
<!-- Node715&#45;&gt;Node719 -->
<g id="edge4" class="edge"><title>Node715&#45;&gt;Node719</title>
<path fill="none" stroke="midnightblue" d="M44.4571,-338.245C54.3973,-365.03 75.9447,-413.364 110,-441 114.738,-444.845 120.097,-448.111 125.713,-450.882"/>
<polygon fill="midnightblue" stroke="midnightblue" points="47.7537,-337.069 41.11,-328.816 41.157,-339.411 47.7537,-337.069"/>
</g>
<!-- Node720 -->
<g id="node6" class="node"><title>Node720</title>
<g id="a_node6"><a xlink:href="structtriple_pi0___plot_1_1_triple_pi0_hist__t_1_1_hist_mgr.html" target="_top" xlink:title="triplePi0_Plot::TriplePi0\lHist_t::HistMgr\&lt; TH1D \&gt;">
<polygon fill="white" stroke="black" points="121,-402 121,-432 249,-432 249,-402 121,-402"/>
<text text-anchor="start" x="129" y="-420" font-family="Helvetica,sans-Serif" font-size="10.00">triplePi0_Plot::TriplePi0</text>
<text text-anchor="middle" x="185" y="-409" font-family="Helvetica,sans-Serif" font-size="10.00">Hist_t::HistMgr&lt; TH1D &gt;</text>
</a>
</g>
</g>
<!-- Node715&#45;&gt;Node720 -->
<g id="edge5" class="edge"><title>Node715&#45;&gt;Node720</title>
<path fill="none" stroke="midnightblue" d="M51.7914,-337.21C65.0793,-353.615 86.5714,-377.343 110,-392 116.093,-395.812 122.835,-399.117 129.696,-401.962"/>
<polygon fill="midnightblue" stroke="midnightblue" points="54.228,-334.646 45.293,-328.953 48.7272,-338.976 54.228,-334.646"/>
</g>
<!-- Node721 -->
<g id="node7" class="node"><title>Node721</title>
<g id="a_node7"><a xlink:href="structtriple_pi0___plot_1_1_triple_pi0_hist__t_1_1_hist_mgr.html" target="_top" xlink:title="triplePi0_Plot::TriplePi0\lHist_t::HistMgr\&lt; TH2D \&gt;">
<polygon fill="white" stroke="black" points="121,-353 121,-383 249,-383 249,-353 121,-353"/>
<text text-anchor="start" x="129" y="-371" font-family="Helvetica,sans-Serif" font-size="10.00">triplePi0_Plot::TriplePi0</text>
<text text-anchor="middle" x="185" y="-360" font-family="Helvetica,sans-Serif" font-size="10.00">Hist_t::HistMgr&lt; TH2D &gt;</text>
</a>
</g>
</g>
<!-- Node715&#45;&gt;Node721 -->
<g id="edge6" class="edge"><title>Node715&#45;&gt;Node721</title>
<path fill="none" stroke="midnightblue" d="M76.1666,-331.809C95.4755,-338.29 119.031,-346.195 139.196,-352.963"/>
<polygon fill="midnightblue" stroke="midnightblue" points="77.0908,-328.428 66.4969,-328.564 74.8635,-335.064 77.0908,-328.428"/>
</g>
<!-- Node722 -->
<g id="node8" class="node"><title>Node722</title>
<g id="a_node8"><a xlink:href="struct_omega_eta_g___plot_1_1_omega_hist__t_1_1_hist_mgr.html" target="_top" xlink:title="OmegaEtaG_Plot::OmegaHist\l_t::HistMgr\&lt; Hist \&gt;">
<polygon fill="white" stroke="black" points="110.5,-304 110.5,-334 259.5,-334 259.5,-304 110.5,-304"/>
<text text-anchor="start" x="118.5" y="-322" font-family="Helvetica,sans-Serif" font-size="10.00">OmegaEtaG_Plot::OmegaHist</text>
<text text-anchor="middle" x="185" y="-311" font-family="Helvetica,sans-Serif" font-size="10.00">_t::HistMgr&lt; Hist &gt;</text>
</a>
</g>
</g>
<!-- Node715&#45;&gt;Node722 -->
<g id="edge7" class="edge"><title>Node715&#45;&gt;Node722</title>
<path fill="none" stroke="midnightblue" d="M83.7386,-319C92.2196,-319 101.274,-319 110.342,-319"/>
<polygon fill="midnightblue" stroke="midnightblue" points="83.7157,-315.5 73.7156,-319 83.7156,-322.5 83.7157,-315.5"/>
</g>
<!-- Node723 -->
<g id="node9" class="node"><title>Node723</title>
<g id="a_node9"><a xlink:href="structq2_hist__t_1_1q2_hist_mgr.html" target="_top" xlink:title="q2Hist_t\&lt; Tree_t \&gt;\l::q2HistMgr\&lt; Hist \&gt;">
<polygon fill="white" stroke="black" points="133,-255 133,-285 237,-285 237,-255 133,-255"/>
<text text-anchor="start" x="141" y="-273" font-family="Helvetica,sans-Serif" font-size="10.00">q2Hist_t&lt; Tree_t &gt;</text>
<text text-anchor="middle" x="185" y="-262" font-family="Helvetica,sans-Serif" font-size="10.00">::q2HistMgr&lt; Hist &gt;</text>
</a>
</g>
</g>
<!-- Node715&#45;&gt;Node723 -->
<g id="edge8" class="edge"><title>Node715&#45;&gt;Node723</title>
<path fill="none" stroke="midnightblue" d="M76.1666,-306.191C95.4755,-299.71 119.031,-291.805 139.196,-285.037"/>
<polygon fill="midnightblue" stroke="midnightblue" points="74.8635,-302.936 66.4969,-309.436 77.0908,-309.572 74.8635,-302.936"/>
</g>
<!-- Node724 -->
<g id="node10" class="node"><title>Node724</title>
<g id="a_node10"><a xlink:href="structq2_hist__t_1_1q2_hist_mgr.html" target="_top" xlink:title="q2Hist_t\&lt; Tree_t \&gt;\l::q2HistMgr\&lt; TH1D \&gt;">
<polygon fill="white" stroke="black" points="129,-206 129,-236 241,-236 241,-206 129,-206"/>
<text text-anchor="start" x="137" y="-224" font-family="Helvetica,sans-Serif" font-size="10.00">q2Hist_t&lt; Tree_t &gt;</text>
<text text-anchor="middle" x="185" y="-213" font-family="Helvetica,sans-Serif" font-size="10.00">::q2HistMgr&lt; TH1D &gt;</text>
</a>
</g>
</g>
<!-- Node715&#45;&gt;Node724 -->
<g id="edge9" class="edge"><title>Node715&#45;&gt;Node724</title>
<path fill="none" stroke="midnightblue" d="M51.7914,-300.79C65.0793,-284.385 86.5714,-260.657 110,-246 116.093,-242.188 122.835,-238.883 129.696,-236.038"/>
<polygon fill="midnightblue" stroke="midnightblue" points="48.7272,-299.024 45.293,-309.047 54.228,-303.354 48.7272,-299.024"/>
</g>
<!-- Node725 -->
<g id="node11" class="node"><title>Node725</title>
<g id="a_node11"><a xlink:href="structsigma_plus___final_plot_1_1_sigma_k0_hist__t_1_1_hist_mgr.html" target="_top" xlink:title="sigmaPlus_FinalPlot\l::SigmaK0Hist_t::HistMgr\l\&lt; Hist \&gt;">
<polygon fill="white" stroke="black" points="120.5,-146.5 120.5,-187.5 249.5,-187.5 249.5,-146.5 120.5,-146.5"/>
<text text-anchor="start" x="128.5" y="-175.5" font-family="Helvetica,sans-Serif" font-size="10.00">sigmaPlus_FinalPlot</text>
<text text-anchor="start" x="128.5" y="-164.5" font-family="Helvetica,sans-Serif" font-size="10.00">::SigmaK0Hist_t::HistMgr</text>
<text text-anchor="middle" x="185" y="-153.5" font-family="Helvetica,sans-Serif" font-size="10.00">&lt; Hist &gt;</text>
</a>
</g>
</g>
<!-- Node715&#45;&gt;Node725 -->
<g id="edge10" class="edge"><title>Node715&#45;&gt;Node725</title>
<path fill="none" stroke="midnightblue" d="M44.824,-299.678C55.0978,-273.152 76.9267,-225.508 110,-197 114.095,-193.47 118.66,-190.32 123.456,-187.515"/>
<polygon fill="midnightblue" stroke="midnightblue" points="41.4382,-298.742 41.2363,-309.335 48,-301.18 41.4382,-298.742"/>
</g>
<!-- Node726 -->
<g id="node12" class="node"><title>Node726</title>
<g id="a_node12"><a xlink:href="structsigma_plus___plot_1_1_sigma_k0_hist__t_1_1_hist_mgr.html" target="_top" xlink:title="sigmaPlus_Plot::SigmaK0Hist\l_t::HistMgr\&lt; Hist \&gt;">
<polygon fill="white" stroke="black" points="110.5,-98 110.5,-128 259.5,-128 259.5,-98 110.5,-98"/>
<text text-anchor="start" x="118.5" y="-116" font-family="Helvetica,sans-Serif" font-size="10.00">sigmaPlus_Plot::SigmaK0Hist</text>
<text text-anchor="middle" x="185" y="-105" font-family="Helvetica,sans-Serif" font-size="10.00">_t::HistMgr&lt; Hist &gt;</text>
</a>
</g>
</g>
<!-- Node715&#45;&gt;Node726 -->
<g id="edge11" class="edge"><title>Node715&#45;&gt;Node726</title>
<path fill="none" stroke="midnightblue" d="M40.3211,-299.008C45.6959,-261.807 62.4043,-181.684 110,-137 113.643,-133.58 117.779,-130.647 122.189,-128.132"/>
<polygon fill="midnightblue" stroke="midnightblue" points="36.8293,-298.717 38.9953,-309.088 43.7695,-299.63 36.8293,-298.717"/>
</g>
<!-- Node727 -->
<g id="node13" class="node"><title>Node727</title>
<g id="a_node13"><a xlink:href="structsingle_pi0___plot_1_1_single_pi0_hist__t_1_1_hist_mgr.html" target="_top" xlink:title="singlePi0_Plot::SinglePi0\lHist_t::HistMgr\&lt; Hist \&gt;">
<polygon fill="white" stroke="black" points="122,-49 122,-79 248,-79 248,-49 122,-49"/>
<text text-anchor="start" x="130" y="-67" font-family="Helvetica,sans-Serif" font-size="10.00">singlePi0_Plot::SinglePi0</text>
<text text-anchor="middle" x="185" y="-56" font-family="Helvetica,sans-Serif" font-size="10.00">Hist_t::HistMgr&lt; Hist &gt;</text>
</a>
</g>
</g>
<!-- Node715&#45;&gt;Node727 -->
<g id="edge12" class="edge"><title>Node715&#45;&gt;Node727</title>
<path fill="none" stroke="midnightblue" d="M38.4414,-299.138C40.5003,-255.155 51.6047,-148.719 110,-89 113.792,-85.1217 118.206,-81.8451 122.955,-79.0767"/>
<polygon fill="midnightblue" stroke="midnightblue" points="34.9437,-299.014 38.0842,-309.132 41.9393,-299.264 34.9437,-299.014"/>
</g>
<!-- Node728 -->
<g id="node14" class="node"><title>Node728</title>
<g id="a_node14"><a xlink:href="structtriple_pi0___plot_1_1_triple_pi0_hist__t_1_1_hist_mgr.html" target="_top" xlink:title="triplePi0_Plot::TriplePi0\lHist_t::HistMgr\&lt; Hist \&gt;">
<polygon fill="white" stroke="black" points="125.5,-0 125.5,-30 244.5,-30 244.5,-0 125.5,-0"/>
<text text-anchor="start" x="133.5" y="-18" font-family="Helvetica,sans-Serif" font-size="10.00">triplePi0_Plot::TriplePi0</text>
<text text-anchor="middle" x="185" y="-7" font-family="Helvetica,sans-Serif" font-size="10.00">Hist_t::HistMgr&lt; Hist &gt;</text>
</a>
</g>
</g>
<!-- Node715&#45;&gt;Node728 -->
<g id="edge13" class="edge"><title>Node715&#45;&gt;Node728</title>
<path fill="none" stroke="midnightblue" d="M40.6217,-299.322C48.5863,-242.299 74.1638,-78.5621 110,-40 114.339,-35.3313 119.579,-31.5342 125.242,-28.4461"/>
<polygon fill="midnightblue" stroke="midnightblue" points="37.1534,-298.853 39.2658,-309.235 44.0888,-299.802 37.1534,-298.853"/>
</g>
</g>
</svg>
