<?xml version="1.0" encoding="UTF-8" standalone="no"?>
<!DOCTYPE svg PUBLIC "-//W3C//DTD SVG 1.1//EN"
 "http://www.w3.org/Graphics/SVG/1.1/DTD/svg11.dtd">
<!-- Generated by graphviz version 2.36.0 (20140111.2315)
 -->
<!-- Title: Graphical Class Hierarchy Pages: 1 -->
<svg width="460pt" height="96pt"
 viewBox="0.00 0.00 460.00 96.00" xmlns="http://www.w3.org/2000/svg" xmlns:xlink="http://www.w3.org/1999/xlink">
<g id="graph0" class="graph" transform="scale(1 1) rotate(0) translate(4 92)">
<title>Graphical Class Hierarchy</title>
<polygon fill="white" stroke="none" points="-4,4 -4,-92 456,-92 456,4 -4,4"/>
<!-- Node0 -->
<g id="node1" class="node"><title>Node0</title>
<g id="a_node1"><a xlink:href="classant_1_1interval.html" target="_top" xlink:title="ant::interval\&lt; double \&gt;">
<polygon fill="white" stroke="black" points="0,-27.5 0,-46.5 114,-46.5 114,-27.5 0,-27.5"/>
<text text-anchor="middle" x="57" y="-34.5" font-family="Helvetica,sans-Serif" font-size="10.00">ant::interval&lt; double &gt;</text>
</a>
</g>
</g>
<!-- Node1 -->
<g id="node2" class="node"><title>Node1</title>
<g id="a_node2"><a xlink:href="classant_1_1_bin_settings.html" target="_top" xlink:title="ant::BinSettings">
<polygon fill="white" stroke="black" points="190,-49.5 190,-68.5 276,-68.5 276,-49.5 190,-49.5"/>
<text text-anchor="middle" x="233" y="-56.5" font-family="Helvetica,sans-Serif" font-size="10.00">ant::BinSettings</text>
</a>
</g>
</g>
<!-- Node0&#45;&gt;Node1 -->
<g id="edge1" class="edge"><title>Node0&#45;&gt;Node1</title>
<path fill="none" stroke="midnightblue" d="M124.009,-45.3459C146.108,-48.1401 170.13,-51.1773 189.893,-53.6762"/>
<polygon fill="midnightblue" stroke="midnightblue" points="124.373,-41.8641 114.012,-44.082 123.494,-48.8089 124.373,-41.8641"/>
</g>
<!-- Node4 -->
<g id="node5" class="node"><title>Node4</title>
<g id="a_node5"><a xlink:href="struct_omega_eta_g___plot_1_1_omega_hist__t_1_1_tree_cuts_1_1cos_theta_c_m_omega.html" target="_top" xlink:title="OmegaEtaG_Plot::OmegaHist\l_t::TreeCuts::cosThetaCMOmega">
<polygon fill="white" stroke="black" points="150.5,-0 150.5,-30 315.5,-30 315.5,-0 150.5,-0"/>
<text text-anchor="start" x="158.5" y="-18" font-family="Helvetica,sans-Serif" font-size="10.00">OmegaEtaG_Plot::OmegaHist</text>
<text text-anchor="middle" x="233" y="-7" font-family="Helvetica,sans-Serif" font-size="10.00">_t::TreeCuts::cosThetaCMOmega</text>
</a>
</g>
</g>
<!-- Node0&#45;&gt;Node4 -->
<g id="edge4" class="edge"><title>Node0&#45;&gt;Node4</title>
<path fill="none" stroke="midnightblue" d="M123.999,-28.6553C132.64,-27.5627 141.575,-26.433 150.435,-25.3128"/>
<polygon fill="midnightblue" stroke="midnightblue" points="123.494,-25.1911 114.012,-29.918 124.373,-32.1359 123.494,-25.1911"/>
</g>
<!-- Node2 -->
<g id="node3" class="node"><title>Node2</title>
<g id="a_node3"><a xlink:href="classant_1_1_axis_settings.html" target="_top" xlink:title="ant::AxisSettings">
<polygon fill="white" stroke="black" points="356,-68.5 356,-87.5 448,-87.5 448,-68.5 356,-68.5"/>
<text text-anchor="middle" x="402" y="-75.5" font-family="Helvetica,sans-Serif" font-size="10.00">ant::AxisSettings</text>
</a>
</g>
</g>
<!-- Node1&#45;&gt;Node2 -->
<g id="edge2" class="edge"><title>Node1&#45;&gt;Node2</title>
<path fill="none" stroke="midnightblue" d="M286.147,-64.9329C308.524,-67.4788 334.415,-70.4245 355.945,-72.874"/>
<polygon fill="midnightblue" stroke="midnightblue" points="286.473,-61.4475 276.141,-63.7945 285.681,-68.4026 286.473,-61.4475"/>
</g>
<!-- Node3 -->
<g id="node4" class="node"><title>Node3</title>
<g id="a_node4"><a xlink:href="struct_t_c_l_a_p_bin_settings.html" target="_top" xlink:title="TCLAPBinSettings">
<polygon fill="white" stroke="black" points="352.5,-30.5 352.5,-49.5 451.5,-49.5 451.5,-30.5 352.5,-30.5"/>
<text text-anchor="middle" x="402" y="-37.5" font-family="Helvetica,sans-Serif" font-size="10.00">TCLAPBinSettings</text>
</a>
</g>
</g>
<!-- Node1&#45;&gt;Node3 -->
<g id="edge3" class="edge"><title>Node1&#45;&gt;Node3</title>
<path fill="none" stroke="midnightblue" d="M286.233,-53.0573C307.361,-50.6535 331.611,-47.8946 352.36,-45.5339"/>
<polygon fill="midnightblue" stroke="midnightblue" points="285.681,-49.5974 276.141,-54.2055 286.473,-56.5525 285.681,-49.5974"/>
</g>
</g>
</svg>
