<?xml version="1.0" encoding="UTF-8" standalone="no"?>
<!DOCTYPE svg PUBLIC "-//W3C//DTD SVG 1.1//EN"
 "http://www.w3.org/Graphics/SVG/1.1/DTD/svg11.dtd">
<!-- Generated by graphviz version 2.36.0 (20140111.2315)
 -->
<!-- Title: Graphical Class Hierarchy Pages: 1 -->
<svg width="594pt" height="1095pt"
 viewBox="0.00 0.00 594.00 1095.00" xmlns="http://www.w3.org/2000/svg" xmlns:xlink="http://www.w3.org/1999/xlink">
<g id="graph0" class="graph" transform="scale(1 1) rotate(0) translate(4 1091)">
<title>Graphical Class Hierarchy</title>
<polygon fill="white" stroke="none" points="-4,4 -4,-1091 590,-1091 590,4 -4,4"/>
<!-- Node894 -->
<g id="node1" class="node"><title>Node894</title>
<g id="a_node1"><a xlink:title="STL class. ">
<polygon fill="white" stroke="#bfbfbf" points="0,-528.5 0,-547.5 78,-547.5 78,-528.5 0,-528.5"/>
<text text-anchor="middle" x="39" y="-535.5" font-family="Helvetica,sans-Serif" font-size="10.00">std::exception</text>
</a>
</g>
</g>
<!-- Node895 -->
<g id="node2" class="node"><title>Node895</title>
<g id="a_node2"><a xlink:title="STL class. ">
<polygon fill="white" stroke="#bfbfbf" points="114.5,-528.5 114.5,-547.5 207.5,-547.5 207.5,-528.5 114.5,-528.5"/>
<text text-anchor="middle" x="161" y="-535.5" font-family="Helvetica,sans-Serif" font-size="10.00">std::runtime_error</text>
</a>
</g>
</g>
<!-- Node894&#45;&gt;Node895 -->
<g id="edge1" class="edge"><title>Node894&#45;&gt;Node895</title>
<path fill="none" stroke="midnightblue" d="M88.4269,-538C96.8996,-538 105.692,-538 114.094,-538"/>
<polygon fill="midnightblue" stroke="midnightblue" points="88.2987,-534.5 78.2987,-538 88.2986,-541.5 88.2987,-534.5"/>
</g>
<!-- Node0 -->
<g id="node3" class="node"><title>Node0</title>
<g id="a_node3"><a xlink:href="structant_1_1analysis_1_1_histogram_factory_1_1_exception.html" target="_top" xlink:title="ant::analysis::Histogram\lFactory::Exception">
<polygon fill="white" stroke="black" points="258.5,-1057 258.5,-1087 381.5,-1087 381.5,-1057 258.5,-1057"/>
<text text-anchor="start" x="266.5" y="-1075" font-family="Helvetica,sans-Serif" font-size="10.00">ant::analysis::Histogram</text>
<text text-anchor="middle" x="320" y="-1064" font-family="Helvetica,sans-Serif" font-size="10.00">Factory::Exception</text>
</a>
</g>
</g>
<!-- Node895&#45;&gt;Node0 -->
<g id="edge2" class="edge"><title>Node895&#45;&gt;Node0</title>
<path fill="none" stroke="midnightblue" d="M162.523,-557.673C165.147,-641.87 179.442,-971.033 244,-1047 248,-1051.71 252.91,-1055.53 258.289,-1058.64"/>
<polygon fill="midnightblue" stroke="midnightblue" points="166.021,-557.557 162.232,-547.663 159.024,-557.761 166.021,-557.557"/>
</g>
<!-- Node897 -->
<g id="node4" class="node"><title>Node897</title>
<g id="a_node4"><a xlink:href="classant_1_1analysis_1_1input_1_1_data_reader_1_1_exception.html" target="_top" xlink:title="ant::analysis::input\l::DataReader::Exception">
<polygon fill="white" stroke="black" points="257.5,-1008 257.5,-1038 382.5,-1038 382.5,-1008 257.5,-1008"/>
<text text-anchor="start" x="265.5" y="-1026" font-family="Helvetica,sans-Serif" font-size="10.00">ant::analysis::input</text>
<text text-anchor="middle" x="320" y="-1015" font-family="Helvetica,sans-Serif" font-size="10.00">::DataReader::Exception</text>
</a>
</g>
</g>
<!-- Node895&#45;&gt;Node897 -->
<g id="edge3" class="edge"><title>Node895&#45;&gt;Node897</title>
<path fill="none" stroke="midnightblue" d="M162.911,-558.02C166.921,-637.572 185.479,-930.29 244,-998 247.769,-1002.36 252.321,-1005.96 257.296,-1008.94"/>
<polygon fill="midnightblue" stroke="midnightblue" points="166.4,-557.701 162.422,-547.881 159.408,-558.038 166.4,-557.701"/>
</g>
<!-- Node898 -->
<g id="node5" class="node"><title>Node898</title>
<g id="a_node5"><a xlink:href="structant_1_1analysis_1_1_physics_1_1_exception.html" target="_top" xlink:title="ant::analysis::Physics\l::Exception">
<polygon fill="white" stroke="black" points="263.5,-959 263.5,-989 376.5,-989 376.5,-959 263.5,-959"/>
<text text-anchor="start" x="271.5" y="-977" font-family="Helvetica,sans-Serif" font-size="10.00">ant::analysis::Physics</text>
<text text-anchor="middle" x="320" y="-966" font-family="Helvetica,sans-Serif" font-size="10.00">::Exception</text>
</a>
</g>
</g>
<!-- Node895&#45;&gt;Node898 -->
<g id="edge4" class="edge"><title>Node895&#45;&gt;Node898</title>
<path fill="none" stroke="midnightblue" d="M163.355,-557.738C168.795,-631.434 191.336,-889.315 244,-949 249.267,-954.969 255.997,-959.517 263.257,-962.981"/>
<polygon fill="midnightblue" stroke="midnightblue" points="166.831,-557.275 162.627,-547.55 159.849,-557.774 166.831,-557.275"/>
</g>
<!-- Node900 -->
<g id="node7" class="node"><title>Node900</title>
<g id="a_node7"><a xlink:href="classant_1_1analysis_1_1_physics_manager_1_1_exception.html" target="_top" xlink:title="ant::analysis::PhysicsManager\l::Exception">
<polygon fill="white" stroke="black" points="244.5,-910 244.5,-940 395.5,-940 395.5,-910 244.5,-910"/>
<text text-anchor="start" x="252.5" y="-928" font-family="Helvetica,sans-Serif" font-size="10.00">ant::analysis::PhysicsManager</text>
<text text-anchor="middle" x="320" y="-917" font-family="Helvetica,sans-Serif" font-size="10.00">::Exception</text>
</a>
</g>
</g>
<!-- Node895&#45;&gt;Node900 -->
<g id="edge6" class="edge"><title>Node895&#45;&gt;Node900</title>
<path fill="none" stroke="midnightblue" d="M163.958,-557.97C171.023,-626.159 197.283,-848.414 244,-900 247.501,-903.866 251.615,-907.135 256.083,-909.899"/>
<polygon fill="midnightblue" stroke="midnightblue" points="167.413,-557.342 162.925,-547.745 160.448,-558.047 167.413,-557.342"/>
</g>
<!-- Node901 -->
<g id="node8" class="node"><title>Node901</title>
<g id="a_node8"><a xlink:href="structant_1_1analysis_1_1_physics_registry_1_1_exception.html" target="_top" xlink:title="ant::analysis::PhysicsRegistry\l::Exception">
<polygon fill="white" stroke="black" points="245,-861 245,-891 395,-891 395,-861 245,-861"/>
<text text-anchor="start" x="253" y="-879" font-family="Helvetica,sans-Serif" font-size="10.00">ant::analysis::PhysicsRegistry</text>
<text text-anchor="middle" x="320" y="-868" font-family="Helvetica,sans-Serif" font-size="10.00">::Exception</text>
</a>
</g>
</g>
<!-- Node895&#45;&gt;Node901 -->
<g id="edge7" class="edge"><title>Node895&#45;&gt;Node901</title>
<path fill="none" stroke="midnightblue" d="M164.674,-557.631C173.432,-619.246 203.062,-807.287 244,-851 247.659,-854.907 251.944,-858.204 256.579,-860.986"/>
<polygon fill="midnightblue" stroke="midnightblue" points="168.131,-557.082 163.283,-547.661 161.198,-558.049 168.131,-557.082"/>
</g>
<!-- Node902 -->
<g id="node9" class="node"><title>Node902</title>
<g id="a_node9"><a xlink:href="structant_1_1analysis_1_1_plotter_1_1_exception.html" target="_top" xlink:title="ant::analysis::Plotter\l::Exception">
<polygon fill="white" stroke="black" points="266.5,-812 266.5,-842 373.5,-842 373.5,-812 266.5,-812"/>
<text text-anchor="start" x="274.5" y="-830" font-family="Helvetica,sans-Serif" font-size="10.00">ant::analysis::Plotter</text>
<text text-anchor="middle" x="320" y="-819" font-family="Helvetica,sans-Serif" font-size="10.00">::Exception</text>
</a>
</g>
</g>
<!-- Node895&#45;&gt;Node902 -->
<g id="edge8" class="edge"><title>Node895&#45;&gt;Node902</title>
<path fill="none" stroke="midnightblue" d="M162.304,-557.829C164.132,-606.35 175.596,-732.173 244,-802 250.243,-808.373 258.151,-813.121 266.476,-816.659"/>
<polygon fill="midnightblue" stroke="midnightblue" points="165.799,-557.619 162.025,-547.719 158.802,-557.812 165.799,-557.619"/>
</g>
<!-- Node903 -->
<g id="node10" class="node"><title>Node903</title>
<g id="a_node10"><a xlink:href="structant_1_1analysis_1_1_plotter_registry_1_1_exception.html" target="_top" xlink:title="ant::analysis::PlotterRegistry\l::Exception">
<polygon fill="white" stroke="black" points="248.5,-763 248.5,-793 391.5,-793 391.5,-763 248.5,-763"/>
<text text-anchor="start" x="256.5" y="-781" font-family="Helvetica,sans-Serif" font-size="10.00">ant::analysis::PlotterRegistry</text>
<text text-anchor="middle" x="320" y="-770" font-family="Helvetica,sans-Serif" font-size="10.00">::Exception</text>
</a>
</g>
</g>
<!-- Node895&#45;&gt;Node903 -->
<g id="edge9" class="edge"><title>Node895&#45;&gt;Node903</title>
<path fill="none" stroke="midnightblue" d="M163.937,-557.769C169.094,-599.728 186.93,-698.312 244,-753 248.063,-756.893 252.748,-760.181 257.752,-762.957"/>
<polygon fill="midnightblue" stroke="midnightblue" points="167.404,-557.284 162.817,-547.734 160.447,-558.06 167.404,-557.284"/>
</g>
<!-- Node904 -->
<g id="node11" class="node"><title>Node904</title>
<g id="a_node11"><a xlink:href="classant_1_1analysis_1_1slowcontrol_1_1_processor_1_1_exception.html" target="_top" xlink:title="ant::analysis::slowcontrol\l::Processor::Exception">
<polygon fill="white" stroke="black" points="256,-714 256,-744 384,-744 384,-714 256,-714"/>
<text text-anchor="start" x="264" y="-732" font-family="Helvetica,sans-Serif" font-size="10.00">ant::analysis::slowcontrol</text>
<text text-anchor="middle" x="320" y="-721" font-family="Helvetica,sans-Serif" font-size="10.00">::Processor::Exception</text>
</a>
</g>
</g>
<!-- Node895&#45;&gt;Node904 -->
<g id="edge10" class="edge"><title>Node895&#45;&gt;Node904</title>
<path fill="none" stroke="midnightblue" d="M166.43,-557.687C175.213,-592.255 198.082,-663.981 244,-704 248.449,-707.878 253.52,-711.158 258.877,-713.932"/>
<polygon fill="midnightblue" stroke="midnightblue" points="169.807,-556.759 164.062,-547.857 163.002,-558.399 169.807,-556.759"/>
</g>
<!-- Node905 -->
<g id="node12" class="node"><title>Node905</title>
<g id="a_node12"><a xlink:href="structant_1_1analysis_1_1utils_1_1_fitter_1_1_exception.html" target="_top" xlink:title="ant::analysis::utils\l::Fitter::Exception">
<polygon fill="white" stroke="black" points="272,-665 272,-695 368,-695 368,-665 272,-665"/>
<text text-anchor="start" x="280" y="-683" font-family="Helvetica,sans-Serif" font-size="10.00">ant::analysis::utils</text>
<text text-anchor="middle" x="320" y="-672" font-family="Helvetica,sans-Serif" font-size="10.00">::Fitter::Exception</text>
</a>
</g>
</g>
<!-- Node895&#45;&gt;Node905 -->
<g id="edge11" class="edge"><title>Node895&#45;&gt;Node905</title>
<path fill="none" stroke="midnightblue" d="M170.457,-556.858C182.947,-582.642 208.713,-628.693 244,-655 252.253,-661.153 262.107,-665.846 271.917,-669.407"/>
<polygon fill="midnightblue" stroke="midnightblue" points="173.604,-555.326 166.193,-547.754 167.265,-558.295 173.604,-555.326"/>
</g>
<!-- Node906 -->
<g id="node13" class="node"><title>Node906</title>
<g id="a_node13"><a xlink:href="structant_1_1analysis_1_1utils_1_1_m_c_weighting_1_1_exception.html" target="_top" xlink:title="ant::analysis::utils\l::MCWeighting::Exception">
<polygon fill="white" stroke="black" points="254.5,-616 254.5,-646 385.5,-646 385.5,-616 254.5,-616"/>
<text text-anchor="start" x="262.5" y="-634" font-family="Helvetica,sans-Serif" font-size="10.00">ant::analysis::utils</text>
<text text-anchor="middle" x="320" y="-623" font-family="Helvetica,sans-Serif" font-size="10.00">::MCWeighting::Exception</text>
</a>
</g>
</g>
<!-- Node895&#45;&gt;Node906 -->
<g id="edge12" class="edge"><title>Node895&#45;&gt;Node906</title>
<path fill="none" stroke="midnightblue" d="M178.523,-554.906C194.171,-570.092 218.943,-592.081 244,-606 250.719,-609.732 258.087,-613.028 265.499,-615.9"/>
<polygon fill="midnightblue" stroke="midnightblue" points="180.784,-552.219 171.218,-547.664 175.855,-557.19 180.784,-552.219"/>
</g>
<!-- Node907 -->
<g id="node14" class="node"><title>Node907</title>
<g id="a_node14"><a xlink:href="structant_1_1analysis_1_1utils_1_1_uncertainty_model_1_1_exception.html" target="_top" xlink:title="ant::analysis::utils\l::UncertaintyModel::Exception">
<polygon fill="white" stroke="black" points="245.5,-567 245.5,-597 394.5,-597 394.5,-567 245.5,-567"/>
<text text-anchor="start" x="253.5" y="-585" font-family="Helvetica,sans-Serif" font-size="10.00">ant::analysis::utils</text>
<text text-anchor="middle" x="320" y="-574" font-family="Helvetica,sans-Serif" font-size="10.00">::UncertaintyModel::Exception</text>
</a>
</g>
</g>
<!-- Node895&#45;&gt;Node907 -->
<g id="edge13" class="edge"><title>Node895&#45;&gt;Node907</title>
<path fill="none" stroke="midnightblue" d="M205.931,-550.312C224.334,-555.469 245.905,-561.515 265.244,-566.935"/>
<polygon fill="midnightblue" stroke="midnightblue" points="206.64,-546.876 196.067,-547.547 204.751,-553.616 206.64,-546.876"/>
</g>
<!-- Node908 -->
<g id="node15" class="node"><title>Node908</title>
<g id="a_node15"><a xlink:href="structant_1_1_bin_settings_1_1_exception.html" target="_top" xlink:title="ant::BinSettings::Exception">
<polygon fill="white" stroke="black" points="252,-528.5 252,-547.5 388,-547.5 388,-528.5 252,-528.5"/>
<text text-anchor="middle" x="320" y="-535.5" font-family="Helvetica,sans-Serif" font-size="10.00">ant::BinSettings::Exception</text>
</a>
</g>
</g>
<!-- Node895&#45;&gt;Node908 -->
<g id="edge14" class="edge"><title>Node895&#45;&gt;Node908</title>
<path fill="none" stroke="midnightblue" d="M218.084,-538C229.011,-538 240.57,-538 251.813,-538"/>
<polygon fill="midnightblue" stroke="midnightblue" points="217.833,-534.5 207.833,-538 217.833,-541.5 217.833,-534.5"/>
</g>
<!-- Node909 -->
<g id="node16" class="node"><title>Node909</title>
<g id="a_node16"><a xlink:href="classant_1_1calibration_1_1_data_base_1_1_exception.html" target="_top" xlink:title="ant::calibration::DataBase\l::Exception">
<polygon fill="white" stroke="black" points="255,-479 255,-509 385,-509 385,-479 255,-479"/>
<text text-anchor="start" x="263" y="-497" font-family="Helvetica,sans-Serif" font-size="10.00">ant::calibration::DataBase</text>
<text text-anchor="middle" x="320" y="-486" font-family="Helvetica,sans-Serif" font-size="10.00">::Exception</text>
</a>
</g>
</g>
<!-- Node895&#45;&gt;Node909 -->
<g id="edge15" class="edge"><title>Node895&#45;&gt;Node909</title>
<path fill="none" stroke="midnightblue" d="M205.931,-525.688C224.334,-520.531 245.905,-514.485 265.244,-509.065"/>
<polygon fill="midnightblue" stroke="midnightblue" points="204.751,-522.384 196.067,-528.453 206.64,-529.124 204.751,-522.384"/>
</g>
<!-- Node910 -->
<g id="node17" class="node"><title>Node910</title>
<g id="a_node17"><a xlink:href="classant_1_1_detector__t_1_1_exception.html" target="_top" xlink:title="ant::Detector_t::Exception">
<polygon fill="white" stroke="black" points="254.5,-440.5 254.5,-459.5 385.5,-459.5 385.5,-440.5 254.5,-440.5"/>
<text text-anchor="middle" x="320" y="-447.5" font-family="Helvetica,sans-Serif" font-size="10.00">ant::Detector_t::Exception</text>
</a>
</g>
</g>
<!-- Node895&#45;&gt;Node910 -->
<g id="edge16" class="edge"><title>Node895&#45;&gt;Node910</title>
<path fill="none" stroke="#8b1a1a" d="M178.329,-520.733C193.844,-505.298 218.529,-483.146 244,-470 252.263,-465.735 261.52,-462.317 270.635,-459.598"/>
<polygon fill="#8b1a1a" stroke="#8b1a1a" points="175.599,-518.519 171.096,-528.109 180.597,-523.42 175.599,-518.519"/>
</g>
<!-- Node911 -->
<g id="node18" class="node"><title>Node911</title>
<g id="a_node18"><a xlink:href="classant_1_1_exp_config_1_1_exception.html" target="_top" xlink:title="ant::ExpConfig::Exception">
<polygon fill="white" stroke="black" points="254.5,-402.5 254.5,-421.5 385.5,-421.5 385.5,-402.5 254.5,-402.5"/>
<text text-anchor="middle" x="320" y="-409.5" font-family="Helvetica,sans-Serif" font-size="10.00">ant::ExpConfig::Exception</text>
</a>
</g>
</g>
<!-- Node895&#45;&gt;Node911 -->
<g id="edge17" class="edge"><title>Node895&#45;&gt;Node911</title>
<path fill="none" stroke="midnightblue" d="M171.182,-519.369C184.066,-495.213 209.817,-453.519 244,-431 249.945,-427.084 256.643,-423.975 263.528,-421.506"/>
<polygon fill="midnightblue" stroke="midnightblue" points="168.071,-517.767 166.601,-528.259 174.293,-520.973 168.071,-517.767"/>
</g>
<!-- Node914 -->
<g id="node21" class="node"><title>Node914</title>
<g id="a_node21"><a xlink:href="structant_1_1_interpolator2_d_1_1_exception.html" target="_top" xlink:title="ant::Interpolator2D\l::Exception">
<polygon fill="white" stroke="black" points="271,-353 271,-383 369,-383 369,-353 271,-353"/>
<text text-anchor="start" x="279" y="-371" font-family="Helvetica,sans-Serif" font-size="10.00">ant::Interpolator2D</text>
<text text-anchor="middle" x="320" y="-360" font-family="Helvetica,sans-Serif" font-size="10.00">::Exception</text>
</a>
</g>
</g>
<!-- Node895&#45;&gt;Node914 -->
<g id="edge20" class="edge"><title>Node895&#45;&gt;Node914</title>
<path fill="none" stroke="midnightblue" d="M167.865,-518.66C178.224,-487.7 202.663,-427.043 244,-393 251.734,-386.631 261.156,-381.861 270.674,-378.296"/>
<polygon fill="midnightblue" stroke="midnightblue" points="164.501,-517.689 164.783,-528.28 171.167,-519.824 164.501,-517.689"/>
</g>
<!-- Node915 -->
<g id="node22" class="node"><title>Node915</title>
<g id="a_node22"><a xlink:href="classant_1_1_raw_file_reader_1_1_exception.html" target="_top" xlink:title="ant::RawFileReader\l::Exception">
<polygon fill="white" stroke="black" points="268,-304 268,-334 372,-334 372,-304 268,-304"/>
<text text-anchor="start" x="276" y="-322" font-family="Helvetica,sans-Serif" font-size="10.00">ant::RawFileReader</text>
<text text-anchor="middle" x="320" y="-311" font-family="Helvetica,sans-Serif" font-size="10.00">::Exception</text>
</a>
</g>
</g>
<!-- Node895&#45;&gt;Node915 -->
<g id="edge21" class="edge"><title>Node895&#45;&gt;Node915</title>
<path fill="none" stroke="midnightblue" d="M164.855,-518.315C171.521,-479.43 191.711,-392.354 244,-344 250.752,-337.757 259.106,-333.069 267.763,-329.55"/>
<polygon fill="midnightblue" stroke="midnightblue" points="161.375,-517.912 163.258,-528.338 168.288,-519.013 161.375,-517.912"/>
</g>
<!-- Node916 -->
<g id="node23" class="node"><title>Node916</title>
<g id="a_node23"><a xlink:href="classant_1_1_reconstruct_1_1_exception.html" target="_top" xlink:title="ant::Reconstruct::Exception">
<polygon fill="white" stroke="black" points="250.5,-265.5 250.5,-284.5 389.5,-284.5 389.5,-265.5 250.5,-265.5"/>
<text text-anchor="middle" x="320" y="-272.5" font-family="Helvetica,sans-Serif" font-size="10.00">ant::Reconstruct::Exception</text>
</a>
</g>
</g>
<!-- Node895&#45;&gt;Node916 -->
<g id="edge22" class="edge"><title>Node895&#45;&gt;Node916</title>
<path fill="none" stroke="midnightblue" d="M162.572,-518.125C165.025,-471.678 177.822,-355.325 244,-294 248.138,-290.165 252.937,-287.078 258.069,-284.595"/>
<polygon fill="midnightblue" stroke="midnightblue" points="159.065,-518.214 162.145,-528.351 166.059,-518.506 159.065,-518.214"/>
</g>
<!-- Node917 -->
<g id="node24" class="node"><title>Node917</title>
<g id="a_node24"><a xlink:href="structant_1_1_savitzky_golay_1_1_exception.html" target="_top" xlink:title="ant::SavitzkyGolay\l::Exception">
<polygon fill="white" stroke="black" points="270,-216 270,-246 370,-246 370,-216 270,-216"/>
<text text-anchor="start" x="278" y="-234" font-family="Helvetica,sans-Serif" font-size="10.00">ant::SavitzkyGolay</text>
<text text-anchor="middle" x="320" y="-223" font-family="Helvetica,sans-Serif" font-size="10.00">::Exception</text>
</a>
</g>
</g>
<!-- Node895&#45;&gt;Node917 -->
<g id="edge23" class="edge"><title>Node895&#45;&gt;Node917</title>
<path fill="none" stroke="midnightblue" d="M161.834,-518.219C162.503,-467.498 171.364,-331.508 244,-256 251.041,-248.68 260.279,-243.503 269.854,-239.842"/>
<polygon fill="midnightblue" stroke="midnightblue" points="158.333,-518.439 161.801,-528.45 165.333,-518.462 158.333,-518.439"/>
</g>
<!-- Node918 -->
<g id="node25" class="node"><title>Node918</title>
<g id="a_node25"><a xlink:href="structant_1_1unpacker_1_1acqu_1_1_file_format_mk1_1_1_exception.html" target="_top" xlink:title="ant::unpacker::acqu\l::FileFormatMk1::Exception">
<polygon fill="white" stroke="black" points="251.5,-167 251.5,-197 388.5,-197 388.5,-167 251.5,-167"/>
<text text-anchor="start" x="259.5" y="-185" font-family="Helvetica,sans-Serif" font-size="10.00">ant::unpacker::acqu</text>
<text text-anchor="middle" x="320" y="-174" font-family="Helvetica,sans-Serif" font-size="10.00">::FileFormatMk1::Exception</text>
</a>
</g>
</g>
<!-- Node895&#45;&gt;Node918 -->
<g id="edge24" class="edge"><title>Node895&#45;&gt;Node918</title>
<path fill="none" stroke="midnightblue" d="M164.326,-518.424C172.304,-454.382 200.498,-252.545 244,-206 247.174,-202.604 250.828,-199.687 254.778,-197.181"/>
<polygon fill="midnightblue" stroke="midnightblue" points="160.845,-518.056 163.108,-528.406 167.793,-518.904 160.845,-518.056"/>
</g>
<!-- Node919 -->
<g id="node26" class="node"><title>Node919</title>
<g id="a_node26"><a xlink:href="classant_1_1_unpacker_1_1_exception.html" target="_top" xlink:title="The Exception class is thrown if an unexpected error during unpacking occurs. ">
<polygon fill="white" stroke="black" points="256,-128.5 256,-147.5 384,-147.5 384,-128.5 256,-128.5"/>
<text text-anchor="middle" x="320" y="-135.5" font-family="Helvetica,sans-Serif" font-size="10.00">ant::Unpacker::Exception</text>
</a>
</g>
</g>
<!-- Node895&#45;&gt;Node919 -->
<g id="edge25" class="edge"><title>Node895&#45;&gt;Node919</title>
<path fill="none" stroke="midnightblue" d="M163.548,-518.234C169.467,-447.725 192.943,-209.936 244,-157 247.637,-153.229 251.906,-150.167 256.531,-147.684"/>
<polygon fill="midnightblue" stroke="midnightblue" points="160.044,-518.143 162.721,-528.394 167.021,-518.711 160.044,-518.143"/>
</g>
<!-- Node922 -->
<g id="node29" class="node"><title>Node922</title>
<g id="a_node29"><a xlink:href="structant_1_1_wrap_t_file_1_1_exception.html" target="_top" xlink:title="ant::WrapTFile::Exception">
<polygon fill="white" stroke="black" points="254.5,-87.5 254.5,-106.5 385.5,-106.5 385.5,-87.5 254.5,-87.5"/>
<text text-anchor="middle" x="320" y="-94.5" font-family="Helvetica,sans-Serif" font-size="10.00">ant::WrapTFile::Exception</text>
</a>
</g>
</g>
<!-- Node895&#45;&gt;Node922 -->
<g id="edge28" class="edge"><title>Node895&#45;&gt;Node922</title>
<path fill="none" stroke="midnightblue" d="M163.23,-517.819C168.221,-442.477 189.361,-178.916 244,-119 248.846,-113.686 254.9,-109.629 261.454,-106.537"/>
<polygon fill="midnightblue" stroke="midnightblue" points="159.71,-518.032 162.565,-528.235 166.695,-518.478 159.71,-518.032"/>
</g>
<!-- Node925 -->
<g id="node32" class="node"><title>Node925</title>
<g id="a_node32"><a xlink:href="structant_1_1_wrap_t_tree_1_1_exception.html" target="_top" xlink:title="ant::WrapTTree::Exception">
<polygon fill="white" stroke="black" points="253,-27.5 253,-46.5 387,-46.5 387,-27.5 253,-27.5"/>
<text text-anchor="middle" x="320" y="-34.5" font-family="Helvetica,sans-Serif" font-size="10.00">ant::WrapTTree::Exception</text>
</a>
</g>
</g>
<!-- Node895&#45;&gt;Node925 -->
<g id="edge31" class="edge"><title>Node895&#45;&gt;Node925</title>
<path fill="none" stroke="midnightblue" d="M163.27,-518.263C168.652,-439.794 191.748,-150.658 244,-78 254.743,-63.061 272.676,-52.9748 288.312,-46.5452"/>
<polygon fill="midnightblue" stroke="midnightblue" points="159.776,-518.051 162.603,-528.262 166.761,-518.517 159.776,-518.051"/>
</g>
<!-- Node899 -->
<g id="node6" class="node"><title>Node899</title>
<g id="a_node6"><a xlink:href="structant_1_1analysis_1_1_physics_1_1_exception_option_needed.html" target="_top" xlink:title="ant::analysis::Physics\l::ExceptionOptionNeeded">
<polygon fill="white" stroke="black" points="445,-959 445,-989 573,-989 573,-959 445,-959"/>
<text text-anchor="start" x="453" y="-977" font-family="Helvetica,sans-Serif" font-size="10.00">ant::analysis::Physics</text>
<text text-anchor="middle" x="509" y="-966" font-family="Helvetica,sans-Serif" font-size="10.00">::ExceptionOptionNeeded</text>
</a>
</g>
</g>
<!-- Node898&#45;&gt;Node899 -->
<g id="edge5" class="edge"><title>Node898&#45;&gt;Node899</title>
<path fill="none" stroke="midnightblue" d="M386.855,-974C405.657,-974 426.097,-974 444.74,-974"/>
<polygon fill="midnightblue" stroke="midnightblue" points="386.6,-970.5 376.6,-974 386.6,-977.5 386.6,-970.5"/>
</g>
<!-- Node912 -->
<g id="node19" class="node"><title>Node912</title>
<g id="a_node19"><a xlink:href="classant_1_1_exp_config_1_1_exception_no_detector.html" target="_top" xlink:title="ant::ExpConfig::Exception\lNoDetector">
<polygon fill="white" stroke="black" points="443.5,-421 443.5,-451 574.5,-451 574.5,-421 443.5,-421"/>
<text text-anchor="start" x="451.5" y="-439" font-family="Helvetica,sans-Serif" font-size="10.00">ant::ExpConfig::Exception</text>
<text text-anchor="middle" x="509" y="-428" font-family="Helvetica,sans-Serif" font-size="10.00">NoDetector</text>
</a>
</g>
</g>
<!-- Node911&#45;&gt;Node912 -->
<g id="edge18" class="edge"><title>Node911&#45;&gt;Node912</title>
<path fill="none" stroke="midnightblue" d="M395.835,-421.604C411.576,-423.625 428.052,-425.739 443.381,-427.707"/>
<polygon fill="midnightblue" stroke="midnightblue" points="395.981,-418.095 385.617,-420.293 395.09,-425.038 395.981,-418.095"/>
</g>
<!-- Node913 -->
<g id="node20" class="node"><title>Node913</title>
<g id="a_node20"><a xlink:href="classant_1_1_exp_config_1_1_exception_no_setup.html" target="_top" xlink:title="ant::ExpConfig::Exception\lNoSetup">
<polygon fill="white" stroke="black" points="443.5,-372 443.5,-402 574.5,-402 574.5,-372 443.5,-372"/>
<text text-anchor="start" x="451.5" y="-390" font-family="Helvetica,sans-Serif" font-size="10.00">ant::ExpConfig::Exception</text>
<text text-anchor="middle" x="509" y="-379" font-family="Helvetica,sans-Serif" font-size="10.00">NoSetup</text>
</a>
</g>
</g>
<!-- Node911&#45;&gt;Node913 -->
<g id="edge19" class="edge"><title>Node911&#45;&gt;Node913</title>
<path fill="none" stroke="midnightblue" d="M395.835,-401.995C411.576,-399.891 428.052,-397.688 443.381,-395.639"/>
<polygon fill="midnightblue" stroke="midnightblue" points="395.065,-398.567 385.617,-403.361 395.992,-405.505 395.065,-398.567"/>
</g>
<!-- Node920 -->
<g id="node27" class="node"><title>Node920</title>
<g id="a_node27"><a xlink:href="classant_1_1_unpacker_a2_geant_1_1_exception.html" target="_top" xlink:title="ant::UnpackerA2Geant\l::Exception">
<polygon fill="white" stroke="black" points="451,-175 451,-205 567,-205 567,-175 451,-175"/>
<text text-anchor="start" x="459" y="-193" font-family="Helvetica,sans-Serif" font-size="10.00">ant::UnpackerA2Geant</text>
<text text-anchor="middle" x="509" y="-182" font-family="Helvetica,sans-Serif" font-size="10.00">::Exception</text>
</a>
</g>
</g>
<!-- Node919&#45;&gt;Node920 -->
<g id="edge26" class="edge"><title>Node919&#45;&gt;Node920</title>
<path fill="none" stroke="midnightblue" d="M369.73,-150.056C378.492,-152.305 387.529,-154.68 396,-157 416.528,-162.622 439.059,-169.184 458.495,-174.969"/>
<polygon fill="midnightblue" stroke="midnightblue" points="370.556,-146.654 360.001,-147.578 368.828,-153.438 370.556,-146.654"/>
</g>
<!-- Node921 -->
<g id="node28" class="node"><title>Node921</title>
<g id="a_node28"><a xlink:href="classant_1_1_unpacker_acqu_1_1_exception.html" target="_top" xlink:title="ant::UnpackerAcqu::\lException">
<polygon fill="white" stroke="black" points="455.5,-126 455.5,-156 562.5,-156 562.5,-126 455.5,-126"/>
<text text-anchor="start" x="463.5" y="-144" font-family="Helvetica,sans-Serif" font-size="10.00">ant::UnpackerAcqu::</text>
<text text-anchor="middle" x="509" y="-133" font-family="Helvetica,sans-Serif" font-size="10.00">Exception</text>
</a>
</g>
</g>
<!-- Node919&#45;&gt;Node921 -->
<g id="edge27" class="edge"><title>Node919&#45;&gt;Node921</title>
<path fill="none" stroke="midnightblue" d="M394.274,-139.176C414.715,-139.503 436.511,-139.853 455.496,-140.158"/>
<polygon fill="midnightblue" stroke="midnightblue" points="394.104,-135.672 384.049,-139.011 393.992,-142.672 394.104,-135.672"/>
</g>
<!-- Node923 -->
<g id="node30" class="node"><title>Node923</title>
<g id="a_node30"><a xlink:href="structant_1_1_wrap_t_file_1_1_e_not_a_root_file.html" target="_top" xlink:title="ant::WrapTFile::ENotARootFile">
<polygon fill="white" stroke="black" points="432.5,-87.5 432.5,-106.5 585.5,-106.5 585.5,-87.5 432.5,-87.5"/>
<text text-anchor="middle" x="509" y="-94.5" font-family="Helvetica,sans-Serif" font-size="10.00">ant::WrapTFile::ENotARootFile</text>
</a>
</g>
</g>
<!-- Node922&#45;&gt;Node923 -->
<g id="edge29" class="edge"><title>Node922&#45;&gt;Node923</title>
<path fill="none" stroke="midnightblue" d="M395.665,-97C407.772,-97 420.319,-97 432.448,-97"/>
<polygon fill="midnightblue" stroke="midnightblue" points="395.617,-93.5001 385.617,-97 395.617,-100.5 395.617,-93.5001"/>
</g>
<!-- Node924 -->
<g id="node31" class="node"><title>Node924</title>
<g id="a_node31"><a xlink:href="structant_1_1_wrap_t_file_1_1_e_not_readable.html" target="_top" xlink:title="ant::WrapTFile::ENotReadable">
<polygon fill="white" stroke="black" points="433.5,-49.5 433.5,-68.5 584.5,-68.5 584.5,-49.5 433.5,-49.5"/>
<text text-anchor="middle" x="509" y="-56.5" font-family="Helvetica,sans-Serif" font-size="10.00">ant::WrapTFile::ENotReadable</text>
</a>
</g>
</g>
<!-- Node922&#45;&gt;Node924 -->
<g id="edge30" class="edge"><title>Node922&#45;&gt;Node924</title>
<path fill="none" stroke="midnightblue" d="M378.131,-85.3905C404.727,-79.986 435.973,-73.6365 461.151,-68.5201"/>
<polygon fill="midnightblue" stroke="midnightblue" points="377.291,-81.9896 368.188,-87.411 378.685,-88.8494 377.291,-81.9896"/>
</g>
<!-- Node926 -->
<g id="node33" class="node"><title>Node926</title>
<g id="a_node33"><a xlink:href="structant_1_1_wrap_t_tree_1_1_r_o_o_t_array_exception.html" target="_top" xlink:title="ant::WrapTTree::ROOTArray\lException">
<polygon fill="white" stroke="black" points="437.5,-0 437.5,-30 580.5,-30 580.5,-0 437.5,-0"/>
<text text-anchor="start" x="445.5" y="-18" font-family="Helvetica,sans-Serif" font-size="10.00">ant::WrapTTree::ROOTArray</text>
<text text-anchor="middle" x="509" y="-7" font-family="Helvetica,sans-Serif" font-size="10.00">Exception</text>
</a>
</g>
</g>
<!-- Node925&#45;&gt;Node926 -->
<g id="edge32" class="edge"><title>Node925&#45;&gt;Node926</title>
<path fill="none" stroke="midnightblue" d="M397.248,-28.0297C410.544,-26.4654 424.323,-24.8444 437.457,-23.2992"/>
<polygon fill="midnightblue" stroke="midnightblue" points="396.715,-24.5681 387.192,-29.2127 397.533,-31.5202 396.715,-24.5681"/>
</g>
</g>
</svg>
