<?xml version="1.0" encoding="UTF-8" standalone="no"?>
<!DOCTYPE svg PUBLIC "-//W3C//DTD SVG 1.1//EN"
 "http://www.w3.org/Graphics/SVG/1.1/DTD/svg11.dtd">
<!-- Generated by graphviz version 2.36.0 (20140111.2315)
 -->
<!-- Title: src/root&#45;addons/analysis_codes/Math.h Pages: 1 -->
<svg width="1422pt" height="118pt"
 viewBox="0.00 0.00 1422.00 118.00" xmlns="http://www.w3.org/2000/svg" xmlns:xlink="http://www.w3.org/1999/xlink">
<g id="graph0" class="graph" transform="scale(1 1) rotate(0) translate(4 114)">
<title>src/root&#45;addons/analysis_codes/Math.h</title>
<polygon fill="white" stroke="none" points="-4,4 -4,-114 1418,-114 1418,4 -4,4"/>
<!-- Node24 -->
<g id="node1" class="node"><title>Node24</title>
<polygon fill="#bfbfbf" stroke="black" points="630.5,-79 630.5,-109 753.5,-109 753.5,-79 630.5,-79"/>
<text text-anchor="start" x="638.5" y="-97" font-family="Helvetica,sans-Serif" font-size="10.00">src/root&#45;addons/analysis</text>
<text text-anchor="middle" x="692" y="-86" font-family="Helvetica,sans-Serif" font-size="10.00">_codes/Math.h</text>
</g>
<!-- Node25 -->
<g id="node2" class="node"><title>Node25</title>
<g id="a_node2"><a xlink:href="_ant-mc-pi0gun_8cc.html" target="_top" xlink:title="progs/Ant&#45;mc&#45;pi0gun.cc">
<polygon fill="white" stroke="black" points="0,-11.5 0,-30.5 120,-30.5 120,-11.5 0,-11.5"/>
<text text-anchor="middle" x="60" y="-18.5" font-family="Helvetica,sans-Serif" font-size="10.00">progs/Ant&#45;mc&#45;pi0gun.cc</text>
</a>
</g>
</g>
<!-- Node24&#45;&gt;Node25 -->
<g id="edge1" class="edge"><title>Node24&#45;&gt;Node25</title>
<path fill="none" stroke="midnightblue" d="M620.143,-90.8961C512.527,-86.7554 303.485,-74.8756 129,-42 114.292,-39.2288 98.2117,-34.6611 85.2773,-30.59"/>
<polygon fill="midnightblue" stroke="midnightblue" points="620.112,-94.3973 630.236,-91.2731 620.373,-87.4022 620.112,-94.3973"/>
</g>
<!-- Node26 -->
<g id="node3" class="node"><title>Node26</title>
<g id="a_node3"><a xlink:href="_etap_omega_g__fit_8cc.html" target="_top" xlink:title="progs/EtapOmegaG_fit.cc">
<polygon fill="white" stroke="black" points="138,-11.5 138,-30.5 268,-30.5 268,-11.5 138,-11.5"/>
<text text-anchor="middle" x="203" y="-18.5" font-family="Helvetica,sans-Serif" font-size="10.00">progs/EtapOmegaG_fit.cc</text>
</a>
</g>
</g>
<!-- Node24&#45;&gt;Node26 -->
<g id="edge2" class="edge"><title>Node24&#45;&gt;Node26</title>
<path fill="none" stroke="midnightblue" d="M620.304,-87.2974C537.19,-79.9701 396.338,-65.3376 277,-42 261.588,-38.9861 244.662,-34.5014 230.892,-30.5421"/>
<polygon fill="midnightblue" stroke="midnightblue" points="620.13,-90.7954 630.396,-88.1762 620.738,-83.8218 620.13,-90.7954"/>
</g>
<!-- Node27 -->
<g id="node4" class="node"><title>Node27</title>
<g id="a_node4"><a xlink:href="_omega_eta_g__fit_8cc.html" target="_top" xlink:title="progs/OmegaEtaG_fit.cc">
<polygon fill="white" stroke="black" points="286.5,-11.5 286.5,-30.5 411.5,-30.5 411.5,-11.5 286.5,-11.5"/>
<text text-anchor="middle" x="349" y="-18.5" font-family="Helvetica,sans-Serif" font-size="10.00">progs/OmegaEtaG_fit.cc</text>
</a>
</g>
</g>
<!-- Node24&#45;&gt;Node27 -->
<g id="edge3" class="edge"><title>Node24&#45;&gt;Node27</title>
<path fill="none" stroke="midnightblue" d="M620.372,-81.2295C565.538,-71.8065 488.164,-57.6185 421,-42 406.595,-38.6502 390.741,-34.3177 377.586,-30.5421"/>
<polygon fill="midnightblue" stroke="midnightblue" points="619.894,-84.6985 630.34,-82.9328 621.073,-77.7985 619.894,-84.6985"/>
</g>
<!-- Node28 -->
<g id="node5" class="node"><title>Node28</title>
<g id="a_node5"><a xlink:href="_single_pi0__fit_8cc.html" target="_top" xlink:title="progs/SinglePi0_fit.cc">
<polygon fill="white" stroke="black" points="430,-11.5 430,-30.5 542,-30.5 542,-11.5 430,-11.5"/>
<text text-anchor="middle" x="486" y="-18.5" font-family="Helvetica,sans-Serif" font-size="10.00">progs/SinglePi0_fit.cc</text>
</a>
</g>
</g>
<!-- Node24&#45;&gt;Node28 -->
<g id="edge4" class="edge"><title>Node24&#45;&gt;Node28</title>
<path fill="none" stroke="midnightblue" d="M641.638,-75.6422C600.123,-61.3336 543.006,-41.6475 510.767,-30.5361"/>
<polygon fill="midnightblue" stroke="midnightblue" points="640.706,-79.0231 651.301,-78.9727 642.987,-72.4051 640.706,-79.0231"/>
</g>
<!-- Node29 -->
<g id="node6" class="node"><title>Node29</title>
<g id="a_node6"><a xlink:href="_fits_8cc.html" target="_top" xlink:title="src/root&#45;addons/analysis\l_codes/Fits.cc">
<polygon fill="white" stroke="black" points="560.5,-6 560.5,-36 683.5,-36 683.5,-6 560.5,-6"/>
<text text-anchor="start" x="568.5" y="-24" font-family="Helvetica,sans-Serif" font-size="10.00">src/root&#45;addons/analysis</text>
<text text-anchor="middle" x="622" y="-13" font-family="Helvetica,sans-Serif" font-size="10.00">_codes/Fits.cc</text>
</a>
</g>
</g>
<!-- Node24&#45;&gt;Node29 -->
<g id="edge5" class="edge"><title>Node24&#45;&gt;Node29</title>
<path fill="none" stroke="midnightblue" d="M670.856,-71.5539C659.669,-60.2075 646.231,-46.5768 636.282,-36.4856"/>
<polygon fill="midnightblue" stroke="midnightblue" points="668.657,-74.3089 678.17,-78.9727 673.642,-69.3943 668.657,-74.3089"/>
</g>
<!-- Node30 -->
<g id="node7" class="node"><title>Node30</title>
<g id="a_node7"><a xlink:href="root-addons_2analysis__codes_2math_8cc.html" target="_top" xlink:title="src/root&#45;addons/analysis\l_codes/Math.cc">
<polygon fill="white" stroke="black" points="701.5,-6 701.5,-36 824.5,-36 824.5,-6 701.5,-6"/>
<text text-anchor="start" x="709.5" y="-24" font-family="Helvetica,sans-Serif" font-size="10.00">src/root&#45;addons/analysis</text>
<text text-anchor="middle" x="763" y="-13" font-family="Helvetica,sans-Serif" font-size="10.00">_codes/Math.cc</text>
</a>
</g>
</g>
<!-- Node24&#45;&gt;Node30 -->
<g id="edge6" class="edge"><title>Node24&#45;&gt;Node30</title>
<path fill="none" stroke="midnightblue" d="M713.119,-71.8806C724.53,-60.4699 738.326,-46.6738 748.514,-36.4856"/>
<polygon fill="midnightblue" stroke="midnightblue" points="710.624,-69.4267 706.027,-78.9727 715.573,-74.3765 710.624,-69.4267"/>
</g>
<!-- Node31 -->
<g id="node8" class="node"><title>Node31</title>
<g id="a_node8"><a xlink:href="_omega_8cc.html" target="_top" xlink:title="src/root&#45;addons/analysis\l_codes/Omega.cc">
<polygon fill="white" stroke="black" points="842.5,-6 842.5,-36 965.5,-36 965.5,-6 842.5,-6"/>
<text text-anchor="start" x="850.5" y="-24" font-family="Helvetica,sans-Serif" font-size="10.00">src/root&#45;addons/analysis</text>
<text text-anchor="middle" x="904" y="-13" font-family="Helvetica,sans-Serif" font-size="10.00">_codes/Omega.cc</text>
</a>
</g>
</g>
<!-- Node24&#45;&gt;Node31 -->
<g id="edge7" class="edge"><title>Node24&#45;&gt;Node31</title>
<path fill="none" stroke="midnightblue" d="M743.785,-75.657C780.051,-63.5112 827.903,-47.4854 861.84,-36.1195"/>
<polygon fill="midnightblue" stroke="midnightblue" points="742.255,-72.4781 733.884,-78.9727 744.478,-79.1158 742.255,-72.4781"/>
</g>
<!-- Node32 -->
<g id="node9" class="node"><title>Node32</title>
<g id="a_node9"><a xlink:href="pi0_8cc.html" target="_top" xlink:title="src/root&#45;addons/analysis\l_codes/pi0.cc">
<polygon fill="white" stroke="black" points="983.5,-6 983.5,-36 1106.5,-36 1106.5,-6 983.5,-6"/>
<text text-anchor="start" x="991.5" y="-24" font-family="Helvetica,sans-Serif" font-size="10.00">src/root&#45;addons/analysis</text>
<text text-anchor="middle" x="1045" y="-13" font-family="Helvetica,sans-Serif" font-size="10.00">_codes/pi0.cc</text>
</a>
</g>
</g>
<!-- Node24&#45;&gt;Node32 -->
<g id="edge8" class="edge"><title>Node24&#45;&gt;Node32</title>
<path fill="none" stroke="midnightblue" d="M763.714,-81.9752C820.94,-72.7108 902.999,-58.3808 974,-42 981.612,-40.2439 989.627,-38.1891 997.422,-36.0777"/>
<polygon fill="midnightblue" stroke="midnightblue" points="763,-78.545 753.682,-83.5885 764.111,-85.4562 763,-78.545"/>
</g>
<!-- Node33 -->
<g id="node10" class="node"><title>Node33</title>
<g id="a_node10"><a xlink:href="pi0__true__calib_8cc.html" target="_top" xlink:title="src/root&#45;addons/analysis\l_codes/pi0_true_calib.cc">
<polygon fill="white" stroke="black" points="1124.5,-6 1124.5,-36 1249.5,-36 1249.5,-6 1124.5,-6"/>
<text text-anchor="start" x="1132.5" y="-24" font-family="Helvetica,sans-Serif" font-size="10.00">src/root&#45;addons/analysis</text>
<text text-anchor="middle" x="1187" y="-13" font-family="Helvetica,sans-Serif" font-size="10.00">_codes/pi0_true_calib.cc</text>
</a>
</g>
</g>
<!-- Node24&#45;&gt;Node33 -->
<g id="edge9" class="edge"><title>Node24&#45;&gt;Node33</title>
<path fill="none" stroke="midnightblue" d="M763.763,-87.6709C848.328,-80.6268 992.805,-66.1942 1115,-42 1123.27,-40.3622 1131.99,-38.2667 1140.38,-36.0515"/>
<polygon fill="midnightblue" stroke="midnightblue" points="763.433,-84.1862 753.753,-88.4935 764.006,-91.1627 763.433,-84.1862"/>
</g>
<!-- Node34 -->
<g id="node11" class="node"><title>Node34</title>
<g id="a_node11"><a xlink:href="_two_pi0___m_c_smearing__tools_8cc.html" target="_top" xlink:title="src/root&#45;addons/analysis\l_codes/TwoPi0_MCSmearing\l_tools.cc">
<polygon fill="white" stroke="black" points="1268,-0.5 1268,-41.5 1414,-41.5 1414,-0.5 1268,-0.5"/>
<text text-anchor="start" x="1276" y="-29.5" font-family="Helvetica,sans-Serif" font-size="10.00">src/root&#45;addons/analysis</text>
<text text-anchor="start" x="1276" y="-18.5" font-family="Helvetica,sans-Serif" font-size="10.00">_codes/TwoPi0_MCSmearing</text>
<text text-anchor="middle" x="1341" y="-7.5" font-family="Helvetica,sans-Serif" font-size="10.00">_tools.cc</text>
</a>
</g>
</g>
<!-- Node24&#45;&gt;Node34 -->
<g id="edge10" class="edge"><title>Node24&#45;&gt;Node34</title>
<path fill="none" stroke="midnightblue" d="M763.625,-89.916C871.452,-84.5145 1081.64,-71.0327 1258,-42 1261.22,-41.4703 1264.5,-40.884 1267.8,-40.2546"/>
<polygon fill="midnightblue" stroke="midnightblue" points="763.33,-86.4262 753.514,-90.4138 763.674,-93.4177 763.33,-86.4262"/>
</g>
</g>
</svg>
