<?xml version="1.0" encoding="UTF-8" standalone="no"?>
<!DOCTYPE svg PUBLIC "-//W3C//DTD SVG 1.1//EN"
 "http://www.w3.org/Graphics/SVG/1.1/DTD/svg11.dtd">
<!-- Generated by graphviz version 2.36.0 (20140111.2315)
 -->
<!-- Title: ant::Detector_t Pages: 1 -->
<svg width="608pt" height="961pt"
 viewBox="0.00 0.00 608.00 961.00" xmlns="http://www.w3.org/2000/svg" xmlns:xlink="http://www.w3.org/1999/xlink">
<g id="graph0" class="graph" transform="scale(1 1) rotate(0) translate(4 957)">
<title>ant::Detector_t</title>
<polygon fill="white" stroke="none" points="-4,4 -4,-957 604,-957 604,4 -4,4"/>
<!-- Node0 -->
<g id="node1" class="node"><title>Node0</title>
<polygon fill="#bfbfbf" stroke="black" points="0,-462.5 0,-481.5 82,-481.5 82,-462.5 0,-462.5"/>
<text text-anchor="middle" x="41" y="-469.5" font-family="Helvetica,sans-Serif" font-size="10.00">ant::Detector_t</text>
</g>
<!-- Node1 -->
<g id="node2" class="node"><title>Node1</title>
<g id="a_node2"><a xlink:href="structant_1_1_cluster_detector__t.html" target="_top" xlink:title="ant::ClusterDetector_t">
<polygon fill="white" stroke="black" points="133.5,-879.5 133.5,-898.5 246.5,-898.5 246.5,-879.5 133.5,-879.5"/>
<text text-anchor="middle" x="190" y="-886.5" font-family="Helvetica,sans-Serif" font-size="10.00">ant::ClusterDetector_t</text>
</a>
</g>
</g>
<!-- Node0&#45;&gt;Node1 -->
<g id="edge1" class="edge"><title>Node0&#45;&gt;Node1</title>
<path fill="none" stroke="midnightblue" d="M46.5213,-491.512C57.0009,-535.719 84.6221,-646.617 118,-736 138.796,-791.689 171.255,-855.265 183.804,-879.203"/>
<polygon fill="midnightblue" stroke="midnightblue" points="49.9257,-490.699 44.2332,-481.764 43.1109,-492.299 49.9257,-490.699"/>
</g>
<!-- Node7 -->
<g id="node8" class="node"><title>Node7</title>
<g id="a_node8"><a xlink:href="structant_1_1expconfig_1_1detector_1_1_cherenkov.html" target="_top" xlink:title="ant::expconfig::detector\l::Cherenkov">
<polygon fill="white" stroke="black" points="130.5,-697 130.5,-727 249.5,-727 249.5,-697 130.5,-697"/>
<text text-anchor="start" x="138.5" y="-715" font-family="Helvetica,sans-Serif" font-size="10.00">ant::expconfig::detector</text>
<text text-anchor="middle" x="190" y="-704" font-family="Helvetica,sans-Serif" font-size="10.00">::Cherenkov</text>
</a>
</g>
</g>
<!-- Node0&#45;&gt;Node7 -->
<g id="edge7" class="edge"><title>Node0&#45;&gt;Node7</title>
<path fill="none" stroke="midnightblue" d="M43.4035,-491.666C47.4265,-533.425 62.5769,-631.645 118,-687 121.883,-690.879 126.404,-694.158 131.247,-696.929"/>
<polygon fill="midnightblue" stroke="midnightblue" points="46.8892,-491.348 42.5551,-481.681 39.9143,-491.941 46.8892,-491.348"/>
</g>
<!-- Node8 -->
<g id="node9" class="node"><title>Node8</title>
<g id="a_node9"><a xlink:href="structant_1_1expconfig_1_1detector_1_1_p_i_d.html" target="_top" xlink:title="ant::expconfig::detector::PID">
<polygon fill="white" stroke="black" points="118.5,-658.5 118.5,-677.5 261.5,-677.5 261.5,-658.5 118.5,-658.5"/>
<text text-anchor="middle" x="190" y="-665.5" font-family="Helvetica,sans-Serif" font-size="10.00">ant::expconfig::detector::PID</text>
</a>
</g>
</g>
<!-- Node0&#45;&gt;Node8 -->
<g id="edge8" class="edge"><title>Node0&#45;&gt;Node8</title>
<path fill="none" stroke="midnightblue" d="M55.3779,-489.837C85.6013,-530.135 158.337,-627.116 181.666,-658.222"/>
<polygon fill="midnightblue" stroke="midnightblue" points="58.0898,-487.62 49.2898,-481.72 52.4898,-491.82 58.0898,-487.62"/>
</g>
<!-- Node15 -->
<g id="node16" class="node"><title>Node15</title>
<g id="a_node16"><a xlink:href="structant_1_1expconfig_1_1detector_1_1_t_a_p_s_veto.html" target="_top" xlink:title="ant::expconfig::detector\l::TAPSVeto">
<polygon fill="white" stroke="black" points="130.5,-457 130.5,-487 249.5,-487 249.5,-457 130.5,-457"/>
<text text-anchor="start" x="138.5" y="-475" font-family="Helvetica,sans-Serif" font-size="10.00">ant::expconfig::detector</text>
<text text-anchor="middle" x="190" y="-464" font-family="Helvetica,sans-Serif" font-size="10.00">::TAPSVeto</text>
</a>
</g>
</g>
<!-- Node0&#45;&gt;Node15 -->
<g id="edge15" class="edge"><title>Node0&#45;&gt;Node15</title>
<path fill="none" stroke="midnightblue" d="M92.2281,-472C104.516,-472 117.772,-472 130.413,-472"/>
<polygon fill="midnightblue" stroke="midnightblue" points="92.1684,-468.5 82.1684,-472 92.1684,-475.5 92.1684,-468.5"/>
</g>
<!-- Node20 -->
<g id="node21" class="node"><title>Node20</title>
<g id="a_node21"><a xlink:href="structant_1_1expconfig_1_1detector_1_1_trigger.html" target="_top" xlink:title="ant::expconfig::detector\l::Trigger">
<polygon fill="white" stroke="black" points="130.5,-335 130.5,-365 249.5,-365 249.5,-335 130.5,-335"/>
<text text-anchor="start" x="138.5" y="-353" font-family="Helvetica,sans-Serif" font-size="10.00">ant::expconfig::detector</text>
<text text-anchor="middle" x="190" y="-342" font-family="Helvetica,sans-Serif" font-size="10.00">::Trigger</text>
</a>
</g>
</g>
<!-- Node0&#45;&gt;Node20 -->
<g id="edge20" class="edge"><title>Node0&#45;&gt;Node20</title>
<path fill="none" stroke="midnightblue" d="M61.5786,-455.751C90.1777,-432.016 142.988,-388.187 170.791,-365.113"/>
<polygon fill="midnightblue" stroke="midnightblue" points="58.9947,-453.347 53.5348,-462.427 63.4652,-458.734 58.9947,-453.347"/>
</g>
<!-- Node23 -->
<g id="node24" class="node"><title>Node23</title>
<g id="a_node24"><a xlink:href="structant_1_1_tagger_detector__t.html" target="_top" xlink:title="ant::TaggerDetector_t">
<polygon fill="white" stroke="black" points="134,-272.5 134,-291.5 246,-291.5 246,-272.5 134,-272.5"/>
<text text-anchor="middle" x="190" y="-279.5" font-family="Helvetica,sans-Serif" font-size="10.00">ant::TaggerDetector_t</text>
</a>
</g>
</g>
<!-- Node0&#45;&gt;Node23 -->
<g id="edge23" class="edge"><title>Node0&#45;&gt;Node23</title>
<path fill="none" stroke="midnightblue" d="M48.177,-452.559C58.5681,-422.322 82.005,-363.506 118,-325 131.679,-310.367 151.435,-298.947 166.636,-291.566"/>
<polygon fill="midnightblue" stroke="midnightblue" points="44.7671,-451.722 44.9398,-462.316 51.411,-453.927 44.7671,-451.722"/>
</g>
<!-- Node33 -->
<g id="node34" class="node"><title>Node33</title>
<g id="a_node34"><a xlink:href="struct_test_detector__t.html" target="_top" xlink:title="TestDetector_t">
<polygon fill="white" stroke="black" points="149,-234.5 149,-253.5 231,-253.5 231,-234.5 149,-234.5"/>
<text text-anchor="middle" x="190" y="-241.5" font-family="Helvetica,sans-Serif" font-size="10.00">TestDetector_t</text>
</a>
</g>
</g>
<!-- Node0&#45;&gt;Node33 -->
<g id="edge33" class="edge"><title>Node0&#45;&gt;Node33</title>
<path fill="none" stroke="midnightblue" d="M43.2884,-452.277C47.0805,-410.877 61.7973,-314.499 118,-263 126.467,-255.242 137.756,-250.59 148.836,-247.82"/>
<polygon fill="midnightblue" stroke="midnightblue" points="39.7862,-452.168 42.4832,-462.413 46.7642,-452.722 39.7862,-452.168"/>
</g>
<!-- Node2 -->
<g id="node3" class="node"><title>Node2</title>
<g id="a_node3"><a xlink:href="structant_1_1expconfig_1_1detector_1_1_c_b.html" target="_top" xlink:title="ant::expconfig::detector::CB">
<polygon fill="white" stroke="black" points="301,-923.5 301,-942.5 441,-942.5 441,-923.5 301,-923.5"/>
<text text-anchor="middle" x="371" y="-930.5" font-family="Helvetica,sans-Serif" font-size="10.00">ant::expconfig::detector::CB</text>
</a>
</g>
</g>
<!-- Node1&#45;&gt;Node2 -->
<g id="edge2" class="edge"><title>Node1&#45;&gt;Node2</title>
<path fill="none" stroke="midnightblue" d="M239.692,-900.969C268.464,-908.041 304.395,-916.874 331.235,-923.471"/>
<polygon fill="midnightblue" stroke="midnightblue" points="240.387,-897.536 229.84,-898.547 238.716,-904.333 240.387,-897.536"/>
</g>
<!-- Node3 -->
<g id="node4" class="node"><title>Node3</title>
<g id="a_node4"><a xlink:href="structant_1_1expconfig_1_1detector_1_1_t_a_p_s.html" target="_top" xlink:title="ant::expconfig::detector\l::TAPS">
<polygon fill="white" stroke="black" points="311.5,-874 311.5,-904 430.5,-904 430.5,-874 311.5,-874"/>
<text text-anchor="start" x="319.5" y="-892" font-family="Helvetica,sans-Serif" font-size="10.00">ant::expconfig::detector</text>
<text text-anchor="middle" x="371" y="-881" font-family="Helvetica,sans-Serif" font-size="10.00">::TAPS</text>
</a>
</g>
</g>
<!-- Node1&#45;&gt;Node3 -->
<g id="edge3" class="edge"><title>Node1&#45;&gt;Node3</title>
<path fill="none" stroke="midnightblue" d="M256.959,-889C274.762,-889 293.903,-889 311.28,-889"/>
<polygon fill="midnightblue" stroke="midnightblue" points="256.656,-885.5 246.656,-889 256.655,-892.5 256.656,-885.5"/>
</g>
<!-- Node4 -->
<g id="node5" class="node"><title>Node4</title>
<g id="a_node5"><a xlink:href="structant_1_1expconfig_1_1detector_1_1_t_a_p_s__2007.html" target="_top" xlink:title="ant::expconfig::detector\l::TAPS_2007">
<polygon fill="white" stroke="black" points="480.5,-923 480.5,-953 599.5,-953 599.5,-923 480.5,-923"/>
<text text-anchor="start" x="488.5" y="-941" font-family="Helvetica,sans-Serif" font-size="10.00">ant::expconfig::detector</text>
<text text-anchor="middle" x="540" y="-930" font-family="Helvetica,sans-Serif" font-size="10.00">::TAPS_2007</text>
</a>
</g>
</g>
<!-- Node3&#45;&gt;Node4 -->
<g id="edge4" class="edge"><title>Node3&#45;&gt;Node4</title>
<path fill="none" stroke="midnightblue" d="M433.234,-906.967C451.127,-912.217 470.492,-917.899 487.702,-922.948"/>
<polygon fill="midnightblue" stroke="midnightblue" points="434.049,-903.559 423.468,-904.101 432.078,-910.275 434.049,-903.559"/>
</g>
<!-- Node5 -->
<g id="node6" class="node"><title>Node5</title>
<g id="a_node6"><a xlink:href="structant_1_1expconfig_1_1detector_1_1_t_a_p_s__2009__03.html" target="_top" xlink:title="ant::expconfig::detector\l::TAPS_2009_03">
<polygon fill="white" stroke="black" points="480.5,-874 480.5,-904 599.5,-904 599.5,-874 480.5,-874"/>
<text text-anchor="start" x="488.5" y="-892" font-family="Helvetica,sans-Serif" font-size="10.00">ant::expconfig::detector</text>
<text text-anchor="middle" x="540" y="-881" font-family="Helvetica,sans-Serif" font-size="10.00">::TAPS_2009_03</text>
</a>
</g>
</g>
<!-- Node3&#45;&gt;Node5 -->
<g id="edge5" class="edge"><title>Node3&#45;&gt;Node5</title>
<path fill="none" stroke="midnightblue" d="M441.193,-889C454.213,-889 467.713,-889 480.372,-889"/>
<polygon fill="midnightblue" stroke="midnightblue" points="440.878,-885.5 430.878,-889 440.878,-892.5 440.878,-885.5"/>
</g>
<!-- Node6 -->
<g id="node7" class="node"><title>Node6</title>
<g id="a_node7"><a xlink:href="structant_1_1expconfig_1_1detector_1_1_t_a_p_s__2013__11.html" target="_top" xlink:title="ant::expconfig::detector\l::TAPS_2013_11">
<polygon fill="white" stroke="black" points="480.5,-825 480.5,-855 599.5,-855 599.5,-825 480.5,-825"/>
<text text-anchor="start" x="488.5" y="-843" font-family="Helvetica,sans-Serif" font-size="10.00">ant::expconfig::detector</text>
<text text-anchor="middle" x="540" y="-832" font-family="Helvetica,sans-Serif" font-size="10.00">::TAPS_2013_11</text>
</a>
</g>
</g>
<!-- Node3&#45;&gt;Node6 -->
<g id="edge6" class="edge"><title>Node3&#45;&gt;Node6</title>
<path fill="none" stroke="midnightblue" d="M433.234,-871.033C451.127,-865.783 470.492,-860.101 487.702,-855.052"/>
<polygon fill="midnightblue" stroke="midnightblue" points="432.078,-867.725 423.468,-873.899 434.049,-874.441 432.078,-867.725"/>
</g>
<!-- Node9 -->
<g id="node10" class="node"><title>Node9</title>
<g id="a_node10"><a xlink:href="structant_1_1expconfig_1_1detector_1_1_p_i_d__2004.html" target="_top" xlink:title="ant::expconfig::detector\l::PID_2004">
<polygon fill="white" stroke="black" points="311.5,-825 311.5,-855 430.5,-855 430.5,-825 311.5,-825"/>
<text text-anchor="start" x="319.5" y="-843" font-family="Helvetica,sans-Serif" font-size="10.00">ant::expconfig::detector</text>
<text text-anchor="middle" x="371" y="-832" font-family="Helvetica,sans-Serif" font-size="10.00">::PID_2004</text>
</a>
</g>
</g>
<!-- Node8&#45;&gt;Node9 -->
<g id="edge9" class="edge"><title>Node8&#45;&gt;Node9</title>
<path fill="none" stroke="midnightblue" d="M255.834,-682.815C258.028,-684.377 260.097,-686.1 262,-688 303.519,-729.451 257.735,-772.33 298,-815 301.814,-819.042 306.315,-822.431 311.174,-825.271"/>
<polygon fill="midnightblue" stroke="midnightblue" points="257.232,-679.578 246.833,-677.553 253.699,-685.621 257.232,-679.578"/>
</g>
<!-- Node10 -->
<g id="node11" class="node"><title>Node10</title>
<g id="a_node11"><a xlink:href="structant_1_1expconfig_1_1detector_1_1_p_i_d__2007.html" target="_top" xlink:title="ant::expconfig::detector\l::PID_2007">
<polygon fill="white" stroke="black" points="311.5,-776 311.5,-806 430.5,-806 430.5,-776 311.5,-776"/>
<text text-anchor="start" x="319.5" y="-794" font-family="Helvetica,sans-Serif" font-size="10.00">ant::expconfig::detector</text>
<text text-anchor="middle" x="371" y="-783" font-family="Helvetica,sans-Serif" font-size="10.00">::PID_2007</text>
</a>
</g>
</g>
<!-- Node8&#45;&gt;Node10 -->
<g id="edge10" class="edge"><title>Node8&#45;&gt;Node10</title>
<path fill="none" stroke="midnightblue" d="M253.819,-682.189C256.717,-683.91 259.467,-685.839 262,-688 291.042,-712.786 269.709,-740.36 298,-766 302.216,-769.821 307.047,-773.064 312.167,-775.815"/>
<polygon fill="midnightblue" stroke="midnightblue" points="255.258,-678.995 244.752,-677.624 252.11,-685.247 255.258,-678.995"/>
</g>
<!-- Node11 -->
<g id="node12" class="node"><title>Node11</title>
<g id="a_node12"><a xlink:href="structant_1_1expconfig_1_1detector_1_1_p_i_d__2009__05.html" target="_top" xlink:title="ant::expconfig::detector\l::PID_2009_05">
<polygon fill="white" stroke="black" points="311.5,-727 311.5,-757 430.5,-757 430.5,-727 311.5,-727"/>
<text text-anchor="start" x="319.5" y="-745" font-family="Helvetica,sans-Serif" font-size="10.00">ant::expconfig::detector</text>
<text text-anchor="middle" x="371" y="-734" font-family="Helvetica,sans-Serif" font-size="10.00">::PID_2009_05</text>
</a>
</g>
</g>
<!-- Node8&#45;&gt;Node11 -->
<g id="edge11" class="edge"><title>Node8&#45;&gt;Node11</title>
<path fill="none" stroke="midnightblue" d="M245.332,-680.825C251.088,-682.91 256.751,-685.292 262,-688 280.258,-697.421 280.031,-707.039 298,-717 304.712,-720.721 312.079,-724.039 319.459,-726.946"/>
<polygon fill="midnightblue" stroke="midnightblue" points="246.205,-677.427 235.611,-677.591 243.995,-684.069 246.205,-677.427"/>
</g>
<!-- Node12 -->
<g id="node13" class="node"><title>Node12</title>
<g id="a_node13"><a xlink:href="structant_1_1expconfig_1_1detector_1_1_p_i_d__2009__06.html" target="_top" xlink:title="ant::expconfig::detector\l::PID_2009_06">
<polygon fill="white" stroke="black" points="311.5,-678 311.5,-708 430.5,-708 430.5,-678 311.5,-678"/>
<text text-anchor="start" x="319.5" y="-696" font-family="Helvetica,sans-Serif" font-size="10.00">ant::expconfig::detector</text>
<text text-anchor="middle" x="371" y="-685" font-family="Helvetica,sans-Serif" font-size="10.00">::PID_2009_06</text>
</a>
</g>
</g>
<!-- Node8&#45;&gt;Node12 -->
<g id="edge12" class="edge"><title>Node8&#45;&gt;Node12</title>
<path fill="none" stroke="midnightblue" d="M269.363,-678.945C283.462,-680.914 297.936,-682.935 311.356,-684.809"/>
<polygon fill="midnightblue" stroke="midnightblue" points="269.571,-675.44 259.183,-677.523 268.603,-682.372 269.571,-675.44"/>
</g>
<!-- Node13 -->
<g id="node14" class="node"><title>Node13</title>
<g id="a_node14"><a xlink:href="structant_1_1expconfig_1_1detector_1_1_p_i_d__2009__07.html" target="_top" xlink:title="ant::expconfig::detector\l::PID_2009_07">
<polygon fill="white" stroke="black" points="311.5,-629 311.5,-659 430.5,-659 430.5,-629 311.5,-629"/>
<text text-anchor="start" x="319.5" y="-647" font-family="Helvetica,sans-Serif" font-size="10.00">ant::expconfig::detector</text>
<text text-anchor="middle" x="371" y="-636" font-family="Helvetica,sans-Serif" font-size="10.00">::PID_2009_07</text>
</a>
</g>
</g>
<!-- Node8&#45;&gt;Node13 -->
<g id="edge13" class="edge"><title>Node8&#45;&gt;Node13</title>
<path fill="none" stroke="midnightblue" d="M271.839,-657.161C285.13,-655.379 298.678,-653.563 311.296,-651.871"/>
<polygon fill="midnightblue" stroke="midnightblue" points="271.192,-653.717 261.746,-658.515 272.122,-660.655 271.192,-653.717"/>
</g>
<!-- Node14 -->
<g id="node15" class="node"><title>Node14</title>
<g id="a_node15"><a xlink:href="structant_1_1expconfig_1_1detector_1_1_p_i_d__2014.html" target="_top" xlink:title="ant::expconfig::detector\l::PID_2014">
<polygon fill="white" stroke="black" points="311.5,-580 311.5,-610 430.5,-610 430.5,-580 311.5,-580"/>
<text text-anchor="start" x="319.5" y="-598" font-family="Helvetica,sans-Serif" font-size="10.00">ant::expconfig::detector</text>
<text text-anchor="middle" x="371" y="-587" font-family="Helvetica,sans-Serif" font-size="10.00">::PID_2014</text>
</a>
</g>
</g>
<!-- Node8&#45;&gt;Node14 -->
<g id="edge14" class="edge"><title>Node8&#45;&gt;Node14</title>
<path fill="none" stroke="midnightblue" d="M220.065,-654.131C241.42,-644.146 271.252,-630.62 298,-620 306.609,-616.582 315.893,-613.164 324.839,-610.002"/>
<polygon fill="midnightblue" stroke="midnightblue" points="218.45,-651.023 210.892,-658.447 221.43,-657.357 218.45,-651.023"/>
</g>
<!-- Node16 -->
<g id="node17" class="node"><title>Node16</title>
<g id="a_node17"><a xlink:href="structant_1_1expconfig_1_1detector_1_1_t_a_p_s_veto__2007.html" target="_top" xlink:title="ant::expconfig::detector\l::TAPSVeto_2007">
<polygon fill="white" stroke="black" points="311.5,-531 311.5,-561 430.5,-561 430.5,-531 311.5,-531"/>
<text text-anchor="start" x="319.5" y="-549" font-family="Helvetica,sans-Serif" font-size="10.00">ant::expconfig::detector</text>
<text text-anchor="middle" x="371" y="-538" font-family="Helvetica,sans-Serif" font-size="10.00">::TAPSVeto_2007</text>
</a>
</g>
</g>
<!-- Node15&#45;&gt;Node16 -->
<g id="edge16" class="edge"><title>Node15&#45;&gt;Node16</title>
<path fill="none" stroke="midnightblue" d="M231.116,-491.47C251.034,-500.853 275.576,-511.996 298,-521 306.473,-524.402 315.609,-527.786 324.435,-530.915"/>
<polygon fill="midnightblue" stroke="midnightblue" points="232.563,-488.282 222.028,-487.159 229.564,-494.607 232.563,-488.282"/>
</g>
<!-- Node17 -->
<g id="node18" class="node"><title>Node17</title>
<g id="a_node18"><a xlink:href="structant_1_1expconfig_1_1detector_1_1_t_a_p_s_veto__2009__03.html" target="_top" xlink:title="ant::expconfig::detector\l::TAPSVeto_2009_03">
<polygon fill="white" stroke="black" points="311.5,-482 311.5,-512 430.5,-512 430.5,-482 311.5,-482"/>
<text text-anchor="start" x="319.5" y="-500" font-family="Helvetica,sans-Serif" font-size="10.00">ant::expconfig::detector</text>
<text text-anchor="middle" x="371" y="-489" font-family="Helvetica,sans-Serif" font-size="10.00">::TAPSVeto_2009_03</text>
</a>
</g>
</g>
<!-- Node15&#45;&gt;Node17 -->
<g id="edge17" class="edge"><title>Node15&#45;&gt;Node17</title>
<path fill="none" stroke="midnightblue" d="M259.991,-481.636C276.912,-483.999 294.868,-486.507 311.257,-488.796"/>
<polygon fill="midnightblue" stroke="midnightblue" points="259.999,-478.103 249.611,-480.186 259.031,-485.036 259.999,-478.103"/>
</g>
<!-- Node18 -->
<g id="node19" class="node"><title>Node18</title>
<g id="a_node19"><a xlink:href="structant_1_1expconfig_1_1detector_1_1_t_a_p_s_veto__2013__11.html" target="_top" xlink:title="ant::expconfig::detector\l::TAPSVeto_2013_11">
<polygon fill="white" stroke="black" points="311.5,-433 311.5,-463 430.5,-463 430.5,-433 311.5,-433"/>
<text text-anchor="start" x="319.5" y="-451" font-family="Helvetica,sans-Serif" font-size="10.00">ant::expconfig::detector</text>
<text text-anchor="middle" x="371" y="-440" font-family="Helvetica,sans-Serif" font-size="10.00">::TAPSVeto_2013_11</text>
</a>
</g>
</g>
<!-- Node15&#45;&gt;Node18 -->
<g id="edge18" class="edge"><title>Node15&#45;&gt;Node18</title>
<path fill="none" stroke="midnightblue" d="M259.991,-462.75C276.912,-460.481 294.868,-458.074 311.257,-455.876"/>
<polygon fill="midnightblue" stroke="midnightblue" points="259.057,-459.344 249.611,-464.142 259.988,-466.281 259.057,-459.344"/>
</g>
<!-- Node19 -->
<g id="node20" class="node"><title>Node19</title>
<g id="a_node20"><a xlink:href="structant_1_1expconfig_1_1detector_1_1_t_a_p_s_veto__2014.html" target="_top" xlink:title="ant::expconfig::detector\l::TAPSVeto_2014">
<polygon fill="white" stroke="black" points="311.5,-384 311.5,-414 430.5,-414 430.5,-384 311.5,-384"/>
<text text-anchor="start" x="319.5" y="-402" font-family="Helvetica,sans-Serif" font-size="10.00">ant::expconfig::detector</text>
<text text-anchor="middle" x="371" y="-391" font-family="Helvetica,sans-Serif" font-size="10.00">::TAPSVeto_2014</text>
</a>
</g>
</g>
<!-- Node15&#45;&gt;Node19 -->
<g id="edge19" class="edge"><title>Node15&#45;&gt;Node19</title>
<path fill="none" stroke="midnightblue" d="M230.633,-452.615C250.615,-443.159 275.356,-431.929 298,-423 305.845,-419.907 314.267,-416.86 322.488,-414.03"/>
<polygon fill="midnightblue" stroke="midnightblue" points="229.045,-449.495 221.524,-456.958 232.057,-455.813 229.045,-449.495"/>
</g>
<!-- Node21 -->
<g id="node22" class="node"><title>Node21</title>
<g id="a_node22"><a xlink:href="structant_1_1expconfig_1_1detector_1_1_trigger__2007.html" target="_top" xlink:title="ant::expconfig::detector\l::Trigger_2007">
<polygon fill="white" stroke="black" points="311.5,-335 311.5,-365 430.5,-365 430.5,-335 311.5,-335"/>
<text text-anchor="start" x="319.5" y="-353" font-family="Helvetica,sans-Serif" font-size="10.00">ant::expconfig::detector</text>
<text text-anchor="middle" x="371" y="-342" font-family="Helvetica,sans-Serif" font-size="10.00">::Trigger_2007</text>
</a>
</g>
</g>
<!-- Node20&#45;&gt;Node21 -->
<g id="edge21" class="edge"><title>Node20&#45;&gt;Node21</title>
<path fill="none" stroke="midnightblue" d="M259.991,-350C276.912,-350 294.868,-350 311.257,-350"/>
<polygon fill="midnightblue" stroke="midnightblue" points="259.611,-346.5 249.611,-350 259.611,-353.5 259.611,-346.5"/>
</g>
<!-- Node22 -->
<g id="node23" class="node"><title>Node22</title>
<g id="a_node23"><a xlink:href="structant_1_1expconfig_1_1detector_1_1_trigger__2014.html" target="_top" xlink:title="ant::expconfig::detector\l::Trigger_2014">
<polygon fill="white" stroke="black" points="311.5,-286 311.5,-316 430.5,-316 430.5,-286 311.5,-286"/>
<text text-anchor="start" x="319.5" y="-304" font-family="Helvetica,sans-Serif" font-size="10.00">ant::expconfig::detector</text>
<text text-anchor="middle" x="371" y="-293" font-family="Helvetica,sans-Serif" font-size="10.00">::Trigger_2014</text>
</a>
</g>
</g>
<!-- Node20&#45;&gt;Node22 -->
<g id="edge22" class="edge"><title>Node20&#45;&gt;Node22</title>
<path fill="none" stroke="midnightblue" d="M255.836,-332.252C275.236,-326.941 296.313,-321.171 315.016,-316.052"/>
<polygon fill="midnightblue" stroke="midnightblue" points="254.888,-328.882 246.166,-334.899 256.736,-335.634 254.888,-328.882"/>
</g>
<!-- Node24 -->
<g id="node25" class="node"><title>Node24</title>
<g id="a_node25"><a xlink:href="structant_1_1expconfig_1_1detector_1_1_e_p_t.html" target="_top" xlink:title="ant::expconfig::detector::EPT">
<polygon fill="white" stroke="black" points="298.5,-247.5 298.5,-266.5 443.5,-266.5 443.5,-247.5 298.5,-247.5"/>
<text text-anchor="middle" x="371" y="-254.5" font-family="Helvetica,sans-Serif" font-size="10.00">ant::expconfig::detector::EPT</text>
</a>
</g>
</g>
<!-- Node23&#45;&gt;Node24 -->
<g id="edge24" class="edge"><title>Node23&#45;&gt;Node24</title>
<path fill="none" stroke="midnightblue" d="M256.244,-272.888C271.055,-270.819 286.823,-268.617 301.754,-266.532"/>
<polygon fill="midnightblue" stroke="midnightblue" points="255.586,-269.446 246.166,-274.295 256.555,-276.378 255.586,-269.446"/>
</g>
<!-- Node26 -->
<g id="node27" class="node"><title>Node26</title>
<g id="a_node27"><a xlink:href="structant_1_1expconfig_1_1detector_1_1_tagger.html" target="_top" xlink:title="ant::expconfig::detector\l::Tagger">
<polygon fill="white" stroke="black" points="311.5,-147 311.5,-177 430.5,-177 430.5,-147 311.5,-147"/>
<text text-anchor="start" x="319.5" y="-165" font-family="Helvetica,sans-Serif" font-size="10.00">ant::expconfig::detector</text>
<text text-anchor="middle" x="371" y="-154" font-family="Helvetica,sans-Serif" font-size="10.00">::Tagger</text>
</a>
</g>
</g>
<!-- Node23&#45;&gt;Node26 -->
<g id="edge26" class="edge"><title>Node23&#45;&gt;Node26</title>
<path fill="none" stroke="midnightblue" d="M249.341,-268.938C253.73,-267.19 258.001,-265.22 262,-263 283.099,-251.289 331.454,-202.309 355.654,-177.114"/>
<polygon fill="midnightblue" stroke="midnightblue" points="247.845,-265.756 239.606,-272.418 250.201,-272.347 247.845,-265.756"/>
</g>
<!-- Node25 -->
<g id="node26" class="node"><title>Node25</title>
<g id="a_node26"><a xlink:href="structant_1_1expconfig_1_1detector_1_1_e_p_t__2014.html" target="_top" xlink:title="ant::expconfig::detector\l::EPT_2014">
<polygon fill="white" stroke="black" points="480.5,-294 480.5,-324 599.5,-324 599.5,-294 480.5,-294"/>
<text text-anchor="start" x="488.5" y="-312" font-family="Helvetica,sans-Serif" font-size="10.00">ant::expconfig::detector</text>
<text text-anchor="middle" x="540" y="-301" font-family="Helvetica,sans-Serif" font-size="10.00">::EPT_2014</text>
</a>
</g>
</g>
<!-- Node24&#45;&gt;Node25 -->
<g id="edge25" class="edge"><title>Node24&#45;&gt;Node25</title>
<path fill="none" stroke="midnightblue" d="M419.951,-269.107C428.009,-271.298 436.264,-273.639 444,-276 461.702,-281.402 481.032,-287.988 497.607,-293.851"/>
<polygon fill="midnightblue" stroke="midnightblue" points="420.832,-265.72 410.267,-266.518 419.024,-272.482 420.832,-265.72"/>
</g>
<!-- Node27 -->
<g id="node28" class="node"><title>Node27</title>
<g id="a_node28"><a xlink:href="structant_1_1expconfig_1_1detector_1_1_tagger__2007.html" target="_top" xlink:title="ant::expconfig::detector\l::Tagger_2007">
<polygon fill="white" stroke="black" points="480.5,-245 480.5,-275 599.5,-275 599.5,-245 480.5,-245"/>
<text text-anchor="start" x="488.5" y="-263" font-family="Helvetica,sans-Serif" font-size="10.00">ant::expconfig::detector</text>
<text text-anchor="middle" x="540" y="-252" font-family="Helvetica,sans-Serif" font-size="10.00">::Tagger_2007</text>
</a>
</g>
</g>
<!-- Node26&#45;&gt;Node27 -->
<g id="edge27" class="edge"><title>Node26&#45;&gt;Node27</title>
<path fill="none" stroke="midnightblue" d="M400.204,-183.285C421.457,-198.766 451.684,-219.62 480,-235 486.452,-238.505 493.499,-241.864 500.405,-244.92"/>
<polygon fill="midnightblue" stroke="midnightblue" points="402.089,-180.326 391.959,-177.221 397.941,-185.965 402.089,-180.326"/>
</g>
<!-- Node28 -->
<g id="node29" class="node"><title>Node28</title>
<g id="a_node29"><a xlink:href="structant_1_1expconfig_1_1detector_1_1_tagger__2010__03.html" target="_top" xlink:title="ant::expconfig::detector\l::Tagger_2010_03">
<polygon fill="white" stroke="black" points="480.5,-196 480.5,-226 599.5,-226 599.5,-196 480.5,-196"/>
<text text-anchor="start" x="488.5" y="-214" font-family="Helvetica,sans-Serif" font-size="10.00">ant::expconfig::detector</text>
<text text-anchor="middle" x="540" y="-203" font-family="Helvetica,sans-Serif" font-size="10.00">::Tagger_2010_03</text>
</a>
</g>
</g>
<!-- Node26&#45;&gt;Node28 -->
<g id="edge28" class="edge"><title>Node26&#45;&gt;Node28</title>
<path fill="none" stroke="midnightblue" d="M433.234,-179.967C451.127,-185.217 470.492,-190.899 487.702,-195.948"/>
<polygon fill="midnightblue" stroke="midnightblue" points="434.049,-176.559 423.468,-177.101 432.078,-183.275 434.049,-176.559"/>
</g>
<!-- Node29 -->
<g id="node30" class="node"><title>Node29</title>
<g id="a_node30"><a xlink:href="structant_1_1expconfig_1_1detector_1_1_tagger__2015.html" target="_top" xlink:title="ant::expconfig::detector\l::Tagger_2015">
<polygon fill="white" stroke="black" points="480.5,-147 480.5,-177 599.5,-177 599.5,-147 480.5,-147"/>
<text text-anchor="start" x="488.5" y="-165" font-family="Helvetica,sans-Serif" font-size="10.00">ant::expconfig::detector</text>
<text text-anchor="middle" x="540" y="-154" font-family="Helvetica,sans-Serif" font-size="10.00">::Tagger_2015</text>
</a>
</g>
</g>
<!-- Node26&#45;&gt;Node29 -->
<g id="edge29" class="edge"><title>Node26&#45;&gt;Node29</title>
<path fill="none" stroke="midnightblue" d="M441.193,-162C454.213,-162 467.713,-162 480.372,-162"/>
<polygon fill="midnightblue" stroke="midnightblue" points="440.878,-158.5 430.878,-162 440.878,-165.5 440.878,-158.5"/>
</g>
<!-- Node30 -->
<g id="node31" class="node"><title>Node30</title>
<g id="a_node31"><a xlink:href="structant_1_1expconfig_1_1detector_1_1_tagger__2016__06.html" target="_top" xlink:title="ant::expconfig::detector\l::Tagger_2016_06">
<polygon fill="white" stroke="black" points="480.5,-98 480.5,-128 599.5,-128 599.5,-98 480.5,-98"/>
<text text-anchor="start" x="488.5" y="-116" font-family="Helvetica,sans-Serif" font-size="10.00">ant::expconfig::detector</text>
<text text-anchor="middle" x="540" y="-105" font-family="Helvetica,sans-Serif" font-size="10.00">::Tagger_2016_06</text>
</a>
</g>
</g>
<!-- Node26&#45;&gt;Node30 -->
<g id="edge30" class="edge"><title>Node26&#45;&gt;Node30</title>
<path fill="none" stroke="midnightblue" d="M433.234,-144.033C451.127,-138.783 470.492,-133.101 487.702,-128.052"/>
<polygon fill="midnightblue" stroke="midnightblue" points="432.078,-140.725 423.468,-146.899 434.049,-147.441 432.078,-140.725"/>
</g>
<!-- Node31 -->
<g id="node32" class="node"><title>Node31</title>
<g id="a_node32"><a xlink:href="structant_1_1expconfig_1_1detector_1_1_tagger__2017__12.html" target="_top" xlink:title="ant::expconfig::detector\l::Tagger_2017_12">
<polygon fill="white" stroke="black" points="480.5,-49 480.5,-79 599.5,-79 599.5,-49 480.5,-49"/>
<text text-anchor="start" x="488.5" y="-67" font-family="Helvetica,sans-Serif" font-size="10.00">ant::expconfig::detector</text>
<text text-anchor="middle" x="540" y="-56" font-family="Helvetica,sans-Serif" font-size="10.00">::Tagger_2017_12</text>
</a>
</g>
</g>
<!-- Node26&#45;&gt;Node31 -->
<g id="edge31" class="edge"><title>Node26&#45;&gt;Node31</title>
<path fill="none" stroke="midnightblue" d="M399.704,-140.561C420.92,-124.761 451.324,-103.426 480,-88 485.843,-84.8568 492.188,-81.8687 498.479,-79.1355"/>
<polygon fill="midnightblue" stroke="midnightblue" points="397.371,-137.936 391.486,-146.746 401.58,-143.529 397.371,-137.936"/>
</g>
<!-- Node32 -->
<g id="node33" class="node"><title>Node32</title>
<g id="a_node33"><a xlink:href="structant_1_1expconfig_1_1detector_1_1_tagger__2018__03.html" target="_top" xlink:title="ant::expconfig::detector\l::Tagger_2018_03">
<polygon fill="white" stroke="black" points="480.5,-0 480.5,-30 599.5,-30 599.5,-0 480.5,-0"/>
<text text-anchor="start" x="488.5" y="-18" font-family="Helvetica,sans-Serif" font-size="10.00">ant::expconfig::detector</text>
<text text-anchor="middle" x="540" y="-7" font-family="Helvetica,sans-Serif" font-size="10.00">::Tagger_2018_03</text>
</a>
</g>
</g>
<!-- Node26&#45;&gt;Node32 -->
<g id="edge32" class="edge"><title>Node26&#45;&gt;Node32</title>
<path fill="none" stroke="midnightblue" d="M387.718,-138.203C406.739,-111.001 441.095,-66.6744 480,-39 484.686,-35.6669 489.902,-32.6977 495.24,-30.082"/>
<polygon fill="midnightblue" stroke="midnightblue" points="384.644,-136.498 381.871,-146.723 390.415,-140.459 384.644,-136.498"/>
</g>
</g>
</svg>
