<?xml version="1.0" encoding="UTF-8" standalone="no"?>
<!DOCTYPE svg PUBLIC "-//W3C//DTD SVG 1.1//EN"
 "http://www.w3.org/Graphics/SVG/1.1/DTD/svg11.dtd">
<!-- Generated by graphviz version 2.36.0 (20140111.2315)
 -->
<!-- Title: RefHist_t::Fill_t Pages: 1 -->
<svg width="672pt" height="332pt"
 viewBox="0.00 0.00 672.00 332.00" xmlns="http://www.w3.org/2000/svg" xmlns:xlink="http://www.w3.org/1999/xlink">
<g id="graph0" class="graph" transform="scale(1 1) rotate(0) translate(4 328)">
<title>RefHist_t::Fill_t</title>
<polygon fill="white" stroke="none" points="-4,4 -4,-328 668,-328 668,4 -4,4"/>
<!-- Node2 -->
<g id="node1" class="node"><title>Node2</title>
<polygon fill="#bfbfbf" stroke="black" points="578,-176.5 578,-195.5 664,-195.5 664,-176.5 578,-176.5"/>
<text text-anchor="middle" x="621" y="-183.5" font-family="Helvetica,sans-Serif" font-size="10.00">RefHist_t::Fill_t</text>
</g>
<!-- Node3 -->
<g id="node2" class="node"><title>Node3</title>
<g id="a_node2"><a xlink:href="struct_common_hist__t_1_1_fill__t.html" target="_top" xlink:title="CommonHist_t::Fill_t">
<polygon fill="white" stroke="black" points="404,-225.5 404,-244.5 514,-244.5 514,-225.5 404,-225.5"/>
<text text-anchor="middle" x="459" y="-232.5" font-family="Helvetica,sans-Serif" font-size="10.00">CommonHist_t::Fill_t</text>
</a>
</g>
</g>
<!-- Node3&#45;&gt;Node2 -->
<g id="edge1" class="edge"><title>Node3&#45;&gt;Node2</title>
<path fill="none" stroke="midnightblue" d="M500.915,-222.47C528.291,-214.086 563.762,-203.223 588.849,-195.54"/>
<polygon fill="midnightblue" stroke="midnightblue" points="499.766,-219.161 491.229,-225.436 501.816,-225.854 499.766,-219.161"/>
</g>
<!-- Node4 -->
<g id="node3" class="node"><title>Node4</title>
<g id="a_node3"><a xlink:href="structant_1_1analysis_1_1physics_1_1_etap_omega_g_1_1_proton_photon_tree__t.html" target="_top" xlink:title="ant::analysis::physics\l::EtapOmegaG::ProtonPhotonTree_t">
<polygon fill="white" stroke="black" points="124.5,-294 124.5,-324 299.5,-324 299.5,-294 124.5,-294"/>
<text text-anchor="start" x="132.5" y="-312" font-family="Helvetica,sans-Serif" font-size="10.00">ant::analysis::physics</text>
<text text-anchor="middle" x="212" y="-301" font-family="Helvetica,sans-Serif" font-size="10.00">::EtapOmegaG::ProtonPhotonTree_t</text>
</a>
</g>
</g>
<!-- Node4&#45;&gt;Node3 -->
<g id="edge2" class="edge"><title>Node4&#45;&gt;Node3</title>
<path fill="none" stroke="#9a32cd" stroke-dasharray="5,2" d="M282.93,-291.431C313.522,-283.369 349.723,-273.317 382,-263 399.412,-257.435 418.738,-250.301 433.545,-244.627"/>
<polygon fill="#9a32cd" stroke="#9a32cd" points="281.994,-288.058 273.207,-293.976 283.767,-294.829 281.994,-288.058"/>
<text text-anchor="middle" x="350" y="-283" font-family="Helvetica,sans-Serif" font-size="10.00"> ProtonPhoton</text>
</g>
<!-- Node5 -->
<g id="node4" class="node"><title>Node5</title>
<g id="a_node4"><a xlink:href="classant_1_1_wrap_t_tree.html" target="_top" xlink:title="The WrapTTree struct simplifies TTree handling in physics classes. ">
<polygon fill="white" stroke="black" points="0.5,-152.5 0.5,-171.5 85.5,-171.5 85.5,-152.5 0.5,-152.5"/>
<text text-anchor="middle" x="43" y="-159.5" font-family="Helvetica,sans-Serif" font-size="10.00">ant::WrapTTree</text>
</a>
</g>
</g>
<!-- Node5&#45;&gt;Node4 -->
<g id="edge3" class="edge"><title>Node5&#45;&gt;Node4</title>
<path fill="none" stroke="midnightblue" d="M51.4127,-181.077C62.8743,-208.058 87.46,-257.071 124,-284 129.187,-287.823 134.944,-291.062 140.955,-293.807"/>
<polygon fill="midnightblue" stroke="midnightblue" points="54.5642,-179.536 47.5448,-171.6 48.0832,-182.181 54.5642,-179.536"/>
</g>
<!-- Node6 -->
<g id="node5" class="node"><title>Node6</title>
<g id="a_node5"><a xlink:href="structant_1_1analysis_1_1utils_1_1_m_c_weighting_1_1tree__t.html" target="_top" xlink:title="ant::analysis::utils\l::MCWeighting::tree_t">
<polygon fill="white" stroke="black" points="155.5,-245 155.5,-275 268.5,-275 268.5,-245 155.5,-245"/>
<text text-anchor="start" x="163.5" y="-263" font-family="Helvetica,sans-Serif" font-size="10.00">ant::analysis::utils</text>
<text text-anchor="middle" x="212" y="-252" font-family="Helvetica,sans-Serif" font-size="10.00">::MCWeighting::tree_t</text>
</a>
</g>
</g>
<!-- Node5&#45;&gt;Node6 -->
<g id="edge5" class="edge"><title>Node5&#45;&gt;Node6</title>
<path fill="none" stroke="midnightblue" d="M58.6848,-179.407C73.5526,-195.974 98.0052,-220.468 124,-235 133.602,-240.368 144.458,-244.669 155.164,-248.086"/>
<polygon fill="midnightblue" stroke="midnightblue" points="61.0429,-176.787 51.8261,-171.562 55.7727,-181.394 61.0429,-176.787"/>
</g>
<!-- Node7 -->
<g id="node6" class="node"><title>Node7</title>
<g id="a_node6"><a xlink:href="structant_1_1analysis_1_1physics_1_1_etap_omega_g_1_1_tree_common.html" target="_top" xlink:title="ant::analysis::physics\l::EtapOmegaG::TreeCommon">
<polygon fill="white" stroke="black" points="138.5,-196 138.5,-226 285.5,-226 285.5,-196 138.5,-196"/>
<text text-anchor="start" x="146.5" y="-214" font-family="Helvetica,sans-Serif" font-size="10.00">ant::analysis::physics</text>
<text text-anchor="middle" x="212" y="-203" font-family="Helvetica,sans-Serif" font-size="10.00">::EtapOmegaG::TreeCommon</text>
</a>
</g>
</g>
<!-- Node5&#45;&gt;Node7 -->
<g id="edge7" class="edge"><title>Node5&#45;&gt;Node7</title>
<path fill="none" stroke="midnightblue" d="M85.1883,-174.456C97.6489,-178.198 111.375,-182.292 124,-186 135.007,-189.233 146.811,-192.654 158.063,-195.895"/>
<polygon fill="midnightblue" stroke="midnightblue" points="86.096,-171.075 75.5117,-171.546 84.0796,-177.778 86.096,-171.075"/>
</g>
<!-- Node9 -->
<g id="node8" class="node"><title>Node9</title>
<g id="a_node8"><a xlink:href="structant_1_1analysis_1_1physics_1_1_etap_dalitz_1_1common__tree.html" target="_top" xlink:title="ant::analysis::physics\l::EtapDalitz::common_tree">
<polygon fill="white" stroke="black" points="145,-147 145,-177 279,-177 279,-147 145,-147"/>
<text text-anchor="start" x="153" y="-165" font-family="Helvetica,sans-Serif" font-size="10.00">ant::analysis::physics</text>
<text text-anchor="middle" x="212" y="-154" font-family="Helvetica,sans-Serif" font-size="10.00">::EtapDalitz::common_tree</text>
</a>
</g>
</g>
<!-- Node5&#45;&gt;Node9 -->
<g id="edge10" class="edge"><title>Node5&#45;&gt;Node9</title>
<path fill="none" stroke="midnightblue" d="M96.095,-162C111.528,-162 128.636,-162 144.833,-162"/>
<polygon fill="midnightblue" stroke="midnightblue" points="95.7104,-158.5 85.7104,-162 95.7103,-165.5 95.7104,-158.5"/>
</g>
<!-- Node10 -->
<g id="node9" class="node"><title>Node10</title>
<g id="a_node9"><a xlink:href="structant_1_1analysis_1_1physics_1_1_etap_dalitz_1_1proton__tree.html" target="_top" xlink:title="ant::analysis::physics\l::EtapDalitz::proton_tree">
<polygon fill="white" stroke="black" points="150.5,-98 150.5,-128 273.5,-128 273.5,-98 150.5,-98"/>
<text text-anchor="start" x="158.5" y="-116" font-family="Helvetica,sans-Serif" font-size="10.00">ant::analysis::physics</text>
<text text-anchor="middle" x="212" y="-105" font-family="Helvetica,sans-Serif" font-size="10.00">::EtapDalitz::proton_tree</text>
</a>
</g>
</g>
<!-- Node5&#45;&gt;Node10 -->
<g id="edge12" class="edge"><title>Node5&#45;&gt;Node10</title>
<path fill="none" stroke="midnightblue" d="M83.8394,-149.26C96.6366,-145.245 110.892,-140.855 124,-137 134.071,-134.038 144.83,-130.983 155.227,-128.086"/>
<polygon fill="midnightblue" stroke="midnightblue" points="82.4235,-146.036 73.9387,-152.381 84.5284,-152.712 82.4235,-146.036"/>
</g>
<!-- Node11 -->
<g id="node10" class="node"><title>Node11</title>
<g id="a_node10"><a xlink:href="structant_1_1analysis_1_1physics_1_1_etap_dalitz_1_1photon__tree.html" target="_top" xlink:title="ant::analysis::physics\l::EtapDalitz::photon_tree\&lt; 2 \&gt;">
<polygon fill="white" stroke="black" points="137.5,-49 137.5,-79 286.5,-79 286.5,-49 137.5,-49"/>
<text text-anchor="start" x="145.5" y="-67" font-family="Helvetica,sans-Serif" font-size="10.00">ant::analysis::physics</text>
<text text-anchor="middle" x="212" y="-56" font-family="Helvetica,sans-Serif" font-size="10.00">::EtapDalitz::photon_tree&lt; 2 &gt;</text>
</a>
</g>
</g>
<!-- Node5&#45;&gt;Node11 -->
<g id="edge14" class="edge"><title>Node5&#45;&gt;Node11</title>
<path fill="none" stroke="midnightblue" d="M58.6016,-144.285C73.4072,-127.44 97.8146,-102.572 124,-88 130.161,-84.5715 136.844,-81.6067 143.676,-79.0486"/>
<polygon fill="midnightblue" stroke="midnightblue" points="55.6159,-142.391 51.7759,-152.266 60.9356,-146.941 55.6159,-142.391"/>
</g>
<!-- Node12 -->
<g id="node11" class="node"><title>Node12</title>
<g id="a_node11"><a xlink:href="structant_1_1analysis_1_1physics_1_1_etap_dalitz_1_1fit__tree.html" target="_top" xlink:title="ant::analysis::physics\l::EtapDalitz::fit_tree\&lt; 2 \&gt;">
<polygon fill="white" stroke="black" points="148,-0 148,-30 276,-30 276,-0 148,-0"/>
<text text-anchor="start" x="156" y="-18" font-family="Helvetica,sans-Serif" font-size="10.00">ant::analysis::physics</text>
<text text-anchor="middle" x="212" y="-7" font-family="Helvetica,sans-Serif" font-size="10.00">::EtapDalitz::fit_tree&lt; 2 &gt;</text>
</a>
</g>
</g>
<!-- Node5&#45;&gt;Node12 -->
<g id="edge16" class="edge"><title>Node5&#45;&gt;Node12</title>
<path fill="none" stroke="midnightblue" d="M51.3309,-142.715C62.6925,-115.449 87.1569,-65.9562 124,-39 131.081,-33.819 139.228,-29.7562 147.634,-26.5704"/>
<polygon fill="midnightblue" stroke="midnightblue" points="47.9639,-141.708 47.5007,-152.293 54.4635,-144.308 47.9639,-141.708"/>
</g>
<!-- Node6&#45;&gt;Node3 -->
<g id="edge4" class="edge"><title>Node6&#45;&gt;Node3</title>
<path fill="none" stroke="#9a32cd" stroke-dasharray="5,2" d="M278.585,-253.308C317.767,-249.31 366.937,-244.292 403.89,-240.521"/>
<polygon fill="#9a32cd" stroke="#9a32cd" points="278.187,-249.83 268.594,-254.327 278.898,-256.794 278.187,-249.83"/>
<text text-anchor="middle" x="350" y="-251" font-family="Helvetica,sans-Serif" font-size="10.00"> MCWeighting</text>
</g>
<!-- Node7&#45;&gt;Node3 -->
<g id="edge6" class="edge"><title>Node7&#45;&gt;Node3</title>
<path fill="none" stroke="#9a32cd" stroke-dasharray="5,2" d="M296.233,-215.487C323.6,-217.341 354.143,-219.818 382,-223 389.034,-223.804 396.413,-224.789 403.693,-225.846"/>
<polygon fill="#9a32cd" stroke="#9a32cd" points="296.121,-211.972 285.913,-214.806 295.661,-218.957 296.121,-211.972"/>
<text text-anchor="middle" x="350" y="-226" font-family="Helvetica,sans-Serif" font-size="10.00"> Common</text>
</g>
<!-- Node8 -->
<g id="node7" class="node"><title>Node8</title>
<g id="a_node7"><a xlink:href="structant_1_1analysis_1_1physics_1_1_etap_dalitz_1_1_ref_tree__t.html" target="_top" xlink:title="ant::analysis::physics\l::EtapDalitz::RefTree_t">
<polygon fill="white" stroke="black" points="400,-98 400,-128 518,-128 518,-98 400,-98"/>
<text text-anchor="start" x="408" y="-116" font-family="Helvetica,sans-Serif" font-size="10.00">ant::analysis::physics</text>
<text text-anchor="middle" x="459" y="-105" font-family="Helvetica,sans-Serif" font-size="10.00">::EtapDalitz::RefTree_t</text>
</a>
</g>
</g>
<!-- Node8&#45;&gt;Node2 -->
<g id="edge8" class="edge"><title>Node8&#45;&gt;Node2</title>
<path fill="none" stroke="#9a32cd" stroke-dasharray="5,2" d="M502.485,-132.384C533.669,-146.612 574.684,-165.325 599.098,-176.464"/>
<polygon fill="#9a32cd" stroke="#9a32cd" points="503.703,-129.092 493.152,-128.126 500.797,-135.461 503.703,-129.092"/>
<text text-anchor="middle" x="548" y="-162" font-family="Helvetica,sans-Serif" font-size="10.00"> Tree</text>
</g>
<!-- Node9&#45;&gt;Node8 -->
<g id="edge9" class="edge"><title>Node9&#45;&gt;Node8</title>
<path fill="none" stroke="midnightblue" d="M289.207,-146.759C324.956,-139.609 366.871,-131.226 399.989,-124.602"/>
<polygon fill="midnightblue" stroke="midnightblue" points="288.42,-143.347 279.301,-148.74 289.793,-150.211 288.42,-143.347"/>
</g>
<!-- Node10&#45;&gt;Node8 -->
<g id="edge11" class="edge"><title>Node10&#45;&gt;Node8</title>
<path fill="none" stroke="midnightblue" d="M283.73,-113C320.552,-113 365.021,-113 399.822,-113"/>
<polygon fill="midnightblue" stroke="midnightblue" points="283.562,-109.5 273.562,-113 283.562,-116.5 283.562,-109.5"/>
</g>
<!-- Node11&#45;&gt;Node8 -->
<g id="edge13" class="edge"><title>Node11&#45;&gt;Node8</title>
<path fill="none" stroke="midnightblue" d="M296.426,-80.6851C330.397,-87.4794 368.846,-95.1692 399.713,-101.343"/>
<polygon fill="midnightblue" stroke="midnightblue" points="297,-77.2308 286.508,-78.7016 295.627,-84.0949 297,-77.2308"/>
</g>
<!-- Node12&#45;&gt;Node8 -->
<g id="edge15" class="edge"><title>Node12&#45;&gt;Node8</title>
<path fill="none" stroke="midnightblue" d="M282.762,-33.1155C288.633,-34.9811 294.444,-36.9494 300,-39 346.603,-56.2011 398.339,-81.7329 429.506,-97.8624"/>
<polygon fill="midnightblue" stroke="midnightblue" points="283.447,-29.6647 272.86,-30.0765 281.393,-36.3567 283.447,-29.6647"/>
</g>
</g>
</svg>
