<?xml version="1.0" encoding="UTF-8" standalone="no"?>
<!DOCTYPE svg PUBLIC "-//W3C//DTD SVG 1.1//EN"
 "http://www.w3.org/Graphics/SVG/1.1/DTD/svg11.dtd">
<!-- Generated by graphviz version 2.36.0 (20140111.2315)
 -->
<!-- Title: ant::analysis::utils::Fitter::V_S_P_t Pages: 1 -->
<svg width="231pt" height="176pt"
 viewBox="0.00 0.00 231.00 176.00" xmlns="http://www.w3.org/2000/svg" xmlns:xlink="http://www.w3.org/1999/xlink">
<g id="graph0" class="graph" transform="scale(1 1) rotate(0) translate(4 172)">
<title>ant::analysis::utils::Fitter::V_S_P_t</title>
<polygon fill="white" stroke="none" points="-4,4 -4,-172 227,-172 227,4 -4,4"/>
<!-- Node0 -->
<g id="node1" class="node"><title>Node0</title>
<polygon fill="#bfbfbf" stroke="black" points="61,-69 61,-99 157,-99 157,-69 61,-69"/>
<text text-anchor="start" x="69" y="-87" font-family="Helvetica,sans-Serif" font-size="10.00">ant::analysis::utils</text>
<text text-anchor="middle" x="109" y="-76" font-family="Helvetica,sans-Serif" font-size="10.00">::Fitter::V_S_P_t</text>
</g>
<!-- Node2 -->
<g id="node3" class="node"><title>Node2</title>
<g id="a_node3"><a xlink:href="structant_1_1analysis_1_1utils_1_1_fitter_1_1_z___vertex__t.html" target="_top" xlink:title="ant::analysis::utils\l::Fitter::Z_Vertex_t">
<polygon fill="white" stroke="black" points="-0.5,-1 -0.5,-31 98.5,-31 98.5,-1 -0.5,-1"/>
<text text-anchor="start" x="7.5" y="-19" font-family="Helvetica,sans-Serif" font-size="10.00">ant::analysis::utils</text>
<text text-anchor="middle" x="49" y="-8" font-family="Helvetica,sans-Serif" font-size="10.00">::Fitter::Z_Vertex_t</text>
</a>
</g>
</g>
<!-- Node0&#45;&gt;Node2 -->
<g id="edge2" class="edge"><title>Node0&#45;&gt;Node2</title>
<path fill="none" stroke="midnightblue" d="M89.1762,-61.1939C80.2368,-51.3605 69.9298,-40.0228 61.9937,-31.2931"/>
<polygon fill="midnightblue" stroke="midnightblue" points="86.6643,-63.6339 95.9809,-68.679 91.8439,-58.9252 86.6643,-63.6339"/>
</g>
<!-- Node3 -->
<g id="node4" class="node"><title>Node3</title>
<g id="a_node4"><a xlink:href="structant_1_1analysis_1_1utils_1_1_kin_fitter_1_1_beam_e__t.html" target="_top" xlink:title="ant::analysis::utils\l::KinFitter::BeamE_t">
<polygon fill="white" stroke="black" points="117,-1 117,-31 223,-31 223,-1 117,-1"/>
<text text-anchor="start" x="125" y="-19" font-family="Helvetica,sans-Serif" font-size="10.00">ant::analysis::utils</text>
<text text-anchor="middle" x="170" y="-8" font-family="Helvetica,sans-Serif" font-size="10.00">::KinFitter::BeamE_t</text>
</a>
</g>
</g>
<!-- Node0&#45;&gt;Node3 -->
<g id="edge3" class="edge"><title>Node0&#45;&gt;Node3</title>
<path fill="none" stroke="midnightblue" d="M129.154,-61.1939C138.243,-51.3605 148.721,-40.0228 156.79,-31.2931"/>
<polygon fill="midnightblue" stroke="midnightblue" points="126.453,-58.9596 122.236,-68.679 131.594,-63.7108 126.453,-58.9596"/>
</g>
<!-- Node1 -->
<g id="node2" class="node"><title>Node1</title>
<g id="a_node2"><a xlink:href="structant_1_1analysis_1_1utils_1_1_fitter_1_1_v___s__t.html" target="_top" xlink:title="ant::analysis::utils\l::Fitter::V_S_t">
<polygon fill="white" stroke="black" points="61,-137 61,-167 157,-167 157,-137 61,-137"/>
<text text-anchor="start" x="69" y="-155" font-family="Helvetica,sans-Serif" font-size="10.00">ant::analysis::utils</text>
<text text-anchor="middle" x="109" y="-144" font-family="Helvetica,sans-Serif" font-size="10.00">::Fitter::V_S_t</text>
</a>
</g>
</g>
<!-- Node1&#45;&gt;Node0 -->
<g id="edge1" class="edge"><title>Node1&#45;&gt;Node0</title>
<path fill="none" stroke="midnightblue" d="M109,-126.532C109,-117.361 109,-107.245 109,-99.2931"/>
<polygon fill="midnightblue" stroke="midnightblue" points="105.5,-126.679 109,-136.679 112.5,-126.679 105.5,-126.679"/>
</g>
</g>
</svg>
