<?xml version="1.0" encoding="UTF-8" standalone="no"?>
<!DOCTYPE svg PUBLIC "-//W3C//DTD SVG 1.1//EN"
 "http://www.w3.org/Graphics/SVG/1.1/DTD/svg11.dtd">
<!-- Generated by graphviz version 2.36.0 (20140111.2315)
 -->
<!-- Title: q2Hist_t&lt; Tree_t &gt; Pages: 1 -->
<svg width="261pt" height="246pt"
 viewBox="0.00 0.00 261.00 246.00" xmlns="http://www.w3.org/2000/svg" xmlns:xlink="http://www.w3.org/1999/xlink">
<g id="graph0" class="graph" transform="scale(1 1) rotate(0) translate(4 242)">
<title>q2Hist_t&lt; Tree_t &gt;</title>
<polygon fill="white" stroke="none" points="-4,4 -4,-242 257,-242 257,4 -4,4"/>
<!-- Node1 -->
<g id="node1" class="node"><title>Node1</title>
<polygon fill="#bfbfbf" stroke="black" points="108.5,-0.5 108.5,-19.5 207.5,-19.5 207.5,-0.5 108.5,-0.5"/>
<text text-anchor="middle" x="158" y="-7.5" font-family="Helvetica,sans-Serif" font-size="10.00">q2Hist_t&lt; Tree_t &gt;</text>
</g>
<!-- Node2 -->
<g id="node2" class="node"><title>Node2</title>
<g id="a_node2"><a xlink:href="structq2_hist__t_1_1q2_hist_mgr.html" target="_top" xlink:title="q2Hist_t\&lt; Tree_t \&gt;\l::q2HistMgr\&lt; TH1D \&gt;">
<polygon fill="white" stroke="black" points="0,-69 0,-99 112,-99 112,-69 0,-69"/>
<text text-anchor="start" x="8" y="-87" font-family="Helvetica,sans-Serif" font-size="10.00">q2Hist_t&lt; Tree_t &gt;</text>
<text text-anchor="middle" x="56" y="-76" font-family="Helvetica,sans-Serif" font-size="10.00">::q2HistMgr&lt; TH1D &gt;</text>
</a>
</g>
</g>
<!-- Node2&#45;&gt;Node1 -->
<g id="edge1" class="edge"><title>Node2&#45;&gt;Node1</title>
<path fill="none" stroke="#9a32cd" stroke-dasharray="5,2" d="M84.4098,-62.946C104.644,-48.6634 130.823,-30.184 145.881,-19.5543"/>
<polygon fill="#9a32cd" stroke="#9a32cd" points="82.3032,-60.1488 76.1519,-68.7751 86.34,-65.8676 82.3032,-60.1488"/>
<text text-anchor="middle" x="140" y="-41.5" font-family="Helvetica,sans-Serif" font-size="10.00"> q2_hists</text>
</g>
<!-- Node3 -->
<g id="node3" class="node"><title>Node3</title>
<g id="a_node3"><a xlink:title="STL class. ">
<polygon fill="white" stroke="#bfbfbf" points="7.5,-139 7.5,-169 104.5,-169 104.5,-139 7.5,-139"/>
<text text-anchor="start" x="15.5" y="-157" font-family="Helvetica,sans-Serif" font-size="10.00">std::list&lt; HistFiller</text>
<text text-anchor="middle" x="56" y="-146" font-family="Helvetica,sans-Serif" font-size="10.00">_t&lt; TH1D &gt; &gt;</text>
</a>
</g>
</g>
<!-- Node3&#45;&gt;Node2 -->
<g id="edge2" class="edge"><title>Node3&#45;&gt;Node2</title>
<path fill="none" stroke="midnightblue" d="M56,-128.769C56,-118.814 56,-107.638 56,-99.0716"/>
<polygon fill="midnightblue" stroke="midnightblue" points="52.5001,-128.91 56,-138.91 59.5001,-128.91 52.5001,-128.91"/>
</g>
<!-- Node4 -->
<g id="node4" class="node"><title>Node4</title>
<polygon fill="white" stroke="#bfbfbf" points="41.5,-218.5 41.5,-237.5 70.5,-237.5 70.5,-218.5 41.5,-218.5"/>
<text text-anchor="middle" x="56" y="-225.5" font-family="Helvetica,sans-Serif" font-size="10.00">T</text>
</g>
<!-- Node4&#45;&gt;Node3 -->
<g id="edge3" class="edge"><title>Node4&#45;&gt;Node3</title>
<path fill="none" stroke="#9a32cd" stroke-dasharray="5,2" d="M56,-208.085C56,-195.915 56,-180.354 56,-169.232"/>
<polygon fill="#9a32cd" stroke="#9a32cd" points="52.5001,-208.458 56,-218.458 59.5001,-208.458 52.5001,-208.458"/>
<text text-anchor="middle" x="77.5" y="-191.5" font-family="Helvetica,sans-Serif" font-size="10.00"> elements</text>
</g>
<!-- Node5 -->
<g id="node5" class="node"><title>Node5</title>
<g id="a_node5"><a xlink:href="classant_1_1analysis_1_1_histogram_factory.html" target="_top" xlink:title="ant::analysis::Histogram\lFactory">
<polygon fill="white" stroke="black" points="130.5,-69 130.5,-99 253.5,-99 253.5,-69 130.5,-69"/>
<text text-anchor="start" x="138.5" y="-87" font-family="Helvetica,sans-Serif" font-size="10.00">ant::analysis::Histogram</text>
<text text-anchor="middle" x="192" y="-76" font-family="Helvetica,sans-Serif" font-size="10.00">Factory</text>
</a>
</g>
</g>
<!-- Node5&#45;&gt;Node1 -->
<g id="edge4" class="edge"><title>Node5&#45;&gt;Node1</title>
<path fill="none" stroke="#9a32cd" stroke-dasharray="5,2" d="M180.895,-59.4835C174.473,-45.8836 166.77,-29.571 162.136,-19.7589"/>
<polygon fill="#9a32cd" stroke="#9a32cd" points="177.848,-61.2272 185.283,-68.7751 184.177,-58.2381 177.848,-61.2272"/>
<text text-anchor="middle" x="191" y="-41.5" font-family="Helvetica,sans-Serif" font-size="10.00"> q2_hf</text>
</g>
</g>
</svg>
