<?xml version="1.0" encoding="UTF-8" standalone="no"?>
<!DOCTYPE svg PUBLIC "-//W3C//DTD SVG 1.1//EN"
 "http://www.w3.org/Graphics/SVG/1.1/DTD/svg11.dtd">
<!-- Generated by graphviz version 2.36.0 (20140111.2315)
 -->
<!-- Title: EtapOmegaG_plot_Ref Pages: 1 -->
<svg width="780pt" height="327pt"
 viewBox="0.00 0.00 780.00 327.00" xmlns="http://www.w3.org/2000/svg" xmlns:xlink="http://www.w3.org/1999/xlink">
<g id="graph0" class="graph" transform="scale(1 1) rotate(0) translate(4 323)">
<title>EtapOmegaG_plot_Ref</title>
<polygon fill="white" stroke="none" points="-4,4 -4,-323 776,-323 776,4 -4,4"/>
<!-- Node3 -->
<g id="node1" class="node"><title>Node3</title>
<polygon fill="#bfbfbf" stroke="black" points="654,-176.5 654,-195.5 772,-195.5 772,-176.5 654,-176.5"/>
<text text-anchor="middle" x="713" y="-183.5" font-family="Helvetica,sans-Serif" font-size="10.00">EtapOmegaG_plot_Ref</text>
</g>
<!-- Node4 -->
<g id="node2" class="node"><title>Node4</title>
<g id="a_node2"><a xlink:href="struct_etap_omega_g__plot.html" target="_top" xlink:title="EtapOmegaG_plot">
<polygon fill="white" stroke="black" points="474.5,-225.5 474.5,-244.5 571.5,-244.5 571.5,-225.5 474.5,-225.5"/>
<text text-anchor="middle" x="523" y="-232.5" font-family="Helvetica,sans-Serif" font-size="10.00">EtapOmegaG_plot</text>
</a>
</g>
</g>
<!-- Node4&#45;&gt;Node3 -->
<g id="edge1" class="edge"><title>Node4&#45;&gt;Node3</title>
<path fill="none" stroke="midnightblue" d="M570.391,-222.909C602.775,-214.468 645.403,-203.358 675.398,-195.54"/>
<polygon fill="midnightblue" stroke="midnightblue" points="569.489,-219.527 560.695,-225.436 571.254,-226.301 569.489,-219.527"/>
</g>
<!-- Node5 -->
<g id="node3" class="node"><title>Node5</title>
<g id="a_node3"><a xlink:href="classant_1_1analysis_1_1_plotter.html" target="_top" xlink:title="ant::analysis::Plotter">
<polygon fill="white" stroke="black" points="219.5,-294.5 219.5,-313.5 326.5,-313.5 326.5,-294.5 219.5,-294.5"/>
<text text-anchor="middle" x="273" y="-301.5" font-family="Helvetica,sans-Serif" font-size="10.00">ant::analysis::Plotter</text>
</a>
</g>
</g>
<!-- Node5&#45;&gt;Node4 -->
<g id="edge2" class="edge"><title>Node5&#45;&gt;Node4</title>
<path fill="none" stroke="midnightblue" d="M335.333,-292.471C368.433,-285.656 409.809,-276.174 446,-265 464.704,-259.225 485.328,-250.959 500.366,-244.565"/>
<polygon fill="midnightblue" stroke="midnightblue" points="334.444,-289.08 325.341,-294.5 335.837,-295.94 334.444,-289.08"/>
</g>
<!-- Node6 -->
<g id="node4" class="node"><title>Node6</title>
<g id="a_node4"><a xlink:href="classant_1_1analysis_1_1_histogram_factory.html" target="_top" xlink:title="ant::analysis::Histogram\lFactory">
<polygon fill="white" stroke="black" points="0.5,-289 0.5,-319 123.5,-319 123.5,-289 0.5,-289"/>
<text text-anchor="start" x="8.5" y="-307" font-family="Helvetica,sans-Serif" font-size="10.00">ant::analysis::Histogram</text>
<text text-anchor="middle" x="62" y="-296" font-family="Helvetica,sans-Serif" font-size="10.00">Factory</text>
</a>
</g>
</g>
<!-- Node6&#45;&gt;Node5 -->
<g id="edge3" class="edge"><title>Node6&#45;&gt;Node5</title>
<path fill="none" stroke="#9a32cd" stroke-dasharray="5,2" d="M133.856,-304C161.822,-304 193.387,-304 219.278,-304"/>
<polygon fill="#9a32cd" stroke="#9a32cd" points="133.732,-300.5 123.732,-304 133.732,-307.5 133.732,-300.5"/>
<text text-anchor="middle" x="161" y="-307" font-family="Helvetica,sans-Serif" font-size="10.00"> HistFac</text>
</g>
<!-- Node7 -->
<g id="node5" class="node"><title>Node7</title>
<g id="a_node5"><a xlink:href="structant_1_1analysis_1_1utils_1_1_m_c_weighting_1_1tree__t.html" target="_top" xlink:title="ant::analysis::utils\l::MCWeighting::tree_t">
<polygon fill="white" stroke="black" points="216.5,-245 216.5,-275 329.5,-275 329.5,-245 216.5,-245"/>
<text text-anchor="start" x="224.5" y="-263" font-family="Helvetica,sans-Serif" font-size="10.00">ant::analysis::utils</text>
<text text-anchor="middle" x="273" y="-252" font-family="Helvetica,sans-Serif" font-size="10.00">::MCWeighting::tree_t</text>
</a>
</g>
</g>
<!-- Node7&#45;&gt;Node4 -->
<g id="edge4" class="edge"><title>Node7&#45;&gt;Node4</title>
<path fill="none" stroke="#9a32cd" stroke-dasharray="5,2" d="M339.61,-253.386C382.005,-249.112 436.199,-243.649 474.462,-239.792"/>
<polygon fill="#9a32cd" stroke="#9a32cd" points="339.255,-249.904 329.656,-254.39 339.957,-256.869 339.255,-249.904"/>
<text text-anchor="middle" x="406" y="-253" font-family="Helvetica,sans-Serif" font-size="10.00"> treeMCWeighting</text>
</g>
<!-- Node8 -->
<g id="node6" class="node"><title>Node8</title>
<g id="a_node6"><a xlink:href="classant_1_1_wrap_t_tree.html" target="_top" xlink:title="The WrapTTree struct simplifies TTree handling in physics classes. ">
<polygon fill="white" stroke="black" points="19.5,-124.5 19.5,-143.5 104.5,-143.5 104.5,-124.5 19.5,-124.5"/>
<text text-anchor="middle" x="62" y="-131.5" font-family="Helvetica,sans-Serif" font-size="10.00">ant::WrapTTree</text>
</a>
</g>
</g>
<!-- Node8&#45;&gt;Node7 -->
<g id="edge5" class="edge"><title>Node8&#45;&gt;Node7</title>
<path fill="none" stroke="midnightblue" d="M80.9127,-150.367C105.643,-172.236 152.378,-211.013 198,-235 205.082,-238.723 212.83,-242.058 220.561,-244.986"/>
<polygon fill="midnightblue" stroke="midnightblue" points="83.1881,-147.706 73.4029,-143.644 78.5191,-152.921 83.1881,-147.706"/>
</g>
<!-- Node9 -->
<g id="node7" class="node"><title>Node9</title>
<g id="a_node7"><a xlink:href="structant_1_1analysis_1_1physics_1_1_etap_omega_g_1_1_tree_common.html" target="_top" xlink:title="ant::analysis::physics\l::EtapOmegaG::TreeCommon">
<polygon fill="white" stroke="black" points="199.5,-196 199.5,-226 346.5,-226 346.5,-196 199.5,-196"/>
<text text-anchor="start" x="207.5" y="-214" font-family="Helvetica,sans-Serif" font-size="10.00">ant::analysis::physics</text>
<text text-anchor="middle" x="273" y="-203" font-family="Helvetica,sans-Serif" font-size="10.00">::EtapOmegaG::TreeCommon</text>
</a>
</g>
</g>
<!-- Node8&#45;&gt;Node9 -->
<g id="edge7" class="edge"><title>Node8&#45;&gt;Node9</title>
<path fill="none" stroke="midnightblue" d="M96.2286,-147.245C123.466,-157.994 163.077,-173.381 198,-186 207.183,-189.318 217.053,-192.747 226.499,-195.962"/>
<polygon fill="midnightblue" stroke="midnightblue" points="97.3716,-143.934 86.7853,-143.509 94.796,-150.442 97.3716,-143.934"/>
</g>
<!-- Node11 -->
<g id="node9" class="node"><title>Node11</title>
<g id="a_node9"><a xlink:href="structant_1_1analysis_1_1physics_1_1_etap_dalitz_1_1common__tree.html" target="_top" xlink:title="ant::analysis::physics\l::EtapDalitz::common_tree">
<polygon fill="white" stroke="black" points="206,-147 206,-177 340,-177 340,-147 206,-147"/>
<text text-anchor="start" x="214" y="-165" font-family="Helvetica,sans-Serif" font-size="10.00">ant::analysis::physics</text>
<text text-anchor="middle" x="273" y="-154" font-family="Helvetica,sans-Serif" font-size="10.00">::EtapDalitz::common_tree</text>
</a>
</g>
</g>
<!-- Node8&#45;&gt;Node11 -->
<g id="edge10" class="edge"><title>Node8&#45;&gt;Node11</title>
<path fill="none" stroke="midnightblue" d="M114.744,-140.932C142.271,-144.62 176.419,-149.195 205.854,-153.138"/>
<polygon fill="midnightblue" stroke="midnightblue" points="114.918,-137.424 104.542,-139.565 113.988,-144.362 114.918,-137.424"/>
</g>
<!-- Node12 -->
<g id="node10" class="node"><title>Node12</title>
<g id="a_node10"><a xlink:href="structant_1_1analysis_1_1physics_1_1_etap_dalitz_1_1proton__tree.html" target="_top" xlink:title="ant::analysis::physics\l::EtapDalitz::proton_tree">
<polygon fill="white" stroke="black" points="211.5,-98 211.5,-128 334.5,-128 334.5,-98 211.5,-98"/>
<text text-anchor="start" x="219.5" y="-116" font-family="Helvetica,sans-Serif" font-size="10.00">ant::analysis::physics</text>
<text text-anchor="middle" x="273" y="-105" font-family="Helvetica,sans-Serif" font-size="10.00">::EtapDalitz::proton_tree</text>
</a>
</g>
</g>
<!-- Node8&#45;&gt;Node12 -->
<g id="edge12" class="edge"><title>Node8&#45;&gt;Node12</title>
<path fill="none" stroke="midnightblue" d="M114.542,-128.821C143.763,-125.885 180.493,-122.194 211.127,-119.116"/>
<polygon fill="midnightblue" stroke="midnightblue" points="114.142,-125.344 104.542,-129.826 114.841,-132.309 114.142,-125.344"/>
</g>
<!-- Node13 -->
<g id="node11" class="node"><title>Node13</title>
<g id="a_node11"><a xlink:href="structant_1_1analysis_1_1physics_1_1_etap_dalitz_1_1photon__tree.html" target="_top" xlink:title="ant::analysis::physics\l::EtapDalitz::photon_tree\&lt; 2 \&gt;">
<polygon fill="white" stroke="black" points="198.5,-49 198.5,-79 347.5,-79 347.5,-49 198.5,-49"/>
<text text-anchor="start" x="206.5" y="-67" font-family="Helvetica,sans-Serif" font-size="10.00">ant::analysis::physics</text>
<text text-anchor="middle" x="273" y="-56" font-family="Helvetica,sans-Serif" font-size="10.00">::EtapDalitz::photon_tree&lt; 2 &gt;</text>
</a>
</g>
</g>
<!-- Node8&#45;&gt;Node13 -->
<g id="edge14" class="edge"><title>Node8&#45;&gt;Node13</title>
<path fill="none" stroke="midnightblue" d="M100.101,-121.193C127.194,-111.882 164.832,-99.0287 198,-88 206.843,-85.0596 216.295,-81.9607 225.385,-79.0024"/>
<polygon fill="midnightblue" stroke="midnightblue" points="98.9421,-117.891 90.6248,-124.454 101.219,-124.51 98.9421,-117.891"/>
</g>
<!-- Node14 -->
<g id="node12" class="node"><title>Node14</title>
<g id="a_node12"><a xlink:href="structant_1_1analysis_1_1physics_1_1_etap_dalitz_1_1fit__tree.html" target="_top" xlink:title="ant::analysis::physics\l::EtapDalitz::fit_tree\&lt; 2 \&gt;">
<polygon fill="white" stroke="black" points="209,-0 209,-30 337,-30 337,-0 209,-0"/>
<text text-anchor="start" x="217" y="-18" font-family="Helvetica,sans-Serif" font-size="10.00">ant::analysis::physics</text>
<text text-anchor="middle" x="273" y="-7" font-family="Helvetica,sans-Serif" font-size="10.00">::EtapDalitz::fit_tree&lt; 2 &gt;</text>
</a>
</g>
</g>
<!-- Node8&#45;&gt;Node14 -->
<g id="edge16" class="edge"><title>Node8&#45;&gt;Node14</title>
<path fill="none" stroke="midnightblue" d="M82.1496,-117.699C107.302,-96.9776 153.511,-61.2316 198,-39 204.645,-35.6795 211.85,-32.678 219.068,-30.0117"/>
<polygon fill="midnightblue" stroke="midnightblue" points="79.6064,-115.263 74.1682,-124.356 84.0897,-120.639 79.6064,-115.263"/>
</g>
<!-- Node9&#45;&gt;Node4 -->
<g id="edge6" class="edge"><title>Node9&#45;&gt;Node4</title>
<path fill="none" stroke="#9a32cd" stroke-dasharray="5,2" d="M356.787,-215.314C385.127,-217.178 416.994,-219.705 446,-223 455.158,-224.04 464.901,-225.392 474.247,-226.811"/>
<polygon fill="#9a32cd" stroke="#9a32cd" points="356.721,-211.802 346.518,-214.656 356.274,-218.788 356.721,-211.802"/>
<text text-anchor="middle" x="406" y="-226" font-family="Helvetica,sans-Serif" font-size="10.00"> treeCommon</text>
</g>
<!-- Node10 -->
<g id="node8" class="node"><title>Node10</title>
<g id="a_node8"><a xlink:href="structant_1_1analysis_1_1physics_1_1_etap_dalitz_1_1_ref_tree__t.html" target="_top" xlink:title="ant::analysis::physics\l::EtapDalitz::RefTree_t">
<polygon fill="white" stroke="black" points="464,-98 464,-128 582,-128 582,-98 464,-98"/>
<text text-anchor="start" x="472" y="-116" font-family="Helvetica,sans-Serif" font-size="10.00">ant::analysis::physics</text>
<text text-anchor="middle" x="523" y="-105" font-family="Helvetica,sans-Serif" font-size="10.00">::EtapDalitz::RefTree_t</text>
</a>
</g>
</g>
<!-- Node10&#45;&gt;Node3 -->
<g id="edge8" class="edge"><title>Node10&#45;&gt;Node3</title>
<path fill="none" stroke="#9a32cd" stroke-dasharray="5,2" d="M572.504,-131.834C609.312,-146.126 658.383,-165.181 687.44,-176.464"/>
<polygon fill="#9a32cd" stroke="#9a32cd" points="573.543,-128.483 562.954,-128.126 571.009,-135.008 573.543,-128.483"/>
<text text-anchor="middle" x="618" y="-160" font-family="Helvetica,sans-Serif" font-size="10.00"> treeRef</text>
</g>
<!-- Node11&#45;&gt;Node10 -->
<g id="edge9" class="edge"><title>Node11&#45;&gt;Node10</title>
<path fill="none" stroke="midnightblue" d="M350.247,-146.935C386.762,-139.72 429.798,-131.217 463.657,-124.528"/>
<polygon fill="midnightblue" stroke="midnightblue" points="349.266,-143.561 340.134,-148.933 350.622,-150.428 349.266,-143.561"/>
</g>
<!-- Node12&#45;&gt;Node10 -->
<g id="edge11" class="edge"><title>Node12&#45;&gt;Node10</title>
<path fill="none" stroke="midnightblue" d="M345.039,-113C382.616,-113 428.183,-113 463.666,-113"/>
<polygon fill="midnightblue" stroke="midnightblue" points="344.668,-109.5 334.668,-113 344.668,-116.5 344.668,-109.5"/>
</g>
<!-- Node13&#45;&gt;Node10 -->
<g id="edge13" class="edge"><title>Node13&#45;&gt;Node10</title>
<path fill="none" stroke="midnightblue" d="M357.905,-80.5781C392.752,-87.4631 432.333,-95.2834 463.889,-101.518"/>
<polygon fill="midnightblue" stroke="midnightblue" points="358.226,-77.0737 347.737,-78.5689 356.869,-83.941 358.226,-77.0737"/>
</g>
<!-- Node14&#45;&gt;Node10 -->
<g id="edge15" class="edge"><title>Node14&#45;&gt;Node10</title>
<path fill="none" stroke="midnightblue" d="M332.059,-33.3774C337.466,-35.2249 342.847,-37.1156 348,-39 398.099,-57.32 454.705,-82.1988 489.371,-97.9282"/>
<polygon fill="midnightblue" stroke="midnightblue" points="332.936,-29.9798 322.342,-30.1091 330.704,-36.6145 332.936,-29.9798"/>
</g>
</g>
</svg>
