<?xml version="1.0" encoding="UTF-8" standalone="no"?>
<!DOCTYPE svg PUBLIC "-//W3C//DTD SVG 1.1//EN"
 "http://www.w3.org/Graphics/SVG/1.1/DTD/svg11.dtd">
<!-- Generated by graphviz version 2.36.0 (20140111.2315)
 -->
<!-- Title: ant::analysis::physics::EtapDalitz::SigTree_t Pages: 1 -->
<svg width="432pt" height="244pt"
 viewBox="0.00 0.00 432.00 244.00" xmlns="http://www.w3.org/2000/svg" xmlns:xlink="http://www.w3.org/1999/xlink">
<g id="graph0" class="graph" transform="scale(1 1) rotate(0) translate(4 240)">
<title>ant::analysis::physics::EtapDalitz::SigTree_t</title>
<polygon fill="white" stroke="none" points="-4,4 -4,-240 428,-240 428,4 -4,4"/>
<!-- Node7 -->
<g id="node1" class="node"><title>Node7</title>
<polygon fill="#bfbfbf" stroke="black" points="308,-108 308,-138 424,-138 424,-108 308,-108"/>
<text text-anchor="start" x="316" y="-126" font-family="Helvetica,sans-Serif" font-size="10.00">ant::analysis::physics</text>
<text text-anchor="middle" x="366" y="-115" font-family="Helvetica,sans-Serif" font-size="10.00">::EtapDalitz::SigTree_t</text>
</g>
<!-- Node8 -->
<g id="node2" class="node"><title>Node8</title>
<g id="a_node2"><a xlink:href="structant_1_1analysis_1_1physics_1_1_etap_dalitz_1_1common__tree.html" target="_top" xlink:title="ant::analysis::physics\l::EtapDalitz::common_tree">
<polygon fill="white" stroke="black" points="130,-206 130,-236 264,-236 264,-206 130,-206"/>
<text text-anchor="start" x="138" y="-224" font-family="Helvetica,sans-Serif" font-size="10.00">ant::analysis::physics</text>
<text text-anchor="middle" x="197" y="-213" font-family="Helvetica,sans-Serif" font-size="10.00">::EtapDalitz::common_tree</text>
</a>
</g>
</g>
<!-- Node8&#45;&gt;Node7 -->
<g id="edge1" class="edge"><title>Node8&#45;&gt;Node7</title>
<path fill="none" stroke="midnightblue" d="M259.462,-202.074C263.779,-200.188 268,-198.163 272,-196 301.792,-179.893 331.814,-154.223 349.394,-138.009"/>
<polygon fill="midnightblue" stroke="midnightblue" points="257.84,-198.956 249.909,-205.981 260.49,-205.435 257.84,-198.956"/>
</g>
<!-- Node9 -->
<g id="node3" class="node"><title>Node9</title>
<g id="a_node3"><a xlink:href="classant_1_1_wrap_t_tree.html" target="_top" xlink:title="The WrapTTree struct simplifies TTree handling in physics classes. ">
<polygon fill="white" stroke="black" points="0.5,-113.5 0.5,-132.5 85.5,-132.5 85.5,-113.5 0.5,-113.5"/>
<text text-anchor="middle" x="43" y="-120.5" font-family="Helvetica,sans-Serif" font-size="10.00">ant::WrapTTree</text>
</a>
</g>
</g>
<!-- Node9&#45;&gt;Node8 -->
<g id="edge2" class="edge"><title>Node9&#45;&gt;Node8</title>
<path fill="none" stroke="midnightblue" d="M58.8482,-140.7C73.4293,-157.079 97.0599,-181.082 122,-196 128.284,-199.759 135.21,-203.044 142.227,-205.889"/>
<polygon fill="midnightblue" stroke="midnightblue" points="61.2892,-138.173 52.0891,-132.918 56.0044,-142.763 61.2892,-138.173"/>
</g>
<!-- Node10 -->
<g id="node4" class="node"><title>Node10</title>
<g id="a_node4"><a xlink:href="structant_1_1analysis_1_1physics_1_1_etap_dalitz_1_1proton__tree.html" target="_top" xlink:title="ant::analysis::physics\l::EtapDalitz::proton_tree">
<polygon fill="white" stroke="black" points="135.5,-157 135.5,-187 258.5,-187 258.5,-157 135.5,-157"/>
<text text-anchor="start" x="143.5" y="-175" font-family="Helvetica,sans-Serif" font-size="10.00">ant::analysis::physics</text>
<text text-anchor="middle" x="197" y="-164" font-family="Helvetica,sans-Serif" font-size="10.00">::EtapDalitz::proton_tree</text>
</a>
</g>
</g>
<!-- Node9&#45;&gt;Node10 -->
<g id="edge4" class="edge"><title>Node9&#45;&gt;Node10</title>
<path fill="none" stroke="midnightblue" d="M83.4587,-135.72C103.612,-142.217 128.265,-150.164 149.355,-156.963"/>
<polygon fill="midnightblue" stroke="midnightblue" points="84.2595,-132.301 73.668,-132.564 82.1118,-138.963 84.2595,-132.301"/>
</g>
<!-- Node11 -->
<g id="node5" class="node"><title>Node11</title>
<g id="a_node5"><a xlink:href="structant_1_1analysis_1_1physics_1_1_etap_dalitz_1_1photon__tree.html" target="_top" xlink:title="ant::analysis::physics\l::EtapDalitz::photon_tree\&lt; 3 \&gt;">
<polygon fill="white" stroke="black" points="122.5,-108 122.5,-138 271.5,-138 271.5,-108 122.5,-108"/>
<text text-anchor="start" x="130.5" y="-126" font-family="Helvetica,sans-Serif" font-size="10.00">ant::analysis::physics</text>
<text text-anchor="middle" x="197" y="-115" font-family="Helvetica,sans-Serif" font-size="10.00">::EtapDalitz::photon_tree&lt; 3 &gt;</text>
</a>
</g>
</g>
<!-- Node9&#45;&gt;Node11 -->
<g id="edge6" class="edge"><title>Node9&#45;&gt;Node11</title>
<path fill="none" stroke="midnightblue" d="M95.7405,-123C104.323,-123 113.366,-123 122.365,-123"/>
<polygon fill="midnightblue" stroke="midnightblue" points="95.5347,-119.5 85.5347,-123 95.5346,-126.5 95.5347,-119.5"/>
</g>
<!-- Node12 -->
<g id="node6" class="node"><title>Node12</title>
<g id="a_node6"><a xlink:href="structant_1_1analysis_1_1physics_1_1_etap_dalitz_1_1fit__tree.html" target="_top" xlink:title="ant::analysis::physics\l::EtapDalitz::fit_tree\&lt; 3 \&gt;">
<polygon fill="white" stroke="black" points="133,-59 133,-89 261,-89 261,-59 133,-59"/>
<text text-anchor="start" x="141" y="-77" font-family="Helvetica,sans-Serif" font-size="10.00">ant::analysis::physics</text>
<text text-anchor="middle" x="197" y="-66" font-family="Helvetica,sans-Serif" font-size="10.00">::EtapDalitz::fit_tree&lt; 3 &gt;</text>
</a>
</g>
</g>
<!-- Node9&#45;&gt;Node12 -->
<g id="edge8" class="edge"><title>Node9&#45;&gt;Node12</title>
<path fill="none" stroke="midnightblue" d="M83.4587,-110.28C103.612,-103.783 128.265,-95.8355 149.355,-89.037"/>
<polygon fill="midnightblue" stroke="midnightblue" points="82.1118,-107.037 73.668,-113.436 84.2595,-113.699 82.1118,-107.037"/>
</g>
<!-- Node13 -->
<g id="node7" class="node"><title>Node13</title>
<g id="a_node7"><a xlink:href="structant_1_1analysis_1_1physics_1_1_etap_dalitz_1_1fit__free_z__tree.html" target="_top" xlink:title="ant::analysis::physics\l::EtapDalitz::fit_freeZ\l_tree\&lt; 3 \&gt;">
<polygon fill="white" stroke="black" points="141,0.5 141,-40.5 253,-40.5 253,0.5 141,0.5"/>
<text text-anchor="start" x="149" y="-28.5" font-family="Helvetica,sans-Serif" font-size="10.00">ant::analysis::physics</text>
<text text-anchor="start" x="149" y="-17.5" font-family="Helvetica,sans-Serif" font-size="10.00">::EtapDalitz::fit_freeZ</text>
<text text-anchor="middle" x="197" y="-6.5" font-family="Helvetica,sans-Serif" font-size="10.00">_tree&lt; 3 &gt;</text>
</a>
</g>
</g>
<!-- Node9&#45;&gt;Node13 -->
<g id="edge10" class="edge"><title>Node9&#45;&gt;Node13</title>
<path fill="none" stroke="midnightblue" d="M59.053,-105.632C73.7812,-89.4905 97.5135,-65.6511 122,-50 127.84,-46.267 134.222,-42.8478 140.711,-39.7622"/>
<polygon fill="midnightblue" stroke="midnightblue" points="56.2669,-103.497 52.2155,-113.286 61.4876,-108.16 56.2669,-103.497"/>
</g>
<!-- Node10&#45;&gt;Node7 -->
<g id="edge3" class="edge"><title>Node10&#45;&gt;Node7</title>
<path fill="none" stroke="midnightblue" d="M259.234,-154.033C277.127,-148.783 296.492,-143.101 313.702,-138.052"/>
<polygon fill="midnightblue" stroke="midnightblue" points="258.078,-150.725 249.468,-156.899 260.049,-157.441 258.078,-150.725"/>
</g>
<!-- Node11&#45;&gt;Node7 -->
<g id="edge5" class="edge"><title>Node11&#45;&gt;Node7</title>
<path fill="none" stroke="midnightblue" d="M281.739,-123C290.618,-123 299.493,-123 307.962,-123"/>
<polygon fill="midnightblue" stroke="midnightblue" points="281.735,-119.5 271.735,-123 281.735,-126.5 281.735,-119.5"/>
</g>
<!-- Node12&#45;&gt;Node7 -->
<g id="edge7" class="edge"><title>Node12&#45;&gt;Node7</title>
<path fill="none" stroke="midnightblue" d="M259.234,-91.967C277.127,-97.217 296.492,-102.899 313.702,-107.948"/>
<polygon fill="midnightblue" stroke="midnightblue" points="260.049,-88.5585 249.468,-89.1014 258.078,-95.2754 260.049,-88.5585"/>
</g>
<!-- Node13&#45;&gt;Node7 -->
<g id="edge9" class="edge"><title>Node13&#45;&gt;Node7</title>
<path fill="none" stroke="midnightblue" d="M262.595,-44.9003C265.817,-46.5415 268.97,-48.2435 272,-50 300.946,-66.7785 330.734,-91.7856 348.557,-107.741"/>
<polygon fill="midnightblue" stroke="midnightblue" points="263.904,-41.6454 253.377,-40.4416 260.855,-47.9469 263.904,-41.6454"/>
</g>
</g>
</svg>
