<?xml version="1.0" encoding="UTF-8" standalone="no"?>
<!DOCTYPE svg PUBLIC "-//W3C//DTD SVG 1.1//EN"
 "http://www.w3.org/Graphics/SVG/1.1/DTD/svg11.dtd">
<!-- Generated by graphviz version 2.36.0 (20140111.2315)
 -->
<!-- Title: ant::analysis::physics::singlePi0 Pages: 1 -->
<svg width="1170pt" height="569pt"
 viewBox="0.00 0.00 1170.00 569.00" xmlns="http://www.w3.org/2000/svg" xmlns:xlink="http://www.w3.org/1999/xlink">
<g id="graph0" class="graph" transform="scale(1 1) rotate(0) translate(4 565)">
<title>ant::analysis::physics::singlePi0</title>
<polygon fill="white" stroke="none" points="-4,4 -4,-565 1166,-565 1166,4 -4,4"/>
<!-- Node2 -->
<g id="node1" class="node"><title>Node2</title>
<polygon fill="#bfbfbf" stroke="black" points="1050,-247 1050,-277 1162,-277 1162,-247 1050,-247"/>
<text text-anchor="start" x="1058" y="-265" font-family="Helvetica,sans-Serif" font-size="10.00">ant::analysis::physics</text>
<text text-anchor="middle" x="1106" y="-254" font-family="Helvetica,sans-Serif" font-size="10.00">::singlePi0</text>
</g>
<!-- Node3 -->
<g id="node2" class="node"><title>Node3</title>
<g id="a_node2"><a xlink:href="classant_1_1analysis_1_1_physics.html" target="_top" xlink:title="ant::analysis::Physics">
<polygon fill="white" stroke="black" points="802.5,-503.5 802.5,-522.5 915.5,-522.5 915.5,-503.5 802.5,-503.5"/>
<text text-anchor="middle" x="859" y="-510.5" font-family="Helvetica,sans-Serif" font-size="10.00">ant::analysis::Physics</text>
</a>
</g>
</g>
<!-- Node3&#45;&gt;Node2 -->
<g id="edge1" class="edge"><title>Node3&#45;&gt;Node2</title>
<path fill="none" stroke="midnightblue" d="M926.09,-514.271C961.375,-511.55 1003.32,-502.408 1032,-477 1092.79,-423.157 1103.01,-316.75 1104.69,-277.239"/>
<polygon fill="midnightblue" stroke="midnightblue" points="925.622,-510.793 915.855,-514.898 926.05,-517.78 925.622,-510.793"/>
</g>
<!-- Node4 -->
<g id="node3" class="node"><title>Node4</title>
<g id="a_node3"><a xlink:href="classant_1_1analysis_1_1_histogram_factory.html" target="_top" xlink:title="ant::analysis::Histogram\lFactory">
<polygon fill="white" stroke="black" points="487.5,-501 487.5,-531 610.5,-531 610.5,-501 487.5,-501"/>
<text text-anchor="start" x="495.5" y="-519" font-family="Helvetica,sans-Serif" font-size="10.00">ant::analysis::Histogram</text>
<text text-anchor="middle" x="549" y="-508" font-family="Helvetica,sans-Serif" font-size="10.00">Factory</text>
</a>
</g>
</g>
<!-- Node4&#45;&gt;Node3 -->
<g id="edge2" class="edge"><title>Node4&#45;&gt;Node3</title>
<path fill="none" stroke="#9a32cd" stroke-dasharray="5,2" d="M620.909,-515.309C676.095,-514.772 751.603,-514.036 802.452,-513.541"/>
<polygon fill="#9a32cd" stroke="#9a32cd" points="620.816,-511.81 610.851,-515.407 620.885,-518.81 620.816,-511.81"/>
<text text-anchor="middle" x="704" y="-518" font-family="Helvetica,sans-Serif" font-size="10.00"> HistFac</text>
</g>
<!-- Node5 -->
<g id="node4" class="node"><title>Node5</title>
<g id="a_node4"><a xlink:href="classant_1_1analysis_1_1utils_1_1_a2_simple_geometry.html" target="_top" xlink:title="ant::analysis::utils\l::A2SimpleGeometry">
<polygon fill="white" stroke="black" points="350.5,-357 350.5,-387 457.5,-387 457.5,-357 350.5,-357"/>
<text text-anchor="start" x="358.5" y="-375" font-family="Helvetica,sans-Serif" font-size="10.00">ant::analysis::utils</text>
<text text-anchor="middle" x="404" y="-364" font-family="Helvetica,sans-Serif" font-size="10.00">::A2SimpleGeometry</text>
</a>
</g>
</g>
<!-- Node5&#45;&gt;Node2 -->
<g id="edge3" class="edge"><title>Node5&#45;&gt;Node2</title>
<path fill="none" stroke="#9a32cd" stroke-dasharray="5,2" d="M467.809,-375.956C567.354,-380.813 766.989,-384.79 932,-352 978.48,-342.764 990.213,-337.352 1032,-315 1052.02,-304.289 1072.78,-288.708 1087.02,-277.21"/>
<polygon fill="#9a32cd" stroke="#9a32cd" points="467.788,-372.45 457.623,-375.438 467.432,-379.441 467.788,-372.45"/>
<text text-anchor="middle" x="704" y="-382" font-family="Helvetica,sans-Serif" font-size="10.00"> geometry</text>
</g>
<!-- Node6 -->
<g id="node5" class="node"><title>Node6</title>
<g id="a_node5"><a xlink:href="classant_1_1interval.html" target="_top" xlink:title="ant::interval\&lt; double \&gt;">
<polygon fill="white" stroke="black" points="0,-436.5 0,-455.5 114,-455.5 114,-436.5 0,-436.5"/>
<text text-anchor="middle" x="57" y="-443.5" font-family="Helvetica,sans-Serif" font-size="10.00">ant::interval&lt; double &gt;</text>
</a>
</g>
</g>
<!-- Node6&#45;&gt;Node5 -->
<g id="edge4" class="edge"><title>Node6&#45;&gt;Node5</title>
<path fill="none" stroke="#9a32cd" stroke-dasharray="5,2" d="M78.1677,-430.328C92.4571,-419.964 112.483,-406.882 132,-399 203.571,-370.097 294.065,-367.077 350.243,-368.682"/>
<polygon fill="#9a32cd" stroke="#9a32cd" points="75.9984,-427.579 70.0677,-436.359 80.1789,-433.194 75.9984,-427.579"/>
<text text-anchor="middle" x="167" y="-424" font-family="Helvetica,sans-Serif" font-size="10.00"> cb_phi_hem1</text>
<text text-anchor="middle" x="167" y="-413" font-family="Helvetica,sans-Serif" font-size="10.00">cb_theta_region</text>
<text text-anchor="middle" x="167" y="-402" font-family="Helvetica,sans-Serif" font-size="10.00">taps_region</text>
</g>
<!-- Node17 -->
<g id="node16" class="node"><title>Node17</title>
<g id="a_node16"><a xlink:href="structant_1_1analysis_1_1physics_1_1single_pi0_1_1settings__t.html" target="_top" xlink:title="ant::analysis::physics\l::singlePi0::settings_t">
<polygon fill="white" stroke="black" points="493,-403 493,-433 605,-433 605,-403 493,-403"/>
<text text-anchor="start" x="501" y="-421" font-family="Helvetica,sans-Serif" font-size="10.00">ant::analysis::physics</text>
<text text-anchor="middle" x="549" y="-410" font-family="Helvetica,sans-Serif" font-size="10.00">::singlePi0::settings_t</text>
</a>
</g>
</g>
<!-- Node6&#45;&gt;Node17 -->
<g id="edge18" class="edge"><title>Node6&#45;&gt;Node17</title>
<path fill="none" stroke="#9a32cd" stroke-dasharray="5,2" d="M124.375,-443.908C203.783,-441.16 340.717,-435.644 458,-427 469.276,-426.169 481.328,-425.094 492.828,-423.977"/>
<polygon fill="#9a32cd" stroke="#9a32cd" points="123.908,-440.422 114.034,-444.261 124.147,-447.418 123.908,-440.422"/>
<text text-anchor="middle" x="276" y="-499" font-family="Helvetica,sans-Serif" font-size="10.00"> Range_Prompt</text>
<text text-anchor="middle" x="276" y="-488" font-family="Helvetica,sans-Serif" font-size="10.00">Cut_EMB_prob</text>
<text text-anchor="middle" x="276" y="-477" font-family="Helvetica,sans-Serif" font-size="10.00">Cut_MMAngle</text>
<text text-anchor="middle" x="276" y="-466" font-family="Helvetica,sans-Serif" font-size="10.00">Cut_MM</text>
<text text-anchor="middle" x="276" y="-455" font-family="Helvetica,sans-Serif" font-size="10.00">Cut_ProtonCopl</text>
<text text-anchor="middle" x="276" y="-444" font-family="Helvetica,sans-Serif" font-size="10.00">Cut_IM</text>
</g>
<!-- Node18 -->
<g id="node17" class="node"><title>Node18</title>
<polygon fill="white" stroke="#bfbfbf" points="224,-531 224,-561 328,-561 328,-531 224,-531"/>
<text text-anchor="start" x="232" y="-549" font-family="Helvetica,sans-Serif" font-size="10.00">std::vector&lt; interval</text>
<text text-anchor="middle" x="276" y="-538" font-family="Helvetica,sans-Serif" font-size="10.00">&lt; double &gt; &gt;</text>
</g>
<!-- Node6&#45;&gt;Node18 -->
<g id="edge17" class="edge"><title>Node6&#45;&gt;Node18</title>
<path fill="none" stroke="#9a32cd" stroke-dasharray="5,2" d="M87.9108,-459.784C128.425,-478.454 200.479,-511.658 242.357,-530.957"/>
<polygon fill="#9a32cd" stroke="#9a32cd" points="89.3538,-456.595 78.8069,-455.588 86.4241,-462.952 89.3538,-456.595"/>
<text text-anchor="middle" x="167" y="-513" font-family="Helvetica,sans-Serif" font-size="10.00"> elements</text>
</g>
<!-- Node7 -->
<g id="node6" class="node"><title>Node7</title>
<g id="a_node6"><a xlink:href="classant_1_1analysis_1_1utils_1_1_kin_fitter.html" target="_top" xlink:title="ant::analysis::utils\l::KinFitter">
<polygon fill="white" stroke="black" points="811,-195 811,-225 907,-225 907,-195 811,-195"/>
<text text-anchor="start" x="819" y="-213" font-family="Helvetica,sans-Serif" font-size="10.00">ant::analysis::utils</text>
<text text-anchor="middle" x="859" y="-202" font-family="Helvetica,sans-Serif" font-size="10.00">::KinFitter</text>
</a>
</g>
</g>
<!-- Node7&#45;&gt;Node2 -->
<g id="edge5" class="edge"><title>Node7&#45;&gt;Node2</title>
<path fill="none" stroke="#9a32cd" stroke-dasharray="5,2" d="M917.293,-216.452C950.983,-220.875 994.243,-227.647 1032,-237 1042.92,-239.706 1054.54,-243.327 1065.21,-246.973"/>
<polygon fill="#9a32cd" stroke="#9a32cd" points="917.525,-212.953 907.161,-215.154 916.636,-219.896 917.525,-212.953"/>
<text text-anchor="middle" x="991" y="-240" font-family="Helvetica,sans-Serif" font-size="10.00"> fitterEMB</text>
</g>
<!-- Node8 -->
<g id="node7" class="node"><title>Node8</title>
<g id="a_node7"><a xlink:href="classant_1_1analysis_1_1utils_1_1_fitter.html" target="_top" xlink:title="ant::analysis::utils\l::Fitter">
<polygon fill="white" stroke="black" points="501,-207 501,-237 597,-237 597,-207 501,-207"/>
<text text-anchor="start" x="509" y="-225" font-family="Helvetica,sans-Serif" font-size="10.00">ant::analysis::utils</text>
<text text-anchor="middle" x="549" y="-214" font-family="Helvetica,sans-Serif" font-size="10.00">::Fitter</text>
</a>
</g>
</g>
<!-- Node8&#45;&gt;Node7 -->
<g id="edge6" class="edge"><title>Node8&#45;&gt;Node7</title>
<path fill="none" stroke="midnightblue" d="M607.333,-219.766C666.039,-217.479 756.208,-213.966 810.891,-211.835"/>
<polygon fill="midnightblue" stroke="midnightblue" points="606.97,-216.278 597.114,-220.164 607.243,-223.272 606.97,-216.278"/>
</g>
<!-- Node9 -->
<g id="node8" class="node"><title>Node9</title>
<g id="a_node8"><a xlink:href="structant_1_1analysis_1_1utils_1_1_kin_fitter_1_1_target__t.html" target="_top" xlink:title="ant::analysis::utils\l::KinFitter::Target_t">
<polygon fill="white" stroke="black" points="498.5,-158 498.5,-188 599.5,-188 599.5,-158 498.5,-158"/>
<text text-anchor="start" x="506.5" y="-176" font-family="Helvetica,sans-Serif" font-size="10.00">ant::analysis::utils</text>
<text text-anchor="middle" x="549" y="-165" font-family="Helvetica,sans-Serif" font-size="10.00">::KinFitter::Target_t</text>
</a>
</g>
</g>
<!-- Node9&#45;&gt;Node7 -->
<g id="edge7" class="edge"><title>Node9&#45;&gt;Node7</title>
<path fill="none" stroke="#9a32cd" stroke-dasharray="5,2" d="M609.982,-180.106C653.775,-185.306 714.576,-192.549 768,-199 781.909,-200.679 797.024,-202.521 810.827,-204.208"/>
<polygon fill="#9a32cd" stroke="#9a32cd" points="610.132,-176.6 599.79,-178.896 609.307,-183.551 610.132,-176.6"/>
<text text-anchor="middle" x="704" y="-202" font-family="Helvetica,sans-Serif" font-size="10.00"> Target</text>
</g>
<!-- Node10 -->
<g id="node9" class="node"><title>Node10</title>
<g id="a_node9"><a xlink:href="structant_1_1analysis_1_1utils_1_1_kin_fitter_1_1_beam_e__t.html" target="_top" xlink:title="ant::analysis::utils\l::KinFitter::BeamE_t">
<polygon fill="white" stroke="black" points="496,-109 496,-139 602,-139 602,-109 496,-109"/>
<text text-anchor="start" x="504" y="-127" font-family="Helvetica,sans-Serif" font-size="10.00">ant::analysis::utils</text>
<text text-anchor="middle" x="549" y="-116" font-family="Helvetica,sans-Serif" font-size="10.00">::KinFitter::BeamE_t</text>
</a>
</g>
</g>
<!-- Node10&#45;&gt;Node7 -->
<g id="edge8" class="edge"><title>Node10&#45;&gt;Node7</title>
<path fill="none" stroke="#9a32cd" stroke-dasharray="5,2" d="M611.997,-129.015C657.099,-134.546 718.651,-146.08 768,-170 777.371,-174.542 776.934,-179.876 786,-185 793.718,-189.362 802.328,-193.154 810.834,-196.374"/>
<polygon fill="#9a32cd" stroke="#9a32cd" points="612.395,-125.538 602.058,-127.86 611.587,-132.491 612.395,-125.538"/>
<text text-anchor="middle" x="704" y="-173" font-family="Helvetica,sans-Serif" font-size="10.00"> BeamE</text>
</g>
<!-- Node11 -->
<g id="node10" class="node"><title>Node11</title>
<g id="a_node10"><a xlink:href="structant_1_1analysis_1_1utils_1_1_fitter_1_1_v___s___p__t.html" target="_top" xlink:title="ant::analysis::utils\l::Fitter::V_S_P_t">
<polygon fill="white" stroke="black" points="228,-109 228,-139 324,-139 324,-109 228,-109"/>
<text text-anchor="start" x="236" y="-127" font-family="Helvetica,sans-Serif" font-size="10.00">ant::analysis::utils</text>
<text text-anchor="middle" x="276" y="-116" font-family="Helvetica,sans-Serif" font-size="10.00">::Fitter::V_S_P_t</text>
</a>
</g>
</g>
<!-- Node11&#45;&gt;Node10 -->
<g id="edge9" class="edge"><title>Node11&#45;&gt;Node10</title>
<path fill="none" stroke="midnightblue" d="M334.382,-124C382.131,-124 449.536,-124 495.789,-124"/>
<polygon fill="midnightblue" stroke="midnightblue" points="334.205,-120.5 324.205,-124 334.205,-127.5 334.205,-120.5"/>
</g>
<!-- Node12 -->
<g id="node11" class="node"><title>Node12</title>
<g id="a_node11"><a xlink:href="structant_1_1analysis_1_1utils_1_1_fitter_1_1_v___s__t.html" target="_top" xlink:title="ant::analysis::utils\l::Fitter::V_S_t">
<polygon fill="white" stroke="black" points="9,-109 9,-139 105,-139 105,-109 9,-109"/>
<text text-anchor="start" x="17" y="-127" font-family="Helvetica,sans-Serif" font-size="10.00">ant::analysis::utils</text>
<text text-anchor="middle" x="57" y="-116" font-family="Helvetica,sans-Serif" font-size="10.00">::Fitter::V_S_t</text>
</a>
</g>
</g>
<!-- Node12&#45;&gt;Node11 -->
<g id="edge10" class="edge"><title>Node12&#45;&gt;Node11</title>
<path fill="none" stroke="midnightblue" d="M115.174,-124C150.221,-124 194.553,-124 227.632,-124"/>
<polygon fill="midnightblue" stroke="midnightblue" points="115.086,-120.5 105.086,-124 115.086,-127.5 115.086,-120.5"/>
</g>
<!-- Node13 -->
<g id="node12" class="node"><title>Node13</title>
<polygon fill="white" stroke="#bfbfbf" points="486.5,-256.5 486.5,-275.5 611.5,-275.5 611.5,-256.5 486.5,-256.5"/>
<text text-anchor="middle" x="549" y="-263.5" font-family="Helvetica,sans-Serif" font-size="10.00">std::vector&lt; FitParticle &gt;</text>
</g>
<!-- Node13&#45;&gt;Node7 -->
<g id="edge11" class="edge"><title>Node13&#45;&gt;Node7</title>
<path fill="none" stroke="#9a32cd" stroke-dasharray="5,2" d="M596.112,-253.93C610.149,-250.472 625.657,-246.866 640,-244 698.409,-232.328 766.294,-222.291 810.592,-216.209"/>
<polygon fill="#9a32cd" stroke="#9a32cd" points="595.043,-250.589 586.189,-256.409 596.74,-257.381 595.043,-250.589"/>
<text text-anchor="middle" x="704" y="-247" font-family="Helvetica,sans-Serif" font-size="10.00"> Photons</text>
</g>
<!-- Node14 -->
<g id="node13" class="node"><title>Node14</title>
<g id="a_node13"><a xlink:href="structant_1_1analysis_1_1physics_1_1single_pi0_1_1named__channel__t.html" target="_top" xlink:title="ant::analysis::physics\l::singlePi0::named_channel_t">
<polygon fill="white" stroke="black" points="476.5,-295 476.5,-325 621.5,-325 621.5,-295 476.5,-295"/>
<text text-anchor="start" x="484.5" y="-313" font-family="Helvetica,sans-Serif" font-size="10.00">ant::analysis::physics</text>
<text text-anchor="middle" x="549" y="-302" font-family="Helvetica,sans-Serif" font-size="10.00">::singlePi0::named_channel_t</text>
</a>
</g>
</g>
<!-- Node14&#45;&gt;Node2 -->
<g id="edge12" class="edge"><title>Node14&#45;&gt;Node2</title>
<path fill="none" stroke="#9a32cd" stroke-dasharray="5,2" d="M631.763,-293.685C677.025,-285.362 734.407,-275.968 786,-271 878.237,-262.119 986.111,-261.001 1049.82,-261.293"/>
<polygon fill="#9a32cd" stroke="#9a32cd" points="630.901,-290.285 621.709,-295.553 632.18,-297.167 630.901,-290.285"/>
<text text-anchor="middle" x="859" y="-285" font-family="Helvetica,sans-Serif" font-size="10.00"> signal</text>
<text text-anchor="middle" x="859" y="-274" font-family="Helvetica,sans-Serif" font-size="10.00">mainBackground</text>
</g>
<!-- Node23 -->
<g id="node22" class="node"><title>Node23</title>
<polygon fill="white" stroke="#bfbfbf" points="790.5,-302.5 790.5,-343.5 927.5,-343.5 927.5,-302.5 790.5,-302.5"/>
<text text-anchor="start" x="798.5" y="-331.5" font-family="Helvetica,sans-Serif" font-size="10.00">std::vector&lt; ant::analysis</text>
<text text-anchor="start" x="798.5" y="-320.5" font-family="Helvetica,sans-Serif" font-size="10.00">::physics::singlePi0::named</text>
<text text-anchor="middle" x="859" y="-309.5" font-family="Helvetica,sans-Serif" font-size="10.00">_channel_t &gt;</text>
</g>
<!-- Node14&#45;&gt;Node23 -->
<g id="edge25" class="edge"><title>Node14&#45;&gt;Node23</title>
<path fill="none" stroke="#9a32cd" stroke-dasharray="5,2" d="M631.855,-313.455C681.32,-315.543 743.614,-318.172 790.291,-320.142"/>
<polygon fill="#9a32cd" stroke="#9a32cd" points="631.962,-309.956 621.824,-313.032 631.667,-316.95 631.962,-309.956"/>
<text text-anchor="middle" x="704" y="-323" font-family="Helvetica,sans-Serif" font-size="10.00"> elements</text>
</g>
<!-- Node15 -->
<g id="node14" class="node"><title>Node15</title>
<g id="a_node14"><a xlink:title="STL class. ">
<polygon fill="white" stroke="#bfbfbf" points="246,-305.5 246,-324.5 306,-324.5 306,-305.5 246,-305.5"/>
<text text-anchor="middle" x="276" y="-312.5" font-family="Helvetica,sans-Serif" font-size="10.00">std::string</text>
</a>
</g>
</g>
<!-- Node15&#45;&gt;Node14 -->
<g id="edge13" class="edge"><title>Node15&#45;&gt;Node14</title>
<path fill="none" stroke="#9a32cd" stroke-dasharray="5,2" d="M316.188,-309.909C327.114,-308.707 339.002,-307.601 350,-307 391.88,-304.712 438.811,-305.286 476.468,-306.514"/>
<polygon fill="#9a32cd" stroke="#9a32cd" points="315.601,-306.454 306.069,-311.078 316.404,-313.408 315.601,-306.454"/>
<text text-anchor="middle" x="404" y="-310" font-family="Helvetica,sans-Serif" font-size="10.00"> Name</text>
</g>
<!-- Node15&#45;&gt;Node17 -->
<g id="edge19" class="edge"><title>Node15&#45;&gt;Node17</title>
<path fill="none" stroke="#9a32cd" stroke-dasharray="5,2" d="M316.429,-317.549C361.888,-320.952 433.498,-327.878 458,-339 490.562,-353.781 519.996,-384.362 535.807,-402.839"/>
<polygon fill="#9a32cd" stroke="#9a32cd" points="316.544,-314.048 306.317,-316.817 316.038,-321.03 316.544,-314.048"/>
<text text-anchor="middle" x="404" y="-342" font-family="Helvetica,sans-Serif" font-size="10.00"> Tree_Name</text>
</g>
<!-- Node16 -->
<g id="node15" class="node"><title>Node16</title>
<g id="a_node15"><a xlink:title="STL class. ">
<polygon fill="white" stroke="#bfbfbf" points="9.5,-300 9.5,-330 104.5,-330 104.5,-300 9.5,-300"/>
<text text-anchor="start" x="17.5" y="-318" font-family="Helvetica,sans-Serif" font-size="10.00">std::basic_string&lt;</text>
<text text-anchor="middle" x="57" y="-307" font-family="Helvetica,sans-Serif" font-size="10.00"> char &gt;</text>
</a>
</g>
</g>
<!-- Node16&#45;&gt;Node15 -->
<g id="edge14" class="edge"><title>Node16&#45;&gt;Node15</title>
<path fill="none" stroke="midnightblue" d="M114.659,-315C156.719,-315 212.367,-315 245.826,-315"/>
<polygon fill="midnightblue" stroke="midnightblue" points="114.552,-311.5 104.552,-315 114.552,-318.5 114.552,-311.5"/>
</g>
<!-- Node17&#45;&gt;Node2 -->
<g id="edge15" class="edge"><title>Node17&#45;&gt;Node2</title>
<path fill="none" stroke="#9a32cd" stroke-dasharray="5,2" d="M615.16,-421.021C730.299,-425.173 964.004,-427.924 1032,-386 1072.61,-360.958 1093.26,-304.258 1101.13,-277.08"/>
<polygon fill="#9a32cd" stroke="#9a32cd" points="615.191,-417.52 605.066,-420.642 614.928,-424.515 615.191,-417.52"/>
<text text-anchor="middle" x="859" y="-426" font-family="Helvetica,sans-Serif" font-size="10.00"> phSettings</text>
</g>
<!-- Node18&#45;&gt;Node17 -->
<g id="edge16" class="edge"><title>Node18&#45;&gt;Node17</title>
<path fill="none" stroke="#9a32cd" stroke-dasharray="5,2" d="M316.682,-525.966C321.966,-522.837 327.208,-519.48 332,-516 340.904,-509.534 340.629,-504.767 350,-499 393.462,-472.252 414.538,-486.748 458,-460 467.371,-454.233 466.593,-448.709 476,-443 482.221,-439.224 489.093,-435.916 496.048,-433.05"/>
<polygon fill="#9a32cd" stroke="#9a32cd" points="314.79,-523.015 307.823,-530.997 318.247,-529.102 314.79,-523.015"/>
<text text-anchor="middle" x="404" y="-502" font-family="Helvetica,sans-Serif" font-size="10.00"> Ranges_Random</text>
</g>
<!-- Node27 -->
<g id="node26" class="node"><title>Node27</title>
<g id="a_node26"><a xlink:href="classant_1_1_piecewise_interval.html" target="_top" xlink:title="ant::PiecewiseInterval\l\&lt; double \&gt;">
<polygon fill="white" stroke="black" points="492.5,-452 492.5,-482 605.5,-482 605.5,-452 492.5,-452"/>
<text text-anchor="start" x="500.5" y="-470" font-family="Helvetica,sans-Serif" font-size="10.00">ant::PiecewiseInterval</text>
<text text-anchor="middle" x="549" y="-459" font-family="Helvetica,sans-Serif" font-size="10.00">&lt; double &gt;</text>
</a>
</g>
</g>
<!-- Node18&#45;&gt;Node27 -->
<g id="edge32" class="edge"><title>Node18&#45;&gt;Node27</title>
<path fill="none" stroke="midnightblue" d="M338.38,-545.689C375.262,-543.038 421.886,-535.161 458,-514 468.9,-507.613 465.642,-499.234 476,-492 481.424,-488.212 487.476,-484.95 493.704,-482.153"/>
<polygon fill="midnightblue" stroke="midnightblue" points="338.021,-542.204 328.252,-546.304 338.446,-549.191 338.021,-542.204"/>
</g>
<!-- Node19 -->
<g id="node18" class="node"><title>Node19</title>
<g id="a_node18"><a xlink:href="classant_1_1interval.html" target="_top" xlink:title="ant::interval\&lt; size_t \&gt;">
<polygon fill="white" stroke="black" points="220,-390.5 220,-409.5 332,-409.5 332,-390.5 220,-390.5"/>
<text text-anchor="middle" x="276" y="-397.5" font-family="Helvetica,sans-Serif" font-size="10.00">ant::interval&lt; size_t &gt;</text>
</a>
</g>
</g>
<!-- Node19&#45;&gt;Node17 -->
<g id="edge20" class="edge"><title>Node19&#45;&gt;Node17</title>
<path fill="none" stroke="#9a32cd" stroke-dasharray="5,2" d="M342.343,-404.34C388.379,-407.398 449.335,-411.447 492.91,-414.341"/>
<polygon fill="#9a32cd" stroke="#9a32cd" points="342.378,-400.835 332.168,-403.664 341.914,-407.819 342.378,-400.835"/>
<text text-anchor="middle" x="404" y="-415" font-family="Helvetica,sans-Serif" font-size="10.00"> Cut_NCands</text>
</g>
<!-- Node20 -->
<g id="node19" class="node"><title>Node20</title>
<g id="a_node19"><a xlink:href="structant_1_1analysis_1_1physics_1_1single_pi0_1_1_seen_tree.html" target="_top" xlink:title="ant::analysis::physics\l::singlePi0::SeenTree">
<polygon fill="white" stroke="black" points="803,-97 803,-127 915,-127 915,-97 803,-97"/>
<text text-anchor="start" x="811" y="-115" font-family="Helvetica,sans-Serif" font-size="10.00">ant::analysis::physics</text>
<text text-anchor="middle" x="859" y="-104" font-family="Helvetica,sans-Serif" font-size="10.00">::singlePi0::SeenTree</text>
</a>
</g>
</g>
<!-- Node20&#45;&gt;Node2 -->
<g id="edge21" class="edge"><title>Node20&#45;&gt;Node2</title>
<path fill="none" stroke="#9a32cd" stroke-dasharray="5,2" d="M924.921,-122.021C959.093,-129.647 1000.35,-142.771 1032,-165 1062.87,-186.683 1086.26,-225.468 1097.54,-246.837"/>
<polygon fill="#9a32cd" stroke="#9a32cd" points="925.533,-118.573 915.025,-119.919 924.08,-125.42 925.533,-118.573"/>
<text text-anchor="middle" x="991" y="-168" font-family="Helvetica,sans-Serif" font-size="10.00"> seenSignal</text>
</g>
<!-- Node21 -->
<g id="node20" class="node"><title>Node21</title>
<g id="a_node20"><a xlink:href="structant_1_1analysis_1_1physics_1_1single_pi0_1_1eff_tree__t.html" target="_top" xlink:title="ant::analysis::physics\l::singlePi0::effTree_t">
<polygon fill="white" stroke="black" points="493,-60 493,-90 605,-90 605,-60 493,-60"/>
<text text-anchor="start" x="501" y="-78" font-family="Helvetica,sans-Serif" font-size="10.00">ant::analysis::physics</text>
<text text-anchor="middle" x="549" y="-67" font-family="Helvetica,sans-Serif" font-size="10.00">::singlePi0::effTree_t</text>
</a>
</g>
</g>
<!-- Node21&#45;&gt;Node20 -->
<g id="edge22" class="edge"><title>Node21&#45;&gt;Node20</title>
<path fill="none" stroke="midnightblue" d="M615.547,-76.5881C658.999,-78.3571 717.158,-82.0964 768,-90 779.444,-91.779 791.57,-94.2975 803.089,-96.9989"/>
<polygon fill="midnightblue" stroke="midnightblue" points="615.518,-73.0845 605.391,-76.1995 615.25,-80.0794 615.518,-73.0845"/>
</g>
<!-- Node24 -->
<g id="node23" class="node"><title>Node24</title>
<g id="a_node23"><a xlink:href="structant_1_1analysis_1_1physics_1_1single_pi0_1_1_rec_tree.html" target="_top" xlink:title="ant::analysis::physics\l::singlePi0::RecTree">
<polygon fill="white" stroke="black" points="803,-146 803,-176 915,-176 915,-146 803,-146"/>
<text text-anchor="start" x="811" y="-164" font-family="Helvetica,sans-Serif" font-size="10.00">ant::analysis::physics</text>
<text text-anchor="middle" x="859" y="-153" font-family="Helvetica,sans-Serif" font-size="10.00">::singlePi0::RecTree</text>
</a>
</g>
</g>
<!-- Node21&#45;&gt;Node24 -->
<g id="edge27" class="edge"><title>Node21&#45;&gt;Node24</title>
<path fill="none" stroke="midnightblue" d="M614.896,-89.8524C658.454,-100.193 716.982,-114.807 768,-130 772.91,-131.462 794.179,-138.781 814.808,-145.94"/>
<polygon fill="midnightblue" stroke="midnightblue" points="615.537,-86.4076 605,-87.5155 613.928,-93.2202 615.537,-86.4076"/>
</g>
<!-- Node22 -->
<g id="node21" class="node"><title>Node22</title>
<g id="a_node21"><a xlink:href="classant_1_1_wrap_t_tree.html" target="_top" xlink:title="The WrapTTree struct simplifies TTree handling in physics classes. ">
<polygon fill="white" stroke="black" points="233.5,-38.5 233.5,-57.5 318.5,-57.5 318.5,-38.5 233.5,-38.5"/>
<text text-anchor="middle" x="276" y="-45.5" font-family="Helvetica,sans-Serif" font-size="10.00">ant::WrapTTree</text>
</a>
</g>
</g>
<!-- Node22&#45;&gt;Node21 -->
<g id="edge23" class="edge"><title>Node22&#45;&gt;Node21</title>
<path fill="none" stroke="midnightblue" d="M328.701,-53.151C375.602,-57.8238 444.556,-64.6937 492.579,-69.4784"/>
<polygon fill="midnightblue" stroke="midnightblue" points="329.048,-49.6683 318.75,-52.1596 328.354,-56.6338 329.048,-49.6683"/>
</g>
<!-- Node25 -->
<g id="node24" class="node"><title>Node25</title>
<g id="a_node24"><a xlink:href="structant_1_1analysis_1_1physics_1_1single_pi0_1_1_pion_prod_tree.html" target="_top" xlink:title="ant::analysis::physics\l::singlePi0::PionProdTree">
<polygon fill="white" stroke="black" points="640,-23 640,-53 768,-53 768,-23 640,-23"/>
<text text-anchor="start" x="648" y="-41" font-family="Helvetica,sans-Serif" font-size="10.00">ant::analysis::physics</text>
<text text-anchor="middle" x="704" y="-30" font-family="Helvetica,sans-Serif" font-size="10.00">::singlePi0::PionProdTree</text>
</a>
</g>
</g>
<!-- Node22&#45;&gt;Node25 -->
<g id="edge29" class="edge"><title>Node22&#45;&gt;Node25</title>
<path fill="none" stroke="midnightblue" d="M328.732,-46.7856C407.028,-44.9477 555.429,-41.4641 639.938,-39.4803"/>
<polygon fill="midnightblue" stroke="midnightblue" points="328.537,-43.2891 318.622,-47.023 328.702,-50.2872 328.537,-43.2891"/>
</g>
<!-- Node23&#45;&gt;Node2 -->
<g id="edge24" class="edge"><title>Node23&#45;&gt;Node2</title>
<path fill="none" stroke="#9a32cd" stroke-dasharray="5,2" d="M937.718,-303.65C974.228,-294.559 1016.89,-283.937 1050,-275.694"/>
<polygon fill="#9a32cd" stroke="#9a32cd" points="936.454,-300.358 927.596,-306.17 938.145,-307.15 936.454,-300.358"/>
<text text-anchor="middle" x="991" y="-303" font-family="Helvetica,sans-Serif" font-size="10.00"> otherBackgrounds</text>
</g>
<!-- Node24&#45;&gt;Node2 -->
<g id="edge26" class="edge"><title>Node24&#45;&gt;Node2</title>
<path fill="none" stroke="#9a32cd" stroke-dasharray="5,2" d="M925.384,-172.298C958.427,-179.527 998.509,-190.677 1032,-207 1053.4,-217.428 1074.78,-234.519 1088.82,-246.884"/>
<polygon fill="#9a32cd" stroke="#9a32cd" points="925.878,-168.825 915.37,-170.179 924.429,-175.674 925.878,-168.825"/>
<text text-anchor="middle" x="991" y="-210" font-family="Helvetica,sans-Serif" font-size="10.00"> recSignal</text>
</g>
<!-- Node25&#45;&gt;Node2 -->
<g id="edge28" class="edge"><title>Node25&#45;&gt;Node2</title>
<path fill="none" stroke="#9a32cd" stroke-dasharray="5,2" d="M778.342,-44.6724C823.462,-50.1437 882.017,-59.7267 932,-76 979.249,-91.3833 996.358,-91.3763 1032,-126 1068.52,-161.477 1091.04,-219.207 1100.23,-246.617"/>
<polygon fill="#9a32cd" stroke="#9a32cd" points="778.685,-41.1886 768.345,-43.5004 777.87,-48.141 778.685,-41.1886"/>
<text text-anchor="middle" x="859" y="-79" font-family="Helvetica,sans-Serif" font-size="10.00"> tree</text>
</g>
<!-- Node26 -->
<g id="node25" class="node"><title>Node26</title>
<g id="a_node25"><a xlink:href="classant_1_1analysis_1_1_prompt_random_1_1_switch.html" target="_top" xlink:title="ant::analysis::PromptRandom\l::Switch">
<polygon fill="white" stroke="black" points="786,-449 786,-479 932,-479 932,-449 786,-449"/>
<text text-anchor="start" x="794" y="-467" font-family="Helvetica,sans-Serif" font-size="10.00">ant::analysis::PromptRandom</text>
<text text-anchor="middle" x="859" y="-456" font-family="Helvetica,sans-Serif" font-size="10.00">::Switch</text>
</a>
</g>
</g>
<!-- Node26&#45;&gt;Node2 -->
<g id="edge30" class="edge"><title>Node26&#45;&gt;Node2</title>
<path fill="none" stroke="#9a32cd" stroke-dasharray="5,2" d="M942.436,-464.582C973.322,-460.977 1006.96,-452.026 1032,-432 1082.17,-391.878 1098.5,-310.687 1103.25,-277.086"/>
<polygon fill="#9a32cd" stroke="#9a32cd" points="941.69,-461.139 932.084,-465.608 942.38,-468.105 941.69,-461.139"/>
<text text-anchor="middle" x="991" y="-465" font-family="Helvetica,sans-Serif" font-size="10.00"> promptrandom</text>
</g>
<!-- Node27&#45;&gt;Node26 -->
<g id="edge31" class="edge"><title>Node27&#45;&gt;Node26</title>
<path fill="none" stroke="#9a32cd" stroke-dasharray="5,2" d="M615.82,-466.359C665.755,-465.873 734.346,-465.204 785.786,-464.703"/>
<polygon fill="#9a32cd" stroke="#9a32cd" points="615.742,-462.859 605.776,-466.457 615.81,-469.859 615.742,-462.859"/>
<text text-anchor="middle" x="704" y="-480" font-family="Helvetica,sans-Serif" font-size="10.00"> promptw</text>
<text text-anchor="middle" x="704" y="-469" font-family="Helvetica,sans-Serif" font-size="10.00">randomw</text>
</g>
<!-- Node28 -->
<g id="node27" class="node"><title>Node28</title>
<g id="a_node27"><a xlink:href="classant_1_1analysis_1_1utils_1_1_trigger_simulation.html" target="_top" xlink:title="ant::analysis::utils\l::TriggerSimulation">
<polygon fill="white" stroke="black" points="810,-0 810,-30 908,-30 908,-0 810,-0"/>
<text text-anchor="start" x="818" y="-18" font-family="Helvetica,sans-Serif" font-size="10.00">ant::analysis::utils</text>
<text text-anchor="middle" x="859" y="-7" font-family="Helvetica,sans-Serif" font-size="10.00">::TriggerSimulation</text>
</a>
</g>
</g>
<!-- Node28&#45;&gt;Node2 -->
<g id="edge33" class="edge"><title>Node28&#45;&gt;Node2</title>
<path fill="none" stroke="#9a32cd" stroke-dasharray="5,2" d="M918.232,-9.71064C954.861,-9.56683 1000.91,-15.651 1032,-42 1095.55,-95.8588 1104.06,-206.459 1104.98,-246.825"/>
<polygon fill="#9a32cd" stroke="#9a32cd" points="918.101,-6.21241 908.171,-9.90469 918.237,-13.2111 918.101,-6.21241"/>
<text text-anchor="middle" x="991" y="-45" font-family="Helvetica,sans-Serif" font-size="10.00"> triggersimu</text>
</g>
</g>
</svg>
