<?xml version="1.0" encoding="UTF-8" standalone="no"?>
<!DOCTYPE svg PUBLIC "-//W3C//DTD SVG 1.1//EN"
 "http://www.w3.org/Graphics/SVG/1.1/DTD/svg11.dtd">
<!-- Generated by graphviz version 2.36.0 (20140111.2315)
 -->
<!-- Title: ant::analysis::physics::EtapOmegaG::Ref_t Pages: 1 -->
<svg width="1360pt" height="438pt"
 viewBox="0.00 0.00 1360.00 438.00" xmlns="http://www.w3.org/2000/svg" xmlns:xlink="http://www.w3.org/1999/xlink">
<g id="graph0" class="graph" transform="scale(1 1) rotate(0) translate(4 434)">
<title>ant::analysis::physics::EtapOmegaG::Ref_t</title>
<polygon fill="white" stroke="none" points="-4,4 -4,-434 1356,-434 1356,4 -4,4"/>
<!-- Node1 -->
<g id="node1" class="node"><title>Node1</title>
<polygon fill="#bfbfbf" stroke="black" points="1240,-277 1240,-307 1352,-307 1352,-277 1240,-277"/>
<text text-anchor="start" x="1248" y="-295" font-family="Helvetica,sans-Serif" font-size="10.00">ant::analysis::physics</text>
<text text-anchor="middle" x="1296" y="-284" font-family="Helvetica,sans-Serif" font-size="10.00">::EtapOmegaG::Ref_t</text>
</g>
<!-- Node2 -->
<g id="node2" class="node"><title>Node2</title>
<g id="a_node2"><a xlink:href="classant_1_1analysis_1_1utils_1_1_m_c_weighting.html" target="_top" xlink:title="ant::analysis::utils\l::MCWeighting">
<polygon fill="white" stroke="black" points="981,-277 981,-307 1077,-307 1077,-277 981,-277"/>
<text text-anchor="start" x="989" y="-295" font-family="Helvetica,sans-Serif" font-size="10.00">ant::analysis::utils</text>
<text text-anchor="middle" x="1029" y="-284" font-family="Helvetica,sans-Serif" font-size="10.00">::MCWeighting</text>
</a>
</g>
</g>
<!-- Node2&#45;&gt;Node1 -->
<g id="edge1" class="edge"><title>Node2&#45;&gt;Node1</title>
<path fill="none" stroke="#9a32cd" stroke-dasharray="5,2" d="M1087.29,-292C1132.44,-292 1195.01,-292 1239.66,-292"/>
<polygon fill="#9a32cd" stroke="#9a32cd" points="1087.07,-288.5 1077.07,-292 1087.07,-295.5 1087.07,-288.5"/>
<text text-anchor="middle" x="1171" y="-295" font-family="Helvetica,sans-Serif" font-size="10.00"> mcWeightingEtaPrime</text>
</g>
<!-- Node3 -->
<g id="node3" class="node"><title>Node3</title>
<g id="a_node3"><a xlink:href="structant_1_1analysis_1_1utils_1_1_m_c_weighting_1_1tree__t.html" target="_top" xlink:title="ant::analysis::utils\l::MCWeighting::tree_t">
<polygon fill="white" stroke="black" points="733.5,-351 733.5,-381 846.5,-381 846.5,-351 733.5,-351"/>
<text text-anchor="start" x="741.5" y="-369" font-family="Helvetica,sans-Serif" font-size="10.00">ant::analysis::utils</text>
<text text-anchor="middle" x="790" y="-358" font-family="Helvetica,sans-Serif" font-size="10.00">::MCWeighting::tree_t</text>
</a>
</g>
</g>
<!-- Node3&#45;&gt;Node2 -->
<g id="edge2" class="edge"><title>Node3&#45;&gt;Node2</title>
<path fill="none" stroke="#9a32cd" stroke-dasharray="5,2" d="M854.189,-348.131C862.216,-345.776 870.31,-343.36 878,-341 913.619,-330.068 953.727,-316.923 983.501,-307"/>
<polygon fill="#9a32cd" stroke="#9a32cd" points="853.083,-344.808 844.461,-350.965 855.041,-351.528 853.083,-344.808"/>
<text text-anchor="middle" x="917" y="-338" font-family="Helvetica,sans-Serif" font-size="10.00"> t</text>
</g>
<!-- Node4 -->
<g id="node4" class="node"><title>Node4</title>
<g id="a_node4"><a xlink:href="classant_1_1_wrap_t_tree.html" target="_top" xlink:title="The WrapTTree struct simplifies TTree handling in physics classes. ">
<polygon fill="white" stroke="black" points="507.5,-374.5 507.5,-393.5 592.5,-393.5 592.5,-374.5 507.5,-374.5"/>
<text text-anchor="middle" x="550" y="-381.5" font-family="Helvetica,sans-Serif" font-size="10.00">ant::WrapTTree</text>
</a>
</g>
</g>
<!-- Node4&#45;&gt;Node3 -->
<g id="edge3" class="edge"><title>Node4&#45;&gt;Node3</title>
<path fill="none" stroke="midnightblue" d="M602.717,-380.089C641.304,-377.17 693.949,-373.189 733.431,-370.203"/>
<polygon fill="midnightblue" stroke="midnightblue" points="602.436,-376.6 592.729,-380.844 602.964,-383.58 602.436,-376.6"/>
</g>
<!-- Node22 -->
<g id="node22" class="node"><title>Node22</title>
<g id="a_node22"><a xlink:href="structant_1_1analysis_1_1physics_1_1_etap_omega_g_1_1_proton_photon_tree__t.html" target="_top" xlink:title="ant::analysis::physics\l::EtapOmegaG::ProtonPhotonTree_t">
<polygon fill="white" stroke="black" points="702.5,-400 702.5,-430 877.5,-430 877.5,-400 702.5,-400"/>
<text text-anchor="start" x="710.5" y="-418" font-family="Helvetica,sans-Serif" font-size="10.00">ant::analysis::physics</text>
<text text-anchor="middle" x="790" y="-407" font-family="Helvetica,sans-Serif" font-size="10.00">::EtapOmegaG::ProtonPhotonTree_t</text>
</a>
</g>
</g>
<!-- Node4&#45;&gt;Node22 -->
<g id="edge24" class="edge"><title>Node4&#45;&gt;Node22</title>
<path fill="none" stroke="midnightblue" d="M602.677,-390.731C631.801,-394.525 668.944,-399.362 702.391,-403.719"/>
<polygon fill="midnightblue" stroke="midnightblue" points="603.097,-387.256 592.729,-389.435 602.193,-394.198 603.097,-387.256"/>
</g>
<!-- Node5 -->
<g id="node5" class="node"><title>Node5</title>
<g id="a_node5"><a xlink:href="structant_1_1analysis_1_1utils_1_1_m_c_weighting_1_1item__t.html" target="_top" xlink:title="ant::analysis::utils\l::MCWeighting::item_t">
<polygon fill="white" stroke="black" points="732.5,-186 732.5,-216 847.5,-216 847.5,-186 732.5,-186"/>
<text text-anchor="start" x="740.5" y="-204" font-family="Helvetica,sans-Serif" font-size="10.00">ant::analysis::utils</text>
<text text-anchor="middle" x="790" y="-193" font-family="Helvetica,sans-Serif" font-size="10.00">::MCWeighting::item_t</text>
</a>
</g>
</g>
<!-- Node5&#45;&gt;Node2 -->
<g id="edge4" class="edge"><title>Node5&#45;&gt;Node2</title>
<path fill="none" stroke="#9a32cd" stroke-dasharray="5,2" d="M857.936,-192.088C883.839,-191.239 913.168,-193.581 938,-204 973.869,-219.05 1003.37,-255.716 1018.02,-276.662"/>
<polygon fill="#9a32cd" stroke="#9a32cd" points="857.637,-188.598 847.82,-192.583 857.979,-195.59 857.637,-188.598"/>
<text text-anchor="middle" x="917" y="-251" font-family="Helvetica,sans-Serif" font-size="10.00"> Item</text>
<text text-anchor="middle" x="917" y="-240" font-family="Helvetica,sans-Serif" font-size="10.00">EtaPrime</text>
<text text-anchor="middle" x="917" y="-229" font-family="Helvetica,sans-Serif" font-size="10.00">Pi0</text>
<text text-anchor="middle" x="917" y="-218" font-family="Helvetica,sans-Serif" font-size="10.00">Omega</text>
<text text-anchor="middle" x="917" y="-207" font-family="Helvetica,sans-Serif" font-size="10.00">Eta</text>
</g>
<!-- Node6 -->
<g id="node6" class="node"><title>Node6</title>
<polygon fill="white" stroke="#bfbfbf" points="480,-146.5 480,-165.5 620,-165.5 620,-146.5 480,-146.5"/>
<text text-anchor="middle" x="550" y="-153.5" font-family="Helvetica,sans-Serif" font-size="10.00">std::vector&lt; coefficients_t &gt;</text>
</g>
<!-- Node6&#45;&gt;Node5 -->
<g id="edge5" class="edge"><title>Node6&#45;&gt;Node5</title>
<path fill="none" stroke="#9a32cd" stroke-dasharray="5,2" d="M611.661,-167.469C648.785,-174.489 695.976,-183.411 732.343,-190.287"/>
<polygon fill="#9a32cd" stroke="#9a32cd" points="611.95,-163.962 601.474,-165.543 610.649,-170.84 611.95,-163.962"/>
<text text-anchor="middle" x="661" y="-183" font-family="Helvetica,sans-Serif" font-size="10.00"> Database</text>
</g>
<!-- Node7 -->
<g id="node7" class="node"><title>Node7</title>
<polygon fill="white" stroke="#bfbfbf" points="246,-141 246,-171 392,-171 392,-141 246,-141"/>
<text text-anchor="start" x="254" y="-159" font-family="Helvetica,sans-Serif" font-size="10.00">ant::analysis::utils</text>
<text text-anchor="middle" x="319" y="-148" font-family="Helvetica,sans-Serif" font-size="10.00">::MCWeighting::coefficients_t</text>
</g>
<!-- Node7&#45;&gt;Node6 -->
<g id="edge6" class="edge"><title>Node7&#45;&gt;Node6</title>
<path fill="none" stroke="#9a32cd" stroke-dasharray="5,2" d="M402.156,-156C427.642,-156 455.456,-156 479.956,-156"/>
<polygon fill="#9a32cd" stroke="#9a32cd" points="402.143,-152.5 392.143,-156 402.143,-159.5 402.143,-152.5"/>
<text text-anchor="middle" x="436" y="-159" font-family="Helvetica,sans-Serif" font-size="10.00"> elements</text>
</g>
<!-- Node8 -->
<g id="node8" class="node"><title>Node8</title>
<g id="a_node8"><a xlink:href="classant_1_1interval.html" target="_top" xlink:title="ant::interval\&lt; double \&gt;">
<polygon fill="white" stroke="black" points="0,-174.5 0,-193.5 114,-193.5 114,-174.5 0,-174.5"/>
<text text-anchor="middle" x="57" y="-181.5" font-family="Helvetica,sans-Serif" font-size="10.00">ant::interval&lt; double &gt;</text>
</a>
</g>
</g>
<!-- Node8&#45;&gt;Node7 -->
<g id="edge7" class="edge"><title>Node8&#45;&gt;Node7</title>
<path fill="none" stroke="#9a32cd" stroke-dasharray="5,2" d="M124.298,-176.86C161.385,-172.866 207.66,-167.883 245.679,-163.788"/>
<polygon fill="#9a32cd" stroke="#9a32cd" points="123.664,-173.408 114.096,-177.959 124.413,-180.368 123.664,-173.408"/>
<text text-anchor="middle" x="180" y="-179" font-family="Helvetica,sans-Serif" font-size="10.00"> BeamE</text>
</g>
<!-- Node9 -->
<g id="node9" class="node"><title>Node9</title>
<polygon fill="white" stroke="#bfbfbf" points="2,-136.5 2,-155.5 112,-155.5 112,-136.5 2,-136.5"/>
<text text-anchor="middle" x="57" y="-143.5" font-family="Helvetica,sans-Serif" font-size="10.00">std::vector&lt; double &gt;</text>
</g>
<!-- Node9&#45;&gt;Node7 -->
<g id="edge8" class="edge"><title>Node9&#45;&gt;Node7</title>
<path fill="none" stroke="#9a32cd" stroke-dasharray="5,2" d="M122.427,-147.499C154.215,-148.339 193.129,-149.519 228,-151 233.785,-151.246 239.778,-151.525 245.797,-151.823"/>
<polygon fill="#9a32cd" stroke="#9a32cd" points="122.459,-143.999 112.371,-147.238 122.277,-150.996 122.459,-143.999"/>
<text text-anchor="middle" x="180" y="-154" font-family="Helvetica,sans-Serif" font-size="10.00"> LegendreCoefficients</text>
</g>
<!-- Node10 -->
<g id="node10" class="node"><title>Node10</title>
<g id="a_node10"><a xlink:href="classant_1_1_particle_type_database_1_1_type.html" target="_top" xlink:title="ant::ParticleTypeDatabase\l::Type">
<polygon fill="white" stroke="black" points="483.5,-185 483.5,-215 616.5,-215 616.5,-185 483.5,-185"/>
<text text-anchor="start" x="491.5" y="-203" font-family="Helvetica,sans-Serif" font-size="10.00">ant::ParticleTypeDatabase</text>
<text text-anchor="middle" x="550" y="-192" font-family="Helvetica,sans-Serif" font-size="10.00">::Type</text>
</a>
</g>
</g>
<!-- Node10&#45;&gt;Node5 -->
<g id="edge9" class="edge"><title>Node10&#45;&gt;Node5</title>
<path fill="none" stroke="#9a32cd" stroke-dasharray="5,2" d="M627.086,-200.32C661.28,-200.463 700.931,-200.63 732.437,-200.762"/>
<polygon fill="#9a32cd" stroke="#9a32cd" points="626.679,-196.818 616.665,-200.276 626.65,-203.818 626.679,-196.818"/>
<text text-anchor="middle" x="661" y="-204" font-family="Helvetica,sans-Serif" font-size="10.00"> Type</text>
</g>
<!-- Node10&#45;&gt;Node10 -->
<g id="edge12" class="edge"><title>Node10&#45;&gt;Node10</title>
<path fill="none" stroke="#9a32cd" stroke-dasharray="5,2" d="M530.746,-225.598C533.377,-229.97 539.795,-233 550,-233 567.188,-233 573.633,-224.406 569.336,-215.275"/>
<polygon fill="#9a32cd" stroke="#9a32cd" points="534.243,-225.247 530.664,-215.275 527.244,-225.303 534.243,-225.247"/>
<text text-anchor="middle" x="550" y="-236" font-family="Helvetica,sans-Serif" font-size="10.00"> sametype</text>
</g>
<!-- Node11 -->
<g id="node11" class="node"><title>Node11</title>
<g id="a_node11"><a xlink:title="STL class. ">
<polygon fill="white" stroke="#bfbfbf" points="289,-240.5 289,-259.5 349,-259.5 349,-240.5 289,-240.5"/>
<text text-anchor="middle" x="319" y="-247.5" font-family="Helvetica,sans-Serif" font-size="10.00">std::string</text>
</a>
</g>
</g>
<!-- Node11&#45;&gt;Node2 -->
<g id="edge13" class="edge"><title>Node11&#45;&gt;Node2</title>
<path fill="none" stroke="#9a32cd" stroke-dasharray="5,2" d="M359.591,-252.711C375.285,-253.767 393.492,-254.969 410,-256 622.92,-269.299 877.208,-283.618 980.698,-289.38"/>
<polygon fill="#9a32cd" stroke="#9a32cd" points="359.393,-249.19 349.179,-252.007 358.92,-256.174 359.393,-249.19"/>
<text text-anchor="middle" x="661" y="-276" font-family="Helvetica,sans-Serif" font-size="10.00"> treeName</text>
</g>
<!-- Node11&#45;&gt;Node10 -->
<g id="edge10" class="edge"><title>Node11&#45;&gt;Node10</title>
<path fill="none" stroke="#9a32cd" stroke-dasharray="5,2" d="M359.019,-241.481C393.045,-234.051 443.11,-223.12 483.304,-214.344"/>
<polygon fill="#9a32cd" stroke="#9a32cd" points="358.026,-238.115 349.003,-243.667 359.519,-244.954 358.026,-238.115"/>
<text text-anchor="middle" x="436" y="-244" font-family="Helvetica,sans-Serif" font-size="10.00"> print_name</text>
<text text-anchor="middle" x="436" y="-233" font-family="Helvetica,sans-Serif" font-size="10.00">name</text>
</g>
<!-- Node12 -->
<g id="node12" class="node"><title>Node12</title>
<g id="a_node12"><a xlink:title="STL class. ">
<polygon fill="white" stroke="#bfbfbf" points="9.5,-235 9.5,-265 104.5,-265 104.5,-235 9.5,-235"/>
<text text-anchor="start" x="17.5" y="-253" font-family="Helvetica,sans-Serif" font-size="10.00">std::basic_string&lt;</text>
<text text-anchor="middle" x="57" y="-242" font-family="Helvetica,sans-Serif" font-size="10.00"> char &gt;</text>
</a>
</g>
</g>
<!-- Node12&#45;&gt;Node11 -->
<g id="edge11" class="edge"><title>Node12&#45;&gt;Node11</title>
<path fill="none" stroke="midnightblue" d="M114.843,-250C168.551,-250 246.96,-250 288.929,-250"/>
<polygon fill="midnightblue" stroke="midnightblue" points="114.783,-246.5 104.783,-250 114.783,-253.5 114.783,-246.5"/>
</g>
<!-- Node13 -->
<g id="node13" class="node"><title>Node13</title>
<g id="a_node13"><a xlink:href="classant_1_1analysis_1_1_histogram_factory.html" target="_top" xlink:title="ant::analysis::Histogram\lFactory">
<polygon fill="white" stroke="black" points="728.5,-302 728.5,-332 851.5,-332 851.5,-302 728.5,-302"/>
<text text-anchor="start" x="736.5" y="-320" font-family="Helvetica,sans-Serif" font-size="10.00">ant::analysis::Histogram</text>
<text text-anchor="middle" x="790" y="-309" font-family="Helvetica,sans-Serif" font-size="10.00">Factory</text>
</a>
</g>
</g>
<!-- Node13&#45;&gt;Node2 -->
<g id="edge14" class="edge"><title>Node13&#45;&gt;Node2</title>
<path fill="none" stroke="#9a32cd" stroke-dasharray="5,2" d="M861.837,-309.528C900.328,-305.467 946.87,-300.558 980.894,-296.969"/>
<polygon fill="#9a32cd" stroke="#9a32cd" points="861.303,-306.065 851.726,-310.594 862.038,-313.026 861.303,-306.065"/>
<text text-anchor="middle" x="917" y="-309" font-family="Helvetica,sans-Serif" font-size="10.00"> HistFac</text>
</g>
<!-- Node14 -->
<g id="node14" class="node"><title>Node14</title>
<g id="a_node14"><a xlink:href="classant_1_1analysis_1_1utils_1_1_kin_fitter.html" target="_top" xlink:title="ant::analysis::utils\l::KinFitter">
<polygon fill="white" stroke="black" points="981,-98 981,-128 1077,-128 1077,-98 981,-98"/>
<text text-anchor="start" x="989" y="-116" font-family="Helvetica,sans-Serif" font-size="10.00">ant::analysis::utils</text>
<text text-anchor="middle" x="1029" y="-105" font-family="Helvetica,sans-Serif" font-size="10.00">::KinFitter</text>
</a>
</g>
</g>
<!-- Node14&#45;&gt;Node1 -->
<g id="edge15" class="edge"><title>Node14&#45;&gt;Node1</title>
<path fill="none" stroke="#9a32cd" stroke-dasharray="5,2" d="M1061.08,-133.991C1115.1,-170.483 1225.09,-244.776 1272.46,-276.777"/>
<polygon fill="#9a32cd" stroke="#9a32cd" points="1062.84,-130.959 1052.59,-128.261 1058.92,-136.759 1062.84,-130.959"/>
<text text-anchor="middle" x="1171" y="-243" font-family="Helvetica,sans-Serif" font-size="10.00"> kinfitter</text>
</g>
<!-- Node15 -->
<g id="node15" class="node"><title>Node15</title>
<g id="a_node15"><a xlink:href="classant_1_1analysis_1_1utils_1_1_fitter.html" target="_top" xlink:title="ant::analysis::utils\l::Fitter">
<polygon fill="white" stroke="black" points="742,-98 742,-128 838,-128 838,-98 742,-98"/>
<text text-anchor="start" x="750" y="-116" font-family="Helvetica,sans-Serif" font-size="10.00">ant::analysis::utils</text>
<text text-anchor="middle" x="790" y="-105" font-family="Helvetica,sans-Serif" font-size="10.00">::Fitter</text>
</a>
</g>
</g>
<!-- Node15&#45;&gt;Node14 -->
<g id="edge16" class="edge"><title>Node15&#45;&gt;Node14</title>
<path fill="none" stroke="midnightblue" d="M848.142,-113C888.814,-113 942.802,-113 980.982,-113"/>
<polygon fill="midnightblue" stroke="midnightblue" points="848.107,-109.5 838.107,-113 848.107,-116.5 848.107,-109.5"/>
</g>
<!-- Node16 -->
<g id="node16" class="node"><title>Node16</title>
<g id="a_node16"><a xlink:href="structant_1_1analysis_1_1utils_1_1_kin_fitter_1_1_target__t.html" target="_top" xlink:title="ant::analysis::utils\l::KinFitter::Target_t">
<polygon fill="white" stroke="black" points="739.5,-49 739.5,-79 840.5,-79 840.5,-49 739.5,-49"/>
<text text-anchor="start" x="747.5" y="-67" font-family="Helvetica,sans-Serif" font-size="10.00">ant::analysis::utils</text>
<text text-anchor="middle" x="790" y="-56" font-family="Helvetica,sans-Serif" font-size="10.00">::KinFitter::Target_t</text>
</a>
</g>
</g>
<!-- Node16&#45;&gt;Node14 -->
<g id="edge17" class="edge"><title>Node16&#45;&gt;Node14</title>
<path fill="none" stroke="#9a32cd" stroke-dasharray="5,2" d="M850.649,-76.3326C890.947,-84.6642 943.415,-95.5119 980.804,-103.242"/>
<polygon fill="#9a32cd" stroke="#9a32cd" points="851.185,-72.8693 840.683,-74.272 849.767,-79.7243 851.185,-72.8693"/>
<text text-anchor="middle" x="917" y="-98" font-family="Helvetica,sans-Serif" font-size="10.00"> Target</text>
</g>
<!-- Node17 -->
<g id="node17" class="node"><title>Node17</title>
<g id="a_node17"><a xlink:href="structant_1_1analysis_1_1utils_1_1_kin_fitter_1_1_beam_e__t.html" target="_top" xlink:title="ant::analysis::utils\l::KinFitter::BeamE_t">
<polygon fill="white" stroke="black" points="737,-0 737,-30 843,-30 843,-0 737,-0"/>
<text text-anchor="start" x="745" y="-18" font-family="Helvetica,sans-Serif" font-size="10.00">ant::analysis::utils</text>
<text text-anchor="middle" x="790" y="-7" font-family="Helvetica,sans-Serif" font-size="10.00">::KinFitter::BeamE_t</text>
</a>
</g>
</g>
<!-- Node17&#45;&gt;Node14 -->
<g id="edge18" class="edge"><title>Node17&#45;&gt;Node14</title>
<path fill="none" stroke="#9a32cd" stroke-dasharray="5,2" d="M852.682,-30.4517C861.269,-33.0552 869.914,-35.922 878,-39 922.643,-55.9942 971.849,-81.7033 1001.32,-97.9103"/>
<polygon fill="#9a32cd" stroke="#9a32cd" points="853.624,-27.0809 843.044,-27.6269 851.656,-33.7983 853.624,-27.0809"/>
<text text-anchor="middle" x="917" y="-68" font-family="Helvetica,sans-Serif" font-size="10.00"> BeamE</text>
</g>
<!-- Node18 -->
<g id="node18" class="node"><title>Node18</title>
<g id="a_node18"><a xlink:href="structant_1_1analysis_1_1utils_1_1_fitter_1_1_v___s___p__t.html" target="_top" xlink:title="ant::analysis::utils\l::Fitter::V_S_P_t">
<polygon fill="white" stroke="black" points="502,-0 502,-30 598,-30 598,-0 502,-0"/>
<text text-anchor="start" x="510" y="-18" font-family="Helvetica,sans-Serif" font-size="10.00">ant::analysis::utils</text>
<text text-anchor="middle" x="550" y="-7" font-family="Helvetica,sans-Serif" font-size="10.00">::Fitter::V_S_P_t</text>
</a>
</g>
</g>
<!-- Node18&#45;&gt;Node17 -->
<g id="edge19" class="edge"><title>Node18&#45;&gt;Node17</title>
<path fill="none" stroke="midnightblue" d="M608.188,-15C647.28,-15 698.693,-15 736.699,-15"/>
<polygon fill="midnightblue" stroke="midnightblue" points="608.021,-11.5001 598.021,-15 608.021,-18.5001 608.021,-11.5001"/>
</g>
<!-- Node19 -->
<g id="node19" class="node"><title>Node19</title>
<g id="a_node19"><a xlink:href="structant_1_1analysis_1_1utils_1_1_fitter_1_1_v___s__t.html" target="_top" xlink:title="ant::analysis::utils\l::Fitter::V_S_t">
<polygon fill="white" stroke="black" points="271,-0 271,-30 367,-30 367,-0 271,-0"/>
<text text-anchor="start" x="279" y="-18" font-family="Helvetica,sans-Serif" font-size="10.00">ant::analysis::utils</text>
<text text-anchor="middle" x="319" y="-7" font-family="Helvetica,sans-Serif" font-size="10.00">::Fitter::V_S_t</text>
</a>
</g>
</g>
<!-- Node19&#45;&gt;Node18 -->
<g id="edge20" class="edge"><title>Node19&#45;&gt;Node18</title>
<path fill="none" stroke="midnightblue" d="M377.185,-15C415.644,-15 465.728,-15 501.89,-15"/>
<polygon fill="midnightblue" stroke="midnightblue" points="377.171,-11.5001 367.171,-15 377.171,-18.5001 377.171,-11.5001"/>
</g>
<!-- Node20 -->
<g id="node20" class="node"><title>Node20</title>
<polygon fill="white" stroke="#bfbfbf" points="727.5,-147.5 727.5,-166.5 852.5,-166.5 852.5,-147.5 727.5,-147.5"/>
<text text-anchor="middle" x="790" y="-154.5" font-family="Helvetica,sans-Serif" font-size="10.00">std::vector&lt; FitParticle &gt;</text>
</g>
<!-- Node20&#45;&gt;Node14 -->
<g id="edge21" class="edge"><title>Node20&#45;&gt;Node14</title>
<path fill="none" stroke="#9a32cd" stroke-dasharray="5,2" d="M852.34,-145.612C892.369,-138.181 943.84,-128.625 980.702,-121.781"/>
<polygon fill="#9a32cd" stroke="#9a32cd" points="851.619,-142.186 842.425,-147.453 852.896,-149.068 851.619,-142.186"/>
<text text-anchor="middle" x="917" y="-140" font-family="Helvetica,sans-Serif" font-size="10.00"> Photons</text>
</g>
<!-- Node21 -->
<g id="node21" class="node"><title>Node21</title>
<g id="a_node21"><a xlink:href="structant_1_1analysis_1_1physics_1_1_etap_omega_g_1_1_ref__t_1_1_tree__t.html" target="_top" xlink:title="ant::analysis::physics\l::EtapOmegaG::Ref_t::Tree_t">
<polygon fill="white" stroke="black" points="956,-364 956,-394 1102,-394 1102,-364 956,-364"/>
<text text-anchor="start" x="964" y="-382" font-family="Helvetica,sans-Serif" font-size="10.00">ant::analysis::physics</text>
<text text-anchor="middle" x="1029" y="-371" font-family="Helvetica,sans-Serif" font-size="10.00">::EtapOmegaG::Ref_t::Tree_t</text>
</a>
</g>
</g>
<!-- Node21&#45;&gt;Node1 -->
<g id="edge22" class="edge"><title>Node21&#45;&gt;Node1</title>
<path fill="none" stroke="#9a32cd" stroke-dasharray="5,2" d="M1085.58,-360.752C1134.16,-344.803 1203.85,-321.926 1249.26,-307.016"/>
<polygon fill="#9a32cd" stroke="#9a32cd" points="1084.27,-357.5 1075.86,-363.945 1086.45,-364.151 1084.27,-357.5"/>
<text text-anchor="middle" x="1171" y="-352" font-family="Helvetica,sans-Serif" font-size="10.00"> t</text>
</g>
<!-- Node22&#45;&gt;Node21 -->
<g id="edge23" class="edge"><title>Node22&#45;&gt;Node21</title>
<path fill="none" stroke="midnightblue" d="M887.585,-400.329C910.339,-396.873 934.209,-393.247 955.681,-389.985"/>
<polygon fill="midnightblue" stroke="midnightblue" points="886.929,-396.888 877.568,-401.85 887.981,-403.809 886.929,-396.888"/>
</g>
</g>
</svg>
