<?xml version="1.0" encoding="UTF-8" standalone="no"?>
<!DOCTYPE svg PUBLIC "-//W3C//DTD SVG 1.1//EN"
 "http://www.w3.org/Graphics/SVG/1.1/DTD/svg11.dtd">
<!-- Generated by graphviz version 2.36.0 (20140111.2315)
 -->
<!-- Title: ant::TaggerDetector_t Pages: 1 -->
<svg width="576pt" height="332pt"
 viewBox="0.00 0.00 576.00 332.00" xmlns="http://www.w3.org/2000/svg" xmlns:xlink="http://www.w3.org/1999/xlink">
<g id="graph0" class="graph" transform="scale(1 1) rotate(0) translate(4 328)">
<title>ant::TaggerDetector_t</title>
<polygon fill="white" stroke="none" points="-4,4 -4,-328 572,-328 572,4 -4,4"/>
<!-- Node0 -->
<g id="node1" class="node"><title>Node0</title>
<polygon fill="#bfbfbf" stroke="black" points="118,-174.5 118,-193.5 230,-193.5 230,-174.5 118,-174.5"/>
<text text-anchor="middle" x="174" y="-181.5" font-family="Helvetica,sans-Serif" font-size="10.00">ant::TaggerDetector_t</text>
</g>
<!-- Node2 -->
<g id="node3" class="node"><title>Node2</title>
<g id="a_node3"><a xlink:href="structant_1_1expconfig_1_1detector_1_1_e_p_t.html" target="_top" xlink:title="ant::expconfig::detector::EPT">
<polygon fill="white" stroke="black" points="266.5,-247.5 266.5,-266.5 411.5,-266.5 411.5,-247.5 266.5,-247.5"/>
<text text-anchor="middle" x="339" y="-254.5" font-family="Helvetica,sans-Serif" font-size="10.00">ant::expconfig::detector::EPT</text>
</a>
</g>
</g>
<!-- Node0&#45;&gt;Node2 -->
<g id="edge2" class="edge"><title>Node0&#45;&gt;Node2</title>
<path fill="none" stroke="midnightblue" d="M205.754,-197.773C238.169,-212.291 288.372,-234.774 316.685,-247.454"/>
<polygon fill="midnightblue" stroke="midnightblue" points="206.867,-194.437 196.309,-193.543 204.005,-200.825 206.867,-194.437"/>
</g>
<!-- Node4 -->
<g id="node5" class="node"><title>Node4</title>
<g id="a_node5"><a xlink:href="structant_1_1expconfig_1_1detector_1_1_tagger.html" target="_top" xlink:title="ant::expconfig::detector\l::Tagger">
<polygon fill="white" stroke="black" points="279.5,-147 279.5,-177 398.5,-177 398.5,-147 279.5,-147"/>
<text text-anchor="start" x="287.5" y="-165" font-family="Helvetica,sans-Serif" font-size="10.00">ant::expconfig::detector</text>
<text text-anchor="middle" x="339" y="-154" font-family="Helvetica,sans-Serif" font-size="10.00">::Tagger</text>
</a>
</g>
</g>
<!-- Node0&#45;&gt;Node4 -->
<g id="edge4" class="edge"><title>Node0&#45;&gt;Node4</title>
<path fill="none" stroke="midnightblue" d="M240.35,-175.18C253.207,-173.444 266.623,-171.634 279.247,-169.93"/>
<polygon fill="midnightblue" stroke="midnightblue" points="239.626,-171.746 230.184,-176.552 240.563,-178.683 239.626,-171.746"/>
</g>
<!-- Node1 -->
<g id="node2" class="node"><title>Node1</title>
<g id="a_node2"><a xlink:href="structant_1_1_detector__t.html" target="_top" xlink:title="The Detector_t struct is the minimal base class for all detectors. ">
<polygon fill="white" stroke="black" points="0,-174.5 0,-193.5 82,-193.5 82,-174.5 0,-174.5"/>
<text text-anchor="middle" x="41" y="-181.5" font-family="Helvetica,sans-Serif" font-size="10.00">ant::Detector_t</text>
</a>
</g>
</g>
<!-- Node1&#45;&gt;Node0 -->
<g id="edge1" class="edge"><title>Node1&#45;&gt;Node0</title>
<path fill="none" stroke="midnightblue" d="M92.0632,-184C100.48,-184 109.257,-184 117.794,-184"/>
<polygon fill="midnightblue" stroke="midnightblue" points="92.0162,-180.5 82.0161,-184 92.0161,-187.5 92.0162,-180.5"/>
</g>
<!-- Node3 -->
<g id="node4" class="node"><title>Node3</title>
<g id="a_node4"><a xlink:href="structant_1_1expconfig_1_1detector_1_1_e_p_t__2014.html" target="_top" xlink:title="ant::expconfig::detector\l::EPT_2014">
<polygon fill="white" stroke="black" points="448.5,-294 448.5,-324 567.5,-324 567.5,-294 448.5,-294"/>
<text text-anchor="start" x="456.5" y="-312" font-family="Helvetica,sans-Serif" font-size="10.00">ant::expconfig::detector</text>
<text text-anchor="middle" x="508" y="-301" font-family="Helvetica,sans-Serif" font-size="10.00">::EPT_2014</text>
</a>
</g>
</g>
<!-- Node2&#45;&gt;Node3 -->
<g id="edge3" class="edge"><title>Node2&#45;&gt;Node3</title>
<path fill="none" stroke="midnightblue" d="M380.3,-269.549C403.843,-276.879 433.71,-286.179 458.532,-293.908"/>
<polygon fill="midnightblue" stroke="midnightblue" points="381.219,-266.169 370.63,-266.538 379.138,-272.852 381.219,-266.169"/>
</g>
<!-- Node5 -->
<g id="node6" class="node"><title>Node5</title>
<g id="a_node6"><a xlink:href="structant_1_1expconfig_1_1detector_1_1_tagger__2007.html" target="_top" xlink:title="ant::expconfig::detector\l::Tagger_2007">
<polygon fill="white" stroke="black" points="448.5,-245 448.5,-275 567.5,-275 567.5,-245 448.5,-245"/>
<text text-anchor="start" x="456.5" y="-263" font-family="Helvetica,sans-Serif" font-size="10.00">ant::expconfig::detector</text>
<text text-anchor="middle" x="508" y="-252" font-family="Helvetica,sans-Serif" font-size="10.00">::Tagger_2007</text>
</a>
</g>
</g>
<!-- Node4&#45;&gt;Node5 -->
<g id="edge5" class="edge"><title>Node4&#45;&gt;Node5</title>
<path fill="none" stroke="midnightblue" d="M368.204,-183.285C389.457,-198.766 419.684,-219.62 448,-235 454.452,-238.505 461.499,-241.864 468.405,-244.92"/>
<polygon fill="midnightblue" stroke="midnightblue" points="370.089,-180.326 359.959,-177.221 365.941,-185.965 370.089,-180.326"/>
</g>
<!-- Node6 -->
<g id="node7" class="node"><title>Node6</title>
<g id="a_node7"><a xlink:href="structant_1_1expconfig_1_1detector_1_1_tagger__2010__03.html" target="_top" xlink:title="ant::expconfig::detector\l::Tagger_2010_03">
<polygon fill="white" stroke="black" points="448.5,-196 448.5,-226 567.5,-226 567.5,-196 448.5,-196"/>
<text text-anchor="start" x="456.5" y="-214" font-family="Helvetica,sans-Serif" font-size="10.00">ant::expconfig::detector</text>
<text text-anchor="middle" x="508" y="-203" font-family="Helvetica,sans-Serif" font-size="10.00">::Tagger_2010_03</text>
</a>
</g>
</g>
<!-- Node4&#45;&gt;Node6 -->
<g id="edge6" class="edge"><title>Node4&#45;&gt;Node6</title>
<path fill="none" stroke="midnightblue" d="M401.234,-179.967C419.127,-185.217 438.492,-190.899 455.702,-195.948"/>
<polygon fill="midnightblue" stroke="midnightblue" points="402.049,-176.559 391.468,-177.101 400.078,-183.275 402.049,-176.559"/>
</g>
<!-- Node7 -->
<g id="node8" class="node"><title>Node7</title>
<g id="a_node8"><a xlink:href="structant_1_1expconfig_1_1detector_1_1_tagger__2015.html" target="_top" xlink:title="ant::expconfig::detector\l::Tagger_2015">
<polygon fill="white" stroke="black" points="448.5,-147 448.5,-177 567.5,-177 567.5,-147 448.5,-147"/>
<text text-anchor="start" x="456.5" y="-165" font-family="Helvetica,sans-Serif" font-size="10.00">ant::expconfig::detector</text>
<text text-anchor="middle" x="508" y="-154" font-family="Helvetica,sans-Serif" font-size="10.00">::Tagger_2015</text>
</a>
</g>
</g>
<!-- Node4&#45;&gt;Node7 -->
<g id="edge7" class="edge"><title>Node4&#45;&gt;Node7</title>
<path fill="none" stroke="midnightblue" d="M409.193,-162C422.213,-162 435.713,-162 448.372,-162"/>
<polygon fill="midnightblue" stroke="midnightblue" points="408.878,-158.5 398.878,-162 408.878,-165.5 408.878,-158.5"/>
</g>
<!-- Node8 -->
<g id="node9" class="node"><title>Node8</title>
<g id="a_node9"><a xlink:href="structant_1_1expconfig_1_1detector_1_1_tagger__2016__06.html" target="_top" xlink:title="ant::expconfig::detector\l::Tagger_2016_06">
<polygon fill="white" stroke="black" points="448.5,-98 448.5,-128 567.5,-128 567.5,-98 448.5,-98"/>
<text text-anchor="start" x="456.5" y="-116" font-family="Helvetica,sans-Serif" font-size="10.00">ant::expconfig::detector</text>
<text text-anchor="middle" x="508" y="-105" font-family="Helvetica,sans-Serif" font-size="10.00">::Tagger_2016_06</text>
</a>
</g>
</g>
<!-- Node4&#45;&gt;Node8 -->
<g id="edge8" class="edge"><title>Node4&#45;&gt;Node8</title>
<path fill="none" stroke="midnightblue" d="M401.234,-144.033C419.127,-138.783 438.492,-133.101 455.702,-128.052"/>
<polygon fill="midnightblue" stroke="midnightblue" points="400.078,-140.725 391.468,-146.899 402.049,-147.441 400.078,-140.725"/>
</g>
<!-- Node9 -->
<g id="node10" class="node"><title>Node9</title>
<g id="a_node10"><a xlink:href="structant_1_1expconfig_1_1detector_1_1_tagger__2017__12.html" target="_top" xlink:title="ant::expconfig::detector\l::Tagger_2017_12">
<polygon fill="white" stroke="black" points="448.5,-49 448.5,-79 567.5,-79 567.5,-49 448.5,-49"/>
<text text-anchor="start" x="456.5" y="-67" font-family="Helvetica,sans-Serif" font-size="10.00">ant::expconfig::detector</text>
<text text-anchor="middle" x="508" y="-56" font-family="Helvetica,sans-Serif" font-size="10.00">::Tagger_2017_12</text>
</a>
</g>
</g>
<!-- Node4&#45;&gt;Node9 -->
<g id="edge9" class="edge"><title>Node4&#45;&gt;Node9</title>
<path fill="none" stroke="midnightblue" d="M367.704,-140.561C388.92,-124.761 419.324,-103.426 448,-88 453.843,-84.8568 460.188,-81.8687 466.479,-79.1355"/>
<polygon fill="midnightblue" stroke="midnightblue" points="365.371,-137.936 359.486,-146.746 369.58,-143.529 365.371,-137.936"/>
</g>
<!-- Node10 -->
<g id="node11" class="node"><title>Node10</title>
<g id="a_node11"><a xlink:href="structant_1_1expconfig_1_1detector_1_1_tagger__2018__03.html" target="_top" xlink:title="ant::expconfig::detector\l::Tagger_2018_03">
<polygon fill="white" stroke="black" points="448.5,-0 448.5,-30 567.5,-30 567.5,-0 448.5,-0"/>
<text text-anchor="start" x="456.5" y="-18" font-family="Helvetica,sans-Serif" font-size="10.00">ant::expconfig::detector</text>
<text text-anchor="middle" x="508" y="-7" font-family="Helvetica,sans-Serif" font-size="10.00">::Tagger_2018_03</text>
</a>
</g>
</g>
<!-- Node4&#45;&gt;Node10 -->
<g id="edge10" class="edge"><title>Node4&#45;&gt;Node10</title>
<path fill="none" stroke="midnightblue" d="M355.718,-138.203C374.739,-111.001 409.095,-66.6744 448,-39 452.686,-35.6669 457.902,-32.6977 463.24,-30.082"/>
<polygon fill="midnightblue" stroke="midnightblue" points="352.644,-136.498 349.871,-146.723 358.415,-140.459 352.644,-136.498"/>
</g>
</g>
</svg>
