<?xml version="1.0" encoding="UTF-8" standalone="no"?>
<!DOCTYPE svg PUBLIC "-//W3C//DTD SVG 1.1//EN"
 "http://www.w3.org/Graphics/SVG/1.1/DTD/svg11.dtd">
<!-- Generated by graphviz version 2.36.0 (20140111.2315)
 -->
<!-- Title: ant::expconfig::detector::Tagger Pages: 1 -->
<svg width="568pt" height="283pt"
 viewBox="0.00 0.00 568.00 283.00" xmlns="http://www.w3.org/2000/svg" xmlns:xlink="http://www.w3.org/1999/xlink">
<g id="graph0" class="graph" transform="scale(1 1) rotate(0) translate(4 279)">
<title>ant::expconfig::detector::Tagger</title>
<polygon fill="white" stroke="none" points="-4,4 -4,-279 564,-279 564,4 -4,4"/>
<!-- Node0 -->
<g id="node1" class="node"><title>Node0</title>
<polygon fill="#bfbfbf" stroke="black" points="284.5,-122 284.5,-152 403.5,-152 403.5,-122 284.5,-122"/>
<text text-anchor="start" x="292.5" y="-140" font-family="Helvetica,sans-Serif" font-size="10.00">ant::expconfig::detector</text>
<text text-anchor="middle" x="344" y="-129" font-family="Helvetica,sans-Serif" font-size="10.00">::Tagger</text>
</g>
<!-- Node4 -->
<g id="node5" class="node"><title>Node4</title>
<g id="a_node5"><a xlink:href="structant_1_1expconfig_1_1detector_1_1_tagger__2007.html" target="_top" xlink:title="ant::expconfig::detector\l::Tagger_2007">
<polygon fill="white" stroke="black" points="440.5,-245 440.5,-275 559.5,-275 559.5,-245 440.5,-245"/>
<text text-anchor="start" x="448.5" y="-263" font-family="Helvetica,sans-Serif" font-size="10.00">ant::expconfig::detector</text>
<text text-anchor="middle" x="500" y="-252" font-family="Helvetica,sans-Serif" font-size="10.00">::Tagger_2007</text>
</a>
</g>
</g>
<!-- Node0&#45;&gt;Node4 -->
<g id="edge4" class="edge"><title>Node0&#45;&gt;Node4</title>
<path fill="none" stroke="midnightblue" d="M362.819,-160.138C380.484,-181.816 409.286,-213.948 440,-235 445.414,-238.711 451.466,-242.039 457.575,-244.964"/>
<polygon fill="midnightblue" stroke="midnightblue" points="365.375,-157.73 356.394,-152.108 359.909,-162.103 365.375,-157.73"/>
</g>
<!-- Node5 -->
<g id="node6" class="node"><title>Node5</title>
<g id="a_node6"><a xlink:href="structant_1_1expconfig_1_1detector_1_1_tagger__2010__03.html" target="_top" xlink:title="ant::expconfig::detector\l::Tagger_2010_03">
<polygon fill="white" stroke="black" points="440.5,-196 440.5,-226 559.5,-226 559.5,-196 440.5,-196"/>
<text text-anchor="start" x="448.5" y="-214" font-family="Helvetica,sans-Serif" font-size="10.00">ant::expconfig::detector</text>
<text text-anchor="middle" x="500" y="-203" font-family="Helvetica,sans-Serif" font-size="10.00">::Tagger_2010_03</text>
</a>
</g>
</g>
<!-- Node0&#45;&gt;Node5 -->
<g id="edge5" class="edge"><title>Node0&#45;&gt;Node5</title>
<path fill="none" stroke="midnightblue" d="M382.24,-157.033C399.636,-166.178 420.72,-176.959 440,-186 447.151,-189.354 454.874,-192.77 462.301,-195.956"/>
<polygon fill="midnightblue" stroke="midnightblue" points="383.466,-153.722 372.99,-152.143 380.195,-159.911 383.466,-153.722"/>
</g>
<!-- Node6 -->
<g id="node7" class="node"><title>Node6</title>
<g id="a_node7"><a xlink:href="structant_1_1expconfig_1_1detector_1_1_tagger__2015.html" target="_top" xlink:title="ant::expconfig::detector\l::Tagger_2015">
<polygon fill="white" stroke="black" points="440.5,-147 440.5,-177 559.5,-177 559.5,-147 440.5,-147"/>
<text text-anchor="start" x="448.5" y="-165" font-family="Helvetica,sans-Serif" font-size="10.00">ant::expconfig::detector</text>
<text text-anchor="middle" x="500" y="-154" font-family="Helvetica,sans-Serif" font-size="10.00">::Tagger_2015</text>
</a>
</g>
</g>
<!-- Node0&#45;&gt;Node6 -->
<g id="edge6" class="edge"><title>Node0&#45;&gt;Node6</title>
<path fill="none" stroke="midnightblue" d="M413.607,-148.138C422.497,-149.581 431.538,-151.048 440.248,-152.462"/>
<polygon fill="midnightblue" stroke="midnightblue" points="414.092,-144.67 403.66,-146.523 412.97,-151.58 414.092,-144.67"/>
</g>
<!-- Node7 -->
<g id="node8" class="node"><title>Node7</title>
<g id="a_node8"><a xlink:href="structant_1_1expconfig_1_1detector_1_1_tagger__2016__06.html" target="_top" xlink:title="ant::expconfig::detector\l::Tagger_2016_06">
<polygon fill="white" stroke="black" points="440.5,-98 440.5,-128 559.5,-128 559.5,-98 440.5,-98"/>
<text text-anchor="start" x="448.5" y="-116" font-family="Helvetica,sans-Serif" font-size="10.00">ant::expconfig::detector</text>
<text text-anchor="middle" x="500" y="-105" font-family="Helvetica,sans-Serif" font-size="10.00">::Tagger_2016_06</text>
</a>
</g>
</g>
<!-- Node0&#45;&gt;Node7 -->
<g id="edge7" class="edge"><title>Node0&#45;&gt;Node7</title>
<path fill="none" stroke="midnightblue" d="M413.607,-126.308C422.497,-124.923 431.538,-123.514 440.248,-122.156"/>
<polygon fill="midnightblue" stroke="midnightblue" points="413.002,-122.86 403.66,-127.858 414.08,-129.776 413.002,-122.86"/>
</g>
<!-- Node8 -->
<g id="node9" class="node"><title>Node8</title>
<g id="a_node9"><a xlink:href="structant_1_1expconfig_1_1detector_1_1_tagger__2017__12.html" target="_top" xlink:title="ant::expconfig::detector\l::Tagger_2017_12">
<polygon fill="white" stroke="black" points="440.5,-49 440.5,-79 559.5,-79 559.5,-49 440.5,-49"/>
<text text-anchor="start" x="448.5" y="-67" font-family="Helvetica,sans-Serif" font-size="10.00">ant::expconfig::detector</text>
<text text-anchor="middle" x="500" y="-56" font-family="Helvetica,sans-Serif" font-size="10.00">::Tagger_2017_12</text>
</a>
</g>
</g>
<!-- Node0&#45;&gt;Node8 -->
<g id="edge8" class="edge"><title>Node0&#45;&gt;Node8</title>
<path fill="none" stroke="midnightblue" d="M381.798,-117.042C399.255,-107.827 420.513,-96.9673 440,-88 446.53,-84.9954 453.547,-81.9693 460.384,-79.1263"/>
<polygon fill="midnightblue" stroke="midnightblue" points="379.714,-114.185 372.527,-121.969 383,-120.367 379.714,-114.185"/>
</g>
<!-- Node9 -->
<g id="node10" class="node"><title>Node9</title>
<g id="a_node10"><a xlink:href="structant_1_1expconfig_1_1detector_1_1_tagger__2018__03.html" target="_top" xlink:title="ant::expconfig::detector\l::Tagger_2018_03">
<polygon fill="white" stroke="black" points="440.5,-0 440.5,-30 559.5,-30 559.5,-0 440.5,-0"/>
<text text-anchor="start" x="448.5" y="-18" font-family="Helvetica,sans-Serif" font-size="10.00">ant::expconfig::detector</text>
<text text-anchor="middle" x="500" y="-7" font-family="Helvetica,sans-Serif" font-size="10.00">::Tagger_2018_03</text>
</a>
</g>
</g>
<!-- Node0&#45;&gt;Node9 -->
<g id="edge9" class="edge"><title>Node0&#45;&gt;Node9</title>
<path fill="none" stroke="midnightblue" d="M362.751,-113.762C380.367,-92.0123 409.135,-59.829 440,-39 444.95,-35.6597 450.436,-32.6608 456.013,-30.0077"/>
<polygon fill="midnightblue" stroke="midnightblue" points="359.828,-111.815 356.346,-121.822 365.308,-116.17 359.828,-111.815"/>
</g>
<!-- Node1 -->
<g id="node2" class="node"><title>Node1</title>
<g id="a_node2"><a xlink:href="structant_1_1_tagger_detector__t.html" target="_top" xlink:title="ant::TaggerDetector_t">
<polygon fill="white" stroke="black" points="127,-146.5 127,-165.5 239,-165.5 239,-146.5 127,-146.5"/>
<text text-anchor="middle" x="183" y="-153.5" font-family="Helvetica,sans-Serif" font-size="10.00">ant::TaggerDetector_t</text>
</a>
</g>
</g>
<!-- Node1&#45;&gt;Node0 -->
<g id="edge1" class="edge"><title>Node1&#45;&gt;Node0</title>
<path fill="none" stroke="midnightblue" d="M249.262,-148.201C260.906,-146.81 272.971,-145.368 284.414,-144.001"/>
<polygon fill="midnightblue" stroke="midnightblue" points="248.678,-144.746 239.164,-149.408 249.509,-151.697 248.678,-144.746"/>
</g>
<!-- Node2 -->
<g id="node3" class="node"><title>Node2</title>
<g id="a_node3"><a xlink:href="structant_1_1_detector__t.html" target="_top" xlink:title="The Detector_t struct is the minimal base class for all detectors. ">
<polygon fill="white" stroke="black" points="0,-146.5 0,-165.5 82,-165.5 82,-146.5 0,-146.5"/>
<text text-anchor="middle" x="41" y="-153.5" font-family="Helvetica,sans-Serif" font-size="10.00">ant::Detector_t</text>
</a>
</g>
</g>
<!-- Node2&#45;&gt;Node1 -->
<g id="edge2" class="edge"><title>Node2&#45;&gt;Node1</title>
<path fill="none" stroke="midnightblue" d="M92.172,-156C103.386,-156 115.34,-156 126.747,-156"/>
<polygon fill="midnightblue" stroke="midnightblue" points="92.1184,-152.5 82.1184,-156 92.1183,-159.5 92.1184,-152.5"/>
</g>
<!-- Node3 -->
<g id="node4" class="node"><title>Node3</title>
<g id="a_node4"><a xlink:href="classant_1_1_unpacker_acqu_config.html" target="_top" xlink:title="ant::UnpackerAcquConfig">
<polygon fill="white" stroke="black" points="118.5,-108.5 118.5,-127.5 247.5,-127.5 247.5,-108.5 118.5,-108.5"/>
<text text-anchor="middle" x="183" y="-115.5" font-family="Helvetica,sans-Serif" font-size="10.00">ant::UnpackerAcquConfig</text>
</a>
</g>
</g>
<!-- Node3&#45;&gt;Node0 -->
<g id="edge3" class="edge"><title>Node3&#45;&gt;Node0</title>
<path fill="none" stroke="midnightblue" d="M257.767,-126.815C266.692,-127.881 275.714,-128.96 284.38,-129.995"/>
<polygon fill="midnightblue" stroke="midnightblue" points="258.1,-123.33 247.755,-125.619 257.269,-130.28 258.1,-123.33"/>
</g>
</g>
</svg>
