<?xml version="1.0" encoding="UTF-8" standalone="no"?>
<!DOCTYPE svg PUBLIC "-//W3C//DTD SVG 1.1//EN"
 "http://www.w3.org/Graphics/SVG/1.1/DTD/svg11.dtd">
<!-- Generated by graphviz version 2.36.0 (20140111.2315)
 -->
<!-- Title: ant::analysis::physics::EtapDalitz::RefTree_t Pages: 1 -->
<svg width="434pt" height="185pt"
 viewBox="0.00 0.00 434.00 185.00" xmlns="http://www.w3.org/2000/svg" xmlns:xlink="http://www.w3.org/1999/xlink">
<g id="graph0" class="graph" transform="scale(1 1) rotate(0) translate(4 181)">
<title>ant::analysis::physics::EtapDalitz::RefTree_t</title>
<polygon fill="white" stroke="none" points="-4,4 -4,-181 430,-181 430,4 -4,4"/>
<!-- Node6 -->
<g id="node1" class="node"><title>Node6</title>
<polygon fill="#bfbfbf" stroke="black" points="308,-73 308,-103 426,-103 426,-73 308,-73"/>
<text text-anchor="start" x="316" y="-91" font-family="Helvetica,sans-Serif" font-size="10.00">ant::analysis::physics</text>
<text text-anchor="middle" x="367" y="-80" font-family="Helvetica,sans-Serif" font-size="10.00">::EtapDalitz::RefTree_t</text>
</g>
<!-- Node7 -->
<g id="node2" class="node"><title>Node7</title>
<g id="a_node2"><a xlink:href="structant_1_1analysis_1_1physics_1_1_etap_dalitz_1_1common__tree.html" target="_top" xlink:title="ant::analysis::physics\l::EtapDalitz::common_tree">
<polygon fill="white" stroke="black" points="130,-147 130,-177 264,-177 264,-147 130,-147"/>
<text text-anchor="start" x="138" y="-165" font-family="Helvetica,sans-Serif" font-size="10.00">ant::analysis::physics</text>
<text text-anchor="middle" x="197" y="-154" font-family="Helvetica,sans-Serif" font-size="10.00">::EtapDalitz::common_tree</text>
</a>
</g>
</g>
<!-- Node7&#45;&gt;Node6 -->
<g id="edge1" class="edge"><title>Node7&#45;&gt;Node6</title>
<path fill="none" stroke="midnightblue" d="M255.584,-143.524C261.176,-141.438 266.726,-139.249 272,-137 295.53,-126.964 321.221,-113.38 339.788,-103.061"/>
<polygon fill="midnightblue" stroke="midnightblue" points="254.387,-140.235 246.176,-146.931 256.77,-146.817 254.387,-140.235"/>
</g>
<!-- Node8 -->
<g id="node3" class="node"><title>Node8</title>
<g id="a_node3"><a xlink:href="classant_1_1_wrap_t_tree.html" target="_top" xlink:title="The WrapTTree struct simplifies TTree handling in physics classes. ">
<polygon fill="white" stroke="black" points="0.5,-78.5 0.5,-97.5 85.5,-97.5 85.5,-78.5 0.5,-78.5"/>
<text text-anchor="middle" x="43" y="-85.5" font-family="Helvetica,sans-Serif" font-size="10.00">ant::WrapTTree</text>
</a>
</g>
</g>
<!-- Node8&#45;&gt;Node7 -->
<g id="edge2" class="edge"><title>Node8&#45;&gt;Node7</title>
<path fill="none" stroke="midnightblue" d="M65.4795,-103.427C80.7219,-113.884 101.954,-127.481 122,-137 129.595,-140.607 137.851,-143.933 146.003,-146.902"/>
<polygon fill="midnightblue" stroke="midnightblue" points="67.4557,-100.538 57.2514,-97.6879 63.4509,-106.28 67.4557,-100.538"/>
</g>
<!-- Node9 -->
<g id="node4" class="node"><title>Node9</title>
<g id="a_node4"><a xlink:href="structant_1_1analysis_1_1physics_1_1_etap_dalitz_1_1proton__tree.html" target="_top" xlink:title="ant::analysis::physics\l::EtapDalitz::proton_tree">
<polygon fill="white" stroke="black" points="135.5,-98 135.5,-128 258.5,-128 258.5,-98 135.5,-98"/>
<text text-anchor="start" x="143.5" y="-116" font-family="Helvetica,sans-Serif" font-size="10.00">ant::analysis::physics</text>
<text text-anchor="middle" x="197" y="-105" font-family="Helvetica,sans-Serif" font-size="10.00">::EtapDalitz::proton_tree</text>
</a>
</g>
</g>
<!-- Node8&#45;&gt;Node9 -->
<g id="edge4" class="edge"><title>Node8&#45;&gt;Node9</title>
<path fill="none" stroke="midnightblue" d="M95.5556,-96.4795C108.368,-98.5869 122.218,-100.865 135.421,-103.036"/>
<polygon fill="midnightblue" stroke="midnightblue" points="95.9702,-93.0008 85.5347,-94.8314 94.834,-99.908 95.9702,-93.0008"/>
</g>
<!-- Node10 -->
<g id="node5" class="node"><title>Node10</title>
<g id="a_node5"><a xlink:href="structant_1_1analysis_1_1physics_1_1_etap_dalitz_1_1photon__tree.html" target="_top" xlink:title="ant::analysis::physics\l::EtapDalitz::photon_tree\&lt; 2 \&gt;">
<polygon fill="white" stroke="black" points="122.5,-49 122.5,-79 271.5,-79 271.5,-49 122.5,-49"/>
<text text-anchor="start" x="130.5" y="-67" font-family="Helvetica,sans-Serif" font-size="10.00">ant::analysis::physics</text>
<text text-anchor="middle" x="197" y="-56" font-family="Helvetica,sans-Serif" font-size="10.00">::EtapDalitz::photon_tree&lt; 2 &gt;</text>
</a>
</g>
</g>
<!-- Node8&#45;&gt;Node10 -->
<g id="edge6" class="edge"><title>Node8&#45;&gt;Node10</title>
<path fill="none" stroke="midnightblue" d="M95.4578,-79.8751C104.124,-78.5067 113.267,-77.063 122.365,-75.6265"/>
<polygon fill="midnightblue" stroke="midnightblue" points="94.8664,-76.425 85.5347,-81.4419 95.9582,-83.3394 94.8664,-76.425"/>
</g>
<!-- Node11 -->
<g id="node6" class="node"><title>Node11</title>
<g id="a_node6"><a xlink:href="structant_1_1analysis_1_1physics_1_1_etap_dalitz_1_1fit__tree.html" target="_top" xlink:title="ant::analysis::physics\l::EtapDalitz::fit_tree\&lt; 2 \&gt;">
<polygon fill="white" stroke="black" points="133,-0 133,-30 261,-30 261,-0 133,-0"/>
<text text-anchor="start" x="141" y="-18" font-family="Helvetica,sans-Serif" font-size="10.00">ant::analysis::physics</text>
<text text-anchor="middle" x="197" y="-7" font-family="Helvetica,sans-Serif" font-size="10.00">::EtapDalitz::fit_tree&lt; 2 &gt;</text>
</a>
</g>
</g>
<!-- Node8&#45;&gt;Node11 -->
<g id="edge8" class="edge"><title>Node8&#45;&gt;Node11</title>
<path fill="none" stroke="midnightblue" d="M66.2298,-72.4453C81.4375,-62.2809 102.331,-49.2291 122,-40 129.734,-36.371 138.143,-33.0141 146.427,-30.0151"/>
<polygon fill="midnightblue" stroke="midnightblue" points="63.8597,-69.8244 57.5575,-78.341 67.7952,-75.6133 63.8597,-69.8244"/>
</g>
<!-- Node9&#45;&gt;Node6 -->
<g id="edge3" class="edge"><title>Node9&#45;&gt;Node6</title>
<path fill="none" stroke="midnightblue" d="M268.577,-102.497C281.699,-100.545 295.27,-98.5253 307.963,-96.6364"/>
<polygon fill="midnightblue" stroke="midnightblue" points="268.028,-99.0406 258.652,-103.974 269.058,-105.964 268.028,-99.0406"/>
</g>
<!-- Node10&#45;&gt;Node6 -->
<g id="edge5" class="edge"><title>Node10&#45;&gt;Node6</title>
<path fill="none" stroke="midnightblue" d="M281.639,-75.9485C290.474,-77.2106 299.315,-78.4735 307.769,-79.6813"/>
<polygon fill="midnightblue" stroke="midnightblue" points="282.082,-72.4762 271.687,-74.5267 281.092,-79.4059 282.082,-72.4762"/>
</g>
<!-- Node11&#45;&gt;Node6 -->
<g id="edge7" class="edge"><title>Node11&#45;&gt;Node6</title>
<path fill="none" stroke="midnightblue" d="M255.564,-33.5225C261.16,-35.5992 266.717,-37.7727 272,-40 295.132,-49.7519 320.427,-62.813 338.944,-72.8486"/>
<polygon fill="midnightblue" stroke="midnightblue" points="256.746,-30.2281 246.152,-30.1264 254.37,-36.8126 256.746,-30.2281"/>
</g>
</g>
</svg>
