<?xml version="1.0" encoding="UTF-8" standalone="no"?>
<!DOCTYPE svg PUBLIC "-//W3C//DTD SVG 1.1//EN"
 "http://www.w3.org/Graphics/SVG/1.1/DTD/svg11.dtd">
<!-- Generated by graphviz version 2.36.0 (20140111.2315)
 -->
<!-- Title: SigOmegaPi0Hist_t::Fill_t Pages: 1 -->
<svg width="1066pt" height="429pt"
 viewBox="0.00 0.00 1066.00 428.76" xmlns="http://www.w3.org/2000/svg" xmlns:xlink="http://www.w3.org/1999/xlink">
<g id="graph0" class="graph" transform="scale(1 1) rotate(0) translate(4 424.759)">
<title>SigOmegaPi0Hist_t::Fill_t</title>
<polygon fill="white" stroke="none" points="-4,4 -4,-424.759 1062,-424.759 1062,4 -4,4"/>
<!-- Node3 -->
<g id="node1" class="node"><title>Node3</title>
<polygon fill="#bfbfbf" stroke="black" points="948.5,-281.759 948.5,-311.759 1057.5,-311.759 1057.5,-281.759 948.5,-281.759"/>
<text text-anchor="start" x="956.5" y="-299.759" font-family="Helvetica,sans-Serif" font-size="10.00">SigOmegaPi0Hist_t::</text>
<text text-anchor="middle" x="1003" y="-288.759" font-family="Helvetica,sans-Serif" font-size="10.00">Fill_t</text>
</g>
<!-- Node4 -->
<g id="node2" class="node"><title>Node4</title>
<g id="a_node2"><a xlink:href="struct_sig_hist__t_1_1_fill__t.html" target="_top" xlink:title="SigHist_t::Fill_t">
<polygon fill="white" stroke="black" points="739,-228.259 739,-247.259 823,-247.259 823,-228.259 739,-228.259"/>
<text text-anchor="middle" x="781" y="-235.259" font-family="Helvetica,sans-Serif" font-size="10.00">SigHist_t::Fill_t</text>
</a>
</g>
</g>
<!-- Node4&#45;&gt;Node3 -->
<g id="edge1" class="edge"><title>Node4&#45;&gt;Node3</title>
<path fill="none" stroke="midnightblue" d="M827.827,-250.049C862.973,-259.475 911.56,-272.505 948.489,-282.408"/>
<polygon fill="midnightblue" stroke="midnightblue" points="828.402,-246.58 817.836,-247.37 826.589,-253.341 828.402,-246.58"/>
</g>
<!-- Node5 -->
<g id="node3" class="node"><title>Node5</title>
<g id="a_node3"><a xlink:href="struct_common_hist__t_1_1_fill__t.html" target="_top" xlink:title="CommonHist_t::Fill_t">
<polygon fill="white" stroke="black" points="521,-309.259 521,-328.259 631,-328.259 631,-309.259 521,-309.259"/>
<text text-anchor="middle" x="576" y="-316.259" font-family="Helvetica,sans-Serif" font-size="10.00">CommonHist_t::Fill_t</text>
</a>
</g>
</g>
<!-- Node5&#45;&gt;Node4 -->
<g id="edge2" class="edge"><title>Node5&#45;&gt;Node4</title>
<path fill="none" stroke="midnightblue" d="M610.375,-305.442C651.337,-289.097 719.797,-261.781 755.947,-247.357"/>
<polygon fill="midnightblue" stroke="midnightblue" points="609.075,-302.192 601.084,-309.149 611.669,-308.694 609.075,-302.192"/>
</g>
<!-- Node6 -->
<g id="node4" class="node"><title>Node6</title>
<g id="a_node4"><a xlink:href="structant_1_1analysis_1_1physics_1_1_etap_omega_g_1_1_proton_photon_tree__t.html" target="_top" xlink:title="ant::analysis::physics\l::EtapOmegaG::ProtonPhotonTree_t">
<polygon fill="white" stroke="black" points="124.5,-390.759 124.5,-420.759 299.5,-420.759 299.5,-390.759 124.5,-390.759"/>
<text text-anchor="start" x="132.5" y="-408.759" font-family="Helvetica,sans-Serif" font-size="10.00">ant::analysis::physics</text>
<text text-anchor="middle" x="212" y="-397.759" font-family="Helvetica,sans-Serif" font-size="10.00">::EtapOmegaG::ProtonPhotonTree_t</text>
</a>
</g>
</g>
<!-- Node6&#45;&gt;Node5 -->
<g id="edge3" class="edge"><title>Node6&#45;&gt;Node5</title>
<path fill="none" stroke="#9a32cd" stroke-dasharray="5,2" d="M273.511,-388.057C287.995,-384.255 303.473,-380.548 318,-377.759 395.364,-362.906 418.263,-378.432 494,-356.759 517.446,-350.05 542.599,-337.278 558.547,-328.403"/>
<polygon fill="#9a32cd" stroke="#9a32cd" points="272.421,-384.725 263.667,-390.693 274.232,-391.487 272.421,-384.725"/>
<text text-anchor="middle" x="406" y="-380.759" font-family="Helvetica,sans-Serif" font-size="10.00"> ProtonPhoton</text>
</g>
<!-- Node18 -->
<g id="node16" class="node"><title>Node18</title>
<g id="a_node16"><a xlink:href="structant_1_1analysis_1_1physics_1_1_etap_omega_g_1_1_sig__t_1_1_fit__t_1_1_base_tree__t.html" target="_top" xlink:title="ant::analysis::physics\l::EtapOmegaG::Sig_t::Fit\l_t::BaseTree_t">
<polygon fill="white" stroke="black" points="512,-369.259 512,-410.259 640,-410.259 640,-369.259 512,-369.259"/>
<text text-anchor="start" x="520" y="-398.259" font-family="Helvetica,sans-Serif" font-size="10.00">ant::analysis::physics</text>
<text text-anchor="start" x="520" y="-387.259" font-family="Helvetica,sans-Serif" font-size="10.00">::EtapOmegaG::Sig_t::Fit</text>
<text text-anchor="middle" x="576" y="-376.259" font-family="Helvetica,sans-Serif" font-size="10.00">_t::BaseTree_t</text>
</a>
</g>
</g>
<!-- Node6&#45;&gt;Node18 -->
<g id="edge24" class="edge"><title>Node6&#45;&gt;Node18</title>
<path fill="none" stroke="midnightblue" d="M309.835,-401.479C373.948,-398.645 456.185,-395.011 511.955,-392.546"/>
<polygon fill="midnightblue" stroke="midnightblue" points="309.544,-397.989 299.708,-401.927 309.853,-404.982 309.544,-397.989"/>
</g>
<!-- Node7 -->
<g id="node5" class="node"><title>Node7</title>
<g id="a_node5"><a xlink:href="classant_1_1_wrap_t_tree.html" target="_top" xlink:title="The WrapTTree struct simplifies TTree handling in physics classes. ">
<polygon fill="white" stroke="black" points="0.5,-200.259 0.5,-219.259 85.5,-219.259 85.5,-200.259 0.5,-200.259"/>
<text text-anchor="middle" x="43" y="-207.259" font-family="Helvetica,sans-Serif" font-size="10.00">ant::WrapTTree</text>
</a>
</g>
</g>
<!-- Node7&#45;&gt;Node6 -->
<g id="edge4" class="edge"><title>Node7&#45;&gt;Node6</title>
<path fill="none" stroke="midnightblue" d="M47.7172,-229.713C55.4212,-265.41 76.5342,-340.248 124,-380.759 128.542,-384.636 133.653,-387.913 139.064,-390.682"/>
<polygon fill="midnightblue" stroke="midnightblue" points="51.0831,-228.699 45.6706,-219.591 44.222,-230.086 51.0831,-228.699"/>
</g>
<!-- Node8 -->
<g id="node6" class="node"><title>Node8</title>
<g id="a_node6"><a xlink:href="structant_1_1analysis_1_1utils_1_1_m_c_weighting_1_1tree__t.html" target="_top" xlink:title="ant::analysis::utils\l::MCWeighting::tree_t">
<polygon fill="white" stroke="black" points="155.5,-341.759 155.5,-371.759 268.5,-371.759 268.5,-341.759 155.5,-341.759"/>
<text text-anchor="start" x="163.5" y="-359.759" font-family="Helvetica,sans-Serif" font-size="10.00">ant::analysis::utils</text>
<text text-anchor="middle" x="212" y="-348.759" font-family="Helvetica,sans-Serif" font-size="10.00">::MCWeighting::tree_t</text>
</a>
</g>
</g>
<!-- Node7&#45;&gt;Node8 -->
<g id="edge6" class="edge"><title>Node7&#45;&gt;Node8</title>
<path fill="none" stroke="midnightblue" d="M51.4127,-228.836C62.8743,-255.817 87.46,-304.83 124,-331.759 133.235,-338.565 144.278,-343.523 155.346,-347.132"/>
<polygon fill="midnightblue" stroke="midnightblue" points="54.5642,-227.295 47.5448,-219.359 48.0832,-229.94 54.5642,-227.295"/>
</g>
<!-- Node9 -->
<g id="node7" class="node"><title>Node9</title>
<g id="a_node7"><a xlink:href="structant_1_1analysis_1_1physics_1_1_etap_omega_g_1_1_tree_common.html" target="_top" xlink:title="ant::analysis::physics\l::EtapOmegaG::TreeCommon">
<polygon fill="white" stroke="black" points="138.5,-292.759 138.5,-322.759 285.5,-322.759 285.5,-292.759 138.5,-292.759"/>
<text text-anchor="start" x="146.5" y="-310.759" font-family="Helvetica,sans-Serif" font-size="10.00">ant::analysis::physics</text>
<text text-anchor="middle" x="212" y="-299.759" font-family="Helvetica,sans-Serif" font-size="10.00">::EtapOmegaG::TreeCommon</text>
</a>
</g>
</g>
<!-- Node7&#45;&gt;Node9 -->
<g id="edge8" class="edge"><title>Node7&#45;&gt;Node9</title>
<path fill="none" stroke="midnightblue" d="M58.6848,-227.166C73.5526,-243.733 98.0052,-268.227 124,-282.759 130.859,-286.593 138.357,-289.884 145.983,-292.696"/>
<polygon fill="midnightblue" stroke="midnightblue" points="61.0429,-224.546 51.8261,-219.321 55.7727,-229.153 61.0429,-224.546"/>
</g>
<!-- Node11 -->
<g id="node9" class="node"><title>Node11</title>
<g id="a_node9"><a xlink:href="structant_1_1analysis_1_1physics_1_1_etap_dalitz_1_1common__tree.html" target="_top" xlink:title="ant::analysis::physics\l::EtapDalitz::common_tree">
<polygon fill="white" stroke="black" points="145,-243.759 145,-273.759 279,-273.759 279,-243.759 145,-243.759"/>
<text text-anchor="start" x="153" y="-261.759" font-family="Helvetica,sans-Serif" font-size="10.00">ant::analysis::physics</text>
<text text-anchor="middle" x="212" y="-250.759" font-family="Helvetica,sans-Serif" font-size="10.00">::EtapDalitz::common_tree</text>
</a>
</g>
</g>
<!-- Node7&#45;&gt;Node11 -->
<g id="edge11" class="edge"><title>Node7&#45;&gt;Node11</title>
<path fill="none" stroke="midnightblue" d="M85.1883,-222.216C97.6489,-225.957 111.375,-230.052 124,-233.759 135.007,-236.992 146.811,-240.414 158.063,-243.654"/>
<polygon fill="midnightblue" stroke="midnightblue" points="86.096,-218.834 75.5117,-219.305 84.0796,-225.537 86.096,-218.834"/>
</g>
<!-- Node12 -->
<g id="node10" class="node"><title>Node12</title>
<g id="a_node10"><a xlink:href="structant_1_1analysis_1_1physics_1_1_etap_dalitz_1_1proton__tree.html" target="_top" xlink:title="ant::analysis::physics\l::EtapDalitz::proton_tree">
<polygon fill="white" stroke="black" points="150.5,-194.759 150.5,-224.759 273.5,-224.759 273.5,-194.759 150.5,-194.759"/>
<text text-anchor="start" x="158.5" y="-212.759" font-family="Helvetica,sans-Serif" font-size="10.00">ant::analysis::physics</text>
<text text-anchor="middle" x="212" y="-201.759" font-family="Helvetica,sans-Serif" font-size="10.00">::EtapDalitz::proton_tree</text>
</a>
</g>
</g>
<!-- Node7&#45;&gt;Node12 -->
<g id="edge13" class="edge"><title>Node7&#45;&gt;Node12</title>
<path fill="none" stroke="midnightblue" d="M96.1047,-209.759C113.28,-209.759 132.53,-209.759 150.29,-209.759"/>
<polygon fill="midnightblue" stroke="midnightblue" points="95.7104,-206.259 85.7104,-209.759 95.7103,-213.259 95.7104,-206.259"/>
</g>
<!-- Node13 -->
<g id="node11" class="node"><title>Node13</title>
<g id="a_node11"><a xlink:href="structant_1_1analysis_1_1physics_1_1_etap_dalitz_1_1photon__tree.html" target="_top" xlink:title="ant::analysis::physics\l::EtapDalitz::photon_tree\&lt; 3 \&gt;">
<polygon fill="white" stroke="black" points="137.5,-145.759 137.5,-175.759 286.5,-175.759 286.5,-145.759 137.5,-145.759"/>
<text text-anchor="start" x="145.5" y="-163.759" font-family="Helvetica,sans-Serif" font-size="10.00">ant::analysis::physics</text>
<text text-anchor="middle" x="212" y="-152.759" font-family="Helvetica,sans-Serif" font-size="10.00">::EtapDalitz::photon_tree&lt; 3 &gt;</text>
</a>
</g>
</g>
<!-- Node7&#45;&gt;Node13 -->
<g id="edge15" class="edge"><title>Node7&#45;&gt;Node13</title>
<path fill="none" stroke="midnightblue" d="M83.8394,-197.019C96.6366,-193.005 110.892,-188.614 124,-184.759 134.071,-181.797 144.83,-178.742 155.227,-175.845"/>
<polygon fill="midnightblue" stroke="midnightblue" points="82.4235,-193.796 73.9387,-200.141 84.5284,-200.472 82.4235,-193.796"/>
</g>
<!-- Node14 -->
<g id="node12" class="node"><title>Node14</title>
<g id="a_node12"><a xlink:href="structant_1_1analysis_1_1physics_1_1_etap_dalitz_1_1fit__tree.html" target="_top" xlink:title="ant::analysis::physics\l::EtapDalitz::fit_tree\&lt; 3 \&gt;">
<polygon fill="white" stroke="black" points="148,-96.7592 148,-126.759 276,-126.759 276,-96.7592 148,-96.7592"/>
<text text-anchor="start" x="156" y="-114.759" font-family="Helvetica,sans-Serif" font-size="10.00">ant::analysis::physics</text>
<text text-anchor="middle" x="212" y="-103.759" font-family="Helvetica,sans-Serif" font-size="10.00">::EtapDalitz::fit_tree&lt; 3 &gt;</text>
</a>
</g>
</g>
<!-- Node7&#45;&gt;Node14 -->
<g id="edge17" class="edge"><title>Node7&#45;&gt;Node14</title>
<path fill="none" stroke="midnightblue" d="M58.6016,-192.044C73.4072,-175.199 97.8146,-150.331 124,-135.759 131.393,-131.645 139.538,-128.199 147.79,-125.321"/>
<polygon fill="midnightblue" stroke="midnightblue" points="55.6159,-190.15 51.7759,-200.025 60.9356,-194.7 55.6159,-190.15"/>
</g>
<!-- Node15 -->
<g id="node13" class="node"><title>Node15</title>
<g id="a_node13"><a xlink:href="structant_1_1analysis_1_1physics_1_1_etap_dalitz_1_1fit__free_z__tree.html" target="_top" xlink:title="ant::analysis::physics\l::EtapDalitz::fit_freeZ\l_tree\&lt; 3 \&gt;">
<polygon fill="white" stroke="black" points="156,-37.2592 156,-78.2592 268,-78.2592 268,-37.2592 156,-37.2592"/>
<text text-anchor="start" x="164" y="-66.2592" font-family="Helvetica,sans-Serif" font-size="10.00">ant::analysis::physics</text>
<text text-anchor="start" x="164" y="-55.2592" font-family="Helvetica,sans-Serif" font-size="10.00">::EtapDalitz::fit_freeZ</text>
<text text-anchor="middle" x="212" y="-44.2592" font-family="Helvetica,sans-Serif" font-size="10.00">_tree&lt; 3 &gt;</text>
</a>
</g>
</g>
<!-- Node7&#45;&gt;Node15 -->
<g id="edge19" class="edge"><title>Node7&#45;&gt;Node15</title>
<path fill="none" stroke="midnightblue" d="M51.5256,-190.733C63.1253,-163.783 87.8783,-114.675 124,-86.7592 133.322,-79.5548 144.525,-74.0923 155.741,-69.9666"/>
<polygon fill="midnightblue" stroke="midnightblue" points="48.2007,-189.614 47.6058,-200.192 54.6674,-192.294 48.2007,-189.614"/>
</g>
<!-- Node16 -->
<g id="node14" class="node"><title>Node16</title>
<g id="a_node14"><a xlink:href="structant_1_1analysis_1_1physics_1_1_etap_omega_g_1_1_sig__t_1_1_shared_tree__t.html" target="_top" xlink:title="ant::analysis::physics\l::EtapOmegaG::Sig_t::SharedTree_t">
<polygon fill="white" stroke="black" points="318.5,-24.7592 318.5,-54.7592 493.5,-54.7592 493.5,-24.7592 318.5,-24.7592"/>
<text text-anchor="start" x="326.5" y="-42.7592" font-family="Helvetica,sans-Serif" font-size="10.00">ant::analysis::physics</text>
<text text-anchor="middle" x="406" y="-31.7592" font-family="Helvetica,sans-Serif" font-size="10.00">::EtapOmegaG::Sig_t::SharedTree_t</text>
</a>
</g>
</g>
<!-- Node7&#45;&gt;Node16 -->
<g id="edge21" class="edge"><title>Node7&#45;&gt;Node16</title>
<path fill="none" stroke="midnightblue" d="M45.8792,-189.813C50.7635,-150.691 67.7064,-64.5067 124,-27.7592 197.804,20.4186 307.228,-5.30746 365.351,-24.6722"/>
<polygon fill="midnightblue" stroke="midnightblue" points="42.3808,-189.606 44.759,-199.93 49.3383,-190.376 42.3808,-189.606"/>
</g>
<!-- Node8&#45;&gt;Node5 -->
<g id="edge5" class="edge"><title>Node8&#45;&gt;Node5</title>
<path fill="none" stroke="#9a32cd" stroke-dasharray="5,2" d="M278.72,-349.86C348.135,-342.574 456.295,-331.22 520.942,-324.434"/>
<polygon fill="#9a32cd" stroke="#9a32cd" points="278.349,-346.38 268.769,-350.905 279.08,-353.342 278.349,-346.38"/>
<text text-anchor="middle" x="406" y="-348.759" font-family="Helvetica,sans-Serif" font-size="10.00"> MCWeighting</text>
</g>
<!-- Node9&#45;&gt;Node5 -->
<g id="edge7" class="edge"><title>Node9&#45;&gt;Node5</title>
<path fill="none" stroke="#9a32cd" stroke-dasharray="5,2" d="M295.763,-306.737C351.765,-306.514 427.388,-307.121 494,-310.759 502.607,-311.229 511.711,-311.93 520.587,-312.724"/>
<polygon fill="#9a32cd" stroke="#9a32cd" points="295.524,-303.238 285.541,-306.788 295.558,-310.238 295.524,-303.238"/>
<text text-anchor="middle" x="406" y="-313.759" font-family="Helvetica,sans-Serif" font-size="10.00"> Common</text>
</g>
<!-- Node10 -->
<g id="node8" class="node"><title>Node10</title>
<g id="a_node8"><a xlink:href="structant_1_1analysis_1_1physics_1_1_etap_dalitz_1_1_sig_tree__t.html" target="_top" xlink:title="ant::analysis::physics\l::EtapDalitz::SigTree_t">
<polygon fill="white" stroke="black" points="518,-175.759 518,-205.759 634,-205.759 634,-175.759 518,-175.759"/>
<text text-anchor="start" x="526" y="-193.759" font-family="Helvetica,sans-Serif" font-size="10.00">ant::analysis::physics</text>
<text text-anchor="middle" x="576" y="-182.759" font-family="Helvetica,sans-Serif" font-size="10.00">::EtapDalitz::SigTree_t</text>
</a>
</g>
</g>
<!-- Node10&#45;&gt;Node4 -->
<g id="edge9" class="edge"><title>Node10&#45;&gt;Node4</title>
<path fill="none" stroke="#9a32cd" stroke-dasharray="5,2" d="M644.054,-206.284C675.343,-213.528 711.586,-221.92 738.779,-228.215"/>
<polygon fill="#9a32cd" stroke="#9a32cd" points="644.619,-202.822 634.087,-203.976 643.04,-209.642 644.619,-202.822"/>
<text text-anchor="middle" x="670" y="-217.759" font-family="Helvetica,sans-Serif" font-size="10.00"> Tree</text>
</g>
<!-- Node11&#45;&gt;Node10 -->
<g id="edge10" class="edge"><title>Node11&#45;&gt;Node10</title>
<path fill="none" stroke="midnightblue" d="M289.254,-249.026C346.037,-241.179 425.284,-228.962 494,-213.759 504.277,-211.486 515.18,-208.672 525.545,-205.801"/>
<polygon fill="midnightblue" stroke="midnightblue" points="288.709,-245.568 279.276,-250.392 289.658,-252.503 288.709,-245.568"/>
</g>
<!-- Node12&#45;&gt;Node10 -->
<g id="edge12" class="edge"><title>Node12&#45;&gt;Node10</title>
<path fill="none" stroke="midnightblue" d="M283.843,-206.041C352.219,-202.452 454.439,-197.087 517.799,-193.761"/>
<polygon fill="midnightblue" stroke="midnightblue" points="283.393,-202.56 273.591,-206.579 283.76,-209.55 283.393,-202.56"/>
</g>
<!-- Node13&#45;&gt;Node10 -->
<g id="edge14" class="edge"><title>Node13&#45;&gt;Node10</title>
<path fill="none" stroke="midnightblue" d="M296.921,-167.714C364.715,-173.332 458.316,-181.089 517.754,-186.015"/>
<polygon fill="midnightblue" stroke="midnightblue" points="296.947,-164.204 286.692,-166.866 296.369,-171.18 296.947,-164.204"/>
</g>
<!-- Node14&#45;&gt;Node10 -->
<g id="edge16" class="edge"><title>Node14&#45;&gt;Node10</title>
<path fill="none" stroke="midnightblue" d="M286.208,-123.565C343.199,-133.299 424.092,-148.309 494,-165.759 505.566,-168.646 517.922,-172.209 529.41,-175.731"/>
<polygon fill="midnightblue" stroke="midnightblue" points="286.653,-120.09 276.209,-121.869 285.483,-126.992 286.653,-120.09"/>
</g>
<!-- Node15&#45;&gt;Node10 -->
<g id="edge18" class="edge"><title>Node15&#45;&gt;Node10</title>
<path fill="none" stroke="midnightblue" d="M278.144,-65.289C336.935,-73.9611 424.591,-91.6436 494,-125.759 519.89,-138.485 545.058,-160.694 560.294,-175.561"/>
<polygon fill="midnightblue" stroke="midnightblue" points="278.634,-61.8236 268.239,-63.873 277.643,-68.7531 278.634,-61.8236"/>
</g>
<!-- Node16&#45;&gt;Node4 -->
<g id="edge20" class="edge"><title>Node16&#45;&gt;Node4</title>
<path fill="none" stroke="#9a32cd" stroke-dasharray="5,2" d="M465.532,-58.1813C475.17,-61.7145 484.958,-65.6164 494,-69.7592 603.677,-120.012 725.381,-200.527 765.976,-228.118"/>
<polygon fill="#9a32cd" stroke="#9a32cd" points="466.572,-54.8365 455.978,-54.7757 464.222,-61.4302 466.572,-54.8365"/>
<text text-anchor="middle" x="576" y="-149.759" font-family="Helvetica,sans-Serif" font-size="10.00"> Shared</text>
</g>
<!-- Node17 -->
<g id="node15" class="node"><title>Node17</title>
<g id="a_node15"><a xlink:href="structant_1_1analysis_1_1physics_1_1_etap_omega_g_1_1_sig__t_1_1_omega_pi0__t_1_1_tree__t.html" target="_top" xlink:title="ant::analysis::physics\l::EtapOmegaG::Sig_t::OmegaPi0\l_t::Tree_t">
<polygon fill="white" stroke="black" points="700,-318.259 700,-359.259 862,-359.259 862,-318.259 700,-318.259"/>
<text text-anchor="start" x="708" y="-347.259" font-family="Helvetica,sans-Serif" font-size="10.00">ant::analysis::physics</text>
<text text-anchor="start" x="708" y="-336.259" font-family="Helvetica,sans-Serif" font-size="10.00">::EtapOmegaG::Sig_t::OmegaPi0</text>
<text text-anchor="middle" x="781" y="-325.259" font-family="Helvetica,sans-Serif" font-size="10.00">_t::Tree_t</text>
</a>
</g>
</g>
<!-- Node17&#45;&gt;Node3 -->
<g id="edge22" class="edge"><title>Node17&#45;&gt;Node3</title>
<path fill="none" stroke="#9a32cd" stroke-dasharray="5,2" d="M871.919,-321.593C897.905,-316.632 925.44,-311.375 948.452,-306.982"/>
<polygon fill="#9a32cd" stroke="#9a32cd" points="871.214,-318.164 862.047,-323.477 872.526,-325.04 871.214,-318.164"/>
<text text-anchor="middle" x="905" y="-322.759" font-family="Helvetica,sans-Serif" font-size="10.00"> OmegaPi0</text>
</g>
<!-- Node18&#45;&gt;Node17 -->
<g id="edge23" class="edge"><title>Node18&#45;&gt;Node17</title>
<path fill="none" stroke="midnightblue" d="M650.007,-371.417C666.133,-367.366 683.303,-363.052 699.701,-358.933"/>
<polygon fill="midnightblue" stroke="midnightblue" points="648.963,-368.071 640.118,-373.902 650.669,-374.86 648.963,-368.071"/>
</g>
</g>
</svg>
