<?xml version="1.0" encoding="UTF-8" standalone="no"?>
<!DOCTYPE svg PUBLIC "-//W3C//DTD SVG 1.1//EN"
 "http://www.w3.org/Graphics/SVG/1.1/DTD/svg11.dtd">
<!-- Generated by graphviz version 2.36.0 (20140111.2315)
 -->
<!-- Title: SigHist_t::Fill_t Pages: 1 -->
<svg width="780pt" height="429pt"
 viewBox="0.00 0.00 780.00 429.15" xmlns="http://www.w3.org/2000/svg" xmlns:xlink="http://www.w3.org/1999/xlink">
<g id="graph0" class="graph" transform="scale(1 1) rotate(0) translate(4 425.15)">
<title>SigHist_t::Fill_t</title>
<polygon fill="white" stroke="none" points="-4,4 -4,-425.15 776,-425.15 776,4 -4,4"/>
<!-- Node4 -->
<g id="node1" class="node"><title>Node4</title>
<polygon fill="#bfbfbf" stroke="black" points="688,-151.65 688,-170.65 772,-170.65 772,-151.65 688,-151.65"/>
<text text-anchor="middle" x="730" y="-158.65" font-family="Helvetica,sans-Serif" font-size="10.00">SigHist_t::Fill_t</text>
</g>
<!-- Node5 -->
<g id="node2" class="node"><title>Node5</title>
<g id="a_node2"><a xlink:href="struct_common_hist__t_1_1_fill__t.html" target="_top" xlink:title="CommonHist_t::Fill_t">
<polygon fill="white" stroke="black" points="515,-319.65 515,-338.65 625,-338.65 625,-319.65 515,-319.65"/>
<text text-anchor="middle" x="570" y="-326.65" font-family="Helvetica,sans-Serif" font-size="10.00">CommonHist_t::Fill_t</text>
</a>
</g>
</g>
<!-- Node5&#45;&gt;Node4 -->
<g id="edge1" class="edge"><title>Node5&#45;&gt;Node4</title>
<path fill="none" stroke="midnightblue" d="M586.996,-312.141C619.795,-277.266 693.765,-198.615 719.757,-170.977"/>
<polygon fill="midnightblue" stroke="midnightblue" points="584.249,-309.953 579.947,-319.636 589.348,-314.749 584.249,-309.953"/>
</g>
<!-- Node6 -->
<g id="node3" class="node"><title>Node6</title>
<g id="a_node3"><a xlink:href="structant_1_1analysis_1_1physics_1_1_etap_omega_g_1_1_proton_photon_tree__t.html" target="_top" xlink:title="ant::analysis::physics\l::EtapOmegaG::ProtonPhotonTree_t">
<polygon fill="white" stroke="black" points="124.5,-391.15 124.5,-421.15 299.5,-421.15 299.5,-391.15 124.5,-391.15"/>
<text text-anchor="start" x="132.5" y="-409.15" font-family="Helvetica,sans-Serif" font-size="10.00">ant::analysis::physics</text>
<text text-anchor="middle" x="212" y="-398.15" font-family="Helvetica,sans-Serif" font-size="10.00">::EtapOmegaG::ProtonPhotonTree_t</text>
</a>
</g>
</g>
<!-- Node6&#45;&gt;Node5 -->
<g id="edge2" class="edge"><title>Node6&#45;&gt;Node5</title>
<path fill="none" stroke="#9a32cd" stroke-dasharray="5,2" d="M309.872,-397.936C364.708,-391.654 434.097,-380.943 494,-363.15 514.557,-357.043 536.773,-346.42 551.646,-338.669"/>
<polygon fill="#9a32cd" stroke="#9a32cd" points="309.358,-394.472 299.807,-399.058 310.134,-401.429 309.358,-394.472"/>
<text text-anchor="middle" x="406" y="-399.15" font-family="Helvetica,sans-Serif" font-size="10.00"> ProtonPhoton</text>
</g>
<!-- Node7 -->
<g id="node4" class="node"><title>Node7</title>
<g id="a_node4"><a xlink:href="classant_1_1_wrap_t_tree.html" target="_top" xlink:title="The WrapTTree struct simplifies TTree handling in physics classes. ">
<polygon fill="white" stroke="black" points="0.5,-200.65 0.5,-219.65 85.5,-219.65 85.5,-200.65 0.5,-200.65"/>
<text text-anchor="middle" x="43" y="-207.65" font-family="Helvetica,sans-Serif" font-size="10.00">ant::WrapTTree</text>
</a>
</g>
</g>
<!-- Node7&#45;&gt;Node6 -->
<g id="edge3" class="edge"><title>Node7&#45;&gt;Node6</title>
<path fill="none" stroke="midnightblue" d="M47.7172,-230.103C55.4212,-265.8 76.5342,-340.638 124,-381.15 128.542,-385.026 133.653,-388.303 139.064,-391.073"/>
<polygon fill="midnightblue" stroke="midnightblue" points="51.0831,-229.089 45.6706,-219.982 44.222,-230.477 51.0831,-229.089"/>
</g>
<!-- Node8 -->
<g id="node5" class="node"><title>Node8</title>
<g id="a_node5"><a xlink:href="structant_1_1analysis_1_1utils_1_1_m_c_weighting_1_1tree__t.html" target="_top" xlink:title="ant::analysis::utils\l::MCWeighting::tree_t">
<polygon fill="white" stroke="black" points="155.5,-342.15 155.5,-372.15 268.5,-372.15 268.5,-342.15 155.5,-342.15"/>
<text text-anchor="start" x="163.5" y="-360.15" font-family="Helvetica,sans-Serif" font-size="10.00">ant::analysis::utils</text>
<text text-anchor="middle" x="212" y="-349.15" font-family="Helvetica,sans-Serif" font-size="10.00">::MCWeighting::tree_t</text>
</a>
</g>
</g>
<!-- Node7&#45;&gt;Node8 -->
<g id="edge5" class="edge"><title>Node7&#45;&gt;Node8</title>
<path fill="none" stroke="midnightblue" d="M51.4127,-229.226C62.8743,-256.207 87.46,-305.221 124,-332.15 133.235,-338.956 144.278,-343.913 155.346,-347.522"/>
<polygon fill="midnightblue" stroke="midnightblue" points="54.5642,-227.685 47.5448,-219.75 48.0832,-230.331 54.5642,-227.685"/>
</g>
<!-- Node9 -->
<g id="node6" class="node"><title>Node9</title>
<g id="a_node6"><a xlink:href="structant_1_1analysis_1_1physics_1_1_etap_omega_g_1_1_tree_common.html" target="_top" xlink:title="ant::analysis::physics\l::EtapOmegaG::TreeCommon">
<polygon fill="white" stroke="black" points="138.5,-293.15 138.5,-323.15 285.5,-323.15 285.5,-293.15 138.5,-293.15"/>
<text text-anchor="start" x="146.5" y="-311.15" font-family="Helvetica,sans-Serif" font-size="10.00">ant::analysis::physics</text>
<text text-anchor="middle" x="212" y="-300.15" font-family="Helvetica,sans-Serif" font-size="10.00">::EtapOmegaG::TreeCommon</text>
</a>
</g>
</g>
<!-- Node7&#45;&gt;Node9 -->
<g id="edge7" class="edge"><title>Node7&#45;&gt;Node9</title>
<path fill="none" stroke="midnightblue" d="M58.6848,-227.557C73.5526,-244.123 98.0052,-268.618 124,-283.15 130.859,-286.984 138.357,-290.274 145.983,-293.086"/>
<polygon fill="midnightblue" stroke="midnightblue" points="61.0429,-224.936 51.8261,-219.711 55.7727,-229.544 61.0429,-224.936"/>
</g>
<!-- Node11 -->
<g id="node8" class="node"><title>Node11</title>
<g id="a_node8"><a xlink:href="structant_1_1analysis_1_1physics_1_1_etap_dalitz_1_1common__tree.html" target="_top" xlink:title="ant::analysis::physics\l::EtapDalitz::common_tree">
<polygon fill="white" stroke="black" points="145,-244.15 145,-274.15 279,-274.15 279,-244.15 145,-244.15"/>
<text text-anchor="start" x="153" y="-262.15" font-family="Helvetica,sans-Serif" font-size="10.00">ant::analysis::physics</text>
<text text-anchor="middle" x="212" y="-251.15" font-family="Helvetica,sans-Serif" font-size="10.00">::EtapDalitz::common_tree</text>
</a>
</g>
</g>
<!-- Node7&#45;&gt;Node11 -->
<g id="edge10" class="edge"><title>Node7&#45;&gt;Node11</title>
<path fill="none" stroke="midnightblue" d="M85.1883,-222.606C97.6489,-226.347 111.375,-230.442 124,-234.15 135.007,-237.382 146.811,-240.804 158.063,-244.044"/>
<polygon fill="midnightblue" stroke="midnightblue" points="86.096,-219.224 75.5117,-219.695 84.0796,-225.927 86.096,-219.224"/>
</g>
<!-- Node12 -->
<g id="node9" class="node"><title>Node12</title>
<g id="a_node9"><a xlink:href="structant_1_1analysis_1_1physics_1_1_etap_dalitz_1_1proton__tree.html" target="_top" xlink:title="ant::analysis::physics\l::EtapDalitz::proton_tree">
<polygon fill="white" stroke="black" points="150.5,-195.15 150.5,-225.15 273.5,-225.15 273.5,-195.15 150.5,-195.15"/>
<text text-anchor="start" x="158.5" y="-213.15" font-family="Helvetica,sans-Serif" font-size="10.00">ant::analysis::physics</text>
<text text-anchor="middle" x="212" y="-202.15" font-family="Helvetica,sans-Serif" font-size="10.00">::EtapDalitz::proton_tree</text>
</a>
</g>
</g>
<!-- Node7&#45;&gt;Node12 -->
<g id="edge12" class="edge"><title>Node7&#45;&gt;Node12</title>
<path fill="none" stroke="midnightblue" d="M96.1047,-210.15C113.28,-210.15 132.53,-210.15 150.29,-210.15"/>
<polygon fill="midnightblue" stroke="midnightblue" points="95.7104,-206.65 85.7104,-210.15 95.7103,-213.65 95.7104,-206.65"/>
</g>
<!-- Node13 -->
<g id="node10" class="node"><title>Node13</title>
<g id="a_node10"><a xlink:href="structant_1_1analysis_1_1physics_1_1_etap_dalitz_1_1photon__tree.html" target="_top" xlink:title="ant::analysis::physics\l::EtapDalitz::photon_tree\&lt; 3 \&gt;">
<polygon fill="white" stroke="black" points="137.5,-146.15 137.5,-176.15 286.5,-176.15 286.5,-146.15 137.5,-146.15"/>
<text text-anchor="start" x="145.5" y="-164.15" font-family="Helvetica,sans-Serif" font-size="10.00">ant::analysis::physics</text>
<text text-anchor="middle" x="212" y="-153.15" font-family="Helvetica,sans-Serif" font-size="10.00">::EtapDalitz::photon_tree&lt; 3 &gt;</text>
</a>
</g>
</g>
<!-- Node7&#45;&gt;Node13 -->
<g id="edge14" class="edge"><title>Node7&#45;&gt;Node13</title>
<path fill="none" stroke="midnightblue" d="M83.8394,-197.409C96.6366,-193.395 110.892,-189.005 124,-185.15 134.071,-182.188 144.83,-179.132 155.227,-176.235"/>
<polygon fill="midnightblue" stroke="midnightblue" points="82.4235,-194.186 73.9387,-200.531 84.5284,-200.862 82.4235,-194.186"/>
</g>
<!-- Node14 -->
<g id="node11" class="node"><title>Node14</title>
<g id="a_node11"><a xlink:href="structant_1_1analysis_1_1physics_1_1_etap_dalitz_1_1fit__tree.html" target="_top" xlink:title="ant::analysis::physics\l::EtapDalitz::fit_tree\&lt; 3 \&gt;">
<polygon fill="white" stroke="black" points="148,-97.1495 148,-127.15 276,-127.15 276,-97.1495 148,-97.1495"/>
<text text-anchor="start" x="156" y="-115.15" font-family="Helvetica,sans-Serif" font-size="10.00">ant::analysis::physics</text>
<text text-anchor="middle" x="212" y="-104.15" font-family="Helvetica,sans-Serif" font-size="10.00">::EtapDalitz::fit_tree&lt; 3 &gt;</text>
</a>
</g>
</g>
<!-- Node7&#45;&gt;Node14 -->
<g id="edge16" class="edge"><title>Node7&#45;&gt;Node14</title>
<path fill="none" stroke="midnightblue" d="M58.6016,-192.434C73.4072,-175.589 97.8146,-150.721 124,-136.15 131.393,-132.035 139.538,-128.589 147.79,-125.712"/>
<polygon fill="midnightblue" stroke="midnightblue" points="55.6159,-190.541 51.7759,-200.415 60.9356,-195.09 55.6159,-190.541"/>
</g>
<!-- Node15 -->
<g id="node12" class="node"><title>Node15</title>
<g id="a_node12"><a xlink:href="structant_1_1analysis_1_1physics_1_1_etap_dalitz_1_1fit__free_z__tree.html" target="_top" xlink:title="ant::analysis::physics\l::EtapDalitz::fit_freeZ\l_tree\&lt; 3 \&gt;">
<polygon fill="white" stroke="black" points="156,-37.6495 156,-78.6495 268,-78.6495 268,-37.6495 156,-37.6495"/>
<text text-anchor="start" x="164" y="-66.6495" font-family="Helvetica,sans-Serif" font-size="10.00">ant::analysis::physics</text>
<text text-anchor="start" x="164" y="-55.6495" font-family="Helvetica,sans-Serif" font-size="10.00">::EtapDalitz::fit_freeZ</text>
<text text-anchor="middle" x="212" y="-44.6495" font-family="Helvetica,sans-Serif" font-size="10.00">_tree&lt; 3 &gt;</text>
</a>
</g>
</g>
<!-- Node7&#45;&gt;Node15 -->
<g id="edge18" class="edge"><title>Node7&#45;&gt;Node15</title>
<path fill="none" stroke="midnightblue" d="M51.5256,-191.123C63.1253,-164.174 87.8783,-115.065 124,-87.1495 133.322,-79.9452 144.525,-74.4827 155.741,-70.357"/>
<polygon fill="midnightblue" stroke="midnightblue" points="48.2007,-190.004 47.6058,-200.582 54.6674,-192.684 48.2007,-190.004"/>
</g>
<!-- Node16 -->
<g id="node13" class="node"><title>Node16</title>
<g id="a_node13"><a xlink:href="structant_1_1analysis_1_1physics_1_1_etap_omega_g_1_1_sig__t_1_1_shared_tree__t.html" target="_top" xlink:title="ant::analysis::physics\l::EtapOmegaG::Sig_t::SharedTree_t">
<polygon fill="white" stroke="black" points="318.5,-23.1495 318.5,-53.1495 493.5,-53.1495 493.5,-23.1495 318.5,-23.1495"/>
<text text-anchor="start" x="326.5" y="-41.1495" font-family="Helvetica,sans-Serif" font-size="10.00">ant::analysis::physics</text>
<text text-anchor="middle" x="406" y="-30.1495" font-family="Helvetica,sans-Serif" font-size="10.00">::EtapOmegaG::Sig_t::SharedTree_t</text>
</a>
</g>
</g>
<!-- Node7&#45;&gt;Node16 -->
<g id="edge20" class="edge"><title>Node7&#45;&gt;Node16</title>
<path fill="none" stroke="midnightblue" d="M45.8792,-190.204C50.7635,-151.081 67.7064,-64.897 124,-28.1495 197.17,19.6145 305.399,-4.30553 363.886,-23.0161"/>
<polygon fill="midnightblue" stroke="midnightblue" points="42.3808,-189.996 44.759,-200.321 49.3383,-190.767 42.3808,-189.996"/>
</g>
<!-- Node8&#45;&gt;Node5 -->
<g id="edge4" class="edge"><title>Node8&#45;&gt;Node5</title>
<path fill="none" stroke="#9a32cd" stroke-dasharray="5,2" d="M278.792,-351.975C346.77,-346.628 451.616,-338.382 514.931,-333.402"/>
<polygon fill="#9a32cd" stroke="#9a32cd" points="278.32,-348.501 268.625,-352.775 278.869,-355.48 278.32,-348.501"/>
<text text-anchor="middle" x="406" y="-351.15" font-family="Helvetica,sans-Serif" font-size="10.00"> MCWeighting</text>
</g>
<!-- Node9&#45;&gt;Node5 -->
<g id="edge6" class="edge"><title>Node9&#45;&gt;Node5</title>
<path fill="none" stroke="#9a32cd" stroke-dasharray="5,2" d="M295.804,-310.016C351.824,-311.689 427.451,-314.744 494,-320.15 500.797,-320.702 507.927,-321.401 514.975,-322.165"/>
<polygon fill="#9a32cd" stroke="#9a32cd" points="295.676,-306.511 285.579,-309.72 295.473,-313.508 295.676,-306.511"/>
<text text-anchor="middle" x="406" y="-323.15" font-family="Helvetica,sans-Serif" font-size="10.00"> Common</text>
</g>
<!-- Node10 -->
<g id="node7" class="node"><title>Node10</title>
<g id="a_node7"><a xlink:href="structant_1_1analysis_1_1physics_1_1_etap_dalitz_1_1_sig_tree__t.html" target="_top" xlink:title="ant::analysis::physics\l::EtapDalitz::SigTree_t">
<polygon fill="white" stroke="black" points="512,-146.15 512,-176.15 628,-176.15 628,-146.15 512,-146.15"/>
<text text-anchor="start" x="520" y="-164.15" font-family="Helvetica,sans-Serif" font-size="10.00">ant::analysis::physics</text>
<text text-anchor="middle" x="570" y="-153.15" font-family="Helvetica,sans-Serif" font-size="10.00">::EtapDalitz::SigTree_t</text>
</a>
</g>
</g>
<!-- Node10&#45;&gt;Node4 -->
<g id="edge8" class="edge"><title>Node10&#45;&gt;Node4</title>
<path fill="none" stroke="#9a32cd" stroke-dasharray="5,2" d="M638.4,-161.15C655.231,-161.15 672.779,-161.15 687.9,-161.15"/>
<polygon fill="#9a32cd" stroke="#9a32cd" points="638.042,-157.65 628.042,-161.15 638.042,-164.65 638.042,-157.65"/>
<text text-anchor="middle" x="658" y="-164.15" font-family="Helvetica,sans-Serif" font-size="10.00"> Tree</text>
</g>
<!-- Node11&#45;&gt;Node10 -->
<g id="edge9" class="edge"><title>Node11&#45;&gt;Node10</title>
<path fill="none" stroke="midnightblue" d="M289.287,-249.446C346.742,-240.702 426.824,-225.424 494,-201.15 511.765,-194.73 530.515,-184.73 544.823,-176.335"/>
<polygon fill="midnightblue" stroke="midnightblue" points="288.565,-246.014 279.19,-250.95 289.597,-252.938 288.565,-246.014"/>
</g>
<!-- Node12&#45;&gt;Node10 -->
<g id="edge11" class="edge"><title>Node12&#45;&gt;Node10</title>
<path fill="none" stroke="midnightblue" d="M283.692,-202.546C340.617,-196.134 422.625,-186.246 494,-175.15 499.759,-174.254 505.754,-173.253 511.733,-172.209"/>
<polygon fill="midnightblue" stroke="midnightblue" points="283.266,-199.072 273.718,-203.663 284.045,-206.028 283.266,-199.072"/>
</g>
<!-- Node13&#45;&gt;Node10 -->
<g id="edge13" class="edge"><title>Node13&#45;&gt;Node10</title>
<path fill="none" stroke="midnightblue" d="M297.165,-161.15C363.328,-161.15 453.71,-161.15 511.728,-161.15"/>
<polygon fill="midnightblue" stroke="midnightblue" points="296.763,-157.65 286.763,-161.15 296.763,-164.65 296.763,-157.65"/>
</g>
<!-- Node14&#45;&gt;Node10 -->
<g id="edge15" class="edge"><title>Node14&#45;&gt;Node10</title>
<path fill="none" stroke="midnightblue" d="M286.286,-122.237C353.176,-131.443 450.68,-144.864 511.936,-153.295"/>
<polygon fill="midnightblue" stroke="midnightblue" points="286.619,-118.75 276.235,-120.853 285.665,-125.684 286.619,-118.75"/>
</g>
<!-- Node15&#45;&gt;Node10 -->
<g id="edge17" class="edge"><title>Node15&#45;&gt;Node10</title>
<path fill="none" stroke="midnightblue" d="M278.355,-68.64C336.143,-78.998 422.178,-97.0837 494,-123.15 510.877,-129.275 528.85,-138.286 542.97,-145.997"/>
<polygon fill="midnightblue" stroke="midnightblue" points="278.716,-65.1498 268.26,-66.8577 277.499,-72.0432 278.716,-65.1498"/>
</g>
<!-- Node16&#45;&gt;Node4 -->
<g id="edge19" class="edge"><title>Node16&#45;&gt;Node4</title>
<path fill="none" stroke="#9a32cd" stroke-dasharray="5,2" d="M455.932,-56.8408C525.596,-83.4517 650.809,-131.281 704.001,-151.6"/>
<polygon fill="#9a32cd" stroke="#9a32cd" points="457.074,-53.5306 446.484,-53.2318 454.576,-60.0698 457.074,-53.5306"/>
<text text-anchor="middle" x="570" y="-124.15" font-family="Helvetica,sans-Serif" font-size="10.00"> Shared</text>
</g>
</g>
</svg>
