<?xml version="1.0" encoding="UTF-8" standalone="no"?>
<!DOCTYPE svg PUBLIC "-//W3C//DTD SVG 1.1//EN"
 "http://www.w3.org/Graphics/SVG/1.1/DTD/svg11.dtd">
<!-- Generated by graphviz version 2.36.0 (20140111.2315)
 -->
<!-- Title: ant::expconfig::detector::Trigger_2007 Pages: 1 -->
<svg width="880pt" height="174pt"
 viewBox="0.00 0.00 880.00 174.25" xmlns="http://www.w3.org/2000/svg" xmlns:xlink="http://www.w3.org/1999/xlink">
<g id="graph0" class="graph" transform="scale(1 1) rotate(0) translate(4 170.255)">
<title>ant::expconfig::detector::Trigger_2007</title>
<polygon fill="white" stroke="none" points="-4,4 -4,-170.255 876,-170.255 876,4 -4,4"/>
<!-- Node4 -->
<g id="node1" class="node"><title>Node4</title>
<polygon fill="#bfbfbf" stroke="black" points="752.5,-103.255 752.5,-133.255 871.5,-133.255 871.5,-103.255 752.5,-103.255"/>
<text text-anchor="start" x="760.5" y="-121.255" font-family="Helvetica,sans-Serif" font-size="10.00">ant::expconfig::detector</text>
<text text-anchor="middle" x="812" y="-110.255" font-family="Helvetica,sans-Serif" font-size="10.00">::Trigger_2007</text>
</g>
<!-- Node5 -->
<g id="node2" class="node"><title>Node5</title>
<g id="a_node2"><a xlink:href="structant_1_1expconfig_1_1detector_1_1_trigger.html" target="_top" xlink:title="ant::expconfig::detector\l::Trigger">
<polygon fill="white" stroke="black" points="594.5,-103.255 594.5,-133.255 713.5,-133.255 713.5,-103.255 594.5,-103.255"/>
<text text-anchor="start" x="602.5" y="-121.255" font-family="Helvetica,sans-Serif" font-size="10.00">ant::expconfig::detector</text>
<text text-anchor="middle" x="654" y="-110.255" font-family="Helvetica,sans-Serif" font-size="10.00">::Trigger</text>
</a>
</g>
</g>
<!-- Node5&#45;&gt;Node4 -->
<g id="edge1" class="edge"><title>Node5&#45;&gt;Node4</title>
<path fill="none" stroke="midnightblue" d="M723.788,-118.255C733.333,-118.255 743.064,-118.255 752.399,-118.255"/>
<polygon fill="midnightblue" stroke="midnightblue" points="723.533,-114.755 713.532,-118.255 723.532,-121.755 723.533,-114.755"/>
</g>
<!-- Node6 -->
<g id="node3" class="node"><title>Node6</title>
<g id="a_node3"><a xlink:href="structant_1_1_detector__t.html" target="_top" xlink:title="The Detector_t struct is the minimal base class for all detectors. ">
<polygon fill="white" stroke="black" points="273,-146.755 273,-165.755 355,-165.755 355,-146.755 273,-146.755"/>
<text text-anchor="middle" x="314" y="-153.755" font-family="Helvetica,sans-Serif" font-size="10.00">ant::Detector_t</text>
</a>
</g>
</g>
<!-- Node6&#45;&gt;Node5 -->
<g id="edge2" class="edge"><title>Node6&#45;&gt;Node5</title>
<path fill="none" stroke="midnightblue" d="M365.459,-152.94C418.141,-149.169 503.089,-142.215 576,-132.255 581.923,-131.445 588.085,-130.501 594.229,-129.491"/>
<polygon fill="midnightblue" stroke="midnightblue" points="365.095,-149.457 355.366,-153.651 365.588,-156.439 365.095,-149.457"/>
</g>
<!-- Node7 -->
<g id="node4" class="node"><title>Node7</title>
<g id="a_node4"><a xlink:href="classant_1_1_unpacker_acqu_config.html" target="_top" xlink:title="ant::UnpackerAcquConfig">
<polygon fill="white" stroke="black" points="249.5,-108.755 249.5,-127.755 378.5,-127.755 378.5,-108.755 249.5,-108.755"/>
<text text-anchor="middle" x="314" y="-115.755" font-family="Helvetica,sans-Serif" font-size="10.00">ant::UnpackerAcquConfig</text>
</a>
</g>
</g>
<!-- Node7&#45;&gt;Node5 -->
<g id="edge3" class="edge"><title>Node7&#45;&gt;Node5</title>
<path fill="none" stroke="midnightblue" d="M388.63,-118.255C450.296,-118.255 537.148,-118.255 594.234,-118.255"/>
<polygon fill="midnightblue" stroke="midnightblue" points="388.575,-114.755 378.575,-118.255 388.575,-121.755 388.575,-114.755"/>
</g>
<!-- Node8 -->
<g id="node5" class="node"><title>Node8</title>
<g id="a_node5"><a xlink:href="structant_1_1expconfig_1_1detector_1_1_trigger_1_1_reference_timing_hit_mapping__t.html" target="_top" xlink:title="ant::expconfig::detector\l::Trigger::ReferenceTimingHitMapping_t">
<polygon fill="white" stroke="black" points="218.5,-0.254646 218.5,-30.2546 409.5,-30.2546 409.5,-0.254646 218.5,-0.254646"/>
<text text-anchor="start" x="226.5" y="-18.2546" font-family="Helvetica,sans-Serif" font-size="10.00">ant::expconfig::detector</text>
<text text-anchor="middle" x="314" y="-7.25465" font-family="Helvetica,sans-Serif" font-size="10.00">::Trigger::ReferenceTimingHitMapping_t</text>
</a>
</g>
</g>
<!-- Node8&#45;&gt;Node5 -->
<g id="edge4" class="edge"><title>Node8&#45;&gt;Node5</title>
<path fill="none" stroke="#9a32cd" stroke-dasharray="5,2" d="M419.664,-0.733932C469.387,1.55243 528.239,-2.70921 576,-26.2546 609.627,-42.8322 634.033,-81.581 645.561,-103.127"/>
<polygon fill="#9a32cd" stroke="#9a32cd" points="419.315,2.75219 409.524,-1.29555 419.702,-4.23709 419.315,2.75219"/>
<text text-anchor="middle" x="502" y="-106.255" font-family="Helvetica,sans-Serif" font-size="10.00"> Reference_CATCH_TaggerCrate</text>
<text text-anchor="start" x="428" y="-95.2546" font-family="Helvetica,sans-Serif" font-size="10.00">Reference_V1190_TaggerTDC3</text>
<text text-anchor="middle" x="502" y="-84.2546" font-family="Helvetica,sans-Serif" font-size="10.00">_1</text>
<text text-anchor="start" x="428" y="-73.2546" font-family="Helvetica,sans-Serif" font-size="10.00">Reference_V1190_TaggerTDC3</text>
<text text-anchor="middle" x="502" y="-62.2546" font-family="Helvetica,sans-Serif" font-size="10.00">_2</text>
<text text-anchor="middle" x="502" y="-51.2546" font-family="Helvetica,sans-Serif" font-size="10.00">Reference_CATCH_CBCrate</text>
<text text-anchor="middle" x="502" y="-40.2546" font-family="Helvetica,sans-Serif" font-size="10.00">Reference_V1190_TaggerTDC1</text>
<text text-anchor="middle" x="502" y="-29.2546" font-family="Helvetica,sans-Serif" font-size="10.00">Reference_V1190_TaggerTDC2</text>
</g>
<!-- Node9 -->
<g id="node6" class="node"><title>Node9</title>
<g id="a_node6"><a xlink:href="structant_1_1_logical_channel__t.html" target="_top" xlink:title="The LogicalChannel_t struct uniquely identifies detector element within setup. ">
<polygon fill="white" stroke="black" points="0.5,-5.75465 0.5,-24.7546 111.5,-24.7546 111.5,-5.75465 0.5,-5.75465"/>
<text text-anchor="middle" x="56" y="-12.7546" font-family="Helvetica,sans-Serif" font-size="10.00">ant::LogicalChannel_t</text>
</a>
</g>
</g>
<!-- Node9&#45;&gt;Node8 -->
<g id="edge5" class="edge"><title>Node9&#45;&gt;Node8</title>
<path fill="none" stroke="#9a32cd" stroke-dasharray="5,2" d="M121.707,-15.2546C151.008,-15.2546 186.221,-15.2546 218.406,-15.2546"/>
<polygon fill="#9a32cd" stroke="#9a32cd" points="121.604,-11.7547 111.604,-15.2546 121.604,-18.7547 121.604,-11.7547"/>
<text text-anchor="middle" x="165" y="-18.2546" font-family="Helvetica,sans-Serif" font-size="10.00"> LogicalChannel</text>
</g>
</g>
</svg>
