<?xml version="1.0" encoding="UTF-8" standalone="no"?>
<!DOCTYPE svg PUBLIC "-//W3C//DTD SVG 1.1//EN"
 "http://www.w3.org/Graphics/SVG/1.1/DTD/svg11.dtd">
<!-- Generated by graphviz version 2.36.0 (20140111.2315)
 -->
<!-- Title: ant::analysis::physics::EtapOmegaG_simple Pages: 1 -->
<svg width="894pt" height="273pt"
 viewBox="0.00 0.00 894.00 273.00" xmlns="http://www.w3.org/2000/svg" xmlns:xlink="http://www.w3.org/1999/xlink">
<g id="graph0" class="graph" transform="scale(1 1) rotate(0) translate(4 269)">
<title>ant::analysis::physics::EtapOmegaG_simple</title>
<polygon fill="white" stroke="none" points="-4,4 -4,-269 890,-269 890,4 -4,4"/>
<!-- Node2 -->
<g id="node1" class="node"><title>Node2</title>
<polygon fill="#bfbfbf" stroke="black" points="770,-94 770,-124 886,-124 886,-94 770,-94"/>
<text text-anchor="start" x="778" y="-112" font-family="Helvetica,sans-Serif" font-size="10.00">ant::analysis::physics</text>
<text text-anchor="middle" x="828" y="-101" font-family="Helvetica,sans-Serif" font-size="10.00">::EtapOmegaG_simple</text>
</g>
<!-- Node3 -->
<g id="node2" class="node"><title>Node3</title>
<g id="a_node2"><a xlink:href="classant_1_1analysis_1_1_physics.html" target="_top" xlink:title="ant::analysis::Physics">
<polygon fill="white" stroke="black" points="538.5,-219.5 538.5,-238.5 651.5,-238.5 651.5,-219.5 538.5,-219.5"/>
<text text-anchor="middle" x="595" y="-226.5" font-family="Helvetica,sans-Serif" font-size="10.00">ant::analysis::Physics</text>
</a>
</g>
</g>
<!-- Node3&#45;&gt;Node2 -->
<g id="edge1" class="edge"><title>Node3&#45;&gt;Node2</title>
<path fill="none" stroke="midnightblue" d="M623.488,-214.721C667.473,-191.871 753.276,-147.298 798.124,-124"/>
<polygon fill="midnightblue" stroke="midnightblue" points="621.774,-211.667 614.513,-219.383 625.001,-217.879 621.774,-211.667"/>
</g>
<!-- Node4 -->
<g id="node3" class="node"><title>Node4</title>
<g id="a_node3"><a xlink:href="classant_1_1analysis_1_1_histogram_factory.html" target="_top" xlink:title="ant::analysis::Histogram\lFactory">
<polygon fill="white" stroke="black" points="319.5,-235 319.5,-265 442.5,-265 442.5,-235 319.5,-235"/>
<text text-anchor="start" x="327.5" y="-253" font-family="Helvetica,sans-Serif" font-size="10.00">ant::analysis::Histogram</text>
<text text-anchor="middle" x="381" y="-242" font-family="Helvetica,sans-Serif" font-size="10.00">Factory</text>
</a>
</g>
</g>
<!-- Node4&#45;&gt;Node3 -->
<g id="edge2" class="edge"><title>Node4&#45;&gt;Node3</title>
<path fill="none" stroke="#9a32cd" stroke-dasharray="5,2" d="M452.825,-242.984C480.665,-240.227 512.155,-237.107 538.319,-234.516"/>
<polygon fill="#9a32cd" stroke="#9a32cd" points="452.357,-239.513 442.751,-243.982 453.047,-246.479 452.357,-239.513"/>
<text text-anchor="middle" x="483" y="-245" font-family="Helvetica,sans-Serif" font-size="10.00"> HistFac</text>
</g>
<!-- Node5 -->
<g id="node4" class="node"><title>Node5</title>
<g id="a_node4"><a xlink:href="classant_1_1analysis_1_1utils_1_1_kin_fitter.html" target="_top" xlink:title="ant::analysis::utils\l::KinFitter">
<polygon fill="white" stroke="black" points="547,-119 547,-149 643,-149 643,-119 547,-119"/>
<text text-anchor="start" x="555" y="-137" font-family="Helvetica,sans-Serif" font-size="10.00">ant::analysis::utils</text>
<text text-anchor="middle" x="595" y="-126" font-family="Helvetica,sans-Serif" font-size="10.00">::KinFitter</text>
</a>
</g>
</g>
<!-- Node5&#45;&gt;Node2 -->
<g id="edge3" class="edge"><title>Node5&#45;&gt;Node2</title>
<path fill="none" stroke="#9a32cd" stroke-dasharray="5,2" d="M653.239,-127.805C688.78,-123.959 734.292,-119.033 769.821,-115.188"/>
<polygon fill="#9a32cd" stroke="#9a32cd" points="652.59,-124.355 643.025,-128.911 653.343,-131.314 652.59,-124.355"/>
<text text-anchor="middle" x="719" y="-127" font-family="Helvetica,sans-Serif" font-size="10.00"> kinfitter</text>
</g>
<!-- Node6 -->
<g id="node5" class="node"><title>Node6</title>
<g id="a_node5"><a xlink:href="classant_1_1analysis_1_1utils_1_1_fitter.html" target="_top" xlink:title="ant::analysis::utils\l::Fitter">
<polygon fill="white" stroke="black" points="333,-186 333,-216 429,-216 429,-186 333,-186"/>
<text text-anchor="start" x="341" y="-204" font-family="Helvetica,sans-Serif" font-size="10.00">ant::analysis::utils</text>
<text text-anchor="middle" x="381" y="-193" font-family="Helvetica,sans-Serif" font-size="10.00">::Fitter</text>
</a>
</g>
</g>
<!-- Node6&#45;&gt;Node5 -->
<g id="edge4" class="edge"><title>Node6&#45;&gt;Node5</title>
<path fill="none" stroke="midnightblue" d="M438.772,-183.058C472.51,-172.395 514.8,-159.03 546.716,-148.944"/>
<polygon fill="midnightblue" stroke="midnightblue" points="437.53,-179.78 429.05,-186.131 439.64,-186.454 437.53,-179.78"/>
</g>
<!-- Node7 -->
<g id="node6" class="node"><title>Node7</title>
<g id="a_node6"><a xlink:href="structant_1_1analysis_1_1utils_1_1_kin_fitter_1_1_target__t.html" target="_top" xlink:title="ant::analysis::utils\l::KinFitter::Target_t">
<polygon fill="white" stroke="black" points="330.5,-137 330.5,-167 431.5,-167 431.5,-137 330.5,-137"/>
<text text-anchor="start" x="338.5" y="-155" font-family="Helvetica,sans-Serif" font-size="10.00">ant::analysis::utils</text>
<text text-anchor="middle" x="381" y="-144" font-family="Helvetica,sans-Serif" font-size="10.00">::KinFitter::Target_t</text>
</a>
</g>
</g>
<!-- Node7&#45;&gt;Node5 -->
<g id="edge5" class="edge"><title>Node7&#45;&gt;Node5</title>
<path fill="none" stroke="#9a32cd" stroke-dasharray="5,2" d="M441.761,-146.926C475.007,-144.103 515.801,-140.64 546.79,-138.008"/>
<polygon fill="#9a32cd" stroke="#9a32cd" points="441.373,-143.446 431.705,-147.78 441.965,-150.421 441.373,-143.446"/>
<text text-anchor="middle" x="483" y="-149" font-family="Helvetica,sans-Serif" font-size="10.00"> Target</text>
</g>
<!-- Node8 -->
<g id="node7" class="node"><title>Node8</title>
<g id="a_node7"><a xlink:href="structant_1_1analysis_1_1utils_1_1_kin_fitter_1_1_beam_e__t.html" target="_top" xlink:title="ant::analysis::utils\l::KinFitter::BeamE_t">
<polygon fill="white" stroke="black" points="328,-88 328,-118 434,-118 434,-88 328,-88"/>
<text text-anchor="start" x="336" y="-106" font-family="Helvetica,sans-Serif" font-size="10.00">ant::analysis::utils</text>
<text text-anchor="middle" x="381" y="-95" font-family="Helvetica,sans-Serif" font-size="10.00">::KinFitter::BeamE_t</text>
</a>
</g>
</g>
<!-- Node8&#45;&gt;Node5 -->
<g id="edge6" class="edge"><title>Node8&#45;&gt;Node5</title>
<path fill="none" stroke="#9a32cd" stroke-dasharray="5,2" d="M444.077,-112.077C476.881,-116.874 516.504,-122.668 546.776,-127.095"/>
<polygon fill="#9a32cd" stroke="#9a32cd" points="444.534,-108.607 434.133,-110.623 443.521,-115.533 444.534,-108.607"/>
<text text-anchor="middle" x="483" y="-124" font-family="Helvetica,sans-Serif" font-size="10.00"> BeamE</text>
</g>
<!-- Node9 -->
<g id="node8" class="node"><title>Node9</title>
<g id="a_node8"><a xlink:href="structant_1_1analysis_1_1utils_1_1_fitter_1_1_v___s___p__t.html" target="_top" xlink:title="ant::analysis::utils\l::Fitter::V_S_P_t">
<polygon fill="white" stroke="black" points="180,-88 180,-118 276,-118 276,-88 180,-88"/>
<text text-anchor="start" x="188" y="-106" font-family="Helvetica,sans-Serif" font-size="10.00">ant::analysis::utils</text>
<text text-anchor="middle" x="228" y="-95" font-family="Helvetica,sans-Serif" font-size="10.00">::Fitter::V_S_P_t</text>
</a>
</g>
</g>
<!-- Node9&#45;&gt;Node8 -->
<g id="edge7" class="edge"><title>Node9&#45;&gt;Node8</title>
<path fill="none" stroke="midnightblue" d="M286.547,-103C300.115,-103 314.504,-103 327.82,-103"/>
<polygon fill="midnightblue" stroke="midnightblue" points="286.363,-99.5001 276.363,-103 286.363,-106.5 286.363,-99.5001"/>
</g>
<!-- Node10 -->
<g id="node9" class="node"><title>Node10</title>
<g id="a_node9"><a xlink:href="structant_1_1analysis_1_1utils_1_1_fitter_1_1_v___s__t.html" target="_top" xlink:title="ant::analysis::utils\l::Fitter::V_S_t">
<polygon fill="white" stroke="black" points="0,-88 0,-118 96,-118 96,-88 0,-88"/>
<text text-anchor="start" x="8" y="-106" font-family="Helvetica,sans-Serif" font-size="10.00">ant::analysis::utils</text>
<text text-anchor="middle" x="48" y="-95" font-family="Helvetica,sans-Serif" font-size="10.00">::Fitter::V_S_t</text>
</a>
</g>
</g>
<!-- Node10&#45;&gt;Node9 -->
<g id="edge8" class="edge"><title>Node10&#45;&gt;Node9</title>
<path fill="none" stroke="midnightblue" d="M106.508,-103C130.216,-103 157.348,-103 179.855,-103"/>
<polygon fill="midnightblue" stroke="midnightblue" points="106.233,-99.5001 96.2334,-103 106.233,-106.5 106.233,-99.5001"/>
</g>
<!-- Node11 -->
<g id="node10" class="node"><title>Node11</title>
<polygon fill="white" stroke="#bfbfbf" points="318.5,-49.5 318.5,-68.5 443.5,-68.5 443.5,-49.5 318.5,-49.5"/>
<text text-anchor="middle" x="381" y="-56.5" font-family="Helvetica,sans-Serif" font-size="10.00">std::vector&lt; FitParticle &gt;</text>
</g>
<!-- Node11&#45;&gt;Node5 -->
<g id="edge9" class="edge"><title>Node11&#45;&gt;Node5</title>
<path fill="none" stroke="#9a32cd" stroke-dasharray="5,2" d="M423.964,-71.523C430.684,-73.6253 437.548,-75.8301 444,-78 470.921,-87.0532 477.924,-88.7424 504,-100 512.212,-103.545 513.758,-105.526 522,-109 530.169,-112.444 538.994,-115.797 547.572,-118.872"/>
<polygon fill="#9a32cd" stroke="#9a32cd" points="424.872,-68.1405 414.285,-68.5323 422.806,-74.8286 424.872,-68.1405"/>
<text text-anchor="middle" x="483" y="-103" font-family="Helvetica,sans-Serif" font-size="10.00"> Photons</text>
</g>
<!-- Node12 -->
<g id="node11" class="node"><title>Node12</title>
<g id="a_node11"><a xlink:href="classant_1_1analysis_1_1_prompt_random_1_1_switch.html" target="_top" xlink:title="ant::analysis::PromptRandom\l::Switch">
<polygon fill="white" stroke="black" points="522,-70 522,-100 668,-100 668,-70 522,-70"/>
<text text-anchor="start" x="530" y="-88" font-family="Helvetica,sans-Serif" font-size="10.00">ant::analysis::PromptRandom</text>
<text text-anchor="middle" x="595" y="-77" font-family="Helvetica,sans-Serif" font-size="10.00">::Switch</text>
</a>
</g>
</g>
<!-- Node12&#45;&gt;Node2 -->
<g id="edge10" class="edge"><title>Node12&#45;&gt;Node2</title>
<path fill="none" stroke="#9a32cd" stroke-dasharray="5,2" d="M678.4,-90.0709C702.189,-91.8779 728.161,-94.1807 752,-97 757.762,-97.6814 763.759,-98.4831 769.739,-99.3435"/>
<polygon fill="#9a32cd" stroke="#9a32cd" points="678.581,-86.5749 668.35,-89.3268 678.064,-93.5558 678.581,-86.5749"/>
<text text-anchor="middle" x="719" y="-100" font-family="Helvetica,sans-Serif" font-size="10.00"> promptrandom</text>
</g>
<!-- Node13 -->
<g id="node12" class="node"><title>Node13</title>
<g id="a_node12"><a xlink:href="classant_1_1_piecewise_interval.html" target="_top" xlink:title="ant::PiecewiseInterval\l\&lt; double \&gt;">
<polygon fill="white" stroke="black" points="324.5,-0 324.5,-30 437.5,-30 437.5,-0 324.5,-0"/>
<text text-anchor="start" x="332.5" y="-18" font-family="Helvetica,sans-Serif" font-size="10.00">ant::PiecewiseInterval</text>
<text text-anchor="middle" x="381" y="-7" font-family="Helvetica,sans-Serif" font-size="10.00">&lt; double &gt;</text>
</a>
</g>
</g>
<!-- Node13&#45;&gt;Node12 -->
<g id="edge11" class="edge"><title>Node13&#45;&gt;Node12</title>
<path fill="none" stroke="#9a32cd" stroke-dasharray="5,2" d="M447.673,-2.26194C467.209,-1.81293 487.722,-4.97462 504,-16 521.494,-27.8487 506.661,-45.4695 522,-60 526.035,-63.822 530.683,-67.0628 535.636,-69.8102"/>
<polygon fill="#9a32cd" stroke="#9a32cd" points="447.372,1.22703 437.573,-2.80334 447.747,-5.76293 447.372,1.22703"/>
<text text-anchor="middle" x="483" y="-30" font-family="Helvetica,sans-Serif" font-size="10.00"> promptw</text>
<text text-anchor="middle" x="483" y="-19" font-family="Helvetica,sans-Serif" font-size="10.00">randomw</text>
</g>
<!-- Node14 -->
<g id="node13" class="node"><title>Node14</title>
<g id="a_node13"><a xlink:title="STL class. ">
<polygon fill="white" stroke="#bfbfbf" points="176,-0 176,-30 280,-30 280,-0 176,-0"/>
<text text-anchor="start" x="184" y="-18" font-family="Helvetica,sans-Serif" font-size="10.00">std::vector&lt; interval</text>
<text text-anchor="middle" x="228" y="-7" font-family="Helvetica,sans-Serif" font-size="10.00">&lt; double &gt; &gt;</text>
</a>
</g>
</g>
<!-- Node14&#45;&gt;Node13 -->
<g id="edge12" class="edge"><title>Node14&#45;&gt;Node13</title>
<path fill="none" stroke="midnightblue" d="M290.291,-15C301.529,-15 313.204,-15 324.269,-15"/>
<polygon fill="midnightblue" stroke="midnightblue" points="290.122,-11.5001 280.122,-15 290.122,-18.5001 290.122,-11.5001"/>
</g>
<!-- Node15 -->
<g id="node14" class="node"><title>Node15</title>
<polygon fill="white" stroke="#bfbfbf" points="33.5,-5.5 33.5,-24.5 62.5,-24.5 62.5,-5.5 33.5,-5.5"/>
<text text-anchor="middle" x="48" y="-12.5" font-family="Helvetica,sans-Serif" font-size="10.00">T</text>
</g>
<!-- Node15&#45;&gt;Node14 -->
<g id="edge13" class="edge"><title>Node15&#45;&gt;Node14</title>
<path fill="none" stroke="#9a32cd" stroke-dasharray="5,2" d="M72.7849,-15C98.9344,-15 141.733,-15 175.617,-15"/>
<polygon fill="#9a32cd" stroke="#9a32cd" points="72.6718,-11.5001 62.6718,-15 72.6718,-18.5001 72.6718,-11.5001"/>
<text text-anchor="middle" x="136" y="-18" font-family="Helvetica,sans-Serif" font-size="10.00"> elements</text>
</g>
<!-- Node16 -->
<g id="node15" class="node"><title>Node16</title>
<g id="a_node15"><a xlink:href="classant_1_1analysis_1_1utils_1_1_trigger_simulation.html" target="_top" xlink:title="ant::analysis::utils\l::TriggerSimulation">
<polygon fill="white" stroke="black" points="546,-21 546,-51 644,-51 644,-21 546,-21"/>
<text text-anchor="start" x="554" y="-39" font-family="Helvetica,sans-Serif" font-size="10.00">ant::analysis::utils</text>
<text text-anchor="middle" x="595" y="-28" font-family="Helvetica,sans-Serif" font-size="10.00">::TriggerSimulation</text>
</a>
</g>
</g>
<!-- Node16&#45;&gt;Node2 -->
<g id="edge14" class="edge"><title>Node16&#45;&gt;Node2</title>
<path fill="none" stroke="#9a32cd" stroke-dasharray="5,2" d="M653.834,-48.4473C683.522,-55.4339 720.067,-64.9638 752,-76 766.655,-81.0649 782.427,-87.7993 795.708,-93.8633"/>
<polygon fill="#9a32cd" stroke="#9a32cd" points="654.578,-45.027 644.045,-46.177 652.996,-51.846 654.578,-45.027"/>
<text text-anchor="middle" x="719" y="-79" font-family="Helvetica,sans-Serif" font-size="10.00"> triggersimu</text>
</g>
</g>
</svg>
