<?xml version="1.0" encoding="UTF-8" standalone="no"?>
<!DOCTYPE svg PUBLIC "-//W3C//DTD SVG 1.1//EN"
 "http://www.w3.org/Graphics/SVG/1.1/DTD/svg11.dtd">
<!-- Generated by graphviz version 2.36.0 (20140111.2315)
 -->
<!-- Title: ant::expconfig::detector::Trigger_2014 Pages: 1 -->
<svg width="950pt" height="330pt"
 viewBox="0.00 0.00 950.00 330.00" xmlns="http://www.w3.org/2000/svg" xmlns:xlink="http://www.w3.org/1999/xlink">
<g id="graph0" class="graph" transform="scale(1 1) rotate(0) translate(4 326)">
<title>ant::expconfig::detector::Trigger_2014</title>
<polygon fill="white" stroke="none" points="-4,4 -4,-326 946,-326 946,4 -4,4"/>
<!-- Node6 -->
<g id="node1" class="node"><title>Node6</title>
<polygon fill="#bfbfbf" stroke="black" points="822.5,-92 822.5,-122 941.5,-122 941.5,-92 822.5,-92"/>
<text text-anchor="start" x="830.5" y="-110" font-family="Helvetica,sans-Serif" font-size="10.00">ant::expconfig::detector</text>
<text text-anchor="middle" x="882" y="-99" font-family="Helvetica,sans-Serif" font-size="10.00">::Trigger_2014</text>
</g>
<!-- Node7 -->
<g id="node2" class="node"><title>Node7</title>
<g id="a_node2"><a xlink:href="structant_1_1expconfig_1_1detector_1_1_trigger.html" target="_top" xlink:title="ant::expconfig::detector\l::Trigger">
<polygon fill="white" stroke="black" points="594.5,-211 594.5,-241 713.5,-241 713.5,-211 594.5,-211"/>
<text text-anchor="start" x="602.5" y="-229" font-family="Helvetica,sans-Serif" font-size="10.00">ant::expconfig::detector</text>
<text text-anchor="middle" x="654" y="-218" font-family="Helvetica,sans-Serif" font-size="10.00">::Trigger</text>
</a>
</g>
</g>
<!-- Node7&#45;&gt;Node6 -->
<g id="edge1" class="edge"><title>Node7&#45;&gt;Node6</title>
<path fill="none" stroke="midnightblue" d="M692.747,-206.125C737.678,-182.466 811.711,-143.484 852.253,-122.137"/>
<polygon fill="midnightblue" stroke="midnightblue" points="690.841,-203.173 683.623,-210.929 694.102,-209.366 690.841,-203.173"/>
</g>
<!-- Node8 -->
<g id="node3" class="node"><title>Node8</title>
<g id="a_node3"><a xlink:href="structant_1_1_detector__t.html" target="_top" xlink:title="The Detector_t struct is the minimal base class for all detectors. ">
<polygon fill="white" stroke="black" points="273,-302.5 273,-321.5 355,-321.5 355,-302.5 273,-302.5"/>
<text text-anchor="middle" x="314" y="-309.5" font-family="Helvetica,sans-Serif" font-size="10.00">ant::Detector_t</text>
</a>
</g>
</g>
<!-- Node8&#45;&gt;Node7 -->
<g id="edge2" class="edge"><title>Node8&#45;&gt;Node7</title>
<path fill="none" stroke="midnightblue" d="M365.422,-313.687C419.363,-313.804 506.532,-309.074 576,-282 599.718,-272.756 622.765,-254.369 637.365,-241.184"/>
<polygon fill="midnightblue" stroke="midnightblue" points="365.448,-310.187 355.42,-313.608 365.393,-317.187 365.448,-310.187"/>
</g>
<!-- Node9 -->
<g id="node4" class="node"><title>Node9</title>
<g id="a_node4"><a xlink:href="classant_1_1_unpacker_acqu_config.html" target="_top" xlink:title="ant::UnpackerAcquConfig">
<polygon fill="white" stroke="black" points="249.5,-264.5 249.5,-283.5 378.5,-283.5 378.5,-264.5 249.5,-264.5"/>
<text text-anchor="middle" x="314" y="-271.5" font-family="Helvetica,sans-Serif" font-size="10.00">ant::UnpackerAcquConfig</text>
</a>
</g>
</g>
<!-- Node9&#45;&gt;Node7 -->
<g id="edge3" class="edge"><title>Node9&#45;&gt;Node7</title>
<path fill="none" stroke="midnightblue" d="M388.967,-277.08C441.786,-277.582 514.144,-274.79 576,-260 593.055,-255.922 611.04,-248.196 625.336,-241.139"/>
<polygon fill="midnightblue" stroke="midnightblue" points="388.719,-273.576 378.672,-276.938 388.623,-280.576 388.719,-273.576"/>
</g>
<!-- Node10 -->
<g id="node5" class="node"><title>Node10</title>
<g id="a_node5"><a xlink:href="structant_1_1expconfig_1_1detector_1_1_trigger_1_1_reference_timing_hit_mapping__t.html" target="_top" xlink:title="ant::expconfig::detector\l::Trigger::ReferenceTimingHitMapping_t">
<polygon fill="white" stroke="black" points="218.5,-164 218.5,-194 409.5,-194 409.5,-164 218.5,-164"/>
<text text-anchor="start" x="226.5" y="-182" font-family="Helvetica,sans-Serif" font-size="10.00">ant::expconfig::detector</text>
<text text-anchor="middle" x="314" y="-171" font-family="Helvetica,sans-Serif" font-size="10.00">::Trigger::ReferenceTimingHitMapping_t</text>
</a>
</g>
</g>
<!-- Node10&#45;&gt;Node7 -->
<g id="edge4" class="edge"><title>Node10&#45;&gt;Node7</title>
<path fill="none" stroke="#9a32cd" stroke-dasharray="5,2" d="M401.79,-162.666C453.539,-156.337 519.874,-154.281 576,-172 600.134,-179.619 623.271,-197.808 637.771,-210.974"/>
<polygon fill="#9a32cd" stroke="#9a32cd" points="401.108,-159.226 391.642,-163.985 402.01,-166.167 401.108,-159.226"/>
<text text-anchor="middle" x="502" y="-252" font-family="Helvetica,sans-Serif" font-size="10.00"> Reference_CATCH_TaggerCrate</text>
<text text-anchor="start" x="428" y="-241" font-family="Helvetica,sans-Serif" font-size="10.00">Reference_V1190_TaggerTDC3</text>
<text text-anchor="middle" x="502" y="-230" font-family="Helvetica,sans-Serif" font-size="10.00">_1</text>
<text text-anchor="start" x="428" y="-219" font-family="Helvetica,sans-Serif" font-size="10.00">Reference_V1190_TaggerTDC3</text>
<text text-anchor="middle" x="502" y="-208" font-family="Helvetica,sans-Serif" font-size="10.00">_2</text>
<text text-anchor="middle" x="502" y="-197" font-family="Helvetica,sans-Serif" font-size="10.00">Reference_CATCH_CBCrate</text>
<text text-anchor="middle" x="502" y="-186" font-family="Helvetica,sans-Serif" font-size="10.00">Reference_V1190_TaggerTDC1</text>
<text text-anchor="middle" x="502" y="-175" font-family="Helvetica,sans-Serif" font-size="10.00">Reference_V1190_TaggerTDC2</text>
</g>
<!-- Node11 -->
<g id="node6" class="node"><title>Node11</title>
<g id="a_node6"><a xlink:href="structant_1_1_logical_channel__t.html" target="_top" xlink:title="The LogicalChannel_t struct uniquely identifies detector element within setup. ">
<polygon fill="white" stroke="black" points="0.5,-169.5 0.5,-188.5 111.5,-188.5 111.5,-169.5 0.5,-169.5"/>
<text text-anchor="middle" x="56" y="-176.5" font-family="Helvetica,sans-Serif" font-size="10.00">ant::LogicalChannel_t</text>
</a>
</g>
</g>
<!-- Node11&#45;&gt;Node10 -->
<g id="edge5" class="edge"><title>Node11&#45;&gt;Node10</title>
<path fill="none" stroke="#9a32cd" stroke-dasharray="5,2" d="M121.707,-179C151.008,-179 186.221,-179 218.406,-179"/>
<polygon fill="#9a32cd" stroke="#9a32cd" points="121.604,-175.5 111.604,-179 121.604,-182.5 121.604,-175.5"/>
<text text-anchor="middle" x="165" y="-182" font-family="Helvetica,sans-Serif" font-size="10.00"> LogicalChannel</text>
</g>
<!-- Node12 -->
<g id="node7" class="node"><title>Node12</title>
<g id="a_node7"><a xlink:href="structant_1_1_reconstruct_hook_1_1_detector_read_hits.html" target="_top" xlink:title="The DetectorReadHits struct instances are applied before hit matching. ">
<polygon fill="white" stroke="black" points="597.5,-115 597.5,-145 710.5,-145 710.5,-115 597.5,-115"/>
<text text-anchor="start" x="605.5" y="-133" font-family="Helvetica,sans-Serif" font-size="10.00">ant::ReconstructHook</text>
<text text-anchor="middle" x="654" y="-122" font-family="Helvetica,sans-Serif" font-size="10.00">::DetectorReadHits</text>
</a>
</g>
</g>
<!-- Node12&#45;&gt;Node6 -->
<g id="edge6" class="edge"><title>Node12&#45;&gt;Node6</title>
<path fill="none" stroke="midnightblue" d="M720.784,-123.305C752.951,-120.032 791.343,-116.124 822.48,-112.956"/>
<polygon fill="midnightblue" stroke="midnightblue" points="720.169,-119.85 710.575,-124.344 720.878,-126.814 720.169,-119.85"/>
</g>
<!-- Node13 -->
<g id="node8" class="node"><title>Node13</title>
<g id="a_node8"><a xlink:href="structant_1_1_reconstruct_hook_1_1_base.html" target="_top" xlink:title="The Base struct just defines some useful types. ">
<polygon fill="white" stroke="black" points="257.5,-115 257.5,-145 370.5,-145 370.5,-115 257.5,-115"/>
<text text-anchor="start" x="265.5" y="-133" font-family="Helvetica,sans-Serif" font-size="10.00">ant::ReconstructHook</text>
<text text-anchor="middle" x="314" y="-122" font-family="Helvetica,sans-Serif" font-size="10.00">::Base</text>
</a>
</g>
</g>
<!-- Node13&#45;&gt;Node12 -->
<g id="edge7" class="edge"><title>Node13&#45;&gt;Node12</title>
<path fill="none" stroke="midnightblue" d="M381.046,-130C444.101,-130 538.049,-130 597.384,-130"/>
<polygon fill="midnightblue" stroke="midnightblue" points="380.814,-126.5 370.814,-130 380.814,-133.5 380.814,-126.5"/>
</g>
<!-- Node14 -->
<g id="node9" class="node"><title>Node14</title>
<g id="a_node9"><a xlink:title="STL class. ">
<polygon fill="white" stroke="#bfbfbf" points="608,-76.5 608,-95.5 700,-95.5 700,-76.5 608,-76.5"/>
<text text-anchor="middle" x="654" y="-83.5" font-family="Helvetica,sans-Serif" font-size="10.00">std::map&lt; K, T &gt;</text>
</a>
</g>
</g>
<!-- Node14&#45;&gt;Node6 -->
<g id="edge8" class="edge"><title>Node14&#45;&gt;Node6</title>
<path fill="none" stroke="#9a32cd" stroke-dasharray="5,2" d="M710.389,-91.1468C744.291,-94.297 787.639,-98.3248 822.156,-101.532"/>
<polygon fill="#9a32cd" stroke="#9a32cd" points="710.472,-87.6395 700.191,-90.1992 709.825,-94.6095 710.472,-87.6395"/>
<text text-anchor="middle" x="768" y="-103" font-family="Helvetica,sans-Serif" font-size="10.00"> scaler_mapping</text>
</g>
<!-- Node15 -->
<g id="node10" class="node"><title>Node15</title>
<polygon fill="white" stroke="#bfbfbf" points="299.5,-76.5 299.5,-95.5 328.5,-95.5 328.5,-76.5 299.5,-76.5"/>
<text text-anchor="middle" x="314" y="-83.5" font-family="Helvetica,sans-Serif" font-size="10.00">K</text>
</g>
<!-- Node15&#45;&gt;Node14 -->
<g id="edge9" class="edge"><title>Node15&#45;&gt;Node14</title>
<path fill="none" stroke="#9a32cd" stroke-dasharray="5,2" d="M339.005,-86C395.059,-86 535.295,-86 607.883,-86"/>
<polygon fill="#9a32cd" stroke="#9a32cd" points="338.669,-82.5001 328.669,-86 338.669,-89.5001 338.669,-82.5001"/>
<text text-anchor="middle" x="502" y="-89" font-family="Helvetica,sans-Serif" font-size="10.00"> keys</text>
</g>
<!-- Node16 -->
<g id="node11" class="node"><title>Node16</title>
<polygon fill="white" stroke="#bfbfbf" points="299.5,-38.5 299.5,-57.5 328.5,-57.5 328.5,-38.5 299.5,-38.5"/>
<text text-anchor="middle" x="314" y="-45.5" font-family="Helvetica,sans-Serif" font-size="10.00">T</text>
</g>
<!-- Node16&#45;&gt;Node14 -->
<g id="edge10" class="edge"><title>Node16&#45;&gt;Node14</title>
<path fill="none" stroke="#9a32cd" stroke-dasharray="5,2" d="M338.789,-49.2618C384.781,-51.8858 489.033,-58.7315 576,-71 586.519,-72.4839 597.776,-74.4561 608.345,-76.4812"/>
<polygon fill="#9a32cd" stroke="#9a32cd" points="338.822,-45.7584 328.643,-48.6982 338.433,-52.7476 338.822,-45.7584"/>
<text text-anchor="middle" x="502" y="-74" font-family="Helvetica,sans-Serif" font-size="10.00"> elements</text>
</g>
<!-- Node17 -->
<g id="node12" class="node"><title>Node17</title>
<polygon fill="white" stroke="#bfbfbf" points="596,-11 596,-41 712,-41 712,-11 596,-11"/>
<text text-anchor="start" x="604" y="-29" font-family="Helvetica,sans-Serif" font-size="10.00">std::vector&lt; std::bitset</text>
<text text-anchor="middle" x="654" y="-18" font-family="Helvetica,sans-Serif" font-size="10.00">&lt; 16 &gt; &gt;</text>
</g>
<!-- Node17&#45;&gt;Node6 -->
<g id="edge11" class="edge"><title>Node17&#45;&gt;Node6</title>
<path fill="none" stroke="#9a32cd" stroke-dasharray="5,2" d="M707.513,-44.5779C736.067,-54.705 771.992,-67.4877 804,-79 815.645,-83.1883 828.268,-87.7637 839.859,-91.9793"/>
<polygon fill="#9a32cd" stroke="#9a32cd" points="708.334,-41.1555 697.739,-41.113 705.995,-47.7532 708.334,-41.1555"/>
<text text-anchor="middle" x="768" y="-82" font-family="Helvetica,sans-Serif" font-size="10.00"> patterns</text>
</g>
<!-- Node18 -->
<g id="node13" class="node"><title>Node18</title>
<polygon fill="white" stroke="#bfbfbf" points="269.5,-0.5 269.5,-19.5 358.5,-19.5 358.5,-0.5 269.5,-0.5"/>
<text text-anchor="middle" x="314" y="-7.5" font-family="Helvetica,sans-Serif" font-size="10.00">std::bitset&lt; 16 &gt;</text>
</g>
<!-- Node18&#45;&gt;Node17 -->
<g id="edge12" class="edge"><title>Node18&#45;&gt;Node17</title>
<path fill="none" stroke="#9a32cd" stroke-dasharray="5,2" d="M369.114,-9.10464C421.966,-8.68563 504.639,-9.24116 576,-15 582.461,-15.5214 589.206,-16.234 595.901,-17.0477"/>
<polygon fill="#9a32cd" stroke="#9a32cd" points="368.919,-5.60622 358.953,-9.20019 368.985,-12.6059 368.919,-5.60622"/>
<text text-anchor="middle" x="502" y="-18" font-family="Helvetica,sans-Serif" font-size="10.00"> elements</text>
</g>
</g>
</svg>
