<?xml version="1.0" encoding="UTF-8" standalone="no"?>
<!DOCTYPE svg PUBLIC "-//W3C//DTD SVG 1.1//EN"
 "http://www.w3.org/Graphics/SVG/1.1/DTD/svg11.dtd">
<!-- Generated by graphviz version 2.36.0 (20140111.2315)
 -->
<!-- Title: ant::analysis::physics::JustPi0::MultiPi0 Pages: 1 -->
<svg width="1550pt" height="517pt"
 viewBox="0.00 0.00 1550.00 517.00" xmlns="http://www.w3.org/2000/svg" xmlns:xlink="http://www.w3.org/1999/xlink">
<g id="graph0" class="graph" transform="scale(1 1) rotate(0) translate(4 513)">
<title>ant::analysis::physics::JustPi0::MultiPi0</title>
<polygon fill="white" stroke="none" points="-4,4 -4,-513 1546,-513 1546,4 -4,4"/>
<!-- Node1 -->
<g id="node1" class="node"><title>Node1</title>
<polygon fill="#bfbfbf" stroke="black" points="1430,-182 1430,-212 1542,-212 1542,-182 1430,-182"/>
<text text-anchor="start" x="1438" y="-200" font-family="Helvetica,sans-Serif" font-size="10.00">ant::analysis::physics</text>
<text text-anchor="middle" x="1486" y="-189" font-family="Helvetica,sans-Serif" font-size="10.00">::JustPi0::MultiPi0</text>
</g>
<!-- Node2 -->
<g id="node2" class="node"><title>Node2</title>
<polygon fill="white" stroke="#bfbfbf" points="1170,-467.5 1170,-508.5 1316,-508.5 1316,-467.5 1170,-467.5"/>
<text text-anchor="start" x="1178" y="-496.5" font-family="Helvetica,sans-Serif" font-size="10.00">std::vector&lt; std::pair</text>
<text text-anchor="start" x="1178" y="-485.5" font-family="Helvetica,sans-Serif" font-size="10.00">&lt; utils::TreeFitter::tree</text>
<text text-anchor="middle" x="1243" y="-474.5" font-family="Helvetica,sans-Serif" font-size="10.00">_t, utils::TreeFitter::tree_t &gt; &gt;</text>
</g>
<!-- Node2&#45;&gt;Node1 -->
<g id="edge1" class="edge"><title>Node2&#45;&gt;Node1</title>
<path fill="none" stroke="#9a32cd" stroke-dasharray="5,2" d="M1326.41,-487.535C1356.67,-483.305 1389.09,-473.408 1412,-452 1482.82,-385.817 1486.53,-256.063 1485.61,-212.031"/>
<polygon fill="#9a32cd" stroke="#9a32cd" points="1325.76,-484.088 1316.25,-488.76 1326.6,-491.038 1325.76,-484.088"/>
<text text-anchor="middle" x="1376" y="-487" font-family="Helvetica,sans-Serif" font-size="10.00"> pions</text>
</g>
<!-- Node3 -->
<g id="node3" class="node"><title>Node3</title>
<g id="a_node3"><a xlink:href="structant_1_1analysis_1_1_prompt_random_1_1_hist1.html" target="_top" xlink:title="ant::analysis::PromptRandom\l::Hist1">
<polygon fill="white" stroke="black" points="1170,-362 1170,-392 1316,-392 1316,-362 1170,-362"/>
<text text-anchor="start" x="1178" y="-380" font-family="Helvetica,sans-Serif" font-size="10.00">ant::analysis::PromptRandom</text>
<text text-anchor="middle" x="1243" y="-369" font-family="Helvetica,sans-Serif" font-size="10.00">::Hist1</text>
</a>
</g>
</g>
<!-- Node3&#45;&gt;Node1 -->
<g id="edge2" class="edge"><title>Node3&#45;&gt;Node1</title>
<path fill="none" stroke="#9a32cd" stroke-dasharray="5,2" d="M1272.44,-355.76C1321.73,-318.946 1421.86,-244.159 1464.75,-212.121"/>
<polygon fill="#9a32cd" stroke="#9a32cd" points="1270.05,-353.175 1264.13,-361.963 1274.24,-358.783 1270.05,-353.175"/>
<text text-anchor="middle" x="1376" y="-351" font-family="Helvetica,sans-Serif" font-size="10.00"> h_missingmass</text>
<text text-anchor="middle" x="1376" y="-340" font-family="Helvetica,sans-Serif" font-size="10.00">h_fitprobability</text>
<text text-anchor="middle" x="1376" y="-329" font-family="Helvetica,sans-Serif" font-size="10.00">IM_2g_fitted</text>
<text text-anchor="middle" x="1376" y="-318" font-family="Helvetica,sans-Serif" font-size="10.00">IM_2g_byMM</text>
<text text-anchor="middle" x="1376" y="-307" font-family="Helvetica,sans-Serif" font-size="10.00">IM_2g_byFit</text>
</g>
<!-- Node4 -->
<g id="node4" class="node"><title>Node4</title>
<g id="a_node4"><a xlink:href="classant_1_1analysis_1_1_prompt_random_1_1_switch.html" target="_top" xlink:title="ant::analysis::PromptRandom\l::Switch">
<polygon fill="white" stroke="black" points="898,-416 898,-446 1044,-446 1044,-416 898,-416"/>
<text text-anchor="start" x="906" y="-434" font-family="Helvetica,sans-Serif" font-size="10.00">ant::analysis::PromptRandom</text>
<text text-anchor="middle" x="971" y="-423" font-family="Helvetica,sans-Serif" font-size="10.00">::Switch</text>
</a>
</g>
</g>
<!-- Node4&#45;&gt;Node1 -->
<g id="edge29" class="edge"><title>Node4&#45;&gt;Node1</title>
<path fill="none" stroke="#9a32cd" stroke-dasharray="5,2" d="M1054.38,-429.413C1167.56,-425.431 1362.76,-411.514 1412,-363 1456.18,-319.47 1475.59,-244.634 1482.19,-212.451"/>
<polygon fill="#9a32cd" stroke="#9a32cd" points="1054.24,-425.916 1044.36,-429.747 1054.47,-432.912 1054.24,-425.916"/>
<text text-anchor="middle" x="1243" y="-426" font-family="Helvetica,sans-Serif" font-size="10.00"> promptrandom</text>
</g>
<!-- Node4&#45;&gt;Node3 -->
<g id="edge3" class="edge"><title>Node4&#45;&gt;Node3</title>
<path fill="none" stroke="#9a32cd" stroke-dasharray="5,2" d="M1054.22,-414.557C1091.06,-407.187 1134.14,-398.572 1169.73,-391.454"/>
<polygon fill="#9a32cd" stroke="#9a32cd" points="1053.12,-411.207 1044,-416.6 1054.49,-418.071 1053.12,-411.207"/>
<text text-anchor="middle" x="1107" y="-413" font-family="Helvetica,sans-Serif" font-size="10.00"> d</text>
</g>
<!-- Node5 -->
<g id="node5" class="node"><title>Node5</title>
<g id="a_node5"><a xlink:href="classant_1_1_piecewise_interval.html" target="_top" xlink:title="ant::PiecewiseInterval\l\&lt; double \&gt;">
<polygon fill="white" stroke="black" points="596.5,-415 596.5,-445 709.5,-445 709.5,-415 596.5,-415"/>
<text text-anchor="start" x="604.5" y="-433" font-family="Helvetica,sans-Serif" font-size="10.00">ant::PiecewiseInterval</text>
<text text-anchor="middle" x="653" y="-422" font-family="Helvetica,sans-Serif" font-size="10.00">&lt; double &gt;</text>
</a>
</g>
</g>
<!-- Node5&#45;&gt;Node4 -->
<g id="edge4" class="edge"><title>Node5&#45;&gt;Node4</title>
<path fill="none" stroke="#9a32cd" stroke-dasharray="5,2" d="M719.88,-430.208C771.866,-430.373 844.299,-430.602 897.844,-430.772"/>
<polygon fill="#9a32cd" stroke="#9a32cd" points="719.778,-426.708 709.767,-430.176 719.756,-433.708 719.778,-426.708"/>
<text text-anchor="middle" x="804" y="-444" font-family="Helvetica,sans-Serif" font-size="10.00"> promptw</text>
<text text-anchor="middle" x="804" y="-433" font-family="Helvetica,sans-Serif" font-size="10.00">randomw</text>
</g>
<!-- Node6 -->
<g id="node6" class="node"><title>Node6</title>
<g id="a_node6"><a xlink:title="STL class. ">
<polygon fill="white" stroke="#bfbfbf" points="393,-415 393,-445 497,-445 497,-415 393,-415"/>
<text text-anchor="start" x="401" y="-433" font-family="Helvetica,sans-Serif" font-size="10.00">std::vector&lt; interval</text>
<text text-anchor="middle" x="445" y="-422" font-family="Helvetica,sans-Serif" font-size="10.00">&lt; double &gt; &gt;</text>
</a>
</g>
</g>
<!-- Node6&#45;&gt;Node5 -->
<g id="edge5" class="edge"><title>Node6&#45;&gt;Node5</title>
<path fill="none" stroke="midnightblue" d="M507.346,-430C535.593,-430 568.867,-430 596.376,-430"/>
<polygon fill="midnightblue" stroke="midnightblue" points="507.186,-426.5 497.186,-430 507.186,-433.5 507.186,-426.5"/>
</g>
<!-- Node7 -->
<g id="node7" class="node"><title>Node7</title>
<polygon fill="white" stroke="#bfbfbf" points="232.5,-395.5 232.5,-414.5 261.5,-414.5 261.5,-395.5 232.5,-395.5"/>
<text text-anchor="middle" x="247" y="-402.5" font-family="Helvetica,sans-Serif" font-size="10.00">T</text>
</g>
<!-- Node7&#45;&gt;Node6 -->
<g id="edge6" class="edge"><title>Node7&#45;&gt;Node6</title>
<path fill="none" stroke="#9a32cd" stroke-dasharray="5,2" d="M272.088,-408.072C301.96,-411.883 353.691,-418.481 392.622,-423.447"/>
<polygon fill="#9a32cd" stroke="#9a32cd" points="272.145,-404.551 261.782,-406.758 271.259,-411.495 272.145,-404.551"/>
<text text-anchor="middle" x="340" y="-421" font-family="Helvetica,sans-Serif" font-size="10.00"> elements</text>
</g>
<!-- Node26 -->
<g id="node26" class="node"><title>Node26</title>
<g id="a_node26"><a xlink:title="STL class. ">
<polygon fill="white" stroke="#bfbfbf" points="401.5,-376.5 401.5,-395.5 488.5,-395.5 488.5,-376.5 401.5,-376.5"/>
<text text-anchor="middle" x="445" y="-383.5" font-family="Helvetica,sans-Serif" font-size="10.00">std::vector&lt; T &gt;</text>
</a>
</g>
</g>
<!-- Node7&#45;&gt;Node26 -->
<g id="edge26" class="edge"><title>Node7&#45;&gt;Node26</title>
<path fill="none" stroke="#9a32cd" stroke-dasharray="5,2" d="M271.568,-400.74C285.111,-398.432 302.466,-395.71 318,-394 345.67,-390.954 376.896,-388.961 401.34,-387.727"/>
<polygon fill="#9a32cd" stroke="#9a32cd" points="270.88,-397.307 261.631,-402.475 272.084,-404.203 270.88,-397.307"/>
<text text-anchor="middle" x="340" y="-397" font-family="Helvetica,sans-Serif" font-size="10.00"> elements</text>
</g>
<!-- Node8 -->
<g id="node8" class="node"><title>Node8</title>
<g id="a_node8"><a xlink:href="structant_1_1analysis_1_1physics_1_1_just_pi0_1_1_multi_pi0_1_1_multi_pi0_tree.html" target="_top" xlink:title="ant::analysis::physics\l::JustPi0::MultiPi0::MultiPi0Tree">
<polygon fill="white" stroke="black" points="1164,-98 1164,-128 1322,-128 1322,-98 1164,-98"/>
<text text-anchor="start" x="1172" y="-116" font-family="Helvetica,sans-Serif" font-size="10.00">ant::analysis::physics</text>
<text text-anchor="middle" x="1243" y="-105" font-family="Helvetica,sans-Serif" font-size="10.00">::JustPi0::MultiPi0::MultiPi0Tree</text>
</a>
</g>
</g>
<!-- Node8&#45;&gt;Node1 -->
<g id="edge7" class="edge"><title>Node8&#45;&gt;Node1</title>
<path fill="none" stroke="#9a32cd" stroke-dasharray="5,2" d="M1332.41,-118.758C1358.8,-122.691 1387.27,-129.217 1412,-140 1434.7,-149.896 1456.51,-168.513 1470.28,-181.777"/>
<polygon fill="#9a32cd" stroke="#9a32cd" points="1332.79,-115.278 1322.41,-117.374 1331.83,-122.212 1332.79,-115.278"/>
<text text-anchor="middle" x="1376" y="-143" font-family="Helvetica,sans-Serif" font-size="10.00"> t</text>
</g>
<!-- Node9 -->
<g id="node9" class="node"><title>Node9</title>
<g id="a_node9"><a xlink:href="classant_1_1_wrap_t_tree.html" target="_top" xlink:title="The WrapTTree struct simplifies TTree handling in physics classes. ">
<polygon fill="white" stroke="black" points="928.5,-103.5 928.5,-122.5 1013.5,-122.5 1013.5,-103.5 928.5,-103.5"/>
<text text-anchor="middle" x="971" y="-110.5" font-family="Helvetica,sans-Serif" font-size="10.00">ant::WrapTTree</text>
</a>
</g>
</g>
<!-- Node9&#45;&gt;Node8 -->
<g id="edge8" class="edge"><title>Node9&#45;&gt;Node8</title>
<path fill="none" stroke="midnightblue" d="M1023.84,-113C1063.52,-113 1118.89,-113 1163.92,-113"/>
<polygon fill="midnightblue" stroke="midnightblue" points="1023.6,-109.5 1013.6,-113 1023.6,-116.5 1023.6,-109.5"/>
</g>
<!-- Node10 -->
<g id="node10" class="node"><title>Node10</title>
<g id="a_node10"><a xlink:href="classant_1_1analysis_1_1utils_1_1_tree_fitter.html" target="_top" xlink:title="ant::analysis::utils\l::TreeFitter">
<polygon fill="white" stroke="black" points="1195,-239 1195,-269 1291,-269 1291,-239 1195,-239"/>
<text text-anchor="start" x="1203" y="-257" font-family="Helvetica,sans-Serif" font-size="10.00">ant::analysis::utils</text>
<text text-anchor="middle" x="1243" y="-246" font-family="Helvetica,sans-Serif" font-size="10.00">::TreeFitter</text>
</a>
</g>
</g>
<!-- Node10&#45;&gt;Node1 -->
<g id="edge9" class="edge"><title>Node10&#45;&gt;Node1</title>
<path fill="none" stroke="#9a32cd" stroke-dasharray="5,2" d="M1301.15,-240.484C1340.01,-231.293 1391.15,-219.196 1429.63,-210.095"/>
<polygon fill="#9a32cd" stroke="#9a32cd" points="1299.97,-237.167 1291.04,-242.875 1301.58,-243.979 1299.97,-237.167"/>
<text text-anchor="middle" x="1376" y="-234" font-family="Helvetica,sans-Serif" font-size="10.00"> treefitter</text>
</g>
<!-- Node11 -->
<g id="node11" class="node"><title>Node11</title>
<g id="a_node11"><a xlink:href="classant_1_1analysis_1_1utils_1_1_kin_fitter.html" target="_top" xlink:title="ant::analysis::utils\l::KinFitter">
<polygon fill="white" stroke="black" points="923,-144 923,-174 1019,-174 1019,-144 923,-144"/>
<text text-anchor="start" x="931" y="-162" font-family="Helvetica,sans-Serif" font-size="10.00">ant::analysis::utils</text>
<text text-anchor="middle" x="971" y="-151" font-family="Helvetica,sans-Serif" font-size="10.00">::KinFitter</text>
</a>
</g>
</g>
<!-- Node11&#45;&gt;Node1 -->
<g id="edge28" class="edge"><title>Node11&#45;&gt;Node1</title>
<path fill="none" stroke="#9a32cd" stroke-dasharray="5,2" d="M1029.5,-163.259C1128.96,-170.626 1331.81,-185.652 1429.7,-192.904"/>
<polygon fill="#9a32cd" stroke="#9a32cd" points="1029.57,-159.755 1019.34,-162.507 1029.06,-166.736 1029.57,-159.755"/>
<text text-anchor="middle" x="1243" y="-188" font-family="Helvetica,sans-Serif" font-size="10.00"> fitter</text>
</g>
<!-- Node11&#45;&gt;Node10 -->
<g id="edge10" class="edge"><title>Node11&#45;&gt;Node10</title>
<path fill="none" stroke="midnightblue" d="M1028.76,-177.039C1035.92,-179.359 1043.13,-181.72 1050,-184 1092.82,-198.219 1103.61,-201.551 1146,-217 1165.13,-223.972 1186.26,-232.072 1203.82,-238.913"/>
<polygon fill="midnightblue" stroke="midnightblue" points="1029.66,-173.653 1019.07,-173.912 1027.51,-180.315 1029.66,-173.653"/>
</g>
<!-- Node12 -->
<g id="node12" class="node"><title>Node12</title>
<g id="a_node12"><a xlink:href="classant_1_1analysis_1_1utils_1_1_fitter.html" target="_top" xlink:title="ant::analysis::utils\l::Fitter">
<polygon fill="white" stroke="black" points="605,-169 605,-199 701,-199 701,-169 605,-169"/>
<text text-anchor="start" x="613" y="-187" font-family="Helvetica,sans-Serif" font-size="10.00">ant::analysis::utils</text>
<text text-anchor="middle" x="653" y="-176" font-family="Helvetica,sans-Serif" font-size="10.00">::Fitter</text>
</a>
</g>
</g>
<!-- Node12&#45;&gt;Node11 -->
<g id="edge11" class="edge"><title>Node12&#45;&gt;Node11</title>
<path fill="none" stroke="midnightblue" d="M711.238,-179.672C755.644,-176.291 818.736,-171.438 874,-167 889.837,-165.728 907.14,-164.299 922.641,-163.004"/>
<polygon fill="midnightblue" stroke="midnightblue" points="710.919,-176.186 701.213,-180.434 711.45,-183.166 710.919,-176.186"/>
</g>
<!-- Node13 -->
<g id="node13" class="node"><title>Node13</title>
<g id="a_node13"><a xlink:href="structant_1_1analysis_1_1utils_1_1_kin_fitter_1_1_target__t.html" target="_top" xlink:title="ant::analysis::utils\l::KinFitter::Target_t">
<polygon fill="white" stroke="black" points="602.5,-120 602.5,-150 703.5,-150 703.5,-120 602.5,-120"/>
<text text-anchor="start" x="610.5" y="-138" font-family="Helvetica,sans-Serif" font-size="10.00">ant::analysis::utils</text>
<text text-anchor="middle" x="653" y="-127" font-family="Helvetica,sans-Serif" font-size="10.00">::KinFitter::Target_t</text>
</a>
</g>
</g>
<!-- Node13&#45;&gt;Node11 -->
<g id="edge12" class="edge"><title>Node13&#45;&gt;Node11</title>
<path fill="none" stroke="#9a32cd" stroke-dasharray="5,2" d="M713.922,-139.551C774.615,-144.161 867.25,-151.196 922.888,-155.422"/>
<polygon fill="#9a32cd" stroke="#9a32cd" points="713.959,-136.044 703.723,-138.776 713.429,-143.024 713.959,-136.044"/>
<text text-anchor="middle" x="804" y="-155" font-family="Helvetica,sans-Serif" font-size="10.00"> Target</text>
</g>
<!-- Node14 -->
<g id="node14" class="node"><title>Node14</title>
<g id="a_node14"><a xlink:href="structant_1_1analysis_1_1utils_1_1_kin_fitter_1_1_beam_e__t.html" target="_top" xlink:title="ant::analysis::utils\l::KinFitter::BeamE_t">
<polygon fill="white" stroke="black" points="600,-71 600,-101 706,-101 706,-71 600,-71"/>
<text text-anchor="start" x="608" y="-89" font-family="Helvetica,sans-Serif" font-size="10.00">ant::analysis::utils</text>
<text text-anchor="middle" x="653" y="-78" font-family="Helvetica,sans-Serif" font-size="10.00">::KinFitter::BeamE_t</text>
</a>
</g>
</g>
<!-- Node14&#45;&gt;Node11 -->
<g id="edge13" class="edge"><title>Node14&#45;&gt;Node11</title>
<path fill="none" stroke="#9a32cd" stroke-dasharray="5,2" d="M716.055,-95.2257C760.403,-102.386 821.306,-113.376 874,-127 892.2,-131.705 911.956,-138.068 928.789,-143.88"/>
<polygon fill="#9a32cd" stroke="#9a32cd" points="716.432,-91.7415 706.005,-93.6229 715.329,-98.6542 716.432,-91.7415"/>
<text text-anchor="middle" x="804" y="-130" font-family="Helvetica,sans-Serif" font-size="10.00"> BeamE</text>
</g>
<!-- Node15 -->
<g id="node15" class="node"><title>Node15</title>
<g id="a_node15"><a xlink:href="structant_1_1analysis_1_1utils_1_1_fitter_1_1_v___s___p__t.html" target="_top" xlink:title="ant::analysis::utils\l::Fitter::V_S_P_t">
<polygon fill="white" stroke="black" points="397,-71 397,-101 493,-101 493,-71 397,-71"/>
<text text-anchor="start" x="405" y="-89" font-family="Helvetica,sans-Serif" font-size="10.00">ant::analysis::utils</text>
<text text-anchor="middle" x="445" y="-78" font-family="Helvetica,sans-Serif" font-size="10.00">::Fitter::V_S_P_t</text>
</a>
</g>
</g>
<!-- Node15&#45;&gt;Node14 -->
<g id="edge14" class="edge"><title>Node15&#45;&gt;Node14</title>
<path fill="none" stroke="midnightblue" d="M503.391,-86C533.599,-86 570.365,-86 599.77,-86"/>
<polygon fill="midnightblue" stroke="midnightblue" points="503.002,-82.5001 493.002,-86 503.002,-89.5001 503.002,-82.5001"/>
</g>
<!-- Node16 -->
<g id="node16" class="node"><title>Node16</title>
<g id="a_node16"><a xlink:href="structant_1_1analysis_1_1utils_1_1_fitter_1_1_v___s__t.html" target="_top" xlink:title="ant::analysis::utils\l::Fitter::V_S_t">
<polygon fill="white" stroke="black" points="199,-71 199,-101 295,-101 295,-71 199,-71"/>
<text text-anchor="start" x="207" y="-89" font-family="Helvetica,sans-Serif" font-size="10.00">ant::analysis::utils</text>
<text text-anchor="middle" x="247" y="-78" font-family="Helvetica,sans-Serif" font-size="10.00">::Fitter::V_S_t</text>
</a>
</g>
</g>
<!-- Node16&#45;&gt;Node15 -->
<g id="edge15" class="edge"><title>Node16&#45;&gt;Node15</title>
<path fill="none" stroke="midnightblue" d="M305.481,-86C334.597,-86 369.503,-86 396.991,-86"/>
<polygon fill="midnightblue" stroke="midnightblue" points="305.446,-82.5001 295.446,-86 305.446,-89.5001 305.446,-82.5001"/>
</g>
<!-- Node17 -->
<g id="node17" class="node"><title>Node17</title>
<polygon fill="white" stroke="#bfbfbf" points="590.5,-218.5 590.5,-237.5 715.5,-237.5 715.5,-218.5 590.5,-218.5"/>
<text text-anchor="middle" x="653" y="-225.5" font-family="Helvetica,sans-Serif" font-size="10.00">std::vector&lt; FitParticle &gt;</text>
</g>
<!-- Node17&#45;&gt;Node11 -->
<g id="edge16" class="edge"><title>Node17&#45;&gt;Node11</title>
<path fill="none" stroke="#9a32cd" stroke-dasharray="5,2" d="M723.991,-216.787C767.407,-209.38 824.212,-198.869 874,-187 890.043,-183.175 907.4,-178.333 922.885,-173.756"/>
<polygon fill="#9a32cd" stroke="#9a32cd" points="723.375,-213.342 714.099,-218.461 724.542,-220.243 723.375,-213.342"/>
<text text-anchor="middle" x="804" y="-218" font-family="Helvetica,sans-Serif" font-size="10.00"> Photons</text>
</g>
<!-- Node18 -->
<g id="node18" class="node"><title>Node18</title>
<polygon fill="white" stroke="#bfbfbf" points="918,-330.5 918,-349.5 1024,-349.5 1024,-330.5 918,-330.5"/>
<text text-anchor="middle" x="971" y="-337.5" font-family="Helvetica,sans-Serif" font-size="10.00">std::vector&lt; tree_t &gt;</text>
</g>
<!-- Node18&#45;&gt;Node10 -->
<g id="edge17" class="edge"><title>Node18&#45;&gt;Node10</title>
<path fill="none" stroke="#9a32cd" stroke-dasharray="5,2" d="M1019.24,-327.919C1029.39,-325.314 1040.05,-322.571 1050,-320 1092.69,-308.969 1104.28,-309.253 1146,-295 1167.78,-287.559 1191.58,-277.411 1210.03,-269.072"/>
<polygon fill="#9a32cd" stroke="#9a32cd" points="1018.12,-324.592 1009.3,-330.466 1019.86,-331.372 1018.12,-324.592"/>
<text text-anchor="middle" x="1107" y="-319" font-family="Helvetica,sans-Serif" font-size="10.00"> tree_leaves</text>
</g>
<!-- Node19 -->
<g id="node19" class="node"><title>Node19</title>
<polygon fill="white" stroke="#bfbfbf" points="898,-281 898,-311 1044,-311 1044,-281 898,-281"/>
<text text-anchor="start" x="906" y="-299" font-family="Helvetica,sans-Serif" font-size="10.00">std::list&lt; ant::analysis</text>
<text text-anchor="middle" x="971" y="-288" font-family="Helvetica,sans-Serif" font-size="10.00">::utils::TreeFitter::iteration_t &gt;</text>
</g>
<!-- Node19&#45;&gt;Node10 -->
<g id="edge18" class="edge"><title>Node19&#45;&gt;Node10</title>
<path fill="none" stroke="#9a32cd" stroke-dasharray="5,2" d="M1053.98,-283.247C1100.1,-276.073 1156.04,-267.372 1194.85,-261.334"/>
<polygon fill="#9a32cd" stroke="#9a32cd" points="1053.34,-279.804 1044,-284.8 1054.42,-286.721 1053.34,-279.804"/>
<text text-anchor="middle" x="1107" y="-283" font-family="Helvetica,sans-Serif" font-size="10.00"> iterations</text>
</g>
<!-- Node20 -->
<g id="node20" class="node"><title>Node20</title>
<g id="a_node20"><a xlink:href="structant_1_1analysis_1_1utils_1_1_tree_fitter_1_1iteration__t.html" target="_top" xlink:title="ant::analysis::utils\l::TreeFitter::iteration_t">
<polygon fill="white" stroke="black" points="596.5,-281 596.5,-311 709.5,-311 709.5,-281 596.5,-281"/>
<text text-anchor="start" x="604.5" y="-299" font-family="Helvetica,sans-Serif" font-size="10.00">ant::analysis::utils</text>
<text text-anchor="middle" x="653" y="-288" font-family="Helvetica,sans-Serif" font-size="10.00">::TreeFitter::iteration_t</text>
</a>
</g>
</g>
<!-- Node20&#45;&gt;Node19 -->
<g id="edge19" class="edge"><title>Node20&#45;&gt;Node19</title>
<path fill="none" stroke="#9a32cd" stroke-dasharray="5,2" d="M719.88,-296C771.866,-296 844.299,-296 897.844,-296"/>
<polygon fill="#9a32cd" stroke="#9a32cd" points="719.767,-292.5 709.767,-296 719.767,-299.5 719.767,-292.5"/>
<text text-anchor="middle" x="804" y="-299" font-family="Helvetica,sans-Serif" font-size="10.00"> elements</text>
</g>
<!-- Node21 -->
<g id="node21" class="node"><title>Node21</title>
<polygon fill="white" stroke="#bfbfbf" points="380.5,-275.5 380.5,-316.5 509.5,-316.5 509.5,-275.5 380.5,-275.5"/>
<text text-anchor="start" x="388.5" y="-304.5" font-family="Helvetica,sans-Serif" font-size="10.00">std::vector&lt; ant::analysis</text>
<text text-anchor="start" x="388.5" y="-293.5" font-family="Helvetica,sans-Serif" font-size="10.00">::utils::TreeFitter::iteration</text>
<text text-anchor="middle" x="445" y="-282.5" font-family="Helvetica,sans-Serif" font-size="10.00">_t::photon_t &gt;</text>
</g>
<!-- Node21&#45;&gt;Node20 -->
<g id="edge20" class="edge"><title>Node21&#45;&gt;Node20</title>
<path fill="none" stroke="#9a32cd" stroke-dasharray="5,2" d="M519.991,-296C545.111,-296 572.737,-296 596.195,-296"/>
<polygon fill="#9a32cd" stroke="#9a32cd" points="519.769,-292.5 509.769,-296 519.769,-299.5 519.769,-292.5"/>
<text text-anchor="middle" x="550" y="-299" font-family="Helvetica,sans-Serif" font-size="10.00"> Photons</text>
</g>
<!-- Node22 -->
<g id="node22" class="node"><title>Node22</title>
<g id="a_node22"><a xlink:href="structant_1_1analysis_1_1utils_1_1_tree_fitter_1_1iteration__t_1_1photon__t.html" target="_top" xlink:title="ant::analysis::utils\l::TreeFitter::iteration\l_t::photon_t">
<polygon fill="white" stroke="black" points="194.5,-275.5 194.5,-316.5 299.5,-316.5 299.5,-275.5 194.5,-275.5"/>
<text text-anchor="start" x="202.5" y="-304.5" font-family="Helvetica,sans-Serif" font-size="10.00">ant::analysis::utils</text>
<text text-anchor="start" x="202.5" y="-293.5" font-family="Helvetica,sans-Serif" font-size="10.00">::TreeFitter::iteration</text>
<text text-anchor="middle" x="247" y="-282.5" font-family="Helvetica,sans-Serif" font-size="10.00">_t::photon_t</text>
</a>
</g>
</g>
<!-- Node22&#45;&gt;Node21 -->
<g id="edge21" class="edge"><title>Node22&#45;&gt;Node21</title>
<path fill="none" stroke="#9a32cd" stroke-dasharray="5,2" d="M309.853,-296C332.333,-296 357.764,-296 380.393,-296"/>
<polygon fill="#9a32cd" stroke="#9a32cd" points="309.753,-292.5 299.753,-296 309.753,-299.5 309.753,-292.5"/>
<text text-anchor="middle" x="340" y="-299" font-family="Helvetica,sans-Serif" font-size="10.00"> elements</text>
</g>
<!-- Node23 -->
<g id="node23" class="node"><title>Node23</title>
<g id="a_node23"><a xlink:href="structant_1_1std__ext_1_1cc__shared__ptr.html" target="_top" xlink:title="ant::std_ext::cc_shared\l_ptr\&lt; TParticle \&gt;">
<polygon fill="white" stroke="black" points="0.5,-281 0.5,-311 119.5,-311 119.5,-281 0.5,-281"/>
<text text-anchor="start" x="8.5" y="-299" font-family="Helvetica,sans-Serif" font-size="10.00">ant::std_ext::cc_shared</text>
<text text-anchor="middle" x="60" y="-288" font-family="Helvetica,sans-Serif" font-size="10.00">_ptr&lt; TParticle &gt;</text>
</a>
</g>
</g>
<!-- Node23&#45;&gt;Node22 -->
<g id="edge22" class="edge"><title>Node23&#45;&gt;Node22</title>
<path fill="none" stroke="#9a32cd" stroke-dasharray="5,2" d="M129.57,-296C151.026,-296 174.326,-296 194.406,-296"/>
<polygon fill="#9a32cd" stroke="#9a32cd" points="129.535,-292.5 119.535,-296 129.535,-299.5 129.535,-292.5"/>
<text text-anchor="middle" x="157" y="-299" font-family="Helvetica,sans-Serif" font-size="10.00"> Particle</text>
</g>
<!-- Node24 -->
<g id="node24" class="node"><title>Node24</title>
<polygon fill="white" stroke="#bfbfbf" points="908,-232 908,-262 1034,-262 1034,-232 908,-232"/>
<text text-anchor="start" x="916" y="-250" font-family="Helvetica,sans-Serif" font-size="10.00">std::vector&lt; std::function</text>
<text text-anchor="middle" x="971" y="-239" font-family="Helvetica,sans-Serif" font-size="10.00">&lt; void()&gt; &gt;</text>
</g>
<!-- Node24&#45;&gt;Node10 -->
<g id="edge23" class="edge"><title>Node24&#45;&gt;Node10</title>
<path fill="none" stroke="#9a32cd" stroke-dasharray="5,2" d="M1044.55,-248.881C1092.25,-250.117 1153.28,-251.7 1194.77,-252.776"/>
<polygon fill="#9a32cd" stroke="#9a32cd" points="1044.37,-245.375 1034.28,-248.615 1044.19,-252.373 1044.37,-245.375"/>
<text text-anchor="middle" x="1107" y="-255" font-family="Helvetica,sans-Serif" font-size="10.00"> sum_daughters</text>
</g>
<!-- Node25 -->
<g id="node25" class="node"><title>Node25</title>
<polygon fill="white" stroke="#bfbfbf" points="734,-376.5 734,-395.5 874,-395.5 874,-376.5 734,-376.5"/>
<text text-anchor="middle" x="804" y="-383.5" font-family="Helvetica,sans-Serif" font-size="10.00">std::vector&lt; permutation_t &gt;</text>
</g>
<!-- Node25&#45;&gt;Node10 -->
<g id="edge24" class="edge"><title>Node25&#45;&gt;Node10</title>
<path fill="none" stroke="#9a32cd" stroke-dasharray="5,2" d="M884.682,-387.087C956.759,-384.938 1063.87,-373.749 1146,-331 1177.84,-314.428 1209.23,-286.446 1227.05,-269.166"/>
<polygon fill="#9a32cd" stroke="#9a32cd" points="884.22,-383.597 874.309,-387.341 884.392,-390.595 884.22,-383.597"/>
<text text-anchor="middle" x="971" y="-389" font-family="Helvetica,sans-Serif" font-size="10.00"> permutations</text>
</g>
<!-- Node26&#45;&gt;Node25 -->
<g id="edge25" class="edge"><title>Node26&#45;&gt;Node25</title>
<path fill="none" stroke="#9a32cd" stroke-dasharray="5,2" d="M498.726,-386C561.107,-386 665.154,-386 733.922,-386"/>
<polygon fill="#9a32cd" stroke="#9a32cd" points="498.708,-382.5 488.708,-386 498.708,-389.5 498.708,-382.5"/>
<text text-anchor="middle" x="550" y="-389" font-family="Helvetica,sans-Serif" font-size="10.00"> elements</text>
</g>
<!-- Node27 -->
<g id="node27" class="node"><title>Node27</title>
<polygon fill="white" stroke="#bfbfbf" points="892,-193.5 892,-212.5 1050,-212.5 1050,-193.5 892,-193.5"/>
<text text-anchor="middle" x="971" y="-200.5" font-family="Helvetica,sans-Serif" font-size="10.00">std::vector&lt; node_constraint_t &gt;</text>
</g>
<!-- Node27&#45;&gt;Node10 -->
<g id="edge27" class="edge"><title>Node27&#45;&gt;Node10</title>
<path fill="none" stroke="#9a32cd" stroke-dasharray="5,2" d="M1034.95,-214.365C1068.02,-220.39 1109.23,-227.98 1146,-235 1161.85,-238.027 1179.16,-241.423 1194.66,-244.499"/>
<polygon fill="#9a32cd" stroke="#9a32cd" points="1035.42,-210.894 1024.96,-212.547 1034.17,-217.781 1035.42,-210.894"/>
<text text-anchor="middle" x="1107" y="-238" font-family="Helvetica,sans-Serif" font-size="10.00"> node_constraints</text>
</g>
<!-- Node28 -->
<g id="node28" class="node"><title>Node28</title>
<g id="a_node28"><a xlink:href="classant_1_1analysis_1_1utils_1_1_trigger_simulation.html" target="_top" xlink:title="ant::analysis::utils\l::TriggerSimulation">
<polygon fill="white" stroke="black" points="1194,-49 1194,-79 1292,-79 1292,-49 1194,-49"/>
<text text-anchor="start" x="1202" y="-67" font-family="Helvetica,sans-Serif" font-size="10.00">ant::analysis::utils</text>
<text text-anchor="middle" x="1243" y="-56" font-family="Helvetica,sans-Serif" font-size="10.00">::TriggerSimulation</text>
</a>
</g>
</g>
<!-- Node28&#45;&gt;Node1 -->
<g id="edge30" class="edge"><title>Node28&#45;&gt;Node1</title>
<path fill="none" stroke="#9a32cd" stroke-dasharray="5,2" d="M1302.44,-69.2331C1336.55,-74.4788 1379.2,-84.9801 1412,-106 1442.18,-125.341 1465.53,-161.439 1477.06,-181.876"/>
<polygon fill="#9a32cd" stroke="#9a32cd" points="1302.54,-65.7121 1292.14,-67.768 1301.55,-72.6423 1302.54,-65.7121"/>
<text text-anchor="middle" x="1376" y="-109" font-family="Helvetica,sans-Serif" font-size="10.00"> triggersimu</text>
</g>
<!-- Node29 -->
<g id="node29" class="node"><title>Node29</title>
<g id="a_node29"><a xlink:href="classant_1_1analysis_1_1_histogram_factory.html" target="_top" xlink:title="ant::analysis::Histogram\lFactory">
<polygon fill="white" stroke="black" points="1181.5,-0 1181.5,-30 1304.5,-30 1304.5,-0 1181.5,-0"/>
<text text-anchor="start" x="1189.5" y="-18" font-family="Helvetica,sans-Serif" font-size="10.00">ant::analysis::Histogram</text>
<text text-anchor="middle" x="1243" y="-7" font-family="Helvetica,sans-Serif" font-size="10.00">Factory</text>
</a>
</g>
</g>
<!-- Node29&#45;&gt;Node1 -->
<g id="edge31" class="edge"><title>Node29&#45;&gt;Node1</title>
<path fill="none" stroke="#9a32cd" stroke-dasharray="5,2" d="M1314.75,-22.558C1347.17,-28.9977 1384.42,-40.922 1412,-63 1451.5,-94.6251 1472.69,-153.651 1480.91,-181.587"/>
<polygon fill="#9a32cd" stroke="#9a32cd" points="1315.33,-19.106 1304.86,-20.7304 1314.06,-25.9894 1315.33,-19.106"/>
<text text-anchor="middle" x="1376" y="-66" font-family="Helvetica,sans-Serif" font-size="10.00"> HistFac</text>
</g>
</g>
</svg>
