<?xml version="1.0" encoding="UTF-8" standalone="no"?>
<!DOCTYPE svg PUBLIC "-//W3C//DTD SVG 1.1//EN"
 "http://www.w3.org/Graphics/SVG/1.1/DTD/svg11.dtd">
<!-- Generated by graphviz version 2.36.0 (20140111.2315)
 -->
<!-- Title: ant::analysis::physics::sigmaPlus Pages: 1 -->
<svg width="1546pt" height="888pt"
 viewBox="0.00 0.00 1546.00 888.00" xmlns="http://www.w3.org/2000/svg" xmlns:xlink="http://www.w3.org/1999/xlink">
<g id="graph0" class="graph" transform="scale(1 1) rotate(0) translate(4 884)">
<title>ant::analysis::physics::sigmaPlus</title>
<polygon fill="white" stroke="none" points="-4,4 -4,-884 1542,-884 1542,4 -4,4"/>
<!-- Node2 -->
<g id="node1" class="node"><title>Node2</title>
<polygon fill="#bfbfbf" stroke="black" points="1426,-355 1426,-385 1538,-385 1538,-355 1426,-355"/>
<text text-anchor="start" x="1434" y="-373" font-family="Helvetica,sans-Serif" font-size="10.00">ant::analysis::physics</text>
<text text-anchor="middle" x="1482" y="-362" font-family="Helvetica,sans-Serif" font-size="10.00">::sigmaPlus</text>
</g>
<!-- Node3 -->
<g id="node2" class="node"><title>Node3</title>
<g id="a_node2"><a xlink:href="classant_1_1analysis_1_1_physics.html" target="_top" xlink:title="ant::analysis::Physics">
<polygon fill="white" stroke="black" points="1178.5,-830.5 1178.5,-849.5 1291.5,-849.5 1291.5,-830.5 1178.5,-830.5"/>
<text text-anchor="middle" x="1235" y="-837.5" font-family="Helvetica,sans-Serif" font-size="10.00">ant::analysis::Physics</text>
</a>
</g>
</g>
<!-- Node3&#45;&gt;Node2 -->
<g id="edge1" class="edge"><title>Node3&#45;&gt;Node2</title>
<path fill="none" stroke="midnightblue" d="M1287.6,-827.574C1326.71,-815.418 1378.57,-792.908 1408,-754 1453.44,-693.921 1474.97,-449.268 1479.88,-385.342"/>
<polygon fill="midnightblue" stroke="midnightblue" points="1286.54,-824.237 1277.95,-830.445 1288.54,-830.946 1286.54,-824.237"/>
</g>
<!-- Node4 -->
<g id="node3" class="node"><title>Node4</title>
<g id="a_node3"><a xlink:href="classant_1_1analysis_1_1_histogram_factory.html" target="_top" xlink:title="ant::analysis::Histogram\lFactory">
<polygon fill="white" stroke="black" points="851.5,-850 851.5,-880 974.5,-880 974.5,-850 851.5,-850"/>
<text text-anchor="start" x="859.5" y="-868" font-family="Helvetica,sans-Serif" font-size="10.00">ant::analysis::Histogram</text>
<text text-anchor="middle" x="913" y="-857" font-family="Helvetica,sans-Serif" font-size="10.00">Factory</text>
</a>
</g>
</g>
<!-- Node4&#45;&gt;Node3 -->
<g id="edge2" class="edge"><title>Node4&#45;&gt;Node3</title>
<path fill="none" stroke="#9a32cd" stroke-dasharray="5,2" d="M984.815,-859.468C1043.17,-854.908 1124.79,-848.532 1178.5,-844.336"/>
<polygon fill="#9a32cd" stroke="#9a32cd" points="984.263,-856 974.566,-860.268 984.808,-862.979 984.263,-856"/>
<text text-anchor="middle" x="1077" y="-859" font-family="Helvetica,sans-Serif" font-size="10.00"> HistFac</text>
</g>
<!-- Node5 -->
<g id="node4" class="node"><title>Node5</title>
<g id="a_node4"><a xlink:href="classant_1_1_tree.html" target="_top" xlink:title="ant::Tree\&lt; node_t \&gt;">
<polygon fill="white" stroke="black" points="1183.5,-749.5 1183.5,-768.5 1286.5,-768.5 1286.5,-749.5 1183.5,-749.5"/>
<text text-anchor="middle" x="1235" y="-756.5" font-family="Helvetica,sans-Serif" font-size="10.00">ant::Tree&lt; node_t &gt;</text>
</a>
</g>
</g>
<!-- Node5&#45;&gt;Node2 -->
<g id="edge3" class="edge"><title>Node5&#45;&gt;Node2</title>
<path fill="none" stroke="#9a32cd" stroke-dasharray="5,2" d="M1296.49,-748.984C1333.87,-739.676 1379.92,-722.031 1408,-689 1448.3,-641.605 1473.07,-441.847 1479.39,-385.095"/>
<polygon fill="#9a32cd" stroke="#9a32cd" points="1295.63,-745.591 1286.69,-751.285 1297.23,-752.406 1295.63,-745.591"/>
<text text-anchor="middle" x="1367" y="-742" font-family="Helvetica,sans-Serif" font-size="10.00"> K0SK0S</text>
</g>
<!-- Node6 -->
<g id="node5" class="node"><title>Node6</title>
<polygon fill="white" stroke="#bfbfbf" points="397,-774.5 397,-793.5 493,-793.5 493,-774.5 397,-774.5"/>
<text text-anchor="middle" x="445" y="-781.5" font-family="Helvetica,sans-Serif" font-size="10.00">std::list&lt; node_t &gt;</text>
</g>
<!-- Node6&#45;&gt;Node5 -->
<g id="edge4" class="edge"><title>Node6&#45;&gt;Node5</title>
<path fill="none" stroke="#9a32cd" stroke-dasharray="5,2" d="M503.194,-791.874C511.501,-792.756 519.96,-793.512 528,-794 548.407,-795.24 553.556,-794.042 574,-794 827.364,-793.477 893.587,-823.566 1144,-785 1165.86,-781.633 1189.9,-774.506 1207.62,-768.563"/>
<polygon fill="#9a32cd" stroke="#9a32cd" points="503.503,-788.387 493.174,-790.746 502.72,-795.343 503.503,-788.387"/>
<text text-anchor="middle" x="776" y="-804" font-family="Helvetica,sans-Serif" font-size="10.00"> daughters</text>
</g>
<!-- Node8 -->
<g id="node7" class="node"><title>Node8</title>
<g id="a_node7"><a xlink:href="classant_1_1_tree.html" target="_top" xlink:title="ant::Tree\&lt; T \&gt;">
<polygon fill="white" stroke="black" points="615,-762.5 615,-781.5 695,-781.5 695,-762.5 615,-762.5"/>
<text text-anchor="middle" x="655" y="-769.5" font-family="Helvetica,sans-Serif" font-size="10.00">ant::Tree&lt; T &gt;</text>
</a>
</g>
</g>
<!-- Node6&#45;&gt;Node8 -->
<g id="edge7" class="edge"><title>Node6&#45;&gt;Node8</title>
<path fill="none" stroke="#9a32cd" stroke-dasharray="5,2" d="M503.392,-780.689C538.782,-778.647 583.251,-776.082 614.667,-774.269"/>
<polygon fill="#9a32cd" stroke="#9a32cd" points="502.98,-777.207 493.198,-781.277 503.383,-784.195 502.98,-777.207"/>
<text text-anchor="middle" x="551" y="-782" font-family="Helvetica,sans-Serif" font-size="10.00"> daughters</text>
</g>
<!-- Node7 -->
<g id="node6" class="node"><title>Node7</title>
<polygon fill="white" stroke="#bfbfbf" points="856.5,-749.5 856.5,-768.5 969.5,-768.5 969.5,-749.5 856.5,-749.5"/>
<text text-anchor="middle" x="913" y="-756.5" font-family="Helvetica,sans-Serif" font-size="10.00">std::weak_ptr&lt; Tree &gt;</text>
</g>
<!-- Node7&#45;&gt;Node5 -->
<g id="edge5" class="edge"><title>Node7&#45;&gt;Node5</title>
<path fill="none" stroke="#9a32cd" stroke-dasharray="5,2" d="M979.927,-759C1040.3,-759 1128.38,-759 1183.38,-759"/>
<polygon fill="#9a32cd" stroke="#9a32cd" points="979.74,-755.5 969.74,-759 979.74,-762.5 979.74,-755.5"/>
<text text-anchor="middle" x="1077" y="-773" font-family="Helvetica,sans-Serif" font-size="10.00"> parent</text>
<text text-anchor="middle" x="1077" y="-762" font-family="Helvetica,sans-Serif" font-size="10.00">self</text>
</g>
<!-- Node7&#45;&gt;Node8 -->
<g id="edge8" class="edge"><title>Node7&#45;&gt;Node8</title>
<path fill="none" stroke="#9a32cd" stroke-dasharray="5,2" d="M845.973,-762.353C798.19,-764.779 735.22,-767.977 695.16,-770.011"/>
<polygon fill="#9a32cd" stroke="#9a32cd" points="846.421,-765.835 856.23,-761.832 846.066,-758.844 846.421,-765.835"/>
<text text-anchor="middle" x="776" y="-781" font-family="Helvetica,sans-Serif" font-size="10.00"> parent</text>
<text text-anchor="middle" x="776" y="-770" font-family="Helvetica,sans-Serif" font-size="10.00">self</text>
</g>
<!-- Node8&#45;&gt;Node7 -->
<g id="edge6" class="edge"><title>Node8&#45;&gt;Node7</title>
<path fill="none" stroke="#9a32cd" stroke-dasharray="5,2" d="M691.225,-758.923C711.539,-751.433 733.551,-743.43 736,-743 782.386,-734.852 836.423,-742.228 872.258,-749.44"/>
<polygon fill="#9a32cd" stroke="#9a32cd" points="689.953,-755.661 681.786,-762.41 692.379,-762.227 689.953,-755.661"/>
<text text-anchor="middle" x="776" y="-746" font-family="Helvetica,sans-Serif" font-size="10.00"> ptr</text>
</g>
<!-- Node9 -->
<g id="node8" class="node"><title>Node9</title>
<polygon fill="white" stroke="#bfbfbf" points="430.5,-692.5 430.5,-711.5 459.5,-711.5 459.5,-692.5 430.5,-692.5"/>
<text text-anchor="middle" x="445" y="-699.5" font-family="Helvetica,sans-Serif" font-size="10.00">T</text>
</g>
<!-- Node9&#45;&gt;Node8 -->
<g id="edge9" class="edge"><title>Node9&#45;&gt;Node8</title>
<path fill="none" stroke="#9a32cd" stroke-dasharray="5,2" d="M469.416,-709.88C507.821,-722.805 584.061,-748.463 625.528,-762.418"/>
<polygon fill="#9a32cd" stroke="#9a32cd" points="470.242,-706.465 459.647,-706.593 468.009,-713.1 470.242,-706.465"/>
<text text-anchor="middle" x="551" y="-746" font-family="Helvetica,sans-Serif" font-size="10.00"> data</text>
</g>
<!-- Node27 -->
<g id="node26" class="node"><title>Node27</title>
<g id="a_node26"><a xlink:title="STL class. ">
<polygon fill="white" stroke="#bfbfbf" points="611.5,-583.5 611.5,-602.5 698.5,-602.5 698.5,-583.5 611.5,-583.5"/>
<text text-anchor="middle" x="655" y="-590.5" font-family="Helvetica,sans-Serif" font-size="10.00">std::vector&lt; T &gt;</text>
</a>
</g>
</g>
<!-- Node9&#45;&gt;Node27 -->
<g id="edge28" class="edge"><title>Node9&#45;&gt;Node27</title>
<path fill="none" stroke="#9a32cd" stroke-dasharray="5,2" d="M467.681,-686.529C495.431,-667.269 545.49,-634.316 592,-613 600.637,-609.042 610.281,-605.528 619.341,-602.593"/>
<polygon fill="#9a32cd" stroke="#9a32cd" points="465.67,-683.665 459.489,-692.269 469.687,-689.398 465.67,-683.665"/>
<text text-anchor="middle" x="551" y="-649" font-family="Helvetica,sans-Serif" font-size="10.00"> elements</text>
</g>
<!-- Node10 -->
<g id="node9" class="node"><title>Node10</title>
<polygon fill="white" stroke="#bfbfbf" points="1183,-470 1183,-500 1287,-500 1287,-470 1183,-470"/>
<text text-anchor="start" x="1191" y="-488" font-family="Helvetica,sans-Serif" font-size="10.00">std::vector&lt; utils</text>
<text text-anchor="middle" x="1235" y="-477" font-family="Helvetica,sans-Serif" font-size="10.00">::TreeFitter::tree_t &gt;</text>
</g>
<!-- Node10&#45;&gt;Node2 -->
<g id="edge10" class="edge"><title>Node10&#45;&gt;Node2</title>
<path fill="none" stroke="#9a32cd" stroke-dasharray="5,2" d="M1296.93,-476.305C1331.15,-469.604 1373.73,-458.134 1408,-439 1432.82,-425.141 1455.63,-400.957 1468.92,-385.215"/>
<polygon fill="#9a32cd" stroke="#9a32cd" points="1296.24,-472.873 1287.05,-478.153 1297.52,-479.754 1296.24,-472.873"/>
<text text-anchor="middle" x="1367" y="-484" font-family="Helvetica,sans-Serif" font-size="10.00"> pionsFitterK0S</text>
<text text-anchor="middle" x="1367" y="-473" font-family="Helvetica,sans-Serif" font-size="10.00">pionsFitter3Pi0</text>
</g>
<!-- Node11 -->
<g id="node10" class="node"><title>Node11</title>
<g id="a_node10"><a xlink:href="classant_1_1analysis_1_1utils_1_1_tree_fitter.html" target="_top" xlink:title="ant::analysis::utils\l::TreeFitter">
<polygon fill="white" stroke="black" points="1187,-534 1187,-564 1283,-564 1283,-534 1187,-534"/>
<text text-anchor="start" x="1195" y="-552" font-family="Helvetica,sans-Serif" font-size="10.00">ant::analysis::utils</text>
<text text-anchor="middle" x="1235" y="-541" font-family="Helvetica,sans-Serif" font-size="10.00">::TreeFitter</text>
</a>
</g>
</g>
<!-- Node11&#45;&gt;Node2 -->
<g id="edge11" class="edge"><title>Node11&#45;&gt;Node2</title>
<path fill="none" stroke="#9a32cd" stroke-dasharray="5,2" d="M1292.97,-542.253C1329.09,-535.538 1375.04,-522.237 1408,-496 1445.38,-466.242 1467.36,-411.746 1476.3,-385.259"/>
<polygon fill="#9a32cd" stroke="#9a32cd" points="1292.32,-538.814 1283.07,-543.977 1293.52,-545.71 1292.32,-538.814"/>
<text text-anchor="middle" x="1367" y="-548" font-family="Helvetica,sans-Serif" font-size="10.00"> fitter3Pi0</text>
<text text-anchor="middle" x="1367" y="-537" font-family="Helvetica,sans-Serif" font-size="10.00">fitterK0S</text>
</g>
<!-- Node12 -->
<g id="node11" class="node"><title>Node12</title>
<g id="a_node11"><a xlink:href="classant_1_1analysis_1_1utils_1_1_kin_fitter.html" target="_top" xlink:title="ant::analysis::utils\l::KinFitter">
<polygon fill="white" stroke="black" points="865,-660 865,-690 961,-690 961,-660 865,-660"/>
<text text-anchor="start" x="873" y="-678" font-family="Helvetica,sans-Serif" font-size="10.00">ant::analysis::utils</text>
<text text-anchor="middle" x="913" y="-667" font-family="Helvetica,sans-Serif" font-size="10.00">::KinFitter</text>
</a>
</g>
</g>
<!-- Node12&#45;&gt;Node2 -->
<g id="edge30" class="edge"><title>Node12&#45;&gt;Node2</title>
<path fill="none" stroke="#9a32cd" stroke-dasharray="5,2" d="M971.223,-679.549C1073.8,-684.333 1289.32,-678.506 1408,-560 1458.51,-509.562 1474.76,-420.424 1479.37,-385.063"/>
<polygon fill="#9a32cd" stroke="#9a32cd" points="971.231,-676.045 961.063,-679.023 970.868,-683.036 971.231,-676.045"/>
<text text-anchor="middle" x="1235" y="-672" font-family="Helvetica,sans-Serif" font-size="10.00"> fitterEMB</text>
</g>
<!-- Node12&#45;&gt;Node11 -->
<g id="edge12" class="edge"><title>Node12&#45;&gt;Node11</title>
<path fill="none" stroke="midnightblue" d="M971.31,-667.087C1034.35,-658.097 1128.81,-643.683 1144,-636 1178.13,-618.739 1207.87,-584.091 1223.13,-564.121"/>
<polygon fill="midnightblue" stroke="midnightblue" points="970.502,-663.666 961.092,-668.536 971.485,-670.597 970.502,-663.666"/>
</g>
<!-- Node13 -->
<g id="node12" class="node"><title>Node13</title>
<g id="a_node12"><a xlink:href="classant_1_1analysis_1_1utils_1_1_fitter.html" target="_top" xlink:title="ant::analysis::utils\l::Fitter">
<polygon fill="white" stroke="black" points="607,-671 607,-701 703,-701 703,-671 607,-671"/>
<text text-anchor="start" x="615" y="-689" font-family="Helvetica,sans-Serif" font-size="10.00">ant::analysis::utils</text>
<text text-anchor="middle" x="655" y="-678" font-family="Helvetica,sans-Serif" font-size="10.00">::Fitter</text>
</a>
</g>
</g>
<!-- Node13&#45;&gt;Node12 -->
<g id="edge13" class="edge"><title>Node13&#45;&gt;Node12</title>
<path fill="none" stroke="midnightblue" d="M713.275,-683.539C758.838,-681.581 821.828,-678.875 864.59,-677.037"/>
<polygon fill="midnightblue" stroke="midnightblue" points="713.093,-680.043 703.253,-683.97 713.394,-687.037 713.093,-680.043"/>
</g>
<!-- Node14 -->
<g id="node13" class="node"><title>Node14</title>
<g id="a_node13"><a xlink:href="structant_1_1analysis_1_1utils_1_1_kin_fitter_1_1_target__t.html" target="_top" xlink:title="ant::analysis::utils\l::KinFitter::Target_t">
<polygon fill="white" stroke="black" points="604.5,-622 604.5,-652 705.5,-652 705.5,-622 604.5,-622"/>
<text text-anchor="start" x="612.5" y="-640" font-family="Helvetica,sans-Serif" font-size="10.00">ant::analysis::utils</text>
<text text-anchor="middle" x="655" y="-629" font-family="Helvetica,sans-Serif" font-size="10.00">::KinFitter::Target_t</text>
</a>
</g>
</g>
<!-- Node14&#45;&gt;Node12 -->
<g id="edge14" class="edge"><title>Node14&#45;&gt;Node12</title>
<path fill="none" stroke="#9a32cd" stroke-dasharray="5,2" d="M715.664,-645.856C761.037,-652.591 822.617,-661.732 864.638,-667.97"/>
<polygon fill="#9a32cd" stroke="#9a32cd" points="716.068,-642.378 705.663,-644.372 715.041,-649.302 716.068,-642.378"/>
<text text-anchor="middle" x="776" y="-663" font-family="Helvetica,sans-Serif" font-size="10.00"> Target</text>
</g>
<!-- Node15 -->
<g id="node14" class="node"><title>Node15</title>
<g id="a_node14"><a xlink:href="structant_1_1analysis_1_1utils_1_1_kin_fitter_1_1_beam_e__t.html" target="_top" xlink:title="ant::analysis::utils\l::KinFitter::BeamE_t">
<polygon fill="white" stroke="black" points="602,-534 602,-564 708,-564 708,-534 602,-534"/>
<text text-anchor="start" x="610" y="-552" font-family="Helvetica,sans-Serif" font-size="10.00">ant::analysis::utils</text>
<text text-anchor="middle" x="655" y="-541" font-family="Helvetica,sans-Serif" font-size="10.00">::KinFitter::BeamE_t</text>
</a>
</g>
</g>
<!-- Node15&#45;&gt;Node12 -->
<g id="edge15" class="edge"><title>Node15&#45;&gt;Node12</title>
<path fill="none" stroke="#9a32cd" stroke-dasharray="5,2" d="M718.17,-545.046C751.171,-546.339 790.136,-553.781 816,-578 840.077,-600.545 811.449,-625.928 834,-650 842.167,-658.717 853.372,-664.405 864.742,-668.114"/>
<polygon fill="#9a32cd" stroke="#9a32cd" points="718.214,-541.546 708.141,-544.83 718.063,-548.544 718.214,-541.546"/>
<text text-anchor="middle" x="776" y="-581" font-family="Helvetica,sans-Serif" font-size="10.00"> BeamE</text>
</g>
<!-- Node16 -->
<g id="node15" class="node"><title>Node16</title>
<g id="a_node15"><a xlink:href="structant_1_1analysis_1_1utils_1_1_fitter_1_1_v___s___p__t.html" target="_top" xlink:title="ant::analysis::utils\l::Fitter::V_S_P_t">
<polygon fill="white" stroke="black" points="397,-536 397,-566 493,-566 493,-536 397,-536"/>
<text text-anchor="start" x="405" y="-554" font-family="Helvetica,sans-Serif" font-size="10.00">ant::analysis::utils</text>
<text text-anchor="middle" x="445" y="-543" font-family="Helvetica,sans-Serif" font-size="10.00">::Fitter::V_S_P_t</text>
</a>
</g>
</g>
<!-- Node16&#45;&gt;Node15 -->
<g id="edge16" class="edge"><title>Node16&#45;&gt;Node15</title>
<path fill="none" stroke="midnightblue" d="M503.365,-550.448C534.186,-550.152 571.898,-549.789 601.878,-549.501"/>
<polygon fill="midnightblue" stroke="midnightblue" points="503.164,-546.95 493.198,-550.546 503.232,-553.95 503.164,-546.95"/>
</g>
<!-- Node17 -->
<g id="node16" class="node"><title>Node17</title>
<g id="a_node16"><a xlink:href="structant_1_1analysis_1_1utils_1_1_fitter_1_1_v___s__t.html" target="_top" xlink:title="ant::analysis::utils\l::Fitter::V_S_t">
<polygon fill="white" stroke="black" points="199,-536 199,-566 295,-566 295,-536 199,-536"/>
<text text-anchor="start" x="207" y="-554" font-family="Helvetica,sans-Serif" font-size="10.00">ant::analysis::utils</text>
<text text-anchor="middle" x="247" y="-543" font-family="Helvetica,sans-Serif" font-size="10.00">::Fitter::V_S_t</text>
</a>
</g>
</g>
<!-- Node17&#45;&gt;Node16 -->
<g id="edge17" class="edge"><title>Node17&#45;&gt;Node16</title>
<path fill="none" stroke="midnightblue" d="M305.481,-551C334.597,-551 369.503,-551 396.991,-551"/>
<polygon fill="midnightblue" stroke="midnightblue" points="305.446,-547.5 295.446,-551 305.446,-554.5 305.446,-547.5"/>
</g>
<!-- Node18 -->
<g id="node17" class="node"><title>Node18</title>
<polygon fill="white" stroke="#bfbfbf" points="592.5,-720.5 592.5,-739.5 717.5,-739.5 717.5,-720.5 592.5,-720.5"/>
<text text-anchor="middle" x="655" y="-727.5" font-family="Helvetica,sans-Serif" font-size="10.00">std::vector&lt; FitParticle &gt;</text>
</g>
<!-- Node18&#45;&gt;Node12 -->
<g id="edge18" class="edge"><title>Node18&#45;&gt;Node12</title>
<path fill="none" stroke="#9a32cd" stroke-dasharray="5,2" d="M710.352,-718.323C756.177,-708.478 821.09,-694.531 864.776,-685.146"/>
<polygon fill="#9a32cd" stroke="#9a32cd" points="709.341,-714.96 700.3,-720.483 710.812,-721.804 709.341,-714.96"/>
<text text-anchor="middle" x="776" y="-715" font-family="Helvetica,sans-Serif" font-size="10.00"> Photons</text>
</g>
<!-- Node19 -->
<g id="node18" class="node"><title>Node19</title>
<polygon fill="white" stroke="#bfbfbf" points="860,-621.5 860,-640.5 966,-640.5 966,-621.5 860,-621.5"/>
<text text-anchor="middle" x="913" y="-628.5" font-family="Helvetica,sans-Serif" font-size="10.00">std::vector&lt; tree_t &gt;</text>
</g>
<!-- Node19&#45;&gt;Node11 -->
<g id="edge19" class="edge"><title>Node19&#45;&gt;Node11</title>
<path fill="none" stroke="#9a32cd" stroke-dasharray="5,2" d="M976.368,-627.575C1023.41,-623.615 1089,-615.127 1144,-597 1168.05,-589.074 1193.31,-575.025 1210.93,-564.167"/>
<polygon fill="#9a32cd" stroke="#9a32cd" points="976.016,-624.091 966.326,-628.375 976.572,-631.069 976.016,-624.091"/>
<text text-anchor="middle" x="1077" y="-626" font-family="Helvetica,sans-Serif" font-size="10.00"> tree_leaves</text>
</g>
<!-- Node20 -->
<g id="node19" class="node"><title>Node20</title>
<polygon fill="white" stroke="#bfbfbf" points="840,-485 840,-515 986,-515 986,-485 840,-485"/>
<text text-anchor="start" x="848" y="-503" font-family="Helvetica,sans-Serif" font-size="10.00">std::list&lt; ant::analysis</text>
<text text-anchor="middle" x="913" y="-492" font-family="Helvetica,sans-Serif" font-size="10.00">::utils::TreeFitter::iteration_t &gt;</text>
</g>
<!-- Node20&#45;&gt;Node11 -->
<g id="edge20" class="edge"><title>Node20&#45;&gt;Node11</title>
<path fill="none" stroke="#9a32cd" stroke-dasharray="5,2" d="M996.101,-511.763C1040.01,-518.148 1094.98,-526.293 1144,-534 1157.93,-536.19 1173.05,-538.67 1186.85,-540.974"/>
<polygon fill="#9a32cd" stroke="#9a32cd" points="996.449,-508.277 986.05,-510.304 995.443,-515.204 996.449,-508.277"/>
<text text-anchor="middle" x="1077" y="-537" font-family="Helvetica,sans-Serif" font-size="10.00"> iterations</text>
</g>
<!-- Node21 -->
<g id="node20" class="node"><title>Node21</title>
<g id="a_node20"><a xlink:href="structant_1_1analysis_1_1utils_1_1_tree_fitter_1_1iteration__t.html" target="_top" xlink:title="ant::analysis::utils\l::TreeFitter::iteration_t">
<polygon fill="white" stroke="black" points="598.5,-485 598.5,-515 711.5,-515 711.5,-485 598.5,-485"/>
<text text-anchor="start" x="606.5" y="-503" font-family="Helvetica,sans-Serif" font-size="10.00">ant::analysis::utils</text>
<text text-anchor="middle" x="655" y="-492" font-family="Helvetica,sans-Serif" font-size="10.00">::TreeFitter::iteration_t</text>
</a>
</g>
</g>
<!-- Node21&#45;&gt;Node20 -->
<g id="edge21" class="edge"><title>Node21&#45;&gt;Node20</title>
<path fill="none" stroke="#9a32cd" stroke-dasharray="5,2" d="M721.939,-500C757.933,-500 802.565,-500 839.531,-500"/>
<polygon fill="#9a32cd" stroke="#9a32cd" points="721.548,-496.5 711.548,-500 721.548,-503.5 721.548,-496.5"/>
<text text-anchor="middle" x="776" y="-503" font-family="Helvetica,sans-Serif" font-size="10.00"> elements</text>
</g>
<!-- Node22 -->
<g id="node21" class="node"><title>Node22</title>
<polygon fill="white" stroke="#bfbfbf" points="380.5,-476.5 380.5,-517.5 509.5,-517.5 509.5,-476.5 380.5,-476.5"/>
<text text-anchor="start" x="388.5" y="-505.5" font-family="Helvetica,sans-Serif" font-size="10.00">std::vector&lt; ant::analysis</text>
<text text-anchor="start" x="388.5" y="-494.5" font-family="Helvetica,sans-Serif" font-size="10.00">::utils::TreeFitter::iteration</text>
<text text-anchor="middle" x="445" y="-483.5" font-family="Helvetica,sans-Serif" font-size="10.00">_t::photon_t &gt;</text>
</g>
<!-- Node22&#45;&gt;Node21 -->
<g id="edge22" class="edge"><title>Node22&#45;&gt;Node21</title>
<path fill="none" stroke="#9a32cd" stroke-dasharray="5,2" d="M519.67,-498.063C545.52,-498.435 574.111,-498.848 598.247,-499.196"/>
<polygon fill="#9a32cd" stroke="#9a32cd" points="519.587,-494.561 509.537,-497.916 519.486,-501.56 519.587,-494.561"/>
<text text-anchor="middle" x="551" y="-502" font-family="Helvetica,sans-Serif" font-size="10.00"> Photons</text>
</g>
<!-- Node23 -->
<g id="node22" class="node"><title>Node23</title>
<g id="a_node22"><a xlink:href="structant_1_1analysis_1_1utils_1_1_tree_fitter_1_1iteration__t_1_1photon__t.html" target="_top" xlink:title="ant::analysis::utils\l::TreeFitter::iteration\l_t::photon_t">
<polygon fill="white" stroke="black" points="194.5,-476.5 194.5,-517.5 299.5,-517.5 299.5,-476.5 194.5,-476.5"/>
<text text-anchor="start" x="202.5" y="-505.5" font-family="Helvetica,sans-Serif" font-size="10.00">ant::analysis::utils</text>
<text text-anchor="start" x="202.5" y="-494.5" font-family="Helvetica,sans-Serif" font-size="10.00">::TreeFitter::iteration</text>
<text text-anchor="middle" x="247" y="-483.5" font-family="Helvetica,sans-Serif" font-size="10.00">_t::photon_t</text>
</a>
</g>
</g>
<!-- Node23&#45;&gt;Node22 -->
<g id="edge23" class="edge"><title>Node23&#45;&gt;Node22</title>
<path fill="none" stroke="#9a32cd" stroke-dasharray="5,2" d="M309.853,-497C332.333,-497 357.764,-497 380.393,-497"/>
<polygon fill="#9a32cd" stroke="#9a32cd" points="309.753,-493.5 299.753,-497 309.753,-500.5 309.753,-493.5"/>
<text text-anchor="middle" x="340" y="-500" font-family="Helvetica,sans-Serif" font-size="10.00"> elements</text>
</g>
<!-- Node24 -->
<g id="node23" class="node"><title>Node24</title>
<g id="a_node23"><a xlink:href="structant_1_1std__ext_1_1cc__shared__ptr.html" target="_top" xlink:title="ant::std_ext::cc_shared\l_ptr\&lt; TParticle \&gt;">
<polygon fill="white" stroke="black" points="0.5,-482 0.5,-512 119.5,-512 119.5,-482 0.5,-482"/>
<text text-anchor="start" x="8.5" y="-500" font-family="Helvetica,sans-Serif" font-size="10.00">ant::std_ext::cc_shared</text>
<text text-anchor="middle" x="60" y="-489" font-family="Helvetica,sans-Serif" font-size="10.00">_ptr&lt; TParticle &gt;</text>
</a>
</g>
</g>
<!-- Node24&#45;&gt;Node23 -->
<g id="edge24" class="edge"><title>Node24&#45;&gt;Node23</title>
<path fill="none" stroke="#9a32cd" stroke-dasharray="5,2" d="M129.57,-497C151.026,-497 174.326,-497 194.406,-497"/>
<polygon fill="#9a32cd" stroke="#9a32cd" points="129.535,-493.5 119.535,-497 129.535,-500.5 129.535,-493.5"/>
<text text-anchor="middle" x="157" y="-500" font-family="Helvetica,sans-Serif" font-size="10.00"> Particle</text>
</g>
<!-- Node25 -->
<g id="node24" class="node"><title>Node25</title>
<polygon fill="white" stroke="#bfbfbf" points="850,-534 850,-564 976,-564 976,-534 850,-534"/>
<text text-anchor="start" x="858" y="-552" font-family="Helvetica,sans-Serif" font-size="10.00">std::vector&lt; std::function</text>
<text text-anchor="middle" x="913" y="-541" font-family="Helvetica,sans-Serif" font-size="10.00">&lt; void()&gt; &gt;</text>
</g>
<!-- Node25&#45;&gt;Node11 -->
<g id="edge25" class="edge"><title>Node25&#45;&gt;Node11</title>
<path fill="none" stroke="#9a32cd" stroke-dasharray="5,2" d="M986.079,-549C1047.41,-549 1133.73,-549 1186.66,-549"/>
<polygon fill="#9a32cd" stroke="#9a32cd" points="986.079,-545.5 976.079,-549 986.079,-552.5 986.079,-545.5"/>
<text text-anchor="middle" x="1077" y="-552" font-family="Helvetica,sans-Serif" font-size="10.00"> sum_daughters</text>
</g>
<!-- Node26 -->
<g id="node25" class="node"><title>Node26</title>
<polygon fill="white" stroke="#bfbfbf" points="843,-583.5 843,-602.5 983,-602.5 983,-583.5 843,-583.5"/>
<text text-anchor="middle" x="913" y="-590.5" font-family="Helvetica,sans-Serif" font-size="10.00">std::vector&lt; permutation_t &gt;</text>
</g>
<!-- Node26&#45;&gt;Node11 -->
<g id="edge26" class="edge"><title>Node26&#45;&gt;Node11</title>
<path fill="none" stroke="#9a32cd" stroke-dasharray="5,2" d="M993.187,-583.803C1037.58,-578.449 1093.94,-571.325 1144,-564 1157.95,-561.959 1173.08,-559.524 1186.88,-557.216"/>
<polygon fill="#9a32cd" stroke="#9a32cd" points="992.55,-580.354 983.038,-585.021 993.384,-587.304 992.55,-580.354"/>
<text text-anchor="middle" x="1077" y="-585" font-family="Helvetica,sans-Serif" font-size="10.00"> permutations</text>
</g>
<!-- Node27&#45;&gt;Node26 -->
<g id="edge27" class="edge"><title>Node27&#45;&gt;Node26</title>
<path fill="none" stroke="#9a32cd" stroke-dasharray="5,2" d="M708.597,-593C747.387,-593 800.533,-593 842.773,-593"/>
<polygon fill="#9a32cd" stroke="#9a32cd" points="708.561,-589.5 698.561,-593 708.561,-596.5 708.561,-589.5"/>
<text text-anchor="middle" x="776" y="-596" font-family="Helvetica,sans-Serif" font-size="10.00"> elements</text>
</g>
<!-- Node28 -->
<g id="node27" class="node"><title>Node28</title>
<polygon fill="white" stroke="#bfbfbf" points="834,-446.5 834,-465.5 992,-465.5 992,-446.5 834,-446.5"/>
<text text-anchor="middle" x="913" y="-453.5" font-family="Helvetica,sans-Serif" font-size="10.00">std::vector&lt; node_constraint_t &gt;</text>
</g>
<!-- Node28&#45;&gt;Node11 -->
<g id="edge29" class="edge"><title>Node28&#45;&gt;Node11</title>
<path fill="none" stroke="#9a32cd" stroke-dasharray="5,2" d="M1002.25,-466.349C1045.77,-473.084 1098.55,-483.728 1144,-500 1147.33,-501.192 1181.24,-519.805 1206.46,-533.74"/>
<polygon fill="#9a32cd" stroke="#9a32cd" points="1002.66,-462.872 992.255,-464.845 1001.62,-469.794 1002.66,-462.872"/>
<text text-anchor="middle" x="1077" y="-503" font-family="Helvetica,sans-Serif" font-size="10.00"> node_constraints</text>
</g>
<!-- Node29 -->
<g id="node28" class="node"><title>Node29</title>
<polygon fill="white" stroke="#bfbfbf" points="1163.5,-313.5 1163.5,-354.5 1306.5,-354.5 1306.5,-313.5 1163.5,-313.5"/>
<text text-anchor="start" x="1171.5" y="-342.5" font-family="Helvetica,sans-Serif" font-size="10.00">std::vector&lt; ant::analysis</text>
<text text-anchor="start" x="1171.5" y="-331.5" font-family="Helvetica,sans-Serif" font-size="10.00">::physics::sigmaPlus::named</text>
<text text-anchor="middle" x="1235" y="-320.5" font-family="Helvetica,sans-Serif" font-size="10.00">_channel_t &gt;</text>
</g>
<!-- Node29&#45;&gt;Node2 -->
<g id="edge31" class="edge"><title>Node29&#45;&gt;Node2</title>
<path fill="none" stroke="#9a32cd" stroke-dasharray="5,2" d="M1316.47,-345.824C1352.25,-351.082 1393.48,-357.139 1425.71,-361.876"/>
<polygon fill="#9a32cd" stroke="#9a32cd" points="1316.94,-342.355 1306.54,-344.364 1315.92,-349.281 1316.94,-342.355"/>
<text text-anchor="middle" x="1367" y="-362" font-family="Helvetica,sans-Serif" font-size="10.00"> otherBackgrounds</text>
</g>
<!-- Node30 -->
<g id="node29" class="node"><title>Node30</title>
<g id="a_node29"><a xlink:href="structant_1_1analysis_1_1physics_1_1sigma_plus_1_1named__channel__t.html" target="_top" xlink:title="ant::analysis::physics\l::sigmaPlus::named_channel_t">
<polygon fill="white" stroke="black" points="837.5,-247 837.5,-277 988.5,-277 988.5,-247 837.5,-247"/>
<text text-anchor="start" x="845.5" y="-265" font-family="Helvetica,sans-Serif" font-size="10.00">ant::analysis::physics</text>
<text text-anchor="middle" x="913" y="-254" font-family="Helvetica,sans-Serif" font-size="10.00">::sigmaPlus::named_channel_t</text>
</a>
</g>
</g>
<!-- Node30&#45;&gt;Node2 -->
<g id="edge35" class="edge"><title>Node30&#45;&gt;Node2</title>
<path fill="none" stroke="#9a32cd" stroke-dasharray="5,2" d="M998.712,-252.086C1079.71,-245.351 1204.49,-242.207 1308,-271 1369.34,-288.064 1431.88,-331.742 1462.2,-354.961"/>
<polygon fill="#9a32cd" stroke="#9a32cd" points="998.224,-248.615 988.564,-252.967 998.83,-255.589 998.224,-248.615"/>
<text text-anchor="middle" x="1235" y="-296" font-family="Helvetica,sans-Serif" font-size="10.00"> signal</text>
<text text-anchor="middle" x="1235" y="-285" font-family="Helvetica,sans-Serif" font-size="10.00">mainBackground</text>
<text text-anchor="middle" x="1235" y="-274" font-family="Helvetica,sans-Serif" font-size="10.00">sigmaBackground</text>
</g>
<!-- Node30&#45;&gt;Node29 -->
<g id="edge32" class="edge"><title>Node30&#45;&gt;Node29</title>
<path fill="none" stroke="#9a32cd" stroke-dasharray="5,2" d="M990.617,-279.239C1043.06,-291.038 1112.09,-306.57 1163.23,-318.077"/>
<polygon fill="#9a32cd" stroke="#9a32cd" points="991.217,-275.786 980.693,-277.006 989.681,-282.616 991.217,-275.786"/>
<text text-anchor="middle" x="1077" y="-316" font-family="Helvetica,sans-Serif" font-size="10.00"> elements</text>
</g>
<!-- Node31 -->
<g id="node30" class="node"><title>Node31</title>
<g id="a_node30"><a xlink:title="STL class. ">
<polygon fill="white" stroke="#bfbfbf" points="625,-257.5 625,-276.5 685,-276.5 685,-257.5 625,-257.5"/>
<text text-anchor="middle" x="655" y="-264.5" font-family="Helvetica,sans-Serif" font-size="10.00">std::string</text>
</a>
</g>
</g>
<!-- Node31&#45;&gt;Node30 -->
<g id="edge33" class="edge"><title>Node31&#45;&gt;Node30</title>
<path fill="none" stroke="#9a32cd" stroke-dasharray="5,2" d="M695.202,-261.703C708.164,-260.189 722.677,-258.747 736,-258 769.262,-256.135 806.106,-256.583 837.452,-257.713"/>
<polygon fill="#9a32cd" stroke="#9a32cd" points="694.695,-258.239 685.191,-262.921 695.541,-265.187 694.695,-258.239"/>
<text text-anchor="middle" x="776" y="-261" font-family="Helvetica,sans-Serif" font-size="10.00"> Name</text>
</g>
<!-- Node33 -->
<g id="node32" class="node"><title>Node33</title>
<g id="a_node32"><a xlink:href="structant_1_1analysis_1_1physics_1_1sigma_plus_1_1settings__t.html" target="_top" xlink:title="ant::analysis::physics\l::sigmaPlus::settings_t">
<polygon fill="white" stroke="black" points="854.5,-347 854.5,-377 971.5,-377 971.5,-347 854.5,-347"/>
<text text-anchor="start" x="862.5" y="-365" font-family="Helvetica,sans-Serif" font-size="10.00">ant::analysis::physics</text>
<text text-anchor="middle" x="913" y="-354" font-family="Helvetica,sans-Serif" font-size="10.00">::sigmaPlus::settings_t</text>
</a>
</g>
</g>
<!-- Node31&#45;&gt;Node33 -->
<g id="edge40" class="edge"><title>Node31&#45;&gt;Node33</title>
<path fill="none" stroke="#9a32cd" stroke-dasharray="5,2" d="M695.402,-271.774C728.494,-276.68 776.558,-285.926 816,-302 844.393,-313.571 873.831,-333.32 892.496,-346.984"/>
<polygon fill="#9a32cd" stroke="#9a32cd" points="695.606,-268.268 685.214,-270.331 694.624,-275.199 695.606,-268.268"/>
<text text-anchor="middle" x="776" y="-305" font-family="Helvetica,sans-Serif" font-size="10.00"> Tree_Name</text>
</g>
<!-- Node32 -->
<g id="node31" class="node"><title>Node32</title>
<g id="a_node31"><a xlink:title="STL class. ">
<polygon fill="white" stroke="#bfbfbf" points="397.5,-252 397.5,-282 492.5,-282 492.5,-252 397.5,-252"/>
<text text-anchor="start" x="405.5" y="-270" font-family="Helvetica,sans-Serif" font-size="10.00">std::basic_string&lt;</text>
<text text-anchor="middle" x="445" y="-259" font-family="Helvetica,sans-Serif" font-size="10.00"> char &gt;</text>
</a>
</g>
</g>
<!-- Node32&#45;&gt;Node31 -->
<g id="edge34" class="edge"><title>Node32&#45;&gt;Node31</title>
<path fill="none" stroke="midnightblue" d="M502.709,-267C542.199,-267 593.247,-267 624.796,-267"/>
<polygon fill="midnightblue" stroke="midnightblue" points="502.679,-263.5 492.679,-267 502.679,-270.5 502.679,-263.5"/>
</g>
<!-- Node33&#45;&gt;Node2 -->
<g id="edge36" class="edge"><title>Node33&#45;&gt;Node2</title>
<path fill="none" stroke="#9a32cd" stroke-dasharray="5,2" d="M981.787,-364.579C1063.43,-367.546 1204.72,-372.234 1326,-374 1362.44,-374.531 1371.57,-374.997 1408,-374 1413.71,-373.844 1419.67,-373.619 1425.61,-373.354"/>
<polygon fill="#9a32cd" stroke="#9a32cd" points="981.767,-361.076 971.646,-364.209 981.511,-368.072 981.767,-361.076"/>
<text text-anchor="middle" x="1235" y="-377" font-family="Helvetica,sans-Serif" font-size="10.00"> phSettings</text>
</g>
<!-- Node34 -->
<g id="node33" class="node"><title>Node34</title>
<polygon fill="white" stroke="#bfbfbf" points="603,-436 603,-466 707,-466 707,-436 603,-436"/>
<text text-anchor="start" x="611" y="-454" font-family="Helvetica,sans-Serif" font-size="10.00">std::vector&lt; interval</text>
<text text-anchor="middle" x="655" y="-443" font-family="Helvetica,sans-Serif" font-size="10.00">&lt; double &gt; &gt;</text>
</g>
<!-- Node34&#45;&gt;Node33 -->
<g id="edge37" class="edge"><title>Node34&#45;&gt;Node33</title>
<path fill="none" stroke="#9a32cd" stroke-dasharray="5,2" d="M696.262,-431.612C703.507,-428.097 710.984,-424.451 718,-421 726.026,-417.052 727.662,-415.236 736,-412 774.644,-397.001 819.625,-384.301 854.44,-375.454"/>
<polygon fill="#9a32cd" stroke="#9a32cd" points="694.736,-428.462 687.261,-435.971 697.787,-434.762 694.736,-428.462"/>
<text text-anchor="middle" x="776" y="-415" font-family="Helvetica,sans-Serif" font-size="10.00"> Ranges_Random</text>
</g>
<!-- Node38 -->
<g id="node37" class="node"><title>Node38</title>
<g id="a_node37"><a xlink:href="classant_1_1_piecewise_interval.html" target="_top" xlink:title="ant::PiecewiseInterval\l\&lt; double \&gt;">
<polygon fill="white" stroke="black" points="856.5,-397 856.5,-427 969.5,-427 969.5,-397 856.5,-397"/>
<text text-anchor="start" x="864.5" y="-415" font-family="Helvetica,sans-Serif" font-size="10.00">ant::PiecewiseInterval</text>
<text text-anchor="middle" x="913" y="-404" font-family="Helvetica,sans-Serif" font-size="10.00">&lt; double &gt;</text>
</a>
</g>
</g>
<!-- Node34&#45;&gt;Node38 -->
<g id="edge44" class="edge"><title>Node34&#45;&gt;Node38</title>
<path fill="none" stroke="midnightblue" d="M717.098,-441.692C759.444,-435.241 815.379,-426.72 856.462,-420.461"/>
<polygon fill="midnightblue" stroke="midnightblue" points="716.549,-438.235 707.19,-443.202 717.603,-445.155 716.549,-438.235"/>
</g>
<!-- Node35 -->
<g id="node34" class="node"><title>Node35</title>
<g id="a_node34"><a xlink:href="classant_1_1interval.html" target="_top" xlink:title="ant::interval\&lt; double \&gt;">
<polygon fill="white" stroke="black" points="388,-383.5 388,-402.5 502,-402.5 502,-383.5 388,-383.5"/>
<text text-anchor="middle" x="445" y="-390.5" font-family="Helvetica,sans-Serif" font-size="10.00">ant::interval&lt; double &gt;</text>
</a>
</g>
</g>
<!-- Node35&#45;&gt;Node33 -->
<g id="edge39" class="edge"><title>Node35&#45;&gt;Node33</title>
<path fill="none" stroke="#9a32cd" stroke-dasharray="5,2" d="M508.851,-381.821C534.546,-377.697 564.614,-373.439 592,-371 683.48,-362.852 790.195,-361.473 854.359,-361.519"/>
<polygon fill="#9a32cd" stroke="#9a32cd" points="508.172,-378.385 498.866,-383.451 509.3,-385.294 508.172,-378.385"/>
<text text-anchor="middle" x="655" y="-418" font-family="Helvetica,sans-Serif" font-size="10.00"> Range_Prompt</text>
<text text-anchor="middle" x="655" y="-407" font-family="Helvetica,sans-Serif" font-size="10.00">Cut_EMB_prob</text>
<text text-anchor="middle" x="655" y="-396" font-family="Helvetica,sans-Serif" font-size="10.00">Cut_MMAngle</text>
<text text-anchor="middle" x="655" y="-385" font-family="Helvetica,sans-Serif" font-size="10.00">Cut_MM</text>
<text text-anchor="middle" x="655" y="-374" font-family="Helvetica,sans-Serif" font-size="10.00">Cut_ProtonCopl</text>
</g>
<!-- Node35&#45;&gt;Node34 -->
<g id="edge38" class="edge"><title>Node35&#45;&gt;Node34</title>
<path fill="none" stroke="#9a32cd" stroke-dasharray="5,2" d="M490.167,-405.316C523.148,-414.512 568.296,-427.102 602.847,-436.736"/>
<polygon fill="#9a32cd" stroke="#9a32cd" points="490.92,-401.892 480.347,-402.578 489.039,-408.635 490.92,-401.892"/>
<text text-anchor="middle" x="551" y="-431" font-family="Helvetica,sans-Serif" font-size="10.00"> elements</text>
</g>
<!-- Node36 -->
<g id="node35" class="node"><title>Node36</title>
<g id="a_node35"><a xlink:href="classant_1_1interval.html" target="_top" xlink:title="ant::interval\&lt; size_t \&gt;">
<polygon fill="white" stroke="black" points="599,-306.5 599,-325.5 711,-325.5 711,-306.5 599,-306.5"/>
<text text-anchor="middle" x="655" y="-313.5" font-family="Helvetica,sans-Serif" font-size="10.00">ant::interval&lt; size_t &gt;</text>
</a>
</g>
</g>
<!-- Node36&#45;&gt;Node33 -->
<g id="edge41" class="edge"><title>Node36&#45;&gt;Node33</title>
<path fill="none" stroke="#9a32cd" stroke-dasharray="5,2" d="M721.433,-315.728C750.644,-316.721 785.323,-319.442 816,-326 837.584,-330.614 860.782,-339.204 878.967,-346.837"/>
<polygon fill="#9a32cd" stroke="#9a32cd" points="721.439,-312.227 711.345,-315.446 721.243,-319.224 721.439,-312.227"/>
<text text-anchor="middle" x="776" y="-340" font-family="Helvetica,sans-Serif" font-size="10.00"> Cut_NCands</text>
<text text-anchor="middle" x="776" y="-329" font-family="Helvetica,sans-Serif" font-size="10.00">Cut_NNeutr</text>
</g>
<!-- Node37 -->
<g id="node36" class="node"><title>Node37</title>
<g id="a_node36"><a xlink:href="classant_1_1analysis_1_1_prompt_random_1_1_switch.html" target="_top" xlink:title="ant::analysis::PromptRandom\l::Switch">
<polygon fill="white" stroke="black" points="1162,-421 1162,-451 1308,-451 1308,-421 1162,-421"/>
<text text-anchor="start" x="1170" y="-439" font-family="Helvetica,sans-Serif" font-size="10.00">ant::analysis::PromptRandom</text>
<text text-anchor="middle" x="1235" y="-428" font-family="Helvetica,sans-Serif" font-size="10.00">::Switch</text>
</a>
</g>
</g>
<!-- Node37&#45;&gt;Node2 -->
<g id="edge42" class="edge"><title>Node37&#45;&gt;Node2</title>
<path fill="none" stroke="#9a32cd" stroke-dasharray="5,2" d="M1318.22,-425.792C1347.03,-421.01 1379.33,-414.268 1408,-405 1423.78,-399.898 1440.52,-392.063 1453.99,-385.099"/>
<polygon fill="#9a32cd" stroke="#9a32cd" points="1317.51,-422.361 1308.19,-427.402 1318.62,-429.273 1317.51,-422.361"/>
<text text-anchor="middle" x="1367" y="-427" font-family="Helvetica,sans-Serif" font-size="10.00"> promptrandom</text>
</g>
<!-- Node38&#45;&gt;Node37 -->
<g id="edge43" class="edge"><title>Node38&#45;&gt;Node37</title>
<path fill="none" stroke="#9a32cd" stroke-dasharray="5,2" d="M979.989,-414.588C1026.01,-416.672 1088.82,-420.074 1144,-425 1149.8,-425.518 1155.81,-426.116 1161.83,-426.76"/>
<polygon fill="#9a32cd" stroke="#9a32cd" points="979.991,-411.085 969.845,-414.138 979.68,-418.078 979.991,-411.085"/>
<text text-anchor="middle" x="1077" y="-439" font-family="Helvetica,sans-Serif" font-size="10.00"> promptw</text>
<text text-anchor="middle" x="1077" y="-428" font-family="Helvetica,sans-Serif" font-size="10.00">randomw</text>
</g>
<!-- Node39 -->
<g id="node38" class="node"><title>Node39</title>
<g id="a_node38"><a xlink:href="classant_1_1analysis_1_1utils_1_1_trigger_simulation.html" target="_top" xlink:title="ant::analysis::utils\l::TriggerSimulation">
<polygon fill="white" stroke="black" points="1186,-195 1186,-225 1284,-225 1284,-195 1186,-195"/>
<text text-anchor="start" x="1194" y="-213" font-family="Helvetica,sans-Serif" font-size="10.00">ant::analysis::utils</text>
<text text-anchor="middle" x="1235" y="-202" font-family="Helvetica,sans-Serif" font-size="10.00">::TriggerSimulation</text>
</a>
</g>
</g>
<!-- Node39&#45;&gt;Node2 -->
<g id="edge45" class="edge"><title>Node39&#45;&gt;Node2</title>
<path fill="none" stroke="#9a32cd" stroke-dasharray="5,2" d="M1294.64,-206.719C1330.35,-207.565 1375.24,-213.995 1408,-237 1449.39,-266.065 1469.76,-326.345 1477.35,-354.668"/>
<polygon fill="#9a32cd" stroke="#9a32cd" points="1294.39,-203.216 1284.36,-206.621 1294.32,-210.216 1294.39,-203.216"/>
<text text-anchor="middle" x="1367" y="-240" font-family="Helvetica,sans-Serif" font-size="10.00"> triggersimu</text>
</g>
<!-- Node40 -->
<g id="node39" class="node"><title>Node40</title>
<g id="a_node39"><a xlink:href="structant_1_1analysis_1_1physics_1_1sigma_plus_1_1_pion_prod_tree.html" target="_top" xlink:title="ant::analysis::physics\l::sigmaPlus::PionProdTree">
<polygon fill="white" stroke="black" points="1010,-53 1010,-83 1144,-83 1144,-53 1010,-53"/>
<text text-anchor="start" x="1018" y="-71" font-family="Helvetica,sans-Serif" font-size="10.00">ant::analysis::physics</text>
<text text-anchor="middle" x="1077" y="-60" font-family="Helvetica,sans-Serif" font-size="10.00">::sigmaPlus::PionProdTree</text>
</a>
</g>
</g>
<!-- Node40&#45;&gt;Node2 -->
<g id="edge46" class="edge"><title>Node40&#45;&gt;Node2</title>
<path fill="none" stroke="#9a32cd" stroke-dasharray="5,2" d="M1154.26,-53.3714C1230.17,-43.6871 1344.29,-43.2113 1408,-111 1475.19,-182.487 1481.27,-310.975 1481.28,-354.842"/>
<polygon fill="#9a32cd" stroke="#9a32cd" points="1153.71,-49.9134 1144.27,-54.7261 1154.65,-56.8498 1153.71,-49.9134"/>
<text text-anchor="middle" x="1235" y="-60" font-family="Helvetica,sans-Serif" font-size="10.00"> tree</text>
</g>
<!-- Node41 -->
<g id="node40" class="node"><title>Node41</title>
<g id="a_node40"><a xlink:href="classant_1_1_wrap_t_tree.html" target="_top" xlink:title="The WrapTTree struct simplifies TTree handling in physics classes. ">
<polygon fill="white" stroke="black" points="612.5,-76.5 612.5,-95.5 697.5,-95.5 697.5,-76.5 612.5,-76.5"/>
<text text-anchor="middle" x="655" y="-83.5" font-family="Helvetica,sans-Serif" font-size="10.00">ant::WrapTTree</text>
</a>
</g>
</g>
<!-- Node41&#45;&gt;Node40 -->
<g id="edge47" class="edge"><title>Node41&#45;&gt;Node40</title>
<path fill="none" stroke="midnightblue" d="M708.111,-83.7667C784.313,-80.5009 926.139,-74.4226 1009.68,-70.8422"/>
<polygon fill="midnightblue" stroke="midnightblue" points="707.648,-80.2832 697.807,-84.2083 707.947,-87.2768 707.648,-80.2832"/>
</g>
<!-- Node43 -->
<g id="node42" class="node"><title>Node43</title>
<g id="a_node42"><a xlink:href="structant_1_1analysis_1_1physics_1_1sigma_plus_1_1eff_tree__t.html" target="_top" xlink:title="ant::analysis::physics\l::sigmaPlus::effTree_t">
<polygon fill="white" stroke="black" points="856.5,-97 856.5,-127 969.5,-127 969.5,-97 856.5,-97"/>
<text text-anchor="start" x="864.5" y="-115" font-family="Helvetica,sans-Serif" font-size="10.00">ant::analysis::physics</text>
<text text-anchor="middle" x="913" y="-104" font-family="Helvetica,sans-Serif" font-size="10.00">::sigmaPlus::effTree_t</text>
</a>
</g>
</g>
<!-- Node41&#45;&gt;Node43 -->
<g id="edge50" class="edge"><title>Node41&#45;&gt;Node43</title>
<path fill="none" stroke="midnightblue" d="M707.71,-91.2518C750.863,-95.6346 812.232,-101.867 856.428,-106.356"/>
<polygon fill="midnightblue" stroke="midnightblue" points="708.003,-87.7636 697.701,-90.2352 707.296,-94.7278 708.003,-87.7636"/>
</g>
<!-- Node42 -->
<g id="node41" class="node"><title>Node42</title>
<g id="a_node41"><a xlink:href="structant_1_1analysis_1_1physics_1_1sigma_plus_1_1_rec_tree.html" target="_top" xlink:title="ant::analysis::physics\l::sigmaPlus::RecTree">
<polygon fill="white" stroke="black" points="1179,-146 1179,-176 1291,-176 1291,-146 1179,-146"/>
<text text-anchor="start" x="1187" y="-164" font-family="Helvetica,sans-Serif" font-size="10.00">ant::analysis::physics</text>
<text text-anchor="middle" x="1235" y="-153" font-family="Helvetica,sans-Serif" font-size="10.00">::sigmaPlus::RecTree</text>
</a>
</g>
</g>
<!-- Node42&#45;&gt;Node2 -->
<g id="edge48" class="edge"><title>Node42&#45;&gt;Node2</title>
<path fill="none" stroke="#9a32cd" stroke-dasharray="5,2" d="M1301.38,-159.642C1336.44,-162.163 1378.4,-170.801 1408,-195 1459.1,-236.778 1474.93,-320.461 1479.4,-354.782"/>
<polygon fill="#9a32cd" stroke="#9a32cd" points="1301.4,-156.137 1291.21,-159.065 1301,-163.126 1301.4,-156.137"/>
<text text-anchor="middle" x="1367" y="-198" font-family="Helvetica,sans-Serif" font-size="10.00"> recSignal</text>
</g>
<!-- Node43&#45;&gt;Node42 -->
<g id="edge49" class="edge"><title>Node43&#45;&gt;Node42</title>
<path fill="none" stroke="midnightblue" d="M979.663,-122.055C1038.43,-131.053 1123.61,-144.096 1178.9,-152.563"/>
<polygon fill="midnightblue" stroke="midnightblue" points="980.154,-118.589 969.74,-120.535 979.095,-125.509 980.154,-118.589"/>
</g>
<!-- Node44 -->
<g id="node43" class="node"><title>Node44</title>
<g id="a_node43"><a xlink:href="structant_1_1analysis_1_1physics_1_1sigma_plus_1_1_seen_tree.html" target="_top" xlink:title="ant::analysis::physics\l::sigmaPlus::SeenTree">
<polygon fill="white" stroke="black" points="1177,-97 1177,-127 1293,-127 1293,-97 1177,-97"/>
<text text-anchor="start" x="1185" y="-115" font-family="Helvetica,sans-Serif" font-size="10.00">ant::analysis::physics</text>
<text text-anchor="middle" x="1235" y="-104" font-family="Helvetica,sans-Serif" font-size="10.00">::sigmaPlus::SeenTree</text>
</a>
</g>
</g>
<!-- Node43&#45;&gt;Node44 -->
<g id="edge52" class="edge"><title>Node43&#45;&gt;Node44</title>
<path fill="none" stroke="midnightblue" d="M979.898,-112C1037.9,-112 1121.49,-112 1176.74,-112"/>
<polygon fill="midnightblue" stroke="midnightblue" points="979.74,-108.5 969.74,-112 979.74,-115.5 979.74,-108.5"/>
</g>
<!-- Node44&#45;&gt;Node2 -->
<g id="edge51" class="edge"><title>Node44&#45;&gt;Node2</title>
<path fill="none" stroke="#9a32cd" stroke-dasharray="5,2" d="M1303.36,-111.163C1338.43,-114.183 1379.77,-123.643 1408,-149 1470.23,-204.892 1479.55,-314.891 1480.84,-354.953"/>
<polygon fill="#9a32cd" stroke="#9a32cd" points="1303.39,-107.657 1293.17,-110.448 1302.9,-114.64 1303.39,-107.657"/>
<text text-anchor="middle" x="1367" y="-152" font-family="Helvetica,sans-Serif" font-size="10.00"> seenSignal</text>
</g>
<!-- Node45 -->
<g id="node44" class="node"><title>Node45</title>
<polygon fill="white" stroke="#bfbfbf" points="1173,-0 1173,-30 1297,-30 1297,-0 1173,-0"/>
<text text-anchor="start" x="1181" y="-18" font-family="Helvetica,sans-Serif" font-size="10.00">std::list&lt; utils::TreeFitter</text>
<text text-anchor="middle" x="1235" y="-7" font-family="Helvetica,sans-Serif" font-size="10.00">::tree_t &gt;</text>
</g>
<!-- Node45&#45;&gt;Node2 -->
<g id="edge53" class="edge"><title>Node45&#45;&gt;Node2</title>
<path fill="none" stroke="#9a32cd" stroke-dasharray="5,2" d="M1307.15,-8.7324C1341.72,-9.61801 1381.42,-17.0528 1408,-42 1454.79,-85.9178 1475.07,-296.588 1479.85,-354.971"/>
<polygon fill="#9a32cd" stroke="#9a32cd" points="1307.11,-5.23206 1297.08,-8.65104 1307.05,-12.2318 1307.11,-5.23206"/>
<text text-anchor="middle" x="1367" y="-45" font-family="Helvetica,sans-Serif" font-size="10.00"> PionsK0S</text>
</g>
</g>
</svg>
