<?xml version="1.0" encoding="UTF-8" standalone="no"?>
<!DOCTYPE svg PUBLIC "-//W3C//DTD SVG 1.1//EN"
 "http://www.w3.org/Graphics/SVG/1.1/DTD/svg11.dtd">
<!-- Generated by graphviz version 2.36.0 (20140111.2315)
 -->
<!-- Title: src/base/std_ext/system.h Pages: 1 -->
<svg width="4073pt" height="96pt"
 viewBox="0.00 0.00 4073.00 96.00" xmlns="http://www.w3.org/2000/svg" xmlns:xlink="http://www.w3.org/1999/xlink">
<g id="graph0" class="graph" transform="scale(1 1) rotate(0) translate(4 92)">
<title>src/base/std_ext/system.h</title>
<polygon fill="white" stroke="none" points="-4,4 -4,-92 4069,-92 4069,4 -4,4"/>
<!-- Node3 -->
<g id="node1" class="node"><title>Node3</title>
<polygon fill="#bfbfbf" stroke="black" points="1994.5,-68.5 1994.5,-87.5 2127.5,-87.5 2127.5,-68.5 1994.5,-68.5"/>
<text text-anchor="middle" x="2061" y="-75.5" font-family="Helvetica,sans-Serif" font-size="10.00">src/base/std_ext/system.h</text>
</g>
<!-- Node4 -->
<g id="node2" class="node"><title>Node4</title>
<g id="a_node2"><a xlink:href="_ant-alt_veto_cal_tool_8cc.html" target="_top" xlink:title="progs/Ant&#45;altVetoCalTool.cc">
<polygon fill="white" stroke="black" points="0,-6.5 0,-25.5 140,-25.5 140,-6.5 0,-6.5"/>
<text text-anchor="middle" x="70" y="-13.5" font-family="Helvetica,sans-Serif" font-size="10.00">progs/Ant&#45;altVetoCalTool.cc</text>
</a>
</g>
</g>
<!-- Node3&#45;&gt;Node4 -->
<g id="edge1" class="edge"><title>Node3&#45;&gt;Node4</title>
<path fill="none" stroke="midnightblue" d="M1983.97,-76.8748C1673.59,-76.1091 513.84,-70.6656 149,-32 135.534,-30.5729 120.931,-28.0737 107.985,-25.5198"/>
<polygon fill="midnightblue" stroke="midnightblue" points="1984.21,-80.3753 1994.22,-76.8991 1984.23,-73.3753 1984.21,-80.3753"/>
</g>
<!-- Node5 -->
<g id="node3" class="node"><title>Node5</title>
<g id="a_node3"><a xlink:href="_ant-calib-dump_8cc.html" target="_top" xlink:title="progs/Ant&#45;calib&#45;dump.cc">
<polygon fill="white" stroke="black" points="158,-6.5 158,-25.5 280,-25.5 280,-6.5 158,-6.5"/>
<text text-anchor="middle" x="219" y="-13.5" font-family="Helvetica,sans-Serif" font-size="10.00">progs/Ant&#45;calib&#45;dump.cc</text>
</a>
</g>
</g>
<!-- Node3&#45;&gt;Node5 -->
<g id="edge2" class="edge"><title>Node3&#45;&gt;Node5</title>
<path fill="none" stroke="midnightblue" d="M1984.25,-76.9473C1688.77,-76.4501 624.607,-71.8686 289,-32 277.028,-30.5778 264.079,-28.0798 252.612,-25.5255"/>
<polygon fill="midnightblue" stroke="midnightblue" points="1984.43,-80.4475 1994.43,-76.9633 1984.44,-73.4475 1984.43,-80.4475"/>
</g>
<!-- Node6 -->
<g id="node4" class="node"><title>Node6</title>
<g id="a_node4"><a xlink:href="_ant-calib-readin_8cc.html" target="_top" xlink:title="progs/Ant&#45;calib&#45;readin.cc">
<polygon fill="white" stroke="black" points="298.5,-6.5 298.5,-25.5 423.5,-25.5 423.5,-6.5 298.5,-6.5"/>
<text text-anchor="middle" x="361" y="-13.5" font-family="Helvetica,sans-Serif" font-size="10.00">progs/Ant&#45;calib&#45;readin.cc</text>
</a>
</g>
</g>
<!-- Node3&#45;&gt;Node6 -->
<g id="edge3" class="edge"><title>Node3&#45;&gt;Node6</title>
<path fill="none" stroke="midnightblue" d="M1984.01,-76.6867C1703.83,-75.2639 739.009,-67.8168 433,-32 420.699,-30.5602 407.382,-28.0579 395.586,-25.5051"/>
<polygon fill="midnightblue" stroke="midnightblue" points="1984.06,-80.187 1994.08,-76.7368 1984.1,-73.187 1984.06,-80.187"/>
</g>
<!-- Node7 -->
<g id="node5" class="node"><title>Node7</title>
<g id="a_node5"><a xlink:href="_ant-calib-regedit_8cc.html" target="_top" xlink:title="progs/Ant&#45;calib&#45;regedit.cc">
<polygon fill="white" stroke="black" points="442,-6.5 442,-25.5 570,-25.5 570,-6.5 442,-6.5"/>
<text text-anchor="middle" x="506" y="-13.5" font-family="Helvetica,sans-Serif" font-size="10.00">progs/Ant&#45;calib&#45;regedit.cc</text>
</a>
</g>
</g>
<!-- Node3&#45;&gt;Node7 -->
<g id="edge4" class="edge"><title>Node3&#45;&gt;Node7</title>
<path fill="none" stroke="midnightblue" d="M1983.95,-76.414C1720.26,-74.1339 855.105,-64.3145 579,-32 566.663,-30.5562 553.314,-28.0858 541.445,-25.5619"/>
<polygon fill="midnightblue" stroke="midnightblue" points="1984.16,-79.9158 1994.19,-76.5014 1984.22,-72.9161 1984.16,-79.9158"/>
</g>
<!-- Node8 -->
<g id="node6" class="node"><title>Node8</title>
<g id="a_node6"><a xlink:href="_ant-calib-smooth_8cc.html" target="_top" xlink:title="progs/Ant&#45;calib&#45;smooth.cc">
<polygon fill="white" stroke="black" points="588.5,-6.5 588.5,-25.5 719.5,-25.5 719.5,-6.5 588.5,-6.5"/>
<text text-anchor="middle" x="654" y="-13.5" font-family="Helvetica,sans-Serif" font-size="10.00">progs/Ant&#45;calib&#45;smooth.cc</text>
</a>
</g>
</g>
<!-- Node3&#45;&gt;Node8 -->
<g id="edge5" class="edge"><title>Node3&#45;&gt;Node8</title>
<path fill="none" stroke="midnightblue" d="M1983.91,-76.0823C1737.95,-72.8893 973.707,-60.8471 728,-32 715.502,-30.5326 701.971,-28.0564 689.939,-25.5343"/>
<polygon fill="midnightblue" stroke="midnightblue" points="1984.14,-79.5855 1994.18,-76.2145 1984.23,-72.5861 1984.14,-79.5855"/>
</g>
<!-- Node9 -->
<g id="node7" class="node"><title>Node9</title>
<g id="a_node7"><a xlink:href="_ant-calib-viewer_8cc.html" target="_top" xlink:title="progs/Ant&#45;calib&#45;viewer.cc">
<polygon fill="white" stroke="black" points="737.5,-6.5 737.5,-25.5 864.5,-25.5 864.5,-6.5 737.5,-6.5"/>
<text text-anchor="middle" x="801" y="-13.5" font-family="Helvetica,sans-Serif" font-size="10.00">progs/Ant&#45;calib&#45;viewer.cc</text>
</a>
</g>
</g>
<!-- Node3&#45;&gt;Node9 -->
<g id="edge6" class="edge"><title>Node3&#45;&gt;Node9</title>
<path fill="none" stroke="midnightblue" d="M1984.31,-75.7447C1757.13,-71.7645 1090.13,-58.121 874,-32 861.669,-30.5097 848.32,-28.0277 836.452,-25.5074"/>
<polygon fill="midnightblue" stroke="midnightblue" points="1984.41,-79.2469 1994.46,-75.9214 1984.53,-72.2479 1984.41,-79.2469"/>
</g>
<!-- Node10 -->
<g id="node8" class="node"><title>Node10</title>
<g id="a_node8"><a xlink:href="_ant-chain_8cc.html" target="_top" xlink:title="hadd like tool to concatenate TTrees in ROOT files using TChains. ">
<polygon fill="white" stroke="black" points="883,-6.5 883,-25.5 981,-25.5 981,-6.5 883,-6.5"/>
<text text-anchor="middle" x="932" y="-13.5" font-family="Helvetica,sans-Serif" font-size="10.00">progs/Ant&#45;chain.cc</text>
</a>
</g>
</g>
<!-- Node3&#45;&gt;Node10 -->
<g id="edge7" class="edge"><title>Node3&#45;&gt;Node10</title>
<path fill="none" stroke="midnightblue" d="M1984.14,-75.8769C1772.12,-72.443 1181.98,-60.5309 990,-32 980.124,-30.5323 969.498,-28.0559 960.075,-25.5339"/>
<polygon fill="midnightblue" stroke="midnightblue" points="1984.2,-79.3781 1994.25,-76.0388 1984.31,-72.379 1984.2,-79.3781"/>
</g>
<!-- Node11 -->
<g id="node9" class="node"><title>Node11</title>
<g id="a_node9"><a xlink:href="_ant-fake_raw_8cc.html" target="_top" xlink:title="progs/Ant&#45;fakeRaw.cc">
<polygon fill="white" stroke="black" points="999,-6.5 999,-25.5 1113,-25.5 1113,-6.5 999,-6.5"/>
<text text-anchor="middle" x="1056" y="-13.5" font-family="Helvetica,sans-Serif" font-size="10.00">progs/Ant&#45;fakeRaw.cc</text>
</a>
</g>
</g>
<!-- Node3&#45;&gt;Node11 -->
<g id="edge8" class="edge"><title>Node3&#45;&gt;Node11</title>
<path fill="none" stroke="midnightblue" d="M1984.05,-77.8667C1823.17,-78.6799 1439.85,-75.3933 1122,-32 1110.94,-30.49 1099,-28.0351 1088.36,-25.5444"/>
<polygon fill="midnightblue" stroke="midnightblue" points="1984.34,-81.3652 1994.32,-77.8076 1984.3,-74.3653 1984.34,-81.3652"/>
</g>
<!-- Node12 -->
<g id="node10" class="node"><title>Node12</title>
<g id="a_node10"><a xlink:href="_ant-hadd_8cc.html" target="_top" xlink:title="progs/Ant&#45;hadd.cc">
<polygon fill="white" stroke="black" points="1131,-6.5 1131,-25.5 1227,-25.5 1227,-6.5 1131,-6.5"/>
<text text-anchor="middle" x="1179" y="-13.5" font-family="Helvetica,sans-Serif" font-size="10.00">progs/Ant&#45;hadd.cc</text>
</a>
</g>
</g>
<!-- Node3&#45;&gt;Node12 -->
<g id="edge9" class="edge"><title>Node3&#45;&gt;Node12</title>
<path fill="none" stroke="midnightblue" d="M1984.12,-74.7999C1807.85,-69.432 1378.76,-54.4387 1236,-32 1226.4,-30.4905 1216.07,-28.0357 1206.88,-25.545"/>
<polygon fill="midnightblue" stroke="midnightblue" points="1984.25,-78.3053 1994.35,-75.1092 1984.46,-71.3085 1984.25,-78.3053"/>
</g>
<!-- Node13 -->
<g id="node11" class="node"><title>Node13</title>
<g id="a_node11"><a xlink:href="_ant-make_sigmas_8cc.html" target="_top" xlink:title="progs/Ant&#45;makeSigmas.cc">
<polygon fill="white" stroke="black" points="1245,-6.5 1245,-25.5 1377,-25.5 1377,-6.5 1245,-6.5"/>
<text text-anchor="middle" x="1311" y="-13.5" font-family="Helvetica,sans-Serif" font-size="10.00">progs/Ant&#45;makeSigmas.cc</text>
</a>
</g>
</g>
<!-- Node3&#45;&gt;Node13 -->
<g id="edge10" class="edge"><title>Node3&#45;&gt;Node13</title>
<path fill="none" stroke="midnightblue" d="M1983.84,-75.137C1858.11,-71.3665 1601.44,-60.601 1386,-32 1373.76,-30.3749 1360.51,-27.9509 1348.61,-25.523"/>
<polygon fill="midnightblue" stroke="midnightblue" points="1984.03,-78.644 1994.13,-75.4386 1984.23,-71.647 1984.03,-78.644"/>
</g>
<!-- Node14 -->
<g id="node12" class="node"><title>Node14</title>
<g id="a_node12"><a xlink:href="_ant-make_tagg_eff_8cc.html" target="_top" xlink:title="progs/Ant&#45;makeTaggEff.cc">
<polygon fill="white" stroke="black" points="1395,-6.5 1395,-25.5 1529,-25.5 1529,-6.5 1395,-6.5"/>
<text text-anchor="middle" x="1462" y="-13.5" font-family="Helvetica,sans-Serif" font-size="10.00">progs/Ant&#45;makeTaggEff.cc</text>
</a>
</g>
</g>
<!-- Node3&#45;&gt;Node14 -->
<g id="edge11" class="edge"><title>Node3&#45;&gt;Node14</title>
<path fill="none" stroke="midnightblue" d="M1984.04,-73.0107C1881.79,-67.1095 1695.69,-54.2778 1538,-32 1525.88,-30.288 1512.78,-27.8977 1500.92,-25.5278"/>
<polygon fill="midnightblue" stroke="midnightblue" points="1984.09,-76.5192 1994.28,-73.5943 1984.49,-69.5305 1984.09,-76.5192"/>
</g>
<!-- Node15 -->
<g id="node13" class="node"><title>Node15</title>
<g id="a_node13"><a xlink:href="_ant-mc-pi0gun_8cc.html" target="_top" xlink:title="progs/Ant&#45;mc&#45;pi0gun.cc">
<polygon fill="white" stroke="black" points="1547,-6.5 1547,-25.5 1667,-25.5 1667,-6.5 1547,-6.5"/>
<text text-anchor="middle" x="1607" y="-13.5" font-family="Helvetica,sans-Serif" font-size="10.00">progs/Ant&#45;mc&#45;pi0gun.cc</text>
</a>
</g>
</g>
<!-- Node3&#45;&gt;Node15 -->
<g id="edge12" class="edge"><title>Node3&#45;&gt;Node15</title>
<path fill="none" stroke="midnightblue" d="M1984.08,-70.2409C1906.14,-62.8692 1782.25,-49.7146 1676,-32 1665.24,-30.2057 1653.62,-27.846 1643.04,-25.5309"/>
<polygon fill="midnightblue" stroke="midnightblue" points="1984.01,-73.7497 1994.3,-71.1987 1984.67,-66.7802 1984.01,-73.7497"/>
</g>
<!-- Node16 -->
<g id="node14" class="node"><title>Node16</title>
<g id="a_node14"><a xlink:href="_ant-plot_8cc.html" target="_top" xlink:title="progs/Ant&#45;plot.cc">
<polygon fill="white" stroke="black" points="1685.5,-6.5 1685.5,-25.5 1776.5,-25.5 1776.5,-6.5 1685.5,-6.5"/>
<text text-anchor="middle" x="1731" y="-13.5" font-family="Helvetica,sans-Serif" font-size="10.00">progs/Ant&#45;plot.cc</text>
</a>
</g>
</g>
<!-- Node3&#45;&gt;Node16 -->
<g id="edge13" class="edge"><title>Node3&#45;&gt;Node16</title>
<path fill="none" stroke="midnightblue" d="M1986.06,-67.0433C1930.31,-59.0888 1852.52,-46.8351 1785,-32 1776.64,-30.1625 1767.64,-27.8158 1759.44,-25.5271"/>
<polygon fill="midnightblue" stroke="midnightblue" points="1985.82,-70.5433 1996.21,-68.4781 1986.8,-63.6123 1985.82,-70.5433"/>
</g>
<!-- Node17 -->
<g id="node15" class="node"><title>Node17</title>
<g id="a_node15"><a xlink:href="_ant-rawdump_8cc.html" target="_top" xlink:title="progs/Ant&#45;rawdump.cc">
<polygon fill="white" stroke="black" points="1794.5,-6.5 1794.5,-25.5 1909.5,-25.5 1909.5,-6.5 1794.5,-6.5"/>
<text text-anchor="middle" x="1852" y="-13.5" font-family="Helvetica,sans-Serif" font-size="10.00">progs/Ant&#45;rawdump.cc</text>
</a>
</g>
</g>
<!-- Node3&#45;&gt;Node17 -->
<g id="edge14" class="edge"><title>Node3&#45;&gt;Node17</title>
<path fill="none" stroke="midnightblue" d="M2021.22,-65.5807C1980.61,-53.9221 1918.49,-36.0881 1881.89,-25.5806"/>
<polygon fill="midnightblue" stroke="midnightblue" points="2020.48,-69.0082 2031.06,-68.4035 2022.41,-62.2799 2020.48,-69.0082"/>
</g>
<!-- Node18 -->
<g id="node16" class="node"><title>Node18</title>
<g id="a_node16"><a xlink:href="_ant-smooth_tagg_eff_8cc.html" target="_top" xlink:title="progs/Ant&#45;smoothTaggEff.cc">
<polygon fill="white" stroke="black" points="1928,-6.5 1928,-25.5 2070,-25.5 2070,-6.5 1928,-6.5"/>
<text text-anchor="middle" x="1999" y="-13.5" font-family="Helvetica,sans-Serif" font-size="10.00">progs/Ant&#45;smoothTaggEff.cc</text>
</a>
</g>
</g>
<!-- Node3&#45;&gt;Node18 -->
<g id="edge15" class="edge"><title>Node3&#45;&gt;Node18</title>
<path fill="none" stroke="midnightblue" d="M2044.67,-61.1928C2032.89,-49.7935 2017.44,-34.8414 2007.87,-25.5806"/>
<polygon fill="midnightblue" stroke="midnightblue" points="2042.5,-63.9643 2052.12,-68.4035 2047.36,-58.9341 2042.5,-63.9643"/>
</g>
<!-- Node19 -->
<g id="node17" class="node"><title>Node19</title>
<g id="a_node17"><a xlink:href="_ant_8cc.html" target="_top" xlink:title="Main Ant executable. ">
<polygon fill="white" stroke="black" points="2088,-6.5 2088,-25.5 2160,-25.5 2160,-6.5 2088,-6.5"/>
<text text-anchor="middle" x="2124" y="-13.5" font-family="Helvetica,sans-Serif" font-size="10.00">progs/Ant.cc</text>
</a>
</g>
</g>
<!-- Node3&#45;&gt;Node19 -->
<g id="edge16" class="edge"><title>Node3&#45;&gt;Node19</title>
<path fill="none" stroke="midnightblue" d="M2077.6,-61.1928C2089.57,-49.7935 2105.27,-34.8414 2114.99,-25.5806"/>
<polygon fill="midnightblue" stroke="midnightblue" points="2074.85,-58.9724 2070.03,-68.4035 2079.68,-64.0414 2074.85,-58.9724"/>
</g>
<!-- Node20 -->
<g id="node18" class="node"><title>Node20</title>
<g id="a_node18"><a xlink:href="_etap_omega_g__fit_8cc.html" target="_top" xlink:title="progs/EtapOmegaG_fit.cc">
<polygon fill="white" stroke="black" points="2178,-6.5 2178,-25.5 2308,-25.5 2308,-6.5 2178,-6.5"/>
<text text-anchor="middle" x="2243" y="-13.5" font-family="Helvetica,sans-Serif" font-size="10.00">progs/EtapOmegaG_fit.cc</text>
</a>
</g>
</g>
<!-- Node3&#45;&gt;Node20 -->
<g id="edge17" class="edge"><title>Node3&#45;&gt;Node20</title>
<path fill="none" stroke="midnightblue" d="M2097,-65.1331C2132.37,-53.4699 2185.5,-35.9545 2216.97,-25.5806"/>
<polygon fill="midnightblue" stroke="midnightblue" points="2095.48,-61.9484 2087.08,-68.4035 2097.67,-68.5965 2095.48,-61.9484"/>
</g>
<!-- Node21 -->
<g id="node19" class="node"><title>Node21</title>
<g id="a_node19"><a xlink:href="_omega_eta_g__fit_8cc.html" target="_top" xlink:title="progs/OmegaEtaG_fit.cc">
<polygon fill="white" stroke="black" points="2326.5,-6.5 2326.5,-25.5 2451.5,-25.5 2451.5,-6.5 2326.5,-6.5"/>
<text text-anchor="middle" x="2389" y="-13.5" font-family="Helvetica,sans-Serif" font-size="10.00">progs/OmegaEtaG_fit.cc</text>
</a>
</g>
</g>
<!-- Node3&#45;&gt;Node21 -->
<g id="edge18" class="edge"><title>Node3&#45;&gt;Node21</title>
<path fill="none" stroke="midnightblue" d="M2122.62,-66.726C2174.54,-57.9366 2250.73,-44.7238 2317,-32 2327.41,-30.0016 2338.64,-27.7223 2349.06,-25.5543"/>
<polygon fill="midnightblue" stroke="midnightblue" points="2121.85,-63.3068 2112.57,-68.4235 2123.02,-70.209 2121.85,-63.3068"/>
</g>
<!-- Node22 -->
<g id="node20" class="node"><title>Node22</title>
<g id="a_node20"><a xlink:href="_p_c_a_8cc.html" target="_top" xlink:title="Tool to perform a Principal Component Analysis, based on ROOTs TPrincipal class, to create principal ...">
<polygon fill="white" stroke="black" points="2470,-6.5 2470,-25.5 2548,-25.5 2548,-6.5 2470,-6.5"/>
<text text-anchor="middle" x="2509" y="-13.5" font-family="Helvetica,sans-Serif" font-size="10.00">progs/PCA.cc</text>
</a>
</g>
</g>
<!-- Node3&#45;&gt;Node22 -->
<g id="edge19" class="edge"><title>Node3&#45;&gt;Node22</title>
<path fill="none" stroke="midnightblue" d="M2137.7,-72.5707C2218.52,-66.9226 2349.22,-54.9978 2460,-32 2468.01,-30.3363 2476.6,-27.9312 2484.3,-25.5323"/>
<polygon fill="midnightblue" stroke="midnightblue" points="2137.34,-69.0867 2127.6,-73.2614 2137.82,-76.0703 2137.34,-69.0867"/>
</g>
<!-- Node23 -->
<g id="node21" class="node"><title>Node23</title>
<g id="a_node21"><a xlink:href="_single_pi0__fit_8cc.html" target="_top" xlink:title="progs/SinglePi0_fit.cc">
<polygon fill="white" stroke="black" points="2566,-6.5 2566,-25.5 2678,-25.5 2678,-6.5 2566,-6.5"/>
<text text-anchor="middle" x="2622" y="-13.5" font-family="Helvetica,sans-Serif" font-size="10.00">progs/SinglePi0_fit.cc</text>
</a>
</g>
</g>
<!-- Node3&#45;&gt;Node23 -->
<g id="edge20" class="edge"><title>Node3&#45;&gt;Node23</title>
<path fill="none" stroke="midnightblue" d="M2137.64,-73.2942C2235.43,-67.8225 2409.6,-55.5813 2557,-32 2567.52,-30.3168 2578.87,-27.9062 2589.1,-25.5083"/>
<polygon fill="midnightblue" stroke="midnightblue" points="2137.34,-69.8053 2127.55,-73.8499 2137.72,-76.7947 2137.34,-69.8053"/>
</g>
<!-- Node24 -->
<g id="node22" class="node"><title>Node24</title>
<g id="a_node22"><a xlink:href="tagg_eff_plot_8cc.html" target="_top" xlink:title="progs/taggEffPlot.cc">
<polygon fill="white" stroke="black" points="2696,-6.5 2696,-25.5 2802,-25.5 2802,-6.5 2696,-6.5"/>
<text text-anchor="middle" x="2749" y="-13.5" font-family="Helvetica,sans-Serif" font-size="10.00">progs/taggEffPlot.cc</text>
</a>
</g>
</g>
<!-- Node3&#45;&gt;Node24 -->
<g id="edge21" class="edge"><title>Node3&#45;&gt;Node24</title>
<path fill="none" stroke="midnightblue" d="M2137.58,-75.4715C2255.86,-72.2154 2489.85,-62.2094 2686,-32 2696.33,-30.4084 2707.47,-27.9936 2717.47,-25.5638"/>
<polygon fill="midnightblue" stroke="midnightblue" points="2137.44,-71.9739 2127.54,-75.7394 2137.63,-78.9715 2137.44,-71.9739"/>
</g>
<!-- Node25 -->
<g id="node23" class="node"><title>Node25</title>
<g id="a_node23"><a xlink:href="tagger_energies_8cc.html" target="_top" xlink:title="progs/taggerEnergies.cc">
<polygon fill="white" stroke="black" points="2820,-6.5 2820,-25.5 2942,-25.5 2942,-6.5 2820,-6.5"/>
<text text-anchor="middle" x="2881" y="-13.5" font-family="Helvetica,sans-Serif" font-size="10.00">progs/taggerEnergies.cc</text>
</a>
</g>
</g>
<!-- Node3&#45;&gt;Node25 -->
<g id="edge22" class="edge"><title>Node3&#45;&gt;Node25</title>
<path fill="none" stroke="midnightblue" d="M2138.02,-76.1292C2274.18,-73.7545 2566.06,-64.9111 2810,-32 2821.74,-30.4166 2834.43,-27.9736 2845.79,-25.5158"/>
<polygon fill="midnightblue" stroke="midnightblue" points="2137.64,-72.635 2127.7,-76.3019 2137.76,-79.634 2137.64,-72.635"/>
</g>
<!-- Node26 -->
<g id="node24" class="node"><title>Node26</title>
<g id="a_node24"><a xlink:href="_particle_i_d_8cc.html" target="_top" xlink:title="src/analysis/utils\l/ParticleID.cc">
<polygon fill="white" stroke="black" points="2960,-1 2960,-31 3050,-31 3050,-1 2960,-1"/>
<text text-anchor="start" x="2968" y="-19" font-family="Helvetica,sans-Serif" font-size="10.00">src/analysis/utils</text>
<text text-anchor="middle" x="3005" y="-8" font-family="Helvetica,sans-Serif" font-size="10.00">/ParticleID.cc</text>
</a>
</g>
</g>
<!-- Node3&#45;&gt;Node26 -->
<g id="edge23" class="edge"><title>Node3&#45;&gt;Node26</title>
<path fill="none" stroke="midnightblue" d="M2137.92,-75.2872C2324.18,-70.7888 2795.5,-57.2121 2951,-32 2953.88,-31.5328 2956.83,-30.9692 2959.79,-30.338"/>
<polygon fill="midnightblue" stroke="midnightblue" points="2137.58,-71.7943 2127.67,-75.5326 2137.75,-78.7922 2137.58,-71.7943"/>
</g>
<!-- Node27 -->
<g id="node25" class="node"><title>Node27</title>
<g id="a_node25"><a xlink:href="_m_c_extracted_8cc.html" target="_top" xlink:title="src/analysis/utils\l/uncertainties/MCExtracted.cc">
<polygon fill="white" stroke="black" points="3068.5,-1 3068.5,-31 3217.5,-31 3217.5,-1 3068.5,-1"/>
<text text-anchor="start" x="3076.5" y="-19" font-family="Helvetica,sans-Serif" font-size="10.00">src/analysis/utils</text>
<text text-anchor="middle" x="3143" y="-8" font-family="Helvetica,sans-Serif" font-size="10.00">/uncertainties/MCExtracted.cc</text>
</a>
</g>
</g>
<!-- Node3&#45;&gt;Node27 -->
<g id="edge24" class="edge"><title>Node3&#45;&gt;Node27</title>
<path fill="none" stroke="midnightblue" d="M2137.72,-76.9747C2305.39,-76.1673 2716.89,-70.091 3059,-32 3062.09,-31.6558 3065.24,-31.267 3068.42,-30.8435"/>
<polygon fill="midnightblue" stroke="midnightblue" points="2137.5,-73.4755 2127.51,-77.0187 2137.53,-80.4754 2137.5,-73.4755"/>
</g>
<!-- Node28 -->
<g id="node26" class="node"><title>Node28</title>
<g id="a_node26"><a xlink:href="_git_info_8cc.html" target="_top" xlink:title="src/base/GitInfo.cc">
<polygon fill="white" stroke="black" points="3236,-6.5 3236,-25.5 3336,-25.5 3336,-6.5 3236,-6.5"/>
<text text-anchor="middle" x="3286" y="-13.5" font-family="Helvetica,sans-Serif" font-size="10.00">src/base/GitInfo.cc</text>
</a>
</g>
</g>
<!-- Node3&#45;&gt;Node28 -->
<g id="edge25" class="edge"><title>Node3&#45;&gt;Node28</title>
<path fill="none" stroke="midnightblue" d="M2137.9,-76.0996C2362.5,-73.1415 3014.97,-62.1253 3226,-32 3236.2,-30.5433 3247.19,-28.0698 3256.94,-25.5469"/>
<polygon fill="midnightblue" stroke="midnightblue" points="2137.8,-72.6005 2127.85,-76.2303 2137.89,-79.5999 2137.8,-72.6005"/>
</g>
<!-- Node29 -->
<g id="node27" class="node"><title>Node29</title>
<g id="a_node27"><a xlink:href="system_8cc.html" target="_top" xlink:title="src/base/std_ext/system.cc">
<polygon fill="white" stroke="black" points="3354,-6.5 3354,-25.5 3492,-25.5 3492,-6.5 3354,-6.5"/>
<text text-anchor="middle" x="3423" y="-13.5" font-family="Helvetica,sans-Serif" font-size="10.00">src/base/std_ext/system.cc</text>
</a>
</g>
</g>
<!-- Node3&#45;&gt;Node29 -->
<g id="edge26" class="edge"><title>Node3&#45;&gt;Node29</title>
<path fill="none" stroke="midnightblue" d="M2137.73,-75.872C2377.22,-72.1047 3109.01,-58.6634 3345,-32 3358.15,-30.5137 3372.41,-28.0328 3385.1,-25.5122"/>
<polygon fill="midnightblue" stroke="midnightblue" points="2137.66,-72.3725 2127.71,-76.0284 2137.77,-79.3717 2137.66,-72.3725"/>
</g>
<!-- Node30 -->
<g id="node28" class="node"><title>Node30</title>
<g id="a_node28"><a xlink:href="_wrap_t_file_8cc.html" target="_top" xlink:title="src/base/WrapTFile.cc">
<polygon fill="white" stroke="black" points="3510,-6.5 3510,-25.5 3626,-25.5 3626,-6.5 3510,-6.5"/>
<text text-anchor="middle" x="3568" y="-13.5" font-family="Helvetica,sans-Serif" font-size="10.00">src/base/WrapTFile.cc</text>
</a>
</g>
</g>
<!-- Node3&#45;&gt;Node30 -->
<g id="edge27" class="edge"><title>Node3&#45;&gt;Node30</title>
<path fill="none" stroke="midnightblue" d="M2137.66,-76.5153C2396.01,-74.5821 3233.63,-65.799 3501,-32 3512.35,-30.5649 3524.61,-28.0967 3535.5,-25.5721"/>
<polygon fill="midnightblue" stroke="midnightblue" points="2137.59,-73.0156 2127.61,-76.5891 2137.64,-80.0154 2137.59,-73.0156"/>
</g>
<!-- Node31 -->
<g id="node29" class="node"><title>Node31</title>
<g id="a_node29"><a xlink:href="_data_base_8cc.html" target="_top" xlink:title="src/calibration/DataBase.cc">
<polygon fill="white" stroke="black" points="3644.5,-6.5 3644.5,-25.5 3781.5,-25.5 3781.5,-6.5 3644.5,-6.5"/>
<text text-anchor="middle" x="3713" y="-13.5" font-family="Helvetica,sans-Serif" font-size="10.00">src/calibration/DataBase.cc</text>
</a>
</g>
</g>
<!-- Node3&#45;&gt;Node31 -->
<g id="edge28" class="edge"><title>Node3&#45;&gt;Node31</title>
<path fill="none" stroke="midnightblue" d="M2138.09,-76.4188C2412.21,-74.0987 3339.03,-64.0175 3634,-32 3647.32,-30.5538 3661.76,-28.0829 3674.61,-25.5592"/>
<polygon fill="midnightblue" stroke="midnightblue" points="2137.82,-72.9209 2127.85,-76.5045 2137.88,-79.9207 2137.82,-72.9209"/>
</g>
<!-- Node32 -->
<g id="node30" class="node"><title>Node32</title>
<g id="a_node30"><a xlink:href="pi0__true__calib_8cc.html" target="_top" xlink:title="src/root&#45;addons/analysis\l_codes/pi0_true_calib.cc">
<polygon fill="white" stroke="black" points="3799.5,-1 3799.5,-31 3924.5,-31 3924.5,-1 3799.5,-1"/>
<text text-anchor="start" x="3807.5" y="-19" font-family="Helvetica,sans-Serif" font-size="10.00">src/root&#45;addons/analysis</text>
<text text-anchor="middle" x="3862" y="-8" font-family="Helvetica,sans-Serif" font-size="10.00">_codes/pi0_true_calib.cc</text>
</a>
</g>
</g>
<!-- Node3&#45;&gt;Node32 -->
<g id="edge29" class="edge"><title>Node3&#45;&gt;Node32</title>
<path fill="none" stroke="midnightblue" d="M2137.84,-76.8325C2428.83,-75.9133 3463.17,-69.9864 3790,-32 3793.04,-31.6462 3796.15,-31.2269 3799.28,-30.7575"/>
<polygon fill="midnightblue" stroke="midnightblue" points="2137.79,-73.3325 2127.81,-76.8631 2137.82,-80.3325 2137.79,-73.3325"/>
</g>
<!-- Node33 -->
<g id="node31" class="node"><title>Node33</title>
<g id="a_node31"><a xlink:href="_test_std_ext_8cc.html" target="_top" xlink:title="test/base/TestStdExt.cc">
<polygon fill="white" stroke="black" points="3942.5,-6.5 3942.5,-25.5 4065.5,-25.5 4065.5,-6.5 3942.5,-6.5"/>
<text text-anchor="middle" x="4004" y="-13.5" font-family="Helvetica,sans-Serif" font-size="10.00">test/base/TestStdExt.cc</text>
</a>
</g>
</g>
<!-- Node3&#45;&gt;Node33 -->
<g id="edge30" class="edge"><title>Node3&#45;&gt;Node33</title>
<path fill="none" stroke="midnightblue" d="M2137.98,-77.0398C2444.23,-76.9054 3576.81,-73.5482 3933,-32 3945.14,-30.5841 3958.27,-28.0877 3969.9,-25.5328"/>
<polygon fill="midnightblue" stroke="midnightblue" points="2137.86,-73.5397 2127.86,-77.0432 2137.86,-80.5397 2137.86,-73.5397"/>
</g>
</g>
</svg>
