<?xml version="1.0" encoding="UTF-8" standalone="no"?>
<!DOCTYPE svg PUBLIC "-//W3C//DTD SVG 1.1//EN"
 "http://www.w3.org/Graphics/SVG/1.1/DTD/svg11.dtd">
<!-- Generated by graphviz version 2.36.0 (20140111.2315)
 -->
<!-- Title: src/base/std_ext/vector.h Pages: 1 -->
<svg width="676pt" height="106pt"
 viewBox="0.00 0.00 676.00 106.00" xmlns="http://www.w3.org/2000/svg" xmlns:xlink="http://www.w3.org/1999/xlink">
<g id="graph0" class="graph" transform="scale(1 1) rotate(0) translate(4 102)">
<title>src/base/std_ext/vector.h</title>
<polygon fill="white" stroke="none" points="-4,4 -4,-102 672,-102 672,4 -4,4"/>
<!-- Node4 -->
<g id="node1" class="node"><title>Node4</title>
<polygon fill="#bfbfbf" stroke="black" points="252,-78.5 252,-97.5 380,-97.5 380,-78.5 252,-78.5"/>
<text text-anchor="middle" x="316" y="-85.5" font-family="Helvetica,sans-Serif" font-size="10.00">src/base/std_ext/vector.h</text>
</g>
<!-- Node5 -->
<g id="node2" class="node"><title>Node5</title>
<g id="a_node2"><a xlink:href="_p_c_a_8cc.html" target="_top" xlink:title="Tool to perform a Principal Component Analysis, based on ROOTs TPrincipal class, to create principal ...">
<polygon fill="white" stroke="black" points="0,-11.5 0,-30.5 78,-30.5 78,-11.5 0,-11.5"/>
<text text-anchor="middle" x="39" y="-18.5" font-family="Helvetica,sans-Serif" font-size="10.00">progs/PCA.cc</text>
</a>
</g>
</g>
<!-- Node4&#45;&gt;Node5 -->
<g id="edge1" class="edge"><title>Node4&#45;&gt;Node5</title>
<path fill="none" stroke="midnightblue" d="M245.292,-76.8718C199.571,-69.4043 139.089,-57.7946 87,-42 76.9784,-38.9612 66.1834,-34.5699 57.3735,-30.6757"/>
<polygon fill="midnightblue" stroke="midnightblue" points="244.975,-80.3656 255.403,-78.4951 246.084,-73.4541 244.975,-80.3656"/>
</g>
<!-- Node6 -->
<g id="node3" class="node"><title>Node6</title>
<g id="a_node3"><a xlink:href="_meson_dalitz_decays__plot_8cc.html" target="_top" xlink:title="src/analysis/physics\l/common/MesonDalitzDecays\l_plot.cc">
<polygon fill="white" stroke="black" points="96.5,-0.5 96.5,-41.5 245.5,-41.5 245.5,-0.5 96.5,-0.5"/>
<text text-anchor="start" x="104.5" y="-29.5" font-family="Helvetica,sans-Serif" font-size="10.00">src/analysis/physics</text>
<text text-anchor="start" x="104.5" y="-18.5" font-family="Helvetica,sans-Serif" font-size="10.00">/common/MesonDalitzDecays</text>
<text text-anchor="middle" x="171" y="-7.5" font-family="Helvetica,sans-Serif" font-size="10.00">_plot.cc</text>
</a>
</g>
</g>
<!-- Node4&#45;&gt;Node6 -->
<g id="edge2" class="edge"><title>Node4&#45;&gt;Node6</title>
<path fill="none" stroke="midnightblue" d="M287.533,-74.239C266.816,-64.952 238.377,-52.2035 214.78,-41.6254"/>
<polygon fill="midnightblue" stroke="midnightblue" points="286.188,-77.4717 296.745,-78.3685 289.052,-71.0841 286.188,-77.4717"/>
</g>
<!-- Node7 -->
<g id="node4" class="node"><title>Node7</title>
<g id="a_node4"><a xlink:href="_etap_dalitz__plot_8cc.html" target="_top" xlink:title="src/analysis/physics\l/etaprime/EtapDalitz\l_plot.cc">
<polygon fill="white" stroke="black" points="263,-0.5 263,-41.5 369,-41.5 369,-0.5 263,-0.5"/>
<text text-anchor="start" x="271" y="-29.5" font-family="Helvetica,sans-Serif" font-size="10.00">src/analysis/physics</text>
<text text-anchor="start" x="271" y="-18.5" font-family="Helvetica,sans-Serif" font-size="10.00">/etaprime/EtapDalitz</text>
<text text-anchor="middle" x="316" y="-7.5" font-family="Helvetica,sans-Serif" font-size="10.00">_plot.cc</text>
</a>
</g>
</g>
<!-- Node4&#45;&gt;Node7 -->
<g id="edge3" class="edge"><title>Node4&#45;&gt;Node7</title>
<path fill="none" stroke="midnightblue" d="M316,-68.037C316,-59.7084 316,-49.9358 316,-41.5421"/>
<polygon fill="midnightblue" stroke="midnightblue" points="312.5,-68.2338 316,-78.2338 319.5,-68.2338 312.5,-68.2338"/>
</g>
<!-- Node8 -->
<g id="node5" class="node"><title>Node8</title>
<g id="a_node5"><a xlink:href="etaprime__dalitz_8cc.html" target="_top" xlink:title="src/analysis/physics\l/etaprime/etaprime_dalitz.cc">
<polygon fill="white" stroke="black" points="387,-6 387,-36 527,-36 527,-6 387,-6"/>
<text text-anchor="start" x="395" y="-24" font-family="Helvetica,sans-Serif" font-size="10.00">src/analysis/physics</text>
<text text-anchor="middle" x="457" y="-13" font-family="Helvetica,sans-Serif" font-size="10.00">/etaprime/etaprime_dalitz.cc</text>
</a>
</g>
</g>
<!-- Node4&#45;&gt;Node8 -->
<g id="edge4" class="edge"><title>Node4&#45;&gt;Node8</title>
<path fill="none" stroke="midnightblue" d="M343.938,-74.1206C367.79,-63.1252 402.029,-47.3413 426.57,-36.0281"/>
<polygon fill="midnightblue" stroke="midnightblue" points="342.34,-71.0034 334.724,-78.3685 345.27,-77.3605 342.34,-71.0034"/>
</g>
<!-- Node9 -->
<g id="node6" class="node"><title>Node9</title>
<g id="a_node6"><a xlink:href="_test_std_ext_8cc.html" target="_top" xlink:title="test/base/TestStdExt.cc">
<polygon fill="white" stroke="black" points="545.5,-11.5 545.5,-30.5 668.5,-30.5 668.5,-11.5 545.5,-11.5"/>
<text text-anchor="middle" x="607" y="-18.5" font-family="Helvetica,sans-Serif" font-size="10.00">test/base/TestStdExt.cc</text>
</a>
</g>
</g>
<!-- Node4&#45;&gt;Node9 -->
<g id="edge5" class="edge"><title>Node4&#45;&gt;Node9</title>
<path fill="none" stroke="midnightblue" d="M372.63,-76.5924C417.212,-68.1162 480.819,-55.3966 536,-42 550.062,-38.586 565.544,-34.2891 578.452,-30.554"/>
<polygon fill="midnightblue" stroke="midnightblue" points="371.747,-73.1973 362.571,-78.4943 373.047,-80.0755 371.747,-73.1973"/>
</g>
</g>
</svg>
